<?xml version="1.0" encoding="utf-8"?>
<!-- Generator: Adobe Illustrator 19.0.0, SVG Export Plug-In . SVG Version: 6.00 Build 0)  -->
<svg version="1.1" id="Layer_1" xmlns="http://www.w3.org/2000/svg" xmlns:xlink="http://www.w3.org/1999/xlink" x="0px" y="0px"
	 viewBox="0 0 41 49.5" style="enable-background:new 0 0 41 49.5;" xml:space="preserve">
<path id="XMLID_584_" style="opacity:0.4;fill:#7A7A7A;enable-background:new    ;" d="M41,28.9c-0.1-2.3-0.6-4.6-1.4-6.7
	c-0.3-0.6-0.5-1.2-0.9-1.8c-1.5-2.9-3.7-5.4-6.4-7.3c-1.9-1.3-4-2.3-6.3-2.9c-0.1,0-0.2,0-0.3-0.1c0.1-0.2,0.1-0.4,0.1-0.7
	c0-0.9-0.5-1.7-1.3-2C25,6.8,25.3,5.9,25.3,5c0-2.4-1.9-4.3-4.3-4.3c-2.4,0-4.3,1.9-4.3,4.3c0,0.9,0.3,1.8,0.8,2.5
	c-0.8,0.3-1.3,1.1-1.3,2c0,0.2,0,0.5,0.1,0.7c-0.2,0.1-0.4,0.1-0.6,0.1c-1.8,0.5-3.5,1.2-5.1,2.2c-3.3,2-6,4.9-7.7,8.5
	c-0.2,0.4-0.4,0.8-0.6,1.3c-0.8,2.1-1.3,4.3-1.4,6.7c0,0.2,0,0.4,0,0.7c0,2.1,0.3,4.1,0.9,6c0.1,0.5,0.3,0.9,0.5,1.3
	c0.8,1.9,1.8,3.7,3.1,5.3c1,1.2,2.2,2.3,3.4,3.3c0.6,0.5,1.2,0.9,1.9,1.2c2.3,1.4,4.9,2.3,7.7,2.6c0.8,0.1,1.6,0.2,2.4,0.2
	c0.7,0,1.4-0.1,2.1-0.1c2.7-0.3,5.3-1.1,7.6-2.4c0.6-0.4,1.3-0.7,1.9-1.2c1.4-1,2.7-2.2,3.8-3.5c1.4-1.7,2.5-3.6,3.3-5.7
	c0.1-0.3,0.2-0.7,0.3-1c0.6-1.9,0.9-3.9,0.9-6C41,29.4,41,29.2,41,28.9z M21.1,2.6c1.3,0,2.4,1.1,2.4,2.4c0,1.2-0.9,2.2-2.1,2.3
	h-0.6c-1.2-0.1-2.1-1.1-2.1-2.3C18.7,3.7,19.8,2.6,21.1,2.6z"/>
<path id="XMLID_394_" style="fill:#EDEDED;" d="M22.5,11h-5.1c-1.2,0-2.2-1-2.2-2.2l0,0c0-1.2,1-2.2,2.2-2.2h5.1
	c1.2,0,2.2,1,2.2,2.2l0,0C24.7,10,23.7,11,22.5,11z"/>
<path id="XMLID_391_" style="fill:#EDEDED;" d="M20,8.5c-2.3,0-4.3-1.9-4.3-4.3C15.7,1.9,17.6,0,20,0c2.3,0,4.3,1.9,4.3,4.3
	C24.2,6.6,22.3,8.5,20,8.5z M20,1.9c-1.3,0-2.4,1.1-2.4,2.4c0,1.3,1.1,2.4,2.4,2.4c1.3,0,2.4-1.1,2.4-2.4C22.3,3,21.3,1.9,20,1.9z"
	/>
<path id="XMLID_614_" style="fill:#41D6D2;" d="M39.9,28.2c-0.1-2.3-0.6-4.6-1.4-6.7c-0.3-0.6-0.5-1.2-0.9-1.8
	c-0.6-1.1-1.2-2.1-2-3.1c-1.1-1.4-2.3-2.6-3.7-3.6c-0.3-0.2-0.5-0.4-0.8-0.6c-1.1-0.8-2.3-1.4-3.6-2c-1.2-0.5-2.5-0.9-3.9-1.2
	c-1.2-0.2-2.5-0.4-3.9-0.4c-1.3,0-2.5,0.1-3.7,0.4c-1.3,0.3-2.6,0.6-3.8,1.1c-1,0.4-1.9,0.9-2.8,1.4C9.1,12.2,8.5,12.6,8,13
	c-1.4,1-2.6,2.2-3.7,3.6c-0.9,1.1-1.7,2.4-2.3,3.7c-0.2,0.4-0.4,0.8-0.6,1.3c-0.8,2.1-1.3,4.3-1.4,6.7c0,0.2,0,0.4,0,0.7
	c0,0.8,0.1,1.6,0.2,2.4c0.2,1.2,0.4,2.4,0.8,3.6c0.1,0.5,0.3,0.9,0.5,1.3c0.2,0.5,0.4,1,0.6,1.5c0.7,1.4,1.5,2.7,2.5,3.9
	c1,1.2,2.2,2.3,3.4,3.3c1.4,1,2.9,1.9,4.4,2.5c1.7,0.7,3.5,1.2,5.4,1.4c0.7,0.1,1.4,0.1,2.1,0.1c0.8,0,1.5-0.1,2.2-0.1
	c1.9-0.2,3.7-0.7,5.4-1.4c1.4-0.6,2.7-1.3,4-2.2c1.4-1,2.7-2.2,3.8-3.5c1-1.2,1.9-2.6,2.5-4c0.3-0.5,0.5-1.1,0.7-1.7
	c0.1-0.3,0.2-0.7,0.3-1c0.4-1.2,0.6-2.5,0.8-3.7c0.1-0.7,0.1-1.5,0.1-2.3C39.9,28.6,39.9,28.4,39.9,28.2z"/>
<ellipse id="XMLID_425_" style="opacity:0.2;fill:#FFFFFF;" cx="20" cy="18" rx="12.3" ry="7"/>
</svg>
