<?xml version="1.0" encoding="utf-8"?>
<!-- Generator: Adobe Illustrator 19.0.0, SVG Export Plug-In . SVG Version: 6.00 Build 0)  -->
<svg version="1.1" id="Layer_1" xmlns="http://www.w3.org/2000/svg" xmlns:xlink="http://www.w3.org/1999/xlink" x="0px" y="0px"
	 viewBox="-457 411 23.4 77.1" style="enable-background:new -457 411 23.4 77.1;" xml:space="preserve">
<path id="XMLID_442_" style="fill:#EDEDED;" d="M-439.2,488.1h-12.2c-2.9,0-5.3-2.4-5.3-5.3l0,0c0-2.9,2.4-5.3,5.3-5.3h12.2
	c2.9,0,5.3,2.4,5.3,5.3l0,0C-433.9,485.7-436.3,488.1-439.2,488.1z"/>
<path id="XMLID_439_" style="fill:#EDEDED;" d="M-445.3,482.1c-5.6,0-10.2-4.6-10.2-10.2s4.6-10.2,10.2-10.2s10.2,4.6,10.2,10.2
	S-439.7,482.1-445.3,482.1z M-445.3,466.2c-3.1,0-5.7,2.5-5.7,5.7c0,3.1,2.5,5.7,5.7,5.7s5.7-2.5,5.7-5.7
	C-439.6,468.7-442.2,466.2-445.3,466.2z"/>
<path id="XMLID_730_" style="fill:#EDEDED;" d="M-445.7,465.9c-0.4,0-0.7-2.1-0.9-2.4c-0.7-1.3-15.9-33.4-8.2-46.4
	c2.1-3.6,5.7-5.9,10.7-6.1c3.9-0.1,6.7,0.9,8.5,3.6c7.6,11.5-8.6,47.6-9.2,49.1C-445,463.9-445.3,465.9-445.7,465.9L-445.7,465.9z
	 M-443.5,412.4c-0.2,0-0.3,0-0.5,0c-4.4,0.2-7.3,1.7-9.1,4.7c-6.2,10.5,4.2,34.8,7.4,41.7c3.3-7.4,14.6-34.3,8.5-43.5
	C-438.5,413.4-440.6,412.4-443.5,412.4z"/>
</svg>
