<?xml version="1.0" encoding="utf-8"?>
<!-- Generator: Adobe Illustrator 19.0.0, SVG Export Plug-In . SVG Version: 6.00 Build 0)  -->
<svg version="1.1" id="Layer_1" xmlns="http://www.w3.org/2000/svg" xmlns:xlink="http://www.w3.org/1999/xlink" x="0px" y="0px"
	 width="25px" height="25px" viewBox="-293 384 25 25" style="enable-background:new -293 384 25 25;" xml:space="preserve">
<g>
	<circle style="fill:#EC5193;" cx="-280.5" cy="396.5" r="12.5"/>
	<path style="fill:#FFFFFF;" d="M-276.5,392.3h-7.9c-0.2,0-0.4,0.2-0.4,0.4v8c0,0.2,0.2,0.4,0.4,0.4h7.9c0.2,0,0.4-0.2,0.4-0.4v-8
		C-276.2,392.5-276.3,392.3-276.5,392.3L-276.5,392.3z M-280.5,395.2c0.8,0,1.5,0.7,1.5,1.5c0,0.9-0.7,1.5-1.5,1.5
		c-0.8,0-1.5-0.7-1.5-1.5C-282,395.9-281.3,395.2-280.5,395.2L-280.5,395.2z M-277.2,400.1h-6.5v-3.9h0.7c0,0.2-0.1,0.4-0.1,0.5
		c0,1.5,1.2,2.6,2.6,2.6c1.4,0,2.6-1.2,2.6-2.6c0-0.2,0-0.4-0.1-0.5h0.7V400.1z M-277.2,395.1h-1.6v-1.7h1.6V395.1z"/>
</g>
</svg>
