<?xml version="1.0" encoding="utf-8"?>
<!-- Generator: Adobe Illustrator 16.0.0, SVG Export Plug-In . SVG Version: 6.00 Build 0)  -->
<!DOCTYPE svg PUBLIC "-//W3C//DTD SVG 1.1//EN" "http://www.w3.org/Graphics/SVG/1.1/DTD/svg11.dtd">
<svg version="1.1" id="Слой_1" xmlns="http://www.w3.org/2000/svg" xmlns:xlink="http://www.w3.org/1999/xlink" x="0px" y="0px"
	 width="172px" height="168.25px" viewBox="198.661 193.239 172 168.25" enable-background="new 198.661 193.239 172 168.25"
	 xml:space="preserve">
<path fill="#387F21" d="M216.608,264.854H359.45c0,0,6.211,0.282,6.211,5.364l-0.282,5.646c0,0-0.282,5.363-5.929,5.928
	c0,0-0.564,49.685-27.383,66.622c0,0-45.449,9.881-89.77-0.564c0,0-22.301-14.397-24.56-66.34c0,0-8.187-0.282-8.187-6.493
	C209.551,275.016,206.728,265.7,216.608,264.854"/>
<path fill="#F4F4F4" d="M277.579,310.58c0,0-3.716-27.442-5.717-42.45c-2.001-15.007-9.004-19.867-9.004-19.867
	c0.429-9.433-4.431-11.72-4.431-11.72l-0.429-3.43l-14.15,1.858l0.429,3.431c0,0-4.002,3.43-1.287,12.435
	c0,0-5.431,6.432-3.43,21.582c2.001,15.15,5.717,42.45,5.717,42.45s0.572,9.147,7.29,8.289c1.858-0.285,3.43-0.429,4.573-0.571
	c3.431-0.429,5.003-0.715,5.003-0.715l1-0.143l5.003-0.715c1.286-0.143,2.858-0.429,4.574-0.571
	C279.294,319.728,277.579,310.58,277.579,310.58"/>
<path fill="#D6D6D6" d="M256.568,227.682l-6.146,0.857l-0.572,0.143l-6.146,0.857c0,0-1.715,0.143-1.572,1.429
	c0.143,1.144,0.572,4.86,0.572,4.86l7.861-1l0.572-0.143l7.861-1c0,0-0.429-3.573-0.572-4.86
	C258.283,227.539,256.568,227.682,256.568,227.682"/>
<path fill="#EAEAEA" d="M277.579,310.58c0,0-3.716-27.442-5.717-42.45c-2.001-15.007-9.004-19.867-9.004-19.867
	c0.429-9.433-4.431-11.72-4.431-11.72l-0.429-3.43l-7.146,1l11.72,87.758H263l5.002-0.714c1.286-0.144,2.858-0.43,4.574-0.572
	C279.294,319.728,277.579,310.58,277.579,310.58"/>
<path fill="#FFFFFF" d="M244.276,266.844h-0.286c-1,0-1.858-0.715-1.858-1.715c0-6.146,2.43-10.434,2.43-10.577
	c0.429-0.714,1.572-1.144,2.572-0.571c0.715,0.428,1.144,1.572,0.572,2.572c0,0-2.001,3.43-2.001,8.576
	C245.849,265.986,245.134,266.701,244.276,266.844"/>
<path fill="#F4F4F4" d="M311.184,301.971c0,0,13.79-24.015,21.356-37.129c7.565-13.114,4.979-21.236,4.979-21.236
	c6.093-7.215,3.637-11.991,3.637-11.991l1.751-2.979l-12.347-7.157l-1.752,2.98c0,0-5.264,0.278-8.603,9.07
	c0,0-8.228,1.785-15.88,15.013c-7.653,13.228-21.356,37.129-21.356,37.129s-5.125,7.598,0.721,11.015
	c1.647,0.907,2.98,1.753,3.974,2.337c2.98,1.752,4.4,2.483,4.4,2.483l0.88,0.497l4.4,2.484c1.107,0.672,2.527,1.404,3.974,2.336
	C306.965,310.267,311.184,301.971,311.184,301.971"/>
<path fill="#D6D6D6" d="M345.086,223.458l-5.394-3.068l-0.54-0.235l-5.395-3.068c0,0-1.446-0.933-2.117,0.174
	c-0.584,0.993-2.511,4.2-2.511,4.2l6.84,4.001l0.541,0.236l6.84,4c0,0,1.84-3.093,2.511-4.2
	C346.532,224.391,345.086,223.458,345.086,223.458"/>
<path fill="#EAEAEA" d="M311.184,301.971c0,0,13.79-24.015,21.356-37.129c7.565-13.114,4.979-21.236,4.979-21.236
	c6.093-7.215,3.637-11.991,3.637-11.991l1.751-2.979l-6.273-3.565l-44.229,76.698l0.341,0.262l4.4,2.484
	c1.106,0.671,2.526,1.403,3.974,2.336C306.965,310.267,311.184,301.971,311.184,301.971"/>
<path fill="#FFFFFF" d="M311.462,247c-0.113-0.087-0.113-0.087-0.227-0.174c-0.793-0.61-1.036-1.7-0.427-2.493
	c3.748-4.871,8.288-6.787,8.376-6.9c0.775-0.305,1.943,0.053,2.388,1.116c0.305,0.776-0.053,1.943-1.116,2.388
	c0,0-3.678,1.499-6.815,5.576C313.23,247.279,312.229,247.41,311.462,247"/>
<path fill="#F4F4F4" d="M300.23,298.125c0,0-4.618-27.305-7.111-42.238c-2.494-14.933-9.655-19.559-9.655-19.559
	c0.118-9.442-4.814-11.568-4.814-11.568l-0.542-3.415l-14.081,2.324l0.542,3.414c0,0-3.887,3.56-0.876,12.47
	c0,0-5.216,6.607-2.717,21.684s7.113,42.238,7.113,42.238s0.873,9.124,7.559,8.046c1.848-0.348,3.414-0.542,4.552-0.723
	c3.415-0.541,4.976-0.879,4.976-0.879l0.995-0.176l4.977-0.879c1.281-0.185,2.843-0.523,4.553-0.723
	C302.247,307.211,300.23,298.125,300.23,298.125"/>
<path fill="#D6D6D6" d="M276.501,215.964l-6.114,1.06l-0.567,0.162l-6.114,1.06c0,0-1.709,0.199-1.524,1.48
	c0.181,1.138,0.731,4.838,0.731,4.838l7.824-1.259l0.567-0.162l7.824-1.259c0,0-0.546-3.558-0.731-4.838
	S276.501,215.964,276.501,215.964"/>
<path fill="#EAEAEA" d="M300.23,298.125c0,0-4.618-27.305-7.111-42.238c-2.494-14.933-9.655-19.559-9.655-19.559
	c0.118-9.442-4.814-11.568-4.814-11.568l-0.542-3.415l-7.109,1.235l14.605,87.325l0.428-0.015l4.977-0.879
	c1.281-0.186,2.843-0.522,4.553-0.722C302.247,307.211,300.23,298.125,300.23,298.125"/>
<path fill="#FFFFFF" d="M265.506,255.51c-0.143,0.005-0.143,0.005-0.286,0.009c-1,0.033-1.881-0.653-1.914-1.653
	c-0.203-6.143,2.084-10.508,2.08-10.651c0.405-0.729,1.534-1.195,2.553-0.656c0.729,0.405,1.195,1.534,0.656,2.552
	c0,0-1.887,3.495-1.717,8.637C267.049,254.602,266.358,255.339,265.506,255.51"/>
<path fill="#F4F4F4" d="M299.732,299.86c0,0,2.858-27.585,4.573-42.593c1.572-15.007-4.001-21.439-4.001-21.439
	c2.715-9.004-1.573-12.435-1.573-12.435l0.43-3.43l-14.15-1.572l-0.429,3.43c0,0-4.717,2.43-4.145,11.72
	c0,0-6.86,5.002-8.433,20.153s-4.574,42.736-4.574,42.736s-1.572,9.004,5.146,9.719c1.858,0.143,3.43,0.429,4.574,0.429
	c3.43,0.429,5.002,0.571,5.002,0.571l1,0.144l5.002,0.571c1.286,0.143,2.858,0.286,4.574,0.429
	C299.304,309.15,299.732,299.86,299.732,299.86"/>
<path fill="#D6D6D6" d="M298.875,214.246l-6.146-0.714h-0.571l-6.146-0.715c0,0-1.716-0.286-1.859,1
	c-0.143,1.144-0.572,4.859-0.572,4.859l7.861,0.858h0.571l7.861,0.857c0,0,0.43-3.573,0.571-4.859
	C300.59,214.246,298.875,214.246,298.875,214.246"/>
<path fill="#EAEAEA" d="M299.732,299.86c0,0,2.858-27.585,4.573-42.593c1.572-15.007-4.001-21.439-4.001-21.439
	c2.715-9.004-1.573-12.435-1.573-12.435l0.43-3.43l-7.146-0.714l-9.291,88.044h0.429l5.002,0.571
	c1.287,0.143,2.858,0.286,4.574,0.429C299.304,309.15,299.732,299.86,299.732,299.86"/>
<path fill="#FFFFFF" d="M277.722,249.55h-0.286c-1-0.286-1.572-1.144-1.286-2.144c1.429-6.003,4.716-9.576,4.859-9.719
	c0.715-0.715,1.858-0.715,2.573,0s0.715,1.858,0,2.573c0,0-2.716,2.858-4.002,7.861C279.58,248.978,278.579,249.55,277.722,249.55"
	/>
<path fill="#629B21" d="M342.468,267.987c0.429-1.144,0.857-2.287,1.144-3.573c0.286-1.715-1.715-3.573-3.287-2.287
	c-0.144,0.144-0.286,0.144-0.429,0.286c0.714-1.858,0.857-4.002,0.285-6.003c-0.143-0.714-1.143-1.144-1.715-0.714
	c-1.572,1.286-2.858,2.715-4.145,4.145c0.857-2.145,2.144-4.431,1.857-6.575c-0.143-1-1.144-2.001-2.144-1.572
	c-2.43,1-4.002,3.573-5.288,5.86v-0.286c0.285-1.715-2.001-3.287-3.287-1.715c-1.287,1.573-2.287,3.288-3.003,5.003
	c-0.143-0.429-0.285-0.858-0.429-1.144c-0.571-1.286-2.572-1.858-3.287-0.286c-1.001,2.43-1.715,5.145-2.001,7.861
	c-0.143-0.143-0.143-0.286-0.285-0.429c-0.716-1-2.002-1.144-2.859-0.286c-2.287,2.144-1.286,6.432-0.286,9.005
	c0.858,2.144,2.145,4.43,3.859,6.146c-0.286,0.285-0.714,0.571-1,0.857c-1.716,1.43-0.572,4.573,1.571,4.859
	c2.145,0.429,4.431,0.143,6.718-0.429c0.144,0.143,0.43,0.286,0.571,0.286c1.716,0.857,4.003,0,4.431-2.145v-0.143
	c1.716-0.715,3.288-1.715,4.86-2.43c4.573-2.43,10.72-6.861,10.862-12.721C345.327,268.273,343.611,267.272,342.468,267.987"/>
<path fill="#A4BE24" d="M321.314,258.125c0.571-1.572-0.715-4.145-2.716-3.288c-0.571,0.286-1.144,0.572-1.715,0.715
	c1.286-1.572,2.287-3.288,2.858-5.289c0.572-2.001-1.429-3.288-3.145-3.001c-1.715,0.429-3.43,1.287-4.859,2.287
	c0.143-0.572,0.286-1.144,0.286-1.715c0.143-1.858-1.858-3.288-3.288-1.715c-1.429,1.572-3.001,3.287-4.431,5.289
	c-0.429-1.429-1.429-2.287-3.145-2.001c-3.001,0.715-4.145,4.431-4.716,7.147h-0.144c-2.43-1.429-5.146,1.143-4.431,3.716
	c0.571,2.43,1.286,5.002,3.002,6.861h-0.144c-3.001,0-4.145,3.287-3.001,5.574c4.002,8.004,19.724,7.003,25.441,1.429
	c1.286-1.287,0.429-3.145-1.144-3.573c-0.286,0-0.429-0.143-0.715-0.143c1.715-1.144,3.43-2.287,4.573-3.716
	c0.857-1,0.43-2.715-0.857-2.858c-0.715-0.143-1.286-0.143-2.001-0.143C318.885,262.127,320.457,260.27,321.314,258.125"/>
<path fill="#D63A26" d="M298.303,264.414c3.553,0,6.433,2.88,6.433,6.432c0,3.552-2.88,6.432-6.433,6.432
	c-3.552,0-6.431-2.879-6.431-6.432C291.872,267.294,294.751,264.414,298.303,264.414"/>
<path fill="#629B21" d="M296.159,267.845c-0.286-1.715-2.145-2.573-3.858-2.43c0.143-1.144,0-2.287-0.287-3.573
	c-0.571-1.858-3.145-2.573-4.573-1c0,0,0,0.143-0.143,0.143c-0.715-1.858-1.858-3.716-3.001-4.859
	c-1.144-1.144-3.574-0.858-4.145,0.714c-0.429,1.144-0.715,2.287-0.858,3.573c-0.429-0.286-0.857-0.429-1.429-0.714
	c-0.715-0.286-1.572-0.143-2.287,0c-1,0.286-1.715,1-2.144,1.715c-0.429,0.572-0.572,1.429-0.429,2.144
	c0,0.857,0.286,1.572,0.715,2.144c0.286,0.286,0.429,0.572,0.715,0.858c-2.43,0.857-3.145,4.86-0.429,5.86
	c0.857,0.429,1.715,0.715,2.572,0.858c-1.143,1-1,2.572,0,3.716c1.144,1.429,3.288,1.715,5.003,2.144
	c1.715,0.429,3.001,0.715,4.574,0.286c-0.857,2.001-1.572,4.288-0.144,6.146c1.145,1.43,2.716,1.858,4.288,1.001
	c2.572-1.286,3.573-6.288,4.573-8.719C296.302,274.705,296.874,271.418,296.159,267.845"/>
<path fill="#FFFFFF" d="M335.036,276.992c-3.717,4.574-10.148,5.86-15.15,3.288c0.571,0.715,1.143,1.286,1.857,1.858
	c5.289,4.287,13.149,3.43,17.438-1.858c4.288-5.289,3.431-13.149-1.858-17.438c-0.714-0.571-1.429-1-2.286-1.429
	C338.609,265.843,338.752,272.275,335.036,276.992"/>
<path fill="#FFFFFF" d="M315.74,276.277c-4.002-4.002-4.573-10.291-1.572-14.865c-0.714,0.429-1.429,1-2.001,1.572
	c-4.717,4.717-4.717,12.292,0,16.866c4.717,4.717,12.292,4.717,16.865,0c0.572-0.571,1.144-1.287,1.572-2.001
	C326.031,280.851,319.886,280.279,315.74,276.277"/>
<path fill="#387F21" d="M287.465,198.796c-36.482,0-66.058,29.575-66.058,66.058s29.575,66.058,66.058,66.058
	s66.058-29.575,66.058-66.058S323.947,198.796,287.465,198.796 M287.465,323.007c-32.117,0-58.153-26.036-58.153-58.153
	s26.036-58.153,58.153-58.153s58.153,26.036,58.153,58.153S319.582,323.007,287.465,323.007"/>
<path fill="#984D22" d="M212.092,267.394h142.842c0,0,6.211,0.283,6.211,5.364l-0.282,5.646c0,0-0.282,5.364-5.929,5.929
	c0,0-0.564,49.685-27.383,66.622c0,0-45.449,9.88-89.77-0.564c0,0-22.301-14.397-24.56-66.34c0,0-8.187-0.282-8.187-6.493
	C205.034,277.557,202.211,268.241,212.092,267.394"/>
<path fill="#984D22" d="M282.948,201.337c-36.483,0-66.058,29.575-66.058,66.057c0,36.483,29.575,66.057,66.058,66.057
	c36.482,0,66.058-29.574,66.058-66.057C349.006,230.912,319.431,201.337,282.948,201.337 M282.948,325.547
	c-32.117,0-58.153-26.035-58.153-58.153c0-32.117,26.036-58.153,58.153-58.153s58.153,26.036,58.153,58.153
	C341.102,299.511,315.065,325.547,282.948,325.547"/>
<path fill="#C6774F" d="M216.044,284.05l81.019-0.282c0,0-53.918,13.832-79.89,13.268
	C217.173,297.035,216.044,290.543,216.044,284.05"/>
<path fill="#62BA47" d="M308.655,315.575c0,13.818-11.307,25.125-25.125,25.125s-25.125-11.307-25.125-25.125
	s11.306-25.124,25.125-25.124S308.655,301.66,308.655,315.575"/>
<path fill="#FFFFFF" d="M277.249,312c-2.029,0.193-2.609,2.706-2.706,4.445v0.772c0,0.773,0,1.45-0.097,2.224
	c0,0.289-0.097,0.966-0.193,0.966c-0.773,0.097-1.353-1.063-1.546-1.546c-0.483-1.257-0.87-2.609-1.159-3.963
	c-0.193-1.449-0.387-2.995-0.483-4.444v-1.836v-0.773v-0.387c0.193-1.063-1.353,0-1.643,0.387c-1.643,2.899-1.16,6.378-1.16,9.566
	c0,0.87,0,1.74-0.193,2.609c-0.097,0.58-0.193,1.643-0.676,2.126c-0.29,0.289-0.87,0-1.16-0.097
	c-0.386-0.193-0.676-0.677-0.676-1.159c-0.097-0.483-0.58-0.193-0.87,0c-0.386,0.386-0.773,1.063-0.676,1.449
	c0.193,1.16,1.256,2.126,2.416,1.739c1.836-0.579,2.609-2.803,3.092-4.542c0.193-0.869,0.29-1.643,0.386-2.513
	c0.29,1.257,0.677,2.513,1.256,3.576c0.387,0.869,1.16,1.643,2.223,1.449c0.773-0.097,1.353-0.966,1.739-1.933
	c0.387,0.869,0.966,1.449,1.836,1.353c1.063-0.097,1.933-1.256,2.319-2.028c0.483-1.064,0.58-2.126,0.58-3.189
	C279.858,314.899,279.472,311.71,277.249,312 M277.925,319.247c0,0.194-0.096,0.387-0.193,0.58c-0.387,0-0.677-0.676-0.87-0.966
	c-0.29-0.677-0.483-1.45-0.58-2.223c-0.097-0.773,0-1.546,0.097-2.416c0-0.193,0.097-0.387,0.193-0.58
	c1.063,0.677,1.256,2.029,1.353,3.093C278.119,317.702,278.119,318.475,277.925,319.247"/>
<path fill="#FFFFFF" d="M302.277,314.996c-2.223-0.87-3.575,2.223-3.865,3.865c-0.387,1.546-0.87,4.348,1.063,5.121
	c0.967,0.387,2.029-0.29,2.609-0.966c0.677-0.773,1.159-1.739,1.354-2.803C303.92,318.668,304.307,315.672,302.277,314.996
	 M300.924,322.146c-0.096,0.193-0.192,0.387-0.289,0.483c-0.29-0.193-0.483-0.967-0.483-1.257c-0.097-0.772,0-1.545,0.097-2.318
	s0.387-1.546,0.772-2.223c0.097-0.193,0.194-0.29,0.29-0.483c0.87,0.967,0.58,2.416,0.387,3.575
	C301.504,320.697,301.311,321.47,300.924,322.146"/>
<path fill="#FFFFFF" d="M296.189,315.383c0.387-0.58,0.869-1.16,1.256-1.739c0.87-1.257,1.643-2.706,1.547-4.253
	c-0.098-1.449-2.029-1.546-2.996-1.063c-1.449,0.677-2.319,2.223-2.706,3.769c-0.58,1.933-0.869,3.865-0.966,5.896
	c-0.677,0.869-2.223,2.608-3.285,1.836c-0.29-0.194-0.388-0.58-0.58-0.967c0.967-0.967,1.739-1.934,2.512-3.093
	c0.677-1.063,1.159-2.705-0.097-3.479c-1.063-0.58-2.513,0.097-3.188,0.967c-0.773,0.869-1.063,2.029-1.16,3.188
	c0,0.58-0.096,1.643,0,2.609c-0.676,0.387-1.449,0.677-2.222,0.483c-0.87-0.193-1.159-1.063-1.353-1.74
	c-0.193-1.063-0.193-2.125,0-3.188c0-0.289,0.097-0.676,0.194-0.966c0-0.098,0-0.098,0.096-0.193
	c0.483,0.193,0.773,1.063,0.87,1.449c0.193,0.773,2.125-0.483,1.933-1.16c-0.193-0.772-0.483-1.449-1.353-1.836
	c-0.773-0.387-1.836,0.29-2.319,0.773c-1.353,1.353-1.45,3.382-1.353,5.121c0,1.16,0.29,2.609,1.256,3.189
	c1.353,0.869,3.189,0.097,4.542-0.677c0.29,0.87,0.967,1.45,2.029,1.257c1.353-0.194,2.513-0.967,3.575-1.836
	c0,1.063,0.29,2.125,1.063,2.512c1.159,0.677,2.609-0.097,3.479-1.063c1.063-1.257,1.547-3.093,1.063-4.735
	C297.446,315.672,296.769,315.383,296.189,315.383 M288.556,314.513c0.096-0.29,0.193-0.579,0.386-0.869
	c0.58,0.096,0.677,0.869,0.58,1.256c-0.096,0.869-0.676,1.643-1.256,2.416v-0.387C288.169,316.155,288.361,315.286,288.556,314.513
	 M295.803,310.357c0.097-0.29,0.29-0.58,0.58-0.869c0.869,0.966,0,2.319-0.387,3.285c-0.483,0.87-1.063,1.836-1.643,2.609
	c0.097-0.87,0.29-1.739,0.482-2.513C295.126,312,295.416,311.13,295.803,310.357 M295.416,320.601c0,0.097-0.097,0.29-0.193,0.386
	h-0.193c-0.58-0.289-0.58-1.449-0.677-1.933v-1.256c0.193-0.289,0.483-0.483,0.677-0.773c0.483-0.289,0.87,0.29,0.967,0.87
	C296.093,318.668,295.706,319.828,295.416,320.601"/>
</svg>
