<?xml version="1.0" encoding="utf-8"?>
<!-- Generator: Adobe Illustrator 19.0.0, SVG Export Plug-In . SVG Version: 6.00 Build 0)  -->
<svg version="1.1" id="Layer_1" xmlns="http://www.w3.org/2000/svg" xmlns:xlink="http://www.w3.org/1999/xlink" x="0px" y="0px"
	 width="108px" height="108px" viewBox="-251 343 108 108" style="enable-background:new -251 343 108 108;" xml:space="preserve">
<g id="XMLID_1_">
	<path id="XMLID_9_" style="fill:#62BA47;" d="M-143.1,397c0,29.8-24.2,54-54,54s-53.9-24.2-53.9-54s24.2-54,54-54
		S-143.1,367.2-143.1,397z"/>
	<g id="XMLID_2_">
		<path id="XMLID_23_" style="fill:#FFFFFF;" d="M-210.5,389.3c-4.4,0.5-5.7,5.8-5.8,9.5l0,0l0,0c0,0.6,0,1.1,0,1.6
			c0,1.7-0.1,3.1-0.3,4.8c-0.1,0.7-0.3,2.1-0.5,2.1c-1.6,0.2-2.9-2.3-3.3-3.4c-1.1-2.8-1.9-5.6-2.4-8.5c-0.5-3.1-0.9-6.4-1.1-9.6
			c-0.1-1.3-0.1-2.6-0.1-3.9c0-0.5,0-1,0.1-1.6c0-0.4,0.1-0.9,0.1-0.9c0.4-2.3-2.9-0.1-3.6,0.9c-3.6,6.3-2.5,13.7-2.4,20.5
			c0,1.8-0.1,3.7-0.4,5.6c-0.2,1.3-0.4,3.5-1.5,4.5c-0.7,0.7-1.9,0.1-2.4-0.2c-0.9-0.5-1.4-1.4-1.5-2.4c-0.2-1-1.3-0.5-1.9,0.1
			c-0.8,0.8-1.6,2.2-1.4,3.2c0.4,2.4,2.6,4.6,5.1,3.8c4-1.2,5.7-6,6.7-9.7c0.5-1.8,0.7-3.6,0.8-5.5c0.6,2.7,1.4,5.3,2.6,7.7
			c0.9,1.8,2.5,3.6,4.8,3.2c1.7-0.3,2.9-2.1,3.7-4.2c0.8,1.8,2,3.1,4,2.9c2.2-0.2,4.1-2.6,4.9-4.4c1-2.2,1.3-4.6,1.2-6.8
			C-204.9,395.6-205.8,388.8-210.5,389.3z M-209,404.9c-0.1,0.4-0.2,0.9-0.4,1.3c-0.9-0.1-1.5-1.4-1.8-2c-0.7-1.5-1-3.1-1.2-4.7
			c-0.2-1.7-0.1-3.4,0.2-5.1c0.1-0.4,0.2-0.9,0.4-1.3c2.3,1.5,2.7,4.3,2.9,6.7C-208.7,401.5-208.7,403.2-209,404.9z"/>
		<path id="XMLID_20_" style="fill:#FFFFFF;" d="M-156.8,395.7c-4.8-1.8-7.6,4.8-8.4,8.3c-0.8,3.4-1.8,9.4,2.3,11.1
			c2,0.9,4.4-0.7,5.6-2c1.5-1.6,2.4-3.8,3-6C-153.3,403.7-152.4,397.3-156.8,395.7z M-159.7,411.2c-0.2,0.4-0.4,0.8-0.7,1.1
			c-0.7-0.5-1-2-1.1-2.7c-0.3-1.7-0.1-3.4,0.2-5c0.3-1.6,0.8-3.3,1.6-4.8c0.2-0.4,0.4-0.7,0.7-1.1c1.8,2.1,1.3,5.1,0.9,7.6
			C-158.5,408-158.9,409.7-159.7,411.2z"/>
		<path id="XMLID_15_" style="fill:#FFFFFF;" d="M-169.9,396.5c0.9-1.2,1.8-2.5,2.6-3.7c1.8-2.7,3.5-5.9,3.4-9.1
			c-0.2-3.1-4.4-3.3-6.5-2.2c-3.1,1.5-4.9,4.8-5.8,8c-1.2,4.2-1.8,8.4-2,12.6c0,0,0,0,0,0.1c-1.5,1.8-4.7,5.6-7.1,4
			c-0.6-0.4-0.9-1.2-1.2-2c2-2.1,3.7-4.2,5.3-6.7c1.4-2.2,2.4-5.9-0.3-7.4c-2.3-1.3-5.3,0.2-6.9,2.1c-1.6,1.9-2.3,4.4-2.5,6.8
			c-0.1,1.3-0.3,3.5,0,5.6c-1.4,0.9-3.2,1.4-4.8,1.1c-1.9-0.4-2.5-2.3-2.9-3.8c-0.5-2.2-0.4-4.6,0-6.8c0.1-0.7,0.3-1.4,0.5-2.1
			c0.1-0.2,0.1-0.3,0.2-0.5c1.1,0.5,1.6,2.2,1.9,3.1c0.5,1.6,4.6-1,4.2-2.5c-0.5-1.6-1.1-3.2-2.9-4c-1.7-0.8-4,0.6-5,1.6
			c-2.9,2.9-3.2,7.3-3,11.1c0.1,2.5,0.7,5.6,2.8,6.9c2.9,1.8,6.9,0.2,9.8-1.5c0.7,1.8,2.1,3.1,4.4,2.8c2.9-0.4,5.5-2,7.6-4
			c0.1,2.2,0.6,4.6,2.2,5.5c2.5,1.5,5.7-0.2,7.4-2.3c2.2-2.8,3.4-6.7,2.2-10.1C-167.1,397.2-168.5,396.6-169.9,396.5z M-186.2,394.7
			c0.2-0.6,0.4-1.2,0.8-1.8l0,0c1.2,0.3,1.4,1.8,1.2,2.7c-0.2,1.8-1.4,3.6-2.8,5.2c0-0.3,0-0.6,0-0.9
			C-187,398.2-186.7,396.4-186.2,394.7z M-170.6,385.8c0.3-0.6,0.7-1.3,1.2-1.8c0,0,0,0,0.1-0.1c1.9,2.1,0.1,5-0.9,7
			c-1,1.9-2.2,3.9-3.5,5.7c0.3-1.9,0.6-3.7,1.1-5.5C-172.1,389.3-171.5,387.5-170.6,385.8z M-171.6,407.9c-0.1,0.2-0.3,0.6-0.5,0.8
			c-0.1,0-0.3,0-0.4-0.1c-1.2-0.6-1.3-3.2-1.4-4.2c-0.1-0.9-0.1-1.8-0.1-2.8c0.5-0.6,1-1.1,1.5-1.7c1.1-0.7,1.8,0.7,2.1,1.8
			C-170,403.7-170.8,406.2-171.6,407.9z"/>
	</g>
</g>
</svg>
