<svg xmlns="http://www.w3.org/2000/svg" xmlns:xlink="http://www.w3.org/1999/xlink" preserveAspectRatio="xMidYMid" width="21" height="19" viewBox="0 0 21 19">
  <defs>
    <style>
      .cls-1 {
        fill: #61b946;
        fill-rule: evenodd;
      }
    </style>
  </defs>
  <path d="M15.671,16.913 C15.628,16.928 15.584,16.935 15.540,16.935 C15.372,16.935 15.216,16.827 15.158,16.655 C15.086,16.439 15.199,16.204 15.410,16.131 C18.271,15.132 20.193,12.383 20.193,9.292 C20.193,6.197 18.267,3.449 15.401,2.453 C15.190,2.379 15.077,2.144 15.148,1.929 C15.220,1.713 15.449,1.597 15.660,1.670 C18.854,2.780 21.000,5.843 21.000,9.292 C21.000,12.738 18.858,15.800 15.671,16.913 ZM17.367,9.291 C17.367,11.758 15.749,13.960 13.432,14.646 C13.395,14.657 13.357,14.662 13.320,14.662 C13.145,14.662 12.984,14.545 12.932,14.364 C12.871,14.145 12.994,13.915 13.208,13.852 C15.182,13.268 16.560,11.393 16.560,9.291 C16.560,7.190 15.182,5.314 13.208,4.730 C12.994,4.667 12.871,4.438 12.932,4.219 C12.995,3.999 13.217,3.874 13.432,3.936 C15.749,4.622 17.367,6.824 17.367,9.291 ZM11.465,18.834 C11.273,18.945 11.065,19.000 10.856,19.000 C10.636,19.000 10.416,18.939 10.218,18.816 C10.195,18.802 10.173,18.785 10.153,18.766 L4.686,13.627 L0.403,13.629 C0.296,13.629 0.194,13.585 0.118,13.508 C0.042,13.431 -0.000,13.326 -0.000,13.216 L-0.000,5.366 C-0.000,5.138 0.180,4.953 0.403,4.953 L4.696,4.953 L10.165,0.218 C10.181,0.203 10.199,0.190 10.218,0.179 C10.605,-0.060 11.071,-0.067 11.465,0.161 C11.868,0.394 12.109,0.820 12.109,1.300 L12.109,17.696 C12.109,18.176 11.868,18.601 11.465,18.834 ZM11.302,1.300 C11.302,1.122 11.214,0.965 11.068,0.881 C11.005,0.844 10.844,0.773 10.658,0.873 L5.247,5.558 L5.247,7.432 C5.247,7.661 5.067,7.845 4.844,7.845 C4.620,7.845 4.440,7.661 4.440,7.432 L4.440,5.780 L0.807,5.780 L0.807,12.803 L4.440,12.801 L4.440,11.150 C4.440,10.922 4.620,10.737 4.844,10.737 C5.067,10.737 5.247,10.922 5.247,11.150 L5.247,13.033 L10.665,18.126 C10.847,18.221 11.006,18.151 11.068,18.115 C11.214,18.031 11.302,17.874 11.302,17.696 L11.302,1.300 Z" class="cls-1"/>
</svg>
