<?xml version="1.0" encoding="utf-8"?>
<!-- Generator: Adobe Illustrator 19.0.0, SVG Export Plug-In . SVG Version: 6.00 Build 0)  -->
<svg version="1.1" id="Layer_1" xmlns="http://www.w3.org/2000/svg" xmlns:xlink="http://www.w3.org/1999/xlink" x="0px" y="0px"
	 viewBox="-501 491 21 19" style="enable-background:new -501 491 21 19;" xml:space="preserve">
<style type="text/css">
	.st0{fill:#61B946;}
</style>
<path class="st0" d="M-489.3,491.2c-0.4-0.2-0.9-0.2-1.2,0c0,0,0,0-0.1,0l-5.5,4.8h-4.3c-0.2,0-0.4,0.1-0.4,0.4v7.8
	c0,0.1,0,0.2,0.1,0.3s0.2,0.1,0.3,0.1h4.3l5.5,5.1c0,0,0,0,0.1,0c0.1,0.2,0.3,0.3,0.6,0.3c0.2,0,0.4-0.1,0.6-0.2
	c0.4-0.2,0.6-0.7,0.6-1.1v-16.4C-488.7,491.8-488.9,491.4-489.3,491.2z M-489.5,508.7c0,0.2-0.1,0.3-0.2,0.4c-0.1,0-0.2,0.1-0.4,0
	l-5.5-5.1v-1.9c0-0.2-0.2-0.4-0.4-0.4c-0.2,0-0.4,0.2-0.4,0.4v1.7h-3.6v-7h3.6v1.7c0,0.2,0.2,0.4,0.4,0.4c0.2,0,0.4-0.2,0.4-0.4
	v-1.9l5.4-4.7c0.2-0.1,0.3,0,0.4,0c0.1,0.1,0.2,0.2,0.2,0.4v16.4H-489.5z"/>
<path class="st0" d="M-480.6,504.2c-0.1,0-0.3,0-0.4-0.1l-6.3-6.3c-0.2-0.2-0.2-0.5,0-0.7c0.2-0.2,0.5-0.2,0.7,0l6.3,6.3
	c0.2,0.2,0.2,0.5,0,0.7C-480.3,504.1-480.4,504.2-480.6,504.2z"/>
<path class="st0" d="M-486.9,504.2c-0.1,0-0.3,0-0.4-0.1c-0.2-0.2-0.2-0.5,0-0.7l6.3-6.3c0.2-0.2,0.5-0.2,0.7,0
	c0.2,0.2,0.2,0.5,0,0.7l-6.2,6.2C-486.6,504.1-486.8,504.2-486.9,504.2z"/>
</svg>
