<?xml version="1.0" encoding="utf-8"?>
<!-- Generator: Adobe Illustrator 19.0.0, SVG Export Plug-In . SVG Version: 6.00 Build 0)  -->
<svg version="1.1" id="Layer_1" xmlns="http://www.w3.org/2000/svg" xmlns:xlink="http://www.w3.org/1999/xlink" x="0px" y="0px"
	 viewBox="-143.2 110.8 29.4 29.4" style="enable-background:new -143.2 110.8 29.4 29.4;" xml:space="preserve">
<style type="text/css">
	.st0{fill:#61B946;}
	.st1{fill:#FFFFFF;}
</style>
<circle class="st0" cx="-128.5" cy="125.5" r="14.7"/>
<path class="st1" d="M-127.5,116.2c-0.6-0.3-1.1-0.2-1.3,0l-5.5,4.8h-4.3c-0.2,0-0.4,0.1-0.4,0.4v7.8c0,0.1,0,0.2,0.1,0.3
	s0.2,0.1,0.3,0.1h4.3l5.5,5.1c0,0,0.4,0.3,0.7,0.3c0.2,0,0.4-0.1,0.6-0.2c0.4-0.2,0.6-0.7,0.6-1.1v-16.4
	C-126.9,116.7-127.1,116.3-127.5,116.2z M-128.3,134.1l-5.5-5.1v-1.9c0-0.2-0.2-0.4-0.4-0.4c-0.2,0-0.4,0.2-0.4,0.4v1.7h-3.6v-7h3.6
	v1.7c0,0.2,0.2,0.4,0.4,0.4c0.2,0,0.4-0.2,0.4-0.4v-1.9l5.4-4.7c0.2-0.1,0.3,0,0.4,0c0.1,0.1,0.2,0.2,0.2,0.4v16.4
	C-127.8,133.7-127.8,134.4-128.3,134.1z"/>
<path class="st1" d="M-118.8,129.2c-0.1,0-0.3,0-0.4-0.1l-6.3-6.3c-0.2-0.2-0.2-0.5,0-0.7s0.5-0.2,0.7,0l6.3,6.3
	c0.2,0.2,0.2,0.5,0,0.7C-118.5,129.1-118.6,129.2-118.8,129.2z"/>
<path class="st1" d="M-125.1,129.2c-0.1,0-0.3,0-0.4-0.1c-0.2-0.2-0.2-0.5,0-0.7l6.3-6.3c0.2-0.2,0.5-0.2,0.7,0s0.2,0.5,0,0.7
	l-6.2,6.2C-124.8,129.1-125,129.2-125.1,129.2z"/>
</svg>
