<?xml version="1.0" encoding="utf-8"?>
<!-- Generator: Adobe Illustrator 19.0.0, SVG Export Plug-In . SVG Version: 6.00 Build 0)  -->
<svg version="1.1" id="Layer_1" xmlns="http://www.w3.org/2000/svg" xmlns:xlink="http://www.w3.org/1999/xlink" x="0px" y="0px"
	 viewBox="-143.2 110.8 29.4 29.4" style="enable-background:new -143.2 110.8 29.4 29.4;" xml:space="preserve">
<style type="text/css">
	.st0{fill:#61B946;}
	.st1{fill:#FFFFFF;}
</style>
<g>
	<circle class="st0" cx="-128.5" cy="125.5" r="14.7"/>
	<g>
		<path class="st1" d="M-123.3,132.9c0,0-0.1,0-0.1,0c-0.2,0-0.3-0.1-0.4-0.3c-0.1-0.2,0-0.5,0.3-0.5c2.9-1,4.8-3.7,4.8-6.8
			c0-3.1-1.9-5.8-4.8-6.8c-0.2-0.1-0.3-0.3-0.3-0.5c0.1-0.2,0.3-0.3,0.5-0.3c3.2,1.1,5.3,4.2,5.3,7.6
			C-118,128.7-120.1,131.8-123.3,132.9z M-121.6,125.3c0,2.5-1.6,4.7-3.9,5.4c0,0-0.1,0-0.1,0c-0.2,0-0.3-0.1-0.4-0.3
			c-0.1-0.2,0.1-0.4,0.3-0.5c2-0.6,3.4-2.5,3.4-4.6c0-2.1-1.4-4-3.4-4.6c-0.2-0.1-0.3-0.3-0.3-0.5c0.1-0.2,0.3-0.3,0.5-0.3
			C-123.3,120.6-121.6,122.8-121.6,125.3z M-127.5,134.8c-0.2,0.1-0.4,0.2-0.6,0.2c-0.2,0-0.4-0.1-0.6-0.2c0,0,0,0-0.1,0l-5.5-5.1
			l-4.3,0c-0.1,0-0.2,0-0.3-0.1c-0.1-0.1-0.1-0.2-0.1-0.3v-7.9c0-0.2,0.2-0.4,0.4-0.4h4.3l5.5-4.7c0,0,0,0,0.1,0
			c0.4-0.2,0.9-0.2,1.2,0c0.4,0.2,0.6,0.7,0.6,1.1v16.4C-126.9,134.1-127.1,134.6-127.5,134.8z M-127.7,117.3c0-0.2-0.1-0.3-0.2-0.4
			c-0.1,0-0.2-0.1-0.4,0l-5.4,4.7v1.9c0,0.2-0.2,0.4-0.4,0.4c-0.2,0-0.4-0.2-0.4-0.4v-1.7h-3.6v7l3.6,0v-1.7c0-0.2,0.2-0.4,0.4-0.4
			c0.2,0,0.4,0.2,0.4,0.4v1.9l5.4,5.1c0.2,0.1,0.3,0,0.4,0c0.1-0.1,0.2-0.2,0.2-0.4V117.3z"/>
	</g>
</g>
</svg>
