<?xml version="1.0" encoding="utf-8"?>
<!-- Generator: Adobe Illustrator 19.0.0, SVG Export Plug-In . SVG Version: 6.00 Build 0)  -->
<svg version="1.1" id="Layer_1" xmlns="http://www.w3.org/2000/svg" xmlns:xlink="http://www.w3.org/1999/xlink" x="0px" y="0px"
	 viewBox="0 0 40 38" style="enable-background:new 0 0 40 38;" xml:space="preserve">
<polygon id="XMLID_457_" style="opacity:0.26;fill:#7A7A7A;enable-background:new    ;" points="40,19 30.1,15.3 34.5,5.7 
	24.8,10.1 21.1,0.1 17.4,10.1 7.8,5.7 12.2,15.3 2.2,19 12.2,22.7 7.8,32.4 17.4,28 21.1,37.9 24.8,28 34.5,32.4 30.1,22.7 "/>
<polygon id="XMLID_467_" style="fill:#F7D36F;" points="20,0.1 23.7,10.1 33.3,5.7 28.9,15.3 38.9,19 28.9,22.7 33.3,32.4 23.7,28 
	20,37.9 16.3,28 6.7,32.4 11.1,22.7 1.1,19 11.1,15.3 6.7,5.7 16.3,10.1 "/>
<polygon id="XMLID_698_" style="fill:#C62B32;" points="20,7.7 22.2,13.7 28,11.1 25.3,16.8 31.3,19 25.3,21.2 28,27 22.2,24.4 
	20,30.3 17.8,24.4 12,27 14.7,21.2 8.7,19 14.7,16.8 12,11.1 17.8,13.7 "/>
<ellipse id="XMLID_635_" style="opacity:0.18;fill:#FFFFFF;" cx="20" cy="14.9" rx="6.2" ry="3.5"/>
<polygon id="XMLID_738_" style="fill:#F7D36F;" points="20,14.9 20.8,17.1 22.9,16.1 22,18.2 24.1,19 22,19.8 22.9,21.9 20.8,21 
	20,23.2 19.2,21 17.1,21.9 18,19.8 15.9,19 18,18.2 17.1,16.1 19.2,17.1 "/>
</svg>
