<?xml version="1.0" encoding="utf-8"?>
<!-- Generator: Adobe Illustrator 16.0.0, SVG Export Plug-In . SVG Version: 6.00 Build 0)  -->
<!DOCTYPE svg PUBLIC "-//W3C//DTD SVG 1.1//EN" "http://www.w3.org/Graphics/SVG/1.1/DTD/svg11.dtd">
<svg version="1.1" id="Слой_1" xmlns="http://www.w3.org/2000/svg" xmlns:xlink="http://www.w3.org/1999/xlink" x="0px" y="0px"
	 width="91.068px" height="54.347px" viewBox="0 0 91.068 54.347" enable-background="new 0 0 91.068 54.347" xml:space="preserve">
<g>
	<path fill="#FFFFFF" d="M5.646,2.499c0.11,2.449-0.979,11.82,3.34,11.09c5.328-0.9,6.16-8.199,6.207-12.389
		c0.016-1.352-2.36,0.341-2.371,1.299c-0.013,1.114-0.346,10.384-3.455,8.677c-1.191-0.654-1.15-3.72-1.213-4.81
		C8.055,4.646,8.095,2.92,8.018,1.199C7.956-0.174,5.603,1.543,5.646,2.499"/>
	<path fill="#FFFFFF" d="M5.748,17.229c0.153,3.993,4.849,3.803,6.925,1.393c3.835-4.451,2.283-11.748,2.355-17.075
		c0.018-1.351-2.359,0.341-2.372,1.299c-0.043,3.198,0.336,6.407,0.091,9.601c-0.127,1.648-0.199,3.884-1.471,5.062
		c-1.139,1.053-3.091,0.119-3.156-1.579C8.067,14.559,5.711,16.272,5.748,17.229"/>
	<path fill="#FFFFFF" d="M59.241,13.338c1.351-1.558,2.162,4.389,1.267,5.086c-1.329,1.035-1.64-2.055-1.76-2.744
		c-0.502-2.874-0.486-5.957-0.071-8.838c0.086-0.599,0.355-4.47,1.634-3.665c0.473,0.298-0.264,3.28-0.285,3.376
		c-0.675,2.849-1.938,5.54-3.372,8.077c-0.962,1.701,1.451,0.799,1.99-0.156C59.76,12.5,65.834,1.04,61.279,0.068
		c-5.128-1.094-5.312,11.314-5.217,13.639c0.077,1.874-0.063,6.473,2.069,7.45c1.652,0.758,3.518-1.145,4.201-2.436
		c0.93-1.753,1.735-5.914,0.072-7.504c-1.683-1.607-3.652,0.39-4.754,1.661C56.324,14.41,58.327,14.393,59.241,13.338"/>
	<path fill="#FFFFFF" d="M41.402,10.283c-0.353-1.15-0.91-2.699-2.356-2.706c-1.1-0.004-2.1,1.025-2.654,1.86
		c-1.616,2.434-1.974,6.906-0.822,9.622c0.889,2.094,2.915,2.453,4.848,1.666c2.625-1.07,4.477-3.387,5.13-6.116
		c0.393-1.646-2.029-0.191-2.255,0.752c-0.516,2.159-3.332,5.188-5.21,2.25c-0.79-1.236-0.726-3.046-0.657-4.454
		c0.019-0.383,0.405-3.538,0.686-3.448c-0.098,0.343,0.01,0.607,0.325,0.792c0.291,0.484,0.502,1,0.633,1.548
		C39.393,13.101,41.701,11.257,41.402,10.283"/>
	<path fill="#FFFFFF" d="M43.153,9.411c0.257,3.728,0.013,7.495,0.002,11.226c-0.004,1.371,2.343-0.361,2.372-1.297
		c0.076-2.515,0.256-5.072,0.889-7.518c0.115-0.443,0.406-0.976,0.431-1.431c0.081-0.198,0.162-0.397,0.243-0.595
		c-0.183,0.069-0.365,0.138-0.548,0.206c0.085,0.472,0.418,1.009,0.52,1.518c0.592,2.943,0.342,6.167,0.188,9.149
		c0.79-0.434,1.581-0.867,2.371-1.299c0-2.032,0.21-4.106,0.595-6.101c0.165-0.854,0.731-2.014,0.773-2.879
		c0.459-0.651,0.337-0.792-0.368-0.423c0.083,0.138,0.165,0.277,0.247,0.416c-0.074,0.517,0.383,1.553,0.452,2.107
		c0.124,0.993,0.164,2.002,0.171,3.002c0.009,1.394-0.24,3.02,0.219,4.372c0.516,1.52,1.491,1.305,2.732,0.596
		c2.296-1.316,3.546-3.59,4.01-6.125c0.226-1.237-2.202,0.369-2.372,1.299c-0.141,0.77-0.571,2.768-1.642,2.928
		c-0.546,0.084,0.191,0.258-0.345-0.268c-0.813-0.795-0.214-3.631-0.242-4.729c-0.037-1.397,0.169-5.515-1.61-5.972
		c-1.549-0.398-2.857,1.992-3.317,3.073c-1.297,3.048-1.674,6.735-1.674,10.002c0,1.383,2.324-0.383,2.371-1.299
		c0.132-2.553,0.205-5.133,0.004-7.684c-0.089-1.133-0.052-3.687-1.471-4.103c-1.471-0.43-2.765,1.742-3.245,2.785
		c-1.433,3.116-1.652,6.907-1.754,10.267c0.791-0.432,1.581-0.865,2.372-1.297c0.01-3.734,0.254-7.5-0.002-11.229
		C45.43,6.732,43.087,8.458,43.153,9.411"/>
	<path fill="#FFFFFF" d="M77.378,5.694c0.284,0.52,0.713,0.936,1.331,0.997c1.697,0.169,3.034-1.765,3.733-3.04
		c0.227-0.411,0.329-1.144-0.345-1.108c-0.673,0.037-1.342,0.712-1.646,1.263c-0.13,0.238-0.256,0.461-0.423,0.674
		c0.145-0.184-0.146,0.065,0.032-0.023c0.234-0.116-0.351,0.101,0.104-0.072c0.126-0.048,0.111-0.107,0.053-0.03
		c0.202-0.26,0.081,0.107,0.011-0.02c-0.025-0.047,0.125,0.029-0.002-0.011c-0.051-0.016-0.105-0.028-0.152-0.055
		c-0.102-0.059,0.151,0.111-0.009-0.005c-0.031-0.023-0.064-0.046-0.094-0.073C79.907,4.128,79.842,4.068,79.782,4
		c-0.094-0.112-0.231-0.362-0.072-0.072c-0.308-0.56-1.003-0.208-1.396,0.089C77.974,4.272,77.086,5.162,77.378,5.694"/>
	<path fill="#FFFFFF" d="M83.813,18.325c-1.317,1.266-1.822-3.782-1.842-4.08C81.84,12.13,81.931,10,82.02,7.885
		c0.058-1.349-2.312,0.363-2.37,1.299c-0.129,2.009-0.135,4.027-0.328,6.032c-0.089,0.915-0.174,1.881-0.463,2.757
		c-0.25,0.756-0.407,0.959-1.04,0.182c-1.898-2.333-0.989-7.019-0.299-9.686c0.425-1.634-2.012-0.184-2.254,0.751
		c-0.628,2.424-2.468,11.79,2.081,11.714c5.276-0.088,4.472-9.856,4.673-13.049c-0.79,0.433-1.581,0.866-2.37,1.299
		c-0.132,3.092-0.61,6.944,0.494,9.939c0.956,2.594,3.107,1.822,4.732,0.264C86.177,18.139,85.117,17.074,83.813,18.325"/>
	<path fill="#FFFFFF" d="M24.888,16.944c-0.231,0.876-0.931,2.576-1.785,1.386c-0.625-0.871-0.343-2.753-0.291-3.743
		c0.109-2.074,0.397-4.153,0.786-6.192c0.239-1.255-2.127,0.296-2.313,1.025c-0.132,0.517-0.344,1.749-0.772,2.054
		c-1.601,1.142-1.609-2.239-1.392-3.062c0.406-1.535-1.519-0.361-1.922,0.146c-0.564,0.71-1.128,1.421-1.692,2.131
		c-1.259,1.585,0.71,1.567,1.59,0.459c0.564-0.71,1.128-1.42,1.692-2.13c-0.64,0.049-1.281,0.097-1.922,0.146
		c-0.578,2.188-0.124,5.965,3.101,4.704c1.997-0.781,3.078-3.267,3.571-5.199c-0.771,0.341-1.541,0.683-2.312,1.025
		c-0.57,2.983-1.654,7.348-0.502,10.268c0.471,1.195,1.295,1.346,2.465,0.988c2.146-0.656,3.413-2.705,3.952-4.758
		C27.57,14.561,25.132,16.01,24.888,16.944"/>
	<path fill="#FFFFFF" d="M31.839,9.664c-0.196-3.622-4.263-1.631-5.509,0.241c-1.572,2.36-1.927,5.801-1.36,8.533
		c0.541,2.604,2.595,3.527,4.644,1.508C32.155,17.44,31.633,12.898,31.839,9.664c-0.791,0.433-1.581,0.866-2.372,1.299
		c-0.102,2.571-0.189,5.226,0.233,7.776c0.164,0.992,0.31,2.01,1.336,2.307c2.951,0.854,5.585-2.797,6.356-5.061
		c0.537-1.577-1.948-0.149-2.255,0.752c-0.409,1.204-2.126,3.03-2.88,1.28C31.25,15.677,31.741,12.128,31.839,9.664
		c0.054-1.352-2.312,0.365-2.372,1.299c-0.122,1.926-0.102,3.879-0.375,5.792c-0.083,0.583-0.294,2.025-0.618,1.98
		c-0.528-0.074-0.779-0.779-0.94-1.193c-0.511-1.319-0.471-2.905-0.325-4.288c0.081-0.771,0.216-1.547,0.486-2.277
		c0.275-0.742,1.663-2.046,1.772-0.014C29.542,12.339,31.891,10.618,31.839,9.664"/>
	<path fill="#FFFFFF" d="M64.49,9.536c0.077,2.241-2,12.476,2.361,11.699c4.983-0.889,4.758-9.464,5.086-12.998
		c0.121-1.306-2.284,0.348-2.372,1.299c-0.24,2.593-0.386,5.29-1.037,7.822c-0.249,0.964-0.31,2.101-1.312,1.351
		c-1.084-0.813-0.64-3.889-0.591-5.014c0.077-1.817,0.299-3.639,0.236-5.459C66.815,6.867,64.458,8.58,64.49,9.536"/>
	<path fill="#FFFFFF" d="M69.593,9.536c0.011,4.802,0.281,9.611,0.219,14.412c-0.012,0.82-0.007,6.152-1.549,5.189
		c-2.811-1.76,1.89-7.418,2.948-8.684c1.301-1.553-0.688-1.535-1.589-0.459c-1.757,2.098-6.108,7.42-4.06,10.582
		c0.834,1.289,2.177,1.193,3.44,0.5c2.447-1.344,2.999-4.475,3.159-6.992c0.331-5.238-0.186-10.596-0.197-15.848
		C71.962,6.879,69.591,8.578,69.593,9.536"/>
</g>
<g>
	<path fill="#FFFFFF" d="M3.194,36.982c1.351-1.558,2.162,4.39,1.267,5.086c-1.329,1.035-1.64-2.055-1.76-2.743
		c-0.502-2.873-0.486-5.957-0.071-8.838c0.086-0.6,0.355-4.471,1.634-3.666c0.473,0.299-0.263,3.28-0.285,3.377
		c-0.675,2.849-1.938,5.539-3.372,8.076c-0.962,1.701,1.451,0.799,1.99-0.156c1.116-1.974,7.19-13.434,2.636-14.405
		C0.104,22.618-0.08,35.026,0.016,37.351c0.077,1.874-0.062,6.474,2.069,7.45c1.652,0.757,3.518-1.145,4.201-2.436
		c0.93-1.754,1.735-5.914,0.072-7.504c-1.683-1.607-3.652,0.389-4.754,1.66C0.277,38.054,2.28,38.038,3.194,36.982"/>
	<path fill="#FFFFFF" d="M79.872,39.68c1.456-1.722,5.816-7.475,2.868-9.65c-1.932-1.428-4.023,1.272-4.648,2.82
		c-0.972,2.4-1.2,5.697-0.339,8.165c1.127,3.234,4.128,2.05,6.217,0.302c1.069-0.895,1.1-2.894-0.46-1.589
		c-3.805,3.183-4.051-2.801-3.741-5.282c0.087-0.697,0.252-1.352,0.453-2.023c0.044-0.148,0.149-0.586,0.308-0.658
		c-0.627,0.285,0.212,0.381,0.292,0.564c1.075,2.449-0.979,5.047-2.539,6.892C76.975,40.768,78.968,40.75,79.872,39.68"/>
	<path fill="#FFFFFF" d="M61.961,41.126c0.162,2.779,2.732,3.334,4.659,1.592c1.889-1.708,2.237-4.519,2.098-6.925
		c-0.093-1.605-0.367-4.927-2.28-5.541c-2.85-0.915-4.547,3.191-4.574,5.264c-0.018,1.351,2.358-0.342,2.371-1.3
		c0.01-0.673-0.059-1.774,0.716-1.465c0.306,0.122,0.53,0.715,0.656,0.979c0.472,0.992,0.648,2.188,0.73,3.269
		c0.087,1.142,0.072,2.369-0.225,3.482c-0.081,0.306-0.313,0.964-0.397,0.994c-0.684,0.25-1.353-1.144-1.382-1.648
		C64.252,38.451,61.906,40.172,61.961,41.126"/>
	<path fill="#FFFFFF" d="M61.37,30.248c0.917,6.886,0.778,14.095,0.075,21.003c-0.132,1.3,2.275-0.349,2.371-1.299
		c0.72-7.072,0.825-14.42-0.114-21.471C63.571,27.5,61.233,29.222,61.37,30.248"/>
	<path fill="#FFFFFF" d="M75.855,32.677c-0.353-1.149-0.909-2.699-2.355-2.706c-1.1-0.004-2.1,1.025-2.654,1.859
		c-1.616,2.435-1.974,6.906-0.821,9.622c0.889,2.094,2.914,2.454,4.848,1.666c2.625-1.07,4.477-3.386,5.13-6.115
		c0.393-1.646-2.029-0.19-2.255,0.752c-0.517,2.159-3.332,5.188-5.21,2.251c-0.79-1.236-0.727-3.047-0.657-4.454
		c0.02-0.383,0.405-3.538,0.686-3.448c-0.098,0.344,0.011,0.607,0.325,0.793c0.291,0.483,0.502,1,0.634,1.547
		C73.847,35.495,76.155,33.651,75.855,32.677"/>
	<path fill="#FFFFFF" d="M52.819,32.305c0.076,2.24-2,12.477,2.36,11.699c4.984-0.89,4.758-9.465,5.086-12.998
		c0.121-1.307-2.284,0.348-2.372,1.299c-0.239,2.593-0.386,5.289-1.037,7.822c-0.248,0.965-0.31,2.102-1.312,1.352
		c-1.084-0.813-0.639-3.889-0.591-5.014c0.078-1.817,0.299-3.639,0.236-5.459C55.144,29.635,52.786,31.349,52.819,32.305"/>
	<path fill="#FFFFFF" d="M57.922,32.305c0.01,4.802,0.28,9.61,0.218,14.411c-0.011,0.82-0.006,6.153-1.548,5.189
		c-2.812-1.759,1.889-7.418,2.947-8.683c1.302-1.554-0.688-1.536-1.589-0.46c-1.757,2.098-6.107,7.42-4.06,10.582
		c0.834,1.289,2.177,1.194,3.44,0.501c2.447-1.344,2.999-4.475,3.159-6.993c0.331-5.238-0.186-10.595-0.196-15.847
		C60.29,29.648,57.92,31.347,57.922,32.305"/>
	<path fill="#FFFFFF" d="M32.929,32.428c0.208,3.735,0.483,7.484,0.288,11.228c-0.072,1.38,2.263-0.423,2.372-1.299
		c0.294-2.368,0.788-3.376,2.244-5.052c1.475-1.699,2.158-3.736,2.659-5.902c0.392-1.696-1.975-0.104-2.254,0.751
		c-0.951,2.899-0.971,6.325-0.597,9.328c0.09,0.722,0.165,2.104,0.879,2.558c1.132,0.717,2.813-0.687,3.556-1.391
		c1.309-1.243,0.246-2.306-1.063-1.063c-1.049,0.996-1.161-3.788-1.165-4.268c-0.017-1.951,0.031-4.046,0.645-5.915
		c-0.752,0.25-1.503,0.501-2.254,0.751c-0.577,2.493-1.376,3.78-2.924,5.637c-1.409,1.69-1.83,3.722-2.098,5.865
		c0.791-0.433,1.581-0.866,2.372-1.299c0.194-3.743-0.081-7.492-0.288-11.228C35.224,29.752,32.876,31.473,32.929,32.428"/>
	<path fill="#FFFFFF" d="M28.849,30.594c-3.036,0.272-4.074,4.118-4.26,6.608c-0.151,2.051-0.075,6.832,2.854,6.981
		c3,0.153,4.233-3.877,4.428-6.183c0.17-2.019,0.092-7.133-2.787-7.388c-1.018-0.09-2.73,2.248-1.767,2.332
		c1.582,0.14,1.961,2.43,2.126,3.674c0.136,1.017,0.142,2.07,0.016,3.089c-0.067,0.547-0.248,1.062-0.334,1.598
		c-0.092,0.577-0.281,0.513-0.147,0.505c-1.592,0.079-1.933-2.886-2.017-3.935c-0.078-0.994-0.042-2.011,0.116-2.995
		c0.077-0.48,0.211-0.929,0.33-1.398c0.141-0.551,0.437-0.543,0.144-0.517C28.488,32.882,30.166,30.477,28.849,30.594"/>
	<path fill="#FFFFFF" d="M14.853,31.075c0.936,4.251,0.435,8.739,0.281,13.048c-0.049,1.377,2.287-0.4,2.372-1.299
		c0.188-1.979,0.442-3.968,0.908-5.905c0.292-1.213,0.598-4.244,2.208-3.046c0.709-0.708,1.417-1.417,2.126-2.125
		c-4.26-2.811-6.349,4.365-6.821,7.272c-0.116,0.721,0.761,0.5,1.108,0.345c2.613-1.162,1.422,3.791,2.639,4.664
		c1.588,1.138,4.338-1.479,5.316-2.354c1.35-1.209,0.272-2.259-1.063-1.063c-3.381,3.027-2.012-0.735-3.078-2.72
		c-0.848-1.578-2.277-1.133-3.658-0.518c0.37,0.114,0.738,0.23,1.107,0.346c0.196-1.207,0.507-5.047,2.324-3.849
		c0.896,0.591,2.923-1.53,2.126-2.125c-5.574-4.153-7.361,9.7-7.614,12.375c0.791-0.433,1.581-0.866,2.372-1.299
		c0.158-4.47,0.649-9.104-0.321-13.517C16.958,28.283,14.631,30.069,14.853,31.075"/>
	<path fill="#FFFFFF" d="M42.727,31.075c0.937,4.251,0.436,8.739,0.282,13.048c-0.049,1.377,2.287-0.4,2.372-1.299
		c0.188-1.979,0.442-3.968,0.908-5.905c0.292-1.213,0.598-4.244,2.208-3.046c0.709-0.708,1.417-1.417,2.126-2.125
		c-4.26-2.811-6.349,4.365-6.821,7.272c-0.117,0.721,0.76,0.5,1.108,0.345c2.613-1.162,1.422,3.791,2.639,4.664
		c1.588,1.138,4.338-1.479,5.316-2.354c1.35-1.209,0.272-2.259-1.063-1.063c-3.381,3.027-2.012-0.735-3.078-2.72
		c-0.848-1.578-2.277-1.133-3.658-0.518c0.369,0.114,0.738,0.23,1.107,0.346c0.196-1.207,0.507-5.047,2.324-3.849
		c0.895,0.591,2.923-1.53,2.126-2.125c-5.574-4.153-7.361,9.7-7.614,12.375c0.791-0.433,1.581-0.866,2.372-1.299
		c0.158-4.47,0.649-9.104-0.322-13.517C44.833,28.283,42.506,30.069,42.727,31.075"/>
	<path fill="#FFFFFF" d="M88.731,42.846c0.343-0.534,0.528-1.196,0.6-1.818c0.079-0.686-0.726-0.553-1.107-0.347
		c-0.585,0.315-1.185,0.958-1.265,1.646c-0.019,0.169-0.016,0.17-0.06,0.327c-0.01,0.032-0.137,0.349-0.063,0.187
		c0.055-0.12-0.063,0.111-0.095,0.161c-0.26,0.404-0.305,1.144,0.345,1.107C87.794,44.072,88.382,43.389,88.731,42.846"/>
	<path fill="#FFFFFF" d="M88.45,24.914c0.716,4.721-0.197,9.458-0.72,14.155c-0.145,1.293,2.266-0.352,2.372-1.299
		c0.543-4.877,1.423-9.725,0.68-14.623C90.632,22.155,88.295,23.891,88.45,24.914"/>
</g>
</svg>
