<?xml version="1.0" encoding="utf-8"?>
<!-- Generator: Adobe Illustrator 16.0.0, SVG Export Plug-In . SVG Version: 6.00 Build 0)  -->
<!DOCTYPE svg PUBLIC "-//W3C//DTD SVG 1.1//EN" "http://www.w3.org/Graphics/SVG/1.1/DTD/svg11.dtd">
<svg version="1.1" id="Слой_1" xmlns="http://www.w3.org/2000/svg" xmlns:xlink="http://www.w3.org/1999/xlink" x="0px" y="0px"
	 width="500.083px" height="96px" viewBox="-159.576 -31.814 500.083 96" enable-background="new -159.576 -31.814 500.083 96"
	 xml:space="preserve">
<g>
	<path fill="#FFFFFF" d="M-157.232-17.216c0.302,6.699-2.68,32.332,9.136,30.335c14.575-2.462,16.851-22.427,16.979-33.889
		c0.042-3.698-6.457,0.933-6.486,3.553c-0.035,3.048-0.945,28.404-9.451,23.734c-3.256-1.789-3.145-10.175-3.318-13.156
		c-0.27-4.706-0.16-9.424-0.372-14.131C-150.914-24.525-157.349-19.829-157.232-17.216"/>
	<path fill="#FFFFFF" d="M-156.954,23.077c0.419,10.92,13.266,10.401,18.945,3.814c10.49-12.18,6.243-32.14,6.44-46.712
		c0.048-3.694-6.454,0.934-6.489,3.554c-0.117,8.748,0.919,17.525,0.249,26.263c-0.347,4.508-0.542,10.623-4.023,13.844
		c-3.115,2.882-8.455,0.326-8.634-4.317C-150.61,15.773-157.055,20.461-156.954,23.077"/>
	<path fill="#FFFFFF" d="M-10.625,12.433C-6.93,8.172-4.711,24.441-7.16,26.346c-3.636,2.831-4.485-5.621-4.814-7.504
		c-1.373-7.862-1.33-16.295-0.195-24.177c0.235-1.638,0.972-12.227,4.469-10.024c1.293,0.814-0.718,8.971-0.78,9.234
		c-1.846,7.792-5.303,15.154-9.224,22.093c-2.631,4.654,3.97,2.187,5.444-0.426c3.053-5.4,19.669-36.748,7.21-39.407
		C-19.077-26.856-19.579,7.084-19.32,13.445c0.211,5.128-0.171,17.709,5.661,20.381c4.52,2.067,9.622-3.134,11.492-6.665
		C0.376,22.36,2.579,10.98-1.97,6.633c-4.603-4.396-9.991,1.067-13.004,4.544C-18.604,15.368-13.125,15.321-10.625,12.433"/>
	<path fill="#FFFFFF" d="M98.335,9.697c3.697-4.261,5.914,12.009,3.468,13.914c-3.636,2.831-4.488-5.622-4.816-7.504
		c-1.373-7.862-1.328-16.295-0.192-24.18c0.235-1.637,0.97-12.227,4.469-10.024c1.293,0.815-0.719,8.972-0.78,9.235
		c-1.846,7.792-5.302,15.153-9.224,22.093c-2.631,4.653,3.97,2.187,5.444-0.426c3.053-5.4,19.666-36.748,7.21-39.407
		C89.886-29.594,89.384,4.346,89.643,10.707c0.211,5.126-0.171,17.71,5.66,20.378c4.518,2.073,9.623-3.131,11.49-6.662
		c2.545-4.798,4.746-16.18,0.197-20.527C102.388-0.501,97,4.962,93.987,8.439C90.356,12.633,95.835,12.586,98.335,9.697"/>
	<path fill="#FFFFFF" d="M308.079,17.081c3.982-4.711,15.91-20.445,7.846-26.399c-5.284-3.904-11.004,3.482-12.713,7.716
		c-2.661,6.564-3.283,15.583-0.928,22.333c3.083,8.848,11.292,5.609,17.006,0.828c2.923-2.45,3.008-7.917-1.258-4.348
		c-10.41,8.707-11.083-7.662-10.234-14.448c0.238-1.91,0.689-3.699,1.24-5.538c0.12-0.405,0.405-1.603,0.841-1.799
		c-1.715,0.78,0.58,1.042,0.799,1.543c2.941,6.698-2.677,13.805-6.945,18.853C300.156,20.052,305.608,20.007,308.079,17.081"/>
	<path fill="#FFFFFF" d="M259.087,21.036c0.44,7.603,7.472,9.119,12.742,4.354c5.169-4.669,6.12-12.36,5.74-18.942
		c-0.256-4.393-1.004-13.477-6.237-15.157c-7.795-2.503-12.438,8.729-12.513,14.397c-0.048,3.696,6.451-0.933,6.486-3.553
		c0.026-1.842-0.16-4.856,1.958-4.008c0.839,0.334,1.45,1.957,1.795,2.681c1.29,2.711,1.774,5.982,1.998,8.94
		c0.238,3.124,0.195,6.48-0.617,9.525c-0.222,0.837-0.854,2.637-1.084,2.72c-1.873,0.684-3.702-3.131-3.782-4.509
		C265.354,13.716,258.938,18.425,259.087,21.036"/>
	<path fill="#FFFFFF" d="M257.468-8.723c2.509,18.837,2.129,38.558,0.206,57.452c-0.36,3.556,6.224-0.954,6.485-3.553
		c1.97-19.346,2.258-39.445-0.313-58.733C263.492-16.24,257.097-11.527,257.468-8.723"/>
	<path fill="#FFFFFF" d="M-59.422,4.079c-0.964-3.146-2.49-7.383-6.446-7.402c-3.008-0.01-5.744,2.804-7.258,5.088
		c-4.421,6.658-5.401,18.891-2.249,26.32c2.431,5.728,7.974,6.714,13.26,4.558c7.181-2.925,12.248-9.267,14.035-16.728
		c1.074-4.502-5.551-0.522-6.171,2.059c-1.41,5.904-9.114,14.19-14.251,6.155c-2.161-3.382-1.984-8.334-1.795-12.182
		c0.051-1.048,1.106-9.678,1.875-9.433c-0.268,0.939,0.026,1.66,0.889,2.167c0.796,1.325,1.373,2.735,1.731,4.235
		C-64.919,11.787-58.604,6.743-59.422,4.079"/>
	<path fill="#FFFFFF" d="M297.095-2.076c-0.965-3.146-2.487-7.383-6.441-7.402c-3.01-0.011-5.745,2.803-7.26,5.087
		c-4.422,6.658-5.401,18.892-2.247,26.32c2.431,5.728,7.972,6.713,13.261,4.558c7.181-2.926,12.248-9.263,14.035-16.728
		c1.073-4.502-5.552-0.522-6.171,2.058c-1.413,5.905-9.114,14.191-14.252,6.157c-2.161-3.382-1.987-8.335-1.795-12.184
		c0.054-1.048,1.106-9.678,1.875-9.433c-0.267,0.939,0.029,1.661,0.89,2.167c0.796,1.325,1.373,2.735,1.734,4.235
		C291.6,5.632,297.914,0.588,297.095-2.076"/>
	<path fill="#FFFFFF" d="M-54.635,1.694c0.702,10.198,0.035,20.501,0.005,30.711c-0.011,3.745,6.408-0.988,6.488-3.553
		c0.208-6.876,0.7-13.873,2.431-20.56c0.315-1.213,1.111-2.67,1.181-3.915c0.222-0.542,0.443-1.086,0.665-1.628
		c-0.502,0.189-0.999,0.378-1.501,0.563c0.232,1.292,1.144,2.761,1.424,4.152c1.616,8.05,0.933,16.87,0.51,25.025
		c2.161-1.181,4.325-2.366,6.486-3.553c0-5.557,0.574-11.23,1.629-16.685c0.449-2.336,1.998-5.509,2.113-7.875
		c1.256-1.78,0.922-2.167-1.007-1.157c0.227,0.377,0.451,0.757,0.676,1.138c-0.203,1.413,1.047,4.248,1.237,5.763
		c0.339,2.715,0.449,5.476,0.467,8.21c0.024,3.815-0.657,8.263,0.599,11.963c1.413,4.156,4.079,3.568,7.474,1.624
		c6.28-3.596,9.7-9.82,10.968-16.753c0.62-3.383-6.023,1.01-6.488,3.554c-0.382,2.107-1.56,7.57-4.488,8.012
		c-1.493,0.227,0.521,0.705-0.943-0.737c-2.226-2.175-0.588-9.931-0.663-12.932c-0.102-3.821,0.462-15.085-4.408-16.335
		c-4.237-1.089-7.813,5.448-9.072,8.405c-3.55,8.337-4.582,18.419-4.582,27.358c0,3.788,6.358-1.047,6.486-3.553
		c0.36-6.982,0.561-14.036,0.01-21.015c-0.243-3.099-0.141-10.085-4.023-11.224c-4.02-1.175-7.56,4.766-8.874,7.619
		c-3.919,8.523-4.517,18.893-4.797,28.088c2.164-1.181,4.325-2.367,6.488-3.553c0.027-10.21,0.695-20.515-0.005-30.711
		C-48.405-5.638-54.816-0.916-54.635,1.694"/>
	<path fill="#FFFFFF" d="M38.984-8.475c0.78,1.422,1.953,2.561,3.641,2.728c4.646,0.462,8.302-4.827,10.215-8.316
		c0.617-1.124,0.9-3.129-0.943-3.031c-1.84,0.102-3.67,1.947-4.501,3.456c-0.355,0.65-0.7,1.261-1.157,1.843
		c0.396-0.504-0.401,0.177,0.088-0.063c0.639-0.318-0.961,0.276,0.283-0.196c0.345-0.132,0.307-0.294,0.147-0.083
		c0.55-0.71,0.222,0.292,0.029-0.055c-0.069-0.128,0.342,0.08-0.005-0.029c-0.139-0.044-0.288-0.078-0.417-0.151
		c-0.278-0.162,0.414,0.303-0.024-0.013c-0.085-0.063-0.179-0.126-0.256-0.201c-0.179-0.172-0.358-0.336-0.521-0.525
		c-0.256-0.306-0.633-0.99-0.201-0.196c-0.838-1.532-2.743-0.569-3.817,0.243C40.616-12.364,38.185-9.932,38.984-8.475"/>
	<path fill="#FFFFFF" d="M56.588,26.079c-3.606,3.457-4.987-10.347-5.038-11.162C51.192,9.131,51.441,3.305,51.683-2.48
		c0.155-3.69-6.326,0.992-6.486,3.553c-0.35,5.495-0.366,11.015-0.897,16.499c-0.243,2.502-0.473,5.146-1.266,7.545
		c-0.684,2.068-1.114,2.624-2.845,0.497C34.996,19.23,37.483,6.415,39.374-0.88c1.159-4.471-5.503-0.504-6.166,2.054
		c-1.718,6.63-6.75,32.251,5.692,32.04C53.332,32.976,51.131,6.256,51.683-2.478c-2.161,1.184-4.325,2.368-6.486,3.553
		c-0.358,8.458-1.669,18.993,1.354,27.189c2.615,7.098,8.498,4.984,12.942,0.724C63.055,25.566,60.155,22.654,56.588,26.079"/>
	<path fill="#FFFFFF" d="M-104.596,22.299c-0.633,2.401-2.548,7.044-4.883,3.79c-1.71-2.377-0.938-7.527-0.796-10.235
		c0.297-5.673,1.084-11.36,2.15-16.938c0.652-3.433-5.818,0.809-6.328,2.803c-0.361,1.415-0.94,4.785-2.11,5.619
		c-4.381,3.125-4.402-6.125-3.81-8.375c1.111-4.2-4.154-0.987-5.257,0.399c-1.542,1.942-3.085,3.887-4.627,5.829
		c-3.446,4.335,1.942,4.286,4.349,1.255c1.541-1.942,3.085-3.884,4.626-5.826c-1.75,0.134-3.502,0.266-5.257,0.399
		c-1.582,5.985-0.339,16.317,8.484,12.868c5.463-2.137,8.417-8.937,9.767-14.222c-2.108,0.934-4.215,1.869-6.323,2.805
		c-1.56,8.159-4.525,20.098-1.373,28.085c1.288,3.27,3.542,3.687,6.742,2.708c5.869-1.795,9.336-7.404,10.811-13.02
		C-97.258,15.778-103.926,19.743-104.596,22.299"/>
	<path fill="#FFFFFF" d="M-85.582,2.386c-0.537-9.908-11.663-4.461-15.072,0.66c-4.298,6.455-5.271,15.869-3.718,23.341
		c1.48,7.124,7.098,9.651,12.702,4.127C-84.717,23.653-86.143,11.229-85.582,2.386c-2.164,1.185-4.325,2.369-6.489,3.553
		c-0.28,7.034-0.518,14.295,0.636,21.268c0.449,2.716,0.85,5.497,3.654,6.31c8.073,2.337,15.277-7.646,17.388-13.843
		c1.469-4.313-5.329-0.406-6.168,2.057c-1.119,3.291-5.815,8.289-7.878,3.502C-87.196,18.832-85.849,9.123-85.582,2.386
		c0.147-3.699-6.326,0.999-6.489,3.553c-0.334,5.269-0.28,10.61-1.026,15.845c-0.227,1.592-0.804,5.534-1.691,5.412
		c-1.445-0.203-2.131-2.127-2.572-3.26c-1.397-3.608-1.288-7.949-0.89-11.73c0.222-2.109,0.593-4.231,1.331-6.229
		c0.753-2.03,4.549-5.596,4.848-0.039C-91.867,9.7-85.438,4.996-85.582,2.386"/>
	<path fill="#FFFFFF" d="M3.734,2.036c0.211,6.129-5.471,34.13,6.459,32.001C23.822,31.603,23.207,8.149,24.105-1.521
		c0.332-3.572-6.248,0.952-6.488,3.554c-0.657,7.092-1.055,14.47-2.837,21.396c-0.681,2.639-0.847,5.748-3.588,3.696
		c-2.965-2.222-1.75-10.635-1.619-13.713c0.214-4.971,0.82-9.955,0.649-14.934C10.094-5.268,3.643-0.58,3.734,2.036"/>
	<path fill="#FFFFFF" d="M17.691,2.036c0.027,13.135,0.767,26.287,0.596,39.419c-0.029,2.244-0.016,16.832-4.234,14.195
		c-7.691-4.813,5.166-20.291,8.062-23.753c3.561-4.25-1.881-4.199-4.346-1.256C12.963,36.379,1.062,50.938,6.664,59.587
		c2.281,3.526,5.955,3.265,9.411,1.368c6.694-3.676,8.204-12.24,8.642-19.127c0.906-14.329-0.507-28.982-0.537-43.35
		C24.169-5.236,17.686-0.585,17.691,2.036"/>
	<path fill="#FFFFFF" d="M234.081-3.093c0.208,6.129-5.472,34.13,6.456,32.001c13.632-2.434,13.015-25.888,13.912-35.558
		c0.331-3.572-6.248,0.952-6.488,3.554c-0.654,7.093-1.056,14.471-2.837,21.396c-0.679,2.639-0.847,5.748-3.588,3.696
		c-2.965-2.222-1.75-10.635-1.618-13.713c0.213-4.971,0.819-9.955,0.646-14.934C240.439-10.396,233.988-5.708,234.081-3.093"/>
	<path fill="#FFFFFF" d="M248.038-3.093c0.027,13.135,0.765,26.287,0.596,39.419c-0.029,2.244-0.016,16.832-4.233,14.195
		c-7.693-4.813,5.166-20.291,8.059-23.753c3.563-4.25-1.88-4.199-4.346-1.256c-4.806,5.738-16.704,20.297-11.104,28.946
		c2.281,3.526,5.954,3.265,9.408,1.368c6.694-3.676,8.203-12.24,8.642-19.127c0.905-14.329-0.508-28.982-0.534-43.35
		C254.514-10.365,248.033-5.714,248.038-3.093"/>
	<path fill="#FFFFFF" d="M179.671-2.759c0.569,10.219,1.32,20.475,0.788,30.713c-0.197,3.775,6.189-1.159,6.489-3.553
		c0.804-6.478,2.155-9.233,6.136-13.82c4.036-4.646,5.903-10.22,7.274-16.146c1.073-4.639-5.401-0.28-6.166,2.056
		c-2.602,7.93-2.655,17.304-1.632,25.516c0.246,1.975,0.451,5.755,2.404,6.996c3.096,1.964,7.693-1.878,9.726-3.806
		c3.583-3.398,0.674-6.305-2.906-2.907c-2.869,2.725-3.176-10.364-3.187-11.675c-0.048-5.336,0.085-11.067,1.763-16.18
		c-2.057,0.684-4.11,1.372-6.165,2.056c-1.579,6.819-3.764,10.342-7.998,15.419c-3.854,4.623-5.006,10.183-5.738,16.043
		c2.164-1.186,4.325-2.369,6.489-3.553c0.528-10.239-0.222-20.494-0.788-30.714C185.949-10.078,179.528-5.369,179.671-2.759"/>
	<path fill="#FFFFFF" d="M168.511-7.773c-8.306,0.744-11.145,11.264-11.652,18.076c-0.414,5.609-0.206,18.688,7.806,19.095
		c8.206,0.419,11.58-10.605,12.111-16.913c0.465-5.52,0.254-19.511-7.624-20.206c-2.783-0.247-7.466,6.145-4.832,6.379
		c4.327,0.379,5.364,6.644,5.815,10.047c0.371,2.782,0.39,5.662,0.043,8.449c-0.182,1.496-0.676,2.904-0.914,4.373
		c-0.251,1.576-0.767,1.399-0.4,1.379c-4.354,0.219-5.287-7.893-5.517-10.763c-0.214-2.718-0.114-5.5,0.315-8.193
		c0.211-1.316,0.577-2.541,0.903-3.824c0.387-1.506,1.196-1.488,0.395-1.413C167.525-1.515,172.112-8.097,168.511-7.773"/>
	<path fill="#FFFFFF" d="M130.226-6.46c2.559,11.628,1.188,23.904,0.77,35.691c-0.134,3.767,6.256-1.096,6.488-3.553
		c0.513-5.412,1.207-10.855,2.481-16.153c0.799-3.318,1.638-11.611,6.04-8.332c1.939-1.937,3.876-3.876,5.815-5.813
		c-11.652-7.689-17.366,11.941-18.656,19.892c-0.318,1.973,2.081,1.368,3.029,0.944c7.148-3.179,3.889,10.37,7.221,12.758
		c4.343,3.112,11.865-4.044,14.539-6.438c3.695-3.307,0.746-6.179-2.906-2.912c-9.248,8.281-5.505-2.009-8.42-7.435
		c-2.318-4.32-6.229-3.099-10.007-1.42c1.013,0.315,2.02,0.632,3.029,0.947c0.534-3.299,1.387-13.807,6.355-10.526
		c2.452,1.616,7.998-4.187,5.815-5.813c-15.245-11.36-20.134,26.534-20.825,33.851c2.163-1.184,4.324-2.369,6.488-3.553
		c0.43-12.228,1.773-24.903-0.879-36.972C135.983-14.098,129.619-9.213,130.226-6.46"/>
	<path fill="#FFFFFF" d="M206.473-6.46c2.562,11.628,1.191,23.904,0.771,35.691c-0.133,3.767,6.257-1.096,6.489-3.553
		c0.513-5.412,1.207-10.855,2.481-16.153c0.799-3.318,1.638-11.611,6.04-8.332c1.939-1.937,3.876-3.876,5.815-5.813
		c-11.652-7.689-17.366,11.941-18.656,19.892c-0.321,1.973,2.078,1.368,3.029,0.944c7.148-3.179,3.889,10.37,7.221,12.758
		c4.343,3.112,11.865-4.044,14.539-6.438c3.695-3.307,0.746-6.179-2.906-2.912c-9.248,8.281-5.505-2.009-8.42-7.435
		c-2.321-4.32-6.229-3.099-10.007-1.42c1.01,0.315,2.02,0.632,3.029,0.947c0.534-3.299,1.387-13.807,6.355-10.526
		c2.449,1.616,7.998-4.187,5.815-5.813c-15.245-11.36-20.134,26.534-20.826,33.851c2.164-1.184,4.325-2.369,6.489-3.553
		c0.43-12.228,1.773-24.903-0.882-36.972C212.233-14.098,205.869-9.213,206.473-6.46"/>
	<path fill="#FFFFFF" d="M332.316,25.743c0.938-1.464,1.445-3.275,1.641-4.975c0.216-1.875-1.985-1.512-3.027-0.951
		c-1.6,0.863-3.242,2.624-3.459,4.504c-0.054,0.463-0.045,0.465-0.166,0.896c-0.026,0.088-0.374,0.953-0.171,0.51
		c0.15-0.326-0.173,0.305-0.262,0.44c-0.71,1.106-0.833,3.129,0.946,3.027C329.751,29.092,331.36,27.227,332.316,25.743"/>
	<path fill="#FFFFFF" d="M331.544-23.314c1.958,12.915-0.537,25.872-1.969,38.722c-0.396,3.533,6.197-0.961,6.488-3.553
		c1.485-13.343,3.892-26.603,1.859-40.003C337.514-30.86,331.121-26.109,331.544-23.314"/>
</g>
</svg>
