<?xml version="1.0" encoding="utf-8"?>
<!-- Generator: Adobe Illustrator 19.0.0, SVG Export Plug-In . SVG Version: 6.00 Build 0)  -->
<svg version="1.1" id="Layer_1" xmlns="http://www.w3.org/2000/svg" xmlns:xlink="http://www.w3.org/1999/xlink" x="0px" y="0px"
	 viewBox="0 0 40 69.6" style="enable-background:new 0 0 40 69.6;" xml:space="preserve">
<path id="XMLID_780_" style="opacity:0.4;fill:#7A7A7A;" d="M33.4,62.4c0,0,0-19.4,0-30c0-10.6-4.4-14.6-4.4-14.6
	c1.2-6.5-2-8.5-2-8.5V7h0.6c0,0,0-2.5,0-3.4c0-0.9-1.2-0.8-1.2-0.8h-4.3h-0.4h-4.3c0,0-1.2-0.1-1.2,0.8c0,0.8,0,3.4,0,3.4h0.7v2.3h0
	c0,0-3.1,2-2,8.5c0,0-4.4,4-4.4,14.6c0,10.6,0,30,0,30s-0.4,6.4,4.3,6.4c1.3,0,2.4,0,3.2,0c2.4,0,3.5,0,3.5,0h0.5h3.5
	c0.9,0,2,0,3.2,0C33.9,68.8,33.4,62.4,33.4,62.4z"/>
<path id="XMLID_262_" style="fill:#F4F4F4;" d="M32.1,61.4c0,0,0-19.4,0-30c0-10.6-4.4-14.6-4.4-14.6c1.2-6.5-2-8.5-2-8.5V5.9h-10
	v2.4h0c0,0-3.1,2-2,8.5c0,0-4.4,4-4.4,14.6c0,10.6,0,30,0,30s-0.4,6.4,4.3,6.4c1.3,0,2.4,0,3.2,0c2.4,0,3.5,0,3.5,0H21h3.5
	c0.9,0,2,0,3.2,0C32.5,67.9,32.1,61.4,32.1,61.4z"/>
<path id="XMLID_261_" style="fill:#D6D6D6;" d="M25.2,1.9h-4.3h-0.4h-4.3c0,0-1.2-0.1-1.2,0.8c0,0.8,0,3.4,0,3.4h5.5h0.4h5.5
	c0,0,0-2.5,0-3.4C26.4,1.8,25.2,1.9,25.2,1.9z"/>
<path id="XMLID_260_" style="fill:#EAEAEA;" d="M32.1,61.4c0,0,0-19.4,0-30c0-10.6-4.4-14.6-4.4-14.6c1.2-6.5-2-8.5-2-8.5V5.9h-5
	v61.9H21h3.5c0.9,0,2,0,3.2,0C32.5,67.9,32.1,61.4,32.1,61.4z"/>
<path id="XMLID_258_" style="fill:#FFFFFF;" d="M13.1,28c-0.1,0-0.1,0-0.2,0c-0.7-0.1-1.2-0.7-1.1-1.4c0.6-4.3,2.6-7,2.7-7.1
	c0.4-0.5,1.2-0.6,1.8-0.2c0.5,0.4,0.6,1.2,0.2,1.8c0,0-1.7,2.2-2.2,5.8C14.3,27.5,13.7,28,13.1,28z"/>
<g id="XMLID_193_">
	<circle id="XMLID_257_" style="fill:#0455A4;" cx="21.2" cy="41.5" r="5.9"/>
	<g id="XMLID_254_">
		<circle id="XMLID_255_" style="fill:#62BA47;" cx="16.5" cy="46.8" r="1.9"/>
	</g>
	<path id="XMLID_253_" style="fill:#0455A4;" d="M18.5,34.3c0,0.4-0.3,0.8-0.8,0.8c-0.4,0-0.8-0.3-0.8-0.8c0-0.4,0.3-0.8,0.8-0.8
		C18.1,33.5,18.5,33.9,18.5,34.3L18.5,34.3z"/>
	<path id="XMLID_252_" style="fill:#62BA47;" d="M18.5,36.8c0,0.5-0.4,1-1,1s-1-0.4-1-1c0-0.5,0.4-1,1-1S18.5,36.3,18.5,36.8
		L18.5,36.8z"/>
	<path id="XMLID_251_" style="fill:#62BA47;" d="M15.9,35.3c0,0.3-0.3,0.6-0.6,0.6c-0.3,0-0.6-0.3-0.6-0.6c0-0.3,0.3-0.6,0.6-0.6
		C15.6,34.8,15.9,35,15.9,35.3L15.9,35.3z"/>
	<g id="XMLID_229_">
		<circle id="XMLID_250_" style="fill:#62BA47;" cx="26.3" cy="36.1" r="3.2"/>
		<g id="XMLID_230_">
			<path id="XMLID_246_" style="fill:#FFFFFF;" d="M25.5,35.7c-0.3,0-0.3,0.3-0.3,0.6l0,0l0,0c0,0,0,0.1,0,0.1c0,0.1,0,0.2,0,0.3
				c0,0,0,0.1,0,0.1c-0.1,0-0.2-0.1-0.2-0.2c-0.1-0.2-0.1-0.3-0.2-0.5c0-0.2-0.1-0.4-0.1-0.6c0-0.1,0-0.2,0-0.3c0,0,0-0.1,0-0.1
				c0,0,0-0.1,0-0.1c0-0.2-0.2,0-0.2,0.1c-0.2,0.4-0.2,0.8-0.2,1.2c0,0.1,0,0.2,0,0.3c0,0.1,0,0.2-0.1,0.3c0,0-0.1,0-0.2,0
				c-0.1,0-0.1-0.1-0.1-0.2c0-0.1-0.1,0-0.1,0c0,0-0.1,0.1-0.1,0.2c0,0.2,0.2,0.3,0.3,0.2c0.3-0.1,0.3-0.3,0.4-0.6
				c0-0.1,0-0.2,0.1-0.3c0,0.2,0.1,0.3,0.2,0.5c0.1,0.1,0.2,0.2,0.3,0.2c0.1,0,0.2-0.1,0.2-0.3c0,0.1,0.1,0.2,0.3,0.2
				c0.1,0,0.3-0.2,0.3-0.3c0.1-0.1,0.1-0.3,0.1-0.4C25.8,36,25.7,35.6,25.5,35.7z M25.5,36.6C25.5,36.6,25.5,36.7,25.5,36.6
				c-0.1,0.1-0.1,0-0.1,0c0-0.1-0.1-0.2-0.1-0.3c0-0.1,0-0.2,0-0.3c0,0,0-0.1,0-0.1c0.1,0.1,0.2,0.3,0.2,0.4
				C25.6,36.4,25.6,36.5,25.5,36.6z"/>
			<path id="XMLID_238_" style="fill:#FFFFFF;" d="M28.7,36.1c-0.3-0.1-0.4,0.3-0.5,0.5c-0.1,0.2-0.1,0.6,0.1,0.7
				c0.1,0.1,0.3,0,0.3-0.1c0.1-0.1,0.2-0.2,0.2-0.3C28.9,36.5,28.9,36.2,28.7,36.1z M28.5,37C28.5,37,28.5,37,28.5,37
				C28.4,37,28.4,36.9,28.5,37c-0.1-0.2-0.1-0.3-0.1-0.4c0-0.1,0.1-0.2,0.1-0.3c0,0,0,0,0-0.1c0.1,0.1,0.1,0.3,0.1,0.5
				C28.6,36.8,28.6,36.9,28.5,37z"/>
			<path id="XMLID_231_" style="fill:#FFFFFF;" d="M27.9,36.1c0.1-0.1,0.1-0.2,0.2-0.2c0.1-0.2,0.2-0.3,0.2-0.5
				c0-0.2-0.3-0.2-0.4-0.1c-0.2,0.1-0.3,0.3-0.3,0.5c-0.1,0.3-0.1,0.5-0.1,0.8l0,0c-0.1,0.1-0.3,0.3-0.4,0.3c0,0-0.1-0.1-0.1-0.1
				c0.1-0.1,0.2-0.3,0.3-0.4c0.1-0.1,0.2-0.3,0-0.4c-0.1-0.1-0.3,0-0.4,0.1c-0.1,0.1-0.1,0.3-0.2,0.4c0,0.1,0,0.2,0,0.3
				c-0.1,0.1-0.2,0.1-0.3,0.1c-0.1,0-0.2-0.1-0.2-0.2c0-0.1,0-0.3,0-0.4c0,0,0-0.1,0-0.1v0c0.1,0,0.1,0.1,0.1,0.2
				c0,0.1,0.3-0.1,0.3-0.2c0-0.1-0.1-0.2-0.2-0.3c-0.1,0-0.3,0-0.3,0.1c-0.2,0.2-0.2,0.4-0.2,0.7c0,0.2,0,0.3,0.2,0.4
				c0.2,0.1,0.4,0,0.6-0.1c0,0.1,0.1,0.2,0.3,0.2c0.2,0,0.3-0.1,0.5-0.3c0,0.1,0,0.3,0.1,0.3c0.2,0.1,0.3,0,0.4-0.1
				c0.1-0.2,0.2-0.4,0.1-0.6C28.1,36.1,28,36.1,27.9,36.1z M26.9,36C26.9,36,27,35.9,26.9,36L26.9,36C27,35.9,27.1,36,26.9,36
				c0.1,0.2,0,0.3-0.1,0.4c0,0,0,0,0-0.1C26.9,36.2,26.9,36.1,26.9,36z M27.9,35.5C27.9,35.4,27.9,35.4,27.9,35.5L27.9,35.5
				c0.2,0,0.1,0.2,0,0.3c-0.1,0.1-0.1,0.2-0.2,0.3c0-0.1,0-0.2,0.1-0.3C27.8,35.7,27.8,35.6,27.9,35.5z M27.8,36.8
				C27.8,36.8,27.8,36.8,27.8,36.8L27.8,36.8c-0.1,0-0.1-0.1-0.2-0.2c0-0.1,0-0.1,0-0.2c0,0,0.1-0.1,0.1-0.1c0.1,0,0.1,0,0.1,0.1
				C27.9,36.5,27.8,36.7,27.8,36.8z"/>
		</g>
	</g>
	<g id="XMLID_223_">
		<g id="XMLID_224_">
			<path id="XMLID_225_" style="fill:#FFFFFF;" d="M25.5,43.2c-0.2,0-0.2-0.6-0.2-0.7c0-0.4,0.1-0.7,0.2-1.1c0-0.1-0.1-0.1-0.2-0.1
				c-0.1,0-0.2,0.1-0.3,0.2c0,0.1,0,0.1-0.1,0.2c0,0.1,0,0.1-0.1,0.2c0,0.2-0.1,0.4-0.2,0.6c0,0.2-0.1,0.3-0.2,0.4c0,0,0,0,0,0
				c0,0-0.1,0-0.1-0.1c-0.2-0.2-0.1-0.6-0.1-0.8c0-0.3,0.1-0.6,0.3-0.8c0-0.1,0-0.2-0.1-0.2c-0.1,0-0.3,0.1-0.3,0.2
				c-0.1,0.2-0.2,0.5-0.2,0.7c0,0.2-0.2,0.7-0.4,0.6c-0.1-0.1-0.1-0.5-0.1-0.7c-0.1-0.2-0.2-0.3-0.4-0.3c0.1-0.3,0.2-0.4,0.3-0.5
				c0.1,0,0.1,0.1,0.2,0.1c0.1,0.1,0.5-0.1,0.4-0.3c-0.2-0.2-0.3-0.2-0.5-0.2c-0.1,0-0.2,0.1-0.3,0.2c0,0,0,0-0.1,0.1
				c0-0.2,0-0.4-0.1-0.6c0-0.1-0.1-0.1-0.2,0c-0.1,0.1-0.2,0.2-0.2,0.2c0,0.2-0.1,0.3-0.2,0.4c-0.1,0-0.2,0.1-0.3,0.1
				c0,0-0.1-0.1-0.2,0c0.1-0.2,0.2-0.4,0.3-0.6c0.1-0.3,0.3-0.7,0.1-0.9c-0.2-0.3-0.6-0.1-0.8,0.1c-0.3,0.3-0.3,0.7-0.3,1
				c0,0.4,0,0.8,0,1.1c-0.1,0.2-0.1,0.4-0.2,0.6c-0.1-0.1-0.2-0.3-0.2-0.3c-0.1-0.3-0.1-0.5-0.1-0.8c0-0.1,0-0.2,0-0.3
				c0-0.1,0-0.2,0-0.3c0-0.1-0.1-0.1-0.2,0c-0.1,0.1-0.2,0.2-0.2,0.3c0,0.3,0,0.7,0,1c0,0.2,0,0.3-0.1,0.5c-0.3,0-0.3-0.5-0.4-0.7
				c0-0.3,0-0.6,0-0.9c0-0.1,0-0.2-0.2-0.1c-0.1,0-0.2,0.2-0.3,0.3c0,0.2,0,0.3-0.1,0.5c0,0.7-0.1,0.9-0.2,1.1
				c-0.1,0-0.1-0.1-0.1-0.1c-0.1-0.1-0.1-0.3-0.2-0.4c-0.1-0.4-0.2-0.8-0.2-1.2l0,0c0,0,0,0,0-0.1h0c-0.1,0-0.2,0.1-0.3,0.2
				c-0.2,0.3-0.1,0.8-0.1,1.1c0,0.2,0,0.4,0,0.5c-0.2-0.1-0.2-0.3-0.2-0.3c0-0.1-0.1,0-0.1,0c-0.1,0-0.1,0.1-0.1,0.1
				c0,0.1-0.1,0.1-0.1,0.2l0,0c0,0.1,0,0.2-0.2,0.2c-0.1,0-0.1,0-0.2,0c-0.1,0-0.2-0.2-0.3-0.3c-0.2-0.3-0.3-0.7-0.3-1.1
				c0-0.2,0-0.4,0-0.6c0-0.1,0-0.2,0.1-0.2c0,0,0-0.1,0-0.1s0,0,0,0l0,0l0,0l0,0l0,0c0,0,0,0,0,0c0,0,0.1,0,0.2,0
				c0.3,0,0.4,0.2,0.5,0.4c0.1,0.2,0.4-0.2,0.3-0.4c-0.1-0.3-0.3-0.5-0.6-0.5c-0.2,0-0.4,0.2-0.6,0.3c-0.3,0.4-0.4,1-0.3,1.5
				c0.1,0.5,0.2,1,0.5,1.3c0.1,0.1,0.3,0.2,0.4,0.2c0.2,0,0.3-0.2,0.5-0.3c0.1,0.2,0.3,0.2,0.4,0.1c0.2-0.2,0.3-0.4,0.3-0.7
				c0,0,0,0.1,0,0.1c0,0.1,0.1,0.3,0.2,0.3c0.1,0.1,0.4-0.1,0.4-0.1s0,0,0.1-0.1c0.1-0.1,0.2-0.2,0.2-0.3c0,0,0,0,0,0
				c0.1,0.2,0.2,0.3,0.4,0.3c0.2,0,0.4-0.2,0.5-0.3c0,0.1,0.1,0.1,0.1,0.2c0.2,0.2,0.5,0,0.7-0.2c0,0,0.1-0.1,0.1-0.2
				c0.1,0.2,0.2,0.4,0.4,0.4c0.3,0,0.6-0.3,0.6-0.6c0.1-0.2,0.1-0.5,0-0.8c0,0,0.1,0,0.1-0.1c0.1,0,0.2-0.1,0.2-0.2
				c0,0.5,0,1-0.1,1.5c0,0.2,0.4,0,0.4-0.2c0-0.2,0.1-0.4,0.1-0.6c0.1,0.1,0.1,0.3,0.2,0.5c0,0.2,0,0.3,0.2,0.4
				c0.2,0.1,0.4,0,0.5-0.1c0,0,0.1-0.1,0.1-0.1c0,0.2,0.1,0.3,0.3,0.4c0.2,0.1,0.4,0,0.6-0.1c0,0.3,0.2,0.4,0.5,0.4
				c0.1,0,0.2-0.1,0.3-0.2C25.7,43.2,25.6,43.2,25.5,43.2z M21.6,40.7c0-0.3,0.1-0.6,0.2-0.8v0c0.1,0,0.1,0.1,0.1,0.2
				c0.1,0.3-0.1,0.6-0.2,0.8c0,0.1-0.1,0.3-0.2,0.3C21.6,41,21.6,40.9,21.6,40.7z M22,42.4C22,42.5,22,42.5,22,42.4
				C22,42.5,22,42.5,22,42.4c-0.2,0-0.3-0.5-0.3-0.6v0c0-0.1,0.1-0.2,0.1-0.2c0,0,0.1,0,0.1,0c0,0,0.1,0,0.1,0.1
				c0.1,0.1,0.1,0.3,0.1,0.4C22.1,42.2,22,42.3,22,42.4z"/>
		</g>
	</g>
	<g id="XMLID_199_">
		<path id="XMLID_220_" style="fill:#FFFFFF;" d="M16.5,46.2L16.5,46.2c-0.3,0-0.3,0.3-0.4,0.5c0,0.2,0,0.6,0.2,0.6
			c0.3,0,0.3-0.3,0.4-0.5C16.8,46.7,16.8,46.2,16.5,46.2z M16.5,47.2c-0.1,0.1-0.2-0.3-0.2-0.3c0-0.1,0-0.5,0.1-0.5
			c0.1,0,0.2,0.2,0.2,0.3C16.6,46.8,16.6,47.2,16.5,47.2z"/>
		<path id="XMLID_219_" style="fill:#FFFFFF;" d="M16.1,47.1c-0.1,0.1-0.2,0-0.3,0c0,0-0.1,0-0.1,0l0,0c0.1-0.1,0.1-0.1,0.2-0.2
			c0.1-0.2,0.2-0.3,0.2-0.5c-0.1-0.4-0.5-0.1-0.6,0.1c0,0.1,0.2,0,0.2-0.1c0.1-0.2,0.2-0.1,0.3,0c0.1,0.1,0,0.3-0.1,0.4
			c-0.1,0.1-0.2,0.2-0.3,0.2c-0.1,0-0.1,0.1-0.1,0.1c0,0,0,0.1,0,0.1c0.1,0.1,0.2,0,0.3,0.1c0.2,0,0.3,0,0.4-0.1
			C16.1,47.3,16.2,47.1,16.1,47.1z"/>
		<path id="XMLID_218_" style="fill:#FFFFFF;" d="M17.6,46.3c-0.2,0.3-0.4,0.6-0.7,0.9c-0.1,0.1,0.1,0.1,0.1,0
			c0.3-0.3,0.5-0.6,0.7-1C17.9,46.2,17.7,46.3,17.6,46.3z"/>
		<path id="XMLID_213_" style="fill:#FFFFFF;" d="M17.2,46.7c0.2,0,0.3-0.4,0.1-0.4c-0.1,0-0.2,0.1-0.2,0.2
			C17,46.6,17.1,46.7,17.2,46.7z M17.3,46.6L17.3,46.6L17.3,46.6z M17.2,46.4L17.2,46.4L17.2,46.4L17.2,46.4z M17.2,46.4
			C17.2,46.4,17.2,46.4,17.2,46.4c0.1,0,0.1,0.1,0.1,0.1c0,0,0,0,0,0.1h0C17.2,46.5,17.2,46.5,17.2,46.4
			C17.2,46.4,17.2,46.4,17.2,46.4z"/>
		<path id="XMLID_200_" style="fill:#FFFFFF;" d="M17.6,46.9c-0.1,0-0.2,0.1-0.2,0.2c0,0.1,0,0.2,0.2,0.2
			C17.7,47.4,17.9,46.9,17.6,46.9z M17.5,47.1L17.5,47.1L17.5,47.1L17.5,47.1z M17.6,47.3L17.6,47.3L17.6,47.3z M17.6,47.2
			L17.6,47.2c-0.1,0-0.1,0-0.1-0.1c0,0,0,0,0-0.1c0,0,0,0,0,0C17.6,47.1,17.6,47.1,17.6,47.2C17.6,47.2,17.6,47.2,17.6,47.2z"/>
	</g>
	<g id="XMLID_194_">
		<path id="XMLID_198_" style="fill:#62BA46;" d="M14.1,39C14,39,14,39,14.1,39c-0.2-0.1-0.3,0-0.4,0c-0.3,0-0.4,0-0.7-0.1
			c0-0.3,0.2-0.5,0.3-0.7c0.1-0.2,0-0.4,0-0.7c0-0.1,0-0.3,0-0.4c-0.1,0.1-0.1,0.3-0.1,0.5c0-0.2,0-0.4-0.1-0.5c0,0.2,0,0.4,0,0.5
			c-0.1-0.2-0.1-0.3-0.1-0.5c-0.1,0.2,0.1,0.4,0,0.5c-0.1-0.1-0.1-0.3-0.2-0.4c0,0.2,0.1,0.3,0.1,0.5c-0.1-0.1-0.1-0.3-0.2-0.3
			c0,0.1,0.1,0.3,0.1,0.4c-0.1,0-0.1-0.1-0.2-0.2c0,0.1,0.1,0.2,0.1,0.2c-0.1,0-0.1-0.1-0.2-0.1c0,0.1,0.1,0.1,0.1,0.2
			c0,0-0.1-0.1-0.1-0.1c0,0.1,0.1,0.1,0.1,0.2c0,0-0.1,0-0.1,0c0,0,0.1,0,0,0.1c0,0,0,0-0.1,0c0,0,0.1,0,0,0.1c0,0,0,0,0,0
			s0,0,0,0.1c-0.3,0.3-0.1,0.5-0.1,0.8c0,0-0.2-0.1-0.4-0.2c-0.1,0-0.1-0.1-0.2-0.2c0,0,0,0,0,0c0,0-0.1,0-0.1-0.1c0,0,0.1,0,0.1,0
			c0,0-0.2-0.1-0.1-0.1c0.1,0,0.1,0,0.2,0c-0.1,0-0.2-0.1-0.2-0.2c0.1,0,0.2,0.1,0.2,0.1c-0.1-0.1-0.3-0.1-0.3-0.2
			c0.1,0,0.2,0.1,0.3,0.1c-0.1,0-0.2-0.2-0.3-0.2c0.1,0.1,0.2,0.2,0.3,0.3c-0.1-0.1-0.2-0.1-0.3-0.2c0,0.1,0.2,0.2,0.3,0.2
			c-0.1,0-0.1-0.1-0.2-0.1c0,0.1,0.2,0.1,0.2,0.2c0,0-0.1,0-0.2,0c0,0.1,0.1,0,0.2,0.1c-0.1,0-0.1,0-0.1,0c0,0,0.1,0,0.1,0.1
			c0,0-0.1,0-0.1,0c0,0,0.1,0,0.1,0c0,0,0,0,0,0c0,0,0.1,0,0.1,0s0,0,0,0c0.1,0.1,0.2,0.3,0.4,0.3c-0.1,0.1,0.1,0.1-1,0.5
			c0,0,0.5-0.1,0.6-0.2c0.1-0.1,0.3-0.1,0.4-0.1c0,0,0.1,0,0.1,0c0.3,0,0.4,0,0.7-0.1c-0.2,0-0.5,0.1-0.6,0c0.2-0.3,0.1-0.9,0.2-1
			c0.1-0.1,0.3-0.5,0.5-0.2c0,0.1,0,0.1,0,0.3c-0.1,0.2-0.2,0.3-0.2,0.6c0,0.1,0,0.2-0.1,0.2c0.5,0.1,0.6,0.1,0.9,0
			c0.1,0,0.2-0.1,0.3,0c0,0-0.1,0-0.2,0c-0.1,0,0.1,0.1,0.1,0c0,0,0.3,0,0.4-0.1C14.2,39.1,14.2,39.1,14.1,39z"/>
		<path id="XMLID_195_" style="fill:#62BA46;" d="M12.7,36.5c-1.1,0-2,0.9-2,2c0,1.1,0.9,2,2,2c1.1,0,2-0.9,2-2
			C14.7,37.4,13.8,36.5,12.7,36.5 M12.7,36.6c1.1,0,2,0.9,2,2c0,1.1-0.9,2-2,2c-1.1,0-2-0.9-2-2C10.7,37.5,11.5,36.6,12.7,36.6"/>
	</g>
</g>
<g id="ticks">
</g>
</svg>
