<?xml version="1.0" encoding="utf-8"?>
<!-- Generator: Adobe Illustrator 19.0.0, SVG Export Plug-In . SVG Version: 6.00 Build 0)  -->
<svg version="1.1" id="Layer_1" xmlns="http://www.w3.org/2000/svg" xmlns:xlink="http://www.w3.org/1999/xlink" x="0px" y="0px"
	 viewBox="0 0 40 65.1" style="enable-background:new 0 0 40 65.1;" xml:space="preserve">
<path id="XMLID_626_" style="opacity:0.4;fill:#7A7A7A;" d="M23.9,15.6c1.6-4.7,3.3-11,1.5-13.8c-0.7-1.1-1.8-1.5-3.4-1.5
	c-2,0.1-3.4,1-4.3,2.4c-1.8,3.1-0.5,8.7,1,12.9c-7.7,1.2-13.5,7.5-13.5,15c0,3.9,1.5,7.4,4.1,8.4h7.1c-0.6,15.4-4.1,16.7-2.2,21.5
	c2,5.2,7.2,4.1,7.2,4.1s5.2,1.1,7.2-4.1c1.9-4.8-1.6-6.1-2.2-21.5h7.1c2.5-1,4.1-4.5,4.1-8.4C37.7,23,31.7,16.7,23.9,15.6z
	 M18.3,2.9C19.1,1.7,20.2,1,22,1c0.1,0,0.1,0,0.2,0c1.1,0,2,0.4,2.5,1.2c1.7,2.6-0.1,8.9-1.8,13.4c-0.5,0-1-0.1-1.4-0.1
	c-0.6,0-1.2,0-1.8,0.1C18.1,11.5,16.6,5.8,18.3,2.9z"/>
<path id="XMLID_333_" style="fill:#984D22;" d="M20,21.5c-0.1,0-0.3-0.6-0.3-0.7c-0.3-0.5-6.4-13.2-3.3-18.4C17.3,1,18.7,0.1,20.7,0
	c1.5-0.1,2.7,0.4,3.4,1.5c3,4.6-3.4,18.8-3.7,19.4C20.3,21,20.2,21.5,20,21.5C20,21.5,20,21.5,20,21.5z M20.9,0.6
	c-0.1,0-0.1,0-0.2,0c-1.7,0.1-2.9,0.7-3.6,1.9c-2.5,4.2,1.7,13.9,2.9,16.6c1.3-3,5.8-13.7,3.4-17.4C22.9,1,22.1,0.6,20.9,0.6z"/>
<path id="XMLID_317_" style="fill:#F8CA4D;" d="M25.2,34.5l-5,1.4l-5-1.4c0,19.4-4.3,20.5-2.3,25.7c2,5.2,7.2,4.1,7.2,4.1
	s5.2,1.1,7.2-4.1C29.5,55.1,25.2,53.9,25.2,34.5z"/>
<path id="XMLID_313_" style="fill:#F5E5C0;" d="M32.4,38.7c2.5-1,4.1-4.5,4.1-8.4c0-8.4-7.3-15.2-16.3-15.2c-9,0-16.3,6.8-16.3,15.2
	c0,3.9,1.5,7.4,4.1,8.4H32.4z"/>
<g id="XMLID_305_">
	<circle id="XMLID_309_" style="fill:#F8CA4D;" cx="9.9" cy="33.3" r="1.2"/>
	<circle id="XMLID_308_" style="fill:#F8CA4D;" cx="10.3" cy="26.1" r="3.3"/>
	<circle id="XMLID_307_" style="fill:#F8CA4D;" cx="17" cy="26.3" r="1.7"/>
	<circle id="XMLID_306_" style="fill:#F8CA4D;" cx="16.2" cy="18.9" r="1.1"/>
</g>
<ellipse id="XMLID_310_" style="opacity:0.31;fill:#FFFFFF;" cx="20.2" cy="21.8" rx="8.3" ry="4.7"/>
<g id="ticks">
</g>
</svg>
