<?xml version="1.0" encoding="utf-8"?>
<!-- Generator: Adobe Illustrator 19.0.0, SVG Export Plug-In . SVG Version: 6.00 Build 0)  -->
<svg version="1.1" id="Layer_1" xmlns="http://www.w3.org/2000/svg" xmlns:xlink="http://www.w3.org/1999/xlink" x="0px" y="0px"
	 viewBox="0 0 40 69.6" style="enable-background:new 0 0 40 69.6;" xml:space="preserve">
<path id="XMLID_754_" style="opacity:0.4;fill:#7A7A7A;" d="M33.6,62.4c0,0,0-19.4,0-30c0-10.6-4.4-14.6-4.4-14.6
	c1.2-6.5-2-8.5-2-8.5V7h0.6c0,0,0-2.5,0-3.4c0-0.9-1.2-0.8-1.2-0.8h-4.3h-0.4h-4.3c0,0-1.2-0.1-1.2,0.8c0,0.8,0,3.4,0,3.4h0.7v2.3h0
	c0,0-3.1,2-2,8.5c0,0-4.4,4-4.4,14.6c0,10.6,0,30,0,30s-0.4,6.4,4.3,6.4c1.3,0,2.4,0,3.2,0c2.4,0,3.5,0,3.5,0h0.5H26
	c0.9,0,2,0,3.2,0C34,68.8,33.6,62.4,33.6,62.4z"/>
<path id="XMLID_376_" style="fill:#F4F4F4;" d="M32.1,61.4c0,0,0-19.4,0-30c0-10.6-4.4-14.6-4.4-14.6c1.2-6.5-2-8.5-2-8.5V5.9h-10
	v2.4h0c0,0-3.1,2-2,8.5c0,0-4.4,4-4.4,14.6c0,10.6,0,30,0,30s-0.4,6.4,4.3,6.4c1.3,0,2.4,0,3.2,0c2.4,0,3.5,0,3.5,0H21h3.5
	c0.9,0,2,0,3.2,0C32.5,67.9,32.1,61.4,32.1,61.4z"/>
<path id="XMLID_375_" style="fill:#D6D6D6;" d="M25.2,1.9h-4.3h-0.4h-4.3c0,0-1.2-0.1-1.2,0.8c0,0.8,0,3.4,0,3.4h5.5h0.4h5.5
	c0,0,0-2.5,0-3.4C26.4,1.8,25.2,1.9,25.2,1.9z"/>
<path id="XMLID_374_" style="fill:#EAEAEA;" d="M32.1,61.4c0,0,0-19.4,0-30c0-10.6-4.4-14.6-4.4-14.6c1.2-6.5-2-8.5-2-8.5V5.9h-5
	v61.9H21h3.5c0.9,0,2,0,3.2,0C32.5,67.9,32.1,61.4,32.1,61.4z"/>
<path id="XMLID_373_" style="fill:#FFFFFF;" d="M13.1,28c-0.1,0-0.1,0-0.2,0c-0.7-0.1-1.2-0.7-1.1-1.4c0.6-4.3,2.6-7,2.7-7.1
	c0.4-0.5,1.2-0.6,1.8-0.2c0.5,0.4,0.6,1.2,0.2,1.8c0,0-1.7,2.2-2.2,5.8C14.3,27.5,13.7,28,13.1,28z"/>
<g id="XMLID_407_">
	<circle id="XMLID_459_" style="fill:#EB008B;" cx="21.3" cy="40.7" r="6.1"/>
	<circle id="XMLID_458_" style="fill:#62BA47;" cx="16.4" cy="46.1" r="1.9"/>
	<path id="XMLID_457_" style="fill:#E90E8A;" d="M18.4,33.2c0,0.4-0.3,0.8-0.8,0.8c-0.4,0-0.8-0.3-0.8-0.8c0-0.4,0.3-0.8,0.8-0.8
		C18,32.4,18.4,32.7,18.4,33.2L18.4,33.2z"/>
	<path id="XMLID_456_" style="fill:#62BA47;" d="M18.4,35.8c0,0.6-0.4,1-1,1c-0.6,0-1-0.4-1-1c0-0.6,0.4-1,1-1
		C18,34.8,18.4,35.2,18.4,35.8L18.4,35.8z"/>
	<path id="XMLID_455_" style="fill:#62BA47;" d="M15.7,34.2c0,0.3-0.3,0.6-0.6,0.6c-0.3,0-0.6-0.3-0.6-0.6c0-0.3,0.3-0.6,0.6-0.6
		C15.5,33.6,15.7,33.9,15.7,34.2L15.7,34.2z"/>
	<g id="XMLID_441_">
		<path id="XMLID_454_" style="fill:#62BA47;" d="M29.9,35.1c0,1.9-1.5,3.4-3.4,3.4c-1.9,0-3.4-1.5-3.4-3.4c0-1.9,1.5-3.4,3.4-3.4
			C28.4,31.7,29.9,33.2,29.9,35.1z"/>
		<g id="XMLID_442_">
			<path id="XMLID_451_" style="fill:#FFFFFF;" d="M25.7,34.6c-0.3,0-0.4,0.4-0.4,0.6l0,0l0,0c0,0,0,0.1,0,0.1c0,0.1,0,0.2,0,0.3
				c0,0.1,0,0.1,0,0.1c-0.1,0-0.2-0.1-0.2-0.2C25,35.3,25,35.1,24.9,35c0-0.2-0.1-0.4-0.1-0.6c0-0.1,0-0.2,0-0.2c0,0,0-0.1,0-0.1
				c0,0,0-0.1,0-0.1c0-0.2-0.2,0-0.2,0.1c-0.2,0.4-0.2,0.9-0.2,1.3c0,0.1,0,0.2,0,0.3c0,0.1,0,0.2-0.1,0.3c-0.1,0.1-0.1,0-0.2,0
				c-0.1,0-0.1-0.1-0.1-0.2c0-0.1-0.1,0-0.1,0c-0.1,0.1-0.1,0.1-0.1,0.2c0,0.2,0.2,0.3,0.3,0.2c0.3-0.1,0.4-0.4,0.4-0.6
				c0-0.1,0.1-0.2,0.1-0.3c0,0.2,0.1,0.3,0.2,0.5c0.1,0.1,0.2,0.2,0.3,0.2c0.1,0,0.2-0.1,0.2-0.3c0.1,0.1,0.1,0.2,0.3,0.2
				c0.1,0,0.3-0.2,0.3-0.3c0.1-0.1,0.1-0.3,0.1-0.4C26,35,26,34.5,25.7,34.6z M25.8,35.5C25.8,35.6,25.8,35.6,25.8,35.5
				c-0.1,0.1-0.1,0-0.1-0.1c-0.1-0.1-0.1-0.2-0.1-0.3c0-0.1,0-0.2,0-0.3c0,0,0-0.1,0-0.1c0.1,0.1,0.2,0.3,0.2,0.4
				C25.8,35.3,25.8,35.4,25.8,35.5z"/>
			<path id="XMLID_448_" style="fill:#FFFFFF;" d="M29,35c-0.3-0.1-0.5,0.3-0.5,0.5c-0.1,0.2-0.1,0.6,0.2,0.7
				c0.1,0.1,0.3-0.1,0.3-0.1c0.1-0.1,0.2-0.2,0.2-0.4C29.3,35.5,29.3,35.1,29,35z M28.9,35.9C28.9,36,28.8,36,28.9,35.9
				c-0.1,0.1-0.1-0.1-0.1-0.1c0-0.1,0-0.2,0-0.3c0-0.1,0.1-0.2,0.1-0.3c0,0,0-0.1,0.1-0.1c0.1,0.1,0.1,0.3,0.1,0.5
				C28.9,35.8,28.9,35.9,28.9,35.9z"/>
			<path id="XMLID_443_" style="fill:#FFFFFF;" d="M28.2,35c0.1-0.1,0.1-0.2,0.2-0.2c0.1-0.2,0.2-0.4,0.2-0.6c0-0.2-0.3-0.2-0.4-0.1
				c-0.2,0.1-0.3,0.3-0.4,0.5c-0.1,0.3-0.1,0.5-0.1,0.8l0,0c-0.1,0.1-0.3,0.3-0.4,0.2c0,0-0.1-0.1-0.1-0.1c0.1-0.1,0.2-0.3,0.3-0.4
				c0.1-0.1,0.2-0.4,0-0.5c-0.2-0.1-0.3,0-0.4,0.1C27,34.8,27,35,26.9,35.1c0,0.1,0,0.2,0,0.3c-0.1,0.1-0.2,0.1-0.3,0.1
				c-0.1,0-0.2-0.2-0.2-0.2c0-0.1,0-0.3,0-0.4c0-0.1,0-0.1,0-0.1c0,0,0,0,0,0c0.1,0,0.1,0.1,0.1,0.2c0,0.1,0.3-0.1,0.3-0.2
				c0-0.1-0.1-0.2-0.2-0.3c-0.1-0.1-0.3,0.1-0.3,0.1c-0.2,0.2-0.2,0.4-0.2,0.7c0,0.2,0.1,0.3,0.2,0.4c0.2,0.1,0.4,0,0.6-0.1
				c0.1,0.1,0.1,0.2,0.3,0.2c0.2,0,0.3-0.1,0.5-0.2c0,0.1,0,0.3,0.1,0.3c0.2,0.1,0.4,0,0.5-0.2c0.1-0.2,0.2-0.4,0.1-0.6
				C28.4,35.1,28.3,35,28.2,35z M27.2,34.9c0,0,0-0.1,0.1-0.1l0,0c0.1,0,0.1,0.1,0.1,0.2c0,0.1-0.1,0.2-0.2,0.3c0,0,0-0.1,0-0.1
				C27.2,35.1,27.2,35,27.2,34.9z M28.2,34.4c0-0.1,0.1-0.1,0.1-0.1l0,0c0.1,0.1,0,0.3-0.1,0.4c-0.1,0.1-0.1,0.2-0.2,0.4
				c0-0.1,0.1-0.2,0.1-0.3C28.1,34.6,28.1,34.5,28.2,34.4z M28.1,35.8C28.1,35.8,28.1,35.8,28.1,35.8L28.1,35.8
				c-0.1,0-0.1-0.2-0.1-0.2c0-0.1,0-0.1,0-0.2c0,0,0.1-0.1,0.1-0.1c0.1-0.1,0.1,0.1,0.1,0.1C28.2,35.5,28.2,35.6,28.1,35.8z"/>
		</g>
	</g>
	<g id="XMLID_427_">
		<path id="XMLID_440_" style="fill:#FFFFFF;" d="M15,45.8c0.1-0.2,0.2-0.1,0.3,0c0.1,0.1,0,0.3-0.1,0.4c-0.1,0.1-0.2,0.2-0.2,0.2
			c-0.1,0-0.1,0.1-0.1,0.1c0,0,0,0.1,0,0.1c0.1,0.1,0.2,0.1,0.3,0.1c0.2,0,0.3,0,0.4-0.1c0.1,0,0.2-0.2,0-0.2
			c-0.1,0.1-0.2,0.1-0.3,0c-0.1,0-0.2,0-0.2,0c0,0,0,0.1,0,0.1c-0.1,0.1,0,0.1,0,0c0.1,0,0.1-0.1,0.1-0.1c0.1-0.1,0.1-0.1,0.2-0.2
			c0.1-0.1,0.2-0.3,0.2-0.5c-0.1-0.4-0.5-0.1-0.6,0.1C14.8,46,15,45.9,15,45.8L15,45.8z"/>
		<path id="XMLID_439_" style="fill:#FFFFFF;" d="M16.1,46.5c0.2,0.5,0.8,0.1,0.7-0.3C16.8,46,16.6,46,16.4,46
			c-0.1,0-0.1-0.1-0.1-0.2c0-0.1,0-0.1,0-0.1c0,0,0.1,0,0.1,0c0.1,0,0.3,0,0.4,0.1c0.1,0,0.2-0.1,0.1-0.2c-0.2-0.1-0.4-0.1-0.6,0
			c-0.2,0.1-0.2,0.2-0.2,0.4c0,0.2,0.2,0.2,0.3,0.3c0.1,0,0.2,0.1,0.2,0.2c0,0.2-0.2,0.2-0.3,0.1c-0.1,0-0.1-0.1-0.1-0.1
			C16.3,46.3,16.1,46.4,16.1,46.5L16.1,46.5z"/>
		<g id="XMLID_429_">
			<path id="XMLID_438_" style="fill:#FFFFFF;" d="M17.7,45.6c-0.2,0.3-0.4,0.6-0.7,0.9c-0.1,0.1,0.1,0.1,0.1,0
				c0.2-0.3,0.5-0.6,0.7-1C18,45.5,17.8,45.6,17.7,45.6L17.7,45.6z"/>
			<path id="XMLID_431_" style="fill:#FFFFFF;" d="M17.4,45.5c-0.1,0-0.2,0.1-0.2,0.2c0,0.1,0.1,0.2,0.2,0.2
				C17.5,46,17.6,45.6,17.4,45.5c-0.1,0-0.2,0.1-0.1,0.1c0.1,0,0.1,0.1,0.1,0.1c0,0,0,0.1,0,0.1c0,0,0,0,0,0h0
				c-0.1,0-0.1-0.1-0.1-0.1c0,0,0-0.1,0-0.1c0,0,0,0,0,0h0C17.4,45.7,17.4,45.5,17.4,45.5z"/>
			<path id="XMLID_430_" style="fill:#FFFFFF;" d="M17.7,46.2c-0.1,0-0.2,0.1-0.2,0.2c0,0.1,0.1,0.2,0.2,0.2
				C17.9,46.7,18,46.2,17.7,46.2c-0.1,0-0.2,0.1-0.1,0.1c0.1,0,0.1,0.1,0.1,0.1c0,0,0,0.1,0,0.1c0,0,0,0,0,0h0
				c-0.1,0-0.1-0.1-0.1-0.1c0,0,0-0.1,0-0.1c0,0,0,0,0,0h0C17.7,46.4,17.8,46.2,17.7,46.2z"/>
		</g>
		<path id="XMLID_428_" style="fill:#FFFFFF;" d="M15.8,46.9c0.1-0.1,0.1-0.2,0.2-0.3c0,0,0-0.1,0-0.1c-0.1-0.1-0.1,0-0.2,0
			c-0.1,0-0.1,0.1-0.1,0.1c0,0.1,0.1,0.1,0.1,0l0,0l0,0c0,0,0,0,0,0.1c0,0,0,0.1,0,0.1s0,0,0,0l0,0c0,0,0,0,0,0c0,0,0,0,0,0
			c0,0-0.1,0.1-0.1,0.1C15.7,47,15.8,46.9,15.8,46.9L15.8,46.9z"/>
	</g>
	<g id="XMLID_413_">
		<path id="XMLID_420_" style="fill:#FFFFFF;" d="M26.2,40.5c-0.1-0.1-0.2-0.1-0.3-0.1c0-0.1,0-0.2,0-0.3c0-0.1-0.1-0.1-0.2-0.1
			c-0.1,0-0.1,0.1-0.1,0.1c-0.1,0-0.2,0-0.2,0.1c-0.2,0.1-0.3,0.3-0.3,0.6c0,0.1,0,0.1,0,0.1l0,0c0,0.1-0.1,0.2-0.1,0.3
			c-0.1,0-0.1-0.2-0.1-0.3c0-0.3,0.1-0.6,0.1-0.9c0-0.1-0.1-0.1-0.1-0.1c-0.1,0-0.2,0.1-0.2,0.1c-0.1,0.2-0.1,0.4-0.1,0.7
			c0,0.1-0.1,0.2-0.1,0.3l0,0c0,0-0.1,0-0.1,0c-0.1-0.1-0.1-0.4-0.1-0.5c0-0.2,0.1-0.4,0.2-0.6c0-0.1,0-0.1-0.1-0.1
			c-0.1,0-0.2,0.1-0.2,0.1c-0.1,0.2-0.1,0.3-0.2,0.5c0,0.2-0.1,0.3-0.2,0.4l0,0c0,0,0,0,0,0c0-0.1,0-0.3,0-0.4c0-0.2,0-0.4,0.1-0.6
			c0,0,0,0,0,0c0-0.2-0.1-0.3-0.3-0.2c-0.2,0-0.3,0.1-0.4,0.2c-0.1,0.2-0.2,0.4-0.2,0.4c0,0.2-0.1,0.3-0.2,0.4c0,0,0-0.1,0-0.1
			c0-0.1-0.1-0.2-0.1-0.3c0-0.3,0-0.6,0-0.8l0,0c0,0,0,0,0,0l0,0c-0.1,0-0.2,0.1-0.2,0.1c-0.2,0.2-0.2,0.4-0.2,0.6
			c0,0.1-0.1,0.2-0.1,0.4c0,0,0,0,0,0.1c0,0-0.1-0.1-0.1-0.1l0,0c0-0.1,0-0.1-0.1-0.1c-0.1,0-0.2,0.1-0.2,0.2l0,0l0,0
			c-0.1,0-0.1-0.1-0.1-0.1c0-0.1,0-0.2-0.1-0.3c0-0.1,0-0.1,0-0.2c0-0.2,0-0.3,0-0.4c0-0.1,0-0.1,0-0.1c0-0.1-0.1-0.1-0.1,0
			c-0.1,0-0.2,0.1-0.2,0.2c0,0.1,0,0.2,0,0.2c0,0.1,0,0.2,0,0.2c0,0.1,0,0.1,0,0.2c0,0.1,0,0.2-0.1,0.3l0,0c0,0-0.1,0-0.1,0
			C21,40.7,21,40.4,21,40.3c0-0.2,0-0.4,0.1-0.6c0,0,0-0.1,0-0.1c0,0-0.1,0-0.1,0c0,0-0.1,0.1-0.2,0.1c-0.1,0.1-0.2,0-0.3-0.1
			c0-0.1-0.1-0.1-0.1-0.1c-0.1-0.1-0.2,0-0.3,0.1c0-0.1,0-0.2-0.1-0.3c0-0.1-0.1,0-0.2,0c-0.1,0.1-0.1,0.1-0.1,0.2
			c-0.1,0-0.2,0.1-0.2,0.1c-0.2,0.2-0.2,0.4-0.2,0.7c0,0.1,0,0.1,0,0.1c0,0.1,0,0.2-0.1,0.3c-0.1,0.1-0.2-0.2-0.2-0.2
			C19,40.4,19,40.1,19,39.8c0-0.1-0.1-0.1-0.1,0c-0.1,0.1-0.1,0.1-0.1,0.2c0,0.2,0.1,0.4,0.1,0.7c0,0.1,0,0.2,0,0.3c0,0,0,0,0,0
			c0,0-0.1,0-0.1,0c-0.2,0-0.2-0.3-0.2-0.4c0-0.2,0-0.4,0-0.6c0-0.1,0-0.1-0.1-0.1c-0.1,0-0.1,0.1-0.2,0.2c0,0.3,0,0.5,0,0.7
			c0,0.2,0.1,0.4,0.3,0.4c0.2,0,0.3-0.1,0.3-0.3c0,0,0,0.1,0.1,0.1c0.1,0.2,0.3,0,0.4-0.1c0,0,0,0,0.1-0.1c0,0,0.1,0.1,0.1,0.1
			c0.1,0.1,0.2,0.1,0.3,0.1c0,0,0.1,0,0.1-0.1c0,0.3,0,0.6,0,0.8c0,0.1,0.1,0.1,0.1,0c0.1-0.1,0.1-0.1,0.1-0.2c0-0.2,0-0.4,0-0.7
			c0.1,0,0.2-0.1,0.3-0.2c0.2-0.2,0.2-0.5,0.2-0.7c0-0.1,0-0.1,0-0.1c0.1,0,0.2-0.1,0.2-0.1c0,0.2-0.1,0.4,0,0.6
			c0,0.2,0.1,0.5,0.3,0.5c0.1,0,0.2-0.1,0.3-0.2c0.1,0.1,0.2,0.2,0.3,0.1c0.1,0,0.1,0,0.1-0.1c0.1,0.1,0.2,0.1,0.4,0
			c0.1-0.1,0.2-0.2,0.2-0.3c0,0,0,0.1,0,0.1c0,0.1,0,0.2,0.1,0.3c0.1,0.1,0.2,0.1,0.3,0c0.1,0,0.1-0.1,0.2-0.1
			c0,0.1,0.1,0.2,0.1,0.2c0.1,0.1,0.3,0,0.4-0.1c0,0.1,0,0.1,0.1,0.2c0.2,0.1,0.3-0.1,0.4-0.2c0,0,0,0,0,0c0,0.1,0.1,0.2,0.2,0.3
			c0.2,0.1,0.3,0,0.4-0.1c0,0,0,0.1,0,0.1c0.1,0.2,0.3,0.1,0.4,0.1c0,0,0,0,0.1,0c0,0.1,0,0.1,0.1,0.1c0.1,0.1,0.1,0.1,0.2,0.2
			c0,0,0.1,0,0.1,0c-0.1,0.3-0.1,0.5-0.2,0.8c0,0.1,0.1,0.1,0.1,0.1c0.1,0,0.1-0.1,0.2-0.1c0.1-0.2,0.1-0.4,0.2-0.6
			c0.1,0,0.2,0,0.3,0c0.2-0.1,0.3-0.4,0.4-0.6C26.3,41,26.3,40.7,26.2,40.5z M19.8,40.9C19.8,40.9,19.7,40.9,19.8,40.9
			c-0.1,0-0.1-0.1-0.2-0.1c-0.1-0.1-0.1-0.3-0.1-0.4c0-0.1,0-0.3,0.1-0.4c0,0,0,0,0,0c0.1,0.1,0.2,0.2,0.2,0.3l0,0
			C19.7,40.5,19.8,40.7,19.8,40.9C19.8,40.9,19.8,40.9,19.8,40.9z M20.2,40.8C20.2,40.8,20.2,40.9,20.2,40.8
			C20.2,40.9,20.2,40.9,20.2,40.8c-0.1,0.1-0.2,0-0.2-0.1l0,0c0-0.2,0-0.4-0.1-0.6c0-0.1,0-0.1,0-0.2l0,0l0,0c0,0,0.1,0,0.1,0l0,0
			l0,0c0.1,0.1,0.1,0.3,0.1,0.4C20.3,40.5,20.3,40.7,20.2,40.8z M23.4,40.2c-0.1,0.2-0.1,0.5-0.1,0.7c0,0,0,0,0,0.1c0,0,0,0-0.1,0
			c-0.1,0-0.1-0.1-0.1-0.2c-0.1-0.2,0-0.4,0.1-0.6c0-0.1,0.1-0.1,0.1-0.2l0,0c0,0,0,0,0.1,0C23.4,40,23.4,40.1,23.4,40.2z
			 M25.5,40.9L25.5,40.9c0,0.2-0.1,0.4-0.1,0.6l0,0l0,0c0,0,0,0-0.1,0c-0.1-0.1-0.1-0.1-0.1-0.2c0-0.2,0-0.3,0-0.4
			c0-0.1,0.1-0.2,0.1-0.3l0,0C25.5,40.6,25.5,40.8,25.5,40.9z M26,41.2c0,0.1-0.1,0.3-0.2,0.4c0,0,0,0,0,0l0,0
			c-0.1,0-0.1-0.1-0.1-0.2l0,0c0.1-0.2,0.1-0.4,0.1-0.6c0-0.1,0-0.1,0.1-0.1l0,0l0,0c0,0,0.1,0.1,0.1,0.1C26,40.9,26,41,26,41.2z"/>
		<path id="XMLID_419_" style="fill:#FFFFFF;" d="M25,39.8c0,0,0.1-0.1,0.1-0.2c-0.1-0.1-0.2,0-0.2,0c-0.1,0.1-0.2,0.1-0.3,0
			c-0.1,0-0.1-0.1-0.1-0.1c-0.1-0.1-0.3,0.1-0.3,0.2C24.4,40,24.7,39.9,25,39.8z"/>
		<path id="XMLID_414_" style="fill:#FFFFFF;" d="M17.2,40.2c0-0.1-0.1-0.2-0.1-0.3c0.2-0.1,0.5-0.1,0.7-0.3c0.1,0,0.1-0.1,0.2-0.2
			c0-0.1,0-0.1-0.1-0.1c-0.4,0.2-0.9,0.3-1.3,0.4c-0.2,0.1-0.3,0.2-0.4,0.3c-0.1,0.2-0.1,0.4,0,0.5c0.1,0.1,0.3-0.2,0.2-0.3
			c0-0.1-0.1-0.1-0.1-0.2v0c0.1-0.1,0.3-0.1,0.4-0.2c0,0,0.1,0,0.1,0c0.1,0.1,0.1,0.2,0.1,0.4c-0.1,0.1-0.3,0.2-0.3,0.4
			c-0.2,0.3-0.2,1.1,0.4,1c0.4-0.1,0.4-0.5,0.4-0.8c0-0.2-0.1-0.3-0.1-0.5c0,0,0.1,0,0.1,0c0.2,0,0.3,0.2,0.3,0.4
			c0,0.2,0,0.4-0.1,0.5c-0.1,0.1-0.1,0.2-0.1,0.2c0,0.1,0.1,0,0.2-0.1c0.3-0.3,0.4-0.8,0.1-1.2C17.7,40.2,17.4,40.2,17.2,40.2z
			 M17.1,41.5c-0.1,0-0.2,0-0.2-0.1c-0.1-0.1-0.2-0.5-0.1-0.7c0.1-0.1,0.1-0.1,0.2-0.2c0.1,0.2,0.1,0.4,0.1,0.6
			C17.1,41.2,17.1,41.3,17.1,41.5C17.1,41.4,17.1,41.4,17.1,41.5C17.1,41.5,17.1,41.5,17.1,41.5z"/>
	</g>
	<g id="XMLID_408_">
		<path id="XMLID_412_" style="fill:#62BA46;" d="M13.9,38.1C13.8,38.1,13.8,38,13.9,38.1c-0.2-0.1-0.3-0.1-0.4-0.1
			c-0.3,0-0.4,0-0.7-0.1c0-0.3,0.2-0.5,0.3-0.7c0.1-0.2,0-0.4-0.1-0.7c0-0.1,0-0.3,0-0.4c-0.1,0.1-0.1,0.4-0.1,0.5
			c-0.1-0.2,0-0.4-0.1-0.6c-0.1,0.2,0,0.4,0,0.6c-0.1-0.2-0.1-0.4-0.1-0.5c-0.1,0.2,0.1,0.4,0,0.6c-0.1-0.1-0.1-0.3-0.2-0.4
			c0,0.2,0.1,0.4,0.1,0.5c-0.1-0.1-0.1-0.3-0.2-0.3c0,0.1,0.1,0.3,0.1,0.4c-0.1-0.1-0.1-0.1-0.2-0.2c0,0.1,0.1,0.2,0.1,0.2
			c-0.1,0-0.1-0.1-0.2-0.1c0,0.1,0.1,0.1,0.1,0.2c-0.1,0-0.1-0.1-0.1-0.1c0,0.1,0.1,0.1,0.1,0.2c0,0-0.1,0-0.1,0
			c0,0,0.1,0.1,0.1,0.1c0,0-0.1,0-0.1,0c0,0.1,0.1,0,0.1,0.1c0,0,0,0-0.1,0c0,0.1,0,0,0,0.1c-0.3,0.3-0.1,0.6-0.1,0.8
			c0-0.1-0.2-0.1-0.4-0.2c-0.1,0-0.1-0.2-0.2-0.2c0,0,0,0,0,0c0,0-0.1,0-0.1-0.1c0,0,0.1,0,0.1,0c-0.1,0-0.2-0.1-0.1-0.1
			c0.1,0,0.1,0,0.2,0c-0.1,0-0.2-0.1-0.2-0.2c0.1,0,0.2,0.1,0.2,0.1c-0.1-0.1-0.3-0.1-0.3-0.2c0.1,0,0.2,0.1,0.3,0.1
			c-0.1,0-0.2-0.2-0.3-0.2c0.1,0.1,0.2,0.2,0.3,0.3c-0.1-0.1-0.2-0.1-0.3-0.2c0.1,0.1,0.2,0.2,0.3,0.2c-0.1,0-0.1-0.1-0.2-0.1
			c0,0.1,0.2,0.1,0.2,0.2c0,0-0.1,0-0.2,0c0,0.1,0.1,0.1,0.2,0.1c-0.1,0-0.1,0-0.1,0c0,0,0.1,0,0.1,0.1c0,0-0.1,0-0.1,0
			c0,0,0.1,0,0.1,0c0,0,0,0,0,0.1c0,0,0.1,0,0.1,0c0,0,0,0,0,0c0.1,0.1,0.2,0.3,0.4,0.3c-0.1,0.1,0.1,0.1-1.1,0.6
			c0.1,0,0.5-0.1,0.7-0.2c0.1-0.1,0.3-0.1,0.4-0.1c0,0,0.1,0,0.1,0c0.2,0,0.5,0,0.7-0.1c-0.2,0-0.5,0.1-0.6-0.1
			c0.2-0.2,0.1-0.9,0.2-1c0.1-0.1,0.3-0.5,0.6-0.2c0.1,0.1,0.1,0.1-0.1,0.3c-0.1,0.2-0.2,0.3-0.2,0.7c0,0.1,0,0.2-0.1,0.2
			c0.5,0.1,0.7,0.1,1,0C13.7,38,13.8,38,13.9,38.1c-0.1,0-0.2,0-0.2,0c-0.1,0,0.1,0.1,0.1,0.1c0,0,0.3,0,0.4-0.1
			C14,38.1,13.9,38.1,13.9,38.1z"/>
		<path id="XMLID_409_" style="fill:#62BA46;" d="M12.4,35.4c-1.2,0-2.1,0.9-2.1,2.1c0,1.2,0.9,2.1,2.1,2.1c1.2,0,2.1-0.9,2.1-2.1
			C14.5,36.4,13.5,35.4,12.4,35.4 M12.4,35.5c1.1,0,2,0.9,2,2c0,1.1-0.9,2-2,2c-1.1,0-2-0.9-2-2C10.3,36.4,11.2,35.5,12.4,35.5"/>
	</g>
</g>
<g id="ticks">
</g>
</svg>
