<?xml version="1.0" encoding="utf-8"?>
<!-- Generator: Adobe Illustrator 19.0.0, SVG Export Plug-In . SVG Version: 6.00 Build 0)  -->
<svg version="1.1" id="Layer_1" xmlns="http://www.w3.org/2000/svg" xmlns:xlink="http://www.w3.org/1999/xlink" x="0px" y="0px"
	 viewBox="0 0 40 69.6" style="enable-background:new 0 0 40 69.6;" xml:space="preserve">
<path id="XMLID_818_" style="opacity:0.4;fill:#7A7A7A;" d="M33.6,62.4c0,0,0-19.4,0-30c0-10.6-4.4-14.6-4.4-14.6
	c1.2-6.5-2-8.5-2-8.5V7h0.6c0,0,0-2.5,0-3.4c0-0.9-1.2-0.8-1.2-0.8h-4.3h-0.4h-4.3c0,0-1.2-0.1-1.2,0.8c0,0.8,0,3.4,0,3.4h0.7v2.3h0
	c0,0-3.1,2-2,8.5c0,0-4.4,4-4.4,14.6c0,10.6,0,30,0,30s-0.4,6.4,4.3,6.4c1.3,0,2.4,0,3.2,0c2.4,0,3.5,0,3.5,0h0.5H26
	c0.9,0,2,0,3.2,0C34,68.8,33.6,62.4,33.6,62.4z"/>
<path id="XMLID_817_" style="fill:#F4F4F4;" d="M32.1,61.4c0,0,0-19.4,0-30c0-10.6-4.4-14.6-4.4-14.6c1.2-6.5-2-8.5-2-8.5V5.9h-10
	v2.4h0c0,0-3.1,2-2,8.5c0,0-4.4,4-4.4,14.6c0,10.6,0,30,0,30s-0.4,6.4,4.3,6.4c1.3,0,2.4,0,3.2,0c2.4,0,3.5,0,3.5,0H21h3.5
	c0.9,0,2,0,3.2,0C32.5,67.9,32.1,61.4,32.1,61.4z"/>
<path id="XMLID_816_" style="fill:#D6D6D6;" d="M25.2,1.9h-4.3h-0.4h-4.3c0,0-1.2-0.1-1.2,0.8c0,0.8,0,3.4,0,3.4h5.5h0.4h5.5
	c0,0,0-2.5,0-3.4C26.4,1.8,25.2,1.9,25.2,1.9z"/>
<path id="XMLID_815_" style="fill:#EAEAEA;" d="M32.1,61.4c0,0,0-19.4,0-30c0-10.6-4.4-14.6-4.4-14.6c1.2-6.5-2-8.5-2-8.5V5.9h-5
	v61.9H21h3.5c0.9,0,2,0,3.2,0C32.5,67.9,32.1,61.4,32.1,61.4z"/>
<path id="XMLID_814_" style="fill:#FFFFFF;" d="M13.1,28c-0.1,0-0.1,0-0.2,0c-0.7-0.1-1.2-0.7-1.1-1.4c0.6-4.3,2.6-7,2.7-7.1
	c0.4-0.5,1.2-0.6,1.8-0.2c0.5,0.4,0.6,1.2,0.2,1.8c0,0-1.7,2.2-2.2,5.8C14.3,27.5,13.7,28,13.1,28z"/>
<g id="ticks">
</g>
<g id="XMLID_768_">
	<circle id="XMLID_850_" style="fill:#483290;" cx="20.5" cy="39.2" r="6"/>
	<g id="XMLID_812_">
		<circle id="XMLID_849_" style="fill:#62BA47;" cx="15.8" cy="44.5" r="1.9"/>
		<g id="XMLID_813_">
			<path id="XMLID_848_" style="fill:#FFFFFF;" d="M14.9,44.2c0-0.1,0.2-0.1,0.3-0.1c0.1,0.1-0.1,0.2-0.1,0.3
				c-0.1,0.1-0.2,0.2-0.2,0.3c0,0.1,0.2,0.1,0.3,0.1c0.1,0,0.2,0.1,0.1,0.2c0,0.2-0.3,0.1-0.4,0c-0.1-0.1-0.2,0.1-0.2,0.2
				c0.2,0.2,0.6,0.1,0.7-0.2c0.1-0.1,0.1-0.3,0-0.3c-0.1-0.1-0.2-0.1-0.3-0.1c0,0,0,0,0,0c0,0,0.1-0.1,0.1-0.1
				c0.1,0,0.1-0.1,0.1-0.2c0.1-0.1,0.1-0.3,0-0.3c-0.2-0.2-0.5,0.1-0.6,0.3C14.7,44.4,14.9,44.3,14.9,44.2L14.9,44.2z"/>
			<g id="XMLID_844_">
				<path id="XMLID_847_" style="fill:#FFFFFF;" d="M16.6,44c-0.2,0.4-0.5,0.7-0.8,1.1c-0.1,0.2,0.1,0.2,0.2,0
					c0.3-0.4,0.6-0.7,0.8-1.1C16.9,43.8,16.6,43.9,16.6,44L16.6,44z"/>
				<path id="XMLID_846_" style="fill:#FFFFFF;" d="M16.2,43.9c-0.1,0-0.2,0.1-0.3,0.3c0,0.1,0.1,0.2,0.2,0.2
					C16.3,44.4,16.5,43.9,16.2,43.9c-0.1,0-0.2,0.1-0.1,0.1c0.1,0,0.1,0.1,0.1,0.1c0,0,0,0.1,0,0.1c0,0,0,0,0,0c0,0,0,0,0,0
					c-0.1,0-0.1-0.1-0.1-0.1c0,0,0-0.1,0-0.1c0,0,0,0,0,0c0,0,0,0,0,0C16.1,44.1,16.3,43.9,16.2,43.9z"/>
				<path id="XMLID_845_" style="fill:#FFFFFF;" d="M16.6,44.7c-0.1,0-0.2,0.1-0.3,0.3c0,0.1,0.1,0.2,0.2,0.2
					C16.7,45.2,16.9,44.7,16.6,44.7c-0.1,0-0.2,0.1-0.1,0.1c0.1,0,0.1,0.1,0.1,0.1c0,0,0,0.1,0,0.1c0,0,0,0,0,0c0,0,0,0,0,0
					c-0.1,0-0.1-0.1-0.1-0.1c0,0,0-0.1,0-0.1c0,0,0,0,0,0c0,0,0,0,0,0C16.5,44.9,16.7,44.7,16.6,44.7z"/>
			</g>
		</g>
	</g>
	<g id="XMLID_796_">
		<path id="XMLID_797_" style="fill:#FFFFFF;" d="M25.2,40c-0.1,0-0.1,0-0.2,0.1c0,0.1-0.1,0.1-0.1,0.2c0,0,0,0,0,0c0,0,0,0,0,0
			c0,0,0-0.2,0-0.2c0-0.2,0.1-0.4,0.2-0.5c0,0,0.1-0.1,0.1-0.1c0,0,0-0.1,0-0.1c-0.1,0-0.1,0-0.2,0.1c0,0-0.1,0.1-0.1,0.1
			c0,0.1-0.1,0.1-0.1,0.1c0,0-0.1,0-0.1,0.1c0,0,0,0,0,0c0.1-0.2,0.1-0.3,0.1-0.5c0,0,0-0.1,0-0.1c-0.1,0-0.2,0-0.2,0.1
			c-0.1,0.3-0.2,0.5-0.4,0.7c0,0,0,0,0,0c0,0,0-0.1,0-0.1c0-0.1,0-0.1,0-0.2c0,0,0-0.1,0-0.1c0-0.1,0.1-0.2,0.1-0.3c0,0,0-0.1,0-0.1
			c0-0.1,0-0.1-0.1-0.1c-0.1,0-0.1,0-0.1,0.1c0,0,0,0.1,0,0.1c0,0.1-0.1,0.2-0.1,0.3c0,0,0,0.1,0,0.1c0,0.1-0.1,0.2-0.1,0.2
			c0,0,0,0,0,0c0,0,0,0,0,0c-0.1-0.1,0-0.3,0-0.4c0,0,0-0.1,0-0.1c0,0,0,0,0-0.1c0,0,0,0,0,0c0-0.1,0.1-0.1,0.1-0.2
			c0,0,0-0.1-0.1-0.1c-0.1,0-0.1,0-0.2,0.1c-0.1,0.1-0.1,0.2-0.1,0.3c-0.1,0.1-0.1,0.3-0.2,0.4c0,0,0,0,0,0c0,0,0,0,0,0
			c0,0,0,0,0-0.1c0-0.1,0-0.1,0-0.2c0-0.2,0-0.4,0.1-0.6c0,0,0,0,0,0c0,0,0,0,0,0c0,0,0,0,0,0c-0.1,0-0.1,0-0.2,0
			c-0.1,0.1-0.2,0.3-0.2,0.5c0,0.1-0.1,0.2-0.1,0.3c0,0,0,0,0,0c0,0,0-0.1,0-0.1c0,0,0,0,0,0c0,0,0-0.1-0.1-0.1
			c-0.1,0-0.1,0.1-0.2,0.1c0,0,0,0,0,0c0,0,0,0,0,0c0,0-0.1-0.1-0.1-0.1c0-0.1,0-0.1,0-0.2c0,0,0-0.1,0-0.1c0-0.1,0-0.2,0.1-0.4
			c0,0,0-0.1,0-0.1c0-0.1-0.1-0.1-0.1,0c-0.1,0-0.1,0.1-0.1,0.1c0,0.1,0,0.1,0,0.2c0,0.1,0,0.1,0,0.2c0,0.1,0,0.1,0,0.2
			c0,0.1,0,0.2-0.1,0.2c0,0,0,0,0,0c0,0,0,0,0,0c-0.1-0.1-0.1-0.3-0.1-0.4c0-0.2,0.1-0.3,0.1-0.4c0,0,0,0,0-0.1c0,0-0.1,0-0.1,0
			c0,0-0.1,0-0.1,0c0,0,0,0,0,0s0,0,0,0c0,0,0,0-0.1,0c-0.1,0-0.2,0-0.3-0.1c0,0,0-0.1-0.1-0.1c-0.1-0.1-0.2,0-0.3,0
			c0-0.1,0-0.1,0-0.2c0-0.1-0.1,0-0.1,0c0,0-0.1,0.1-0.1,0.1c0,0-0.1,0-0.1,0c0,0-0.1,0-0.1,0.1c0,0,0,0,0,0s0,0,0,0c0,0,0,0,0,0
			c-0.1,0.1-0.2,0-0.3-0.1c0,0,0,0,0,0c0,0,0,0,0,0c0,0,0,0,0,0c0,0-0.1,0-0.1-0.1c0,0,0,0,0,0c0,0,0,0,0,0c0,0,0,0,0,0
			c0,0-0.1,0-0.1,0c-0.1,0-0.1,0.1-0.1,0.1c0,0.1-0.1,0.1-0.1,0.2c0,0,0,0,0,0.1c0,0.1-0.1,0.2-0.1,0.3c0-0.2,0-0.4-0.1-0.6
			c0-0.1-0.1,0-0.2,0c0,0-0.1,0-0.1,0c0,0,0,0,0,0c0,0,0,0,0,0c-0.3,0.1-0.3,0.4-0.3,0.6c0,0,0,0.1,0,0.1c0,0,0,0,0,0
			c0,0.1,0,0.2-0.1,0.2c-0.1,0.1-0.2-0.2-0.2-0.2c-0.1-0.2-0.1-0.5-0.1-0.7c0-0.1-0.1,0-0.1,0c-0.1,0-0.1,0.1-0.1,0.2
			c0,0.2,0,0.4,0.1,0.6c0,0.1,0,0.2,0,0.2c0,0,0,0,0,0c0,0,0,0,0,0c-0.1,0-0.2-0.3-0.2-0.4c0-0.2,0-0.3,0-0.5c0-0.1,0-0.1-0.1,0
			c-0.1,0-0.1,0.1-0.1,0.2c0,0.2,0,0.4,0,0.6c0,0,0,0.1,0,0.1c0,0,0,0-0.1,0c0,0,0,0-0.1,0.1c-0.1,0-0.2-0.3-0.2-0.3
			c-0.1-0.2-0.1-0.4-0.1-0.6c0-0.1-0.1,0-0.1,0c0,0-0.1,0.1-0.1,0.2c0,0.2,0.1,0.4,0.1,0.5c0,0.1,0,0.2,0,0.2c0,0,0,0,0,0
			c0,0,0,0,0,0c-0.1,0-0.2-0.2-0.2-0.3c0-0.1,0-0.1,0-0.2c0,0,0,0,0,0c0,0,0,0,0,0c0-0.1,0-0.1,0-0.2c0-0.1,0-0.1-0.1,0
			c-0.1,0-0.1,0.1-0.1,0.2c0,0.1,0,0.2,0,0.3c0,0.2,0,0.3,0,0.5c0,0,0,0,0,0.1c0,0,0,0,0,0c0,0,0,0,0,0l0,0c0,0,0,0,0,0s0,0,0,0
			c-0.1,0-0.1-0.1-0.2-0.2c-0.1-0.2-0.2-0.5-0.3-0.7c0-0.1-0.1-0.2-0.1-0.4c0-0.1,0-0.2,0-0.2c0-0.1-0.2,0-0.2,0.1
			c-0.1,0.4,0,0.8,0.1,1.1c0,0,0,0.1,0,0.1c-0.1,0-0.2,0-0.3,0c-0.1,0-0.2,0.2-0.1,0.2c0.1,0.1,0.3,0,0.4,0c0,0,0,0,0,0
			c0,0.1,0,0.2,0,0.3c0,0-0.1,0-0.1,0c-0.1,0-0.1-0.1-0.1-0.1c0-0.1-0.1,0-0.1,0c0,0-0.1,0.1-0.1,0.2c0,0.1,0.2,0.2,0.3,0.2
			c0.2-0.1,0.3-0.4,0.3-0.6c0,0,0-0.1,0-0.1c0,0,0,0,0-0.1c0.1,0.1,0.1,0.2,0.2,0.3c0.1,0.1,0.2,0.2,0.3,0c0.1-0.1,0.1-0.1,0.1-0.2
			c0.1,0.1,0.1,0.2,0.2,0.1c0.1,0,0.2-0.1,0.2-0.2c0,0,0.1,0.1,0.1,0.1c-0.1,0.1-0.1,0.3,0,0.4c0.1,0.1,0.2-0.1,0.2-0.2
			c-0.1-0.1,0-0.1,0-0.2c0,0,0,0,0,0c0.1,0,0.1-0.1,0.1-0.1c0,0,0,0,0,0c0,0.1,0.1,0.1,0.2,0.1c0.1,0,0.2-0.1,0.3-0.2c0,0,0,0,0,0.1
			c0.1,0.1,0.3,0,0.4-0.1c0,0,0,0,0,0c0.1,0.1,0.1,0.1,0.2,0.1c0,0,0.1,0,0.1,0c-0.1,0.2-0.1,0.4-0.2,0.5c0,0.2,0,0.3,0.2,0.3
			c0.1,0,0.2-0.1,0.3-0.2c0.1-0.2,0.1-0.4,0-0.6c0-0.1,0-0.2,0-0.3c0-0.1,0.1-0.1,0.1-0.2c0,0.2,0.1,0.4,0.3,0.4
			c0.1,0,0.2-0.1,0.3-0.2c0.1-0.1,0.1-0.3,0.1-0.4c0-0.1,0-0.1,0-0.2c0,0,0.1,0,0.1,0c0,0.1,0,0.2,0,0.3c0,0.2,0,0.4,0.1,0.5
			c0,0.1,0.1,0.1,0.2,0.1c0,0,0.1,0,0.1,0c0,0.2,0,0.4-0.1,0.7c0,0.1,0.1,0,0.1,0c0,0,0.1-0.1,0.1-0.1c0-0.2,0-0.4,0.1-0.5
			c0.1,0,0.2,0,0.2-0.1c0.2-0.1,0.2-0.4,0.2-0.6c0,0,0-0.1,0-0.1c0.1,0,0.1,0,0.2,0c0,0.1-0.1,0.3-0.1,0.4c0,0.1,0,0.4,0.2,0.4
			c0.1,0,0.2,0,0.3-0.1c0,0.1,0.1,0.2,0.2,0.1c0,0,0.1,0,0.1,0c0.1,0.1,0.2,0.1,0.3,0c0.1-0.1,0.1-0.1,0.2-0.2c0,0,0,0.1,0,0.1
			c0,0.1,0,0.2,0,0.2c0,0.1,0.2,0,0.2,0s0,0,0,0c0.1,0,0.1-0.1,0.1-0.1c0,0.1,0,0.2,0.1,0.2c0.1,0,0.2,0,0.3,0c0,0,0,0,0,0.1
			c0,0.1,0.2,0.1,0.2,0.1c0.1,0,0.2-0.2,0.3-0.3c0,0.1-0.1,0.2-0.1,0.3c0,0.1,0,0.1,0.1,0.1c0.1,0,0.1,0,0.1-0.1
			c0-0.1,0.1-0.2,0.2-0.2c0,0,0.1,0,0.1-0.1c0,0,0,0,0,0c-0.1,0.1-0.1,0.3-0.1,0.4c0,0.1,0.1,0.2,0.2,0.2C25,40.4,25.2,40.2,25.2,40
			C25.3,40,25.2,40,25.2,40z M17,39.9C17,39.9,17,39.9,17,39.9L17,39.9L17,39.9L17,39.9z M17,39.9L17,39.9C17,39.9,17,39.9,17,39.9
			C17,39.9,17,39.9,17,39.9z M17.5,39.8C17.5,39.8,17.5,39.8,17.5,39.8L17.5,39.8z M18.4,39.6C18.4,39.6,18.4,39.6,18.4,39.6
			L18.4,39.6z M19.1,39c0-0.1,0-0.2,0-0.3c0,0,0-0.1,0-0.1c0.2,0,0.2,0.3,0.2,0.4c0,0.1,0,0.2,0,0.3c0,0,0,0,0,0.1c0,0,0,0,0,0
			c0,0,0,0,0,0C19.2,39.5,19.1,39.1,19.1,39z M19.5,40.2C19.5,40.2,19.5,40.2,19.5,40.2C19.5,40.3,19.5,40.3,19.5,40.2
			C19.4,40.2,19.4,40.2,19.5,40.2c-0.1,0-0.1-0.1-0.1-0.2c0-0.1,0.1-0.2,0.1-0.3c0,0,0,0.1,0,0.1C19.5,40,19.5,40.1,19.5,40.2z
			 M20.2,39.3C20.2,39.3,20.2,39.3,20.2,39.3C20.2,39.3,20.1,39.4,20.2,39.3C20.1,39.4,20.1,39.4,20.2,39.3C20,39.4,20,39.1,20,39
			c0-0.1,0-0.2,0-0.3c0,0,0-0.1,0-0.1c0,0,0,0,0,0c0,0,0,0,0,0c0,0,0,0,0,0c0.1,0.1,0.1,0.2,0.1,0.3C20.2,39.1,20.2,39.2,20.2,39.3z
			 M20.8,39.3c0,0-0.1-0.1-0.1-0.1c0-0.1-0.1-0.2-0.1-0.4c0-0.1,0-0.2,0.1-0.3c0,0,0,0,0,0c0.1,0.1,0.1,0.2,0.1,0.3l0,0
			C20.9,39,20.9,39.2,20.8,39.3C20.9,39.4,20.9,39.4,20.8,39.3C20.9,39.4,20.9,39.4,20.8,39.3C20.9,39.4,20.8,39.4,20.8,39.3z
			 M21.2,39.4C21.2,39.4,21.2,39.4,21.2,39.4L21.2,39.4z M21.2,39.4C21.2,39.4,21.2,39.4,21.2,39.4C21.2,39.4,21.2,39.4,21.2,39.4
			c-0.1,0-0.1-0.1-0.1-0.1c0,0,0,0,0,0c0-0.2,0-0.3,0-0.5c0,0,0-0.1,0-0.1c0,0,0,0,0,0c0,0,0,0,0,0c0,0,0,0,0.1,0c0,0,0,0,0,0
			c0,0,0,0,0,0c0.1,0.1,0.1,0.2,0.1,0.3C21.3,39.1,21.3,39.3,21.2,39.4z M22,39.5C22,39.5,22,39.5,22,39.5L22,39.5z M23.6,39.8
			C23.6,39.8,23.6,39.8,23.6,39.8L23.6,39.8z"/>
	</g>
	<path id="XMLID_794_" style="fill-rule:evenodd;clip-rule:evenodd;fill:#483290;" d="M17.7,31.9c0,0.4-0.3,0.8-0.8,0.8
		c-0.4,0-0.8-0.3-0.8-0.8c0-0.4,0.3-0.8,0.8-0.8C17.4,31.2,17.7,31.5,17.7,31.9L17.7,31.9z"/>
	<path id="XMLID_793_" style="fill-rule:evenodd;clip-rule:evenodd;fill:#62BA47;" d="M17.7,34.5c0,0.5-0.4,1-1,1c-0.5,0-1-0.4-1-1
		c0-0.5,0.4-1,1-1C17.3,33.5,17.7,34,17.7,34.5L17.7,34.5z"/>
	<path id="XMLID_792_" style="fill-rule:evenodd;clip-rule:evenodd;fill:#62BA47;" d="M15.1,33c0,0.3-0.3,0.6-0.6,0.6
		c-0.3,0-0.6-0.3-0.6-0.6c0-0.3,0.3-0.6,0.6-0.6C14.8,32.4,15.1,32.7,15.1,33L15.1,33z"/>
	<g id="XMLID_777_">
		<circle id="XMLID_791_" style="fill:#62BA47;" cx="25.6" cy="33.8" r="3.3"/>
		<g id="XMLID_778_">
			<path id="XMLID_788_" style="fill:#FFFFFF;" d="M24.8,33.3c-0.3,0-0.3,0.4-0.4,0.6l0,0l0,0c0,0,0,0.1,0,0.1c0,0.1,0,0.2,0,0.3
				c0,0,0,0.1,0,0.1c-0.1,0-0.2-0.1-0.2-0.2c-0.1-0.2-0.1-0.3-0.1-0.5c0-0.2-0.1-0.4-0.1-0.6c0-0.1,0-0.2,0-0.2c0,0,0-0.1,0-0.1
				c0,0,0-0.1,0-0.1c0-0.1-0.2,0-0.2,0.1c-0.2,0.4-0.2,0.8-0.1,1.3c0,0.1,0,0.2,0,0.3c0,0.1,0,0.2-0.1,0.3c0,0-0.1,0-0.1,0
				c-0.1,0-0.1-0.1-0.1-0.1c0-0.1-0.1,0-0.1,0c0,0-0.1,0.1-0.1,0.2c0,0.1,0.2,0.3,0.3,0.2c0.2-0.1,0.4-0.4,0.4-0.6
				c0-0.1,0-0.2,0.1-0.3c0,0.2,0.1,0.3,0.2,0.5c0.1,0.1,0.2,0.2,0.3,0.2c0.1,0,0.2-0.1,0.2-0.3c0,0.1,0.1,0.2,0.2,0.2
				c0.1,0,0.3-0.2,0.3-0.3c0.1-0.1,0.1-0.3,0.1-0.4C25.2,33.7,25.1,33.3,24.8,33.3z M24.9,34.3C24.9,34.3,24.9,34.3,24.9,34.3
				c-0.1,0.1-0.1,0-0.1,0c0-0.1-0.1-0.2-0.1-0.3c0-0.1,0-0.2,0-0.3c0,0,0-0.1,0-0.1c0.1,0.1,0.2,0.3,0.2,0.4
				C24.9,34.1,24.9,34.2,24.9,34.3z"/>
			<path id="XMLID_785_" style="fill:#FFFFFF;" d="M28.1,33.7c-0.3-0.1-0.5,0.3-0.5,0.5c-0.1,0.2-0.1,0.6,0.1,0.7
				c0.1,0.1,0.3,0,0.3-0.1c0.1-0.1,0.1-0.2,0.2-0.4C28.3,34.2,28.4,33.8,28.1,33.7z M27.9,34.7C27.9,34.7,27.9,34.7,27.9,34.7
				c-0.1,0-0.1-0.1-0.1-0.1c0-0.1,0-0.2,0-0.3c0-0.1,0-0.2,0.1-0.3c0,0,0,0,0-0.1c0.1,0.1,0.1,0.3,0.1,0.5
				C28,34.5,28,34.6,27.9,34.7z"/>
			<path id="XMLID_779_" style="fill:#FFFFFF;" d="M27.3,33.8c0.1-0.1,0.1-0.2,0.2-0.2c0.1-0.2,0.2-0.4,0.2-0.6
				c0-0.2-0.3-0.2-0.4-0.1c-0.2,0.1-0.3,0.3-0.4,0.5c-0.1,0.3-0.1,0.5-0.1,0.8c0,0,0,0,0,0c-0.1,0.1-0.3,0.3-0.4,0.2
				c0,0-0.1-0.1-0.1-0.1c0.1-0.1,0.2-0.3,0.3-0.4c0.1-0.1,0.1-0.4,0-0.5c-0.1-0.1-0.3,0-0.4,0.1c-0.1,0.1-0.1,0.3-0.2,0.4
				c0,0.1,0,0.2,0,0.3c-0.1,0.1-0.2,0.1-0.3,0.1c-0.1,0-0.2-0.1-0.2-0.2c0-0.1,0-0.3,0-0.4c0,0,0-0.1,0-0.1c0,0,0,0,0,0
				c0.1,0,0.1,0.1,0.1,0.2c0,0.1,0.3-0.1,0.3-0.2c0-0.1-0.1-0.2-0.2-0.2c-0.1,0-0.2,0-0.3,0.1c-0.2,0.2-0.2,0.4-0.2,0.7
				c0,0.2,0,0.3,0.2,0.4c0.2,0.1,0.4,0,0.6-0.1c0,0.1,0.1,0.2,0.3,0.2c0.2,0,0.3-0.1,0.5-0.2c0,0.1,0,0.3,0.1,0.3
				c0.2,0.1,0.3,0,0.4-0.1c0.1-0.2,0.2-0.4,0.1-0.6C27.5,33.8,27.4,33.8,27.3,33.8z M26.3,33.7c0,0,0-0.1,0-0.1c0,0,0,0,0,0
				c0.1,0,0.1,0.1,0.1,0.2c0,0.1-0.1,0.2-0.2,0.3c0,0,0,0,0-0.1C26.2,33.9,26.3,33.8,26.3,33.7z M27.2,33.1c0,0,0-0.1,0.1-0.1
				c0,0,0,0,0,0c0.1,0.1,0,0.3-0.1,0.4c-0.1,0.1-0.1,0.2-0.2,0.3c0-0.1,0-0.2,0.1-0.3C27.1,33.3,27.2,33.2,27.2,33.1z M27.2,34.5
				C27.2,34.5,27.2,34.5,27.2,34.5C27.1,34.5,27.1,34.5,27.2,34.5c-0.1,0-0.1-0.2-0.1-0.2c0-0.1,0-0.1,0-0.2c0,0,0.1-0.1,0.1-0.1
				c0.1,0,0.1,0,0.1,0.1C27.3,34.2,27.2,34.3,27.2,34.5z"/>
		</g>
	</g>
	<g id="XMLID_770_">
		<path id="XMLID_774_" style="fill:#62BA46;" d="M13.3,36.7C13.2,36.7,13.2,36.7,13.3,36.7c-0.2-0.1-0.3,0-0.4,0
			c-0.3,0-0.4,0-0.7-0.1c0-0.3,0.2-0.5,0.2-0.7c0.1-0.2,0-0.4,0-0.7c0-0.1,0-0.3,0-0.4c-0.1,0.1-0.1,0.4-0.1,0.5
			c0-0.2,0-0.4-0.1-0.6c0,0.2,0,0.4,0,0.6c0-0.2-0.1-0.3-0.1-0.5c-0.1,0.2,0,0.4,0,0.5C12,35.2,12,35,11.9,34.9
			c0,0.2,0.1,0.3,0.1,0.5c-0.1-0.1-0.1-0.3-0.2-0.3c0,0.1,0.1,0.3,0.1,0.4c-0.1,0-0.1-0.1-0.2-0.2c0,0.1,0.1,0.1,0.1,0.2
			c-0.1,0-0.1-0.1-0.2-0.1c0,0.1,0.1,0.1,0.1,0.2c0,0-0.1-0.1-0.1-0.1c0,0.1,0.1,0.1,0.1,0.1c0,0-0.1,0-0.1,0c0,0,0.1,0,0,0.1
			c0,0,0,0-0.1,0c0,0,0,0,0,0.1c0,0,0,0,0,0c0,0,0,0,0,0.1c-0.2,0.3-0.1,0.5-0.1,0.8c0,0-0.2-0.1-0.4-0.2c-0.1,0-0.1-0.1-0.2-0.2
			c0,0,0,0,0,0c0,0-0.1,0-0.1-0.1c0,0,0.1,0,0.1,0c0,0-0.2,0-0.1-0.1c0.1,0,0.1,0,0.2,0c-0.1,0-0.2-0.1-0.2-0.1
			c0.1,0,0.2,0.1,0.2,0.1c-0.1-0.1-0.2-0.1-0.3-0.2c0.1,0,0.2,0.1,0.2,0.1c-0.1,0-0.2-0.2-0.3-0.2c0.1,0.1,0.2,0.2,0.3,0.3
			c-0.1-0.1-0.2-0.1-0.3-0.1c0,0.1,0.2,0.2,0.3,0.2c-0.1,0-0.1,0-0.2-0.1c0,0.1,0.2,0.1,0.2,0.1c0,0-0.1,0-0.2,0
			c0,0.1,0.1,0,0.2,0.1c-0.1,0-0.1,0-0.1,0c0,0,0.1,0,0.1,0.1c0,0-0.1,0-0.1,0c0,0,0.1,0,0.1,0c0,0,0,0,0,0c0,0,0.1,0,0.1,0
			c0,0,0,0,0,0c0.1,0.1,0.2,0.3,0.4,0.3c-0.1,0.1,0.1,0.1-1.1,0.5c0,0,0.5-0.1,0.6-0.2c0.1,0,0.3-0.1,0.4-0.1c0,0,0.1,0,0.1,0
			c0.2,0,0.5,0,0.7-0.1c-0.2,0-0.5,0.1-0.6,0c0.2-0.2,0-0.9,0.2-1c0.1-0.1,0.3-0.5,0.6-0.2c0,0.1,0,0.1,0,0.3
			c-0.1,0.2-0.2,0.3-0.2,0.6c0,0.1,0,0.2-0.1,0.2c0.5,0.1,0.6,0.1,0.9,0c0.1,0,0.2-0.1,0.2,0c0,0-0.1,0-0.2,0c-0.1,0,0.1,0,0.1,0
			c0,0,0.3,0,0.4-0.1C13.4,36.7,13.4,36.7,13.3,36.7z"/>
		<path id="XMLID_771_" style="fill:#62BA46;" d="M11.8,34.2c-1.1,0-2.1,0.9-2.1,2.1c0,1.1,0.9,2.1,2.1,2.1c1.1,0,2.1-0.9,2.1-2.1
			C13.9,35.1,13,34.2,11.8,34.2 M11.8,34.2c1.1,0,2,0.9,2,2c0,1.1-0.9,2-2,2c-1.1,0-2-0.9-2-2C9.8,35.1,10.7,34.2,11.8,34.2"/>
	</g>
</g>
</svg>
