<?xml version="1.0" encoding="utf-8"?>
<!-- Generator: Adobe Illustrator 19.0.0, SVG Export Plug-In . SVG Version: 6.00 Build 0)  -->
<svg version="1.1" id="Layer_1" xmlns="http://www.w3.org/2000/svg" xmlns:xlink="http://www.w3.org/1999/xlink" x="0px" y="0px"
	 viewBox="0 0 42 67.3" style="enable-background:new 0 0 42 67.3;" xml:space="preserve">
<path id="XMLID_292_" style="opacity:0.4;fill:#7A7A7A;" d="M41.6,59.5l-7.1-10.6c-0.9-1.4-0.3-2.6,1.4-2.6h2.6
	c1.7,0,2.3-1.2,1.4-2.6l-8.4-12.8c-0.9-1.4-0.3-2.6,1.4-2.6c1.7,0,2.2-1.1,1.1-2.4l-10-12.4c-0.2-0.2-0.4-0.4-0.5-0.7
	c1.3-3.6,2.7-8.6,1.2-10.8C24,1.3,23.2,1,22,1c-1.5,0.1-2.6,0.7-3.3,1.8c-1.5,2.6-0.1,7.6,1.2,10.9l-9.7,12.2
	c-1.1,1.3-0.5,2.4,1.2,2.4c1.7,0,2.3,1.2,1.4,2.6L4.3,43.7c-0.9,1.4-0.3,2.6,1.4,2.6h2.6c1.7,0,2.3,1.2,1.4,2.6L2.6,59.5
	c-0.9,1.4-0.3,2.6,1.4,2.6H18v2.2c0,1.6,1.3,3,3,3H23c1.6,0,3-1.3,3-3v-2.2h14.2C41.9,62.1,42.5,60.9,41.6,59.5z M19.3,2.9
	C19.8,2,20.7,1.6,22,1.5c0.1,0,0.1,0,0.2,0c0.9,0,1.5,0.3,1.9,0.9c1.3,1.9,0,6.5-1.2,9.8c-0.6-0.7-0.9-1.2-0.9-1.2v-0.1
	c0,0-0.7,1-1.5,2.1C19.2,9.9,17.9,5.3,19.3,2.9z"/>
<g id="XMLID_274_">
	<path id="XMLID_170_" style="fill:#984D22;" d="M19.5,16.3c-0.1,0-0.2-0.4-0.3-0.5c-0.2-0.4-4.8-10-2.5-14C17.4,0.7,18.5,0.1,20,0
		c1.2,0,2,0.3,2.6,1.1c2.3,3.5-2.6,14.2-2.8,14.7C19.7,15.9,19.6,16.3,19.5,16.3C19.5,16.3,19.5,16.3,19.5,16.3z M20.2,0.5
		c-0.1,0-0.1,0-0.2,0c-1.3,0.1-2.2,0.5-2.8,1.4c-1.9,3.2,1.3,10.5,2.2,12.7c1-2.3,4.4-10.4,2.6-13.2C21.7,0.8,21.1,0.5,20.2,0.5z"/>
	<g id="XMLID_173_">
		<path id="XMLID_174_" style="fill:#F1573B;" d="M24,63.3c0,1.6-1.3,3-3,3H19c-1.6,0-3-1.3-3-3V48.3c0-1.6,1.3-3,3-3H21
			c1.6,0,3,1.3,3,3V63.3z"/>
	</g>
	<g id="XMLID_175_">
		<g id="XMLID_176_">
			<path id="XMLID_177_" style="fill:#8BB040;" d="M18,12.5c1.1-1.3,1.9-2.7,1.9-2.7V58c0,1.7,0,3.1,0,3.1h-18
				c-1.7,0-2.3-1.2-1.4-2.6l7.1-10.6c0.9-1.4,0.3-2.6-1.4-2.6H3.7c-1.7,0-2.3-1.2-1.4-2.6l8.5-12.8c0.9-1.4,0.3-2.6-1.4-2.6
				c-1.7,0-2.2-1.1-1.2-2.4L18,12.5z"/>
		</g>
		<g id="XMLID_178_">
			<path id="XMLID_179_" style="fill:#B9D08C;" d="M21.9,12.5c-1.1-1.3-1.9-2.5-1.9-2.5v48c0,1.7-0.1,3.1-0.1,3.1h18.3
				c1.7,0,2.3-1.2,1.4-2.6l-7.1-10.6c-0.9-1.4-0.3-2.6,1.4-2.6h2.6c1.7,0,2.3-1.2,1.4-2.6l-8.4-12.8c-0.9-1.4-0.3-2.6,1.4-2.6
				c1.7,0,2.2-1.1,1.1-2.4L21.9,12.5z"/>
		</g>
	</g>
</g>
<g id="ticks">
</g>
</svg>
