<?xml version="1.0" encoding="utf-8"?>
<!-- Generator: Adobe Illustrator 19.0.0, SVG Export Plug-In . SVG Version: 6.00 Build 0)  -->
<svg version="1.1" id="Layer_1" xmlns="http://www.w3.org/2000/svg" xmlns:xlink="http://www.w3.org/1999/xlink" x="0px" y="0px"
	 viewBox="0 0 41.1 52.3" style="enable-background:new 0 0 41.1 52.3;" xml:space="preserve">
<path id="XMLID_304_" style="opacity:0.4;fill:#7A7A7A;" d="M31.1,38.5l10-9.8l-13.8-2l-5.5-11.2c1.3-3,4.1-10.6,2.3-13.5
	C23.4,1.3,22.6,1,21.4,1c-1.5,0.1-2.6,0.7-3.3,1.8c-2,3.3,0.9,10.5,2.1,13.1l-5.4,10.9L1,28.8l10,9.8L8.6,52.3L21,45.8l12.4,6.5l0,0
	l0,0L31.1,38.5z M18.7,2.9c0.5-0.9,1.4-1.4,2.8-1.4c0.1,0,0.1,0,0.2,0c0.9,0,1.5,0.3,1.9,0.9c1.6,2.5-0.9,9.3-2.2,12.3L21,14.2v0
	l0,0L20.6,15C19.5,12.4,16.9,5.9,18.7,2.9z"/>
<path id="XMLID_607_" style="fill:#984D22;" d="M19.9,16.3c-0.1,0-0.2-0.4-0.3-0.5c-0.2-0.4-4.8-10-2.5-14c0.6-1.1,1.7-1.8,3.3-1.8
	c1.2,0,2,0.3,2.6,1.1c2.3,3.5-2.6,14.2-2.8,14.7C20.1,15.9,20,16.3,19.9,16.3C19.9,16.3,19.9,16.3,19.9,16.3z M20.6,0.5
	c-0.1,0-0.1,0-0.2,0c-1.3,0.1-2.2,0.5-2.8,1.4c-1.9,3.2,1.3,10.5,2.2,12.7c1-2.3,4.4-10.4,2.6-13.2C22.1,0.8,21.4,0.5,20.6,0.5z"/>
<polygon id="XMLID_566_" style="fill:#FFD773;" points="20,13.2 26.2,25.8 40,27.8 30,37.5 32.4,51.3 20,44.8 7.6,51.3 10,37.5 
	0,27.8 13.8,25.8 "/>
<polygon id="XMLID_678_" style="fill:#F4C567;" points="40,27.8 26.2,25.8 20,13.2 20,44.8 32.4,51.3 30,37.5 "/>
<g id="ticks">
</g>
</svg>
