<?xml version="1.0" encoding="utf-8"?>
<!-- Generator: Adobe Illustrator 19.0.0, SVG Export Plug-In . SVG Version: 6.00 Build 0)  -->
<svg version="1.1" id="Layer_1" xmlns="http://www.w3.org/2000/svg" xmlns:xlink="http://www.w3.org/1999/xlink" x="0px" y="0px"
	 viewBox="0 0 40 69.6" style="enable-background:new 0 0 40 69.6;" xml:space="preserve">
<g id="ticks">
</g>
<path id="XMLID_53_" style="opacity:0.4;fill:#7A7A7A;" d="M33.6,62.4c0,0,0-19.4,0-30c0-10.6-4.4-14.6-4.4-14.6
	c1.2-6.5-2-8.5-2-8.5V7h0.6c0,0,0-2.5,0-3.4c0-0.9-1.2-0.8-1.2-0.8h-4.3h-0.4h-4.3c0,0-1.2-0.1-1.2,0.8c0,0.8,0,3.4,0,3.4h0.7v2.3h0
	c0,0-3.1,2-2,8.5c0,0-4.4,4-4.4,14.6c0,10.6,0,30,0,30s-0.4,6.4,4.3,6.4c1.3,0,2.4,0,3.2,0c2.4,0,3.5,0,3.5,0h0.5H26
	c0.9,0,2,0,3.2,0C34,68.8,33.6,62.4,33.6,62.4z"/>
<path id="XMLID_52_" style="fill:#F4F4F4;" d="M32.1,61.4c0,0,0-19.4,0-30c0-10.6-4.4-14.6-4.4-14.6c1.2-6.5-2-8.5-2-8.5V5.9h-10
	v2.4h0c0,0-3.1,2-2,8.5c0,0-4.4,4-4.4,14.6c0,10.6,0,30,0,30s-0.4,6.4,4.3,6.4c1.3,0,2.4,0,3.2,0c2.4,0,3.5,0,3.5,0H21h3.5
	c0.9,0,2,0,3.2,0C32.5,67.9,32.1,61.4,32.1,61.4z"/>
<path id="XMLID_51_" style="fill:#D6D6D6;" d="M25.2,1.9h-4.3h-0.4h-4.3c0,0-1.2-0.1-1.2,0.8c0,0.8,0,3.4,0,3.4h5.5h0.4h5.5
	c0,0,0-2.5,0-3.4C26.4,1.8,25.2,1.9,25.2,1.9z"/>
<path id="XMLID_50_" style="fill:#EAEAEA;" d="M32.1,61.4c0,0,0-19.4,0-30c0-10.6-4.4-14.6-4.4-14.6c1.2-6.5-2-8.5-2-8.5V5.9h-5
	v61.9H21h3.5c0.9,0,2,0,3.2,0C32.5,67.9,32.1,61.4,32.1,61.4z"/>
<path id="XMLID_49_" style="fill:#FFFFFF;" d="M13.1,28c-0.1,0-0.1,0-0.2,0c-0.7-0.1-1.2-0.7-1.1-1.4c0.6-4.3,2.6-7,2.7-7.1
	c0.4-0.5,1.2-0.6,1.8-0.2c0.5,0.4,0.6,1.2,0.2,1.8c0,0-1.7,2.2-2.2,5.8C14.3,27.5,13.7,28,13.1,28z"/>
<g id="XMLID_2_">
	<g id="XMLID_104_">
		<path id="XMLID_114_" style="fill-rule:evenodd;clip-rule:evenodd;fill:#62BA47;" d="M29.8,41.7c-0.2-0.5-0.6-0.4-0.7,0
			c-0.4,1,0.2,1.2,0.3,1.2c0,0-0.1-0.1-0.1-0.3c0,0-0.2-0.2-0.2-0.3l0-0.1l0,0.1c0,0.1,0.1,0.2,0.2,0.3c0,0,0-0.1,0-0.1
			c0,0-0.2-0.2-0.2-0.3c0,0,0,0,0,0c0,0,0-0.1,0-0.1l0,0.1c0,0.1,0.1,0.2,0.2,0.3l0,0c0,0,0-0.1,0.1-0.1c0,0-0.2-0.1-0.2-0.3l0,0
			l0,0l0,0.1c0,0.1,0.1,0.2,0.2,0.3c0-0.1,0-0.1,0-0.2l0,0c0,0-0.2-0.1-0.2-0.3c0,0,0,0,0,0c0,0,0,0,0,0l0,0.1
			c0,0.1,0.1,0.2,0.2,0.3c0-0.3-0.1-0.5-0.1-0.5l0-0.1c0,0,0,0,0,0c0,0,0,0.1,0.1,0.2c0.1-0.1,0.1-0.2,0.1-0.2l0,0l0,0
			c0,0.1-0.1,0.2-0.1,0.3c0,0.1,0,0.2,0,0.3C29.7,42,29.7,41.8,29.8,41.7L29.8,41.7L29.8,41.7c0,0.3-0.3,0.4-0.3,0.4c0,0,0,0,0,0
			l0,0c0,0,0,0,0,0.1c0.2,0,0.4-0.3,0.4-0.3l0,0c0,0,0,0.1,0,0.1c-0.2,0.2-0.4,0.3-0.4,0.3c0,0.1,0,0.1-0.1,0.2
			c0.1,0,0.3-0.1,0.4-0.2l0,0l0,0l0,0l0,0l0,0.1c-0.1,0-0.2,0.2-0.5,0.2c0,0.1,0,0.1,0,0.2c0,0,0,0,0.1,0c0.2,0,0.3-0.1,0.4-0.2
			l0.1-0.1l0,0.1c-0.2,0.2-0.3,0.3-0.4,0.3c0,0,0,0,0,0c0,0.1,0.1,0.1,0.1,0.1l0,0C29.9,42.5,29.9,42.1,29.8,41.7z"/>
		<path id="XMLID_113_" style="fill-rule:evenodd;clip-rule:evenodd;fill:#62BA47;" d="M31,42.6c0.3-0.3,0.1-0.5-0.2-0.6
			C30,41.9,30,42.5,30,42.5c0,0,0.1-0.1,0.2-0.1c0,0,0.1-0.2,0.2-0.2l0.1,0l0,0c0,0-0.1,0.1-0.2,0.2c0,0,0.1,0,0.1,0
			c0,0,0.1-0.2,0.2-0.2c0,0,0,0,0,0c0,0,0.1,0,0.1,0l-0.1,0.1c-0.1,0-0.1,0.1-0.2,0.2l0,0c0,0,0.1,0,0.1,0c0,0,0-0.2,0.2-0.3l0,0
			l0,0l-0.1,0c-0.1,0-0.2,0.1-0.2,0.2c0,0,0.1,0,0.1,0c0,0,0,0,0,0c0,0,0-0.1,0.2-0.2c0,0,0,0,0,0c0,0,0,0,0,0l-0.1,0
			c0,0-0.2,0.1-0.2,0.2c0.2-0.1,0.3-0.2,0.3-0.2l0,0c0,0,0,0,0,0c0,0-0.1,0.1-0.2,0.1c0.1,0,0.2,0,0.2,0l0,0l0,0c-0.1,0-0.2,0-0.2,0
			c-0.1,0-0.2,0.1-0.2,0.1C30.8,42.6,31,42.5,31,42.6L31,42.6L31,42.6c-0.2,0-0.4-0.1-0.4-0.2c0,0,0,0,0,0l0,0c0,0,0,0-0.1,0
			c0.1,0.2,0.3,0.3,0.3,0.3l0,0c0,0,0,0-0.1,0c-0.2-0.1-0.3-0.2-0.3-0.3c0,0-0.1,0-0.1,0c0,0,0.1,0.2,0.3,0.3l0,0l0,0l0,0l0,0
			l-0.1,0c-0.1,0-0.2-0.1-0.3-0.3c0,0-0.1,0-0.1,0c0,0,0,0,0,0c0,0.1,0.2,0.2,0.3,0.2l0.1,0l-0.1,0c-0.2-0.1-0.3-0.2-0.3-0.2
			c0,0,0,0,0,0c0,0-0.1,0.1-0.1,0.1l0,0C30.5,42.9,30.8,42.8,31,42.6z"/>
		<path id="XMLID_112_" style="fill-rule:evenodd;clip-rule:evenodd;fill:#62BA47;" d="M30.1,43c0.2-0.1,0.2-0.2,0-0.3
			c-0.4-0.2-0.5,0.1-0.5,0.1c0,0,0.1,0,0.1,0c0,0,0.1-0.1,0.1-0.1l0,0l0,0c0,0-0.1,0-0.1,0.1c0,0,0,0,0.1,0c0,0,0.1-0.1,0.1-0.1
			c0,0,0,0,0,0c0,0,0,0,0,0l-0.1,0c0,0-0.1,0-0.1,0.1l0,0c0,0,0,0,0.1,0c0,0,0.1-0.1,0.1-0.1l0,0l0,0l0,0c0,0-0.1,0-0.1,0.1
			c0,0,0,0,0.1,0v0c0,0,0-0.1,0.1-0.1c0,0,0,0,0,0c0,0,0,0,0,0l0,0c0,0-0.1,0-0.1,0.1c0.1,0,0.2,0,0.2,0l0,0c0,0,0,0,0,0
			c0,0,0,0-0.1,0c0,0,0.1,0,0.1,0l0,0l0,0c0,0-0.1,0-0.1,0c0,0-0.1,0-0.1,0C29.9,43,30,43,30.1,43L30.1,43L30.1,43
			c-0.1,0-0.2-0.1-0.2-0.2c0,0,0,0,0,0l0,0c0,0,0,0,0,0c0,0.1,0.1,0.2,0.1,0.2l0,0c0,0,0,0,0,0c-0.1-0.1-0.1-0.2-0.1-0.2
			c0,0,0,0-0.1,0c0,0,0,0.1,0.1,0.2l0,0l0,0l0,0l0,0l0,0c0,0-0.1-0.1-0.1-0.2c0,0,0,0-0.1,0c0,0,0,0,0,0c0,0.1,0.1,0.1,0.1,0.2l0,0
			l0,0c-0.1-0.1-0.1-0.2-0.1-0.2c0,0,0,0,0,0c0,0-0.1,0-0.1,0l0,0C29.7,43.1,29.9,43.1,30.1,43z"/>
		<path id="XMLID_111_" style="fill-rule:evenodd;clip-rule:evenodd;fill:#62BA47;" d="M29.7,43.7c0.4-0.2,0.3-0.5,0-0.6
			c-0.8-0.4-1,0.2-1,0.2c0,0,0.1-0.1,0.3-0.1c0,0,0.2-0.1,0.3-0.2l0.1,0l-0.1,0c-0.1,0-0.1,0-0.2,0.2c0,0,0.1,0,0.1,0
			c0,0,0.1-0.1,0.3-0.2c0,0,0,0,0,0s0.1,0,0.1,0l-0.1,0c-0.1,0-0.2,0-0.2,0.2l0,0c0,0,0.1,0,0.1,0.1c0,0,0.1-0.2,0.3-0.2l0,0l0,0
			l-0.1,0c-0.1,0-0.2,0-0.2,0.2c0,0,0.1,0,0.1,0v0c0,0,0.1-0.1,0.3-0.1c0,0,0,0,0,0c0,0,0,0,0,0l-0.1,0c-0.1,0-0.2,0.1-0.2,0.1
			c0.2,0,0.4,0,0.4,0l0,0c0,0,0,0,0,0c0,0-0.1,0-0.2,0.1c0.1,0.1,0.2,0.1,0.2,0.1l0,0l0,0c-0.1,0-0.2-0.1-0.2-0.1
			c-0.1,0-0.2,0-0.3,0C29.5,43.7,29.6,43.7,29.7,43.7L29.7,43.7L29.7,43.7c-0.3,0-0.3-0.3-0.4-0.3c0,0,0,0,0,0l0,0c0,0,0,0-0.1,0
			c0,0.2,0.2,0.4,0.2,0.4l0,0c0,0,0,0-0.1,0c-0.2-0.1-0.2-0.3-0.2-0.4c0,0-0.1,0-0.1-0.1c0,0.1,0,0.3,0.2,0.4l0,0l0,0l0,0l0,0
			l-0.1,0c0,0-0.2-0.2-0.2-0.4c0,0-0.1,0-0.1,0c0,0,0,0,0,0c0,0.2,0.1,0.3,0.2,0.3l0.1,0l-0.1,0c-0.2-0.1-0.2-0.3-0.2-0.4
			c0,0,0,0,0,0c-0.1,0-0.1,0.1-0.1,0.1l0,0C29.1,43.9,29.4,43.9,29.7,43.7z"/>
		<path id="XMLID_110_" style="fill-rule:evenodd;clip-rule:evenodd;fill:#62BA47;" d="M28.5,42.7c-0.2-0.4-0.5-0.3-0.7,0
			c-0.4,0.9,0.2,1.1,0.3,1.1c0,0-0.1-0.1-0.1-0.3c0,0-0.2-0.2-0.2-0.3l0-0.1l0,0.1c0,0.1,0.1,0.2,0.2,0.3c0,0,0-0.1,0-0.1
			c0,0-0.2-0.1-0.2-0.3c0,0,0,0,0,0c0,0,0-0.1,0-0.1l0,0.1c0,0.1,0.1,0.2,0.2,0.3l0,0c0,0,0-0.1,0.1-0.1c0,0-0.2-0.1-0.2-0.3l0,0
			l0,0l0,0.1c0,0.1,0.1,0.2,0.2,0.3c0,0,0-0.1,0-0.1h0c0,0-0.1-0.1-0.2-0.3c0,0,0,0,0,0c0,0,0,0,0,0l0,0.1c0,0.1,0.1,0.2,0.2,0.3
			c0-0.2-0.1-0.4-0.1-0.4l0,0c0,0,0,0,0,0c0,0,0,0.1,0.1,0.2c0.1-0.1,0.1-0.2,0.1-0.2l0,0l0,0c0,0.1-0.1,0.2-0.1,0.2
			c0,0.1,0,0.2,0,0.3C28.4,42.9,28.4,42.7,28.5,42.7L28.5,42.7L28.5,42.7c0,0.3-0.3,0.4-0.3,0.4c0,0,0,0,0,0l0,0c0,0,0,0,0,0.1
			c0.2,0,0.4-0.2,0.4-0.2l0,0c0,0,0,0,0,0.1c-0.1,0.2-0.4,0.2-0.4,0.2c0,0,0,0.1-0.1,0.1c0.1,0,0.3-0.1,0.4-0.2l0,0l0,0l0,0l0,0
			l0,0.1c0,0-0.2,0.2-0.4,0.2c0,0.1,0,0.1,0,0.2c0,0,0,0,0.1,0c0.2,0,0.3-0.1,0.3-0.2l0-0.1l0,0.1c-0.2,0.2-0.3,0.2-0.4,0.3
			c0,0,0,0,0,0c0,0.1,0.1,0.1,0.1,0.1h0C28.6,43.4,28.6,43,28.5,42.7z"/>
		<path id="XMLID_109_" style="fill-rule:evenodd;clip-rule:evenodd;fill:#62BA47;" d="M28.4,43.8c-0.1-0.3-0.3-0.2-0.4,0
			c-0.2,0.6,0.1,0.7,0.2,0.7c0,0-0.1-0.1-0.1-0.2c0,0-0.1-0.1-0.1-0.2l0,0l0,0c0,0,0,0.1,0.1,0.2c0,0,0,0,0-0.1c0,0-0.1-0.1-0.1-0.2
			c0,0,0,0,0,0c0,0,0-0.1,0-0.1l0,0.1c0,0,0,0.1,0.1,0.2l0,0c0,0,0-0.1,0-0.1c0,0-0.1-0.1-0.1-0.2l0,0l0,0l0,0c0,0,0,0.1,0.1,0.2
			c0,0,0-0.1,0-0.1c0,0,0,0,0,0c0,0-0.1,0-0.1-0.2c0,0,0,0,0,0c0,0,0,0,0,0l0,0.1c0,0,0,0.1,0.1,0.2c0-0.2,0-0.3,0-0.3l0,0
			c0,0,0,0,0,0c0,0,0,0.1,0,0.1c0,0,0-0.1,0-0.1l0,0l0,0c0,0.1,0,0.1,0,0.1c0,0.1,0,0.1,0,0.2C28.3,44,28.3,43.9,28.4,43.8
			L28.4,43.8L28.4,43.8c0,0.2-0.2,0.2-0.2,0.3c0,0,0,0,0,0l0,0c0,0,0,0,0,0c0.1,0,0.2-0.2,0.2-0.2l0,0c0,0,0,0,0,0.1
			c-0.1,0.1-0.2,0.1-0.2,0.2c0,0,0,0.1,0,0.1c0,0,0.2,0,0.3-0.1l0,0l0,0l0,0l0,0l0,0c0,0-0.1,0.1-0.3,0.1c0,0,0,0.1,0,0.1
			c0,0,0,0,0,0c0.1,0,0.2-0.1,0.2-0.1l0,0l0,0c-0.1,0.1-0.2,0.2-0.2,0.2c0,0,0,0,0,0c0,0,0,0.1,0,0.1h0C28.5,44.2,28.5,44,28.4,43.8
			z"/>
		<path id="XMLID_108_" style="fill-rule:evenodd;clip-rule:evenodd;fill:#62BA47;" d="M29.1,45c0.4-0.2,0.3-0.5,0-0.6
			c-0.9-0.4-1,0.2-1,0.2c0,0,0.1-0.1,0.3-0.1c0,0,0.2-0.1,0.3-0.2l0.1,0l-0.1,0c-0.1,0-0.2,0.1-0.2,0.2c0,0,0.1,0,0.1,0
			c0,0,0.1-0.1,0.3-0.2c0,0,0,0,0,0c0,0,0.1,0,0.1,0l-0.1,0c-0.1,0-0.2,0.1-0.2,0.2l0,0c0,0,0.1,0,0.1,0.1c0,0,0.1-0.2,0.3-0.2l0,0
			l0,0l-0.1,0c-0.1,0-0.2,0-0.3,0.2c0,0,0.1,0,0.1,0c0,0,0,0,0,0c0,0,0.1-0.1,0.3-0.2c0,0,0,0,0,0c0,0,0,0,0,0l-0.1,0
			c-0.1,0-0.2,0.1-0.2,0.1c0.2,0,0.4,0,0.4,0l0,0c0,0,0,0,0,0c0,0-0.1,0-0.2,0.1c0.1,0.1,0.2,0.1,0.2,0.1l0,0l0,0
			c-0.1,0-0.2-0.1-0.2-0.1c-0.1,0-0.2,0-0.3,0C28.8,45,29,45,29.1,45L29.1,45L29.1,45c-0.3,0-0.4-0.3-0.4-0.3c0,0,0,0,0,0l0,0
			c0,0,0,0-0.1,0c0,0.2,0.2,0.4,0.2,0.4l0,0c0,0,0,0-0.1,0c-0.2-0.1-0.2-0.4-0.2-0.4c0,0-0.1,0-0.1-0.1c0,0.1,0.1,0.3,0.2,0.4l0,0
			l0,0l0,0l0,0l-0.1,0c0,0-0.2-0.2-0.2-0.4c0,0-0.1,0-0.1,0c0,0,0,0,0,0c0,0.2,0.1,0.3,0.2,0.3l0.1,0l-0.1,0
			c-0.2-0.2-0.2-0.3-0.2-0.4c0,0,0,0,0,0c-0.1,0-0.1,0.1-0.1,0.1l0,0C28.4,45.2,28.7,45.2,29.1,45z"/>
		<path id="XMLID_107_" style="fill-rule:evenodd;clip-rule:evenodd;fill:#62BA47;" d="M28.8,45.7c0.4,0,0.4-0.3,0.1-0.5
			c-0.8-0.5-1-0.1-1-0.1c0,0,0.1,0,0.3,0c0,0,0.2-0.1,0.3-0.1l0.1,0l-0.1,0c-0.1,0-0.2,0-0.3,0.1c0,0,0.1,0,0.1,0
			c0,0,0.2-0.1,0.3-0.1c0,0,0,0,0,0c0,0,0.1,0,0.1,0l-0.1,0c-0.1,0-0.2,0-0.3,0.1l0,0c0,0,0.1,0,0.1,0.1c0,0,0.1-0.1,0.3-0.1l0,0
			l0,0l-0.1,0c-0.1,0-0.2,0-0.3,0.1c0,0,0.1,0,0.1,0.1c0,0,0,0,0,0c0,0,0.1-0.1,0.3-0.1c0,0,0,0,0,0c0,0,0,0,0,0l-0.1,0
			c-0.1,0-0.2,0-0.3,0.1c0.2,0.1,0.4,0.1,0.4,0.1l0,0c0,0,0,0,0,0c0,0-0.1,0-0.2,0c0.1,0.1,0.1,0.1,0.1,0.1l0,0l0,0
			c-0.1,0-0.2-0.1-0.2-0.1c-0.1,0-0.2,0-0.3-0.1C28.6,45.6,28.7,45.7,28.8,45.7L28.8,45.7L28.8,45.7c-0.2-0.1-0.3-0.3-0.3-0.3
			c0,0,0,0,0,0l0,0c0,0,0,0-0.1,0c0,0.2,0.1,0.4,0.1,0.4l0,0c0,0,0,0-0.1-0.1c-0.1-0.2-0.1-0.3-0.1-0.4c0,0-0.1-0.1-0.1-0.1
			c0,0,0,0.2,0.1,0.4l0,0l0,0l0,0l0,0l-0.1,0c0,0-0.1-0.2-0.1-0.4c0,0-0.1,0-0.1,0c0,0,0,0,0,0c0,0.1,0.1,0.3,0.1,0.3l0,0.1l-0.1,0
			C28,45.4,28,45.2,28,45.2c0,0,0,0,0,0c-0.1,0-0.1,0-0.1,0l0,0C28.1,45.7,28.5,45.8,28.8,45.7z"/>
		<path id="XMLID_106_" style="fill-rule:evenodd;clip-rule:evenodd;fill:#62BA47;" d="M26.9,43.1c-0.6-0.2-0.7,0.1-0.5,0.5
			c0.5,1.1,1.1,0.8,1.2,0.7c0,0-0.2,0-0.3-0.2c0,0-0.3,0-0.4-0.1L26.7,44l0.1,0c0.1,0,0.2,0.1,0.4,0.1c0,0-0.1-0.1-0.1-0.1
			c0,0-0.2,0-0.4-0.1c0,0,0,0,0,0c0,0-0.1-0.1-0.1-0.1l0.1,0.1c0.1,0.1,0.2,0.1,0.4,0.1l0,0c0,0,0-0.1-0.1-0.2c0,0-0.2,0-0.4-0.1
			l0,0l0,0l0.1,0c0.1,0,0.2,0.1,0.4,0.1c0,0-0.1-0.1-0.1-0.1c0,0,0,0,0,0c0,0-0.2,0-0.4-0.1c0,0,0,0,0,0c0,0,0,0,0,0l0.1,0.1
			c0.1,0,0.2,0.1,0.3,0.1c-0.2-0.2-0.4-0.3-0.4-0.3l-0.1,0c0,0,0,0,0.1,0c0,0,0.1,0,0.2,0.1c0-0.1-0.1-0.2-0.1-0.2l0,0l0.1,0
			c0.1,0.1,0.1,0.2,0.2,0.3c0.1,0.1,0.2,0.2,0.2,0.3c0.1-0.3-0.1-0.4-0.1-0.4L26.9,43.1l0.1,0.1c0.2,0.2,0.1,0.5,0.1,0.5
			c0,0,0,0,0,0l0,0c0,0,0,0.1,0,0.1c0.1-0.2,0.1-0.5,0.1-0.5l0,0c0,0,0,0,0.1,0.1c0.1,0.3-0.1,0.5-0.1,0.5c0,0.1,0.1,0.1,0.1,0.2
			c0-0.1,0.1-0.3,0.1-0.5l0,0l0,0l0,0l0-0.1l0,0.1c0,0.1,0,0.3-0.1,0.5c0,0.1,0.1,0.1,0.1,0.1c0,0,0,0,0,0c0.1-0.1,0.1-0.3,0.1-0.4
			l0-0.1l0,0.1c0.1,0.3,0,0.5-0.1,0.5c0,0,0,0,0,0c0.1,0,0.2,0.1,0.2,0.1l0,0C27.6,43.6,27.3,43.3,26.9,43.1z"/>
		<path id="XMLID_105_" style="fill-rule:evenodd;clip-rule:evenodd;fill:#62BA47;" d="M27.7,45.8c0.3,0.1,0.3,0,0.3-0.2
			c-0.2-0.6-0.5-0.4-0.5-0.4c0,0,0.1,0,0.1,0.1c0,0,0.1,0,0.2,0.1l0,0l0,0c0,0-0.1-0.1-0.2-0.1c0,0,0,0,0,0.1c0,0,0.1,0,0.2,0.1
			c0,0,0,0,0,0c0,0,0,0,0,0l-0.1,0c0,0-0.1-0.1-0.2-0.1l0,0c0,0,0,0.1,0,0.1c0,0,0.1,0,0.2,0.1l0,0l0,0l0,0c0,0-0.1-0.1-0.2-0.1
			c0,0,0,0.1,0,0.1l0,0c0,0,0.1,0,0.2,0.1c0,0,0,0,0,0c0,0,0,0,0,0l0,0c0,0-0.1-0.1-0.2-0.1c0.1,0.1,0.2,0.2,0.2,0.2l0,0
			c0,0,0,0,0,0c0,0-0.1,0-0.1-0.1c0,0.1,0,0.1,0,0.1l0,0l0,0c0,0-0.1-0.1-0.1-0.1c0,0-0.1-0.1-0.1-0.1
			C27.6,45.6,27.7,45.7,27.7,45.8L27.7,45.8L27.7,45.8c-0.1-0.1,0-0.3,0-0.3c0,0,0,0,0,0l0,0c0,0,0,0,0,0c-0.1,0.1-0.1,0.2-0.1,0.2
			l0,0c0,0,0,0,0-0.1c0-0.1,0.1-0.2,0.1-0.2c0,0,0-0.1,0-0.1c0,0-0.1,0.1-0.1,0.2l0,0l0,0l0,0l0,0l0,0c0,0,0-0.2,0.1-0.2
			c0,0,0-0.1-0.1-0.1c0,0,0,0,0,0c-0.1,0.1-0.1,0.2-0.1,0.2l0,0l0,0c0-0.2,0-0.2,0.1-0.2c0,0,0,0,0,0c0,0-0.1,0-0.1,0l0,0
			C27.4,45.5,27.5,45.7,27.7,45.8z"/>
	</g>
	<g id="XMLID_89_">
		<path id="XMLID_103_" style="fill:#62BA47;" d="M27.9,44.1c0,0,0-0.1,0-0.1c-0.8,0.8-1.2,1.6-1.2,1.6l0.1,0
			C26.8,45.6,27.2,44.9,27.9,44.1C27.9,44.1,27.9,44.1,27.9,44.1z"/>
		<path id="XMLID_102_" style="fill:#62BA47;" d="M30,42.6c0,0,0.1-0.1,0.1-0.1S30,42.5,30,42.6c-0.7,0.2-1.3,0.7-1.8,1.1
			c0,0,0,0,0.1,0.1C28.8,43.3,29.4,42.9,30,42.6C30.2,42.5,30,42.6,30,42.6z"/>
		<path id="XMLID_101_" style="fill-rule:evenodd;clip-rule:evenodd;fill:#DA1B51;" d="M28.3,45c-0.1,0.3-0.4,0.4-0.7,0.2
			c-0.3-0.1-0.4-0.4-0.2-0.7c0.1-0.3,0.4-0.4,0.7-0.2C28.3,44.4,28.4,44.7,28.3,45"/>
		<path id="XMLID_100_" style="fill-rule:evenodd;clip-rule:evenodd;fill:#F1788A;" d="M28.2,44.7c0,0-0.1,0-0.2,0
			c-0.1-0.1-0.1-0.2,0-0.2c0,0,0.1,0,0.2,0C28.2,44.5,28.3,44.6,28.2,44.7"/>
		<path id="XMLID_99_" style="fill-rule:evenodd;clip-rule:evenodd;fill:#DA1B51;" d="M27.5,44.9c0.2,0.2,0.1,0.5-0.1,0.6
			c-0.2,0.2-0.5,0.1-0.6-0.1c-0.2-0.2-0.1-0.5,0.1-0.6C27.1,44.7,27.4,44.7,27.5,44.9"/>
		<path id="XMLID_98_" style="fill-rule:evenodd;clip-rule:evenodd;fill:#F1788A;" d="M27.2,44.8c0,0.1,0,0.1-0.1,0.2
			c-0.1,0-0.2,0-0.2-0.1c0-0.1,0-0.1,0.1-0.2C27.1,44.8,27.2,44.8,27.2,44.8"/>
		<path id="XMLID_97_" style="fill-rule:evenodd;clip-rule:evenodd;fill:#DA1B51;" d="M27.2,44.1c0.1,0.1,0.1,0.4-0.1,0.5
			c-0.1,0.1-0.4,0.1-0.5-0.1c-0.1-0.1-0.1-0.4,0.1-0.5C26.9,44,27.1,44,27.2,44.1"/>
		<path id="XMLID_96_" style="fill-rule:evenodd;clip-rule:evenodd;fill:#F1788A;" d="M27,44.1c0,0,0,0.1-0.1,0.1
			c-0.1,0-0.1,0-0.1,0c0,0,0-0.1,0.1-0.1C26.9,44,26.9,44,27,44.1"/>
		<path id="XMLID_95_" style="fill-rule:evenodd;clip-rule:evenodd;fill:#DA1B51;" d="M27.8,43.5c0.1,0.1,0.1,0.4-0.1,0.5
			c-0.1,0.1-0.4,0.1-0.5-0.1c-0.1-0.1-0.1-0.4,0.1-0.5C27.5,43.3,27.7,43.3,27.8,43.5"/>
		<path id="XMLID_94_" style="fill-rule:evenodd;clip-rule:evenodd;fill:#F1788A;" d="M27.6,43.4c0,0,0,0.1-0.1,0.1
			c-0.1,0-0.1,0-0.1,0c0,0,0-0.1,0.1-0.1C27.6,43.4,27.6,43.4,27.6,43.4"/>
		<path id="XMLID_93_" style="fill-rule:evenodd;clip-rule:evenodd;fill:#DA1B51;" d="M28.6,42.4c0.2,0,0.3,0.2,0.3,0.4
			c0,0.2-0.2,0.3-0.4,0.3c-0.2,0-0.3-0.2-0.3-0.4C28.3,42.5,28.4,42.3,28.6,42.4"/>
		<path id="XMLID_92_" style="fill-rule:evenodd;clip-rule:evenodd;fill:#F1788A;" d="M28.4,42.5c0,0,0,0.1,0,0.1
			c0,0.1-0.1,0.1-0.1,0.1c0,0,0-0.1,0-0.1C28.4,42.5,28.4,42.4,28.4,42.5"/>
		<path id="XMLID_91_" style="fill-rule:evenodd;clip-rule:evenodd;fill:#DA1B51;" d="M28.9,44.4c-0.2,0.1-0.4,0.1-0.6-0.1
			c-0.1-0.2-0.1-0.4,0.1-0.6c0.2-0.1,0.4-0.1,0.6,0.1C29.1,44,29.1,44.3,28.9,44.4"/>
		<path id="XMLID_90_" style="fill-rule:evenodd;clip-rule:evenodd;fill:#F1788A;" d="M28.9,44.1c-0.1,0-0.1,0-0.1-0.1
			c0-0.1,0-0.1,0-0.2c0.1,0,0.1,0,0.1,0.1C29,44,29,44.1,28.9,44.1"/>
	</g>
	<circle id="XMLID_88_" style="fill:#DA1B51;" cx="20.8" cy="39.4" r="6.3"/>
	<circle id="XMLID_87_" style="fill:#62BA47;" cx="15.8" cy="45.1" r="2"/>
	<g id="XMLID_79_">
		<path id="XMLID_86_" style="fill:#FFFFFF;" d="M14.4,44.7c0.1-0.2,0.2-0.1,0.3,0c0.1,0.1,0,0.3-0.1,0.4c-0.1,0.1-0.2,0.2-0.3,0.2
			c-0.1,0-0.1,0.1-0.1,0.1c0,0,0,0.1,0,0.1c0.1,0.1,0.2,0,0.3,0.1c0.2,0,0.3,0,0.4-0.1c0.1,0,0.2-0.2,0-0.2c-0.1,0.1-0.2,0-0.4,0
			c-0.1,0-0.2,0-0.2,0c0,0,0,0.1,0,0.1c-0.1,0.1,0,0.1,0,0c0,0,0.1-0.1,0.1-0.1c0.1-0.1,0.1-0.1,0.2-0.2c0.1-0.1,0.2-0.3,0.2-0.5
			c-0.1-0.4-0.5-0.1-0.6,0.1C14.2,44.9,14.4,44.8,14.4,44.7L14.4,44.7z"/>
		<path id="XMLID_85_" style="fill:#FFFFFF;" d="M15.6,45.5c0.2,0.5,0.9,0.1,0.8-0.3C16.3,45,16,45,15.8,44.9
			c-0.1,0-0.1-0.1-0.1-0.2c0-0.1,0-0.1,0,0c0,0,0.1,0,0.1,0c0.1,0,0.3,0,0.4,0c0.1,0,0.2-0.1,0.1-0.2c-0.2-0.1-0.4-0.1-0.6,0
			c-0.2,0-0.2,0.2-0.2,0.4c0,0.2,0.2,0.2,0.3,0.3c0.1,0,0.2,0.1,0.2,0.2c0,0.2-0.2,0.2-0.3,0.1c-0.1,0-0.1-0.1-0.1-0.1
			C15.7,45.2,15.5,45.4,15.6,45.5L15.6,45.5z"/>
		<g id="XMLID_81_">
			<path id="XMLID_84_" style="fill:#FFFFFF;" d="M17.2,44.6c-0.2,0.3-0.5,0.7-0.7,1c-0.1,0.1,0.1,0.1,0.1,0c0.2-0.3,0.5-0.7,0.7-1
				C17.5,44.4,17.3,44.5,17.2,44.6L17.2,44.6z"/>
			<path id="XMLID_83_" style="fill:#FFFFFF;" d="M16.8,44.5c-0.1,0-0.2,0.1-0.2,0.2c0,0.1,0,0.2,0.2,0.2
				C17,44.9,17.1,44.5,16.8,44.5c-0.1,0-0.2,0.1-0.1,0.1c0.1,0,0.1,0.1,0.1,0.1c0,0,0,0,0,0.1c0,0,0,0,0,0c0,0,0,0,0,0
				c-0.1,0-0.1-0.1-0.1-0.1c0,0,0,0,0-0.1c0,0,0,0,0,0c0,0,0,0,0,0C16.8,44.6,16.9,44.5,16.8,44.5z"/>
			<path id="XMLID_82_" style="fill:#FFFFFF;" d="M17.2,45.2c-0.1,0-0.2,0.1-0.2,0.2c0,0.1,0,0.2,0.2,0.2
				C17.4,45.7,17.5,45.2,17.2,45.2c-0.1,0-0.2,0.1-0.1,0.1c0.1,0,0.1,0.1,0.1,0.1c0,0,0,0,0,0.1c0,0,0,0,0,0c0,0,0,0,0,0
				c-0.1,0-0.1-0.1-0.1-0.1c0,0,0,0,0-0.1c0,0,0,0,0,0c0,0,0,0,0,0C17.2,45.3,17.3,45.2,17.2,45.2z"/>
		</g>
		<path id="XMLID_80_" style="fill:#FFFFFF;" d="M15.3,45.9c0.1-0.1,0.1-0.2,0.2-0.3c0,0,0-0.1,0-0.1c0,0-0.1,0-0.2,0
			c0,0-0.1,0.1-0.1,0.1c0,0.1,0.1,0,0.1,0c0,0,0,0,0,0c0,0,0,0,0,0c0,0,0,0,0,0c0,0,0,0,0,0.1c0,0,0,0,0,0c0,0,0,0,0,0
			C15.2,45.8,15.2,45.8,15.3,45.9C15.2,45.8,15.2,45.8,15.3,45.9c-0.1-0.1-0.2,0-0.1,0C15.2,46,15.2,45.9,15.3,45.9L15.3,45.9z"/>
	</g>
	<g id="XMLID_40_">
		<g id="XMLID_41_">
			<g id="XMLID_42_">
				<path id="XMLID_44_" style="fill:#FFFFFF;" d="M25.8,40.7c-0.1,0-0.2,0-0.3,0.1c-0.1-0.1,0-0.4,0.1-0.6c0.1-0.5,0.1-0.8,0-1
					c-0.1-0.1-0.3-0.1-0.4,0c-0.1,0-0.1,0.1-0.2,0.1c0-0.1,0-0.2-0.1-0.3c-0.1-0.1-0.2-0.1-0.3-0.1c-0.1,0-0.1,0.1-0.2,0.1
					c0,0,0-0.1,0-0.1c0,0,0-0.1,0-0.1c0,0,0,0,0,0c0,0,0,0-0.1,0c-0.1,0-0.1,0-0.2,0.1c0,0-0.1,0.1-0.1,0.1c-0.1,0.1-0.2,0.1-0.3,0
					c-0.1-0.1-0.1-0.1-0.2-0.2c0,0-0.1-0.1-0.1-0.1c-0.1-0.1-0.3-0.1-0.5,0c0-0.1,0-0.2,0-0.3c0-0.1-0.2,0-0.2,0
					c-0.1,0-0.1,0.1-0.2,0.2c0,0-0.2,0.6-0.5,1c0-0.3,0-0.6,0.1-0.9c0-0.1,0-0.1-0.1-0.1c0,0-0.1,0-0.1,0c-0.1,0-0.2,0.1-0.2,0.2
					c-0.1,0.4-0.1,1.3-0.4,1.3c-0.3,0-0.1-1.1-0.1-1.5c0-0.1,0-0.1-0.1-0.1c0,0-0.1,0-0.1,0c-0.1,0-0.2,0.1-0.2,0.2
					c-0.1,0.3-0.1,0.6-0.2,0.9c-0.1,0.2-0.2,0.5-0.4,0.4c-0.2,0-0.2-0.2-0.2-0.4c0-0.2,0.1-0.3,0.2-0.4c0.1-0.2,0.2-0.3,0.2-0.4
					c0-0.2-0.1-0.4-0.3-0.4c-0.2,0-0.4,0.1-0.6,0.3c0,0-0.1,0.1-0.2,0.1c-0.2,0-0.3-0.1-0.3-0.1c-0.1,0-0.2-0.1-0.3-0.1
					c-0.5,0.2-0.5,0.7-0.5,1.1c0,0.3,0,0.5,0,0.6c-0.1,0-0.3-0.2-0.3-0.3c-0.1-0.2-0.2-0.5-0.2-0.8c0-0.4,0-0.8-0.1-1.2
					c0-0.1-0.2-0.1-0.2,0c-0.1,0.1-0.2,0.2-0.2,0.3c0,0.5,0.1,1,0.1,1.4c0,0.2,0,0.5-0.1,0.7c0,0.1-0.1,0.1-0.2,0.1
					c-0.2,0-0.2-0.2-0.3-0.4c-0.1-0.2-0.1-0.5-0.1-0.7c0-0.2,0-0.5,0-0.7c0-0.2,0-0.3-0.1-0.5c-0.1-0.2-0.5,0.1-0.6,0.3
					c-0.2,0.2-0.3,0.5-0.3,0.8c0,0.1,0.1,0.1,0.2,0.1c0.1-0.1,0.2-0.2,0.2-0.3c0-0.1,0-0.4,0.2-0.4c0,0,0,0,0,0l0,0c0,0,0,0,0,0
					c0,0,0,0.1,0,0.2c0.1,0.5,0.1,0.9,0.1,1.4c0.1,0.3,0.2,0.8,0.6,0.7c0.2-0.1,0.4-0.3,0.5-0.6c0,0,0,0,0,0
					c0.1,0.2,0.3,0.4,0.5,0.3c0.2,0,0.3-0.2,0.3-0.4c0.1,0.1,0.2,0.3,0.4,0.2c0.2,0,0.4-0.3,0.5-0.4c0.1-0.2,0.1-0.4,0.1-0.6
					c0-0.1,0-0.2,0-0.4c0.1,0,0.1,0,0.2,0c0.1-0.1,0.2-0.2,0.3-0.2c0,0,0.1,0,0.2,0c0.3,0.2-0.1,0.5-0.3,0.8c-0.1,0.2-0.2,0.5,0,0.7
					c0.3,0.3,0.8,0.1,1-0.2c0.1-0.1,0.1-0.1,0.1-0.2c0,0.2,0.1,0.5,0.4,0.5c0.2,0,0.3-0.1,0.4-0.2c-0.1,0.2-0.3,0.4-0.4,0.7
					C21.1,41,21,41.2,21,41.4c0,0.3,0.3,0.4,0.5,0.3c0.2-0.1,0.4-0.4,0.4-0.6c0.1-0.4,0.1-0.8,0.1-1.2c0.2-0.3,0.3-0.5,0.5-0.9
					c0,0.4,0,0.8-0.1,1.2c0,0.5-0.1,0.9-0.2,1.4c0,0.1,0.1,0.1,0.2,0.1c0.1,0,0.2-0.1,0.2-0.2c0.1-0.3,0.1-0.7,0.2-1
					c0.1,0,0.3,0,0.4-0.1c0.3-0.2,0.4-0.6,0.4-0.9c0,0,0-0.1,0-0.2c0.1,0,0.3,0,0.4,0c-0.1,0.4-0.1,0.9-0.2,1.3c0,0.2,0.4,0,0.4-0.1
					c0.1-0.4,0.2-0.8,0.4-1.1c0,0,0-0.1,0-0.1c0,0,0,0,0,0c0,0.2,0,0.5,0,0.7c0,0.1,0,0.2-0.1,0.3c0,0.1-0.1,0.3-0.1,0.4
					c0,0.2,0.4,0,0.4-0.1c0-0.1,0.1-0.2,0.1-0.4c0.1-0.3,0.2-0.6,0.4-0.8c0,0.1,0,0.3,0,0.4c0,0.2-0.1,0.4-0.1,0.6
					c0,0.1-0.1,0.3,0,0.4c0.1,0.3,0.6,0.1,0.7,0C25.8,40.8,25.9,40.7,25.8,40.7z M19,40c0,0,0,0.1,0,0.1c-0.1,0-0.1-0.1-0.2-0.2
					c-0.1-0.1-0.1-0.3-0.1-0.4c0-0.2,0-0.3,0-0.5c0,0,0-0.1,0-0.1c0,0,0.1,0,0.1,0.1c0.1,0.1,0.2,0.4,0.2,0.5
					C19.1,39.6,19.1,39.8,19,40z M21.6,40.7c0,0.2,0,0.4-0.1,0.5c0,0,0,0.1,0,0.1c0,0-0.1,0-0.1-0.1c-0.1-0.1,0-0.2,0-0.3
					c0.1-0.2,0.1-0.3,0.2-0.5C21.6,40.6,21.6,40.7,21.6,40.7z M23.1,40.1C23.1,40.1,23.1,40.1,23.1,40.1
					C23.1,40.1,23,40.1,23.1,40.1c-0.2,0-0.2-0.1-0.2-0.3c0-0.3,0-0.5,0.1-0.8c0,0,0,0,0,0c0-0.1,0-0.2,0.1-0.2c0,0,0,0,0,0
					c0,0,0,0,0,0c0,0,0.1,0,0.1,0.1c0.1,0.2,0.1,0.4,0.1,0.6C23.2,39.7,23.2,39.9,23.1,40.1z"/>
				<path id="XMLID_43_" style="fill:#FFFFFF;" d="M17,37.9c0.3-0.1,0.4-0.3,0.6-0.5c0-0.1,0.1-0.2,0.1-0.2c-0.1,0-0.2,0.1-0.3,0.1
					c-0.1,0.1-0.1,0.2-0.2,0.2c-0.1,0-0.2,0-0.3,0c-0.1-0.1-0.5,0.3-0.4,0.4C16.6,37.9,16.8,37.9,17,37.9z"/>
			</g>
		</g>
	</g>
	<path id="XMLID_39_" style="fill-rule:evenodd;clip-rule:evenodd;fill:#DA1B51;" d="M17.9,31.7c0,0.4-0.4,0.8-0.8,0.8
		c-0.4,0-0.8-0.4-0.8-0.8c0-0.4,0.4-0.8,0.8-0.8C17.5,30.9,17.9,31.2,17.9,31.7L17.9,31.7z"/>
	<path id="XMLID_38_" style="fill-rule:evenodd;clip-rule:evenodd;fill:#62BA47;" d="M17.9,34.4c0,0.6-0.5,1-1,1c-0.6,0-1-0.5-1-1
		c0-0.6,0.5-1,1-1C17.4,33.4,17.9,33.8,17.9,34.4L17.9,34.4z"/>
	<path id="XMLID_37_" style="fill-rule:evenodd;clip-rule:evenodd;fill:#62BA47;" d="M15.1,32.8c0,0.3-0.3,0.6-0.6,0.6
		c-0.3,0-0.6-0.3-0.6-0.6c0-0.3,0.3-0.6,0.6-0.6C14.8,32.2,15.1,32.5,15.1,32.8L15.1,32.8z"/>
	<g id="XMLID_23_">
		<circle id="XMLID_36_" style="fill:#62BA47;" cx="26.3" cy="33.7" r="3.5"/>
		<g id="XMLID_24_">
			<path id="XMLID_33_" style="fill:#FFFFFF;" d="M25.4,33.2c-0.3,0-0.4,0.4-0.4,0.6l0,0v0c0,0,0,0.1,0,0.1c0,0.1,0,0.2,0,0.3
				c0,0,0,0.1,0,0.1c-0.1,0-0.2-0.1-0.2-0.2c-0.1-0.2-0.1-0.4-0.2-0.6c0-0.2-0.1-0.4-0.1-0.6c0-0.1,0-0.2,0-0.3c0,0,0-0.1,0-0.1
				c0,0,0-0.1,0-0.1c0-0.2-0.2,0-0.2,0.1c-0.2,0.4-0.2,0.9-0.2,1.3c0,0.1,0,0.2,0,0.4c0,0.1,0,0.2-0.1,0.3c0,0-0.1,0-0.2,0
				c-0.1,0-0.1-0.1-0.1-0.2c0-0.1-0.1,0-0.1,0c-0.1,0.1-0.1,0.1-0.1,0.2c0,0.2,0.2,0.3,0.3,0.2c0.3-0.1,0.4-0.4,0.4-0.6
				c0-0.1,0-0.2,0.1-0.4c0,0.2,0.1,0.3,0.2,0.5c0.1,0.1,0.2,0.2,0.3,0.2c0.1,0,0.2-0.1,0.2-0.3c0.1,0.1,0.1,0.2,0.3,0.2
				c0.1,0,0.3-0.2,0.3-0.3c0.1-0.1,0.1-0.3,0.1-0.4C25.8,33.6,25.7,33.1,25.4,33.2z M25.5,34.2C25.5,34.2,25.5,34.2,25.5,34.2
				c-0.1,0.1-0.1,0-0.1,0c0-0.1-0.1-0.2-0.1-0.3c0-0.1,0-0.2,0-0.3c0,0,0-0.1,0-0.1c0.1,0.1,0.2,0.3,0.2,0.4
				C25.5,33.9,25.5,34.1,25.5,34.2z"/>
			<path id="XMLID_30_" style="fill:#FFFFFF;" d="M28.9,33.6c-0.3-0.1-0.5,0.3-0.5,0.5c-0.1,0.2-0.1,0.6,0.2,0.7
				c0.1,0.1,0.3,0,0.4-0.1c0.1-0.1,0.2-0.2,0.2-0.4C29.1,34.1,29.2,33.7,28.9,33.6z M28.7,34.6C28.7,34.6,28.7,34.6,28.7,34.6
				c-0.1,0-0.1-0.1-0.1-0.1c0-0.1,0-0.2,0-0.3c0-0.1,0.1-0.2,0.1-0.3c0,0,0,0,0-0.1c0.1,0.1,0.1,0.3,0.1,0.5
				C28.8,34.4,28.7,34.5,28.7,34.6z"/>
			<path id="XMLID_25_" style="fill:#FFFFFF;" d="M28,33.6c0.1-0.1,0.1-0.2,0.2-0.2c0.1-0.2,0.2-0.4,0.2-0.6c0-0.2-0.3-0.2-0.4-0.1
				c-0.2,0.1-0.3,0.3-0.4,0.5c-0.1,0.3-0.1,0.5-0.1,0.8c0,0,0,0,0,0c-0.1,0.1-0.3,0.4-0.5,0.3c0,0-0.1-0.1-0.1-0.1
				c0.1-0.1,0.2-0.3,0.3-0.4c0.1-0.1,0.2-0.4,0-0.5c-0.2-0.1-0.3,0-0.4,0.1c-0.1,0.1-0.1,0.3-0.2,0.4c0,0.1,0,0.2,0,0.4
				c-0.1,0.1-0.2,0.1-0.3,0.1c-0.1,0-0.2-0.2-0.2-0.2c0-0.1,0-0.3,0-0.4c0,0,0-0.1,0-0.1c0,0,0,0,0,0c0.1,0,0.1,0.1,0.1,0.2
				c0,0.1,0.3-0.1,0.3-0.2c0-0.1-0.1-0.2-0.2-0.3c-0.1-0.1-0.3,0-0.3,0.1c-0.2,0.2-0.2,0.5-0.2,0.7c0,0.2,0,0.4,0.2,0.4
				c0.2,0.1,0.4,0,0.6-0.1c0,0.1,0.1,0.2,0.3,0.2c0.2,0,0.4-0.1,0.5-0.3c0,0.1,0,0.3,0.1,0.4c0.2,0.1,0.4,0,0.5-0.2
				c0.1-0.2,0.2-0.4,0.1-0.7C28.2,33.7,28.1,33.6,28,33.6z M27,33.5c0,0,0-0.1,0-0.1c0,0,0,0,0,0c0.1,0,0.1,0.1,0.1,0.2
				c0,0.1-0.1,0.2-0.2,0.3c0,0,0,0,0-0.1C26.9,33.7,26.9,33.6,27,33.5z M28,32.9c0,0,0-0.1,0.1-0.1c0,0,0,0,0,0
				c0.1,0.1,0,0.3-0.1,0.5c-0.1,0.1-0.1,0.2-0.2,0.4c0-0.1,0-0.2,0.1-0.4C27.9,33.1,27.9,33,28,32.9z M27.9,34.4
				C27.9,34.4,27.9,34.4,27.9,34.4C27.9,34.4,27.9,34.4,27.9,34.4c-0.1,0-0.1-0.2-0.1-0.2c0-0.1,0-0.1,0-0.2c0,0,0.1-0.1,0.1-0.1
				c0.1,0,0.1,0,0.1,0.1C28,34.1,28,34.2,27.9,34.4z"/>
		</g>
	</g>
	<g id="XMLID_10_">
		<g id="XMLID_11_">
			<path id="XMLID_22_" style="fill:#FFFFFF;" d="M23.2,43.2c-0.1-0.2-0.3,0.1-0.3,0.2c0,0.2,0,0.4,0.1,0.5c0.1,0.1,0.3,0.1,0.4-0.1
				C23.4,43.6,23.2,43.4,23.2,43.2c0,0-0.1,0.1-0.1,0.1c0.1,0.1,0.3,0.7,0.5,0.3c0.1-0.1,0-0.2-0.1-0.1c0,0-0.2-0.1-0.2-0.1
				C23.3,43.4,23.2,43.3,23.2,43.2c0-0.1-0.1,0.1-0.1,0.1c0,0.1,0.1,0.2,0.1,0.3c0,0,0,0.1,0,0.1c0,0-0.1,0-0.1,0
				c-0.1,0-0.1-0.1-0.1-0.2c0,0,0-0.1,0-0.1c0,0,0,0,0-0.1c0-0.1,0.1,0,0.1,0C23.1,43.4,23.2,43.2,23.2,43.2L23.2,43.2z"/>
			<path id="XMLID_21_" style="fill:#FFFFFF;" d="M18.8,43.2c-0.3-0.1-0.5,0.1-0.5,0.3c-0.1,0.1-0.1,0.4,0.2,0.4
				C18.8,43.8,18.9,43.4,18.8,43.2c0-0.1,0-0.2,0-0.2c0,0,0-0.1,0-0.1c0,0,0,0,0-0.1c-0.1,0-0.1,0,0,0c0.1,0.1,0.2,0.2,0.4,0.2
				c0.1,0,0.2-0.1,0.1-0.1c-0.2,0-0.3-0.2-0.4-0.2c-0.2,0-0.2,0.1-0.2,0.3c0,0.1,0.1,0.2,0,0.4c0,0-0.1,0.4-0.2,0.4
				c-0.2-0.1,0.1-0.5,0.2-0.5C18.8,43.3,18.9,43.3,18.8,43.2L18.8,43.2z"/>
			<path id="XMLID_20_" style="fill:#FFFFFF;" d="M22.1,43.6c0.1,0.2,0.2,0.5,0.2,0.7c0,0.1,0.2-0.1,0.2-0.1c0-0.1,0-0.2,0-0.3
				c0-0.1,0-0.2,0.1-0.2c0-0.1,0.1-0.1,0.1-0.2c-0.3,0-0.3,0.4-0.3,0.5c0,0,0.1,0,0.1,0c0.2-0.1,0.2,0.3,0.4,0.2
				c0.2-0.1,0.3-0.3,0.3-0.5c0-0.1-0.1,0-0.1,0.1c0,0.1,0,0.2-0.1,0.3c0,0-0.1-0.1-0.1-0.2c-0.1-0.1-0.2-0.1-0.3,0c0,0,0.1,0,0.1,0
				c0-0.1-0.1-0.3,0.1-0.3c0.1,0,0.2-0.2,0.1-0.2c-0.4-0.1-0.3,0.7-0.3,0.8c0.1,0,0.1-0.1,0.2-0.1c-0.1-0.2-0.1-0.5-0.3-0.7
				C22.2,43.4,22.1,43.5,22.1,43.6L22.1,43.6z"/>
			<path id="XMLID_19_" style="fill:#FFFFFF;" d="M20.8,43.8c0,0.2,0,0.4,0,0.7c0,0.1,0.2,0,0.2-0.1c0-0.1,0-0.2,0.1-0.3
				c0.1-0.1,0.1-0.2,0.2-0.4c0-0.1-0.1,0-0.2,0.1c-0.1,0.2-0.1,0.4,0,0.6c0.1,0.2,0.4-0.1,0.5-0.1c0.1-0.1,0-0.1-0.1,0
				c0,0-0.1,0.2-0.2,0.1c0,0,0-0.1-0.1-0.2c0-0.1,0-0.3,0-0.4c0,0-0.1,0-0.2,0.1c0,0.1-0.1,0.2-0.2,0.3c-0.1,0.1-0.1,0.2-0.2,0.4
				c0.1,0,0.1-0.1,0.2-0.1c0-0.2,0-0.4,0-0.7C20.9,43.6,20.8,43.7,20.8,43.8L20.8,43.8z"/>
			<path id="XMLID_18_" style="fill:#FFFFFF;" d="M22.2,44.1C22.2,44.1,22.2,44.1,22.2,44.1C22.2,44.2,22.2,44.2,22.2,44.1
				c-0.1,0.1-0.2,0-0.2,0c-0.1-0.1-0.1-0.3-0.1-0.5c0-0.1-0.1,0.1-0.1,0.1c0,0.1,0,0.2,0,0.3c0,0.1,0,0.1,0,0.2c0,0.1,0,0.1-0.1,0.1
				c-0.2-0.1-0.1-0.4-0.1-0.5c0-0.1-0.1,0-0.1,0.1c0,0.1-0.1,0.7,0.3,0.6c0.4-0.1,0.2-0.6,0.2-0.8c0,0-0.1,0.1-0.1,0.1
				c0,0.2,0,0.5,0.2,0.6c0.2,0.1,0.3-0.2,0.3-0.3C22.4,43.9,22.3,44,22.2,44.1L22.2,44.1z"/>
			<path id="XMLID_17_" style="fill:#FFFFFF;" d="M19.6,43.7c0,0.1-0.3,0.6,0,0.7c0.4,0.1,0.5-0.5,0.5-0.7c0-0.1-0.2,0-0.2,0
				c0,0.1-0.1,0.3-0.1,0.4c0,0-0.1,0.1-0.1,0.1c-0.1-0.1,0-0.2,0-0.3c0-0.1,0.1-0.2,0.1-0.3C19.8,43.6,19.6,43.6,19.6,43.7
				L19.6,43.7z"/>
			<path id="XMLID_16_" style="fill:#FFFFFF;" d="M20,43.8c0,0.1-0.1,1.1-0.3,1.1c-0.4-0.1,0.5-0.6,0.6-0.6c0.1-0.1,0-0.1-0.1-0.1
				c-0.2,0.1-0.4,0.2-0.6,0.4c-0.1,0.1-0.4,0.4-0.1,0.4c0.2,0.1,0.4-0.1,0.4-0.2c0.2-0.3,0.1-0.7,0.2-1C20.2,43.6,20,43.7,20,43.8
				L20,43.8z"/>
			<path id="XMLID_15_" style="fill:#FFFFFF;" d="M20.7,43.9c0-0.1-0.2-0.2-0.3-0.1c-0.1,0.1-0.2,0.3-0.2,0.5c0,0.1,0.1,0.3,0.3,0.2
				c0.2,0,0.3-0.2,0.5-0.3c0.1-0.1-0.1-0.1-0.1,0c-0.1,0.1-0.3,0.3-0.4,0.1c0-0.1,0-0.2,0-0.2c0-0.1,0-0.1,0.1-0.2
				c0,0,0,0.1,0.1,0.1C20.6,44,20.7,43.9,20.7,43.9L20.7,43.9z"/>
			<path id="XMLID_14_" style="fill:#FFFFFF;" d="M18.7,43.3c0.1,0.2,0.3,0.2,0.5,0.2c0.1,0,0.1-0.1,0-0.1c-0.1,0-0.3,0-0.3-0.2
				C18.8,43.2,18.7,43.3,18.7,43.3L18.7,43.3z"/>
			<path id="XMLID_13_" style="fill:#FFFFFF;" d="M18.9,44c0,0.2,0.1,0.3,0.3,0.2c0.2,0,0.2-0.2,0.3-0.3c0-0.1,0-0.3,0-0.4
				c0,0-0.1,0-0.2,0c-0.1,0-0.2,0.1-0.2,0.2c0,0.1,0.2,0,0.2,0c0-0.1,0.1-0.1,0.1,0c0,0.1,0,0.1,0,0.2c0,0.1,0,0.1-0.1,0.2
				c0,0,0,0-0.1,0.1c0,0,0,0,0,0c-0.1,0-0.1-0.1,0-0.1C19.1,43.9,18.9,43.9,18.9,44L18.9,44z"/>
			<path id="XMLID_12_" style="fill:#FFFFFF;" d="M19.1,43.4c-0.1,0.4-0.2,0.8-0.5,1.1c0,0.1,0.2,0.1,0.2,0c0.2-0.4,0.3-0.7,0.4-1.1
				C19.3,43.3,19.1,43.3,19.1,43.4L19.1,43.4z"/>
		</g>
	</g>
	<g id="XMLID_5_">
		<path id="XMLID_9_" style="fill:#62BA46;" d="M13.2,36.8C13.1,36.7,13.1,36.7,13.2,36.8c-0.2-0.1-0.3,0-0.5,0
			c-0.3,0-0.4,0-0.8-0.1c0-0.3,0.2-0.5,0.3-0.7c0.1-0.2,0-0.5,0-0.7c0-0.1,0-0.3,0-0.5c-0.1,0.1-0.1,0.4-0.1,0.5
			c0-0.2,0-0.4-0.1-0.6c0,0.2,0,0.4,0,0.6c-0.1-0.2-0.1-0.4-0.1-0.5c-0.1,0.2,0.1,0.4,0,0.6c-0.1-0.1-0.1-0.3-0.2-0.5
			c0,0.2,0.1,0.4,0.1,0.5c-0.1-0.1-0.1-0.3-0.2-0.4c0,0.1,0.1,0.3,0.1,0.4c-0.1,0-0.1-0.1-0.2-0.2c0,0.1,0.1,0.2,0.1,0.2
			c-0.1,0-0.1-0.1-0.2-0.1c0,0.1,0.1,0.1,0.1,0.2c0,0-0.1-0.1-0.1-0.1c0,0.1,0.1,0.1,0.1,0.2c0,0-0.1,0-0.1,0c0,0,0.1,0,0,0.1
			c0,0,0,0-0.1,0c0,0,0.1,0,0,0.1c0,0,0,0,0,0c0,0,0,0,0,0.1c-0.3,0.3-0.1,0.6-0.1,0.9c0,0-0.2-0.1-0.4-0.2c-0.1,0-0.1-0.2-0.2-0.2
			c0,0,0,0,0,0c0,0-0.1,0-0.1-0.1c0,0,0.1,0,0.1,0c0,0-0.2-0.1-0.1-0.1c0.1,0,0.1,0,0.2,0c-0.1,0-0.2-0.1-0.2-0.2
			c0.1,0,0.2,0.1,0.2,0.1c-0.1-0.1-0.3-0.1-0.3-0.2c0.1,0,0.2,0.1,0.3,0.1c-0.1,0-0.2-0.2-0.4-0.2c0.1,0.1,0.2,0.2,0.3,0.3
			c-0.1-0.1-0.2-0.1-0.3-0.2c0,0.1,0.2,0.2,0.3,0.2c-0.1,0-0.1-0.1-0.2-0.1c0,0.1,0.2,0.1,0.2,0.2c0,0-0.1,0-0.2,0
			c0,0.1,0.1,0,0.2,0.1c-0.1,0-0.1,0-0.1,0c0,0,0.1,0,0.1,0.1c0,0-0.1,0-0.1,0c0,0,0.1,0,0.1,0c0,0,0,0,0,0c0,0,0.1,0,0.1,0
			c0,0,0,0,0,0c0.1,0.1,0.2,0.3,0.4,0.4C11,36.9,11.2,37,10,37.4c0,0,0.5-0.1,0.7-0.2c0.1-0.1,0.3-0.1,0.4-0.1c0,0,0.1,0,0.1,0
			c0.3,0,0.5,0,0.7-0.1c-0.2,0-0.5,0.1-0.6,0c0.2-0.3,0.1-0.9,0.2-1.1c0.1-0.1,0.3-0.6,0.6-0.2c0,0.1,0,0.1,0,0.3
			c-0.1,0.2-0.2,0.3-0.2,0.7c0,0.1,0,0.2-0.1,0.2c0.5,0.1,0.7,0.1,1,0c0.1,0,0.2-0.1,0.3,0c0,0-0.1,0-0.2,0c-0.1,0,0.1,0.1,0.1,0
			c0,0,0.3,0,0.5-0.1C13.3,36.8,13.3,36.8,13.2,36.8z"/>
		<path id="XMLID_6_" style="fill:#62BA46;" d="M11.6,34c-1.2,0-2.2,1-2.2,2.2c0,1.2,1,2.2,2.2,2.2c1.2,0,2.2-1,2.2-2.2
			C13.8,35,12.8,34,11.6,34 M11.6,34.1c1.2,0,2.1,0.9,2.1,2.1c0,1.2-0.9,2.1-2.1,2.1c-1.2,0-2.1-0.9-2.1-2.1
			C9.5,35.1,10.5,34.1,11.6,34.1"/>
	</g>
</g>
</svg>
