<?xml version="1.0" encoding="utf-8"?>
<!-- Generator: Adobe Illustrator 19.0.0, SVG Export Plug-In . SVG Version: 6.00 Build 0)  -->
<svg version="1.1" id="Layer_1" xmlns="http://www.w3.org/2000/svg" xmlns:xlink="http://www.w3.org/1999/xlink" x="0px" y="0px"
	 width="20px" height="22px" viewBox="-295 386 20 22" style="enable-background:new -295 386 20 22;" xml:space="preserve">
<path style="fill:#FFFFFF;" d="M-275.1,391.4c-0.1,0.1-0.2,0.1-0.3,0.1h-1.4v13.6c0,0.8-0.2,1.5-0.7,2.1c-0.4,0.6-1,0.9-1.6,0.9
	h-11.8c-0.6,0-1.2-0.3-1.6-0.8c-0.4-0.6-0.7-1.2-0.7-2v-13.6h-1.4c-0.1,0-0.2,0-0.3-0.1c-0.1-0.1-0.1-0.2-0.1-0.3v-0.9
	c0-0.1,0-0.2,0.1-0.3c0.1-0.1,0.2-0.1,0.3-0.1h4.4l1-2.4c0.1-0.4,0.4-0.7,0.8-0.9c0.4-0.2,0.7-0.4,1.1-0.4h4.5
	c0.4,0,0.8,0.1,1.1,0.4c0.4,0.2,0.6,0.5,0.8,0.9l1,2.4h4.4c0.1,0,0.2,0,0.3,0.1c0.1,0.1,0.1,0.2,0.1,0.3v0.9
	C-275,391.2-275,391.3-275.1,391.4z M-282.5,388c-0.1-0.1-0.1-0.1-0.2-0.2h-4.5c-0.1,0-0.2,0.1-0.2,0.2l-0.7,1.7h6.4L-282.5,388z
	 M-278.6,405.1v-13.6h-12.7v13.6c0,0.2,0,0.4,0.1,0.6c0.1,0.2,0.1,0.3,0.2,0.4c0.1,0.1,0.1,0.1,0.1,0.1h11.8c0,0,0.1,0,0.1-0.1
	c0.1-0.1,0.1-0.2,0.2-0.4C-278.7,405.5-278.6,405.3-278.6,405.1L-278.6,405.1z M-280.9,403.4h-0.9c-0.1,0-0.2,0-0.3-0.1
	c-0.1-0.1-0.1-0.2-0.1-0.3v-8.2c0-0.1,0-0.2,0.1-0.3c0.1-0.1,0.2-0.1,0.3-0.1h0.9c0.1,0,0.2,0,0.3,0.1s0.1,0.2,0.1,0.3v8.2
	c0,0.1,0,0.2-0.1,0.3S-280.8,403.4-280.9,403.4z M-284.5,403.4h-0.9c-0.1,0-0.2,0-0.3-0.1c-0.1-0.1-0.1-0.2-0.1-0.3v-8.2
	c0-0.1,0-0.2,0.1-0.3c0.1-0.1,0.2-0.1,0.3-0.1h0.9c0.1,0,0.2,0,0.3,0.1c0.1,0.1,0.1,0.2,0.1,0.3v8.2c0,0.1,0,0.2-0.1,0.3
	C-284.3,403.4-284.4,403.4-284.5,403.4z M-288.2,403.4h-0.9c-0.1,0-0.2,0-0.3-0.1c-0.1-0.1-0.1-0.2-0.1-0.3v-8.2
	c0-0.1,0-0.2,0.1-0.3c0.1-0.1,0.2-0.1,0.3-0.1h0.9c0.1,0,0.2,0,0.3,0.1c0.1,0.1,0.1,0.2,0.1,0.3v8.2c0,0.1,0,0.2-0.1,0.3
	C-287.9,403.4-288,403.4-288.2,403.4z"/>
</svg>
