<?xml version="1.0" encoding="utf-8"?>
<!-- Generator: Adobe Illustrator 19.0.0, SVG Export Plug-In . SVG Version: 6.00 Build 0)  -->
<svg version="1.1" id="Layer_1" xmlns="http://www.w3.org/2000/svg" xmlns:xlink="http://www.w3.org/1999/xlink" x="0px" y="0px"
	 viewBox="10 -80 380 380" style="enable-background:new 10 -80 380 380;" xml:space="preserve">
<path style="opacity:0.35;fill:#4F4F4F;enable-background:new    ;" d="M342.3,220.6c-6-4.5-12.8-8-19.5-11.4
	c4.8,0.4,9.6-0.1,13.8-1.8c15.4-6.2,0.6-23.3-7.4-29.1s-16.8-10.5-25.7-15.1c6.2,1.5,13.3,1.7,18.8-0.8c12.3-5.5,1.4-19.4-5.4-24.7
	c-12.9-10.2-29.4-16.1-43.4-24.8c-1.2-0.8-2.4-1.5-3.6-2.3c0-0.6-0.1-1.1-0.1-1.7c6.9,1.5,12.4,6.8,19.1,9.2c6.1,2.2,13.9,3,20,0.7
	c11.8-4.4,2.9-17.1-3.4-22.3c-11.1-9.1-25.7-14.3-38-21.8c-2.7-1.7-5.3-3.4-7.8-5.2c0.1-1.6,0.1-3.2-0.1-4.7
	c6.2,1.5,11.2,6.4,17.4,8.1c4.8,1.3,11.6,1.9,16.2-0.6c7.9-4.3,1.6-13.5-3.2-17.7c-9.1-8-21.6-12.3-31.9-18.6
	c-2.2-1.3-4.3-2.7-6.3-4.1c1.6-2.5,1.8-6.1,1.5-9.3c5.3,1.4,9.6,5.6,14.9,7c4.1,1.1,9.3,1.5,13.3-0.1c7.2-2.9,4-10.2-0.1-14.6
	c-7.3-7.8-19.1-11.6-28.2-17c-11.2-6.7-20.8-14.6-29-24.8c-4.9-6.2-11.4-12.4-20-10.7c-5.4,1-9.7,4.8-13.1,9
	c-6.4,7.7-14.1,14.4-22.2,20.4c-9.7,7.2-20.6,11.9-30.6,18.5c-4.8,3.2-14.7,12.3-7.8,18c3.2,2.6,8.6,2.4,12.3,1.8
	c6.7-1,11.7-6,18-7.7c-0.2,2.9-0.2,6.1,1.1,8.6c-10.3,7.2-21.5,12.7-32.3,19.4c-5.4,3.3-18,13.6-10.8,20.6c3.2,3.1,9.3,3.1,13.3,2.7
	c8.4-0.8,14.4-7.3,22.2-9c-0.1,1.1-0.1,2.3-0.1,3.5c-12.4,8.6-25.8,15.9-38.8,23.6c-6.5,3.8-24.4,18-13.1,25.8
	c5.1,3.6,13.7,2.9,19.4,1.5c8-1.9,14.4-8.5,22.4-10.2c0,0.2,0,0.4-0.1,0.7c-11.9,7.9-24.4,14.9-36.6,21.6
	c-7.2,3.9-30.8,20.2-17.9,30c5.6,4.3,15.1,3.5,21.5,2c0.2,0,0.3-0.1,0.5-0.1c-5.2,3-10.5,5.9-15.7,8.6c-7.5,4-15.1,8.7-20.3,15.7
	c-3.7,5.1-7.6,12.9-1.8,17.9c4.2,3.6,11,4.3,17,3.9c-2.2,1.2-4.3,2.3-6.5,3.5c-8.2,4.4-16.5,9.5-22.1,17.1
	c-4.1,5.6-8.4,14.2-1.9,19.6c6.7,5.6,18.4,4.8,26.3,3c12-2.7,21.4-12.8,33.4-14.7c-1.1,9.5-0.6,22.9,10.9,24.6
	c13.7,2,29.2-8.4,38.6-18.2c3.1,10.8,12.9,17.9,24.2,21c0.8,5.6,1.5,11.2,2.3,16.8c0.3,2.4,0.8,5,2.6,6.3c1.3,0.9,2.9,1,4.4,0.9
	c2.7,0,5.4-0.1,8.1-0.1c0.9,0,1.9-0.1,2.6-0.7c0.7-0.7,1-1.8,1.1-2.8c1.2-6.6,2.3-13.2,3.4-19.8c4.2-1,8-2.6,11.3-4.9
	c0.3,0,0.7-0.1,1-0.4c5.9-4.6,11.6-9.2,13.9-16.2c9.4,9.8,25,20.3,38.7,18.3c11.6-1.7,12-15.1,10.9-24.6
	c10.5,1.8,18.7,10.1,28.8,13.4c8.2,2.7,18.5,3.7,26.7,0.6C366.1,245.5,350.8,227.1,342.3,220.6z"/>
<g id="XMLID_211_">
	<path id="XMLID_41_" style="fill:#BD0E46;" d="M183.2,217.4c2.7,20.2,5.4,40.3,8.2,60.5c0.3,2.4,0.8,5,2.6,6.3
		c1.3,0.9,2.9,1,4.4,0.9c2.7,0,5.4-0.1,8.1-0.1c0.9,0,1.9-0.1,2.6-0.7c0.7-0.7,1-1.8,1.1-2.8c4-22.8,7.9-45.6,11.7-68.4"/>
</g>
<g id="XMLID_23_">
	<path id="XMLID_32_" style="fill:#0FB6BD;" d="M224.7,255.1c6.4-5,13.4-10.2,14.2-18.5c8.4,10,20,17,32.5,19.6
		c3.1,0.7,6.4,1,9.3-0.2c8.2-3.3,8.2-15.2,6.7-24.2c9.4,0.3,17.2,7.3,25.8,11.5s18.5,5.6,27.9,3.8c4.3-0.8,9.1-3.1,9.8-7.5
		c0.3-1.8-0.2-3.6-0.9-5.3c-5.4-14.2-20.3-21.4-33.5-28.2c-30.9-15.9-62.5-34.4-83.3-62.9c-33.3-45.5-61.3,0-61.3,0
		c-24.1,25.6-52.4,47-83.3,62.9c-13.2,6.8-28.1,13.9-33.5,28.2c-0.6,1.7-1.1,3.5-0.9,5.3c0.7,4.5,5.5,6.7,9.8,7.5
		c9.4,1.8,19.3,0.4,27.9-3.8c8.5-4.2,16.3-11.3,25.8-11.5c-1.5,9-1.5,20.9,6.7,24.2c2.9,1.2,6.2,0.8,9.3,0.2
		c12.5-2.6,24.1-9.6,32.5-19.6c0.9,8.3,6.7,15.8,14.2,18.5C180.4,255.1,205.8,269.9,224.7,255.1z"/>
	<path id="XMLID_33_" style="fill:#0FB6BD;" d="M225.9,256.4c6.7-5.2,13.2-10.5,14.7-19.3c-1,0.3-1.9,0.5-2.9,0.8
		c9.1,10.4,26,22.8,40.8,20.6c12.6-1.8,12-17.6,10.6-27.1c-0.6,0.7-1.1,1.5-1.7,2.2c11.5,1,20.1,10.2,30.8,13.7
		c8.2,2.7,18.5,3.7,26.7,0.6c16.7-6.4,1.4-24.8-7.1-31.3c-7.8-5.9-16.9-10-25.5-14.5c-9.8-5.2-19.5-10.5-28.9-16.5
		c-19.7-12.5-36.2-27.2-50.5-45.6c-8.8-11.3-21.8-21.6-36.9-17.9c-9.6,2.3-17.5,9.4-23.4,17c-9.8,12.8-22.9,23.7-35.5,33.6
		c-17.9,14.2-37.3,25.3-57.4,36c-8.2,4.4-16.5,9.5-22.1,17.1c-4.1,5.6-8.4,14.2-1.9,19.6c6.7,5.6,18.4,4.8,26.3,3
		c12.7-2.8,22.4-13.9,35.4-15c-0.6-0.7-1.1-1.5-1.7-2.2c-1.4,9.5-2,25.2,10.6,27.1c14.8,2.2,31.8-10.2,40.8-20.6
		c-1-0.3-1.9-0.5-2.9-0.8c3.8,25.4,42.8,32.8,61.1,19.6c1.8-1.3,0.1-4.3-1.8-3c-16.4,11.9-52.4,5.7-55.9-17.5
		c-0.2-1.3-2.1-1.7-2.9-0.8c-7.4,8.5-16.7,15-27.6,18.2c-7.2,2.1-15.5,2.5-17.9-6.2c-1.3-4.8-0.8-10.1-0.1-15c0.2-1-0.4-2.3-1.7-2.2
		c-7.9,0.7-14.1,4.6-20.8,8.5c-9.7,5.7-21,9.3-32.4,6.9c-14.9-3.3-5.3-17.4,1.9-23.7c6.3-5.5,14-9.3,21.4-13.2
		c16.8-8.7,32.8-18.7,47.8-30.2c13.1-10.1,27.5-21.3,37.9-34.3c4.2-5.3,8.1-10.4,13.9-14.2c11.8-7.8,24.7-5.6,35.1,3.7
		c7.1,6.3,12,14.6,18.3,21.6c6.1,6.8,12.9,13,20,18.6c13.9,11.1,29.2,20.2,44.9,28.6c8,4.3,16.3,8.1,24,12.8c4.3,2.6,8.5,5.5,12,9.2
		c3.6,3.7,11,12.8,5.8,18.1c-3.8,4-11.9,3.8-17,3.6c-6.5-0.4-12.6-2.2-18.3-5.2c-8.2-4.3-15.2-10-24.7-10.8
		c-1.2-0.1-1.8,1.2-1.7,2.2c0.7,4.9,1.2,10.1-0.1,15c-2.4,8.8-10.7,8.4-17.9,6.2c-10.9-3.2-20.2-9.7-27.6-18.2
		c-0.8-0.9-2.7-0.5-2.9,0.8c-1.4,8.2-7.6,13-13.8,17.8C221.7,255.3,224.2,257.7,225.9,256.4z"/>
</g>
<g id="XMLID_22_">
	<path id="XMLID_29_" style="fill:#60C8D2;" d="M222.6,210c5.8-4.6,12.1-9.3,12.9-16.8c7.6,9.1,18.2,15.4,29.5,17.8
		c2.8,0.6,5.8,0.9,8.5-0.2c7.4-3,7.4-13.8,6-22c8.6,0.3,15.6,6.7,23.4,10.5s16.8,5.1,25.3,3.4c3.9-0.7,8.3-2.8,8.9-6.8
		c0.2-1.6-0.2-3.3-0.8-4.8c-4.9-12.9-18.4-19.4-30.4-25.6c-28-14.5-56.7-31.2-75.6-57.1c-30.2-41.3-55.6,0-55.6,0
		c-21.8,23.4-47.5,42.8-75.5,57.2c-12,6.2-25.5,12.6-30.4,25.6c-0.6,1.5-1,3.2-0.8,4.8c0.6,4,5,6.1,8.9,6.8
		c8.5,1.6,17.5,0.4,25.3-3.4c7.8-3.8,14.8-10.2,23.4-10.5c-1.4,8.2-1.4,19,6,22c2.7,1.1,5.7,0.7,8.5,0.2
		c11.4-2.4,21.9-8.8,29.5-17.8c0.8,7.5,6,14.3,12.9,16.8C182.5,210,205.5,223.4,222.6,210z"/>
	<path id="XMLID_31_" style="fill:#60C8D2;" d="M223.9,211.2c6.1-4.8,12-9.6,13.4-17.6c-1,0.3-1.9,0.5-2.9,0.8
		c8.2,9.4,23.9,21,37.4,18.7c11.4-2,10.9-16,9.5-24.7c-0.6,0.7-1.1,1.5-1.7,2.2c10.3,0.9,17.8,8.9,27.3,12.2
		c7.6,2.6,17.5,3.7,25.2,0.6c15.4-6.2,0.6-23.3-7.4-29.1c-14.9-10.9-32.9-17.7-48.6-27.5c-18-11.4-32.8-24.8-46-41.5
		c-7.9-10.1-19.4-19.3-33-16.3c-8.8,1.9-16.2,8.4-21.6,15.4c-21.5,27.8-53.7,47-84.2,63.3c-7.5,4-15.1,8.7-20.3,15.7
		c-3.7,5.1-7.6,12.9-1.8,17.9c6.1,5.2,17.3,4.4,24.4,2.8c11.4-2.6,20.1-12.5,31.8-13.5c-0.6-0.7-1.1-1.5-1.7-2.2
		c-1.3,8.6-1.8,22.8,9.5,24.7c13.5,2.2,29.1-9.3,37.4-18.7c-1-0.3-1.9-0.5-2.9-0.8c3.7,23.1,38.9,29.9,55.6,17.9
		c1.8-1.3,0.1-4.3-1.8-3c-14.9,10.8-47.2,5.1-50.5-15.8c-0.2-1.3-2.1-1.7-2.9-0.8c-6.9,7.8-15.5,13.8-25.6,16.6
		c-6.4,1.8-13.2,2-15.4-5.6c-1.3-4.3-0.8-9.2-0.1-13.6c0.2-1-0.4-2.3-1.7-2.2c-7.1,0.6-12.5,3.9-18.5,7.5
		c-8.9,5.2-19.2,8.9-29.7,6.5c-13.5-3.1-3.6-16.9,2.9-22.2c6-4.9,13-8.2,19.8-11.7c14.8-7.7,28.9-16.7,42.2-26.8
		c11.9-9.1,24.6-19.2,34.1-30.9c3.7-4.5,6.9-8.9,11.7-12.3c11.2-7.9,23.4-5.6,33.2,3.6c5.7,5.4,9.9,12.2,15.1,18
		c5.5,6.2,11.7,11.9,18.1,17.1c12.3,9.9,25.8,18.1,39.6,25.6c7.4,4,15,7.6,22.3,11.8c3.8,2.2,7.5,4.6,10.7,7.6
		c1.2,1.1,2.3,2.2,3.3,3.4c3.2,3.9,4.7,6.4,3.2,11.4c-1.3,4.4-1.5,4.6-5.7,5.5c-3.6,0.8-7.4,0.7-11,0.4c-5.7-0.6-10.8-2.4-15.8-5.2
		c-7-3.9-13.1-8.4-21.4-9.2c-1.2-0.1-1.8,1.2-1.7,2.2c0.6,4.1,1.1,8.7,0.1,12.8c-1.9,7.9-8.7,8.3-15.7,6.4
		c-10.1-2.8-18.7-8.7-25.6-16.6c-0.8-0.9-2.7-0.5-2.9,0.8c-1.3,7.4-6.9,11.7-12.5,16.1C219.6,210.2,222.1,212.6,223.9,211.2z"/>
</g>
<g id="XMLID_161_">
	<g id="XMLID_21_">
		<path id="XMLID_27_" style="fill:#0FB6BD;" d="M220.3,164.2c5.2-4,10.7-8.2,11.4-14.9c6.7,8,16.1,13.7,26.1,15.8
			c2.5,0.5,5.1,0.8,7.5-0.1c6.6-2.7,6.5-12.2,5.3-19.5c7.6,0.2,13.8,5.9,20.7,9.3c6.9,3.4,14.9,4.5,22.4,3c3.4-0.7,7.3-2.5,7.9-6
			c0.2-1.4-0.2-2.9-0.7-4.2c-4.3-11.4-16.3-17.2-26.9-22.6c-24.8-12.8-50.2-27.6-66.9-50.6c-26.8-36.5-49.3,0-49.3,0
			c-19.4,20.6-42.1,37.7-66.9,50.6c-10.6,5.5-22.6,11.2-26.9,22.6c-0.5,1.3-0.9,2.8-0.7,4.2c0.5,3.6,4.5,5.4,7.9,6
			c7.5,1.4,15.5,0.3,22.4-3c6.9-3.4,13.1-9,20.7-9.3c-1.2,7.2-1.2,16.8,5.3,19.5c2.4,1,5,0.7,7.5,0.1c10.1-2.1,19.4-7.8,26.1-15.8
			c0.7,6.7,5.3,12.7,11.4,14.9C184.8,164.2,205.1,176.1,220.3,164.2z"/>
		<path id="XMLID_28_" style="fill:#0FB6BD;" d="M221.6,165.4c5.5-4.3,10.6-8.5,11.9-15.7c-1,0.3-1.9,0.5-2.9,0.8
			c7.4,8.3,21.3,18.7,33.3,16.6c10.2-1.7,9.8-14.3,8.6-22.1c-0.6,0.7-1.1,1.5-1.7,2.2c9.2,0.9,16,8.1,24.5,11
			c6.8,2.3,15.8,3.3,22.5,0.2c12.3-5.5,1.4-19.4-5.4-24.7c-12.9-10.2-29.4-16.1-43.4-24.8c-16.5-10.3-29.9-22.4-42-37.6
			c-7.2-9-17.5-17.3-29.7-14.3c-7.7,1.9-14.2,7.5-18.9,13.7c-19.2,25.1-48.3,41.6-75.5,56.5c-7.2,3.9-30.8,20.2-17.9,30
			c5.6,4.3,15.1,3.5,21.5,2c10-2.3,17.6-10.9,27.8-11.9c-0.6-0.7-1.1-1.5-1.7-2.2c-1.2,7.9-1.6,20.3,8.6,22.1
			c12,2.1,26-8.3,33.3-16.6c-1-0.3-1.9-0.5-2.9-0.8c3.4,20.6,34.5,26.7,49.5,15.9c1.8-1.3,0.1-4.3-1.8-3
			c-13.2,9.4-41.4,4.5-44.4-13.9c-0.2-1.3-2.1-1.7-2.9-0.8c-6,6.8-13.4,12-22.2,14.5c-5.4,1.6-11.6,1.9-13.8-4.5
			c-1.2-3.7-0.7-8.3-0.2-12.1c0.1-1-0.4-2.3-1.7-2.2c-5.3,0.5-9.7,2.6-14.2,5.3c-7.7,4.5-15.1,8.1-24.3,7.6
			c-6.3-0.4-11.6-4.3-8.5-11.8c1.5-3.6,5.8-7.1,8.8-9.3c5.2-3.9,11.1-6.6,16.9-9.6c13.1-6.9,25.6-14.9,37.3-24
			c10.2-7.9,21.1-16.6,29.2-26.6c3.2-4,6.1-7.9,10.3-10.9c10.1-7.1,21.1-4.7,29.7,3.7c5.1,4.9,8.9,11.1,13.7,16.4
			c4.6,5.1,9.7,9.7,15,14c10.9,8.7,22.8,16,35,22.6c6.3,3.4,12.8,6.5,19,10.1c5.7,3.2,26,16.6,12.9,24.6c-3.3,2-10.8,1.1-14.5,0.3
			c-4.3-0.9-8.2-2.6-12-4.8c-5.8-3.4-11-6.8-17.9-7.5c-1.2-0.1-1.8,1.2-1.7,2.2c0.5,3.6,1.1,7.8,0.1,11.3c-1.9,6.9-8.1,7-14,5.3
			c-8.8-2.5-16.2-7.7-22.2-14.5c-0.8-0.9-2.7-0.5-2.9,0.8c-1.2,6.5-6.1,10.3-11,14.1C217.3,164.4,219.8,166.8,221.6,165.4z"/>
	</g>
</g>
<g id="XMLID_17_">
	<path id="XMLID_25_" style="fill:#60C8D2;" d="M218.4,119.4c4.6-3.6,9.6-7.3,10.2-13.3c6,7.2,14.3,12.2,23.3,14.1
		c2.2,0.5,4.6,0.7,6.7-0.1c5.9-2.4,5.8-10.9,4.8-17.3c6.8,0.2,12.3,5.3,18.5,8.3s13.2,4,20,2.7c3.1-0.6,6.5-2.2,7-5.4
		c0.2-1.3-0.2-2.6-0.6-3.8c-3.9-10.2-14.5-15.3-24-20.2c-22.1-11.4-44.7-24.6-59.7-45.1c-23.8-32.6-43.9,0-43.9,0
		c-17.3,18.3-37.5,33.6-59.7,45.1c-9.4,4.9-20.1,10-24,20.2c-0.5,1.2-0.8,2.5-0.6,3.8c0.5,3.2,4,4.8,7,5.4c6.7,1.3,13.8,0.3,20-2.7
		c6.1-3,11.7-8.1,18.5-8.3c-1.1,6.4-1.1,15,4.8,17.3c2.1,0.9,4.5,0.6,6.7,0.1c9-1.9,17.3-6.9,23.3-14.1c0.6,5.9,4.8,11.3,10.2,13.3
		C186.7,119.4,204.9,130,218.4,119.4z"/>
	<path id="XMLID_26_" style="fill:#60C8D2;" d="M219.6,120.7c4.9-3.9,9.4-7.6,10.6-14c-1,0.3-1.9,0.5-2.9,0.8
		c6.6,7.5,18.7,16.4,29.5,14.9c9.5-1.4,9.2-12.8,8.2-20c-0.6,0.7-1.1,1.5-1.7,2.2c7.9,0.8,13.8,6.9,21.1,9.5c6.1,2.2,13.9,3,20,0.7
		c11.8-4.4,2.9-17.1-3.4-22.3c-11.1-9.1-25.7-14.3-38-21.8c-15.3-9.4-27.5-20.4-38.7-34.3c-6.1-7.7-14.9-14.8-25.4-12.9
		c-7.4,1.3-13.6,6.6-18.1,12.4c-18.2,23.5-44.9,37.1-69.9,51.9c-6.5,3.8-24.4,18-13.1,25.8c5.1,3.6,13.7,2.9,19.4,1.5
		c8.7-2.1,15.4-9.6,24.4-10.5c-0.6-0.7-1.1-1.5-1.7-2.2c-1.1,7.2-1.4,18.6,8.2,20c10.7,1.6,22.9-7.4,29.5-14.9
		c-1-0.3-1.9-0.5-2.9-0.8c3.2,18.5,30.8,23.9,44.4,14.3c1.8-1.3,0.1-4.3-1.8-3c-11.7,8.3-36.5,4.1-39.3-12.2
		c-0.2-1.3-2.1-1.7-2.9-0.8c-5,5.7-11.2,10.1-18.4,12.5c-4.6,1.5-11.4,1.9-13.2-3.4c-1.2-3.3-0.7-7.4-0.2-10.8
		c0.1-1-0.4-2.3-1.7-2.2c-12.4,1.2-20.6,12-33.9,11.5c-1.3,0-4.5,0-5.6-0.8c-1.3-1-2.9-7.7-2.5-8.9c0.7-2.8,4.5-5.9,6.6-7.6
		c4.7-3.8,10.1-6.4,15.5-9.2c21.6-11.3,44.7-26.6,60.3-45.7c2.9-3.6,5.4-7.1,9.3-9.7c9-6.3,18.7-4,26.3,3.5
		c4.2,4.2,7.4,9.3,11.4,13.7c4.5,5.1,9.6,9.7,15,14c9.4,7.5,19.7,13.7,30.2,19.4c6,3.2,12.2,6.1,18,9.6c4.9,2.9,21.4,14,10.6,21
		c-2.9,1.8-10,0.8-13,0.2c-3.9-0.8-7.4-2.4-10.7-4.4c-5.1-3-9.7-5.9-15.7-6.5c-1.2-0.1-1.8,1.2-1.7,2.2c0.5,3.2,0.9,6.9,0,10.1
		c-1.6,5.9-8.4,5.8-13.4,4.2c-7.3-2.4-13.4-6.8-18.4-12.5c-0.8-0.9-2.7-0.5-2.9,0.8c-1.1,5.8-5.4,9.1-9.8,12.5
		C215.4,119.6,217.9,122,219.6,120.7z"/>
</g>
<g id="XMLID_13_">
	<path id="XMLID_15_" style="fill:#0FB6BD;" d="M215.7,72.6c3.8-3,8-6.1,8.5-11c5,6,11.9,10.1,19.4,11.7c1.8,0.4,3.8,0.6,5.6-0.1
		c4.9-2,4.9-9.1,4-14.4c5.6,0.2,10.3,4.4,15.4,6.9s11,3.3,16.6,2.3c2.5-0.5,5.4-1.8,5.8-4.5c0.2-1.1-0.1-2.1-0.5-3.1
		c-3.2-8.5-12.1-12.7-20-16.8c-18.4-9.5-37.2-20.5-49.6-37.5c-19.8-27.1-36.5,0-36.5,0c-14.4,15.3-31.2,28-49.6,37.5
		c-7.9,4.1-16.7,8.3-20,16.8c-0.4,1-0.7,2.1-0.5,3.1c0.4,2.7,3.3,4,5.8,4.5c5.6,1.1,11.5,0.3,16.6-2.3c5.1-2.5,9.7-6.7,15.4-6.9
		c-0.9,5.4-0.9,12.5,4,14.4c1.8,0.7,3.7,0.5,5.6,0.1c7.5-1.6,14.4-5.7,19.4-11.7c0.5,4.9,4,9.4,8.5,11
		C189.4,72.6,204.5,81.4,215.7,72.6z"/>
	<path id="XMLID_24_" style="fill:#0FB6BD;" d="M217,73.8c4.2-3.3,7.8-6.4,8.9-11.8c-1,0.3-1.9,0.5-2.9,0.8
		c5.6,6.2,15.8,13.9,24.8,12.5c8.1-1.2,7.9-10.8,7-17c-0.6,0.7-1.1,1.5-1.7,2.2c7.2,0.8,12.6,6.6,19.4,8.5
		c4.8,1.3,11.6,1.9,16.2-0.6c7.9-4.3,1.6-13.5-3.2-17.7c-9.1-8-21.6-12.3-31.9-18.6c-13.1-8-23.4-17.4-33-29.2
		c-5.1-6.3-12.2-12-20.8-10.6c-6.3,1-11.6,5.4-15.4,10.3c-6.4,8.1-14.6,15-22.7,21.4c-11.5,8.9-24.3,14.9-36.6,22.5
		c-5.4,3.3-18,13.6-10.8,20.6c3.2,3.1,9.3,3.1,13.3,2.7c9.1-0.9,15.4-8.4,24.2-9.4c-0.6-0.7-1.1-1.5-1.7-2.2c-0.9,6.2-1.1,15.8,7,17
		c9.1,1.4,19.2-6.2,24.8-12.5c-1-0.3-1.9-0.5-2.9-0.8c2.8,15.6,25.8,20.1,37.4,12.1c1.8-1.3,0.1-4.3-1.8-3
		c-9.7,6.7-29.9,3.4-32.3-10c-0.2-1.3-2.1-1.7-2.9-0.8c-4,4.5-8.8,8.2-14.6,10.1c-3.4,1.2-8.9,2.9-11.2-2.2
		c-1.2-2.6-0.6-6.5-0.2-9.1c0.1-1-0.4-2.4-1.7-2.2c-3.6,0.4-6.6,1.6-9.7,3.3c-5.6,3.2-15,9.2-21.8,5.9c-2.8-1.4-4-5.5-2.6-8.4
		c1.2-2.6,4.5-5.1,6.7-6.6c3.7-2.6,7.9-4.6,12-6.7c17.7-9.3,36.4-22,49.2-37.6c8.3-10.1,18.9-15.9,29.8-4.4
		c7.2,7.6,12.9,15.7,21.2,22.3c7.7,6.2,16.2,11.3,24.9,16.1c4.6,2.5,9.3,4.8,13.9,7.3c3.7,2.1,11.9,6.4,12.6,11.3
		c0.3,2.5-1.7,5.9-3.5,6.8c-2,1-6.6,0.4-8.7,0c-3.7-0.7-7-2.3-10.3-4.2c-4.1-2.4-7.7-4.4-12.5-5c-1.3-0.1-1.8,1.2-1.7,2.2
		c0.3,2.2,1.2,7-0.2,9.1c-2.4,1.1-4.8,2.2-7.2,3.3c-1.4-0.3-2.7-0.7-4-1.1c-5.8-2-10.6-5.6-14.6-10.1c-0.9-1-2.6-0.5-2.9,0.8
		c-1,4.7-4.4,7.4-8,10.3C212.8,72.7,215.2,75.2,217,73.8z"/>
</g>
<g id="XMLID_14_">
	<path id="XMLID_37_" style="fill:#60C8D2;" d="M214.1,28.5c3.3-2.6,7-5.3,7.4-9.6c4.4,5.2,10.4,8.8,16.9,10.2
		c1.6,0.3,3.3,0.5,4.9-0.1c4.3-1.7,4.2-7.9,3.5-12.6c4.9,0.1,9,3.8,13.4,6c4.5,2.2,9.6,2.9,14.5,2c2.2-0.4,4.7-1.6,5.1-3.9
		c0.1-0.9-0.1-1.9-0.4-2.7c-2.8-7.4-10.6-11.1-17.4-14.6c-16.1-8.3-32.5-17.9-43.3-32.7c-17.3-23.7-31.9,0-31.9,0
		c-12.5,13.3-27.3,24.4-43.3,32.7c-6.9,3.5-14.6,7.2-17.4,14.6c-0.3,0.9-0.6,1.8-0.4,2.7c0.4,2.3,2.9,3.5,5.1,3.9
		c4.9,0.9,10,0.2,14.5-2c4.4-2.2,8.5-5.9,13.4-6c-0.8,4.7-0.8,10.9,3.5,12.6c1.5,0.6,3.2,0.4,4.9,0.1c6.5-1.4,12.6-5,16.9-10.2
		c0.5,4.3,3.5,8.2,7.4,9.6C191.1,28.5,204.2,36.2,214.1,28.5z"/>
	<path id="XMLID_44_" style="fill:#60C8D2;" d="M215.3,29.8c3.7-2.9,6.8-5.7,7.9-10.4c-1,0.3-1.9,0.5-2.9,0.8
		c4.8,5.3,15.5,13.6,23.5,10.6c5.8-2.2,5.4-9.7,4.7-14.7c-0.6,0.7-1.1,1.5-1.7,2.2c6.3,0.8,10.9,5.8,16.9,7.4
		c4.1,1.1,9.3,1.5,13.3-0.1c7.2-2.9,4-10.2-0.1-14.6c-7.3-7.8-19.1-11.6-28.2-17c-11.2-6.7-20.8-14.6-29-24.8
		c-4.9-6.2-11.4-12.4-20-10.7c-5.4,1-9.7,4.8-13.1,9c-6.4,7.7-14.1,14.4-22.2,20.4c-9.7,7.2-20.6,11.9-30.6,18.5
		c-4.8,3.2-14.7,12.3-7.8,18c3.2,2.6,8.6,2.4,12.3,1.8c7.4-1.1,12.7-7.1,20-8.1c-0.6-0.7-1.1-1.5-1.7-2.2c-0.7,5-1.2,12.5,4.7,14.7
		c8,3,18.6-5.2,23.5-10.6c-1-0.3-1.9-0.5-2.9-0.8c2.6,13.8,22.6,17.7,33,10.7c1.8-1.3,0.1-4.3-1.8-3c-8.4,5.7-25.6,3-27.8-8.6
		c-0.2-1.3-2.1-1.7-2.9-0.8c-3.1,3.4-7.3,7.3-11.9,8.5c-2.4,0.6-8.9,0.1-10.4-2.1c-0.9-1.2-0.2-6,0-7.2c0.1-1-0.4-2.4-1.7-2.2
		c-4.8,0.6-8.1,3-12.4,5.2c-4.2,2.2-23.1,6.7-16.9-4.7c2.9-5.2,10-8,15-10.6c4.9-2.6,9.7-5.3,14.3-8.3c9.4-6.2,18.1-13.3,26.1-21.2
		c3.6-3.6,6.4-8.3,10.9-11.1c11.3-7.1,18.9,4.5,25.5,12.2C228-15.8,236.8-9.3,246-3.8c9.1,5.5,22,9.4,28.9,17.6
		c3.6,4.2,1.3,9.1-4.5,9.1c-4.1,0-7.7-1.2-11.3-3.1c-4.3-2.2-7.6-4.6-12.4-5.2c-1.3-0.2-1.8,1.2-1.7,2.2c0.3,1.8,0.7,4.1,0.2,5.9
		c-1,3.2-7.5,4.2-10.6,3.4c-4.6-1.2-8.8-5.1-11.9-8.5c-0.9-0.9-2.6-0.5-2.9,0.8c-0.9,4.1-3.8,6.4-7,8.9
		C211.1,28.7,213.6,31.1,215.3,29.8z"/>
</g>
<path style="fill:#FFFFFF;" d="M170.9,59.8C170.9,59.8,170.9,59.8,170.9,59.8c-1.4,0-2.7-0.1-4.1-0.2c-0.6,0-1-0.5-0.9-1.1
	c0-0.6,0.5-1,1.1-0.9c1.3,0.1,2.7,0.1,4,0.2c0.6,0,1,0.5,1,1C171.9,59.3,171.4,59.8,170.9,59.8z M180.9,59.7c-0.5,0-1-0.4-1-1
	c0-0.6,0.4-1,1-1c1.3-0.1,2.7-0.1,4-0.2c0.6,0,1,0.4,1.1,0.9c0,0.6-0.4,1-0.9,1.1C183.6,59.6,182.3,59.6,180.9,59.7
	C180.9,59.7,180.9,59.7,180.9,59.7z M156.9,58.7c0,0-0.1,0-0.1,0c-1.3-0.2-2.6-0.3-4-0.5c-0.5-0.1-0.9-0.6-0.8-1.1
	c0.1-0.5,0.6-0.9,1.1-0.8c1.3,0.2,2.6,0.4,3.9,0.5c0.5,0.1,0.9,0.6,0.9,1.1C157.9,58.4,157.4,58.7,156.9,58.7z M194.8,58.4
	c-0.5,0-0.9-0.4-1-0.9c-0.1-0.5,0.3-1.1,0.8-1.1c1.3-0.2,2.6-0.4,3.9-0.6c0.5-0.1,1.1,0.3,1.2,0.8c0.1,0.5-0.3,1.1-0.8,1.2
	c-1.3,0.2-2.6,0.4-4,0.6C194.9,58.4,194.9,58.4,194.8,58.4z M208.5,55.6c-0.4,0-0.8-0.3-1-0.7c-0.1-0.5,0.2-1.1,0.7-1.2
	c1.3-0.3,2.6-0.7,3.8-1.1c0.5-0.2,1.1,0.1,1.2,0.7c0.2,0.5-0.1,1.1-0.7,1.2c-1.3,0.4-2.6,0.7-3.9,1.1
	C208.7,55.6,208.6,55.6,208.5,55.6z M221.8,51.2c-0.4,0-0.8-0.2-0.9-0.6c-0.2-0.5,0.1-1.1,0.6-1.3c1.2-0.5,2.5-1,3.7-1.5
	c0.5-0.2,1.1,0,1.3,0.5c0.2,0.5,0,1.1-0.5,1.3c-1.2,0.5-2.5,1.1-3.7,1.5C222.1,51.2,221.9,51.2,221.8,51.2z M234.5,45.3
	c-0.4,0-0.7-0.2-0.9-0.5c-0.3-0.5-0.1-1.1,0.4-1.4c1.2-0.6,2.3-1.3,3.4-2c0.5-0.3,1.1-0.1,1.4,0.3c0.3,0.5,0.1,1.1-0.3,1.4
	c-1.1,0.7-2.3,1.4-3.5,2C234.8,45.3,234.7,45.3,234.5,45.3z M246.2,37.7c-0.3,0-0.6-0.1-0.8-0.4c-0.3-0.4-0.3-1.1,0.2-1.4
	c2-1.5,3-2.5,3-2.5c0.4-0.4,1-0.4,1.4,0c0.4,0.4,0.4,1,0,1.4c0,0-1.1,1-3.1,2.7C246.7,37.6,246.4,37.7,246.2,37.7z"/>
<path style="fill:#FFFFFF;" d="M225.8,158.2c-0.5,0-1-0.4-1-1c0-0.6,0.4-1,1-1c1.3,0,2.6,0,4-0.1c0,0,0,0,0,0c0.5,0,1,0.4,1,1
	c0,0.6-0.4,1-1,1C228.5,158.2,227.2,158.2,225.8,158.2C225.8,158.2,225.8,158.2,225.8,158.2z M215.8,158.1
	C215.8,158.1,215.8,158.1,215.8,158.1c-1.4-0.1-2.7-0.1-4.1-0.2c-0.6,0-1-0.5-0.9-1.1c0-0.6,0.5-0.9,1.1-0.9c1.3,0.1,2.6,0.2,4,0.2
	c0.6,0,1,0.5,1,1C216.8,157.7,216.4,158.1,215.8,158.1z M239.8,157.6c-0.5,0-1-0.4-1-0.9c0-0.5,0.4-1,0.9-1.1c1.3-0.1,2.6-0.2,4-0.4
	c0.6,0,1,0.3,1.1,0.9s-0.3,1-0.9,1.1C242.5,157.4,241.2,157.5,239.8,157.6C239.8,157.6,239.8,157.6,239.8,157.6z M201.9,156.9
	c0,0-0.1,0-0.1,0c-1.3-0.2-2.7-0.4-4-0.6c-0.5-0.1-0.9-0.6-0.8-1.1c0.1-0.5,0.6-0.9,1.1-0.8c1.3,0.2,2.6,0.4,3.9,0.6
	c0.5,0.1,0.9,0.6,0.9,1.1C202.8,156.5,202.4,156.9,201.9,156.9z M253.7,156c-0.5,0-0.9-0.4-1-0.9c-0.1-0.5,0.3-1.1,0.8-1.1
	c1.3-0.2,2.6-0.4,3.9-0.6c0.5-0.1,1.1,0.3,1.1,0.8s-0.3,1.1-0.8,1.1c-1.3,0.2-2.7,0.4-4,0.6C253.8,156,253.7,156,253.7,156z
	 M188.1,154.5c-0.1,0-0.1,0-0.2,0c-1.3-0.3-2.6-0.6-3.9-0.9c-0.5-0.1-0.9-0.7-0.7-1.2s0.7-0.9,1.2-0.7c1.3,0.3,2.5,0.6,3.9,0.9
	c0.5,0.1,0.9,0.7,0.8,1.2C189,154.1,188.6,154.5,188.1,154.5z M267.5,153.6c-0.5,0-0.9-0.3-1-0.8c-0.1-0.5,0.2-1.1,0.8-1.2
	c1.3-0.3,2.6-0.5,3.9-0.8c0.5-0.1,1.1,0.2,1.2,0.8s-0.2,1.1-0.8,1.2c-1.3,0.3-2.6,0.6-3.9,0.8C267.6,153.6,267.6,153.6,267.5,153.6z
	 M174.6,150.7c-0.1,0-0.2,0-0.3-0.1c-1.3-0.4-2.6-0.9-3.8-1.3c-0.5-0.2-0.8-0.8-0.6-1.3c0.2-0.5,0.8-0.8,1.3-0.6
	c1.2,0.5,2.5,0.9,3.7,1.3c0.5,0.2,0.8,0.7,0.6,1.3C175.4,150.4,175.1,150.7,174.6,150.7z M281.1,150.4c-0.4,0-0.9-0.3-1-0.8
	c-0.1-0.5,0.2-1.1,0.7-1.2c1.3-0.3,2.6-0.7,3.9-1c0.5-0.1,1.1,0.2,1.2,0.7c0.1,0.5-0.2,1.1-0.7,1.2c-1.3,0.4-2.6,0.7-3.9,1
	C281.3,150.4,281.2,150.4,281.1,150.4z M161.6,145.5c-0.1,0-0.3,0-0.4-0.1c-1.2-0.6-2.4-1.2-3.6-1.8c-0.5-0.2-0.7-0.9-0.4-1.3
	c0.3-0.5,0.9-0.7,1.3-0.4c1.2,0.6,2.4,1.2,3.6,1.7c0.5,0.2,0.7,0.8,0.5,1.3C162.4,145.3,162,145.5,161.6,145.5z M149.3,138.8
	c-0.2,0-0.4,0-0.5-0.2c-1.2-0.7-2.3-1.5-3.4-2.2c-0.5-0.3-0.6-0.9-0.3-1.4c0.3-0.5,0.9-0.6,1.4-0.3c1.1,0.7,2.2,1.5,3.3,2.2
	c0.5,0.3,0.6,0.9,0.3,1.4C150,138.7,149.7,138.8,149.3,138.8z M138,130.7c-0.2,0-0.4-0.1-0.6-0.2c-1-0.9-2.1-1.7-3.1-2.6
	c-0.4-0.4-0.4-1-0.1-1.4c0.4-0.4,1-0.4,1.4-0.1c1,0.9,2,1.7,3,2.6c0.4,0.4,0.5,1,0.1,1.4C138.5,130.5,138.3,130.7,138,130.7z
	 M127.9,120.9c-0.3,0-0.6-0.1-0.8-0.3c-1.7-2-2.5-3.2-2.6-3.2c-0.3-0.5-0.2-1.1,0.3-1.4c0.5-0.3,1.1-0.2,1.4,0.3
	c0,0,0.8,1.2,2.4,3.1c0.4,0.4,0.3,1-0.1,1.4C128.4,120.9,128.1,120.9,127.9,120.9z"/>
<path style="fill:#FFFFFF;" d="M159.2,231.3l-1,0c-0.6,0-1-0.5-1-1c0-0.6,0.4-1,1-1c0,0,0,0,0,0l1,0c1,0,2,0,3,0c0,0,0,0,0,0
	c0.5,0,1,0.4,1,1c0,0.6-0.4,1-1,1C161.2,231.3,160.2,231.3,159.2,231.3z M148.2,231.1C148.2,231.1,148.1,231.1,148.2,231.1
	c-1.4-0.1-2.7-0.1-4.1-0.2c-0.6,0-1-0.5-0.9-1.1c0-0.6,0.5-1,1.1-0.9c1.3,0.1,2.7,0.1,4,0.2c0.6,0,1,0.5,1,1
	C149.1,230.6,148.7,231.1,148.2,231.1z M172.2,231c-0.5,0-1-0.4-1-1c0-0.6,0.4-1,0.9-1c1.3-0.1,2.7-0.1,4-0.2c0.5,0,1,0.4,1.1,0.9
	c0,0.6-0.4,1-0.9,1.1C174.9,230.8,173.5,230.9,172.2,231C172.2,231,172.2,231,172.2,231z M134.2,230.1
	C134.2,230.1,134.1,230.1,134.2,230.1c-1.4-0.1-2.7-0.3-4.1-0.4c-0.5-0.1-0.9-0.6-0.9-1.1c0.1-0.5,0.5-1,1.1-0.9
	c1.3,0.1,2.7,0.3,4,0.4c0.5,0.1,1,0.5,0.9,1.1C135.1,229.7,134.7,230.1,134.2,230.1z M186.1,229.9c-0.5,0-0.9-0.4-1-0.9
	c-0.1-0.5,0.3-1,0.9-1.1c1.3-0.1,2.6-0.3,4-0.4c0.5-0.1,1,0.3,1.1,0.9c0.1,0.5-0.3,1-0.9,1.1c-1.3,0.2-2.7,0.3-4,0.4
	C186.2,229.9,186.1,229.9,186.1,229.9z M120.3,228.5c0,0-0.1,0-0.1,0c-1.3-0.2-2.6-0.4-4-0.6c-0.5-0.1-0.9-0.6-0.8-1.1
	s0.6-0.9,1.1-0.8c1.3,0.2,2.6,0.4,3.9,0.6c0.5,0.1,0.9,0.6,0.9,1.1C121.2,228.1,120.8,228.5,120.3,228.5z M200,228
	c-0.5,0-0.9-0.3-1-0.8c-0.1-0.5,0.3-1.1,0.8-1.1c1.3-0.2,2.6-0.4,3.9-0.7c0.6-0.1,1.1,0.3,1.2,0.8c0.1,0.5-0.3,1.1-0.8,1.2
	c-1.3,0.2-2.6,0.5-4,0.7C200.1,228,200,228,200,228z M106.5,226.2c-0.1,0-0.1,0-0.2,0c-1.3-0.2-2.6-0.5-3.9-0.8
	c-0.5-0.1-0.9-0.6-0.8-1.2c0.1-0.5,0.6-0.9,1.2-0.8c1.3,0.3,2.6,0.5,3.9,0.8c0.5,0.1,0.9,0.6,0.8,1.2
	C107.4,225.9,107,226.2,106.5,226.2z M213.7,225.4c-0.5,0-0.9-0.3-1-0.8c-0.1-0.5,0.2-1.1,0.8-1.2c1.3-0.3,2.6-0.6,3.9-0.9
	c0.5-0.1,1.1,0.2,1.2,0.7c0.1,0.5-0.2,1.1-0.7,1.2c-1.3,0.3-2.6,0.6-3.9,0.9C213.9,225.4,213.8,225.4,213.7,225.4z M92.8,223.3
	c-0.1,0-0.2,0-0.2,0c-1.3-0.3-2.6-0.6-3.9-0.9c-0.5-0.1-0.9-0.7-0.7-1.2c0.1-0.5,0.7-0.9,1.2-0.7c1.3,0.3,2.6,0.6,3.9,0.9
	c0.5,0.1,0.9,0.7,0.7,1.2C93.7,223,93.2,223.3,92.8,223.3z M227.3,222c-0.4,0-0.8-0.3-1-0.7c-0.1-0.5,0.2-1.1,0.7-1.2
	c1.3-0.4,2.6-0.7,3.8-1.1c0.5-0.2,1.1,0.1,1.2,0.7c0.2,0.5-0.1,1.1-0.7,1.2c-1.3,0.4-2.6,0.8-3.9,1.1C227.5,222,227.4,222,227.3,222
	z M240.7,217.9c-0.4,0-0.8-0.3-0.9-0.7c-0.2-0.5,0.1-1.1,0.6-1.3c1.3-0.4,2.5-0.9,3.8-1.3c0.5-0.2,1.1,0.1,1.3,0.6
	c0.2,0.5-0.1,1.1-0.6,1.3c-1.2,0.5-2.5,0.9-3.8,1.3C240.9,217.9,240.8,217.9,240.7,217.9z M253.8,212.9c-0.4,0-0.8-0.2-0.9-0.6
	c-0.2-0.5,0-1.1,0.5-1.3c1.2-0.5,2.5-1,3.7-1.5c0.5-0.2,1.1,0,1.3,0.5c0.2,0.5,0,1.1-0.5,1.3c-1.2,0.5-2.5,1-3.7,1.6
	C254,212.9,253.9,212.9,253.8,212.9z M266.6,207.2c-0.4,0-0.7-0.2-0.9-0.6c-0.2-0.5,0-1.1,0.5-1.3c1.2-0.6,2.4-1.2,3.6-1.8
	c0.5-0.2,1.1,0,1.3,0.4c0.2,0.5,0,1.1-0.4,1.3c-1.2,0.6-2.4,1.2-3.6,1.8C266.9,207.2,266.7,207.2,266.6,207.2z M279,200.8
	c-0.4,0-0.7-0.2-0.9-0.5c-0.3-0.5-0.1-1.1,0.4-1.4c1.2-0.7,2.3-1.3,3.5-2c0.5-0.3,1.1-0.1,1.4,0.4c0.3,0.5,0.1,1.1-0.4,1.4
	c-1.1,0.7-2.3,1.3-3.5,2C279.3,200.8,279.2,200.8,279,200.8z M291,193.6c-0.3,0-0.7-0.2-0.8-0.5c-0.3-0.5-0.2-1.1,0.3-1.4
	c1.1-0.7,2.3-1.5,3.3-2.2c0.5-0.3,1.1-0.2,1.4,0.3c0.3,0.5,0.2,1.1-0.3,1.4c-1.1,0.7-2.2,1.5-3.4,2.2
	C291.4,193.6,291.2,193.6,291,193.6z M302.6,185.7c-0.3,0-0.6-0.1-0.8-0.4c-0.3-0.4-0.2-1.1,0.2-1.4c1.1-0.8,2.2-1.6,3.2-2.4
	c0.4-0.3,1.1-0.3,1.4,0.2c0.3,0.4,0.3,1.1-0.2,1.4c-1,0.8-2.1,1.6-3.2,2.4C303,185.6,302.8,185.7,302.6,185.7z M313.5,176.8
	c-0.3,0-0.5-0.1-0.7-0.3c-0.4-0.4-0.3-1,0.1-1.4c1.9-1.7,2.9-2.7,2.9-2.7c0.4-0.4,1-0.4,1.4,0c0.4,0.4,0.4,1,0,1.4c0,0-1,1-3,2.8
	C313.9,176.8,313.7,176.8,313.5,176.8z"/>
<path style="fill:#FFFFFF;" d="M214.1-2.3c-0.5,0-1-0.4-1-1c0-0.6,0.4-1,1-1c1.3,0,2.6-0.1,3.9-0.2c0.5,0,1,0.4,1.1,0.9
	c0.1,0.6-0.4,1-0.9,1.1C216.8-2.4,215.5-2.4,214.1-2.3C214.1-2.3,214.1-2.3,214.1-2.3z M204.1-2.9c0,0-0.1,0-0.1,0
	c-1.3-0.2-2.7-0.4-4-0.7c-0.5-0.1-0.9-0.7-0.8-1.2c0.1-0.5,0.7-0.9,1.2-0.8c1.3,0.3,2.6,0.5,3.9,0.7c0.5,0.1,0.9,0.6,0.8,1.1
	C205.1-3.2,204.6-2.9,204.1-2.9z M228-4.2c-0.5,0-0.9-0.3-1-0.8c-0.1-0.5,0.2-1.1,0.7-1.2c1.3-0.3,2.5-0.6,3.8-1
	c0.5-0.1,1.1,0.2,1.2,0.7s-0.2,1.1-0.7,1.2c-1.3,0.4-2.6,0.7-3.9,1C228.1-4.2,228-4.2,228-4.2z M190.7-6.7c-0.1,0-0.3,0-0.4-0.1
	c-1.2-0.6-2.5-1.2-3.7-1.8c-0.5-0.3-0.7-0.9-0.4-1.4c0.3-0.5,0.9-0.7,1.4-0.4c1.1,0.6,2.3,1.2,3.5,1.7c0.5,0.2,0.7,0.8,0.5,1.3
	C191.5-6.9,191.1-6.7,190.7-6.7z M179-14.2c-0.2,0-0.5-0.1-0.7-0.3c-1.9-1.7-2.9-2.9-2.9-3c-0.3-0.4-0.3-1.1,0.2-1.4
	c0.4-0.3,1.1-0.3,1.4,0.2c0,0,0.9,1.1,2.7,2.7c0.4,0.4,0.4,1,0.1,1.4C179.5-14.3,179.3-14.2,179-14.2z"/>
</svg>
