<?xml version="1.0" encoding="utf-8"?>
<!-- Generator: Adobe Illustrator 19.0.0, SVG Export Plug-In . SVG Version: 6.00 Build 0)  -->
<svg version="1.1" id="Layer_1" xmlns="http://www.w3.org/2000/svg" xmlns:xlink="http://www.w3.org/1999/xlink" x="0px" y="0px"
	 width="25px" height="25px" viewBox="-293 384 25 25" style="enable-background:new -293 384 25 25;" xml:space="preserve">
<g>
	<circle style="fill:#2E87A8;" cx="-280.5" cy="396.5" r="12.5"/>
	<path style="fill:#FFFFFF;" d="M-275.1,398.5c-0.3-0.4-0.7-0.7-1.1-1.1c-0.3-0.3-0.4-0.5-0.1-0.9c0.3-0.4,0.6-0.8,0.9-1.2
		c0.3-0.4,0.6-0.8,0.7-1.2c0.1-0.3,0-0.4-0.3-0.5c-0.1,0-0.1,0-0.2,0l-1.8,0c-0.2,0-0.3,0.1-0.4,0.3c-0.1,0.3-0.2,0.5-0.3,0.8
		c-0.3,0.6-0.6,1.1-1,1.6c-0.1,0.1-0.2,0.2-0.4,0.2c-0.2-0.1-0.3-0.4-0.3-0.5l0-2c0-0.3-0.1-0.4-0.4-0.5h-1.8
		c-0.2,0-0.4,0.1-0.5,0.2c-0.1,0.1-0.1,0.1,0.1,0.2c0.3,0.1,0.5,0.3,0.5,0.6c0.1,0.5,0.1,1,0,1.5c0,0.1,0,0.3-0.1,0.4
		c-0.1,0.2-0.2,0.2-0.4,0.1c-0.2-0.1-0.3-0.3-0.4-0.4c-0.4-0.6-0.8-1.3-1.1-2c-0.1-0.2-0.2-0.3-0.4-0.3c-0.5,0-1.1,0-1.6,0
		c-0.3,0-0.4,0.2-0.3,0.4c0.6,1.3,1.2,2.5,2.1,3.6c0.4,0.6,0.9,1.1,1.6,1.4c0.7,0.4,1.5,0.5,2.3,0.5c0.4,0,0.5-0.1,0.5-0.5
		c0-0.3,0-0.5,0.2-0.7c0.1-0.2,0.3-0.3,0.5-0.1c0.1,0.1,0.2,0.2,0.3,0.3c0.2,0.2,0.4,0.5,0.7,0.7c0.3,0.3,0.6,0.5,1,0.4h1.6
		c0.3,0,0.4-0.3,0.2-0.6C-274.8,398.8-274.9,398.6-275.1,398.5L-275.1,398.5z"/>
</g>
</svg>
