<?xml version="1.0" encoding="utf-8"?>
<!-- Generator: Adobe Illustrator 19.0.0, SVG Export Plug-In . SVG Version: 6.00 Build 0)  -->
<svg version="1.1" id="Layer_1" xmlns="http://www.w3.org/2000/svg" xmlns:xlink="http://www.w3.org/1999/xlink" x="0px" y="0px"
	 width="25px" height="25px" viewBox="-293 384 25 25" style="enable-background:new -293 384 25 25;" xml:space="preserve">
<g>
	<circle style="fill:#D73333;" cx="-280.5" cy="396.5" r="12.5"/>
	<path style="fill:#FFFFFF;" d="M-276.2,402.1h-7.7c-1,0-1.9-0.8-1.9-1.8v-4.1c0-1,0.8-1.8,1.9-1.8h7.7c1,0,1.9,0.8,1.9,1.8v4.1
		C-274.3,401.3-275.2,402.1-276.2,402.1z M-282.5,395.9l-2.5,0v0.6l0.8,0v4.3h0.8v-4.3h1V395.9z M-280.5,397.1L-280.5,397.1h-0.8
		v2.3c0,0.3,0,0.5,0,0.6c-0.1,0.2-0.4,0.4-0.5,0c0-0.1,0-0.2,0-0.6l0-2.3h-0.8l0,2.3c0,0.3,0,0.6,0,0.7c0,0.2,0,0.4,0.2,0.6
		c0.4,0.3,1,0,1.2-0.4l0,0.5l0.6,0V397.1z M-278,397.9c0-0.7-0.5-1.2-1.3-0.6l0-1.4l-0.8,0l0,4.9l0.7,0l0.1-0.3
		c0.8,0.8,1.4,0.2,1.4-0.7L-278,397.9z M-276.4,400.3h-0.1c-0.2,0-0.3-0.1-0.3-0.3v-0.9h1.4v-0.5c0-0.4,0-0.8,0-1
		c-0.1-0.7-1.1-0.8-1.5-0.4c-0.2,0.1-0.3,0.3-0.3,0.5c-0.1,0.2-0.1,0.5-0.1,0.8v1.1c0,1.9,2.3,1.6,2,0l-0.6,0c0,0,0,0.1,0,0.1v0.3
		C-276.1,400.1-276.3,400.3-276.4,400.3z M-276.5,397.6L-276.5,397.6c0.2,0,0.4,0.2,0.4,0.4l0,0.4h-0.8l0-0.4
		C-276.9,397.8-276.7,397.6-276.5,397.6z M-278.9,400.2c-0.2,0-0.3-0.1-0.3-0.3v-2.1c0-0.2,0.2-0.3,0.3-0.3c0.2,0,0.3,0.1,0.3,0.3
		v2.1C-278.6,400.1-278.7,400.2-278.9,400.2z M-277.5,393.3c-0.1,0.1-0.1,0.2-0.2,0.3c-0.1,0.1-0.2,0.1-0.3,0.1
		c-0.1,0-0.2,0-0.3-0.1c-0.1-0.1-0.2-0.1-0.2-0.2c0-0.1-0.1-0.2-0.1-0.3c0-0.1,0-0.3,0-0.7v-2.6h0.7v2.9c0,0.2,0.1,0.3,0.3,0.3
		s0.3-0.1,0.3-0.3v-2.9h0.7v3.8h-0.9L-277.5,393.3z M-279.4,393.3c-0.1,0.1-0.2,0.2-0.3,0.3c-0.1,0.1-0.3,0.1-0.5,0.1
		c-0.2,0-0.4,0-0.5-0.1c-0.1-0.1-0.2-0.1-0.3-0.3c-0.1-0.1-0.1-0.3-0.2-0.4c0-0.2,0-0.4,0-0.7v-1c0-0.4,0-0.6,0.1-0.9
		c0.1-0.2,0.2-0.4,0.3-0.5c0.2-0.1,0.4-0.2,0.6-0.2c0.2,0,0.4,0,0.5,0.1c0.1,0.1,0.3,0.2,0.3,0.3c0.1,0.1,0.1,0.3,0.2,0.4
		c0,0.1,0,0.3,0,0.6v1c0,0.4,0,0.6,0,0.8C-279.2,393-279.3,393.2-279.4,393.3z M-279.9,390.7c0-0.2-0.2-0.4-0.4-0.4
		s-0.4,0.2-0.4,0.4v2c0,0.2,0.2,0.4,0.4,0.4s0.4-0.2,0.4-0.4V390.7z M-282.2,393.7h-0.8l0-2.9l-1.1-2.5h0.9l0.5,1.9l0.5-1.8h0.9
		l-1,2.5L-282.2,393.7z"/>
</g>
</svg>
