<svg xmlns="http://www.w3.org/2000/svg" viewBox="-156 476 50 50"><circle cx="-131" cy="501" r="25" fill="#0D5C74"/><path d="M-134.2 503.5c.2-.5.6-.8 1-.8.2 0 .3.1.4.1.3-1.3 1.2-2.3 2.3-2.3.4 0 .7.1 1.1.4.8-2.7 2.9-4.6 5.4-4.6 1.7 0 3.2.9 4.2 2.4.4-.2.9-.3 1.4-.3 1.4 0 2.6.9 3.3 2.3.2-.1.4-.1.6-.1 1 0 1.9 1.1 1.9 2.4 0 .2 0 .4-.1.6l-21.5-.1z" opacity=".32" fill="#FFF"/><path d="M-124.6 520.6c0 1 1.5 1 1.5 0s-1.5-1-1.5 0zM-140.6 516.3c0 1 1.5 1 1.5 0s-1.5-1-1.5 0zM-139.1 499.5c1 0 1-1.5 0-1.5-.9-.1-.9 1.5 0 1.5zM-152 499.9c0 1.6 2.6 1.7 2.6 0-.1-1.7-2.6-1.7-2.6 0zM-126.4 494.3c1 0 1-1.5 0-1.5-1-.1-1 1.5 0 1.5zM-141.6 487.5c1 0 1-1.5 0-1.5s-1 1.5 0 1.5zM-126.8 487.1c.7 0 .7-1 0-1-.6 0-.6 1 0 1zM-150.5 489.5c.3 0 .3-.5 0-.5-.4-.1-.4.5 0 .5zM-144.6 494.5c.3 0 .3-.5 0-.5s-.3.5 0 .5zM-139.1 483.3c.3 0 .3-.5 0-.5s-.3.5 0 .5zM-137.6 484.4c.3 0 .3-.5 0-.5-.4 0-.4.5 0 .5zM-134.1 489.1c.3 0 .3-.5 0-.5-.4 0-.4.5 0 .5zM-126.4 482.2c.3 0 .3-.5 0-.5s-.3.5 0 .5zM-120.5 510.8c0 1.3 2.1 1.3 2.1 0-.1-1.3-2.1-1.3-2.1 0zM-118.4 489.3c0 1.3 2.1 1.3 2.1 0s-2.1-1.3-2.1 0zM-134 515.3c0 1.3 2.1 1.3 2.1 0s-2.1-1.4-2.1 0zM-142.8 508c0 .7 1 .7 1 0 .1-.7-1-.7-1 0z" fill="#C4FFF9"/></svg>