<svg id="Layer_1" xmlns="http://www.w3.org/2000/svg" viewBox="-107 230.9 380 380"><style>.st0{fill:#F6693E;} .st1{fill:#F65D37;} .st2{fill:#FFFFEB;} .st3{fill:#F6C79A;} .st4{fill:#F5C175;} .st5{fill:#CF4628;} .st6{fill:#FFCC51;} .st7{fill:#FF9025;} .st8{fill:#FFFF77;} .st9{fill:#9A0916;} .st10{fill:#D51E23;} .st11{fill:#47090A;} .st12{fill:#600E0A;} .st13{fill:#8F0D15;} .st14{fill:#CD1D1D;} .st15{opacity:0.32;fill:#47090A;enable-background:new ;} .st16{fill:#FFFFFF;} .st17{fill:#EDDEDA;} .st18{fill:#E2D1CC;} .st19{fill:#D3C2BE;} .st20{fill:#7E7E89;} .st21{fill:#0F1110;} .st22{opacity:0.6;fill:#CF4628;enable-background:new ;} .st23{fill:#62BA47;} .st24{fill:#F4F4F4;} .st25{fill:#E0DCDC;} .st26{fill:#955F5D;} .st27{fill:#AA7F7D;} .st28{fill:#E2B27F;} .st29{fill:#C69263;} .st30{fill:#F3E9DF;} .st31{fill:#35201C;} .st32{fill:none;stroke:#35201C;stroke-width:1;stroke-linecap:round;stroke-miterlimit:10;}</style><path class="st0" d="M-107 230.9h380v380h-380z"/><path class="st1" d="M-93.9 256.6l-13.1 17.1v-34.2zM-74.2 231.1l-19.7 25.5 19.7 25.5 19.6-25.5zM-35 231.1l-19.6 25.5 19.6 25.5 19.6-25.5z"/><path class="st1" d="M4.2 231.1l-19.6 25.5 19.6 25.5 19.7-25.5zM43.5 231.1l-19.6 25.5 19.6 25.5 19.6-25.5zM82.7 231.1l-19.6 25.5 19.6 25.5 19.7-25.5zM122 231.1l-19.6 25.5 19.6 25.5 19.6-25.5zM161.2 231.1l-19.6 25.5 19.6 25.5 19.7-25.5zM200.5 231.1l-19.6 25.5 19.6 25.5 19.6-25.5zM239.7 231.1l-19.6 25.5 19.6 25.5 19.6-25.5zM273 238.9v35.5l-13.7-17.8zM-93.9 307.7l-13.1 17.1v-34.2zM-74.2 282.2l-19.7 25.5 19.7 25.5 19.6-25.5zM-35 282.2l-19.6 25.5 19.6 25.5 19.6-25.5z"/><path class="st1" d="M4.2 282.2l-19.6 25.5 19.6 25.5 19.7-25.5zM43.5 282.2l-19.6 25.5 19.6 25.5 19.6-25.5zM82.7 282.2l-19.6 25.5 19.6 25.5 19.7-25.5zM122 282.2l-19.6 25.5 19.6 25.5 19.6-25.5zM161.2 282.2l-19.6 25.5 19.6 25.5 19.7-25.5zM200.5 282.2l-19.6 25.5 19.6 25.5 19.6-25.5zM239.7 282.2l-19.6 25.5 19.6 25.5 19.6-25.5zM273 290v35.5l-13.7-17.8zM-93.9 358.8l-13.1 17.1v-34.2zM-74.2 333.3l-19.7 25.5 19.7 25.5 19.6-25.5zM-35 333.3l-19.6 25.5 19.6 25.5 19.6-25.5z"/><path class="st1" d="M4.2 333.3l-19.6 25.5 19.6 25.5 19.7-25.5zM43.5 333.3l-19.6 25.5 19.6 25.5 19.6-25.5zM82.7 333.3l-19.6 25.5 19.6 25.5 19.7-25.5zM122 333.3l-19.6 25.5 19.6 25.5 19.6-25.5zM161.2 333.3l-19.6 25.5 19.6 25.5 19.7-25.5zM200.5 333.3l-19.6 25.5 19.6 25.5 19.6-25.5zM239.7 333.3l-19.6 25.5 19.6 25.5 19.6-25.5zM273 341.1v35.5l-13.7-17.8zM-93.9 409.9L-107 427v-34.2zM-74.2 384.4l-19.7 25.5 19.7 25.5 19.6-25.5zM-35 384.4l-19.6 25.5 19.6 25.5 19.6-25.5z"/><path class="st1" d="M4.2 384.4l-19.6 25.5 19.6 25.5 19.7-25.5zM43.5 384.4l-19.6 25.5 19.6 25.5 19.6-25.5zM82.7 384.4l-19.6 25.5 19.6 25.5 19.7-25.5zM122 384.4l-19.6 25.5 19.6 25.5 19.6-25.5zM161.2 384.4l-19.6 25.5 19.6 25.5 19.7-25.5zM200.5 384.4l-19.6 25.5 19.6 25.5 19.6-25.5zM239.7 384.4l-19.6 25.5 19.6 25.5 19.6-25.5zM273 392.2v35.5l-13.7-17.8zM-93.9 461l-13.1 17.1v-34.2zM-74.2 435.5L-93.9 461l19.7 25.5 19.6-25.5zM-35 435.5L-54.6 461l19.6 25.5 19.6-25.5z"/><path class="st1" d="M4.2 435.5L-15.4 461l19.6 25.5L23.9 461zM43.5 435.5L23.9 461l19.6 25.5L63.1 461zM82.7 435.5L63.1 461l19.6 25.5 19.7-25.5zM122 435.5L102.4 461l19.6 25.5 19.6-25.5zM161.2 435.5L141.6 461l19.6 25.5 19.7-25.5zM200.5 435.5L180.9 461l19.6 25.5 19.6-25.5zM239.7 435.5L220.1 461l19.6 25.5 19.6-25.5zM273 443.3v35.5L259.3 461zM-93.9 512.1l-13.1 17.1V495zM-74.2 486.6l-19.7 25.5 19.7 25.5 19.6-25.5zM-35 486.6l-19.6 25.5 19.6 25.5 19.6-25.5z"/><path class="st1" d="M4.2 486.6l-19.6 25.5 19.6 25.5 19.7-25.5zM43.5 486.6l-19.6 25.5 19.6 25.5 19.6-25.5zM82.7 486.6l-19.6 25.5 19.6 25.5 19.7-25.5zM122 486.6l-19.6 25.5 19.6 25.5 19.6-25.5zM161.2 486.6l-19.6 25.5 19.6 25.5 19.7-25.5zM200.5 486.6l-19.6 25.5 19.6 25.5 19.6-25.5zM239.7 486.6l-19.6 25.5 19.6 25.5 19.6-25.5zM273 494.4v35.5l-13.7-17.8zM-93.9 563.2l-13.1 17.1v-34.2zM-74.2 537.7l-19.7 25.5 19.7 25.5 19.6-25.5zM-35 537.7l-19.6 25.5 19.6 25.5 19.6-25.5z"/><path class="st1" d="M4.2 537.7l-19.6 25.5 19.6 25.5 19.7-25.5zM43.5 537.7l-19.6 25.5 19.6 25.5 19.6-25.5zM82.7 537.7l-19.6 25.5 19.6 25.5 19.7-25.5zM122 537.7l-19.6 25.5 19.6 25.5 19.6-25.5zM161.2 537.7l-19.6 25.5 19.6 25.5 19.7-25.5zM200.5 537.7l-19.6 25.5 19.6 25.5 19.6-25.5zM239.7 537.7l-19.6 25.5 19.6 25.5 19.6-25.5zM273 545.5V581l-13.7-17.8z"/><path class="st2" d="M-107 565.3h380v10.2h-380z"/><path class="st3" d="M-107 567.5h380v1.2h-380z"/><path class="st4" d="M-107 575.5h380v35.4h-380z"/><g><path class="st5" d="M27.6 334.3l.1-1H2.4s-.2.7-.5 2.1h-57.5c-.2-1.3-.3-2.1-.3-2.1h-29.5c-3.3-5.6-12.9-.4-11.9 5.3 1.1 6.4 9 9.5 11.9 4.5l9.5 124.4c-.9.4-1.4.9-1.4.9l.3 6.9h.8v45.6l4.2-.5.7-8.1.8 7.9 3.1-.4v-2.7l1.1 2.6 2.7-.3s-1.1-26.3-9.6-44h1l1.9-5.5h81.7l1.9 5.5h1c-8.5 17.7-9.6 44-9.6 44l12.7 1.6v-45.6h.8l.3-6.9s-.5-.5-1.4-.9l9.7-126.3h.1c2 8.7 13.8 3.1 12.7-3.3-.8-6.8-9.5-9.9-12-3.7zM264.8 338.9c-1.1-6.7-9.8-9.7-12.3-3.6l.1-1h-25.2s-.2.7-.4 2h-57.3c-.2-1.3-.3-2-.3-2H140c-3.3-5.5-12.9-.4-11.9 5.3 1.1 6.3 8.9 9.4 11.9 4.4l9.5 123.9c-.9.4-1.4.9-1.4.9l.3 6.8h.8V521l4.2-.5.7-8.1.8 7.9 3.1-.4v-2.7l1.1 2.6 2.6-.3s-1.1-26.2-9.5-43.8h1l1.9-5.5h81.4l1.9 5.5h1c-8.4 17.6-9.5 43.8-9.5 43.8l2.4.3 1.2-3.7v3.8l2.3.3.4-2.3.5 1.9s1.7-1.8 1.5-1.5c-.1.2-.2 1.1-.3 2.1l4.6.6v-45.4h.8l.3-6.8s-.5-.5-1.4-.9l9.7-125.8h.1c2.1 8.7 13.9 3.1 12.8-3.2z"/><path class="st6" d="M-85.5 332.8H27.3v5.6H-85.5z"/><path class="st7" d="M-1.3 336.2h-51.8l-.3-1.3H-.6z"/><path class="st8" d="M-50.4 333.3H-.6s-38.1 1.3-49.8 0z"/><path class="st9" d="M-69.8 503.6l.8 7.7 3-.4v-2.6l1.1 2.5 2.6-.3s-1.1-26.2-9.6-43.3h-2.6V512l4.1-.5.6-7.9zM15.9 467.1v44.8l-12.2-1.6s1.1-26.2 9.6-43.3l2.6.1z"/><path class="st10" d="M-72.6 337h84.3v125.6h-84.3z"/><path class="st11" d="M-68.8 341H9.7v117.6h-78.5z"/><path class="st12" d="M-43.6 417.7c-.2-.8-.5-1.7-1.1-2.2-.6-.5-1.7-.6-2.2.1-.4.5-.2 1.2-.1 1.8-.8-1.4-3-1.4-3.9-.1-.3-.8-1-1.5-1.8-1.6s-1.8.5-1.8 1.3l-.4-.4c-.2 1.3-.5 2.6-.7 3.9h.1c3.1.2 6.2.4 9.3.5.7 0 1.4.1 2-.3.9-.5.9-1.9.6-3zM-47.2 451.8c-1.7-.2-3.5.9-3.9 2.6-.6-.7-1.4-1.5-2.3-1.8-1-.3-2.1.1-2.5 1 0-1.4-1.1-2.7-2.5-3-1.4-.3-2.9.4-3.6 1.6-.4-.7-.8-1.4-1.4-2-.7 2-1.4 4-2.1 5.9 2.7.4 6.2.6 6.8.7 3.7.2 7.5.3 11.1-.2 1.9-.3 3-.5 3.7-1.7-.4-1.5-1.7-2.8-3.3-3.1z"/><path class="st12" d="M-17 453c-.4-1.2-1.4-2.3-2.6-2.4-1.2-.1-2.5 1.2-2.1 2.3-.4-1.2-2.2-1.5-3.1-.6-.7-.8-1.2-1.9-1.9-2.8s-1.9-1.6-2.9-1.2c-1.4.5-1.7 2.3-1.6 3.7-.5-.4-1.1-.8-1.8-.9s-1.4.2-1.7.8c-.3-1-1.3-1.7-2.3-1.8-1 0-2.1.7-2.4 1.6-.1-1.2-1.5-1.9-2.6-1.5-1.4.5-1.1 2.1-1.4 3.2-.2.6-.3 1.1-.6 1.5 0 .1.1.3.1.4 0 .2 0 .4-.1.6l1.5.4c8.5.9 17.1 1 25.7.4.1-1.2.2-2.5-.2-3.7zM-44.1 371.5c-1.5.1-3 1.4-3 3-.5-.8-1.5-1.5-2.4-1.5-.3 0-.6.1-.9.3 0 1.8-.1 3.6-.2 5.4 1.1.1 2.2.1 3.2 0 1.1 0 2.2-.1 3.3-.1v-7.1zM-41.6 372c1.3-.2 2.3.9 3.1 1.9.3-.7 1-1.2 1.8-1.3.8 0 1.5.5 1.8 1.2.9-1 2.8-.9 3.5.3-.2-2 1.5-3.9 3.4-4 2-.1 3.9 1.7 3.9 3.7.7-.9 2.3-.6 2.7.4.1-1.3 2-1.7 3-.9 1 .8 1.2 2.3 1.3 3.6 0 .2 0 .4-.1.6-.1.1-.3.2-.5.2-8.2 1.2-16.6 1.2-24.8-.1-.2 0-.4-.1-.6-.2-.2-.2-.2-.4-.2-.7-.1-.9-.2-1.8 0-2.7.1-1 .8-1.8 1.7-2zM-13.4 378.3c-1-.3-2.1-.8-2.4-1.8-.2-.7 0-1.4.2-2.1.2-.6.4-1.2 1-1.4.5-.1 1 .2 1.3.5.3.4.5.8.8 1.3 0-1 1-1.8 1.9-1.8 1 0 1.9.6 2.4 1.5 0-1.6 1.5-2.9 3.1-3 1.6 0 3.1 1 3.8 2.4.8 1.4.9 3 .7 4.6-2.7.1-5.3.2-8 .2-1.5 0-3.2.1-4.8-.4zM-7.5 415.3c.1.1.2.2.4.3.2.1.5-.1.7-.2.7-.3 1.7.3 1.8 1.1.3-.9.6-1.9 1.2-2.7.6-.8 1.5-1.4 2.5-1.3.7 0 1.3.4 1.8.8 1.7 1.5 2 4 2.2 6.2 0 .3 0 .5-.1.7-.1.1-.3.2-.4.2-5.4 1.4-11.1 1.7-16.5.7-.6-.1-1.2-.2-1.6-.6-.7-.6-.7-1.7-.6-2.6.1-1.2.2-2.4.8-3.4.6-1 1.9-1.7 3-1.2.9.4 1.3 1.4 1.6 2.2.7-.9 2.3-1 3.2-.2z"/><path class="st12" d="M-42.5 456.3c7.1.7 14.3 1 21.4.7 3.6-.2 3.7-.2 4.9-3.2.7-1.6 4.2-4 4.4-.7.4-.9.8-1.7 1.5-2.4s1.6-1.1 2.5-1c1.2.2 2 1.4 2.6 2.5 1.2-1 3.4-.3 3.7 1.3 1.2-.9 3.2-.5 3.8.9.9-1.3 2.7-2 4.2-1.6 1.6.4 2.8 1.9 2.9 3.5 0 .2 0 .4-.1.6-.1.2-.4.2-.6.3-7.9 1.7-16.1.5-24-.8M-25.5 421c-6-.2-11.9-.5-17.9-.7.2-1.7-.1-3.3 0-5 .2-1.7 1-3.4 2.6-3.9 1.5-.5 3.2.4 3.7 1.9.5-.8 2-.5 2.1.5.5-.6 1.5-.4 1.9.2.5.6.6 1.4.6 2.1.1-.9.3-1.8.7-2.6.4-.8 1.2-1.4 2.1-1.5.9 0 1.7.5 2.1 1.3.5.7.7 1.6.9 2.4.4-.8 1.8-.8 2.1.1-.3-.4.3-1 .8-1s.9.4 1.3.7c-.2-1.5.1-3 .9-4.3.3-.5.7-1 1.3-1.2.9-.3 1.8.2 2.4.9.5.7.7 1.6.9 2.5.4 2.4.7 4.9.7 7.4-2.9.4-6.1.3-9.2.2z"/><circle class="st12" cx="-29.9" cy="398.6" r="1.9"/><circle class="st12" cx="-9.9" cy="355.1" r="1.9"/><circle class="st12" cx="-26.7" cy="364.6" r="1.9"/><circle class="st12" cx="-27.8" cy="389.9" r="1.1"/><circle class="st12" cx="-35.2" cy="365.6" r="1.1"/><circle class="st12" cx="-31.8" cy="357" r="1.1"/><circle class="st12" cx="-9.9" cy="362.7" r="1.1"/><circle class="st12" cx="-35.2" cy="392.3" r="1.5"/><path class="st13" d="M-45.6 346.5h3.3v112.2h-3.3zM-18.6 346.5h3.3v112.2h-3.3z"/><path class="st13" d="M-55.4 419.5c-.2 1.1-.4 2.2-.7 3.3H7.8v-3.3h-63.2zM-68.8 340.4H7.8v3.3h-76.6zM-68.9 455.4h79.8v3.3h-79.8z"/><path class="st9" d="M-69.9 461.3c25.8-64.9 14.8-130.5 14.8-130.5h-29.2l10 130.5h4.4z"/><path class="st10" d="M-78.1 342.3s7.6 83.8 7.2 107.4c.1-.1 3.8-86.5-7.2-107.4zM-62.9 342.7s-1.8 73.5-3.4 86.3c.1 0 12.3-70.6 3.4-86.3z"/><path class="st13" d="M-50.6 376.8c0 1.1-.1 2.2-.1 3.3H7.9v-3.3h-58.5z"/><path class="st9" d="M11.1 461.3c-25.8-64.9-9.9-130.5-9.9-130.5h24.4l-10 130.5h-4.5z"/><path class="st6" d="M-95.1 335.9c-1.1-6.6 12.2-12.4 12.6-1 .3 11.5-11.3 8.7-12.6 1z"/><path class="st7" d="M-87.5 336.7c-2.2.5-4.2 0-6-1 .6 3.3 3.4 5.3 5.7 5.3.9 0 1.6-.3 2.2-.9.9-1 1.4-2.7 1.3-4.9-.9.6-2 1.2-3.2 1.5z"/><g><path class="st6" d="M37.4 335.2c1.1 6.6-12.2 12.4-12.6 1-.4-11.4 11.3-8.7 12.6-1z"/></g><path class="st7" d="M29.8 336.7c2.2.5 4.2 0 6-1-.6 3.3-3.4 5.3-5.7 5.3-.9 0-1.6-.3-2.2-.9-.9-1-1.4-2.7-1.3-4.9.9.6 2 1.2 3.2 1.5z"/><path class="st8" d="M28 330.8c1-1.6 6.3.7 6 1.6-.3.8-7.4.6-6-1.6z"/><path class="st14" d="M-75.7 461.3s3.3-3.3 7.3 0l-2.4 6.6h-4.7l-.2-6.6z"/><path class="st10" d="M17 461.3s-3.3-3.3-7.3 0l2.4 6.6h4.7l.2-6.6z"/><circle class="st12" cx="-9.7" cy="389.6" r="1.2"/><circle class="st12" cx="-8.7" cy="403.4" r="2.3"/><circle class="st12" cx="-8.9" cy="409" r=".9"/><circle class="st12" cx="-36.6" cy="428.9" r="1"/><circle class="st12" cx="-28.5" cy="433.2" r="1.8"/><circle class="st12" cx="-34.5" cy="441.2" r=".7"/><circle class="st12" cx="-8.1" cy="435" r="1.8"/><circle class="st12" cx="-5" cy="428.6" r=".7"/><circle class="st12" cx="-.9" cy="442.6" r="2.1"/><circle class="st12" cx="-55.5" cy="441.9" r="1.5"/><circle class="st12" cx="-51.1" cy="428.1" r="1.6"/><circle class="st12" cx="-51.4" cy="435.7" r=".7"/><circle class="st12" cx="-51.7" cy="447.8" r="1.1"/><circle class="st12" cx="-23.7" cy="441.6" r="1.2"/><path class="st8" d="M-93.8 334.1c-1-1.5 4.4-5.8 6.9-4.2 2.4 1.6-5.4 6.6-6.9 4.2z"/><path class="st9" d="M-72.7 467.1l1.3-5.8 1.6.7-1.6 5.1z"/><path class="st14" d="M-72.1 470.3s6.3 15.6 7 34.9l-7-34.9z"/><path class="st10" d="M19.8 342.3s-7.6 83.8-7.2 107.4c0-.1-3.8-86.5 7.2-107.4zM4.6 342.7S6.4 416.2 8 429c0 0-12.2-70.6-3.4-86.3z"/><path class="st9" d="M14.5 467.1l-1.3-5.8-1.6.7 1.5 5.1z"/><path class="st14" d="M13.8 470.3s-6.3 15.6-7 34.9l7-34.9z"/><g><path class="st6" d="M141.4 332.8h112.8v5.6H141.4z"/><path class="st7" d="M225.7 336.2h-51.9l-.3-1.3h52.8z"/><path class="st8" d="M176.5 333.3h49.8s-38 1.3-49.8 0z"/><path class="st9" d="M157.1 503.6l.8 7.7 3-.4v-2.6l1.1 2.5 2.6-.3s-1.1-26.2-9.6-43.3h-2.6V512l4.1-.5.6-7.9zM240.2 467.1c-8.5 17.1-9.6 43.3-9.6 43.3l3.5.4 1.2-3.6v3.8l2.3.3.4-2.2.5 1.9s1.7-1.8 1.5-1.5c-.1.2-.2 1.1-.3 2.1l3.2.4v-44.9h-2.7z"/><path class="st10" d="M154.3 337h84.3v125.6h-84.3z"/><path class="st11" d="M158.2 341h78.5v117.6h-78.5z"/><path class="st12" d="M183.4 417.7c-.2-.8-.5-1.7-1.1-2.2-.6-.5-1.7-.6-2.2.1-.4.5-.2 1.2-.1 1.8-.8-1.4-3-1.4-3.9-.1-.3-.8-1-1.5-1.8-1.6-.8-.1-1.8.5-1.8 1.3l-.4-.4c-.2 1.3-.5 2.6-.7 3.9h.1c3.1.2 6.2.4 9.3.5.7 0 1.4.1 2-.3.9-.5.8-1.9.6-3zM179.8 451.8c-1.7-.2-3.5.9-3.9 2.6-.6-.7-1.4-1.5-2.3-1.8-1-.3-2.1.1-2.5 1 0-1.4-1.1-2.7-2.5-3-1.4-.3-2.9.4-3.6 1.6-.4-.7-.8-1.4-1.4-2-.7 2-1.4 4-2.1 5.9 2.7.4 6.2.6 6.8.7 3.7.2 7.5.3 11.1-.2 1.9-.3 3-.5 3.7-1.7-.5-1.5-1.8-2.8-3.3-3.1z"/><path class="st12" d="M209.9 453c-.4-1.2-1.4-2.3-2.6-2.4s-2.5 1.2-2.1 2.3c-.4-1.2-2.2-1.5-3.1-.6-.7-.8-1.2-1.9-1.9-2.8-.7-.9-1.9-1.6-2.9-1.2-1.4.5-1.7 2.3-1.6 3.7-.5-.4-1.1-.8-1.8-.9-.7-.1-1.4.2-1.7.8-.3-1-1.3-1.7-2.3-1.8-1 0-2.1.7-2.4 1.6-.1-1.2-1.5-1.9-2.6-1.5-1.4.5-1.1 2.1-1.4 3.2-.2.6-.3 1.1-.6 1.5 0 .1.1.3.1.4 0 .2 0 .4-.1.6l1.5.4c8.5.9 17.1 1 25.7.4.1-1.2.2-2.5-.2-3.7zM182.9 371.5c-1.5.1-3 1.4-3 3-.5-.8-1.5-1.5-2.4-1.5-.3 0-.6.1-.9.3 0 1.8-.1 3.6-.2 5.4 1.1.1 2.2.1 3.2 0 1.1 0 2.2-.1 3.3-.1v-7.1zM185.3 372c1.3-.2 2.3.9 3.1 1.9.3-.7 1-1.2 1.8-1.3.8 0 1.5.5 1.8 1.2.9-1 2.8-.9 3.5.3-.2-2 1.5-3.9 3.4-4 2-.1 3.9 1.7 3.9 3.7.7-.9 2.3-.6 2.7.4.1-1.3 2-1.7 3-.9 1 .8 1.2 2.3 1.3 3.6 0 .2 0 .4-.1.6-.1.1-.3.2-.5.2-8.2 1.2-16.6 1.2-24.8-.1-.2 0-.4-.1-.6-.2-.2-.2-.2-.4-.2-.7-.1-.9-.2-1.8 0-2.7.2-.9.8-1.8 1.7-2zM213.5 378.3c-1-.3-2.1-.8-2.4-1.8-.2-.7 0-1.4.2-2.1.2-.6.4-1.2 1-1.4.5-.1 1 .2 1.3.5.3.4.5.8.8 1.3 0-1 1-1.8 1.9-1.8 1 0 1.9.6 2.4 1.5 0-1.6 1.5-2.9 3.1-3 1.6 0 3.1 1 3.8 2.4.8 1.4.9 3 .7 4.6-2.7.1-5.3.2-8 .2-1.5 0-3.2.1-4.8-.4zM219.4 415.3c.1.1.2.2.4.3.2.1.5-.1.7-.2.7-.3 1.7.3 1.8 1.1.3-.9.6-1.9 1.2-2.7.6-.8 1.5-1.4 2.5-1.3.7 0 1.3.4 1.8.8 1.7 1.5 2 4 2.2 6.2 0 .3 0 .5-.1.7-.1.1-.3.2-.4.2-5.4 1.4-11.1 1.7-16.5.7-.6-.1-1.2-.2-1.6-.6-.7-.6-.7-1.7-.6-2.6.1-1.2.2-2.4.8-3.4.6-1 1.9-1.7 3-1.2.9.4 1.3 1.4 1.6 2.2.7-.9 2.3-1 3.2-.2z"/><path class="st12" d="M184.5 456.3c7.1.7 14.3 1 21.4.7 3.6-.2 3.7-.2 4.9-3.2.7-1.6 4.2-4 4.4-.7.4-.9.8-1.7 1.5-2.4s1.6-1.1 2.5-1c1.2.2 2 1.4 2.6 2.5 1.2-1 3.4-.3 3.7 1.3 1.2-.9 3.2-.5 3.8.9.9-1.3 2.7-2 4.2-1.6 1.6.4 2.8 1.9 2.9 3.5 0 .2 0 .4-.1.6-.1.2-.4.2-.6.3-7.9 1.7-16.1.5-24-.8M201.5 421c-6-.2-11.9-.5-17.9-.7.2-1.7-.1-3.3 0-5 .2-1.7 1-3.4 2.6-3.9 1.5-.5 3.2.4 3.7 1.9.5-.8 2-.5 2.1.5.5-.6 1.5-.4 1.9.2.5.6.6 1.4.6 2.1.1-.9.3-1.8.7-2.6.4-.8 1.2-1.4 2.1-1.5.9 0 1.7.5 2.1 1.3.5.7.7 1.6.9 2.4.4-.8 1.8-.8 2.1.1-.3-.4.3-1 .8-1s.9.4 1.3.7c-.2-1.5.1-3 .9-4.3.3-.5.7-1 1.3-1.2.9-.3 1.8.2 2.4.9.5.7.7 1.6.9 2.5.4 2.4.7 4.9.7 7.4-3 .4-6.1.3-9.2.2z"/><circle class="st12" cx="197" cy="398.6" r="1.9"/><circle class="st12" cx="217" cy="355.1" r="1.9"/><circle class="st12" cx="200.2" cy="364.6" r="1.9"/><circle class="st12" cx="199.2" cy="389.9" r="1.1"/><circle class="st12" cx="191.7" cy="365.6" r="1.1"/><circle class="st12" cx="195.1" cy="357" r="1.1"/><circle class="st12" cx="217" cy="362.7" r="1.1"/><circle class="st12" cx="191.7" cy="392.3" r="1.5"/><path class="st13" d="M181.3 346.5h3.3v112.2h-3.3zM208.3 346.5h3.3v112.2h-3.3z"/><path class="st13" d="M171.6 419.5c-.2 1.1-.4 2.2-.7 3.3h63.9v-3.3h-63.2zM158.2 340.4h76.6v3.3h-76.6zM158.1 455.4h79.8v3.3h-79.8z"/><path class="st9" d="M157.1 461.3c25.8-64.9 14.8-130.5 14.8-130.5h-29.2l10 130.5h4.4z"/><path class="st10" d="M148.9 342.3s7.6 83.8 7.2 107.4c0-.1 3.8-86.5-7.2-107.4zM164.1 342.7s-1.8 73.5-3.4 86.3c0 0 12.2-70.6 3.4-86.3z"/><path class="st13" d="M176.4 376.8c0 1.1-.1 2.2-.1 3.3h58.6v-3.3h-58.5z"/><path class="st9" d="M238.1 461.3c-25.8-64.9-9.9-130.5-9.9-130.5h24.4l-10 130.5h-4.5z"/><path class="st6" d="M131.8 335.9c-1.1-6.6 12.2-12.4 12.6-1 .3 11.5-11.3 8.7-12.6 1z"/><path class="st7" d="M139.5 336.7c-2.2.5-4.2 0-6-1 .6 3.3 3.4 5.3 5.7 5.3.9 0 1.6-.3 2.2-.9.9-1 1.4-2.7 1.3-4.9-1 .6-2 1.2-3.2 1.5z"/><g><path class="st6" d="M264.4 335.2c1.1 6.6-12.2 12.4-12.6 1-.4-11.4 11.3-8.7 12.6-1z"/></g><path class="st7" d="M256.7 336.7c2.2.5 4.2 0 6-1-.6 3.3-3.4 5.3-5.7 5.3-.9 0-1.6-.3-2.2-.9-.9-1-1.4-2.7-1.3-4.9 1 .6 2 1.2 3.2 1.5z"/><path class="st8" d="M255 330.8c1-1.6 6.3.7 6 1.6-.3.8-7.4.6-6-1.6z"/><path class="st14" d="M151.2 461.3s3.3-3.3 7.3 0l-2.4 6.6h-4.7l-.2-6.6z"/><path class="st10" d="M243.9 461.3s-3.3-3.3-7.3 0l2.4 6.6h4.7l.2-6.6z"/><circle class="st12" cx="217.2" cy="389.6" r="1.2"/><circle class="st12" cx="218.3" cy="403.4" r="2.3"/><circle class="st12" cx="218.1" cy="409" r=".9"/><circle class="st12" cx="190.3" cy="428.9" r="1"/><circle class="st12" cx="198.4" cy="433.2" r="1.8"/><circle class="st12" cx="192.5" cy="441.2" r=".7"/><circle class="st12" cx="218.8" cy="435" r="1.8"/><circle class="st12" cx="221.9" cy="428.6" r=".7"/><circle class="st12" cx="226" cy="442.6" r="2.1"/><circle class="st12" cx="171.4" cy="441.9" r="1.5"/><circle class="st12" cx="175.8" cy="428.1" r="1.6"/><circle class="st12" cx="175.5" cy="435.7" r=".7"/><circle class="st12" cx="175.2" cy="447.8" r="1.1"/><circle class="st12" cx="203.3" cy="441.6" r="1.2"/><path class="st8" d="M133.1 334.1c-1-1.5 4.4-5.8 6.9-4.2 2.5 1.6-5.3 6.6-6.9 4.2z"/><path class="st9" d="M154.2 467.1l1.3-5.8 1.6.7-1.5 5.1z"/><path class="st14" d="M154.9 470.3s6.3 15.6 7 34.9l-7-34.9z"/><path class="st10" d="M246.8 342.3s-7.6 83.8-7.2 107.4c-.1-.1-3.8-86.5 7.2-107.4zM231.6 342.7s1.8 73.5 3.4 86.3c-.1 0-12.3-70.6-3.4-86.3z"/><path class="st9" d="M241.4 467.1l-1.3-5.8-1.6.7 1.6 5.1z"/><path class="st14" d="M240.8 470.3s-6.3 15.6-7 34.9l7-34.9z"/></g></g><g><path class="st15" d="M-35.1 420s-.6-1.2-1.3-2.7c.4-.6 4-5.4 2.5-7.9-.1-.4-.4-.4-.4-.4-1.9 0-6.8 3.7-7.7 4.8l-9.2 1.5c-1.1-.8-4.8-2.6-7.4-1.9 0 0-.5.2-.7.7 0 0 2.4 6.1 3.5 7 0 0 .6.4 1.3.6l.6 5.8c-.3 1.6-1.2 4.4-3.6 5.4 0 0-12.4 4.1-14.2 12 0 0-.8 3.6-.4 7.7-1.5.8-3.3 1.2-5 1.4-2.6.3-5.2.4-7.7-.4-2.5-.7-4.8-2.4-5.9-4.7-.8-1.7-1-3.7-.7-5.6.8-3.7 3.5-6.9 7-8.3-.9 0-1.8-.1-2.7-.1 1.4-1.3 3.2-2.1 5.1-2.1 1 0 2 .4 2.5 1.1.6.8.4 2.1-.5 2.5-.3.1-.5.2-.8.2-2.3.6-3.1 4-1.6 5.9 1.5 1.9 4.4 2.1 6.6 1.1 2.2-1 3.7-3.1 4.7-5.3 1.7-3.6 2.4-8 .5-11.6-.9-1.8-2.6-3.7-4.5-4.9-1.7-2.5-5-3.7-8-3.1-3.3.7-6 3.4-7.3 6.6-.4.4-.8.9-1.1 1.3.3-.9.7-1.8 1.2-2.7-2.1 1.9-3.8 4.4-4.8 7-1.9 2.5-3.6 5-4.7 8.1-2.1 5.9-.6 13.9 4.1 18 3.6 3.2 9 4.1 13.7 3.1 3.7-.8 7.1-2.5 10.3-4.6.4 1.6 1 3.1 2 4.4l.5 1.9h14.3v-.7c-.2-1.6-1.6-2.4-2.6-2.7l4.7-5.4c.1.1.1.3.2.4 0 0 1.5 5.4 1.5 6.8l-.1 1.2s-.3.8.5 1.3l3.7-.1s.8-1.2-1.3-2.6l.9-9.2c.2-.1.4-.2.6-.2l1.5 7 .5 4.2 4.7.2s1.2-.9 0-1.6c0 0-1.1-1.2-1.5-1.2l-1.1-5.6s1.5-4.2 1.2-7l.2-.2s4-7.1 1.6-16.5c.1-.1.3-.2.4-.2 0 0 6-4.3 5.3-6 .1 0 .1-1-1.1-3.7zm-50.3 1.4c2-1.4 4.6-1.8 6.9-1 .2.1.4.2.7.3-.9-.3-1.8-.3-2.7-.2-1.6.3-3.6.6-5.4 1.4.1-.2.3-.4.5-.5z"/><path class="st16" d="M-70.2 450.7c-1.6 1-3.5 1.3-5.3 1.6-2.6.3-5.2.4-7.7-.4-2.5-.7-4.8-2.4-5.9-4.7-.8-1.7-1-3.7-.7-5.6.8-3.7 3.5-6.9 7-8.3-.9 0-1.8-.1-2.7-.1 1.4-1.3 3.2-2.1 5.1-2.1 1 0 2 .4 2.5 1.1.6.8.4 2.1-.5 2.5-.3.1-.5.2-.8.2-2.3.6-3.1 4-1.6 5.9 1.5 1.9 4.4 2.1 6.6 1.1 2.2-1 3.7-3.1 4.7-5.3 1.7-3.6 2.4-8 .5-11.6-.9-1.8-2.6-3.7-4.5-4.9-1.7-2.5-5-3.7-8-3.1-3.3.7-6 3.4-7.3 6.6-.4.4-.8.9-1.1 1.3.3-.9.7-1.8 1.2-2.7-2.1 1.9-3.8 4.4-4.8 7-1.9 2.5-3.6 5-4.7 8.1-2.1 5.9-.6 13.9 4.1 18 3.6 3.2 9 4.1 13.7 3.1 4.8-1 9.1-3.6 12.9-6.6l.3-5.7c-.1 2-1.4 3.6-3 4.6zm-6.8-32.2c.2.1.4.2.7.3-.9-.3-1.8-.3-2.7-.2-1.6.3-3.6.6-5.4 1.4.2-.1.4-.3.5-.4 2-1.4 4.6-1.9 6.9-1.1z"/><path class="st16" d="M-52.2 424.4s-.3 5.1-3.8 6.6c0 0-12.4 4.1-14.2 12 0 0-2.1 9.9 2.4 15.6l10.3-.1 7.2-8.2s7.6-1.2 10.6-5.8c0 0 4.1-7.2 1.6-16.7l-14.1-3.4z"/><path class="st16" d="M-37.9 411.5l-13.2 2.1s-1.7.6-2.1 2.8l.9 9.2s10.2 5.5 14.7 2.3c0 0 6-4.3 5.3-6 0 0 0-1.1-1.2-3.7 0-.1-2.4-5.5-4.4-6.7z"/><path class="st16" d="M-40.7 412.2c-.1-.3 5.8-5.1 7.9-5.1 0 0 .4.1.4.4 0 0-3.6 3.4-4.5 5.1.1 0-3.2 1.4-3.8-.4z"/><path class="st17" d="M-34.9 415.5s4.1-5.4 2.6-8l-4.5 3.8-.4 2 2.3 2.2z"/><path class="st16" d="M-49.3 413.7c-.1-.3-4.7-3-7.8-2.2 0 0-.5.2-.7.7-.1.4 4.5.4 5.7 3 .1 0 3.4-.1 2.8-1.5z"/><path class="st17" d="M-57.8 412.2s2.4 6.1 3.5 7c0 0 1.5 1 2.6.5l.4-4.9s-4.1-3.8-6.5-2.6z"/><path class="st16" d="M-51.2 441.7s-3.5 3.7.4 10c0 0 1.5 5.4 1.5 6.8l-.1 1.2s-.3.8.5 1.3l3.7-.1s.8-1.2-1.3-2.6l1.5-15.6c-.1-.1-4.8-3-6.2-1zM-63.7 441.4c.3 0 6.6 2.3 6.4 13.6 0 0 .2 1.2.6 1.5 0 0 3.1.6 3.4 3v.7h-14.3l-.8-3s1.5-12.8 1.5-13c0-.3 3.2-2.8 3.2-2.8z"/><path class="st16" d="M-45.4 447.8l1.7 8.1.5 4.2 4.7.2s1.2-.9 0-1.6c0 0-1.1-1.2-1.5-1.2l-1.1-5.6s2.1-5.9.8-8.4c.1 0-5.5.8-5.1 4.3z"/><path class="st18" d="M-39.2 420.6c-1.4-.2-2.5.3-3.5 1.3-1.1 1-1.4 2.8-.5 3.9.6.7 1.5 1.1 2.5 1.2.3 0 .7.1 1 0 .5-.1.9-.4 1.4-.7.7-.5 1.4-1 1.8-1.8.5-1.1.1-2.5-.8-3.4-.7-.3-1.1-.3-1.9-.5"/><path class="st19" d="M-40.1 422.8c0 .4 0 .8-.3 1.1-.2.3-.6.5-1 .4.2.2.6.3.9.1.3-.1.5-.4.6-.7.1-.3.1-.6.1-.9"/><path class="st19" d="M-39.7 422.7c0 .4 0 .8.3 1.1.2.3.6.5 1 .4-.2.2-.6.3-.9.1-.3-.1-.5-.4-.6-.7-.1-.3-.1-.6-.1-.9"/><path class="st20" d="M-38.8 421.9c0-.3-.6-.6-1.3-.5-.7 0-1.2.3-1.2.7 0 .2.2.3.5.4.1.3.4.5.9.5s.8-.3.8-.6c.2-.2.3-.3.3-.5z"/><path class="st21" d="M-45.7 418.3c-.1-.1-.2-.1-.4-.1-.3 0-.7.2-.8.5-.2.3-.2.7 0 1 .3.4 1 .5 1.4.1.1-.1.2-.3.2-.4 0-.5-.1-.9-.4-1.1zM-37.9 416.4c-.1-.1-.2-.1-.4-.1-.3 0-.7.2-.8.5-.2.3-.2.7 0 1 .3.4 1 .5 1.4.1.1-.1.2-.3.2-.4 0-.4-.1-.9-.4-1.1z"/></g><path class="st22" d="M251.1 288.3c-.5-2.1-1.3-4.2-2.8-5.7-.3-.3-.6-.6-.9-.8 1-1.4 1.1-3.4.5-5-.1-.2-.4-.3-.6-.1-1.1 1-2.4 1.8-3.8 2.4 0-.2 0-.3-.1-.5 0 0 .5-1.6-.6-2.1-.5-.2-1-.1-1.3.1-.1-.8-.5-1.9-1.5-3.2-1-1.2-2.2-2.8-3.3-4 .1-.1.1-.2.2-.3 0-.1.1-.1.1-.2.1-.1.1-.3.1-.4s0-.1.1-.2c0-.2.1-.5.1-.7 0-1.8-1.5-3.3-3.3-3.3-.2 0-.4 0-.6.1h-.2s-.3.1-.4.1c-.1 0-.1.1-.2.1-.1.1-.2.1-.3.2-.1 0-.1.1-.2.1 0 0-.1 0-.1.1-.8.6-1.3 1.6-1.3 2.6 0 .7.2 1.3.5 1.8-1.1 1.3-2.3 2.9-3.4 4.1-1.2 1.4-1.5 2.6-1.6 3.4-.3 0-.5 0-.8.1-1.1.5-.8 2.1-.8 2.2-1.6-.5-2.9-1.6-4.3-2.6-.1 0-.1-.1-.2-.1s-.2 0-.3.1c-.2.1-.3.4-.4.6-1 1.8-1.1 4-.4 6-1.9 2.6-2.9 6-3.5 9.3-.8 4.3-1.3 8.7-1.4 13.2v1.2c0 7.5 1.1 14.9 3.7 21.8.4 1 .7 1.9 1.2 2.8.3.7.7 1.5 1.5 1.7h.3c-.2 1.3-.2 2.7.3 3.9 0 .1.1.2.2.3.1.1.3.2.5.2.5 0 .9-.4 1.1-.8.2-.4.2-.9.3-1.4.1-.9.1-1.8-.1-2.6.2 0 .3-.1.5-.1 0 .2 0 .4.1.7.1 1 .2 2 .6 3 .2.6.7 1.2 1.3 1.1.5 0 .9-.6 1.1-1.1.4-1.3-.1-2.7-.5-3.9 0-.1-.1-.2-.1-.2.2 0 .4-.1.5-.1 0 .6.1 1.2.3 1.8.2.8.5 1.6 1.1 2.1.3.3.9.5 1.3.3.4-.3.5-.8.5-1.3 0-1.1-.1-2.2-.4-3.2 3.2-.4 6.5-.5 9.7-.3-.1.9-.2 1.8-.1 2.7 0 .4.1.8.2 1.2.2.4.5.7.9.7.5.1.9-.2 1.2-.6s.3-.9.4-1.3l.3-2.4h.2c-.1 1.1-.3 2.2-.2 3.3 0 .4.1.8.3 1.1s.5.6.9.6c.5 0 .9-.5 1.1-1 .5-1.1.6-2.4.6-3.7.1 0 .3 0 .4.1-.3 1-.3 2.1-.4 3.1 0 .4 0 .8.1 1.1.1.4.3.7.7.8.4.2.9 0 1.2-.3.3-.3.5-.8.6-1.2.3-1 .5-2 .5-3.1.3.1.6.1.9.2.6-1.2 1-2.4 1.5-3.6 2.4-6.7 2.8-14.2 3-21.4v-2.1-.7c-.7-6-1-11.5-2.3-16.8zm-23.3-11l-.1-.1.1.1z"/><g><path class="st23" d="M-41.3 409.2c-1.5-1.2-3.6-3.3-4.6-3.1-1 .2-2.2 2.9-3.2 4.6-1 1.7-.5 2.9-.5 2.9l4.8-1.6 5-.3c0-.1.1-1.3-1.5-2.5z"/><circle class="st24" cx="-45.8" cy="406.2" r="2.2"/><path class="st25" d="M-43.7 405.8c-.2-1.2-1.4-1.9-2.5-1.7-.5.1-.9.3-1.2.7 3.6-.6 3.3 2.7 3.3 2.7.3-.5.5-1.1.4-1.7z"/><g><path class="st24" d="M-50.4 414.6s-.8.3-.2.9c.6.6 1.4-.1 1.4-.4 0 0 .8.4 1.5-.3 0 0 1.9-.2 2-1 0 0 1.5.7 2.6-.5 0 0 1.1.7 2.4 0 0 0 1.1.6 1.7-.3 0 0 1.3-.1.7-1.1 0 0 .1-1.1-.7-1.2-.8-.1-1.3.7-1.3.7s-.7-.9-1.5-.7c-.8.1-1.2.8-1.2.8s-1-.9-1.8-.6c-.9.3-1.3 1.1-1.3 1.1s-.7-.7-1.6-.4c-.9.3-.7 1.5-.7 1.5s-1-.5-1.7-.1c-.7.6-.3 1.6-.3 1.6z"/><path class="st25" d="M-39.1 413.1s1.3-.1.7-1.1c0 0 .1-1.1-.7-1.2-.8-.1-1.3.7-1.3.7s-.6-.7-1.3-.7c1.4 1.8-.3 3-.3 3 .4 0 .8-.1 1.2-.3 0-.1 1.1.5 1.7-.4z"/></g></g><g><path class="st26" d="M246.3 279.3c-.4-.2-.8-.4-1.2-.3 1.9-.6 3.7-1.6 5.2-2.9.2-.2.5-.1.6.1.6 1.7.5 3.7-.6 5.1-1.3-.7-2.7-1.3-4-2z"/><path class="st27" d="M248 278.7c0 .1 0 .2.1.2.6.4 1.4.7 2.1.7h.1s0-.1.1-.1c.3-.8.3-1.7 0-2.5-.8.6-1.5 1.1-2.4 1.7.1 0 0 0 0 0z"/><path class="st26" d="M222.2 276.4c.1-.2.2-.4.4-.6.1-.1.2-.1.3-.1s.1.1.2.1c1.4 1 2.8 2.2 4.5 2.7-1.1.4-2.2.9-3.2 1.5s-1.9 1.5-2.4 2.6c-.9-2-.8-4.3.2-6.2z"/><path class="st27" d="M224.3 278.7c.1-.2-.1-.4-.2-.5-.4-.4-.9-.8-1.3-1.2-.5.7-.5 1.6-.5 2.5 0 .1 0 .3.1.4.1.1.2.2.3.2s.1-.1.2-.1c.3-.6.8-1 1.4-1.3z"/><path class="st28" d="M232.7 308.8c6.1.5 12.5.7 18.2-1.8 1.7-.7 3.3-1.7 4.8-2.9 0-5.5-.2-11-1.6-16.4-.5-2.1-1.3-4.2-2.8-5.7-1.2-1.3-2.7-2.1-4.3-2.7-1.4-.5-2.8-.9-4.3-1.1-2.1 1.6-4 3.5-5.7 5.5l-.3.3c-.3.1-.6-.2-.8-.5-1.7-2.3-3.9-4.2-6.5-5.6-1.7.3-3.3.8-4.7 1.7-3.9 2.5-5.4 7.4-6.3 11.9-.8 4.3-1.3 8.7-1.4 13.2 1.3.8 2.8 1.5 4.2 2 3.6 1.4 7.6 1.8 11.5 2.1z"/><path class="st29" d="M235.8 283.6c.2.3.5.6.8.5.1 0 .2-.2.3-.3 1.7-2.1 3.6-3.9 5.7-5.5-3.4-.6-6.9-.5-10.3-.5-1 0-1.9.1-2.9.2 2.5 1.3 4.8 3.2 6.4 5.6zM250.8 307.1c-5.6 2.4-12 2.3-18.2 1.8-3.9-.3-7.8-.8-11.5-2.1-1.5-.5-2.9-1.2-4.2-2v1.2c1.3.8 2.3 2 3.2 3.3 1.9 2.8 3.1 6.2 3.2 9.6.1 3.2-.8 6.4-2.6 8.9.4 1 .7 1.9 1.2 2.8.3.7.7 1.5 1.5 1.7.5.2 1 0 1.5-.1 8.6-2.1 17.7-2.2 26.4-.3.6-1.2 1-2.4 1.5-3.6-1.5-1.2-2.6-3-3.2-4.8-.7-2.1-.8-4.3-.7-6.5 0-.9.1-1.8.3-2.7.7-3.8 3.4-7.4 6.6-9.5v-.7c-1.6 1.2-3.2 2.2-5 3z"/><path class="st26" d="M220.1 309.4c-.9-1.3-1.9-2.5-3.2-3.3 0 7.5 1.1 14.9 3.7 21.8 1.8-2.6 2.7-5.8 2.6-8.9 0-3.5-1.2-6.8-3.1-9.6zM249 314.4c-.2.9-.2 1.8-.3 2.7-.1 2.2 0 4.4.7 6.5.6 1.9 1.7 3.6 3.2 4.8 2.4-6.7 2.8-14.2 3-21.4v-2.1c-3.2 2.1-5.9 5.8-6.6 9.5z"/><g><path class="st30" d="M234.7 293.4c.3-1.2.4-2.5.1-3.7-.3-1.1-.9-2.2-1.5-3.2-.4-.6-.9-1.2-1.5-1.6-.5-.3-1-.4-1.6-.5-1.8-.4-3.8-.3-5.4.6-1.8 1-2.9 2.9-3.4 4.8-.2.9-.3 1.8-.2 2.8.3 3.2 3.2 5.9 6.4 6 3.1.2 6.2-2.1 7.1-5.2zM250.2 289.1c-.7-2.6-3.4-4.6-6.1-4.5-2.7.1-5.3 2-6.2 4.6-.4 1.1-.5 2.2-.4 3.4.3 2.4 1.9 4.6 4.2 5.3.9.3 1.9.4 2.9.4.8 0 1.5.1 2.2-.1 1.3-.3 2.4-1.4 2.9-2.7.6-1.3.7-2.7.7-4 0-.8 0-1.7-.2-2.4z"/></g><path class="st21" d="M244.4 291.5c-.1-.1-.2-.1-.4-.1-.3 0-.6.2-.8.4-.2.3-.2.6 0 .9.3.4.9.5 1.3.1.1-.1.2-.2.2-.4 0-.3-.1-.7-.3-.9zM228 291.5c-.1-.1-.2-.1-.4-.1-.3 0-.6.2-.8.4-.2.3-.2.6 0 .9.3.4.9.5 1.3.1.1-.1.2-.2.2-.4.1-.3 0-.7-.3-.9zM236.2 304.4c-.2.1-.3.3-.6.3-.2 0-.4-.2-.6-.4-.9-1-1.6-2.3-1.9-3.7 0-.2-.1-.5 0-.7.1-.2.2-.5.4-.5h.4c1.5.3 3.1.4 4.6.3-.1 1.8-1 3.5-2.3 4.7z"/><g><path class="st29" d="M251.2 302.4c.4-.2.7-.5.9-.9.2-.5.2-1.1.1-1.6-.1-.3-.2-.7-.4-.9-.2-.2-.6-.3-.9-.3-.5 0-1 0-1.5.2s-.9.6-1.1 1c-.3.8-.1 1.7.6 2.2.6.6 1.6.7 2.3.3zM221 299.5c-.3.5-.5 1.1-.3 1.7.1.6.5 1.1 1.1 1.4l.9.3c.3.1.7.1 1 0 .4-.1.7-.4.9-.7.1-.2.2-.3.3-.5.1-.3.1-.6.1-.9 0-.4 0-.8-.2-1.1-.1-.2-.3-.4-.5-.5-.6-.3-1.3-.4-2-.2-.8 0-.9-.1-1.3.5z"/></g><g><path class="st26" d="M228.9 313h-.2c-.2-.1-.2-.2-.3-.3-.3-.5-.6-1.1-.8-1.6 0-.1 0-.2.1-.3.1 0 .2 0 .3.1.2.5.5 1.1.8 1.5l.1.1s.1 0 .2-.1c.4-.3.8-.7 1.1-1.2.1-.1.2-.1.3-.1.1.1.1.2.1.3-.3.5-.7.9-1.2 1.3-.1.1-.3.3-.5.3zM232 314.7c-.5-.1-.7-.6-.8-.8l-.2-.7c0-.1 0-.2.1-.3.1 0 .2 0 .3.1l.3.8c.1.2.2.5.3.5s.3-.1.4-.2c.4-.3.7-.6.9-1 .1-.1.2-.1.3-.1.1.1.1.2.1.3-.3.4-.6.8-1 1.1-.3.2-.5.3-.7.3zM234.9 313.5s-.1 0 0 0c-.2 0-.3-.1-.3-.2-.4-.5-.8-1.1-1-1.8 0-.1 0-.2.1-.3.1 0 .2 0 .3.1.2.6.5 1.1.9 1.6.4-.4.7-.9.9-1.4 0-.1.2-.2.3-.1.1 0 .2.2.1.3-.2.6-.6 1.1-1 1.5 0 .1-.2.3-.3.3zM234.6 317.2c-.1 0-.3 0-.4-.1-.6-.4-.7-1.2-.7-1.7 0-.1.1-.2.2-.2s.2.1.2.2c0 .3 0 1 .5 1.4.1.1.2.1.2.1.1 0 .2-.2.4-.3l.7-1.1c.1-.1.2-.1.3-.1.1.1.1.2.1.3l-.7 1.1c-.2 0-.4.4-.8.4zM231.4 318.5s-.1 0 0 0c-.2 0-.4-.2-.4-.2-.4-.5-.8-1.1-1-1.7 0-.1 0-.2.1-.3.1 0 .2 0 .3.1.2.6.5 1.1.9 1.5l.1.1.2-.1c.3-.4.6-.8.8-1.2.1-.1.2-.1.3-.1.1.1.1.2.1.3-.2.5-.5.9-.9 1.3-.1.1-.3.3-.5.3zM234.5 320.6s-.1 0-.1-.1c-.5-.4-.8-1-1-1.6 0-.1 0-.2.1-.3.1 0 .2 0 .3.1.1.4.4.9.7 1.2l.5-.7c.1-.1.2-.1.3-.1.1.1.1.2.1.3l-.7 1.2h-.2zM237.4 319.7h-.2c-.2-.1-.4-.3-.5-.4l-.7-1.1c-.1-.1 0-.2.1-.3.1-.1.2 0 .3.1l.7 1.1c.1.1.1.2.2.3.1 0 .3-.2.4-.3l.6-.9c.1-.1.2-.1.3-.1.1.1.1.2.1.3l-.6.9c-.2.2-.5.4-.7.4zM236.8 323c-.2 0-.4-.1-.6-.3-.3-.3-.5-.7-.6-1.1 0-.1 0-.2.1-.3.1 0 .2 0 .3.1.1.3.3.7.5.9.1.1.2.2.3.2.1 0 .2-.2.3-.3l.6-1c.1-.1.2-.1.3-.1.1.1.1.2.1.3l-.6 1c-.1.3-.3.6-.7.6zM238.5 315.4c-.2 0-.3-.1-.3-.2-.3-.4-.6-.8-.8-1.2 0-.1 0-.2.1-.3.1 0 .2 0 .3.1.2.4.4.8.7 1.1l.1-.1.5-.7c.1-.1.2-.1.3-.1.1.1.1.2.1.3l-.5.7c-.2.4-.3.4-.5.4zM241.1 314.4c-.8-.4-1.3-1-1.6-1.6 0-.1 0-.2.1-.3.1 0 .2 0 .3.1.2.5.6 1 1.1 1.3.3-.4.5-.8.6-1.2 0-.1.2-.2.3-.1.1 0 .2.2.1.3-.2.5-.5 1-.9 1.5.2 0 .1 0 0 0zM243.8 312.3c-.1 0-.2-.1-.3-.1l-1.2-1.3c-.1-.1-.1-.2 0-.3s.2-.1.3 0l1.2 1.3c.3-.4.5-.9.6-1.4 0-.1.1-.2.2-.2s.2.1.2.2c-.1.6-.3 1.2-.7 1.6 0 0-.1.1-.3.2.1-.1 0 0 0 0zM240.9 318.4c-.1 0-.2-.1-.2-.1-.5-.4-.9-1-1.1-1.6 0-.1.1-.2.2-.2s.2.1.2.2c.1.5.4 1 .8 1.3.4-.5.6-1 .8-1.5 0-.1.2-.2.3-.1.1 0 .2.2.1.3-.2.6-.5 1.2-.9 1.7 0-.1 0 0-.2 0zM241.5 322.3c-.2 0-.4-.2-.6-.5l-.3-.8c0-.1 0-.2.1-.3.1 0 .2 0 .3.1l.3.8c.1.2.2.3.2.3l.1-.1c.3-.3.6-.7.7-1.1 0-.1.1-.2.3-.1.1 0 .2.1.1.3-.1.5-.5 1-.9 1.3 0 0-.1 0-.3.1zM231.7 323.6c-.2 0-.4-.2-.5-.3l-1-1.2c-.1-.1-.1-.2 0-.3s.2-.1.3 0l1 1.2c.1.2.2.1.2.1l.1-.1c.3-.4.5-.7.6-1.2 0-.1.2-.2.3-.1.1 0 .2.2.1.3-.2.5-.4.9-.7 1.3 0 .1-.1.2-.3.2 0 .1-.1.1-.1.1zM234.9 326.4c-.2 0-.3-.2-.4-.2-.3-.3-.5-.7-.6-1.1 0-.1 0-.2.2-.2.1 0 .2 0 .2.2.1.4.2.7.5.9l.1.1s.1 0 .1-.2l.6-1c.1-.1.2-.1.3-.1.1.1.1.2.1.3l-.6 1c-.1.2-.3.3-.5.3zM227.1 315.2c-.1 0-.3-.1-.5-.3-.4-.4-.7-1-1-1.5-.1-.1 0-.2.1-.3.1 0 .2 0 .3.1.3.5.6 1 .9 1.4.1.1.2.1.2.1s0-.1.1-.1l.6-.9c.1-.1.2-.1.3-.1.1.1.1.2.1.3l-.6.9c0 .1-.1.2-.2.2-.2.2-.3.2-.3.2zM229 320.1h-.2-.1c-.4-.4-.7-.9-.9-1.5 0-.1 0-.2.1-.3.1 0 .2 0 .3.1.2.4.4.8.7 1.2l.2-.6-.1-.1c0-.1.1-.2.2-.2h.1c.1 0 .1 0 .2.1 0 .1.1.1 0 .2l-.3.8c.1 0 0 .2-.2.3zM243.8 316.3s-.1 0 0 0c-.2 0-.3-.1-.3-.2-.3-.3-.5-.7-.6-1 0-.1 0-.2.1-.3.1 0 .2 0 .3.1.1.3.3.6.5.9.4-.3.7-.6.9-1 .1-.1.2-.1.3-.1.1.1.1.2.1.3-.3.4-.6.8-1 1.1-.1.2-.2.2-.3.2z"/><g><path class="st26" d="M234.6 280.2c-.1 0-.1 0-.2-.1-.3-.4-.7-.7-1.1-1-.1-.1-.1-.2-.1-.3.1-.1.2-.1.3-.1.5.3.9.7 1.3 1.1.1.1.1.2 0 .3-.1.1-.1.1-.2.1zM236.1 280.3c-.1 0-.1 0-.2-.1-.2-.4-.5-.7-.8-1-.1-.1-.1-.2 0-.3s.2-.1.3 0c.4.3.7.7.9 1.1.1.1 0 .2-.1.3 0-.1-.1 0-.1 0zM236 282.6c-.1 0-.2-.1-.2-.2-.1-.5-.3-1-.6-1.3-.1-.1-.1-.2 0-.3s.2-.1.3 0c.4.4.6 1 .7 1.5 0 .2-.1.3-.2.3zM237.2 280.7c-.1 0-.2-.1-.2-.2-.1-.5-.2-1-.2-1.6 0-.1.1-.2.2-.2s.2.1.2.2c0 .5.1 1 .2 1.5 0 .2 0 .3-.2.3.1 0 0 0 0 0zM237.9 281.6s-.1 0 0 0c-.2 0-.2-.2-.2-.3.2-.6.5-1.1.9-1.6.1-.1.2-.1.3 0 .1.1.1.2 0 .3-.4.5-.6 1-.8 1.5 0 .1-.1.1-.2.1z"/></g><g><path class="st26" d="M219.6 310.8c-.1 0-.2-.1-.2-.1-.2-.5-.4-.9-.7-1.3-.1-.1-.1-.2 0-.3.1-.1.2-.1.3 0 .4.4.6.9.8 1.4 0 .2-.1.3-.2.3zM219.1 312.6c-.1 0-.2-.1-.2-.2-.1-.5-.4-1-.7-1.5-.1-.1 0-.2 0-.3.1-.1.2 0 .3 0 .3.5.6 1 .8 1.6 0 .3-.1.4-.2.4zM220.7 314.2c-.1 0-.2-.1-.2-.2-.1-.6-.2-1.1-.5-1.6 0-.1 0-.2.1-.3.1 0 .2 0 .3.1.2.5.4 1.1.5 1.7 0 .2 0 .3-.2.3zM219.6 316.3c-.1 0-.2-.1-.2-.2l-.1-1.5c0-.1.1-.2.2-.2s.2.1.2.2l.1 1.5s0 .1-.2.2zM220.9 317.4c-.1 0-.2-.1-.2-.2 0-.4 0-.8-.1-1.1 0-.1 0-.2.1-.3.1 0 .2 0 .3.1.1.4.2.8.2 1.3-.1.1-.2.2-.3.2zM222.2 317.3c-.1 0-.2-.1-.2-.2 0-.5-.1-.9-.3-1.3-.1-.1 0-.2.1-.3s.2 0 .3.1c.2.5.4 1 .4 1.5-.1.1-.2.2-.3.2zM221.8 320.9c-.1 0-.2-.1-.2-.2s.1-.2.1-.2l-.1-1.3c0-.1.1-.2.2-.2s.2.1.2.2l.1 1.3c0 .1 0 .3-.1.4h-.2zM220.3 320.4c-.1 0-.2-.1-.2-.2v-1.4c0-.1.1-.2.2-.2s.2.1.2.2v1.4c0 .1-.1.2-.2.2zM220.7 323.1s-.1 0 0 0c-.2-.1-.2-.2-.2-.3.2-.4.3-.9.3-1.4 0-.1.1-.2.2-.2s.2.1.2.2c0 .6-.1 1.1-.3 1.6-.1.1-.1.1-.2.1zM221.1 324.3h-.1c-.1-.1-.1-.2 0-.3.3-.4.5-.9.5-1.4 0-.1.1-.2.2-.2s.2.1.2.2c0 .6-.3 1.2-.6 1.6 0 .1-.1.1-.2.1zM219.2 319c-.1 0-.1 0-.2-.1-.3-.6-.4-1.2-.4-1.9 0-.1.1-.2.2-.2s.2.1.2.2c0 .6.1 1.2.4 1.7 0 .1 0 .2-.2.3z"/><g><path class="st26" d="M251.4 313.4c-.2-.1-.2-.2-.2-.3.1-.2.2-.4.2-.6 0-.1 0-.2.1-.3.1-.4.3-.8.6-1.1.1-.1.2-.1.3 0s.1.2 0 .3c-.3.3-.4.6-.5.9 0 .1 0 .2-.1.3-.1.3-.1.5-.3.7 0 .1 0 .1-.1.1zM251 311.6c-.2-.1-.2-.2-.2-.3l1-1.6c.1-.1.2-.1.3-.1.1.1.1.2.1.3l-1 1.6c-.1.1-.2.1-.2.1zM253.1 310.2s-.1-.1 0 0c-.2-.1-.2-.2-.2-.3l.8-1.7c0-.1.2-.1.3-.1.1 0 .1.2.1.3l-.8 1.7c-.1 0-.1.1-.2.1zM253.4 312.6c-.1 0-.2-.1-.2-.2 0-.6.1-1.1.3-1.7 0-.1.2-.2.3-.1.1 0 .2.2.1.3-.2.5-.3 1-.3 1.5 0 .1-.1.2-.2.2zM252.4 316.4c-.1 0-.2-.1-.2-.2l.1-1.8c0-.1.1-.2.2-.2s.2.1.2.2l-.1 1.8c0 .2 0 .2-.2.2zM250.2 316.1c-.1 0-.2-.1-.2-.2 0-.6 0-1.3.1-1.9 0-.1.1-.2.2-.2s.2.1.2.2c-.1.6-.1 1.2-.1 1.9 0 .1-.1.2-.2.2zM251.4 317.7c-.1 0-.2-.1-.2-.2-.1-.5-.2-1.1-.1-1.7 0-.1.1-.2.2-.2s.2.1.2.2c0 .5 0 1 .1 1.5 0 .2 0 .3-.2.4zM250.3 320.1c-.1 0-.2 0-.2-.1-.2-.6-.3-1.3-.2-2 0-.1.1-.2.2-.2s.2.1.2.2c-.1.6 0 1.2.2 1.7.1.2 0 .4-.2.4.1 0 .1 0 0 0zM251.5 320.8c-.1 0-.2-.1-.2-.2-.1-.5-.2-1.1-.2-1.7 0-.1.1-.2.2-.2s.2.1.2.2c0 .5.1 1 .2 1.6 0 .2-.1.3-.2.3zM252.9 319.2c-.1 0-.2-.1-.2-.2l.1-1.6c0-.1.1-.2.2-.2s.2.1.2.2l-.1 1.6c0 .1-.1.2-.2.2zM253.8 316.7c-.1 0-.2-.1-.2-.1 0-.1 0-.2.1-.3h.1c.1-.6.2-1.2.2-1.8 0-.1.1-.2.2-.2s.2.1.2.2c0 .7 0 1.4-.2 2 0 .1-.1.1-.1.1l-.3.1zM251.4 324.3c-.1 0-.1 0-.2-.1-.4-.5-.6-1.2-.6-1.8 0-.1.1-.2.2-.2s.2.1.2.2c0 .6.2 1.1.5 1.6.1.1 0 .2-.1.3.1 0 .1 0 0 0zM252.4 324.5c-.1 0-.1 0-.2-.1-.2-.5-.4-.9-.4-1.4 0-.1.1-.2.2-.2s.2.1.2.2c.1.5.2.9.4 1.3 0 0 0 .1-.2.2.1 0 0 0 0 0zM253.4 322.1c-.1 0-.2-.1-.2-.2v-1.2c0-.1.1-.2.2-.2s.2.1.2.2v1.2c0 .1-.1.2-.2.2z"/></g></g></g><g><path class="st21" d="M223.9 331l-.3.9c-.3 1.5-.4 3.1.2 4.5 0 .1.1.2.2.3.1.1.3.2.5.2.5 0 .9-.4 1.1-.8.2-.4.2-.9.3-1.4.1-1.4.1-2.9-.8-4-.1-.2-.3-.3-.5-.3-.3 0-.6.3-.7.6zM226.8 335.6c.2.6.7 1.2 1.3 1.1.5 0 .9-.6 1.1-1.1.4-1.3-.1-2.7-.5-3.9-.2-.6-.5-1.3-1.1-1.7-.3-.2-.7-.3-1.1-.1-.2.2-.3.5-.4.8-.1.6 0 1.3 0 2 .2.9.3 2 .7 2.9zM231.8 335.6c.4-.3.5-.8.5-1.3 0-1.6-.2-3.3-1-4.7-.2-.4-.6-.8-1-.8-.5 0-.8.6-1 1.1-.2 1.1-.1 2.2.2 3.2.2.8.5 1.6 1.1 2.1.3.4.8.6 1.2.4z"/><g><path class="st21" d="M244.3 329.9c0-.4-.1-.8-.4-1.1s-.7-.3-1.1-.3c-.2 0-.5.1-.7.3-.2.1-.2.3-.3.5-.5 1.3-.6 2.7-.5 4 0 .4.1.8.2 1.2.2.4.5.7.9.7.5.1.9-.2 1.2-.6.3-.4.3-.9.4-1.3.3-1.1.4-2.2.3-3.4zM244.3 334.3c0 .4.1.8.3 1.1s.5.6.9.6c.5 0 .9-.5 1.1-1 .6-1.4.7-3 .6-4.6 0-.4 0-.9-.3-1.3-.4-.6-1.5-.7-1.9-.1-.3.3-.3.8-.4 1.2-.2 1.3-.3 2.7-.3 4.1zM248.7 329.3c-.3.1-.5.5-.7.8-.6 1.4-.7 2.9-.8 4.4 0 .4 0 .8.1 1.1.1.4.3.7.7.8.4.2.9 0 1.2-.3.3-.3.5-.8.6-1.2.4-1.2.5-2.6.4-3.9 0-.5-.1-.9-.4-1.3-.2-.4-.7-.6-1.1-.4z"/></g></g></g><g><path class="st23" d="M242.8 272.7c-1.9-2.3-4.5-6-6.1-6.1-1.5.1-4.1 3.8-6.1 6.1-2 2.4-1.5 4.2-1.5 4.2l7.7-1 7.7 1c-.1.1.3-1.8-1.7-4.2z"/><circle class="st24" cx="236.8" cy="266.9" r="3.3"/><path class="st25" d="M240.1 266.9c0-1.8-1.5-3.3-3.3-3.3-.8 0-1.5.3-2 .7 5.7.1 4.3 5.1 4.3 5.1.6-.7 1-1.5 1-2.5z"/><g><path class="st24" d="M227.5 278.4s-1.3.2-.6 1.3 2.1.2 2.2-.2c0 0 1.1.8 2.3 0 0 0 2.9.2 3.3-.9 0 0 2.1 1.5 4.1.1 0 0 1.5 1.3 3.6.7 0 0 1.5 1.2 2.6 0 0 0 2.1.2 1.4-1.5 0 0 .5-1.6-.6-2.1-1.1-.4-2.2.6-2.2.6s-.8-1.5-2-1.5-2 .9-2 .9-1.2-1.7-2.6-1.4c-1.4.2-2.3 1.3-2.3 1.3s-.9-1.2-2.3-1c-1.4.2-1.4 2.1-1.4 2.1s-1.4-1.1-2.6-.6c-1.3.6-.9 2.2-.9 2.2z"/><path class="st25" d="M245 279.4s2.1.2 1.4-1.5c0 0 .5-1.6-.6-2.1-1.1-.4-2.2.6-2.2.6s-.7-1.3-1.7-1.5c1.6 3.1-1.3 4.4-1.3 4.5.5.1 1.2.1 1.9-.1-.1.1 1.4 1.3 2.5.1z"/></g></g><circle class="st31" cx="-57" cy="281.6" r="1.2"/><circle class="st16" cx="-57" cy="280.8" r="31.5"/><g id="XMLID_1_"><path id="XMLID_9_" class="st23" d="M-31 280.6c0 14.3-11.7 26-26 26s-26-11.7-26-26 11.7-26 26-26 26 11.6 26 26z"/><g id="XMLID_2_"><path id="XMLID_23_" class="st16" d="M-63.5 276.9c-2.1.2-2.7 2.8-2.8 4.6v.8c0 .8 0 1.5-.1 2.3 0 .3-.1 1-.2 1-.8.1-1.4-1.1-1.6-1.6-.5-1.3-.9-2.7-1.2-4.1-.2-1.5-.4-3.1-.5-4.6v-1.9-.8-.4c.2-1.1-1.4 0-1.7.4-1.7 3-1.2 6.6-1.2 9.9 0 .9 0 1.8-.2 2.7-.1.6-.2 1.7-.7 2.2-.3.3-.9 0-1.2-.1-.4-.2-.7-.7-.7-1.2-.1-.5-.6-.2-.9 0-.4.4-.8 1.1-.7 1.5.2 1.2 1.3 2.2 2.5 1.8 1.9-.6 2.7-2.9 3.2-4.7.2-.9.3-1.7.4-2.6.3 1.3.7 2.6 1.3 3.7.4.9 1.2 1.7 2.3 1.5.8-.1 1.4-1 1.8-2 .4.9 1 1.5 1.9 1.4 1.1-.1 2-1.3 2.4-2.1.5-1.1.6-2.2.6-3.3 0-1.4-.4-4.7-2.7-4.4zm.7 7.5c0 .2-.1.4-.2.6-.4 0-.7-.7-.9-1-.3-.7-.5-1.5-.6-2.3-.1-.8 0-1.6.1-2.5 0-.2.1-.4.2-.6 1.1.7 1.3 2.1 1.4 3.2.2 1 .2 1.8 0 2.6z"/><path id="XMLID_20_" class="st16" d="M-37.6 280c-2.3-.9-3.7 2.3-4 4-.4 1.6-.9 4.5 1.1 5.3 1 .4 2.1-.3 2.7-1 .7-.8 1.2-1.8 1.4-2.9.5-1.6.9-4.7-1.2-5.4zm-1.4 7.4c-.1.2-.2.4-.3.5-.3-.2-.5-1-.5-1.3-.1-.8 0-1.6.1-2.4.1-.8.4-1.6.8-2.3.1-.2.2-.3.3-.5.9 1 .6 2.5.4 3.7-.2.8-.4 1.6-.8 2.3z"/><path id="XMLID_15_" class="st16" d="M-43.9 280.4c.4-.6.9-1.2 1.3-1.8.9-1.3 1.7-2.8 1.6-4.4-.1-1.5-2.1-1.6-3.1-1.1-1.5.7-2.4 2.3-2.8 3.9-.6 2-.9 4-1 6.1-.7.9-2.3 2.7-3.4 1.9-.3-.2-.4-.6-.6-1 1-1 1.8-2 2.6-3.2.7-1.1 1.2-2.8-.1-3.6-1.1-.6-2.6.1-3.3 1-.8.9-1.1 2.1-1.2 3.3 0 .6-.1 1.7 0 2.7-.7.4-1.5.7-2.3.5-.9-.2-1.2-1.1-1.4-1.8-.2-1.1-.2-2.2 0-3.3 0-.3.1-.7.2-1 0-.1 0-.1.1-.2.5.2.8 1.1.9 1.5.2.8 2.2-.5 2-1.2-.2-.8-.5-1.5-1.4-1.9-.8-.4-1.9.3-2.4.8-1.4 1.4-1.5 3.5-1.4 5.3 0 1.2.3 2.7 1.3 3.3 1.4.9 3.3.1 4.7-.7.3.9 1 1.5 2.1 1.3 1.4-.2 2.6-1 3.7-1.9 0 1.1.3 2.2 1.1 2.6 1.2.7 2.7-.1 3.6-1.1 1.1-1.3 1.6-3.2 1.1-4.9-.6-.8-1.3-1.1-1.9-1.1zm-7.9-.9c.1-.3.2-.6.4-.9.6.1.7.9.6 1.3-.1.9-.7 1.7-1.3 2.5v-.4c-.1-.8.1-1.7.3-2.5zm7.5-4.3c.1-.3.3-.6.6-.9.9 1 0 2.4-.4 3.4-.5.9-1.1 1.9-1.7 2.7.1-.9.3-1.8.5-2.6.3-.9.6-1.8 1-2.6zm-.4 10.6c0 .1-.1.3-.2.4h-.2c-.6-.3-.6-1.5-.7-2v-1.3c.2-.3.5-.5.7-.8.5-.3.9.3 1 .9.1.8-.3 2-.6 2.8z"/></g></g><g><path class="st32" d="M-57 280.4l-1.4-8.5"/><path class="st31" d="M-56.4 272.1l-2.5-3.1-1.4 3.8z"/></g><g><path class="st32" d="M-57.8 280.8l-10.9-7.5"/><path class="st31" d="M-67.1 272l-4-.4 1.7 3.6z"/></g><circle class="st31" cx="-57" cy="281.4" r="1.7"/></svg>