<svg id="Layer_1" xmlns="http://www.w3.org/2000/svg" viewBox="-486 476 50 50"><style>.st0{fill:#92CCDB;} .st1{fill:#454C53;} .st2{fill:#DF3300;} .st3{fill:#FFD5BB;} .st4{fill:#FF7543;}</style><circle class="st0" cx="-461" cy="501" r="25"/><path class="st1" d="M-454.582 486.597l3.2.01-.04 14.1-3.2-.01z"/><path class="st2" d="M-448.9 503.1l-11.8-17.8-11.9 17.6-.2 18.3h23.8z"/><path class="st1" d="M-472.7 521.2v1.9c3.5 1.8 7.5 2.9 11.7 2.9 4.4 0 8.5-1.1 12.1-3.1v-1.6l-23.8-.1z"/><path class="st3" d="M-464.4 510c0-.8-.8-1.4-1.7-1.4s-1.7.6-1.7 1.4v6.6h3.2l.2-6.6zM-453.9 510c0-.8-.8-1.4-1.7-1.4s-1.7.6-1.7 1.4v6.6h3.2l.2-6.6z"/><path class="st1" d="M-452 510.2c0-1.8-1.8-3.2-3.6-3.2s-3.6 1.4-3.6 3.2v7.2h-3.2v-7.2c0-1.8-1.4-3.2-3.2-3.2-1.8 0-3.2 1.4-3.2 3.2v7.2h-3.9v1.9l23.8.1v-1.9h-3.2v-7.3zm-5.3-.2c0-.8.8-1.4 1.7-1.4s1.7.6 1.7 1.4v6.6h-3.2l-.2-6.6zm-10.3 0c0-.8.8-1.4 1.7-1.4s1.7.6 1.7 1.4v6.6h-3.2l-.2-6.6zM-457.3 503.2v-7.8c0-1.8-1.8-3.2-3.6-3.2s-3.6 1.4-3.6 3.2v7.8h-8.4v1.9l23.8.1v-1.9l-8.2-.1zm-5-7.7c0-.8.8-1.4 1.7-1.4s1.7.6 1.7 1.4v7.1h-3.2l-.2-7.1z"/><path class="st3" d="M-459.2 495.5c0-.8-.8-1.4-1.7-1.4s-1.7.6-1.7 1.4v7.1h3.2l.2-7.1z"/><path class="st4" d="M-448.1 501.5l-11.8-18.2c-.2-.4-.6-.5-.9-.5s-.8.1-.9.5l-12 18.1c-.4.5-.2 1.2.4 1.4.5.4 1.2.2 1.4-.4l11.1-16.8 11 16.9c.4.5.9.6 1.4.4.4-.2.6-.8.3-1.4z"/></svg>