<svg xmlns="http://www.w3.org/2000/svg" viewBox="170 277.9 380 380"><path d="M548.1 657.9c-.2-26.2 0-380 0-380h-377s.1 343.8 0 380h377z" fill="#EFD9CB"/><path fill="#FFEFE6" d="M356.2 278.2h-9.1l.4 49.9-.3 53.1.8 111.3v131.4h8.2V454.4l-.1-97.4M319.7 278.2h-8.9l.3 35.1-.3 55.5.7 116.3v137.3h8.3V445.2l-.2-101.7M300.9 278.2h-9.3l.6 69.2-.2 49.3.7 103.4v122h8.2V464.6l-.1-90.4M281.7 278.2h-9l.4 48.4-.3 52.7.7 110.5v130.4h8.3V451.9l-.2-96.7M262.3 278.2h-9.2l.5 62.1-.3 49.3.8 103.4v122h8.2V457.6l-.1-90.5M241.6 278.2h-9.2l.5 57.3-.3 49.3.7 103.3v122h8.3V452.7l-.2-90.4M221.8 278.2h-9.3l.6 74.1-.3 52.3.8 109.5v129.2h8.2V476.5l-.2-95.8M201.7 278.2h-9.4l.7 75.2-.3 50.4.8 105.8v124.8h8.2V473.3l-.2-92.5M182.2 278.2h-9.3l.6 74.2-.2 49.3.7 103.2v122h8.2V469.6l-.1-90.4M337.9 278.2h-9.2l.5 61.9-.2 49.3.7 103.3v122h8.3V457.3l-.2-90.4M449.1 278.2h-8.9l.3 37-.3 55.2.7 115.6v136.6h8.3V446.4l-.2-101.2M412.7 278.2h-8.8l.1 23.7-.2 58.1.7 121.9v143.8h8.3V440.1l-.2-106.6M393.9 278.2h-9.2l.5 51.7-.3 49.3.8 103.3v122.1h8.2V447.1l-.2-90.4M374.7 278.2h-9l.3 38.1-.2 54.8.7 114.8v135.5h8.2V446.5l-.1-100.4M430.9 278.2h-9.1l.4 44.3-.3 49.3.8 103.4v122h8.2V439.8l-.1-90.5M523 278.2h-9.2l.5 56.2-.3 49.2.7 103.4v122h8.3V451.6l-.2-90.5M541.5 278.2h-9.3l.6 70.6-.3 48.2.8 101.3v119.5h8.2V463.6l-.1-88.6M486.5 278.2h-9l.3 47.1-.2 53.7.7 112.6v132.8h8.3V453l-.2-98.5M467.7 278.2h-9.3l.6 73-.3 51.6.8 108.3v127.8h8.2V474l-.1-94.7M504.7 278.2h-9.3l.6 73.5-.2 50.2.7 105.3v124.3h8.2V471.1l-.1-92.1"/><path fill="#99887A" d="M170 593.6h380v64.3H170z"/><path fill="#FCF2ED" d="M171.5 575.3h376.1v18.4H171.5z"/><path fill="#FFF" d="M171.5 575.3h377v2.2h-377z"/><path fill="#7C6757" d="M171.4 608.7H548v1.7H171.4zM171.4 625.7h376.7v1.7H171.4zM171.4 642.7H548v1.7H171.4z"/><path d="M533.4 342.6L504.8 318c-1.1-.9-2.5-1.3-3.8-1.2-1.1 0-2.1.3-3 1l-31.7 24c-2.3 1.7-2.7 5-1 7.3 1.6 2.1 4.6 2.6 6.9 1.2l2.7 4.1c.2-.1 2.1-1.6 4.9-3.6v.1l.1 1.6 2.1 45.6 7.7.3v9.5c-1.1 1-2 4.2-2 7.9 0 4.6 1.2 8.3 2.8 8.3 1.5 0 2.8-3.7 2.8-8.3 0-3.7-.8-6.9-2-7.9v-9.4l11.2.4v25.3c-3 .5-5.2 3-5.2 6.1 0 3.4 2.8 6.2 6.2 6.2 3.4 0 6.2-2.8 6.2-6.2 0-3.2-2.4-5.9-5.6-6.2v-25.2l12.3.4 2.2-43.6.2-3.9 2.9 2.7 4.1-4.6.7.6c2.2 1.9 5.4 1.6 7.3-.5 2-2.2 1.7-5.5-.4-7.4z" opacity=".82" fill="#D6CBC5"/><g fill="#FFEFE6"><path d="M247.4 318.1v46.4h-42.6l-2.9-3.4 2.9-43 39.7-3.4M247.4 428.3h-42.6l-2.9-3.4 2.9-43 39.7-3.4 2.9 3.4"/></g><path fill="#99887A" d="M200.8 314.7h42.7v46.4h-42.7z"/><path fill="#F7EAE2" d="M206.8 321.1h30.5v33.5h-30.5z"/><path fill="#FFF" d="M210.6 325.5h23.1v24.7h-23.1z"/><path d="M229.9 337.5H228l1.4-.8c.1-.1.2-.2.1-.4-.1-.1-.2-.2-.4-.1l-2.1 1.2h-.7l1.4-.8c.1-.1.2-.2.1-.4-.1-.1-.2-.2-.4-.1l-1.6 1c-.1-.6-.3-1.1-.7-1.6l1.9-.5c.1 0 .2-.2.2-.3s-.2-.2-.3-.2l-1.6.4.5-.5h.1l2.3-.6c.1 0 .2-.2.2-.3 0-.1-.2-.2-.3-.2l-1.6.4 1.3-1.3c.1-.1.1-.4 0-.5-.1-.1-.4-.1-.5 0l-1.3 1.3.4-1.6c0-.1-.1-.3-.2-.3s-.3.1-.3.2l-.6 2.3v.1l-.5.5.4-1.6c0-.1-.1-.3-.2-.3s-.3.1-.3.2l-.5 1.9c-.5-.4-1.1-.6-1.7-.7l1.1-1.8c.1-.1 0-.3-.1-.4-.1-.1-.3 0-.4.1l-.8 1.4v-.6-.1l1.2-2.1c.1-.1 0-.3-.1-.4-.1-.1-.3 0-.4.1l-.8 1.4v-1.6c0-.2-.2-.4-.4-.4s-.4.2-.4.4v1.6l-.8-1.4c-.1-.1-.2-.2-.4-.1-.1.1-.2.2-.1.4l1.2 2.1v.7l-.8-1.4c-.1-.1-.2-.2-.4-.1-.1.1-.2.2-.1.4l1.1 1.8c-.6.1-1.2.3-1.7.7l-.5-1.9c0-.1-.2-.2-.3-.2-.1 0-.2.2-.2.3l.4 1.6-.5-.5v-.1l-.6-2.3c0-.1-.2-.2-.3-.2-.1 0-.2.2-.2.3l.4 1.6-1.1-1.1c-.1-.1-.4-.1-.5 0-.1.1-.1.4 0 .5l1.1 1.1-1.6-.4c-.1 0-.3.1-.3.2s.1.3.2.3l2.3.6h.1l.5.5-1.6-.4c-.1 0-.3.1-.3.2s.1.3.2.3l1.9.5c-.4.5-.6 1.1-.7 1.7l-1.8-1.1c-.1-.1-.3 0-.4.1-.1.1 0 .3.1.4l1.4.8h-.6-.1l-2.1-1.2c-.1-.1-.3 0-.4.1-.1.1 0 .3.1.4l1.4.8h-1.6c-.2 0-.4.2-.4.4s.2.4.4.4h1.6l-1.4.8c-.1.1-.2.2-.1.4.1.1.2.2.4.1l2.1-1.2h.7l-1.4.8c-.1.1-.2.2-.1.4.1.1.2.2.4.1l1.8-1.1c.1.6.3 1.2.7 1.7l-1.9.5c-.1 0-.2.2-.2.3 0 .1.2.2.3.2l1.6-.4-.5.5h-.1l-2.3.6c-.1 0-.2.2-.2.3s.2.2.3.2l1.6-.4-1.1 1.1c-.1.1-.1.4 0 .5.1.1.4.1.5 0l1.1-1.1-.4 1.6c0 .1.1.3.2.3s.3-.1.3-.2l.6-2.3v-.1l.5-.5-.4 1.6c0 .1.1.3.2.3s.3-.1.3-.2l.5-1.9c.5.3 1 .6 1.6.7l-1 1.6c-.1.1 0 .3.1.4.1.1.3 0 .4-.1l.8-1.4v.7l-1.2 2.1c-.1.1 0 .3.1.4.1.1.3 0 .4-.1l.8-1.4v1.8c0 .2.2.4.4.4s.4-.2.4-.4v-1.8l.8 1.4c.1.1.2.2.4.1.1-.1.2-.2.1-.4l-1.2-2.1v-.7l.8 1.4c.1.1.2.2.4.1.1-.1.2-.2.1-.4l-1-1.6c.6-.1 1.1-.3 1.6-.7l.5 1.9c0 .1.2.2.3.2.1 0 .2-.2.2-.3l-.4-1.6.5.5v.1l.6 2.3c0 .1.2.2.3.2.1 0 .2-.2.2-.3l-.4-1.6 1.3 1.3c.1.1.4.1.5 0 .1-.1.1-.4 0-.5l-1.3-1.3 1.6.4c.1 0 .3-.1.3-.2s-.1-.3-.2-.3l-2.3-.6h-.1l-.5-.5 1.6.4c.1 0 .3-.1.3-.2s-.1-.3-.2-.3l-1.9-.5c.3-.5.6-1 .7-1.6l1.6 1c.1.1.3 0 .4-.1.1-.1 0-.3-.1-.4l-1.4-.8h.7l2.1 1.2c.1.1.3 0 .4-.1.1-.1 0-.3-.1-.4l-1.4-.8h1.8c.2 0 .4-.2.4-.4s-.1-.4-.3-.4zm-7.4 3.7v-2c.1 0 .2-.1.3-.1l1.4 1.4c-.5.4-1.1.6-1.7.7zm-2.5-.7l1.4-1.4c.1.1.2.1.3.1v2c-.6-.1-1.2-.3-1.7-.7zm5.4-3h-2c0-.1-.1-.2-.1-.3l1.4-1.4c.4.5.6 1.1.7 1.7zm-2.6-.8c-.1-.1-.2-.1-.3-.1v-2c.6.1 1.2.3 1.7.7l-1.4 1.4zm-1.1-2.1v2c-.1 0-.2.1-.3.1l-1.4-1.4c.5-.4 1.1-.6 1.7-.7zm-2.2 1.2l1.4 1.4c-.1.1-.1.2-.1.3h-2c.1-.6.3-1.2.7-1.7zm1.3 2.5c0 .1.1.2.1.3l-1.4 1.4c-.4-.5-.6-1.1-.7-1.7h2zm3.9 1.7l-1.4-1.4c.1-.1.1-.2.1-.3h2c-.1.6-.3 1.2-.7 1.7z" fill="#EA3131"/><path fill="#99887A" d="M200.8 378.5h42.7v46.4h-42.7z"/><path fill="#F7EAE2" d="M206.8 385h30.5v33.5h-30.5z"/><path fill="#FFF" d="M210.6 389.4h23.1v24.7h-23.1z"/><path d="M229.9 401.4H228l1.4-.8c.1-.1.2-.2.1-.4-.1-.1-.2-.2-.4-.1l-2.1 1.2h-.7l1.4-.8c.1-.1.2-.2.1-.4-.1-.1-.2-.2-.4-.1l-1.6 1c-.1-.6-.3-1.1-.7-1.6l1.9-.5c.1 0 .2-.2.2-.3 0-.1-.2-.2-.3-.2l-1.6.4.5-.5h.1l2.3-.6c.1 0 .2-.2.2-.3 0-.1-.2-.2-.3-.2l-1.6.4 1.3-1.3c.1-.1.1-.4 0-.5-.1-.1-.4-.1-.5 0l-1.3 1.3.4-1.6c0-.1-.1-.3-.2-.3s-.3.1-.3.2l-.6 2.3v.1l-.5.5.4-1.6c0-.1-.1-.3-.2-.3s-.3.1-.3.2l-.5 1.9c-.5-.4-1.1-.6-1.7-.7l1.1-1.8c.1-.1 0-.3-.1-.4-.1-.1-.3 0-.4.1l-.8 1.4v-.6-.1l1.2-2.1c.1-.1 0-.3-.1-.4-.1-.1-.3 0-.4.1l-.8 1.4V394c0-.2-.2-.4-.4-.4s-.4.2-.4.4v1.6l-.8-1.4c-.1-.1-.2-.2-.4-.1-.1.1-.2.2-.1.4l1.2 2.1v.7l-.8-1.4c-.1-.1-.2-.2-.4-.1-.1.1-.2.2-.1.4l1.1 1.8c-.6.1-1.2.3-1.7.7l-.5-1.9c0-.1-.2-.2-.3-.2-.1 0-.2.2-.2.3l.4 1.6-.5-.5v-.1l-.6-2.3c0-.1-.2-.2-.3-.2-.1 0-.2.2-.2.3l.4 1.6-1.1-1.1c-.1-.1-.4-.1-.5 0-.1.1-.1.4 0 .5l1.1 1.1-1.6-.4c-.1 0-.3.1-.3.2s.1.3.2.3l2.3.6h.1l.5.5-1.6-.4c-.1 0-.3.1-.3.2s.1.3.2.3l1.9.5c-.4.5-.6 1.1-.7 1.7l-1.8-1.1c-.1-.1-.3 0-.4.1-.1.1 0 .3.1.4l1.4.8h-.6-.1l-2.1-1.2c-.1-.1-.3 0-.4.1-.1.1 0 .3.1.4l1.4.8h-1.6c-.2 0-.4.2-.4.4s.2.4.4.4h1.6l-1.4.8c-.1.1-.2.2-.1.4.1.1.2.2.4.1l2.1-1.2h.7l-1.4.8c-.1.1-.2.2-.1.4.1.1.2.2.4.1l1.8-1.1c.1.6.3 1.2.7 1.7l-1.9.5c-.1 0-.2.2-.2.3 0 .1.2.2.3.2l1.6-.4-.5.5h-.1l-2.3.6c-.1 0-.2.2-.2.3s.2.2.3.2l1.6-.4-1.1 1.1c-.1.1-.1.4 0 .5.1.1.4.1.5 0l1.1-1.1-.4 1.6c0 .1.1.3.2.3s.3-.1.3-.2l.6-2.3v-.1l.5-.5-.4 1.6c0 .1.1.3.2.3s.3-.1.3-.2l.5-1.9c.5.3 1 .6 1.6.7l-1 1.6c-.1.1 0 .3.1.4.1.1.3 0 .4-.1l.8-1.4v.7l-1.2 2.1c-.1.1 0 .3.1.4.1.1.3 0 .4-.1l.8-1.4v1.8c0 .2.2.4.4.4s.4-.2.4-.4v-1.8l.8 1.4c.1.1.2.2.4.1.1-.1.2-.2.1-.4l-1.2-2.1V406l.8 1.4c.1.1.2.2.4.1.1-.1.2-.2.1-.4l-1-1.6c.6-.1 1.1-.3 1.6-.7l.5 1.9c0 .1.2.2.3.2.1 0 .2-.2.2-.3l-.4-1.6.5.5v.1l.6 2.3c0 .1.2.2.3.2.1 0 .2-.2.2-.3l-.4-1.6 1.3 1.3c.1.1.4.1.5 0 .1-.1.1-.4 0-.5l-1.3-1.3 1.6.4c.1 0 .3-.1.3-.2s-.1-.3-.2-.3l-2.2-.6h-.1l-.5-.5 1.6.4c.1 0 .3-.1.3-.2s-.1-.3-.2-.3l-1.9-.5c.3-.5.6-1 .7-1.6l1.6 1c.1.1.3 0 .4-.1.1-.1 0-.3-.1-.4l-1.4-.8h.7l2.1 1.2c.1.1.3 0 .4-.1.1-.1 0-.3-.1-.4l-1.4-.8h1.8c.2 0 .4-.2.4-.4-.1 0-.2-.1-.4-.1zm-7.4 3.6v-2c.1 0 .2-.1.3-.1l1.4 1.4c-.5.4-1.1.6-1.7.7zm-2.5-.7l1.4-1.4c.1.1.2.1.3.1v2c-.6-.1-1.2-.3-1.7-.7zm5.4-2.9h-2c0-.1-.1-.2-.1-.3l1.4-1.4c.4.4.6 1 .7 1.7zm-2.6-.9c-.1-.1-.2-.1-.3-.1v-2c.6.1 1.2.3 1.7.7l-1.4 1.4zm-1.1-2.1v2c-.1 0-.2.1-.3.1l-1.4-1.4c.5-.3 1.1-.6 1.7-.7zm-2.2 1.3l1.4 1.4c-.1.1-.1.2-.1.3h-2c.1-.7.3-1.3.7-1.7zm1.3 2.4c0 .1.1.2.1.3l-1.4 1.4c-.4-.5-.6-1.1-.7-1.7h2zm3.9 1.7l-1.4-1.4c.1-.1.1-.2.1-.3h2c-.1.6-.3 1.2-.7 1.7z" fill="#0D5C74"/><path fill="#7C6757" d="M485.9 378.5h1.6v31.3h-1.6z"/><path fill="#99887A" d="M512.7 398.2l-34.4-1.2-2.5-53.6 20.6-11 19 12"/><path d="M471.2 353.3c.8-.5 26-19.1 26-19.1l20.9 19.1 4.3-4.8-25.2-21.4-28.8 21.9 2.8 4.3z" fill="#99887A"/><path fill="#7C6757" d="M476 349.8l.3 3.9 21.4-16.4 17.2 17.3.2-4-17.9-16.4"/><circle cx="495.4" cy="360" r="13" fill="#F7EAE2"/><g fill="#7C6757"><circle cx="495.3" cy="349.1" r=".8"/><circle cx="495.3" cy="371.2" r=".8"/><circle cx="489.8" cy="350.6" r=".8"/><circle cx="500.8" cy="369.7" r=".8"/><circle cx="485.7" cy="354.7" r=".8"/><circle cx="504.8" cy="365.7" r=".8"/><g><circle cx="484.3" cy="360.2" r=".8"/><circle cx="506.3" cy="360.2" r=".8"/></g><g><circle cx="485.7" cy="365.7" r=".8"/><circle cx="504.8" cy="354.7" r=".8"/></g><g><circle cx="489.8" cy="369.7" r=".8"/><circle cx="500.8" cy="350.6" r=".8"/></g></g><g fill="#7C6757"><circle cx="495.3" cy="359.9" r="1.3"/><path d="M495 351.1h.6v8h-.6zM489.8 359.6h5.2v.9h-5.2z"/></g><g><path d="M503.2 393.4c0-.3 0-.6.1-.9 1.3-11.9-3.1-15.7-7.8-15.9-4.7-.2-10.4 4.7-9.2 15.1v.9l16.9.8z" fill="#7C6757"/><path fill="#99887A" d="M494.6 376.5h1v17.9h-1z"/></g><path fill="#7C6757" d="M498.7 397.5h1.6v31.3h-1.6z"/><circle cx="499.7" cy="429.2" r="6.2" fill="#99887A"/><ellipse cx="486.8" cy="414.7" rx="2.8" ry="8.3" fill="#99887A"/><path d="M500.6 324.9l-31.7 24c-2.3 1.7-5.5 1.3-7.3-1-1.7-2.3-1.3-5.5 1-7.3l31.7-24c2.3-1.7 5.5-1.3 7.3 1 1.7 2.4 1.2 5.6-1 7.3z" fill="#0D5C74"/><path d="M529.7 341.5l-28.6-24.6c-1.1-.9-2.5-1.3-3.8-1.2v11.6l25.6 22.1c2.2 1.9 5.4 1.6 7.3-.5 1.9-2.3 1.6-5.6-.5-7.4z" fill="#0A4E5E"/></svg>