<svg xmlns="http://www.w3.org/2000/svg" viewBox="-321 311 380 380"><path fill="#F6693E" d="M-321 311H59v380h-380z"/><g fill="#F65D37"><path d="M-307.9 336.7l-13.1 17.1v-34.2M-288.2 311.2l-19.7 25.5 19.7 25.5 19.6-25.5"/><path d="M-249 311.2l-19.6 25.5 19.6 25.5 19.6-25.5M-209.8 311.2l-19.6 25.5 19.6 25.5 19.7-25.5M-170.5 311.2l-19.6 25.5 19.6 25.5 19.6-25.5M-131.3 311.2l-19.6 25.5 19.6 25.5 19.7-25.5M-92 311.2l-19.6 25.5 19.6 25.5 19.6-25.5M-52.8 311.2l-19.6 25.5 19.6 25.5 19.7-25.5M-13.5 311.2l-19.6 25.5 19.6 25.5 19.6-25.5"/><path d="M25.7 311.2L6.1 336.7l19.6 25.5 19.6-25.5"/><path d="M59 319v35.5l-13.7-17.8M-307.9 387.8l-13.1 17.1v-34.2M-288.2 362.3l-19.7 25.5 19.7 25.5 19.6-25.5"/><path d="M-249 362.3l-19.6 25.5 19.6 25.5 19.6-25.5M-209.8 362.3l-19.6 25.5 19.6 25.5 19.7-25.5M-170.5 362.3l-19.6 25.5 19.6 25.5 19.6-25.5M-131.3 362.3l-19.6 25.5 19.6 25.5 19.7-25.5M-92 362.3l-19.6 25.5 19.6 25.5 19.6-25.5M-52.8 362.3l-19.6 25.5 19.6 25.5 19.7-25.5M-13.5 362.3l-19.6 25.5 19.6 25.5 19.6-25.5"/><path d="M25.7 362.3L6.1 387.8l19.6 25.5 19.6-25.5"/><path d="M59 370.1v35.5l-13.7-17.8M-307.9 438.9L-321 456v-34.2M-288.2 413.4l-19.7 25.5 19.7 25.5 19.6-25.5"/><path d="M-249 413.4l-19.6 25.5 19.6 25.5 19.6-25.5M-209.8 413.4l-19.6 25.5 19.6 25.5 19.7-25.5M-170.5 413.4l-19.6 25.5 19.6 25.5 19.6-25.5M-131.3 413.4l-19.6 25.5 19.6 25.5 19.7-25.5M-92 413.4l-19.6 25.5 19.6 25.5 19.6-25.5M-52.8 413.4l-19.6 25.5 19.6 25.5 19.7-25.5M-13.5 413.4l-19.6 25.5 19.6 25.5 19.6-25.5"/><path d="M25.7 413.4L6.1 438.9l19.6 25.5 19.6-25.5"/><path d="M59 421.2v35.5l-13.7-17.8M-307.9 490l-13.1 17.1v-34.2M-288.2 464.5l-19.7 25.5 19.7 25.5 19.6-25.5"/><path d="M-249 464.5l-19.6 25.5 19.6 25.5 19.6-25.5M-209.8 464.5l-19.6 25.5 19.6 25.5 19.7-25.5M-170.5 464.5l-19.6 25.5 19.6 25.5 19.6-25.5M-131.3 464.5l-19.6 25.5 19.6 25.5 19.7-25.5M-92 464.5l-19.6 25.5 19.6 25.5 19.6-25.5M-52.8 464.5L-72.4 490l19.6 25.5 19.7-25.5M-13.5 464.5L-33.1 490l19.6 25.5L6.1 490M25.7 464.5L6.1 490l19.6 25.5L45.3 490M59 472.3v35.5L45.3 490M-307.9 541.1l-13.1 17.1V524M-288.2 515.6l-19.7 25.5 19.7 25.5 19.6-25.5"/><path d="M-249 515.6l-19.6 25.5 19.6 25.5 19.6-25.5M-209.8 515.6l-19.6 25.5 19.6 25.5 19.7-25.5M-170.5 515.6l-19.6 25.5 19.6 25.5 19.6-25.5M-131.3 515.6l-19.6 25.5 19.6 25.5 19.7-25.5M-92 515.6l-19.6 25.5 19.6 25.5 19.6-25.5M-52.8 515.6l-19.6 25.5 19.6 25.5 19.7-25.5M-13.5 515.6l-19.6 25.5 19.6 25.5 19.6-25.5"/><path d="M25.7 515.6L6.1 541.1l19.6 25.5 19.6-25.5"/><path d="M59 523.4v35.5l-13.7-17.8M-307.9 592.2l-13.1 17.1v-34.2M-288.2 566.7l-19.7 25.5 19.7 25.5 19.6-25.5"/><path d="M-249 566.7l-19.6 25.5 19.6 25.5 19.6-25.5M-209.8 566.7l-19.6 25.5 19.6 25.5 19.7-25.5M-170.5 566.7l-19.6 25.5 19.6 25.5 19.6-25.5M-131.3 566.7l-19.6 25.5 19.6 25.5 19.7-25.5M-92 566.7l-19.6 25.5 19.6 25.5 19.6-25.5M-52.8 566.7l-19.6 25.5 19.6 25.5 19.7-25.5M-13.5 566.7l-19.6 25.5 19.6 25.5 19.6-25.5"/><path d="M25.7 566.7L6.1 592.2l19.6 25.5 19.6-25.5"/><path d="M59 574.5V610l-13.7-17.8M-307.9 643.3l-13.1 17.1v-34.2M-288.2 617.8l-19.7 25.5 19.7 25.5 19.6-25.5"/><path d="M-249 617.8l-19.6 25.5 19.6 25.5 19.6-25.5M-209.8 617.8l-19.6 25.5 19.6 25.5 19.7-25.5M-170.5 617.8l-19.6 25.5 19.6 25.5 19.6-25.5M-131.3 617.8l-19.6 25.5 19.6 25.5 19.7-25.5M-92 617.8l-19.6 25.5 19.6 25.5 19.6-25.5M-52.8 617.8l-19.6 25.5 19.6 25.5 19.7-25.5M-13.5 617.8l-19.6 25.5 19.6 25.5 19.6-25.5"/><path d="M25.7 617.8L6.1 643.3l19.6 25.5 19.6-25.5M59 625.6v35.5l-13.7-17.8"/></g><path fill="#FFFFEB" d="M-321 645.4H59v10.2h-380z"/><path fill="#F6C79A" d="M-321 647.6H59v1.2h-380z"/><path fill="#F5C175" d="M-321 655.6H59V691h-380z"/><path d="M-186.4 414.4l.1-1h-25.3s-.2.7-.5 2.1h-57.5c-.2-1.3-.3-2.1-.3-2.1h-29.5c-3.3-5.6-12.9-.4-11.9 5.3 1.1 6.4 9 9.5 11.9 4.5l9.5 124.4c-.9.4-1.4.9-1.4.9l.3 6.9h.8V601l4.2-.5.7-8.1.8 7.9 3.1-.4v-2.7l1.1 2.6 2.7-.3s-1.1-26.3-9.6-44h1l1.9-5.5h81.7l1.9 5.5h1c-8.5 17.7-9.6 44-9.6 44l12.7 1.6v-45.6h.8l.3-6.9s-.5-.5-1.4-.9l9.7-126.3h.1c2 8.7 13.8 3.1 12.7-3.3-.8-6.8-9.5-9.9-12-3.7zM50.8 419c-1.1-6.7-9.8-9.7-12.3-3.6l.1-1H13.4s-.2.7-.4 2h-57.3c-.2-1.3-.3-2-.3-2H-74c-3.3-5.5-12.9-.4-11.9 5.3 1.1 6.3 8.9 9.4 11.9 4.4l9.5 123.9c-.9.4-1.4.9-1.4.9l.3 6.8h.8v45.4l4.2-.5.7-8.1.8 7.9 3.1-.4v-2.7l1.1 2.6 2.6-.3s-1.1-26.2-9.5-43.8h1l1.9-5.5h81.4l1.9 5.5h1c-8.4 17.6-9.5 43.8-9.5 43.8l2.4.3 1.2-3.7v3.8l2.3.3.4-2.3.5 1.9s1.7-1.8 1.5-1.5c-.1.2-.2 1.1-.3 2.1l4.6.6v-45.4h.8l.3-6.8s-.5-.5-1.4-.9l9.7-125.8h.1c2.1 8.7 13.9 3.1 12.8-3.2z" fill="#CF4628"/><path fill="#FFCC51" d="M-299.5 412.9h112.8v5.6h-112.8z"/><path fill="#FF9025" d="M-215.3 416.3h-51.8l-.3-1.3h52.8"/><path d="M-264.4 413.4h49.8s-38.1 1.3-49.8 0z" fill="#FF7"/><path d="M-283.8 583.7l.8 7.7 3-.4v-2.6l1.1 2.5 2.6-.3s-1.1-26.2-9.6-43.3h-2.6v44.8l4.1-.5.6-7.9zM-198.1 547.2V592l-12.2-1.6s1.1-26.2 9.6-43.3l2.6.1z" fill="#9A0916"/><path fill="#D51E23" d="M-286.6 417.1h84.3v125.6h-84.3z"/><path fill="#47090A" d="M-282.8 421.1h78.5v117.6h-78.5z"/><path d="M-257.6 497.8c-.2-.8-.5-1.7-1.1-2.2s-1.7-.6-2.2.1c-.4.5-.2 1.2-.1 1.8-.8-1.4-3-1.4-3.9-.1-.3-.8-1-1.5-1.8-1.6s-1.8.5-1.8 1.3l-.4-.4c-.2 1.3-.5 2.6-.7 3.9h.1c3.1.2 6.2.4 9.3.5.7 0 1.4.1 2-.3.9-.5.9-1.9.6-3z" fill="#600E0A"/><g fill="#600E0A"><path d="M-261.2 531.9c-1.7-.2-3.5.9-3.9 2.6-.6-.7-1.4-1.5-2.3-1.8-1-.3-2.1.1-2.5 1 0-1.4-1.1-2.7-2.5-3s-2.9.4-3.6 1.6c-.4-.7-.8-1.4-1.4-2-.7 2-1.4 4-2.1 5.9 2.7.4 6.2.6 6.8.7 3.7.2 7.5.3 11.1-.2 1.9-.3 3-.5 3.7-1.7-.4-1.5-1.7-2.8-3.3-3.1z"/><path d="M-231 533.1c-.4-1.2-1.4-2.3-2.6-2.4s-2.5 1.2-2.1 2.3c-.4-1.2-2.2-1.5-3.1-.6-.7-.8-1.2-1.9-1.9-2.8s-1.9-1.6-2.9-1.2c-1.4.5-1.7 2.3-1.6 3.7-.5-.4-1.1-.8-1.8-.9s-1.4.2-1.7.8c-.3-1-1.3-1.7-2.3-1.8-1 0-2.1.7-2.4 1.6-.1-1.2-1.5-1.9-2.6-1.5-1.4.5-1.1 2.1-1.4 3.2-.2.6-.3 1.1-.6 1.5 0 .1.1.3.1.4 0 .2 0 .4-.1.6l1.5.4c8.5.9 17.1 1 25.7.4.1-1.2.2-2.5-.2-3.7z"/></g><path d="M-258.1 451.6c-1.5.1-3 1.4-3 3-.5-.8-1.5-1.5-2.4-1.5-.3 0-.6.1-.9.3 0 1.8-.1 3.6-.2 5.4 1.1.1 2.2.1 3.2 0 1.1 0 2.2-.1 3.3-.1v-7.1zM-255.6 452.1c1.3-.2 2.3.9 3.1 1.9.3-.7 1-1.2 1.8-1.3.8 0 1.5.5 1.8 1.2.9-1 2.8-.9 3.5.3-.2-2 1.5-3.9 3.4-4 2-.1 3.9 1.7 3.9 3.7.7-.9 2.3-.6 2.7.4.1-1.3 2-1.7 3-.9 1 .8 1.2 2.3 1.3 3.6 0 .2 0 .4-.1.6-.1.1-.3.2-.5.2-8.2 1.2-16.6 1.2-24.8-.1-.2 0-.4-.1-.6-.2-.2-.2-.2-.4-.2-.7-.1-.9-.2-1.8 0-2.7.1-1 .8-1.8 1.7-2zM-227.4 458.4c-1-.3-2.1-.8-2.4-1.8-.2-.7 0-1.4.2-2.1.2-.6.4-1.2 1-1.4.5-.1 1 .2 1.3.5.3.4.5.8.8 1.3 0-1 1-1.8 1.9-1.8 1 0 1.9.6 2.4 1.5 0-1.6 1.5-2.9 3.1-3 1.6 0 3.1 1 3.8 2.4.8 1.4.9 3 .7 4.6-2.7.1-5.3.2-8 .2-1.5 0-3.2.1-4.8-.4zM-221.5 495.4c.1.1.2.2.4.3.2.1.5-.1.7-.2.7-.3 1.7.3 1.8 1.1.3-.9.6-1.9 1.2-2.7.6-.8 1.5-1.4 2.5-1.3.7 0 1.3.4 1.8.8 1.7 1.5 2 4 2.2 6.2 0 .3 0 .5-.1.7-.1.1-.3.2-.4.2-5.4 1.4-11.1 1.7-16.5.7-.6-.1-1.2-.2-1.6-.6-.7-.6-.7-1.7-.6-2.6.1-1.2.2-2.4.8-3.4.6-1 1.9-1.7 3-1.2.9.4 1.3 1.4 1.6 2.2.7-.9 2.3-1 3.2-.2zM-256.5 536.4c7.1.7 14.3 1 21.4.7 3.6-.2 3.7-.2 4.9-3.2.7-1.6 4.2-4 4.4-.7.4-.9.8-1.7 1.5-2.4s1.6-1.1 2.5-1c1.2.2 2 1.4 2.6 2.5 1.2-1 3.4-.3 3.7 1.3 1.2-.9 3.2-.5 3.8.9.9-1.3 2.7-2 4.2-1.6 1.6.4 2.8 1.9 2.9 3.5 0 .2 0 .4-.1.6s-.4.2-.6.3c-7.9 1.7-16.1.5-24-.8M-239.5 501.1c-6-.2-11.9-.5-17.9-.7.2-1.7-.1-3.3 0-5 .2-1.7 1-3.4 2.6-3.9 1.5-.5 3.2.4 3.7 1.9.5-.8 2-.5 2.1.5.5-.6 1.5-.4 1.9.2.5.6.6 1.4.6 2.1.1-.9.3-1.8.7-2.6.4-.8 1.2-1.4 2.1-1.5.9 0 1.7.5 2.1 1.3.5.7.7 1.6.9 2.4.4-.8 1.8-.8 2.1.1-.3-.4.3-1 .8-1s.9.4 1.3.7c-.2-1.5.1-3 .9-4.3.3-.5.7-1 1.3-1.2.9-.3 1.8.2 2.4.9.5.7.7 1.6.9 2.5.4 2.4.7 4.9.7 7.4-2.9.4-6.1.3-9.2.2z" fill="#600E0A"/><g fill="#600E0A"><circle cx="-243.9" cy="478.7" r="1.9"/><circle cx="-223.9" cy="435.2" r="1.9"/><circle cx="-240.7" cy="444.7" r="1.9"/><circle cx="-241.8" cy="470" r="1.1"/><circle cx="-249.2" cy="445.7" r="1.1"/><circle cx="-245.8" cy="437.1" r="1.1"/><circle cx="-223.9" cy="442.8" r="1.1"/><circle cx="-249.2" cy="472.4" r="1.5"/></g><path fill="#8F0D15" d="M-259.6 426.6h3.3v112.2h-3.3zM-232.6 426.6h3.3v112.2h-3.3z"/><path d="M-269.4 499.6c-.2 1.1-.4 2.2-.7 3.3h63.9v-3.3h-63.2zM-282.8 420.5h76.6v3.3h-76.6zM-282.9 535.5h79.8v3.3h-79.8z" fill="#8F0D15"/><path d="M-283.9 541.4c25.8-64.9 14.8-130.5 14.8-130.5h-29.2l10 130.5h4.4z" fill="#9A0916"/><path d="M-292.1 422.4s7.6 83.8 7.2 107.4c.1-.1 3.8-86.5-7.2-107.4zM-276.9 422.8s-1.8 73.5-3.4 86.3c.1 0 12.3-70.6 3.4-86.3z" fill="#D51E23"/><path d="M-264.6 456.9c0 1.1-.1 2.2-.1 3.3h58.6v-3.3h-58.5z" fill="#8F0D15"/><path d="M-202.9 541.4c-25.8-64.9-9.9-130.5-9.9-130.5h24.4l-10 130.5h-4.5z" fill="#9A0916"/><path d="M-309.1 416c-1.1-6.6 12.2-12.4 12.6-1 .3 11.5-11.3 8.7-12.6 1z" fill="#FFCC51"/><path d="M-301.5 416.8c-2.2.5-4.2 0-6-1 .6 3.3 3.4 5.3 5.7 5.3.9 0 1.6-.3 2.2-.9.9-1 1.4-2.7 1.3-4.9-.9.6-2 1.2-3.2 1.5z" fill="#FF9025"/><path d="M-176.6 415.3c1.1 6.6-12.2 12.4-12.6 1s11.3-8.7 12.6-1z" fill="#FFCC51"/><path d="M-184.2 416.8c2.2.5 4.2 0 6-1-.6 3.3-3.4 5.3-5.7 5.3-.9 0-1.6-.3-2.2-.9-.9-1-1.4-2.7-1.3-4.9.9.6 2 1.2 3.2 1.5z" fill="#FF9025"/><path d="M-186 410.9c1-1.6 6.3.7 6 1.6-.3.8-7.4.6-6-1.6z" fill="#FF7"/><path d="M-289.7 541.4s3.3-3.3 7.3 0l-2.4 6.6h-4.7l-.2-6.6z" fill="#CD1D1D"/><path d="M-197 541.4s-3.3-3.3-7.3 0l2.4 6.6h4.7l.2-6.6z" fill="#D51E23"/><circle cx="-223.7" cy="469.7" r="1.2" fill="#600E0A"/><circle cx="-222.7" cy="483.5" r="2.3" fill="#600E0A"/><circle cx="-222.9" cy="489.1" r=".9" fill="#600E0A"/><circle cx="-250.6" cy="509" r="1" fill="#600E0A"/><circle cx="-242.5" cy="513.3" r="1.8" fill="#600E0A"/><circle cx="-248.5" cy="521.3" r=".7" fill="#600E0A"/><circle cx="-222.1" cy="515.1" r="1.8" fill="#600E0A"/><circle cx="-219" cy="508.7" r=".7" fill="#600E0A"/><circle cx="-214.9" cy="522.7" r="2.1" fill="#600E0A"/><circle cx="-269.5" cy="522" r="1.5" fill="#600E0A"/><circle cx="-265.1" cy="508.2" r="1.6" fill="#600E0A"/><circle cx="-265.4" cy="515.8" r=".7" fill="#600E0A"/><circle cx="-265.7" cy="527.9" r="1.1" fill="#600E0A"/><circle cx="-237.7" cy="521.7" r="1.2" fill="#600E0A"/><path d="M-307.8 414.2c-1-1.5 4.4-5.8 6.9-4.2 2.4 1.6-5.4 6.6-6.9 4.2z" fill="#FF7"/><path fill="#9A0916" d="M-286.7 547.2l1.3-5.8 1.6.7-1.6 5.1"/><path d="M-286.1 550.4s6.3 15.6 7 34.9l-7-34.9z" fill="#CD1D1D"/><path d="M-194.2 422.4s-7.6 83.8-7.2 107.4c0-.1-3.8-86.5 7.2-107.4zM-209.4 422.8s1.8 73.5 3.4 86.3c0 0-12.2-70.6-3.4-86.3z" fill="#D51E23"/><path fill="#9A0916" d="M-199.5 547.2l-1.3-5.8-1.6.7 1.5 5.1"/><path d="M-200.2 550.4s-6.3 15.6-7 34.9l7-34.9z" fill="#CD1D1D"/><g><path fill="#FFCC51" d="M-72.6 412.9H40.2v5.6H-72.6z"/><path fill="#FF9025" d="M11.7 416.3h-51.9l-.3-1.3h52.8"/><path d="M-37.5 413.4h49.8s-38 1.3-49.8 0z" fill="#FF7"/><path d="M-56.9 583.7l.8 7.7 3-.4v-2.6l1.1 2.5 2.6-.3s-1.1-26.2-9.6-43.3h-2.6v44.8l4.1-.5.6-7.9zM26.2 547.2c-8.5 17.1-9.6 43.3-9.6 43.3l3.5.4 1.2-3.6v3.8l2.3.3.4-2.2.5 1.9s1.7-1.8 1.5-1.5c-.1.2-.2 1.1-.3 2.1l3.2.4v-44.9h-2.7z" fill="#9A0916"/><path fill="#D51E23" d="M-59.7 417.1h84.3v125.6h-84.3z"/><path fill="#47090A" d="M-55.8 421.1h78.5v117.6h-78.5z"/><path d="M-30.6 497.8c-.2-.8-.5-1.7-1.1-2.2s-1.7-.6-2.2.1c-.4.5-.2 1.2-.1 1.8-.8-1.4-3-1.4-3.9-.1-.3-.8-1-1.5-1.8-1.6s-1.8.5-1.8 1.3l-.4-.4c-.2 1.3-.5 2.6-.7 3.9h.1c3.1.2 6.2.4 9.3.5.7 0 1.4.1 2-.3.9-.5.8-1.9.6-3z" fill="#600E0A"/><g fill="#600E0A"><path d="M-34.2 531.9c-1.7-.2-3.5.9-3.9 2.6-.6-.7-1.4-1.5-2.3-1.8-1-.3-2.1.1-2.5 1 0-1.4-1.1-2.7-2.5-3s-2.9.4-3.6 1.6c-.4-.7-.8-1.4-1.4-2-.7 2-1.4 4-2.1 5.9 2.7.4 6.2.6 6.8.7 3.7.2 7.5.3 11.1-.2 1.9-.3 3-.5 3.7-1.7-.5-1.5-1.8-2.8-3.3-3.1z"/><path d="M-4.1 533.1c-.4-1.2-1.4-2.3-2.6-2.4s-2.5 1.2-2.1 2.3c-.4-1.2-2.2-1.5-3.1-.6-.7-.8-1.2-1.9-1.9-2.8-.7-.9-1.9-1.6-2.9-1.2-1.4.5-1.7 2.3-1.6 3.7-.5-.4-1.1-.8-1.8-.9-.7-.1-1.4.2-1.7.8-.3-1-1.3-1.7-2.3-1.8-1 0-2.1.7-2.4 1.6-.1-1.2-1.5-1.9-2.6-1.5-1.4.5-1.1 2.1-1.4 3.2-.2.6-.3 1.1-.6 1.5 0 .1.1.3.1.4 0 .2 0 .4-.1.6l1.5.4c8.5.9 17.1 1 25.7.4.1-1.2.2-2.5-.2-3.7z"/></g><path d="M-31.1 451.6c-1.5.1-3 1.4-3 3-.5-.8-1.5-1.5-2.4-1.5-.3 0-.6.1-.9.3 0 1.8-.1 3.6-.2 5.4 1.1.1 2.2.1 3.2 0 1.1 0 2.2-.1 3.3-.1v-7.1zM-28.7 452.1c1.3-.2 2.3.9 3.1 1.9.3-.7 1-1.2 1.8-1.3.8 0 1.5.5 1.8 1.2.9-1 2.8-.9 3.5.3-.2-2 1.5-3.9 3.4-4 2-.1 3.9 1.7 3.9 3.7.7-.9 2.3-.6 2.7.4.1-1.3 2-1.7 3-.9 1 .8 1.2 2.3 1.3 3.6 0 .2 0 .4-.1.6-.1.1-.3.2-.5.2-8.2 1.2-16.6 1.2-24.8-.1-.2 0-.4-.1-.6-.2-.2-.2-.2-.4-.2-.7-.1-.9-.2-1.8 0-2.7s.8-1.8 1.7-2zM-.5 458.4c-1-.3-2.1-.8-2.4-1.8-.2-.7 0-1.4.2-2.1.2-.6.4-1.2 1-1.4.5-.1 1 .2 1.3.5.3.4.5.8.8 1.3 0-1 1-1.8 1.9-1.8 1 0 1.9.6 2.4 1.5 0-1.6 1.5-2.9 3.1-3 1.6 0 3.1 1 3.8 2.4.8 1.4.9 3 .7 4.6-2.7.1-5.3.2-8 .2-1.5 0-3.2.1-4.8-.4zM5.4 495.4c.1.1.2.2.4.3.2.1.5-.1.7-.2.7-.3 1.7.3 1.8 1.1.3-.9.6-1.9 1.2-2.7.6-.8 1.5-1.4 2.5-1.3.7 0 1.3.4 1.8.8 1.7 1.5 2 4 2.2 6.2 0 .3 0 .5-.1.7-.1.1-.3.2-.4.2-5.4 1.4-11.1 1.7-16.5.7-.6-.1-1.2-.2-1.6-.6-.7-.6-.7-1.7-.6-2.6.1-1.2.2-2.4.8-3.4.6-1 1.9-1.7 3-1.2.9.4 1.3 1.4 1.6 2.2.7-.9 2.3-1 3.2-.2zM-29.5 536.4c7.1.7 14.3 1 21.4.7 3.6-.2 3.7-.2 4.9-3.2.7-1.6 4.2-4 4.4-.7.4-.9.8-1.7 1.5-2.4s1.6-1.1 2.5-1c1.2.2 2 1.4 2.6 2.5 1.2-1 3.4-.3 3.7 1.3 1.2-.9 3.2-.5 3.8.9.9-1.3 2.7-2 4.2-1.6 1.6.4 2.8 1.9 2.9 3.5 0 .2 0 .4-.1.6s-.4.2-.6.3c-7.9 1.7-16.1.5-24-.8M-12.5 501.1c-6-.2-11.9-.5-17.9-.7.2-1.7-.1-3.3 0-5 .2-1.7 1-3.4 2.6-3.9 1.5-.5 3.2.4 3.7 1.9.5-.8 2-.5 2.1.5.5-.6 1.5-.4 1.9.2.5.6.6 1.4.6 2.1.1-.9.3-1.8.7-2.6.4-.8 1.2-1.4 2.1-1.5.9 0 1.7.5 2.1 1.3.5.7.7 1.6.9 2.4.4-.8 1.8-.8 2.1.1-.3-.4.3-1 .8-1s.9.4 1.3.7c-.2-1.5.1-3 .9-4.3.3-.5.7-1 1.3-1.2.9-.3 1.8.2 2.4.9.5.7.7 1.6.9 2.5.4 2.4.7 4.9.7 7.4-3 .4-6.1.3-9.2.2z" fill="#600E0A"/><g fill="#600E0A"><circle cx="-17" cy="478.7" r="1.9"/><circle cx="3" cy="435.2" r="1.9"/><circle cx="-13.8" cy="444.7" r="1.9"/><circle cx="-14.8" cy="470" r="1.1"/><circle cx="-22.3" cy="445.7" r="1.1"/><circle cx="-18.9" cy="437.1" r="1.1"/><circle cx="3" cy="442.8" r="1.1"/><circle cx="-22.3" cy="472.4" r="1.5"/></g><path fill="#8F0D15" d="M-32.7 426.6h3.3v112.2h-3.3zM-5.7 426.6h3.3v112.2h-3.3z"/><path d="M-42.4 499.6c-.2 1.1-.4 2.2-.7 3.3h63.9v-3.3h-63.2zM-55.8 420.5h76.6v3.3h-76.6zM-55.9 535.5h79.8v3.3h-79.8z" fill="#8F0D15"/><path d="M-56.9 541.4c25.8-64.9 14.8-130.5 14.8-130.5h-29.2l10 130.5h4.4z" fill="#9A0916"/><path d="M-65.1 422.4s7.6 83.8 7.2 107.4c0-.1 3.8-86.5-7.2-107.4zM-49.9 422.8s-1.8 73.5-3.4 86.3c0 0 12.2-70.6 3.4-86.3z" fill="#D51E23"/><path d="M-37.6 456.9c0 1.1-.1 2.2-.1 3.3h58.6v-3.3h-58.5z" fill="#8F0D15"/><path d="M24.1 541.4c-25.8-64.9-9.9-130.5-9.9-130.5h24.4l-10 130.5h-4.5z" fill="#9A0916"/><path d="M-82.2 416c-1.1-6.6 12.2-12.4 12.6-1 .3 11.5-11.3 8.7-12.6 1z" fill="#FFCC51"/><path d="M-74.5 416.8c-2.2.5-4.2 0-6-1 .6 3.3 3.4 5.3 5.7 5.3.9 0 1.6-.3 2.2-.9.9-1 1.4-2.7 1.3-4.9-1 .6-2 1.2-3.2 1.5z" fill="#FF9025"/><path d="M50.4 415.3c1.1 6.6-12.2 12.4-12.6 1s11.3-8.7 12.6-1z" fill="#FFCC51"/><path d="M42.7 416.8c2.2.5 4.2 0 6-1-.6 3.3-3.4 5.3-5.7 5.3-.9 0-1.6-.3-2.2-.9-.9-1-1.4-2.7-1.3-4.9 1 .6 2 1.2 3.2 1.5z" fill="#FF9025"/><path d="M41 410.9c1-1.6 6.3.7 6 1.6-.3.8-7.4.6-6-1.6z" fill="#FF7"/><path d="M-62.8 541.4s3.3-3.3 7.3 0l-2.4 6.6h-4.7l-.2-6.6z" fill="#CD1D1D"/><path d="M29.9 541.4s-3.3-3.3-7.3 0L25 548h4.7l.2-6.6z" fill="#D51E23"/><circle cx="3.2" cy="469.7" r="1.2" fill="#600E0A"/><circle cx="4.3" cy="483.5" r="2.3" fill="#600E0A"/><circle cx="4.1" cy="489.1" r=".9" fill="#600E0A"/><circle cx="-23.7" cy="509" r="1" fill="#600E0A"/><circle cx="-15.6" cy="513.3" r="1.8" fill="#600E0A"/><circle cx="-21.5" cy="521.3" r=".7" fill="#600E0A"/><circle cx="4.8" cy="515.1" r="1.8" fill="#600E0A"/><circle cx="7.9" cy="508.7" r=".7" fill="#600E0A"/><circle cx="12" cy="522.7" r="2.1" fill="#600E0A"/><circle cx="-42.6" cy="522" r="1.5" fill="#600E0A"/><circle cx="-38.2" cy="508.2" r="1.6" fill="#600E0A"/><circle cx="-38.5" cy="515.8" r=".7" fill="#600E0A"/><circle cx="-38.8" cy="527.9" r="1.1" fill="#600E0A"/><circle cx="-10.7" cy="521.7" r="1.2" fill="#600E0A"/><path d="M-80.9 414.2c-1-1.5 4.4-5.8 6.9-4.2s-5.3 6.6-6.9 4.2z" fill="#FF7"/><path fill="#9A0916" d="M-59.8 547.2l1.3-5.8 1.6.7-1.5 5.1"/><path d="M-59.1 550.4s6.3 15.6 7 34.9l-7-34.9z" fill="#CD1D1D"/><path d="M32.8 422.4s-7.6 83.8-7.2 107.4c-.1-.1-3.8-86.5 7.2-107.4zM17.6 422.8s1.8 73.5 3.4 86.3c-.1 0-12.3-70.6-3.4-86.3z" fill="#D51E23"/><path fill="#9A0916" d="M27.4 547.2l-1.3-5.8-1.6.7 1.6 5.1"/><path d="M26.8 550.4s-6.3 15.6-7 34.9l7-34.9z" fill="#CD1D1D"/></g></svg>