<svg xmlns="http://www.w3.org/2000/svg" viewBox="120 -173 380 380"><path fill="none" d="M120-173h380v380H120z"/><path fill="#183C50" d="M120-173h380v380H120z"/><path fill="none" d="M120-173h380v380H120z"/><path fill="#FFF" d="M119.5 123.6H500V207H119.5z"/><path fill="none" d="M120-173h380v380H120z"/><g fill="#FFF"><path d="M123.4 123.6h37s-20.5-14.2-37 0zM463.8 124.7h37c.2 0-20.5-14.1-37 0zM172.4 123.6h13.9c-.1 0-7.1-8.6-13.9 0zM210.7 124.1H245s-17-9.6-34.3 0zM329.6 123.5h25.2c.1 0-12.6-8.6-25.2 0zM383.4 123.9h13.9c-.2 0-7.1-8.5-13.9 0z"/></g><path fill="none" d="M120-173h380v380H120z"/><g opacity=".6" fill="#FFF"><circle cx="160.1" cy="-130.2" r="2.1"/><circle cx="253" cy="-100.9" r="2.1"/><circle cx="220" cy="-144.8" r="2.1"/><circle cx="263.7" cy="-115.1" r="2.1"/><circle cx="197.6" cy="-148.1" r="2.1"/><circle cx="154.6" cy="-159.1" r="2.1"/><circle cx="160.1" cy="-150.6" r="2.1"/><circle cx="357.5" cy="-148.6" r="2.1"/><circle cx="130.4" cy="-158.6" r="2.1"/><circle cx="339.9" cy="-124.6" r="2.1"/><circle cx="329.1" cy="-47.1" r="2.1"/><circle cx="340.6" cy="-92.5" r="2.1" opacity=".1"/><circle cx="362.1" cy="-158" r="2.1"/><circle cx="295.4" cy="-136.9" r="2.1"/><circle cx="131.1" cy="-103" r="2.1"/><circle cx="324.2" cy="-139.1" r="3"/><circle cx="316.6" cy="-124.6" r="3"/><circle cx="289.5" cy="-121.6" r="3" opacity=".5"/><circle cx="327.8" cy="-155.3" r="3" opacity=".5"/><circle cx="348.5" cy="-77.9" r="3" opacity=".1"/><circle cx="310.4" cy="-95.2" r="3" opacity=".1"/><circle cx="351.5" cy="-109.2" r="3" opacity=".5"/><circle cx="216.1" cy="-106.2" r="3" opacity=".5"/><circle cx="373.2" cy="-85.9" r="3" opacity=".1"/><circle cx="280.1" cy="-142" r="3" opacity=".5"/><circle cx="209.5" cy="-128.9" r="3" opacity=".5"/><circle cx="181.1" cy="-131.9" r="3" opacity=".5"/><circle cx="185.4" cy="-104.5" r="3" opacity=".5"/><circle cx="170.9" cy="-79.8" r="3" opacity=".5"/><circle cx="177.7" cy="-161" r="3" opacity=".5"/><circle cx="139.6" cy="-124.6" r="3" opacity=".5"/><circle cx="150.4" cy="-76.7" r="3" opacity=".5"/><circle cx="273.6" cy="-83.3" r="3" opacity=".1"/><circle cx="223.1" cy="-122.5" r="3"/><circle cx="237.5" cy="-139" r="3"/><circle cx="188.6" cy="-82.8" r="3"/><circle cx="340.6" cy="-150.6" r="3"/><circle cx="134.9" cy="-143" r="3"/><circle cx="261.7" cy="-136" r="3"/><circle cx="167.9" cy="-100.9" r="3"/><circle cx="183.2" cy="-150.2" r="2.1"/><circle cx="195.4" cy="-123.4" r="2.1" opacity=".3"/><circle cx="148.6" cy="-152.3" r="2.1" opacity=".3"/><circle cx="148.6" cy="-112.3" r="2.1" opacity=".3"/><circle cx="273.6" cy="-114.4" r="2.1" opacity=".3"/><circle cx="230.2" cy="-100.9" r="2.1" opacity=".3"/><circle cx="205.4" cy="-97.9" r="2.1" opacity=".3"/><circle cx="286.4" cy="-154.4" r="2.1" opacity=".3"/><circle cx="205.4" cy="-167.8" r="2.1" opacity=".3"/><circle cx="170.9" cy="-167" r="2.1" opacity=".3"/><circle cx="301.1" cy="-98.7" r="2.1" opacity=".1"/><circle cx="270.1" cy="-63.1" r="2.1" opacity=".3"/><circle cx="231.1" cy="-74.6" r="2.1" opacity=".1"/><circle cx="181.1" cy="-65.4" r="2.1" opacity=".3"/><circle cx="148.6" cy="-79.8" r="2.1" opacity=".3"/><circle cx="364.2" cy="-72.9" r="2.1" opacity=".1"/><circle cx="362.2" cy="-130.2" r="2.1" opacity=".3"/><circle cx="310.4" cy="-147.5" r="2.1" opacity=".3"/><circle cx="248.5" cy="-70.3" r="2.1" opacity=".3"/><circle cx="240" cy="-126.7" r="2.1" opacity=".3"/><circle cx="395.8" cy="-117.1" r="2.1"/><circle cx="489.5" cy="-150.7" r="2.1"/><circle cx="471.8" cy="-126.6" r="2.1"/><circle cx="472.5" cy="-94.5" r="2.1"/><circle cx="494" cy="-160" r="2.1"/><circle cx="427.4" cy="-138.9" r="2.1"/><circle cx="456.1" cy="-141.1" r="3"/><circle cx="448.6" cy="-126.6" r="3"/><circle cx="421.5" cy="-123.6" r="3" opacity=".5"/><circle cx="459.8" cy="-157.3" r="3" opacity=".5"/><circle cx="442.4" cy="-97.2" r="3" opacity=".5"/><circle cx="483.5" cy="-111.2" r="3" opacity=".5"/><circle cx="484.5" cy="-51.2" r="3" opacity=".5"/><circle cx="412" cy="-144.1" r="3" opacity=".5"/><circle cx="405.6" cy="-85.3" r="3" opacity=".1"/><circle cx="472.5" cy="-152.6" r="3"/><circle cx="478.5" cy="-72.7" r="3"/><circle cx="393.8" cy="-138.1" r="3"/><circle cx="405.6" cy="-116.4" r="2.1" opacity=".3"/><circle cx="418.4" cy="-156.4" r="2.1" opacity=".3"/><circle cx="433" cy="-100.7" r="2.1" opacity=".3"/><circle cx="265.9" cy="-155.3" r="2.1" opacity=".3"/><path d="M494.2-134.3c-1.2 0-2.1.9-2.1 2.1s.9 2.1 2.1 2.1c.9 0 1.6-.5 2-1.3v-1.6c-.4-.8-1-1.3-2-1.3z" opacity=".3"/><circle cx="442.4" cy="-149.5" r="2.1" opacity=".3"/><circle cx="380.4" cy="-72.3" r="2.1" opacity=".1"/><circle cx="371.9" cy="-128.7" r="2.1" opacity=".3"/><circle cx="159.8" cy="-66.9" r="2.1"/><circle cx="252.5" cy="-37.6" r="2.1"/><circle cx="250.9" cy="-55.3" r="2.1"/><circle cx="340.2" cy="-29.2" r="2.1"/><circle cx="130.6" cy="-39.7" r="2.1"/><circle cx="311.6" cy="-72.4" r="3" opacity=".1"/><circle cx="286" cy="-63.3" r="3" opacity=".5"/><circle cx="348" cy="-14.7" r="3" opacity=".5"/><circle cx="310" cy="-31.9" r="3" opacity=".5"/><circle cx="351" cy="-45.9" r="3" opacity=".5"/><circle cx="215.7" cy="-42.9" r="3" opacity=".5"/><circle cx="372.9" cy="-22.6" r="3" opacity=".5"/><circle cx="209.1" cy="-65.6" r="3" opacity=".5"/><circle cx="180.7" cy="-68.6" r="3" opacity=".5"/><circle cx="184.9" cy="-41.3" r="3" opacity=".5"/><circle cx="165.4" cy="-6.4" r="3" opacity=".5"/><circle cx="139.2" cy="-61.3" r="3" opacity=".5"/><circle cx="150.4" cy="-3.3" r="3" opacity=".5"/><circle cx="273.2" cy="-20" r="3"/><circle cx="222.9" cy="-59.2" r="3"/><circle cx="188.2" cy="-19.6" r="3"/><circle cx="366.9" cy="-44" r="3"/><circle cx="167.5" cy="-37.6" r="3"/><circle cx="195.1" cy="-60.1" r="2.1" opacity=".3"/><circle cx="148.2" cy="-49" r="2.1" opacity=".3"/><circle cx="273.2" cy="-51.1" r="2.1" opacity=".3"/><circle cx="230" cy="-37.6" r="2.1" opacity=".3"/><circle cx="205" cy="-34.6" r="2.1" opacity=".3"/><circle cx="300.8" cy="-35.4" r="2.1" opacity=".3"/><circle cx="230.7" cy="-11.3" r="2.1" opacity=".3"/><circle cx="180.7" cy="-2.2" r="2.1" opacity=".3"/><circle cx="148.2" cy="-16.5" r="2.1" opacity=".3"/><circle cx="363.9" cy="-9.6" r="2.1" opacity=".3"/><circle cx="248" cy="-7" r="2.1" opacity=".3"/><circle cx="239.5" cy="-63.4" r="2.1" opacity=".3"/><circle cx="384.5" cy="-39.7" r="2.1"/><circle cx="406.4" cy="-92.5" r="2.1"/><circle cx="395.4" cy="-53.9" r="2.1"/><circle cx="471.5" cy="-63.3" r="2.1"/><circle cx="397.5" cy="-1.2" r="2.1"/><circle cx="472.2" cy="-31.2" r="2.1"/><circle cx="448.2" cy="-63.3" r="3"/><circle cx="421" cy="-60.3" r="3" opacity=".5"/><circle cx="415.1" cy="-76.8" r="3" opacity=".5"/><circle cx="487.5" cy="-32.5" r="3" opacity=".5"/><circle cx="442" cy="-33.9" r="3" opacity=".5"/><circle cx="405.2" cy="-22" r="3"/><circle cx="478.2" cy="-9.4" r="3"/><circle cx="405.2" cy="-53.1" r="2.1" opacity=".3"/><circle cx="432.8" cy="-37.4" r="2.1" opacity=".3"/><circle cx="242" cy="-157" r="2.1" opacity=".3"/><circle cx="380" cy="-9" r="2.1" opacity=".3"/><circle cx="371.5" cy="-65.5" r="2.1" opacity=".3"/><circle cx="290.4" cy="31.1" r="2.1"/><circle cx="278.9" cy="-14.3" r="2.1"/><circle cx="271" cy=".3" r="3" opacity=".5"/><circle cx="309.1" cy="-17" r="3" opacity=".5"/><circle cx="246.2" cy="-7.7" r="3" opacity=".5"/><circle cx="448.5" cy="-1.6" r="3" opacity=".5"/><circle cx="469" cy="1.5" r="3" opacity=".5"/><circle cx="345.9" cy="-5.1" r="3"/><circle cx="430.9" cy="-4.6" r="3"/><circle cx="349.4" cy="15.1" r="2.1" opacity=".3"/><circle cx="388.4" cy="3.6" r="2.1" opacity=".3"/><circle cx="435.8" cy="19.9" r="2.1" opacity=".3"/><circle cx="462.8" cy="-14" r="2.1" opacity=".3"/><circle cx="255.2" cy="5.3" r="2.1" opacity=".3"/><circle cx="371" cy="7.9" r="2.1" opacity=".3"/><circle cx="221.6" cy="13.8" r="2.1"/><circle cx="146.9" cy="-16.3" r="2.1"/><circle cx="177.2" cy="-19" r="3" opacity=".5"/><circle cx="134.9" cy="27" r="3" opacity=".5"/><circle cx="213.9" cy="-7.1" r="3"/><circle cx="140.9" cy="5.5" r="3"/><circle cx="217.5" cy="13" r="2.1" opacity=".3"/><circle cx="239.1" cy="5.9" r="2.1" opacity=".3"/><circle cx="459.8" cy="11.3" r="2.1"/><circle cx="367" cy="40.6" r="2.1"/><circle cx="368.8" cy="22.9" r="2.1"/><circle cx="280" cy="16.9" r="2.1"/><circle cx="279.2" cy="49" r="2.1"/><circle cx="488.8" cy="38.4" r="2.1"/><circle cx="303.2" cy="16.9" r="3"/><circle cx="330.5" cy="19.9" r="3" opacity=".5"/><circle cx="271.5" cy="63.5" r="3" opacity=".5"/><circle cx="309.5" cy="46.3" r="3" opacity=".5"/><circle cx="268.5" cy="32.3" r="3" opacity=".5"/><circle cx="403.8" cy="35.3" r="3" opacity=".5"/><circle cx="246.6" cy="55.6" r="3" opacity=".5"/><circle cx="410.4" cy="12.6" r="3" opacity=".5"/><circle cx="438.8" cy="9.6" r="3" opacity=".5"/><circle cx="434.5" cy="36.9" r="3" opacity=".5"/><circle cx="449" cy="61.7" r="3" opacity=".5"/><circle cx="480.2" cy="16.9" r="3" opacity=".5"/><circle cx="469.5" cy="64.8" r="3" opacity=".5"/><circle cx="346.2" cy="58.2" r="3"/><circle cx="396.6" cy="19" r="3"/><circle cx="431.2" cy="58.6" r="3"/><circle cx="252.6" cy="34.2" r="3"/><circle cx="452" cy="40.6" r="3"/><circle cx="424.5" cy="18.1" r="2.1" opacity=".3"/><circle cx="471.3" cy="29.2" r="2.1" opacity=".3"/><circle cx="346.2" cy="27.1" r="2.1" opacity=".3"/><circle cx="389.5" cy="40.6" r="2.1" opacity=".3"/><circle cx="414.5" cy="43.6" r="2.1" opacity=".3"/><circle cx="318.8" cy="42.8" r="2.1" opacity=".3"/><circle cx="388.8" cy="66.9" r="2.1" opacity=".3"/><circle cx="438.8" cy="76" r="2.1" opacity=".3"/><circle cx="471.2" cy="61.7" r="2.1" opacity=".3"/><circle cx="255.6" cy="68.6" r="2.1" opacity=".3"/><circle cx="257.6" cy="11.3" r="2.1" opacity=".3"/><circle cx="371.5" cy="71.2" r="2.1" opacity=".3"/><circle cx="380" cy="14.7" r="2.1" opacity=".3"/><circle cx="235" cy="38.5" r="2.1"/><circle cx="224.1" cy="24.3" r="2.1"/><circle cx="148.1" cy="14.9" r="2.1"/><circle cx="222" cy="77" r="2.1"/><circle cx="147.2" cy="47" r="2.1"/><circle cx="171.2" cy="14.9" r="3"/><circle cx="198.4" cy="17.9" r="3" opacity=".5"/><circle cx="131.9" cy="45.7" r="3" opacity=".5"/><circle cx="177.5" cy="44.3" r="3" opacity=".5"/><circle cx="214.2" cy="56.2" r="3"/><circle cx="141.4" cy="68.8" r="3"/><circle cx="214.2" cy="25.1" r="2.1" opacity=".3"/><circle cx="186.9" cy="40.8" r="2.1" opacity=".3"/><circle cx="239.5" cy="69.1" r="2.1" opacity=".3"/><circle cx="248" cy="12.7" r="2.1" opacity=".3"/><circle cx="347.6" cy="84.3" r="3" opacity=".5"/><circle cx="165" cy="92.6" r="3" opacity=".5"/><circle cx="150.1" cy="95.6" r="3" opacity=".5"/><circle cx="230.4" cy="87.6" r="2.1" opacity=".3"/><circle cx="180.4" cy="96.8" r="2.1" opacity=".3"/><circle cx="147.9" cy="82.4" r="2.1" opacity=".3"/><circle cx="363.5" cy="89.3" r="2.1" opacity=".3"/><circle cx="247.6" cy="91.9" r="2.1" opacity=".3"/><circle cx="397" cy="97.8" r="2.1"/><circle cx="477.8" cy="89.5" r="3"/><circle cx="379.6" cy="89.9" r="2.1" opacity=".3"/><circle cx="290" cy="130.1" r="2.1"/><circle cx="278.5" cy="84.7" r="2.1"/><circle cx="270.6" cy="99.2" r="3" opacity=".5"/><circle cx="308.8" cy="82" r="3" opacity=".5"/><circle cx="245.9" cy="91.3" r="3" opacity=".5"/><circle cx="448.1" cy="97.3" r="3" opacity=".5"/><circle cx="468.7" cy="100.4" r="3" opacity=".5"/><circle cx="345.5" cy="93.9" r="3"/><circle cx="430.5" cy="94.3" r="3"/><circle cx="349" cy="114" r="2.1" opacity=".3"/><circle cx="388" cy="102.6" r="2.1" opacity=".3"/><circle cx="435.4" cy="118.9" r="2.1" opacity=".3"/><circle cx="462.5" cy="85" r="2.1" opacity=".3"/><circle cx="254.9" cy="104.3" r="2.1" opacity=".3"/><circle cx="370.6" cy="106.8" r="2.1" opacity=".3"/><circle cx="221.2" cy="112.7" r="2.1"/><circle cx="146.6" cy="82.7" r="2.1"/><circle cx="134.6" cy="125.9" r="3" opacity=".5"/><circle cx="213.5" cy="91.8" r="3"/><circle cx="140.6" cy="104.5" r="3"/><circle cx="217" cy="112" r="2.1" opacity=".3"/><circle cx="238.7" cy="104.8" r="2.1" opacity=".3"/><circle cx="459.3" cy="110.2" r="2.1"/><circle cx="366.5" cy="139.5" r="2.1"/><circle cx="368.4" cy="121.9" r="2.1"/><circle cx="279.5" cy="115.8" r="2.1"/><circle cx="278.9" cy="147.9" r="2.1"/><circle cx="488.5" cy="137.4" r="2.1"/><circle cx="302.9" cy="115.8" r="3"/><circle cx="330" cy="118.9" r="3" opacity=".5"/><circle cx="271" cy="162.5" r="3" opacity=".5"/><circle cx="309.1" cy="145.2" r="3" opacity=".5"/><circle cx="268" cy="131.2" r="3" opacity=".5"/><circle cx="403.4" cy="134.2" r="3" opacity=".5"/><circle cx="246.2" cy="154.5" r="3" opacity=".5"/><circle cx="410" cy="111.5" r="3" opacity=".5"/><circle cx="438.4" cy="108.5" r="3" opacity=".5"/><circle cx="434.1" cy="135.9" r="3" opacity=".5"/><circle cx="448.5" cy="160.6" r="3" opacity=".5"/><circle cx="479.8" cy="115.8" r="3" opacity=".5"/><circle cx="469" cy="163.7" r="3" opacity=".5"/><circle cx="345.9" cy="157.1" r="3"/><circle cx="396.2" cy="117.9" r="3"/><circle cx="430.9" cy="157.6" r="3"/><circle cx="252.2" cy="133.1" r="3"/><circle cx="451.5" cy="139.5" r="3"/><circle cx="424" cy="117" r="2.1" opacity=".3"/><circle cx="470.8" cy="128.1" r="2.1" opacity=".3"/><circle cx="345.9" cy="126" r="2.1" opacity=".3"/><circle cx="389.1" cy="139.5" r="2.1" opacity=".3"/><circle cx="414.1" cy="142.5" r="2.1" opacity=".3"/><circle cx="318.4" cy="141.7" r="2.1" opacity=".3"/><circle cx="388.4" cy="165.8" r="2.1" opacity=".3"/><circle cx="438.4" cy="175" r="2.1" opacity=".3"/><circle cx="470.8" cy="160.6" r="2.1" opacity=".3"/><circle cx="255.2" cy="167.5" r="2.1" opacity=".3"/><circle cx="257.2" cy="110.2" r="2.1" opacity=".3"/><circle cx="371" cy="170.1" r="2.1" opacity=".3"/><circle cx="379.5" cy="113.7" r="2.1" opacity=".3"/><circle cx="234.5" cy="137.5" r="2.1"/><circle cx="223.7" cy="123.3" r="2.1"/><circle cx="147.6" cy="113.8" r="2.1"/><circle cx="221.6" cy="176" r="2.1"/><circle cx="146.9" cy="145.9" r="2.1"/><circle cx="170.9" cy="113.8" r="3"/><circle cx="198.1" cy="116.8" r="3" opacity=".5"/><circle cx="131.6" cy="144.6" r="3" opacity=".5"/><circle cx="177.1" cy="143.2" r="3" opacity=".5"/><circle cx="213.9" cy="155.1" r="3"/><circle cx="140.9" cy="167.7" r="3"/><circle cx="213.9" cy="124" r="2.1" opacity=".3"/><circle cx="186.4" cy="139.7" r="2.1" opacity=".3"/><circle cx="239" cy="168.1" r="2.1" opacity=".3"/><circle cx="247.5" cy="111.7" r="2.1" opacity=".3"/></g><path fill="none" d="M120-173h380v380H120z"/><g fill="#2D2C2C"><path d="M180.9-133.1c-2.4-4.4-10.8-18.2-31.2-14.8-9 1.5-19.6 3.6-29.8 6.7v84.5c.7-.1 1.5-.2 2.2-.3 18.5-3.6 40.8-25.7 54.8-41.7 13.7-15.7 6.8-29.4 4-34.4z"/><path d="M151.9-74.5s14.8 8.6 20.7 3.1c5.9-5.5-8.3-14.6-8.3-14.6l-12.4 11.5zM127.8-157.7c-3.4.3-6.1 3.6-7.9 7.2v9.9l13.1-1.2s2.8-16.6-5.2-15.9z"/></g><path d="M194.5-121.3c3-7.9 8.5-19.3 6.6-23.2 0 0 0-.1-.1-.1 0 0 0-.1-.1-.1-2.3-3.7-14.8-5-23.2-6.7-8.5-1.6-12.4 2-12.4 2l12.9 17.4 7.9 20.1c.3.1 5.3-1.3 8.4-9.4z" fill="#3CC0D6"/><path d="M200.9-138.1l-1.1-.6s-4 6.7-6.7 11.7c-2.8 4.9-5.4 6.2-5.4 6.2l-1.8 7.8.5 1.2s5.1-1.4 8.2-9.5c2-5.1 5-11.7 6.3-16.8z" fill="#2B90A1"/><circle cx="200.6" cy="-144.1" r="9.3" fill="#F4F4F4"/><path d="M205.1-135.9c4.5-2.5 6.1-8.2 3.6-12.7-1-1.9-2.6-3.2-4.4-4 7.3 14-6.6 17.5-6.6 17.5 2.4.7 5 .5 7.4-.8z" fill="#E0DCDC"/><path d="M159.8-151.2s-2.4-3-4.1.3c-1.8 3.3 2.4 5.5 3.5 5 0 0-.6 3.7 3.2 5.6 0 0 3.4 7.5 6.8 6.9 0 0-.8 7.3 5.4 10.1 0 0-1.2 5.5 3.1 9.9 0 0-.9 5.3 3.5 6.4 0 0 2.3 5.3 5.5 1.4 0 0 4.7-1 4.2-4.4s-4.6-4.5-4.6-4.5 2.6-4 1-7c-1.7-3-4.9-3.7-4.9-3.7s2.4-5.2 0-8.3c-2.4-3.1-6.4-4-6.4-4s1.9-3.8-.7-7.1c-2.5-3.2-7.1-.7-7.1-.7s.8-5-2.1-7.1c-2.9-2-6.3 1.2-6.3 1.2z" fill="#F4F4F4"/><path d="M181.2-107.1s2.3 5.3 5.5 1.4c0 0 4.7-1 4.2-4.4s-4.6-4.5-4.6-4.5 2.2-3.4 1.3-6.2c-5.4 8.1-12.7 2.8-12.7 2.8.5 1.5 1.3 3.1 2.7 4.5.1.1-.9 5.4 3.6 6.4z" fill="#E0DCDC"/><path d="M172-115c-.7-6.9-7.8-8.9-7.8-8.9s2-7-3.5-11.3c-5.4-4.3-14.3.9-23.7 2.2-5 .7-10.9.1-17.1.4v67.1c5.2.2 10.4-1 15.3-3.8 12.4-6.9 16.4-19.5 22.4-26.8s15.2-12.1 14.4-18.9z" fill="#F5F5F5"/><path d="M172-115c-.2-1.4-.6-2.6-1.2-3.7 1 9.4-14.1 13.8-18.9 18-4.8 4.2-9.8 17.6-25.4 23.9-2.2.9-4.4 1.3-6.6 1.4v9.8c5.2.2 10.4-1 15.3-3.8 12.4-6.9 16.4-19.5 22.4-26.8s15.2-12 14.4-18.8z" fill="#E0DCDC"/><g fill="#58483B"><circle cx="153.4" cy="-126.8" r="1.6"/><circle cx="160.9" cy="-113.2" r="1.6"/></g><path d="M150.4-115.5s-2.7-4.4-5.7-5c0 0-5 6.6-3.1 9.9 1.9 3.4 10.1 2.6 10.1 2.6 1.1-2.9-1.3-7.5-1.3-7.5z" fill="#FCB259"/><path d="M141.6-114.6c-.5 1.5-.6 2.9 0 4.1 1.9 3.4 10.1 2.6 10.1 2.6.3-.7.3-1.6.3-2.4-6.2 1.1-10.4-4.3-10.4-4.3z" fill="#F2A149"/><g><path d="M130.9-94.7c-2.4 2.9-6.5 5.8-11 8.5v26.8c12.8-6.5 23.2-20.2 23.2-20.2l-12.2-15.1z" fill="#3CC0D6"/></g><g fill="#2B90A1"><path d="M135.8-71.4c1.2-1.2 2.4-2.4 3.3-3.5-5.9-3.4-12-12.1-13.8-14.8-1.1.8-2.3 1.6-3.6 2.4 3.7 7.3 11.1 13.5 14.1 15.9zM119.9-82.4v11.2c2.4 3.1 4.9 5.8 6.7 7.7 2-1.4 3.8-2.9 5.5-4.5-5.2-3.8-9.5-10.1-12.2-14.4zM119.9-59.4c1.3-.7 2.5-1.4 3.7-2.2-1.3-1-2.5-2.3-3.7-3.7v5.9z"/></g><path d="M160.3-83.8s-11.5-12-19.9-26.5c-7.9-14.8-12-30.9-12-30.9.6-5.7-3.4-1.1-8.5-4.2v46.1c.1.1.2.3.2.4 5.6 11 15.2 22.3 31.3 31.2 0-.1 8.5 5.2 8-5.9-.3-6.7 6.2-7.6.9-10.2z" fill="#3CC0D6"/><g fill="#2B90A1"><path d="M128.6-140.8c-1.1-.6-5.3.7-8.7-.4v4.7c1.6.5 3.3.8 5.1.3 1.8-.4 3.6-.3 4.9-.1-.7-2.2-1.1-3.8-1.3-4.5zM130.8-133.5c-3.7 1.2-7.2 1.9-10.9.9v5c.6.1 1.1.2 1.7.3 3.1.5 8.2-1.2 10.6-2.1-.6-1.5-1.1-2.9-1.4-4.1zM133.4-126c-4 3.2-9.8 3.6-13.5 2.8v4.6c1.2 0 2.5.1 3.8.4 5.6 1.1 11.5-3.3 11.5-3.3-.6-1.5-1.2-3.1-1.8-4.5zM137.1-117c-2.5 2.2-11.5 4.4-14.9 3.7-.7-.1-1.5-.2-2.3-.2v6.9h7.5c5.3-.1 12.5-4.9 12.5-4.9-1-1.7-1.8-3.6-2.8-5.5zM142.3-107.3s-7.1 6-13.5 6c-5.2.1-8 .8-8.9 1.2v.8c.1.1.1.2.1.3.9 1.7 1.8 3.5 2.9 5.2 0 0 5.2-1.3 10.7-1.8 5.3-.5 11.7-7.1 11.7-7.1-1-1.5-2-3-3-4.6zM143.9-86.1c5-1.6 8.8-6.5 8.8-6.5-1.2-1.5-2.6-3.2-3.9-5.1-2.8 3-9.5 7.1-13.7 7.6-4.1.5-7.2 3.1-7.2 3.2 1.5 1.8 3.1 3.6 4.9 5.4 2.8-2.5 6.1-3 11.1-4.6zM148.4-81.7c-6.4 2.9-9.8 5.4-9.8 5.5 2.2 1.8 4.6 3.5 7.2 5.2 0 0 4.7-5.9 8.2-7.5s6.3-5.2 6.3-5.2-1.7-1.8-4.3-4.8c.1-.1-1.1 3.8-7.6 6.8zM159.4-73.6c-.2-4.9 3.2-6.7 3-8.3-1.5 1.6-5.3 6.1-6.3 8.2s-4.1 4.8-5.3 5.7c.2.1.3.2.5.3.1-.1 8.6 5.2 8.1-5.9z"/></g><path d="M161.9-52s14.4-7.9 22.3-12.3 9.1-9.2 9.1-9.2c5.3-1.8 5.5-5 5.5-5l1.8-1-4.1-7.4-1.8 1s-2.8-1.5-7.1 2c0 0-4.8-1.6-12.7 2.7-7.9 4.3-22.3 12.3-22.3 12.3s-4.9 2.3-3 5.8c.5 1 1 1.8 1.3 2.4 1 1.8 1.4 2.6 1.4 2.6l.3.5L154-55c.4.7.8 1.5 1.3 2.4 1.8 3.6 6.6.6 6.6.6z" fill="#F4F4F4"/><path d="M203.2-81.5l-1.8-3.2-.2-.3-1.8-3.2s-.4-.9-1.1-.6c-.6.3-2.5 1.4-2.5 1.4l2.2 4.1.2.3 2.2 4.1s1.9-1 2.5-1.4c1-.3.3-1.2.3-1.2z" fill="#D6D6D6"/><path d="M161.9-52s14.4-7.9 22.3-12.3 9.1-9.2 9.1-9.2c5.3-1.8 5.5-5 5.5-5l1.8-1-2-3.7-46.1 25.3.1.2 1.4 2.6c.4.7.8 1.5 1.3 2.4 1.8 3.7 6.6.7 6.6.7z" fill="#EAEAEA"/><path d="M178.9-79.8c0-.1 0-.1-.1-.1-.2-.6 0-1.2.6-1.4 3.4-1.3 6.3-.9 6.4-.9.5.1.9.6.9 1.3-.1.5-.6.9-1.3.9 0 0-2.3-.4-5.2.7-.5.2-1.1 0-1.3-.5z" fill="#FFF"/><circle cx="173.5" cy="-69.4" r="5.4" fill="#DA1B51"/><circle cx="167.2" cy="-70.8" r="1.7" fill="#62BA47"/><path d="M178.1-74.7c-.3.2-.8 0-.9-.3-.2-.3 0-.8.3-.9.3-.2.8 0 .9.3s0 .7-.3.9z" fill="#DA1B51"/><path d="M176.1-73.6c-.4.2-.9 0-1.2-.3-.2-.4 0-.9.3-1.2.4-.2.9 0 1.2.3.2.4.1 1-.3 1.2zM176.1-76.3c-.2.1-.6 0-.7-.2-.1-.2 0-.6.2-.7.2-.1.6 0 .7.2.1.2.1.5-.2.7z" fill="#62BA47"/><circle cx="180" cy="-67.6" r="3" fill="#62BA47"/><path fill="none" d="M120-173h380v380H120z"/><g><path fill="#C4996C" d="M500.1 52.1l-1.3-.6-3 7 4.3 2"/><path d="M439 66s-5.9-.7-7.4-2.9c-1.5-2.1.1-6.5 2.3-6.4 2.2.2 2.5.4 1.9-1.7 0 0 .8-2.1 3.4.3 1.9 1.8 3 3.4 3 3.4L439 66z" fill="#2D2C2C"/><path fill="#C4996C" d="M461.3 74.8L439 66l3-7.4 22.2 9.1"/><g><path d="M480 124.8s-3.3 1.8-4.7 5.1h3.5l2-1.5v1.5h5.6s.5-2.7-.2-5l-6.2-.1z" fill="#2D2C2C"/><path d="M492.7 113.8l-.4.1-24-3.9s.8 15 13.4 15h4.7s4.6-11.1 6-11.1c.1 0 .2.1.4.2-.3-.1-.1-.2-.1-.3z" fill="#C4996C"/><path d="M475.5 111.7c.6 7.2 5.7 12.8 6.8 13.3h-.7c-11.8 0-13.2-13.2-13.4-14.8l7.3 1.5z" fill="#BA8C63"/><g><path d="M500.1 52.4c-.4-.4-.7-.7-1-1.1-9.3-9.9-23.4-5-24.2-4.7-.8.4-14.6 5.9-15.1 19.5-.5 14-1.9 35.1 6.1 44.5 7.9 9 22.6 5.2 33 1.4.1-.1.3-.1.4-.2.1-.1.3-.1.4-.2.1-.1.3-.1.4-.2v-59z" fill="#AF805A"/><path d="M500.1 109.1c-5.2 1.1-10.8 1.3-14.1-1-7.7-5.4-15-41.3-11.1-53.2 1.4-4.4-1.5-5.4-5.7-5-4.2 3-9 8.3-9.2 16.3-.5 14-2 35.1 6.1 44.4 7.9 9 22.6 5.2 33 1.4.1-.1.3-.1.4-.2.1-.1.3-.1.4-.2.1 0 .2-.1.2-.1v-2.4z" fill="#9E704D"/><g><path d="M500.1 64.8c-.3-.3-.6-.7-.9-1-7.3-7.8-19.1-3.7-19.1-3.7-.6.2-11.5 4.6-11.9 15.3-.4 11.1-3 24 3.4 31.2 6.2 7.1 17.8 4.1 26 1.1.1 0 .2-.1.3-.1s.2-.1.3-.1c.6-.2 1.3-.5 1.9-.8V64.8z" fill="#D1B29D"/><path d="M480.5 99.4c2.2 7.4 6.4 9.9 9.9 10.6-6.9 1.7-14.4 1.9-18.9-3.3-6.4-7.3-3.8-20.2-3.4-31.2.2-5.4 3.1-9.2 6-11.7-.3 15.2 2.7 23 6.4 35.6z" fill="#BFA28E"/></g><g><path d="M459.5 10.8s-7.8-4.5-7.9-6.3c-.2-1.9.1-13.5-3-14.6s-2.8 2.6-2.8 6c0 3.5-1.8 6.4-2.9 3.3-1.1-3.1-3.6-10.8-6.2-13.6-2.7-2.8-5.2.1-3.7 3.4s2.7 6.6 1.4 7.4c-2.1 1.3-4.6-1.2-5.4-4.4-.8-3.1-1.5-9.6-3.7-12s-7.3-2-6.9 5.4c.4 7.3 4.7 10.4 7.2 12.4 2.4 2 2.5 3.4.7 3.7-1.9.3-7.6 1.4-6.3 4.9 1.1 2.9 4 2.5 7.3 1.2 3.4-1.3 7.7-2.4 8.5-1s-4.1 4-5.6 5.5-1.4 4.5 2.1 4.4 7.1-4.6 9.5-4.4 5.3-.4 13.1 4.9l4.6-6.2z" fill="#885520"/><path d="M430.2 12.1c.3-.3.8-.7 1.4-1.2-.1 2 .9 4 3.1 2.6 2.2-1.3 7-4.2 9.8-4.4 2.8-.2 11 4.8 11 4.8l-.8 2.9c-7.6-5.2-10.6-4.6-12.9-4.8-2.4-.2-6 4.3-9.5 4.4-3.4.2-3.5-2.8-2.1-4.3z" fill="#724318"/><g><path d="M463.7 9.3s2.9-8.5 1.8-10c-1.1-1.5-8.9-10.1-7.3-13 1.7-2.9 3.8.1 6.1 2.7s5.6 3.7 4.4.6-4.4-10.5-4.2-14.3c.2-3.9 4-3.3 5.1.2 1 3.5 2.3 6.7 3.8 6.5 2.5-.4 2.6-3.9 1.2-6.8-1.5-2.9-5.1-8.2-5.1-11.5s4.2-6.3 8.7-.5 3.2 10.9 2.7 14 .3 4.2 1.9 3.2c1.6-1 6.6-3.9 8-.4 1.1 2.9-1.4 4.5-4.8 5.7s-7.4 3.3-7.1 4.9c.3 1.6 5.7.3 7.8.5 2.1.2 4 2.5 1.3 4.7s-8.4 1.2-10 2.9c-1.6 1.7-4.3 3.2-6.6 12.3l-7.7-1.7z" fill="#885520"/><path d="M486.7-9c-.5 0-1.1 0-1.8.1 1.4 1.4 1.9 3.6-.6 4s-8.1 1.4-10.3 3.1C471.8-.1 468.9 9 468.9 9l2.6 1.7c2.3-8.9 4.9-10.4 6.6-12.1 1.6-1.7 7.3-.7 10-2.9 2.6-2.3.7-4.5-1.4-4.7z" fill="#724318"/></g><g><path d="M474.5 10.7s8.3-21.3 18.1-13.5c9.3 7.5-12.7 17.4-12.7 17.4l-5.4-3.9z" fill="#C4996C"/><path d="M476.7 11.8s7.4-12 10.6-10.2c3.1 1.8-9.8 12.1-9.8 12.1l-.8-1.9z" fill="#885520"/><g><path d="M451 19.5s-20.3-10.6-22.5 1.7c-2.1 11.7 21 4.7 21 4.7l1.5-6.4z" fill="#C4996C"/><path d="M450.2 21.7s-13.5-4.2-14.7-.8 15.4 2.7 15.4 2.7l-.7-1.9z" fill="#885520"/></g><g><path d="M500.1 39.2c-3.4-9.1-11.4-18.8-17.8-25.7-8.1-8.7-20.5-4.4-21.2-4.1-.7.3-12.9 5.2-13.3 17.1-.4 12.3.2 30.1 7.3 38.1 6.9 7.9 17.8 5.4 26.9 2 .2 0 .3-.1.4-.1.2 0 .3-.1.4-.1 6.8-2.6 14.1-6.2 17.3-12.3V39.2z" fill="#C4996C"/><path d="M455.2 64.7c-7.1-8.1-7.8-25.9-7.4-38.2.3-9.8 8.6-14.8 12-16.5-12.8 8.5-8.9 27.2-8.4 34.1.5 7 5.7 20.9 19.1 20.9 13.4 0 29.2-10 29.2-10-3.4 5.5-10.3 8.9-16.8 11.4-.1 0-.2.1-.4.1-.1 0-.2.1-.4.1-9.1 3.5-19.9 6-26.9-1.9z" fill="#BA8C63"/><g><g fill="#58483B"><circle cx="475.2" cy="27.3" r="1.4"/><circle cx="462.2" cy="32.1" r="1.4"/></g><ellipse transform="rotate(-20.53 475.39 47.61)" cx="475.4" cy="47.6" rx="16.4" ry="10.3" fill="#E02D43"/><path d="M460.2 53.4c-1.5-4 1.1-8.9 6.1-12.5-3.5 4.3-1.5 11.1 6.8 11.5 9.3.5 18-6.7 18-6.7-.8 4.5-5.4 9.2-12 11.6-8.6 3.2-16.9 1.4-18.9-3.9z" fill="#C61836"/></g></g></g></g></g></g><g fill="#724318"><path d="M419.9 6.5c-.4-1.1-.1-1.9.5-2.6 1.5 5.3 10.8 1.1 13 .5s2.4 2.2 2.4 2.2c-.8-1.4-5.2-.3-8.5 1-3.4 1.4-6.3 1.8-7.4-1.1zM418.4-14.4c-.4-6.1 3.2-7.4 5.6-6.3-3.3.5-3.8 3.8-3.7 6.9.1 3.1 2 7 4.1 9.1 2.1 2.1 2.9 4.5 2.9 4.5-.3-.5-.9-1.2-1.7-1.9-2.6-2-6.8-5-7.2-12.3z"/></g><g fill="#724318"><path d="M490.8-20c-.4-1.1-1.2-1.5-2-1.6 2.3 5-7.4 8-9.5 8.9-2.1 1-.4 3.3-.4 3.3-.3-1.6 3.7-3.6 7.1-4.9 3.3-1.3 5.8-2.8 4.8-5.7zM478.2-36.8c-3.7-4.8-7.3-3.5-8.4-1.1 2.9-1.8 5.4.4 7.3 2.8s3.1 6.6 2.9 9.6c-.2 2.9.8 5.3.8 5.3-.1-.6-.1-1.5.1-2.6.4-3.1 1.8-8.2-2.7-14z"/></g></g></svg>