<svg xmlns="http://www.w3.org/2000/svg" viewBox="120 -173 380 380"><path fill="none" d="M120-173h380v380H120z"/><path d="M500 207c-.2-26.2 0-380 0-380H120s.1 343.8 0 380h380z" fill="#EFD9CB"/><path fill="#FFEFE6" d="M306.6-172.7h-9.1l.4 49.9-.3 53.1.8 111.3V173h8.2V3.5l-.1-97.4M270.1-172.7h-8.9l.3 35.1-.3 55.5.7 116.3v137.3h8.3V-5.7l-.2-101.7M251.3-172.7H242l.6 69.2-.2 49.3.7 103.4v122h8.2V13.7l-.1-90.4M232.1-172.7h-9l.4 48.4-.3 52.7.7 110.5v130.4h8.3V1l-.2-96.7M212.7-172.7h-9.2l.5 62.1-.3 49.3.8 103.4v122h8.2V6.7l-.1-90.5M192-172.7h-9.2l.5 57.3-.3 49.3.7 103.3v122h8.3V1.8l-.2-90.4M172.2-172.7h-9.3l.6 74.1-.3 52.3.8 109.5v129.2h8.2V25.6l-.2-95.8M152.1-172.7h-9.4l.7 75.2-.3 50.4.8 105.8v124.8h8.2V22.4l-.2-92.5M132.6-172.7h-9.3l.6 74.2-.2 49.3.7 103.2v122h8.2V18.7l-.1-90.4M288.3-172.7h-9.2l.5 61.9-.2 49.3.7 103.3v122h8.3V6.4l-.2-90.4M399.5-172.7h-8.9l.3 37-.3 55.2.7 115.6v136.6h8.3V-4.5l-.2-101.2M363.1-172.7h-8.8l.1 23.7-.2 58.1.7 121.9v143.8h8.3V-10.8l-.2-106.6M344.3-172.7h-9.2l.5 51.7-.3 49.3.8 103.3v122.1h8.2V-3.8l-.2-90.4M325.1-172.7h-9l.3 38.1-.2 54.8.7 114.8v135.5h8.2V-4.4l-.1-100.4M381.3-172.7h-9.1l.4 44.3-.3 49.3.8 103.4v122h8.2V-11.1l-.1-90.5M473.4-172.7h-9.2l.5 56.2-.3 49.2.7 103.4v122h8.3V.7l-.2-90.5M491.9-172.7h-9.3l.6 70.6-.3 48.2.8 101.3v119.5h8.2V12.7l-.1-88.6M436.9-172.7h-9l.3 47.1-.2 53.7.7 112.6v132.8h8.3V2.1l-.2-98.5M418.1-172.7h-9.3l.6 73-.3 51.6.8 108.3V188h8.2V23.1l-.1-94.7M455.1-172.7h-9.3l.6 73.5-.2 50.2.7 105.3v124.3h8.2V20.2l-.1-92.1"/><path fill="#FCF2ED" d="M120 124.4h379.8v18.4H120z"/><path fill="#FFF" d="M120 124.4h379.9v2.2H120z"/><path d="M211 55.8c.2-.6.4-1.3.4-2 0-.9-1.2-1.6-2-1.1.3-.8.6-1.6.8-2.5.2-1.2-1.2-2.5-2.3-1.6-.1.1-.2.1-.3.2.5-1.3.6-2.8.2-4.2-.1-.5-.8-.8-1.2-.5-1.1.9-2 1.9-2.9 2.9.6-1.5 1.5-3.1 1.3-4.6-.1-.7-.8-1.4-1.5-1.1-1.7.7-2.8 2.5-3.7 4.1v-.2c.2-1.2-1.4-2.3-2.3-1.2-.9 1.1-1.6 2.3-2.1 3.5-.1-.3-.2-.6-.3-.8-.1-.3-.3-.5-.6-.7 0 0 0-.1.1-.1.4-1.1-.5-2.9-1.9-2.3-.4.2-.8.4-1.2.5.9-1.1 1.6-2.3 2-3.7.4-1.4-1-2.3-2.2-2.1-1.2.3-2.4.9-3.4 1.6.1-.4.2-.8.2-1.2.1-1.3-1.3-2.3-2.3-1.2-.8.9-1.6 1.8-2.5 2.9-.1-.1-.3-.1-.4-.2-.3-6.9-3-9.9-3-9.9 1.9-6.3-1.1-8.7-1.1-8.7l.2-2.2.7.1s.3-2.5.4-3.4c.1-.9-1.1-.9-1.1-.9l-4.3-.5h-.4l-4.3-.5s-1.2-.2-1.3.7c-.1.8-.4 3.4-.4 3.4l.7.1-.2 2.2s-3.3 1.7-2.9 8.2c0 0-4.8 3.5-5.9 14.1-.2 1.8-.4 3.8-.6 5.9 0 .1-.1.1-.1.2-1.9-7.5-5.5-10-5.5-10 .3-6.6-3.1-8.2-3.1-8.2l-.3-2.2.7-.1s-.3-2.5-.4-3.4-1.3-.6-1.3-.6l-4.3.6-.4.1-4.3.6s-1.2.1-1.1 1c.1.8.4 3.4.4 3.4l.7-.1.3 2.2s-2.8 2.4-.9 8.7c0 0-3.8 4.5-2.4 15h-.3v90.3h75.5V55.8H211z" opacity=".41" fill="#998370"/><path fill="#99887A" d="M120 142.7h379.9V207H120z"/><path fill="#7C6757" d="M120.2 157.8h379.7v1.7H120.2zM120.2 174.8h379.7v1.7H120.2zM120.2 191.8H500v1.7H120.2z"/><path d="M483.8-135.2l-28.6-24.6c-1.1-.9-2.5-1.3-3.8-1.2-1.1 0-2.1.3-3 1l-31.7 24c-2.3 1.7-2.7 5-1 7.3 1.6 2.1 4.6 2.6 6.9 1.2l2.7 4.1c.2-.1 2.1-1.6 4.9-3.6v.1l.1 1.6 2.1 45.6 7.7.3v9.5c-1.1 1-2 4.2-2 7.9 0 4.6 1.2 8.3 2.8 8.3 1.5 0 2.8-3.7 2.8-8.3 0-3.7-.8-6.9-2-7.9v-9.4l11.2.4v25.3c-3 .5-5.2 3-5.2 6.1 0 3.4 2.8 6.2 6.2 6.2 3.4 0 6.2-2.8 6.2-6.2 0-3.2-2.4-5.9-5.6-6.2v-25.2l12.3.4 2.2-43.6.2-3.9 2.9 2.7 4.1-4.6.7.6c2.2 1.9 5.4 1.6 7.3-.5 2-2.2 1.7-5.5-.4-7.4z" opacity=".82" fill="#D6CBC5"/><g opacity=".41" fill="#998370"><path d="M197.8-132.8v46.4h-42.6l-2.9-3.4 2.9-43 39.7-3.4M197.8-22.6h-42.6l-2.9-3.4 2.9-43 39.7-3.4 2.9 3.4"/></g><path fill="#99887A" d="M151.2-136.2h42.7v46.4h-42.7z"/><path fill="#F7EAE2" d="M157.2-129.8h30.5v33.5h-30.5z"/><path fill="#FFF" d="M161-125.4h23.1v24.7H161z"/><path d="M180.3-113.4h-1.9l1.4-.8c.1-.1.2-.2.1-.4-.1-.1-.2-.2-.4-.1l-2.1 1.2h-.7l1.4-.8c.1-.1.2-.2.1-.4-.1-.1-.2-.2-.4-.1l-1.6 1c-.1-.6-.3-1.1-.7-1.6l1.9-.5c.1 0 .2-.2.2-.3s-.2-.2-.3-.2l-1.6.4.5-.5h.1l2.3-.6c.1 0 .2-.2.2-.3s-.2-.2-.3-.2l-1.6.4 1.3-1.3c.1-.1.1-.4 0-.5-.1-.1-.4-.1-.5 0l-1.3 1.3.4-1.6c0-.1-.1-.3-.2-.3s-.3.1-.3.2l-.6 2.3v.1l-.5.5.4-1.6c0-.1-.1-.3-.2-.3s-.3.1-.3.2l-.5 1.9c-.5-.4-1.1-.6-1.7-.7l1.1-1.8c.1-.1 0-.3-.1-.4s-.3 0-.4.1l-.8 1.4v-.6-.1l1.2-2.1c.1-.1 0-.3-.1-.4-.1-.1-.3 0-.4.1l-.8 1.4v-1.6c0-.2-.2-.4-.4-.4s-.4.2-.4.4v1.6l-.8-1.4c-.1-.1-.2-.2-.4-.1-.1.1-.2.2-.1.4l1.2 2.1v.7l-.8-1.4c-.1-.1-.2-.2-.4-.1-.1.1-.2.2-.1.4l1.1 1.8c-.6.1-1.2.3-1.7.7l-.5-1.9c0-.1-.2-.2-.3-.2-.1 0-.2.2-.2.3l.4 1.6-.5-.5v-.1l-.6-2.3c0-.1-.2-.2-.3-.2-.1 0-.2.2-.2.3l.4 1.6-1.1-1.1c-.1-.1-.4-.1-.5 0-.1.1-.1.4 0 .5l1.1 1.1-1.6-.4c-.1 0-.3.1-.3.2s.1.3.2.3l2.3.6h.1l.5.5-1.6-.4c-.1 0-.3.1-.3.2s.1.3.2.3l1.9.5c-.4.5-.6 1.1-.7 1.7l-1.8-1.1c-.1-.1-.3 0-.4.1-.1.1 0 .3.1.4l1.4.8h-.6-.1l-2.1-1.2c-.1-.1-.3 0-.4.1s0 .3.1.4l1.4.8h-1.6c-.2 0-.4.2-.4.4s.2.4.4.4h1.6l-1.4.8c-.1.1-.2.2-.1.4.1.1.2.2.4.1l2.1-1.2h.7l-1.4.8c-.1.1-.2.2-.1.4.1.1.2.2.4.1l1.8-1.1c.1.6.3 1.2.7 1.7l-1.9.5c-.1 0-.2.2-.2.3s.2.2.3.2l1.6-.4-.5.5h-.1l-2.3.6c-.1 0-.2.2-.2.3s.2.2.3.2l1.6-.4-1.1 1.1c-.1.1-.1.4 0 .5.1.1.4.1.5 0l1.1-1.1-.4 1.6c0 .1.1.3.2.3s.3-.1.3-.2l.6-2.3v-.1l.5-.5-.4 1.6c0 .1.1.3.2.3s.3-.1.3-.2l.5-1.9c.5.3 1 .6 1.6.7l-1 1.6c-.1.1 0 .3.1.4.1.1.3 0 .4-.1l.8-1.4v.7l-1.2 2.1c-.1.1 0 .3.1.4.1.1.3 0 .4-.1l.8-1.4v1.8c0 .2.2.4.4.4s.4-.2.4-.4v-1.8l.8 1.4c.1.1.2.2.4.1.1-.1.2-.2.1-.4l-1.2-2.1v-.7l.8 1.4c.1.1.2.2.4.1.1-.1.2-.2.1-.4l-1-1.6c.6-.1 1.1-.3 1.6-.7l.5 1.9c0 .1.2.2.3.2.1 0 .2-.2.2-.3l-.4-1.6.5.5v.1l.6 2.3c0 .1.2.2.3.2.1 0 .2-.2.2-.3l-.4-1.6 1.3 1.3c.1.1.4.1.5 0s.1-.4 0-.5l-1.3-1.3 1.6.4c.1 0 .3-.1.3-.2s-.1-.3-.2-.3l-2.3-.6h-.1l-.5-.5 1.6.4c.1 0 .3-.1.3-.2s-.1-.3-.2-.3l-1.9-.5c.3-.5.6-1 .7-1.6l1.6 1c.1.1.3 0 .4-.1.1-.1 0-.3-.1-.4l-1.4-.8h.7l2.1 1.2c.1.1.3 0 .4-.1.1-.1 0-.3-.1-.4l-1.4-.8h1.8c.2 0 .4-.2.4-.4s-.1-.4-.3-.4zm-7.4 3.7v-2c.1 0 .2-.1.3-.1l1.4 1.4c-.5.4-1.1.6-1.7.7zm-2.5-.7l1.4-1.4c.1.1.2.1.3.1v2c-.6-.1-1.2-.3-1.7-.7zm5.4-3h-2c0-.1-.1-.2-.1-.3l1.4-1.4c.4.5.6 1.1.7 1.7zm-2.6-.8c-.1-.1-.2-.1-.3-.1v-2c.6.1 1.2.3 1.7.7l-1.4 1.4zm-1.1-2.1v2c-.1 0-.2.1-.3.1l-1.4-1.4c.5-.4 1.1-.6 1.7-.7zm-2.2 1.2l1.4 1.4c-.1.1-.1.2-.1.3h-2c.1-.6.3-1.2.7-1.7zm1.3 2.5c0 .1.1.2.1.3l-1.4 1.4c-.4-.5-.6-1.1-.7-1.7h2zm3.9 1.7l-1.4-1.4c.1-.1.1-.2.1-.3h2c-.1.6-.3 1.2-.7 1.7z" fill="#EA3131"/><path fill="#99887A" d="M151.2-72.4h42.7V-26h-42.7z"/><path fill="#F7EAE2" d="M157.2-65.9h30.5v33.5h-30.5z"/><path fill="#FFF" d="M161-61.5h23.1v24.7H161z"/><path d="M180.3-49.5h-1.9l1.4-.8c.1-.1.2-.2.1-.4-.1-.1-.2-.2-.4-.1l-2.1 1.2h-.7l1.4-.8c.1-.1.2-.2.1-.4-.1-.1-.2-.2-.4-.1l-1.6 1c-.1-.6-.3-1.1-.7-1.6l1.9-.5c.1 0 .2-.2.2-.3s-.2-.2-.3-.2l-1.6.4.5-.5h.1l2.3-.6c.1 0 .2-.2.2-.3 0-.1-.2-.2-.3-.2l-1.6.4 1.3-1.3c.1-.1.1-.4 0-.5-.1-.1-.4-.1-.5 0l-1.3 1.3.4-1.6c0-.1-.1-.3-.2-.3s-.3.1-.3.2l-.6 2.3v.1l-.5.5.4-1.6c0-.1-.1-.3-.2-.3s-.3.1-.3.2l-.5 1.9c-.5-.4-1.1-.6-1.7-.7l1.1-1.8c.1-.1 0-.3-.1-.4s-.3 0-.4.1l-.8 1.4v-.6-.1l1.2-2.1c.1-.1 0-.3-.1-.4-.1-.1-.3 0-.4.1l-.8 1.4v-1.4c0-.2-.2-.4-.4-.4s-.4.2-.4.4v1.6l-.8-1.4c-.1-.1-.2-.2-.4-.1-.1.1-.2.2-.1.4l1.2 2.1v.7l-.8-1.4c-.1-.1-.2-.2-.4-.1-.1.1-.2.2-.1.4l1.1 1.8c-.6.1-1.2.3-1.7.7l-.5-1.9c0-.1-.2-.2-.3-.2-.1 0-.2.2-.2.3l.4 1.6-.5-.5v-.1l-.6-2.3c0-.1-.2-.2-.3-.2-.1 0-.2.2-.2.3l.4 1.6-1.1-1.1c-.1-.1-.4-.1-.5 0-.1.1-.1.4 0 .5l1.1 1.1-1.6-.4c-.1 0-.3.1-.3.2s.1.3.2.3l2.3.6h.1l.5.5-1.6-.4c-.1 0-.3.1-.3.2s.1.3.2.3l1.9.5c-.4.5-.6 1.1-.7 1.7l-1.8-1.1c-.1-.1-.3 0-.4.1-.1.1 0 .3.1.4l1.4.8h-.6-.1l-2.1-1.2c-.1-.1-.3 0-.4.1s0 .3.1.4l1.4.8h-1.6c-.2 0-.4.2-.4.4s.2.4.4.4h1.6l-1.4.8c-.1.1-.2.2-.1.4.1.1.2.2.4.1l2.1-1.2h.7l-1.4.8c-.1.1-.2.2-.1.4.1.1.2.2.4.1l1.8-1.1c.1.6.3 1.2.7 1.7l-1.9.5c-.1 0-.2.2-.2.3 0 .1.2.2.3.2l1.6-.4-.5.5h-.1l-2.3.6c-.1 0-.2.2-.2.3s.2.2.3.2l1.6-.4-1.1 1.1c-.1.1-.1.4 0 .5.1.1.4.1.5 0l1.1-1.1-.4 1.6c0 .1.1.3.2.3s.3-.1.3-.2l.6-2.3v-.1l.5-.5-.4 1.6c0 .1.1.3.2.3s.3-.1.3-.2l.5-1.9c.5.3 1 .6 1.6.7l-1 1.6c-.1.1 0 .3.1.4.1.1.3 0 .4-.1l.8-1.4v.7l-1.2 2.1c-.1.1 0 .3.1.4.1.1.3 0 .4-.1l.8-1.4v1.8c0 .2.2.4.4.4s.4-.2.4-.4v-1.8l.8 1.4c.1.1.2.2.4.1.1-.1.2-.2.1-.4l-1.2-2.1V-44.9l.8 1.4c.1.1.2.2.4.1.1-.1.2-.2.1-.4l-1-1.6c.6-.1 1.1-.3 1.6-.7l.5 1.9c0 .1.2.2.3.2.1 0 .2-.2.2-.3l-.4-1.6.5.5v.1l.6 2.3c0 .1.2.2.3.2.1 0 .2-.2.2-.3l-.4-1.6 1.3 1.3c.1.1.4.1.5 0s.1-.4 0-.5l-1.3-1.3 1.6.4c.1 0 .3-.1.3-.2s-.1-.3-.2-.3l-2.2-.6h-.1l-.5-.5 1.6.4c.1 0 .3-.1.3-.2s-.1-.3-.2-.3l-1.9-.5c.3-.5.6-1 .7-1.6l1.6 1c.1.1.3 0 .4-.1s0-.3-.1-.4l-1.4-.8h.7l2.1 1.2c.1.1.3 0 .4-.1.1-.1 0-.3-.1-.4l-1.4-.8h1.8c.2 0 .4-.2.4-.4-.1 0-.2-.1-.4-.1zm-7.4 3.6v-2c.1 0 .2-.1.3-.1l1.4 1.4c-.5.4-1.1.6-1.7.7zm-2.5-.7l1.4-1.4c.1.1.2.1.3.1v2c-.6-.1-1.2-.3-1.7-.7zm5.4-2.9h-2c0-.1-.1-.2-.1-.3l1.4-1.4c.4.4.6 1 .7 1.7zm-2.6-.9c-.1-.1-.2-.1-.3-.1v-2c.6.1 1.2.3 1.7.7l-1.4 1.4zm-1.1-2.1v2c-.1 0-.2.1-.3.1l-1.4-1.4c.5-.3 1.1-.6 1.7-.7zm-2.2 1.3l1.4 1.4c-.1.1-.1.2-.1.3h-2c.1-.7.3-1.3.7-1.7zm1.3 2.4c0 .1.1.2.1.3l-1.4 1.4c-.4-.5-.6-1.1-.7-1.7h2zm3.9 1.7l-1.4-1.4c.1-.1.1-.2.1-.3h2c-.1.6-.3 1.2-.7 1.7z" fill="#0D5C74"/><path fill="#7C6757" d="M436.3-99.3h1.6V-68h-1.6z"/><path fill="#99887A" d="M463.1-79.6l-34.4-1.2-2.5-53.6 20.6-11 19 12"/><path d="M421.6-124.5c.8-.5 26-19.1 26-19.1l20.9 19.1 4.3-4.8-25.2-21.4-28.8 21.9 2.8 4.3z" fill="#99887A"/><path fill="#7C6757" d="M426.4-128l.3 3.9 21.4-16.4 17.2 17.3.2-4-17.9-16.4"/><circle cx="445.8" cy="-117.8" r="13" fill="#F7EAE2"/><g fill="#7C6757"><circle cx="445.7" cy="-128.7" r=".8"/><circle cx="445.7" cy="-106.6" r=".8"/><circle cx="440.2" cy="-127.2" r=".8"/><circle cx="451.2" cy="-108.1" r=".8"/><circle cx="436.1" cy="-123.1" r=".8"/><circle cx="455.2" cy="-112.1" r=".8"/><g><circle cx="434.7" cy="-117.6" r=".8"/><circle cx="456.7" cy="-117.6" r=".8"/></g><g><circle cx="436.1" cy="-112.1" r=".8"/><circle cx="455.2" cy="-123.1" r=".8"/></g><g><circle cx="440.2" cy="-108.1" r=".8"/><circle cx="451.2" cy="-127.2" r=".8"/></g></g><g fill="#7C6757"><circle cx="445.7" cy="-117.9" r="1.3"/><path d="M445.4-126.7h.6v8h-.6zM440.2-118.2h5.2v.9h-5.2z"/></g><path d="M453.6-84.4c0-.3 0-.6.1-.9 1.3-11.9-3.1-15.7-7.8-15.9-4.7-.2-10.4 4.7-9.2 15.1v.9l16.9.8z" fill="#7C6757"/><path fill="#99887A" d="M445-101.3h1v17.9h-1z"/><path fill="#7C6757" d="M449.1-80.3h1.6V-49h-1.6z"/><circle cx="450.1" cy="-48.6" r="6.2" fill="#99887A"/><ellipse cx="437.2" cy="-63.1" rx="2.8" ry="8.3" fill="#99887A"/><path d="M451-152.9l-31.7 24c-2.3 1.7-5.5 1.3-7.3-1-1.7-2.3-1.3-5.5 1-7.3l31.7-24c2.3-1.7 5.5-1.3 7.3 1 1.7 2.4 1.2 5.6-1 7.3z" fill="#0D5C74"/><path d="M480.1-136.3l-28.6-24.6c-1.1-.9-2.5-1.3-3.8-1.2v11.6l25.6 22.1c2.2 1.9 5.4 1.6 7.3-.5 1.9-2.3 1.6-5.6-.5-7.4z" fill="#0A4E5E"/><path d="M159.5 87.4s-2.6-19.2-4-29.7-6.3-13.9-6.3-13.9c.3-6.6-3.1-8.2-3.1-8.2l-.3-2.4-9.9 1.3.3 2.4s-2.8 2.4-.9 8.7c0 0-3.8 4.5-2.4 15.1s4 29.7 4 29.7.4 6.4 5.1 5.8c1.3-.2 2.4-.3 3.2-.4 2.4-.3 3.5-.5 3.5-.5l.7-.1 3.5-.5c.9-.1 2-.3 3.2-.4 4.6-.5 3.4-6.9 3.4-6.9z" fill="#F4F4F4"/><path d="M144.8 29.4l-4.3.6-.4.1-4.3.6s-1.2.1-1.1 1c.1.8.4 3.4.4 3.4l5.5-.7.4-.1 5.5-.7s-.3-2.5-.4-3.4c-.1-.9-1.3-.8-1.3-.8z" fill="#D6D6D6"/><path d="M159.5 87.4s-2.6-19.2-4-29.7-6.3-13.9-6.3-13.9c.3-6.6-3.1-8.2-3.1-8.2l-.3-2.4-5 .7 8.2 61.4h.3l3.5-.5c.9-.1 2-.3 3.2-.4 4.7-.6 3.5-7 3.5-7z" fill="#EAEAEA"/><path d="M136.2 56.8h-.2c-.7 0-1.3-.5-1.3-1.2 0-4.3 1.7-7.3 1.7-7.4.3-.5 1.1-.8 1.8-.4.5.3.8 1.1.4 1.8 0 0-1.4 2.4-1.4 6 .1.6-.4 1.1-1 1.2z" fill="#FFF"/><path d="M160 67.1l-4.9-1c0-.2 1.1-5.6 4.2-11.1 4.2-7.6 10.2-11.6 17.2-11.6s12.9 4 17 11.7c2.9 5.5 3.9 10.9 3.9 11.1l-4.9.9c0-.2-3.5-18.6-16-18.6-12.6-.1-16.5 18.4-16.5 18.6z" fill="#A68A6F"/><g><path d="M175 79.9s2-19.3 3.2-29.8c1.1-10.5-2.8-15-2.8-15 1.9-6.3-1.1-8.7-1.1-8.7l.3-2.4-9.9-1.1-.3 2.4s-3.3 1.7-2.9 8.2c0 0-4.8 3.5-5.9 14.1s-3.2 29.9-3.2 29.9-1.1 6.3 3.6 6.8c1.3.1 2.4.3 3.2.3 2.4.3 3.5.4 3.5.4l.7.1 3.5.4c.9.1 2 .2 3.2.3 4.6.6 4.9-5.9 4.9-5.9z" fill="#F4F4F4"/><path d="M174.4 20l-4.3-.5h-.4l-4.3-.5s-1.2-.2-1.3.7c-.1.8-.4 3.4-.4 3.4l5.5.6h.4l5.5.6s.3-2.5.4-3.4c.1-.9-1.1-.9-1.1-.9z" fill="#D6D6D6"/><path d="M175 79.9s2-19.3 3.2-29.8c1.1-10.5-2.8-15-2.8-15 1.9-6.3-1.1-8.7-1.1-8.7l.3-2.4-5-.5-6.5 61.6h.3l3.5.4c.9.1 2 .2 3.2.3 4.6.6 4.9-5.9 4.9-5.9z" fill="#EAEAEA"/><path d="M159.6 44.7h-.2c-.7-.2-1.1-.8-.9-1.5 1-4.2 3.3-6.7 3.4-6.8.5-.5 1.3-.5 1.8 0s.5 1.3 0 1.8c0 0-1.9 2-2.8 5.5 0 .6-.7 1-1.3 1z" fill="#FFF"/></g><g><path d="M204.9 57.6c.3-.8.6-1.6.8-2.5.2-1.2-1.2-2.5-2.3-1.6-.1.1-.2.1-.3.2.5-1.3.6-2.8.2-4.2-.1-.5-.8-.8-1.2-.5-1.1.9-2 1.9-2.9 2.9.6-1.5 1.5-3.1 1.3-4.6-.1-.7-.8-1.4-1.5-1.1-1.7.7-2.8 2.5-3.7 4.1v-.2c.2-1.2-1.4-2.3-2.3-1.2-.9 1.1-1.6 2.3-2.1 3.5-.1-.3-.2-.6-.3-.8-.4-.9-1.8-1.3-2.3-.2-.7 1.7-1.2 3.6-1.4 5.5-.1-.1-.1-.2-.2-.3-.5-.7-1.4-.8-2-.2-1.6 1.5-.9 4.5-.2 6.3.6 1.5 1.5 3.1 2.7 4.3-.2.2-.5.4-.7.6-1.2 1-.4 3.2 1.1 3.4 1.5.3 3.1.1 4.7-.3.1.1.3.2.4.2 1.2.6 2.8 0 3.1-1.5v-.1c1.2-.5 2.3-1.2 3.4-1.7 3.2-1.7 7.5-4.8 7.6-8.9.1-.9-1.1-1.6-1.9-1.1z" fill="#629B21"/><path d="M190.1 50.7c.4-1.1-.5-2.9-1.9-2.3-.4.2-.8.4-1.2.5.9-1.1 1.6-2.3 2-3.7.4-1.4-1-2.3-2.2-2.1-1.2.3-2.4.9-3.4 1.6.1-.4.2-.8.2-1.2.1-1.3-1.3-2.3-2.3-1.2-1 1.1-2.1 2.3-3.1 3.7-.3-1-1-1.6-2.2-1.4-2.1.5-2.9 3.1-3.3 5h-.1c-1.7-1-3.6.8-3.1 2.6.4 1.7.9 3.5 2.1 4.8h-.1c-2.1 0-2.9 2.3-2.1 3.9 2.8 5.6 13.8 4.9 17.8 1 .9-.9.3-2.2-.8-2.5-.2 0-.3-.1-.5-.1 1.2-.8 2.4-1.6 3.2-2.6.6-.7.3-1.9-.6-2-.5-.1-.9-.1-1.4-.1 1.3-1.1 2.4-2.4 3-3.9z" fill="#A4BE24"/><circle cx="174" cy="59.6" r="4.5" fill="#D63A26"/><circle cx="193.8" cy="61.2" r="4.5" fill="#D63A26"/><path d="M172.5 57.5c-.2-1.2-1.5-1.8-2.7-1.7.1-.8 0-1.6-.2-2.5-.4-1.3-2.2-1.8-3.2-.7 0 0 0 .1-.1.1-.5-1.3-1.3-2.6-2.1-3.4s-2.5-.6-2.9.5c-.3.8-.5 1.6-.6 2.5-.3-.2-.6-.3-1-.5-.5-.2-1.1-.1-1.6 0-.7.2-1.2.7-1.5 1.2-.3.4-.4 1-.3 1.5 0 .6.2 1.1.5 1.5.2.2.3.4.5.6-1.7.6-2.2 3.4-.3 4.1.6.3 1.2.5 1.8.6-.8.7-.7 1.8 0 2.6.8 1 2.3 1.2 3.5 1.5s2.1.5 3.2.2c-.6 1.4-1.1 3-.1 4.3.8 1 1.9 1.3 3 .7 1.8-.9 2.5-4.4 3.2-6.1 1-2.2 1.4-4.5.9-7z" fill="#629B21"/><path d="M199.7 63.9c-2.6 3.2-7.1 4.1-10.6 2.3.4.5.8.9 1.3 1.3 3.7 3 9.2 2.4 12.2-1.3S205 57 201.3 54c-.5-.4-1-.7-1.6-1 2.5 3.1 2.6 7.6 0 10.9z" fill="#FFF"/><path d="M186.2 63.4c-2.8-2.8-3.2-7.2-1.1-10.4-.5.3-1 .7-1.4 1.1-3.3 3.3-3.3 8.6 0 11.8 3.3 3.3 8.6 3.3 11.8 0 .4-.4.8-.9 1.1-1.4-3.2 2.1-7.5 1.7-10.4-1.1zM167.8 63.8c-4-.5-6.9-3.8-7.2-7.6-.2.6-.4 1.1-.4 1.8-.6 4.6 2.6 8.8 7.1 9.4 4.6.6 8.8-2.6 9.4-7.1.1-.6.1-1.2 0-1.8-1.2 3.6-4.9 5.9-8.9 5.3z" fill="#FFF"/></g><path d="M154.8 67.1l-4.9-1c0-.2 1.1-5.6 4.2-11.1 4.2-7.6 10.2-11.6 17.2-11.6s12.9 4 17 11.7c2.9 5.5 3.9 10.9 3.9 11.1l-4.9.9c0-.2-3.5-18.6-16-18.6-12.7-.1-16.5 18.4-16.5 18.6z" fill="#C19F80"/><path fill="#C19F80" d="M132.6 60.7h75.5v90.5h-75.5z"/><g fill="#A1866C"><path d="M194.1 105.2c0 12-9.7 21.7-21.7 21.7s-21.6-9.7-21.6-21.7 9.7-21.7 21.7-21.7 21.6 9.7 21.6 21.7z"/><path d="M167.1 102.1c-1.8.2-2.3 2.3-2.3 3.8v.6c0 .7 0 1.2-.1 1.9 0 .3-.1.8-.2.8-.6.1-1.2-.9-1.3-1.4-.4-1.1-.8-2.2-1-3.4-.2-1.2-.4-2.6-.4-3.9v-1.6-.6-.4c.2-.9-1.2 0-1.4.4-1.4 2.5-1 5.5-1 8.2 0 .7 0 1.5-.2 2.2-.1.5-.2 1.4-.6 1.8-.3.3-.8 0-1-.1-.4-.2-.6-.6-.6-1-.1-.4-.5-.2-.8 0-.3.3-.6.9-.6 1.3.2 1 1 1.8 2 1.5 1.6-.5 2.3-2.4 2.7-3.9.2-.7.3-1.4.3-2.2.2 1.1.6 2.1 1 3.1.4.7 1 1.4 1.9 1.3.7-.1 1.2-.8 1.5-1.7.3.7.8 1.2 1.6 1.2.9-.1 1.6-1 2-1.8.4-.9.5-1.8.5-2.7.2-.9-.2-3.6-2-3.4zm.6 6.2c0 .2-.1.4-.2.5-.4 0-.6-.6-.7-.8-.3-.6-.4-1.2-.5-1.9-.1-.7 0-1.4.1-2 0-.2.1-.4.2-.5.9.6 1.1 1.7 1.2 2.7 0 .7 0 1.3-.1 2zM188.6 104.6c-1.9-.7-3 1.9-3.4 3.3-.3 1.4-.7 3.8.9 4.5.8.4 1.8-.3 2.2-.8.6-.6 1-1.5 1.2-2.4.5-1.4.9-3.9-.9-4.6zm-1.2 6.3c-.1.2-.2.3-.3.4-.3-.2-.4-.8-.4-1.1-.1-.7 0-1.4.1-2 .1-.6.3-1.3.6-1.9.1-.2.2-.3.3-.4.7.8.5 2 .4 3-.2.7-.3 1.4-.7 2zM183.3 105c.4-.5.7-1 1-1.5.7-1.1 1.4-2.4 1.4-3.7-.1-1.2-1.8-1.3-2.6-.9-1.2.6-2 1.9-2.3 3.2-.5 1.7-.7 3.4-.8 5.1-.6.7-1.9 2.2-2.8 1.6-.2-.2-.4-.5-.5-.8.8-.8 1.5-1.7 2.1-2.7.6-.9 1-2.4-.1-3-.9-.5-2.1.1-2.8.8-.6.8-.9 1.8-1 2.7 0 .5-.1 1.4 0 2.2-.6.4-1.3.6-1.9.4-.8-.2-1-.9-1.2-1.5-.2-.9-.2-1.8 0-2.7 0-.3.1-.6.2-.8 0-.1 0-.1.1-.2.4.2.6.9.8 1.2.2.6 1.8-.4 1.7-1-.2-.6-.4-1.3-1.2-1.6-.7-.3-1.6.2-2 .6-1.2 1.2-1.3 2.9-1.2 4.5 0 1 .3 2.2 1.1 2.8 1.2.7 2.8.1 3.9-.6.3.7.8 1.2 1.8 1.1 1.2-.2 2.2-.8 3-1.6 0 .9.2 1.8.9 2.2 1 .6 2.3-.1 3-.9.9-1.1 1.4-2.7.9-4.1-.3-.6-.9-.8-1.5-.8zm-6.5-.8c.1-.2.2-.5.3-.7.5.1.6.7.5 1.1-.1.7-.6 1.4-1.1 2.1v-.4c0-.7.1-1.4.3-2.1zm6.3-3.5c.1-.2.3-.5.5-.7.8.8 0 2-.4 2.8s-.9 1.6-1.4 2.3c.1-.8.2-1.5.4-2.2.3-.8.5-1.6.9-2.2zm-.4 8.8c0 .1-.1.2-.2.3h-.2c-.5-.2-.5-1.3-.6-1.7V107c.2-.2.4-.4.6-.7.4-.3.7.3.8.7.2.8-.1 1.9-.4 2.5z"/></g><g><path d="M192.4 103.8c0 12-9.7 21.7-21.7 21.7s-21.6-9.7-21.6-21.7 9.7-21.7 21.7-21.7 21.6 9.8 21.6 21.7z" fill="#62BA47"/><g fill="#FFF"><path d="M165.4 100.7c-1.8.2-2.3 2.3-2.3 3.8v.6c0 .7 0 1.2-.1 1.9 0 .3-.1.8-.2.8-.6.1-1.2-.9-1.3-1.4-.4-1.1-.8-2.2-1-3.4-.2-1.2-.4-2.6-.4-3.9v-1.6-.6-.4c.2-.9-1.2 0-1.4.4-1.4 2.5-1 5.5-1 8.2 0 .7 0 1.5-.2 2.2-.1.5-.2 1.4-.6 1.8-.3.3-.8 0-1-.1-.4-.2-.6-.6-.6-1-.1-.4-.5-.2-.8 0-.3.3-.6.9-.6 1.3.2 1 1 1.8 2 1.5 1.6-.5 2.3-2.4 2.7-3.9.2-.7.3-1.4.3-2.2.2 1.1.6 2.1 1 3.1.4.7 1 1.4 1.9 1.3.7-.1 1.2-.8 1.5-1.7.3.7.8 1.2 1.6 1.2.9-.1 1.6-1 2-1.8.4-.9.5-1.8.5-2.7.2-.8-.1-3.6-2-3.4zm.6 6.3c0 .2-.1.4-.2.5-.4 0-.6-.6-.7-.8-.3-.6-.4-1.2-.5-1.9-.1-.7 0-1.4.1-2 0-.2.1-.4.2-.5.9.6 1.1 1.7 1.2 2.7 0 .6 0 1.3-.1 2zM186.9 103.3c-1.9-.7-3 1.9-3.4 3.3-.3 1.4-.7 3.8.9 4.5.8.4 1.8-.3 2.2-.8.6-.6 1-1.5 1.2-2.4.5-1.4.9-4-.9-4.6zm-1.1 6.2c-.1.2-.2.3-.3.4-.3-.2-.4-.8-.4-1.1-.1-.7 0-1.4.1-2s.3-1.3.6-1.9c.1-.2.2-.3.3-.4.7.8.5 2 .4 3-.3.7-.4 1.4-.7 2zM181.7 103.6c.4-.5.7-1 1-1.5.7-1.1 1.4-2.4 1.4-3.7-.1-1.2-1.8-1.3-2.6-.9-1.2.6-2 1.9-2.3 3.2-.5 1.7-.7 3.4-.8 5.1-.6.7-1.9 2.2-2.8 1.6-.2-.2-.4-.5-.5-.8.8-.8 1.5-1.7 2.1-2.7.6-.9 1-2.4-.1-3-.9-.5-2.1.1-2.8.8-.6.8-.9 1.8-1 2.7 0 .5-.1 1.4 0 2.2-.6.4-1.3.6-1.9.4-.8-.2-1-.9-1.2-1.5-.2-.9-.2-1.8 0-2.7 0-.3.1-.6.2-.8 0-.1 0-.1.1-.2.4.2.6.9.8 1.2.2.6 1.8-.4 1.7-1-.2-.6-.4-1.3-1.2-1.6-.7-.3-1.6.2-2 .6-1.2 1.2-1.3 2.9-1.2 4.5 0 1 .3 2.2 1.1 2.8 1.2.7 2.8.1 3.9-.6.3.7.8 1.2 1.8 1.1 1.2-.2 2.2-.8 3-1.6 0 .9.2 1.8.9 2.2 1 .6 2.3-.1 3-.9.9-1.1 1.4-2.7.9-4.1-.4-.5-1-.7-1.5-.8zm-6.6-.7c.1-.2.2-.5.3-.7.5.1.6.7.5 1.1-.1.7-.6 1.4-1.1 2.1v-.4c0-.7.1-1.4.3-2.1zm6.3-3.6c.1-.2.3-.5.5-.7.8.8 0 2-.4 2.8s-.9 1.6-1.4 2.3c.1-.8.2-1.5.4-2.2.3-.8.5-1.5.9-2.2zm-.4 8.9c0 .1-.1.2-.2.3h-.2c-.5-.2-.5-1.3-.6-1.7v-1.1c.2-.2.4-.4.6-.7.4-.3.7.3.8.7.2.8-.1 1.8-.4 2.5z"/></g></g><path d="M201 100l-9.7 27.1 4.9 5.1-17.7 4.9 11.1 3.3-31 5.8h42.6l-3.1-6.6 4.8-7.5s-1.6-7.2-2.8-9.1c-1.2-1.9 2.8-21.7 2.8-21.7l-4.4-34.9L201 100z" fill="#AF9175"/><path d="M499.9-29.9v-10c-1.2 1.9-1.4 4.2-1.1 6.3.2 1.3.6 2.5 1.1 3.7zM499.9 62.8c-6.2-.7-12.4-1.7-18.6-2.8-3.7-.7-7.5-1.5-10.9-3 .7-5 1.7-9.9 3-14.7 1.8-.6 3.6-1.3 5.4-2 7.5-3.2 14.1-8.3 19-14.8.8-1 1.5-2.2 2.1-3.4v-6.3c-.5-1.2-1.2-2.4-2.1-3.4l-.1-.1c.7-.7 1.4-1.3 2.2-1.9V1.3H498c-1.4.1-2.7.3-4 .8-1.5.6-2.9 1.5-4 2.7-1.2-1-2.5-2-3.3-2.6L484.6.7c1.3-2.7 2.6-5.5 4.8-7.5 2-1.8 4.5-2.9 7-3.9 1.1-.5 2.3-.9 3.5-1.4v-9.5c-.3 0-.6 0-.9-.1-1.3-.3-2.3-1.2-3.2-2.2-1-1.2-2-2.5-2.7-3.8-.3-.5-.5-1-1-1.4-.4-.3-1.1-.5-1.5-.1-.3.2-.4.6-.5.9-.2 1.1.1 2.1.4 3.1.6 1.8 1.5 3.5 2.6 5 .7 1 1.6 2.1 1.5 3.3-.1.9-.7 1.7-1.3 2.3-1.5 1.5-3.2 2.8-5.2 3.6-.9.4-1.9.7-2.8.4-.8-.2-1.3-.9-1.9-1.4-.9-.9-2-1.6-3.2-2.1-.3-.1-.6-.3-.9-.1-.2.1-.4.3-.5.5-.5.9-.4 2.1.2 3 .5.9 1.3 1.6 2.1 2.4.5.5 1.1 1.1 1.3 1.8.1.5 0 1-.1 1.5-.3 1.2-.8 2.4-1.4 3.5-.4-.2-.9-.4-1.3-.6-4-1.7-8.2-2.7-12.5-3.4C456.9-7 446.4-7 436.5-4c-1 .3-2 .7-3 1-.3-.8-.6-1.6-.8-2.4-.2-.6-.4-1.2-.3-1.9.2-.8.9-1.3 1.4-1.9.5-.6 1-1.4.7-2.2-.4-.9-1.6-1-2.6-.9-.4.8-.8 1.6-1.1 2.4-.1.2-.2.5-.4.6-.4.2-.8.1-1.2-.1-1.8-.9-3.1-2.6-4.4-4.2-.3-.4-.6-.8-.7-1.3-.2-1 .5-1.9 1.1-2.6 1.4-1.6 2.7-3.2 4.1-4.8.7-.8 1.4-2 .7-2.8-.4-.5-1.2-.6-1.7-.3-.6.2-1 .7-1.4 1.2-1.6 2-2.7 4.5-4.9 5.8-.3.2-.6.3-.9.3s-.6-.1-.8-.3c-2.1-1.2-3.9-3.1-5-5.2-.2-.4-.4-.9-.2-1.4.1-.3.5-.5.8-.7 3.8-2.5 6.4-6.9 6.7-11.5.1-.9 0-1.8-.5-2.5s-1.7-.9-2.2-.1c-.2.3-.2.6-.3.9-.6 3.4-2.2 6.6-4.5 9-.5.5-1 1-1.6 1.2-1.1.3-2.2-.1-3.1-.8-2.5-1.7-3.9-4.6-4.5-7.5-.6-2.9-.5-6-.5-9 0-.5 0-1-.2-1.4-.2-.4-.7-.8-1.1-.7-.5.1-.8.5-1 .9-1.1 2-1.4 4.4-1.4 6.7-.1 6.6 1.8 13.2 5.4 18.8 3.6 5.5 8.9 10 14.9 12.6 1.1.5 2.1.9 3.1 1.5 2.3 1.5 3.6 4 4.7 6.5-2.8 1.4-5.5 3-8 5-3.1-1.8-6.4-3.5-9.9-3.9-.9-.1-1.8-.1-2.7 0-.9.1-1.9.4-2.1 1.2-.2.7.4 1.4.9 2 2.4 2.6 5.1 5.1 6.5 8.4-.6.8-1.1 1.6-1.7 2.4-.6.9-1.1 1.9-1.3 3-.4 2.5 1.2 5 2.8 6.9 5.6 6.7 12.6 11.9 20 16.4 2.5 10.2 3.7 20.8 3.4 31.3-.1 4.7-.5 9.5-.3 14.1v.1c0 4.4.2 9 2 12.9 1 16.6 2.9 33.1 5.7 49.5.5 2.7.9 5.3 1.4 7.9 1.7.4 3.5.5 5.2.4-.5-2.7-1-5.3-1.5-8-2.3-13.9-3.6-28-3.9-42.1.8.5 1.5.9 2.3 1.4 3.8 2 7.9 3.3 12.1 4.2-1.3 9.3-2.5 18.7-3.6 28-.3 2.7-.6 5.4-.8 8.1-.2 2.8-.2 5.7.1 8.5 1.7-.5 4 1 5-.5.2-.4.3-.9.4-1.3.3-2.3.7-4.5 1-6.8l5.1-34.5c6.5 1.2 16.8 2.8 28.4 3.5 1.2.1 2.4.1 3.6.2V62.8z" opacity=".41" fill="#998370"/><g><path d="M449 158.4c-1.7.1-3.5 0-5.2-.4-.5-2.6-1-5.3-1.4-7.9 1.7.2 3.5.3 5.2.3.4 2.7.9 5.3 1.4 8z" fill="#0F1110"/><path d="M443 104.5c.2.5.5.9.6 1.4s.1 1 .1 1.5c.2 14.4 1.5 28.8 3.9 43-1.7 0-3.5-.1-5.2-.3-3.1-18.1-5.1-36.5-6-54.9 2.6 2.8 4.8 5.9 6.6 9.3z" fill="#A16D58"/><g><path d="M499.9 64.9c-6.9-.8-13.9-1.8-20.7-3.1-4.2-.8-8.4-1.7-12.2-3.6-5.5-2.8-12.7-.9-18.4 1.7-3.2 1.4-6.1 3.6-8.3 6.3-4.7 5.9-5.5 14-5.6 21.5 0 4.9.2 10.2 2.9 14.5 2 3.3 5.2 5.7 8.6 7.5 6.8 3.6 14.6 4.9 22.3 6.1 10.4 1.6 20.9 3.1 31.4 3.4V64.9z" fill="#A16D58"/><path d="M499.9 100.7c-12.8-1.5-25.7-1.8-38.6-1.1-.8 4.8-1.8 9.6-3.1 14.3 0-.1 19.6 4.7 41.7 5.1v-18.3z" fill="#F1D2BE"/><g fill="#C48775"><path d="M499.9 73.1c-.2-.1-.5-.1-.7-.2-.9-.2-1.9 0-2.9.1-.7.1-1.4.2-1.7.8-.3.5 0 1.2.3 1.8.2.3.5.7.8.9.4.3.8.3 1.2.3 1.1 0 2.1-.1 3-.3v-3.4zM490.5 68.6c.1.1.2.3.2.5.1.5-.5.9-1.1 1-.9.3-2 .5-2.9.2-.4-.1-.8-.4-1-.8-.5-.7-.1-1.6.7-1.8.5-.1 1.1-.2 1.7-.2 1 0 1.9.4 2.4 1.1z"/></g><path d="M451.7 102.9c-1.7 1.1-3.4 2.1-5.1 3.2-3.9-2.7-7.1-6.4-9.2-10.7-.4.9-.7 1.9-.7 2.9-3-7.8-1.9-16.5-1.7-24.9.3-10.7-.9-21.5-3.5-31.9 13.1 4.7 27.9 4.4 40.7-.9-4.2 13.4-5.1 27.6-6.5 41.5-.4 3.4-.8 6.8-2.3 9.9-2.3 4.9-7.1 8-11.7 10.9z" fill="#F1D2BE"/><g><path d="M460.2 149.8c-.3 2.3-.7 4.5-1 6.8-.1.5-.1.9-.4 1.3-1 1.6-3.3 0-5 .5-.3-2.8-.3-5.7-.1-8.5 2.2.3 4.4.2 6.5-.1z" fill="#0F1110"/><path d="M453.7 149.9c.2-2.7.5-5.4.8-8.1 1.5-12.5 3.1-25 4.9-37.5.2-1.7.5-3.5 1.3-4.9.8-1.4 2-2.5 3.2-3.5 1.6-1.4 3.2-2.7 4.8-4.1-.6 4.1-1.2 8.3-1.8 12.4-.4 2.5-.7 5-1.1 7.4-1.9 12.7-3.7 25.4-5.6 38.1-2.1.4-4.3.5-6.5.2z" fill="#A16D58"/></g></g><g><g fill="#F1D2BE"><path d="M418-16.4c.3.1.5.3.8.3.3 0 .6-.1.9-.3 2.2-1.4 3.3-3.8 4.9-5.8.4-.5.8-1 1.4-1.2.6-.2 1.4-.2 1.7.3.6.8 0 2-.7 2.8-1.4 1.6-2.7 3.2-4.1 4.8-.6.7-1.3 1.6-1.1 2.6.1.5.4.9.7 1.3 1.3 1.6 2.6 3.3 4.4 4.2.4.2.9.4 1.2.1.2-.1.3-.4.4-.6.4-.8.8-1.6 1.1-2.4 1-.1 2.2 0 2.6.9.3.7-.2 1.6-.7 2.2-.6.6-1.2 1.1-1.4 1.9-.1.6.1 1.3.3 1.9l1.2 3.3c-1.5.2-3 .7-4.3 1.5-1.2-2.7-2.5-5.6-5-7.2-1-.6-2-1-3.1-1.5-6.1-2.6-11.3-7.1-14.9-12.6-3.6-5.5-5.5-12.2-5.4-18.8 0-2.3.3-4.7 1.4-6.7.2-.4.6-.9 1-.9.5-.1.9.3 1.1.7.2.4.2 1 .2 1.4 0 3-.1 6 .5 9s2 5.8 4.5 7.5c.9.6 2.1 1.1 3.1.8.6-.2 1.2-.7 1.6-1.2 2.4-2.5 4-5.7 4.5-9 .1-.3.1-.6.3-.9.5-.7 1.7-.5 2.2.1.5.7.6 1.6.5 2.5-.3 4.6-2.9 8.9-6.7 11.5-.3.2-.6.4-.8.7-.2.4 0 1 .2 1.4 1.6 2.4 3.4 4.2 5.5 5.4zM499.6-24.6l.3.6v-15.9c-.5.2-1.1.7-1.4 1.1-1.6 2-2 4.7-1.6 7.1.4 2.6 1.5 4.9 2.7 7.1zM499.9-20.5c-.7.7-1.8 1-2.8.8-1.3-.3-2.3-1.2-3.2-2.2-1-1.2-2-2.5-2.7-3.8-.3-.5-.5-1-1-1.4-.4-.3-1.1-.5-1.5-.1-.3.2-.4.6-.5.9-.2 1.1.1 2.1.4 3.1.6 1.8 1.5 3.5 2.6 5 .7 1 1.6 2.1 1.5 3.3-.1.9-.7 1.7-1.3 2.3-1.5 1.5-3.2 2.8-5.2 3.6-.9.4-1.9.7-2.8.4-.8-.2-1.3-.9-1.9-1.4-.9-.9-2-1.6-3.2-2.1-.3-.1-.6-.3-.9-.1-.2.1-.4.3-.5.5-.5.9-.4 2.1.2 3 .5.9 1.3 1.6 2.1 2.4.5.5 1.1 1.1 1.3 1.8.1.5 0 1-.1 1.5-.3 1.5-1 2.9-1.9 4.2 1.3.6 2.6 1.3 3.9 1.9 1.3-2.9 2.7-5.9 5.1-8 2-1.8 4.5-2.9 7-3.9 1.8-.7 3.6-1.4 5.4-2.2v-9.5z"/></g><path d="M409.3 1.9c-.9-.1-1.8-.1-2.7 0s-1.9.4-2.1 1.2c-.2.7.4 1.4.9 2 2.5 2.6 5.2 5.2 6.5 8.5 2.5-2.7 5.2-5.2 8.2-7.4-3.4-2-6.9-3.9-10.8-4.3z" fill="#855D53"/><path d="M412.2 11.3c.4.5.9 1 .9 1.6 1.6-1.5 3.2-2.9 4.7-4.4-2.7-2.8-6.5-4.5-10.3-4.7-.5 0-1.2.1-1.2.6-.1.3.2.6.4.8 1.8 2.1 3.7 4.1 5.5 6.1z" fill="#EFBEB8"/><g><path d="M499.9 3.2c-1.3-.1-2.7-.1-4 0-1.4.1-2.7.3-4 .8-1.7.6-3.2 1.7-4.4 3.2 2.9 2.2 5.3 5 7 8.1 1.7-1.7 3.5-3.2 5.4-4.6V3.2z" fill="#855D53"/><path d="M499.9 5.8c-.6-.1-1.3-.2-2-.2-3 0-6 .9-8.5 2.6 1.7 1.6 3.1 3.4 4.3 5.4 2.1-1.4 4.2-2.8 6.2-4.3V5.8z" fill="#EFBEB8"/></g><g><path d="M408.8 18.8c.2-1.1.7-2 1.3-3 4.8-7.8 12.5-13.5 21-16.8 5.4 6.7 8.7 14.9 11.4 23.1 2.7 8.4 5 17 5.6 25.8 1.6-.3 3.3-.3 4.8.1v-.8c.2-3.9 1.6-7.7 2.9-11.4 2.5-6.8 5.2-13.7 8.7-20 3.4-6 7.6-11.6 12.9-16 2.5 1.1 4.9 2.5 7.1 4.2 1.6 1.3 4.8 3.8 6.3 5.3 2 2 2.8 2.9 4.8 4.9 1.3 1.4 2.1 3 2.6 4.9.7 2.8-.9 5.7-2.6 8.1-4.9 6.5-11.5 11.7-19 14.8-2.2.9-4.4 1.7-6.6 2.4-5.5 1.9-11 3.7-16.5 5.6-1.6.5-3.2 1.1-4.8.8-1.2-.2-2.3-.7-3.3-1.3-12.4-6.3-24.9-13.2-33.8-23.9-1.6-1.8-3.2-4.2-2.8-6.8z" fill="#A16D58"/><path d="M464.6 15.9c-3.5 6.4-6.2 13.2-8.7 20-1.4 3.7-2.7 7.5-2.9 11.4v.8c-1.6-.4-3.3-.4-4.8-.1-.6-8.8-2.8-17.4-5.6-25.8-2.7-8.2-5.9-16.4-11.4-23.1 1.1-.4 2.2-.8 3.3-1.1 9.8-3 20.4-3.1 30.6-1.4 4.3.7 8.6 1.7 12.5 3.4-5.4 4.3-9.6 9.9-13 15.9z" fill="#C48775"/></g><g><path d="M453.6 52.2c-.4.4-.8.8-1.4 1-.5.2-1 .2-1.5.3-.6 0-1.1 0-1.7-.1-1.1-.3-1.9-1.2-2.4-2.2-.4-1-.5-2.2-.3-3.3 0-.3.1-.7.3-1 .3-.6.9-1.1 1.6-1.4 1.8-.7 4-.2 5.3 1.3 1.2 1.5 1.3 3.9.1 5.4z" fill="#0F1110"/><g fill="#0F1110"><path d="M432.4 25.6c.3-.7 1.2-1.1 1.8-.8.6.3 1.1 1.2.8 1.9-.3.7-1.2 1-1.8.7-.6-.3-1-1.1-.8-1.8zM472 25.6c.3-.7 1.2-1.1 1.8-.8.6.3 1.1 1.2.8 1.9-.3.7-1.2 1-1.8.7-.7-.3-1.1-1.1-.8-1.8z"/></g><g fill="#E78072"><path d="M429.1 37.6c-.5.2-1 .3-1.5.3-1.8.1-3.5-1.2-3.9-2.9s.4-3.6 2-4.5c.3-.2.7-.3 1-.3 1.2-.2 2.4.5 3.3 1.4.6.6 1.1 1.3 1.4 2.1.2.8.1 1.6-.3 2.3-.5.7-1.3 1.3-2 1.6zM471.2 34.8c.2-.3.3-.6.6-.8.5-.5 1.2-.8 1.9-.9.9-.1 1.8 0 2.6.3.7.3 1.3.7 1.8 1.3.9 1.2.5 3.1-.5 4.1-1.1 1-2.7 1.3-4.2 1-.3-.1-.5-.1-.8-.2-.8-.4-1.5-1.2-1.7-2.1-.3-.9-.1-1.9.3-2.7z"/></g></g></g></g></svg>