<svg xmlns="http://www.w3.org/2000/svg" viewBox="0 0 41.1 49.4"><path d="M41.1 28.8c-.1-2.3-.6-4.6-1.4-6.7-.3-.6-.5-1.2-.9-1.8-1.5-2.9-3.7-5.4-6.4-7.3-1.9-1.3-4-2.3-6.3-2.9-.1 0-.2 0-.3-.1.1-.2.1-.4.1-.7 0-.9-.5-1.7-1.3-2 .5-.7.8-1.6.8-2.5 0-2.4-1.9-4.3-4.3-4.3s-4.3 1.9-4.3 4.3c0 .9.3 1.8.8 2.5-.8.3-1.3 1.1-1.3 2 0 .2 0 .5.1.7-.2.1-.4.1-.6.1-1.8.5-3.5 1.2-5.1 2.2-3.3 2-6 4.9-7.7 8.5-.2.4-.4.8-.6 1.3-.8 2.1-1.3 4.3-1.4 6.7v.7c0 2.1.3 4.1.9 6 .1.5.3.9.5 1.3.8 1.9 1.8 3.7 3.1 5.3 1 1.2 2.2 2.3 3.4 3.3.6.5 1.2.9 1.9 1.2 2.3 1.4 4.9 2.3 7.7 2.6.8.1 1.6.2 2.4.2.7 0 1.4-.1 2.1-.1 2.7-.3 5.3-1.1 7.6-2.4.6-.4 1.3-.7 1.9-1.2 1.4-1 2.7-2.2 3.8-3.5 1.4-1.7 2.5-3.6 3.3-5.7.1-.3.2-.7.3-1 .6-1.9.9-3.9.9-6 .3-.2.3-.5.3-.7zM21.2 2.5c1.3 0 2.4 1.1 2.4 2.4 0 1.2-.9 2.2-2.1 2.3h-.6c-1.2-.1-2.1-1.1-2.1-2.3 0-1.4 1.1-2.4 2.4-2.4z" opacity=".4" fill="#7A7A7A"/><g fill="#EDEDED"><path d="M22.5 11h-5.1c-1.2 0-2.2-1-2.2-2.2 0-1.2 1-2.2 2.2-2.2h5.1c1.2 0 2.2 1 2.2 2.2 0 1.2-1 2.2-2.2 2.2z"/><path d="M20 8.5c-2.4 0-4.3-1.9-4.3-4.3C15.7 1.9 17.6 0 20 0s4.3 1.9 4.3 4.3c-.1 2.3-2 4.2-4.3 4.2zm0-6.6c-1.3 0-2.4 1.1-2.4 2.4 0 1.3 1.1 2.4 2.4 2.4 1.3 0 2.4-1.1 2.4-2.4-.1-1.3-1.1-2.4-2.4-2.4z"/></g><path d="M14.7 9.7c-1.8.5-3.5 1.2-5.1 2.2-3.3 2-6 4.9-7.7 8.5-.2.4-.4.8-.6 1.3C.5 23.8 0 26-.1 28.4v.7c0 2.1.3 4.1.9 6 .1.5.3.9.5 1.3.8 1.9 1.8 3.7 3.1 5.3 1 1.2 2.2 2.3 3.4 3.3.6.5 1.2.9 1.9 1.2-8.2-17.9 1.8-32.6 5-36.5z" fill="#AF0032"/><path d="M17.9 9.1c-1.1.1-2.2.3-3.2.6-3.2 4-13.2 18.6-4.8 36.4 2.3 1.4 4.9 2.3 7.7 2.6-5.6-12.4-1.2-33.5.3-39.6z" fill="#FFF"/><path d="M39.9 28.2c-.1-2.3-.6-4.6-1.4-6.7-.3-.6-.5-1.2-.9-1.8-1.5-2.9-3.7-5.4-6.4-7.3-1.9-1.3-4-2.3-6.3-2.9 3.1 3.9 13.4 18.7 4.8 36.7.6-.4 1.3-.7 1.9-1.2 1.4-1 2.7-2.2 3.8-3.5 1.4-1.7 2.5-3.6 3.3-5.7.1-.3.2-.7.3-1 .6-1.9.9-3.9.9-6v-.6z" fill="#AF0032"/><path d="M25 9.6c-1-.3-2.1-.5-3.2-.6 1.5 6.1 5.9 27.2.3 39.7 2.7-.3 5.3-1.1 7.6-2.4 8.6-18-1.6-32.9-4.7-36.7z" fill="#FFF"/><path d="M21.8 9c-.6 0-1.2-.1-1.8-.1-.7 0-1.4 0-2 .1-1.5 6.2-5.9 27.2-.4 39.6.8.1 1.6.2 2.4.2.7 0 1.4-.1 2.1-.1 5.6-12.4 1.2-33.5-.3-39.7z" fill="#AF0032"/><ellipse cx="19.9" cy="19.7" rx="12.3" ry="7" opacity=".2" fill="#FFF"/></svg>