<svg xmlns="http://www.w3.org/2000/svg" viewBox="0 0 41.1 49.5"><path d="M41.1 28.9c-.1-2.3-.6-4.6-1.4-6.7-.3-.6-.5-1.2-.9-1.8-1.5-2.9-3.7-5.4-6.4-7.3-1.9-1.3-4-2.3-6.3-2.9-.1 0-.2 0-.3-.1.1-.2.1-.4.1-.7 0-.9-.5-1.7-1.3-2 .5-.7.8-1.6.8-2.5 0-2.4-1.9-4.3-4.3-4.3s-4.3 1.9-4.3 4.3c0 .9.3 1.8.8 2.5-.8.3-1.3 1.1-1.3 2 0 .2 0 .5.1.7-.2.1-.4.1-.6.1-1.8.5-3.5 1.2-5.1 2.2-3.3 2-6 4.9-7.7 8.5-.2.4-.4.8-.6 1.3-.8 2.1-1.3 4.3-1.4 6.7v.7c0 2.1.3 4.1.9 6 .1.5.3.9.5 1.3.8 1.9 1.8 3.7 3.1 5.3 1 1.2 2.2 2.3 3.4 3.3.6.5 1.2.9 1.9 1.2 2.3 1.4 4.9 2.3 7.7 2.6.8.1 1.6.2 2.4.2.7 0 1.4-.1 2.1-.1 2.7-.3 5.3-1.1 7.6-2.4.6-.4 1.3-.7 1.9-1.2 1.4-1 2.7-2.2 3.8-3.5 1.4-1.7 2.5-3.6 3.3-5.7.1-.3.2-.7.3-1 .6-1.9.9-3.9.9-6 .3-.2.3-.4.3-.7zM21.2 2.6c1.3 0 2.4 1.1 2.4 2.4 0 1.2-.9 2.2-2.1 2.3h-.6c-1.2-.1-2.1-1.1-2.1-2.3 0-1.3 1.1-2.4 2.4-2.4z" opacity=".4" fill="#7A7A7A"/><path d="M22.5 11h-5.1c-1.2 0-2.2-1-2.2-2.2 0-1.2 1-2.2 2.2-2.2h5.1c1.2 0 2.2 1 2.2 2.2 0 1.2-1 2.2-2.2 2.2z" fill="#EDEDED"/><path d="M20 8.5c-2.3 0-4.3-1.9-4.3-4.3C15.7 1.9 17.6 0 20 0c2.3 0 4.3 1.9 4.3 4.3-.1 2.3-2 4.2-4.3 4.2zm0-6.6c-1.3 0-2.4 1.1-2.4 2.4 0 1.3 1.1 2.4 2.4 2.4 1.3 0 2.4-1.1 2.4-2.4-.1-1.3-1.1-2.4-2.4-2.4z" fill="#EDEDED"/><path d="M39.9 28.2c-.1-2.3-.6-4.6-1.4-6.7-.3-.6-.5-1.2-.9-1.8-.6-1.1-1.2-2.1-2-3.1-1.1-1.4-2.3-2.6-3.7-3.6-.3-.2-.5-.4-.8-.6-1.1-.8-2.3-1.4-3.6-2-1.2-.5-2.5-.9-3.9-1.2-1.2-.2-2.5-.4-3.9-.4-1.3 0-2.5.1-3.7.4-1.3.3-2.6.6-3.8 1.1-1 .4-1.9.9-2.8 1.4-.3.5-.9.9-1.4 1.3-1.4 1-2.6 2.2-3.7 3.6-.9 1.1-1.7 2.4-2.3 3.7-.2.4-.4.8-.6 1.3C.6 23.7.1 25.9 0 28.3v.7c0 .8.1 1.6.2 2.4.2 1.2.4 2.4.8 3.6.1.5.3.9.5 1.3l.6 1.5c.7 1.4 1.5 2.7 2.5 3.9C5.6 42.9 6.8 44 8 45c1.4 1 2.9 1.9 4.4 2.5 1.7.7 3.5 1.2 5.4 1.4.7.1 1.4.1 2.1.1.8 0 1.5-.1 2.2-.1 1.9-.2 3.7-.7 5.4-1.4 1.4-.6 2.7-1.3 4-2.2 1.4-1 2.7-2.2 3.8-3.5 1-1.2 1.9-2.6 2.5-4 .3-.5.5-1.1.7-1.7.1-.3.2-.7.3-1 .4-1.2.6-2.5.8-3.7.1-.7.1-1.5.1-2.3.2-.5.2-.7.2-.9z" fill="#FCEFCD"/><path d="M14.7 20.5c0-.1 0-.2-.1-.3v-.1c0-.1-.1-.1-.1-.2l-.2-.2c-.1 0-.1-.1-.2-.1s-.1 0-.2-.1h-.4c-.1 0-.1 0-.2.1 0 0-.1 0-.1.1 0 0-.1 0-.1.1l-.2.2c0 .1-.1.1-.1.2v.1c0 .1-.1.2-.1.3v.5c0 .1.1.1.1.2l.2.2c.1.1.1.1.2.1s.2.1.3.1h.2c.1 0 .2 0 .3-.1.1 0 .1-.1.2-.1l.2-.2c.1-.1.1-.1.1-.2V21v-.2c.2-.2.2-.2.2-.3 0 .1 0 0 0 0zM22.2 22.1c0-.1 0-.2-.1-.3v-.1c0-.1-.1-.1-.1-.2l-.2-.2c-.1 0-.1-.1-.2-.1s-.1 0-.2-.1H21c-.1 0-.1 0-.2.1 0 0-.1 0-.1.1 0 0-.1 0-.1.1l-.2.2c0 .1-.1.1-.1.2v.1c0 .1-.1.2-.1.3v.5c0 .1.1.1.1.2l.2.2c.1.1.1.1.2.1s.2.1.3.1h.2c.1 0 .2 0 .3-.1.1 0 .1-.1.2-.1l.2-.2c.1-.1.1-.1.1-.2v-.1-.2c.2-.2.2-.2.2-.3zM17.1 24.7c0-.1 0-.2-.1-.3v-.1c0-.1-.1-.1-.1-.2l-.2-.2c-.1 0-.1-.1-.2-.1s-.1 0-.2-.1h-.4c-.1 0-.1 0-.2.1 0 0-.1 0-.1.1 0 0-.1 0-.1.1l-.2.2c0 .1-.1.1-.1.2v.1c0 .1-.1.2-.1.3v.5c0 .1.1.1.1.2l.2.2c.1.1.1.1.2.1s.2.1.3.1h.2c.1 0 .2 0 .3-.1.1 0 .1-.1.2-.1l.2-.2c.1-.1.1-.1.1-.2v-.1-.2c.2-.1.2-.2.2-.3 0 .1 0 .1 0 0zM18.1 21.1c0-.1 0-.2-.1-.3v-.1c0-.1-.1-.1-.1-.2l-.2-.2c-.1 0-.1-.1-.2-.1s-.1 0-.2-.1h-.4c-.1 0-.1 0-.2.1 0 0-.1 0-.1.1 0 0-.1 0-.1.1l-.2.2c0 .1-.1.1-.1.2v.1c0 .1-.1.2-.1.3v.5c0 .1.1.1.1.2l.2.2c.1.1.1.1.2.1s.2.1.3.1h.2c.1 0 .2 0 .3-.1.1 0 .1-.1.2-.1l.2-.2c.1-.1.1-.1.1-.2v-.1-.2c.2-.2.2-.2.2-.3zM18.1 18.1c0-.1 0-.2-.1-.3v-.1c0-.1-.1-.1-.1-.2l-.2-.2c-.1 0-.1-.1-.2-.1s-.1 0-.2-.1h-.4c-.1 0-.1 0-.2.1 0 0-.1 0-.1.1 0 0-.1 0-.1.1l-.2.2c0 .1-.1.1-.1.2v.1c0 .1-.1.2-.1.3v.5c0 .1.1.1.1.2l.2.2c.1.1.1.1.2.1s.2.1.3.1h.2c.1 0 .2 0 .3-.1.1 0 .1-.1.2-.1l.2-.2c.1-.1.1-.1.1-.2v-.1-.2c.2-.2.2-.2.2-.3 0 .1 0 0 0 0zM13.7 25.7c0-.1 0-.2-.1-.3v-.1c0-.1-.1-.1-.1-.2l-.2-.2c-.1 0-.1-.1-.2-.1s-.1 0-.2-.1h-.4c-.1 0-.1 0-.2.1 0 0-.1 0-.1.1 0 0-.1 0-.1.1-.1 0-.1.1-.2.2 0 .1-.1.1-.1.2v.1c0 .1-.1.2-.1.3v.5c0 .1.1.1.1.2l.2.2c.1.1.1.1.2.1s.2.1.3.1h.2c.1 0 .2 0 .3-.1.1 0 .1-.1.2-.1l.2-.2c.1-.1.1-.1.1-.2v-.1-.2c.2-.1.2-.2.2-.3 0 .1 0 .1 0 0zM17.8 29.1c0-.1 0-.2-.1-.3v-.1c0-.1-.1-.1-.1-.2l-.2-.2c-.1 0-.1-.1-.2-.1s-.1 0-.2-.1h-.4c-.1 0-.1 0-.2.1 0 0-.1 0-.1.1 0 0-.1 0-.1.1l-.2.2c0 .1-.1.1-.1.2v.1c0 .1-.1.2-.1.3v.5c0 .1.1.1.1.2l.2.2c.1.1.1.1.2.1s.2.1.3.1h.2c.1 0 .2 0 .3-.1.1 0 .1-.1.2-.1l.2-.2c.1-.1.1-.1.1-.2v-.1-.2c.2-.2.2-.2.2-.3 0 .1 0 0 0 0zM21.2 26.1c0-.1 0-.2-.1-.3v-.1c0-.1-.1-.1-.1-.2l-.2-.2c-.1 0-.1-.1-.2-.1s-.1 0-.2-.1H20c-.1 0-.1 0-.2.1 0 0-.1 0-.1.1 0 0-.1 0-.1.1l-.2.2c0 .1-.1.1-.1.2v.1c0 .1-.1.2-.1.3v.5c0 .1.1.1.1.2l.2.2c.1.1.1.1.2.1s.2.1.3.1h.2c.1 0 .2 0 .3-.1.1 0 .1-.1.2-.1l.2-.2c.1-.1.1-.1.1-.2v-.1-.2c.2-.2.2-.2.2-.3zM12 22.1c0-.1 0-.2-.1-.3v-.1c0-.1-.1-.1-.1-.2l-.2-.2c-.1 0-.1-.1-.2-.1s-.1 0-.2-.1h-.4c-.1 0-.1 0-.2.1 0 0-.1 0-.1.1 0 0-.1 0-.1.1l-.2.2c0 .1-.1.1-.1.2v.1c0 .1-.1.2-.1.3v.5c0 .1.1.1.1.2l.2.2c.1.1.1.1.2.1s.2.1.3.1h.2c.1 0 .2 0 .3-.1.1 0 .1-.1.2-.1l.2-.2c.1-.1.1-.1.1-.2v-.1-.2c.2-.2.2-.2.2-.3zM10 26.8c0-.1 0-.2-.1-.3v-.1c0-.1-.1-.1-.1-.2s-.1-.2-.2-.2-.1-.1-.2-.1-.1 0-.2-.1h-.4c-.1 0-.1 0-.2.1 0 0-.1 0-.1.1 0 0-.1 0-.1.1l-.2.2c0 .1-.1.1-.1.2v.1c0 .1-.1.2-.1.3v.5c0 .1.1.1.1.2l.2.2c.1.1.1.1.2.1s.2.1.3.1H9c.1 0 .2 0 .3-.1.1 0 .1-.1.2-.1l.2-.2c.1-.1.1-.1.1-.2v-.1-.2c.2-.2.2-.3.2-.3zM12 31.1c0-.1 0-.2-.1-.3v-.1c0-.1-.1-.1-.1-.2l-.2-.2c-.1 0-.1-.1-.2-.1s-.1 0-.2-.1h-.4c-.1 0-.1 0-.2.1 0 0-.1 0-.1.1 0 0-.1 0-.1.1l-.2.2c0 .1-.1.1-.1.2v.1c0 .1-.1.2-.1.3v.5c0 .1.1.1.1.2l.2.2c.1.1.1.1.2.1s.2.1.3.1h.2c.1 0 .2 0 .3-.1.1 0 .1-.1.2-.1l.2-.2c.1-.1.1-.1.1-.2v-.1-.2c.2-.2.2-.2.2-.3 0 .1 0 0 0 0zM14.7 28.6c0-.1 0-.2-.1-.3v-.1c0-.1-.1-.1-.1-.2l-.2-.2c-.1 0-.1-.1-.2-.1s-.1 0-.2-.1h-.4c-.1 0-.1 0-.2.1 0 0-.1 0-.1.1 0 0-.1 0-.1.1-.1 0-.1 0-.2.1 0 .1-.1.1-.1.2v.1c0 .1-.1.2-.1.3v.5c0 .1.1.1.1.2l.2.2c.1.1.1.1.2.1s.2.1.3.1h.2c.1 0 .2 0 .3-.1.1 0 .1-.1.2-.1l.2-.2c.1-.1.1-.1.1-.2V29v-.2c.2-.1.2-.2.2-.2zM16.1 34.1c0-.1 0-.2-.1-.3v-.1c0-.1-.1-.1-.1-.2l-.2-.2c-.1 0-.1-.1-.2-.1s-.1 0-.2-.1h-.4c-.1 0-.1 0-.2.1 0 0-.1 0-.1.1 0 0-.1 0-.1.1l-.2.2c0 .1-.1.1-.1.2v.1c0 .1-.1.2-.1.3v.5c0 .1.1.1.1.2l.2.2c.1.1.1.1.2.1s.2.1.3.1h.2c.1 0 .2 0 .3-.1.1 0 .1-.1.2-.1l.2-.2c.1-.1.1-.1.1-.2v-.1-.2c.2-.2.2-.2.2-.3zM12 34.1c0-.1 0-.2-.1-.3v-.1c0-.1-.1-.1-.1-.2l-.2-.2c-.1 0-.1-.1-.2-.1s-.1 0-.2-.1h-.4c-.1 0-.1 0-.2.1 0 0-.1 0-.1.1 0 0-.1 0-.1.1l-.2.2c0 .1-.1.1-.1.2v.1c0 .1-.1.2-.1.3v.5c0 .1.1.1.1.2l.2.2c.1.1.1.1.2.1s.2.1.3.1h.2c.1 0 .2 0 .3-.1.1 0 .1-.1.2-.1l.2-.2c.1-.1.1-.1.1-.2v-.1-.2c.2-.2.2-.2.2-.3zM8.4 35.1c0-.1 0-.2-.1-.3v-.1c0-.1-.1-.1-.1-.2-.1-.1-.2-.1-.2-.2-.1 0-.1-.1-.2-.1s-.1 0-.2-.1h-.4c-.1 0-.1 0-.2.1 0 0-.1 0-.1.1 0 0-.1 0-.1.1l-.2.2c0 .1-.1.1-.1.2v.1c0 .1-.1.2-.1.3v.5c0 .1.1.1.1.2l.2.2c.1-.1.2-.1.3-.1.1 0 .2.1.3.1h.2c.1 0 .2 0 .3-.1 0 0 .1 0 .2-.1l.2-.2c.1-.1.1-.1.1-.2v-.1-.2c.1 0 .1 0 .1-.1zM16.7 37.8c0-.1 0-.2-.1-.3v-.1c0-.1-.1-.1-.1-.2l-.2-.2c-.1 0-.1-.1-.2-.1s-.1 0-.2-.1h-.4c-.1 0-.1 0-.2.1 0 0-.1 0-.1.1 0 0-.1 0-.1.1l-.2.2c0 .1-.1.1-.1.2v.1c0 .1-.1.2-.1.3v.5c0 .1.1.1.1.2l.2.2c.1.1.1.1.2.1s.2.1.3.1h.2c.1 0 .2 0 .3-.1.1 0 .1-.1.2-.1l.2-.2c.1-.1.1-.1.1-.2v-.1-.2c.2-.1.2-.2.2-.3 0 .1 0 .1 0 0zM15.1 42c0-.1 0-.2-.1-.3v-.1c0-.1-.1-.1-.1-.2l-.2-.2c-.1 0-.1-.1-.2-.1s-.1 0-.2-.1h-.4c-.1 0-.1 0-.2.1 0 0-.1 0-.1.1 0 0-.1 0-.1.1l-.2.2c0 .1-.1.1-.1.2v.1c0 .1-.1.2-.1.3v.5c0 .1.1.1.1.2l.2.2c.1.1.1.1.2.1s.2.1.3.1h.2c.1 0 .2 0 .3-.1.1 0 .1-.1.2-.1l.2-.2c.1-.1.1-.1.1-.2v-.1-.2c.2-.2.2-.2.2-.3zM11 37.8c0-.1 0-.2-.1-.3v-.1c0-.1-.1-.1-.1-.2l-.2-.2c-.1 0-.1-.1-.2-.1s-.1 0-.2-.1h-.4c-.1 0-.1 0-.2.1 0 0-.1 0-.1.1 0 0-.1 0-.1.1l-.2.2c0 .1-.1.1-.1.2v.1c0 .1-.1.2-.1.3v.5c0 .1.1.1.1.2l.2.2c.1.1.1.1.2.1s.2.1.3.1h.2c.1 0 .2 0 .3-.1.1 0 .1-.1.2-.1l.2-.2c.1-.1.1-.1.1-.2v-.1-.2c.2-.1.2-.2.2-.3 0 .1 0 .1 0 0zM9 41c0-.1 0-.2-.1-.3v-.1c0-.1-.1-.1-.1-.2l-.2-.2c-.1 0-.1-.1-.2-.1s-.1 0-.2-.1h-.4c-.1 0-.1 0-.2.1 0 0-.1 0-.1.1 0 0-.1 0-.1.1l-.2.2c0 .1-.1.1-.1.2v.1s-.1.1-.1.2v.5c0 .1.1.1.1.2l.2.2c.1.1.1.1.2.1h.6c.1 0 .2 0 .3-.1.1 0 .1-.1.2-.1l.2-.2c.1-.1.1-.1.1-.2v-.1-.2c.1 0 .1 0 .1-.1zM12 44c0-.1 0-.2-.1-.3v-.1c0-.1-.1-.1-.1-.2l-.2-.2c-.1 0-.1-.1-.2-.1s-.1 0-.2-.1h-.4c-.1 0-.1 0-.2.1 0 0-.1 0-.1.1 0 0-.1 0-.1.1l-.2.2c0 .1-.1.1-.1.2v.1c0 .1-.1.2-.1.3v.5c0 .1.1.1.1.2l.2.2c.1.1.1.1.2.1s.2.1.3.1h.2c.1 0 .2 0 .3-.1.1 0 .1-.1.2-.1l.2-.2c.1-.1.1-.1.1-.2v-.1-.2c.2-.2.2-.2.2-.3zM16.7 46c0-.1 0-.2-.1-.3v-.1c0-.1-.1-.1-.1-.2l-.2-.2c-.1 0-.1-.1-.2-.1s-.1 0-.2-.1h-.4c-.1 0-.1 0-.2.1 0 0-.1 0-.1.1 0 0-.1 0-.1.1l-.2.2c0 .1-.1.1-.1.2v.1c0 .1-.1.2-.1.3v.5c0 .1.1.1.1.2l.2.2c.1.1.1.1.2.1s.2.1.3.1h.2c.1 0 .2 0 .3-.1.1 0 .1-.1.2-.1l.2-.2c.1-.1.1-.1.1-.2v-.1-.2c.2-.2.2-.2.2-.3zM21.7 47c0-.1 0-.2-.1-.3v-.1c0-.1-.1-.1-.1-.2l-.2-.2c-.1 0-.1-.1-.2-.1s-.1 0-.2-.1h-.4c-.1 0-.1 0-.2.1 0 0-.1 0-.1.1 0 0-.1 0-.1.1l-.2.2c0 .1-.1.1-.1.2v.1c0 .1-.1.2-.1.3v.5c0 .1.1.1.1.2l.2.2c.1.1.1.1.2.1s.2.1.3.1h.2c.1 0 .2 0 .3-.1.1 0 .1-.1.2-.1l.2-.2c.1-.1.1-.1.1-.2v-.1-.2c.1-.2.2-.2.2-.3zM19.2 43c0-.1 0-.2-.1-.3v-.1c0-.1-.1-.1-.1-.2l-.2-.2c-.1 0-.1-.1-.2-.1s-.1 0-.2-.1H18c-.1 0-.1 0-.2.1 0 0-.1 0-.1.1 0 0-.1 0-.1.1l-.2.2c0 .1-.1.1-.1.2v.1c0 .1-.1.2-.1.3v.5c0 .1.1.1.1.2l.2.2c.1.1.1.1.2.1s.2.1.3.1h.2c.1 0 .2 0 .3-.1.1 0 .1-.1.2-.1l.2-.2c.1-.1.1-.1.1-.2v-.1-.2c.2-.2.2-.2.2-.3zM13.7 39.2c0-.1 0-.2-.1-.3v-.1c0-.1-.1-.1-.1-.2l-.2-.2c-.1 0-.1-.1-.2-.1s-.1 0-.2-.1h-.4c-.1 0-.1 0-.2.1 0 0-.1 0-.1.1 0 0-.1 0-.1.1l-.2.2c0 .1-.1.1-.1.2v.1c0 .1-.1.2-.1.3v.5c0 .1.1.1.1.2.2-.1.2 0 .3 0 .1.1.1.1.2.1s.2.1.3.1h.2c.1 0 .2 0 .3-.1.1 0 .1-.1.2-.1l.2-.2c.1-.1.1-.1.1-.2v-.1-.2c.1 0 .1-.1.1-.1zM20.2 31.8c0-.1 0-.2-.1-.3v-.1c0-.1-.1-.1-.1-.2l-.2-.2c-.1 0-.1-.1-.2-.1s-.1 0-.2-.1H19c-.1 0-.1 0-.2.1 0 0-.1 0-.1.1 0 0-.1 0-.1.1l-.2.2c0 .1-.1.1-.1.2v.1c0 .1-.1.2-.1.3v.5c0 .1.1.1.1.2l.2.2c.1.1.1.1.2.1s.2.1.3.1h.2c.1 0 .2 0 .3-.1.1 0 .1-.1.2-.1l.2-.2c.1-.1.1-.1.1-.2v-.1-.2c.2-.2.2-.2.2-.3zM26.1 30.1c0-.1 0-.2-.1-.3v-.1c0-.1-.1-.1-.1-.2l-.2-.2c-.1 0-.1-.1-.2-.1s-.1 0-.2-.1h-.4c-.1 0-.1 0-.2.1 0 0-.1 0-.1.1 0 0-.1 0-.1.1l-.2.2c0 .1-.1.1-.1.2v.1c0 .1-.1.2-.1.3v.5c0 .1.1.1.1.2l.2.2c.1.1.1.1.2.1s.2.1.3.1h.2c.1 0 .2 0 .3-.1.1 0 .1-.1.2-.1l.2-.2c.1-.1.1-.1.1-.2v-.1-.2c.2-.2.2-.2.2-.3 0 .1 0 0 0 0zM22.7 29.1c0-.1 0-.2-.1-.3v-.1c0-.1-.1-.1-.1-.2l-.2-.2c-.1 0-.1-.1-.2-.1s-.1 0-.2-.1h-.4c-.1 0-.1 0-.2.1 0 0-.1 0-.1.1 0 0-.1 0-.1.1l-.2.2c0 .1-.1.1-.1.2v.1c0 .1-.1.2-.1.3v.5c0 .1.1.1.1.2l.2.2c.1.1.1.1.2.1s.2.1.3.1h.2c.1 0 .2 0 .3-.1.1 0 .1-.1.2-.1l.2-.2c.1-.1.1-.1.1-.2v-.1-.2c.2-.2.2-.2.2-.3 0 .1 0 0 0 0zM28.5 27.8c0-.1 0-.2-.1-.3v-.1c0-.1-.1-.1-.1-.2l-.2-.2c-.1 0-.1-.1-.2-.1s-.1 0-.2-.1h-.4c-.1 0-.1 0-.2.1 0 0-.1 0-.1.1 0 0-.1 0-.1.1l-.2.2c0 .1-.1.1-.1.2v.1c0 .1-.1.2-.1.3v.5c0 .1.1.1.1.2l.2.2c.1.1.1.1.2.1s.2.1.3.1h.2c.1 0 .2 0 .3-.1.1 0 .1-.1.2-.1l.2-.2c.1-.1.1-.1.1-.2v-.1-.2c.2-.2.2-.3.2-.3zM25.7 37.8c0-.1 0-.2-.1-.3v-.1c0-.1-.1-.1-.1-.2l-.2-.2H25c-.1 0-.1 0-.2-.1h-.4c-.1 0-.1 0-.2.1 0 0-.1 0-.1.1 0 0-.1 0-.1.1l-.2.2c0 .1-.1.1-.1.2v.1c0 .1-.1.2-.1.3v.5c0 .1.1.1.1.2l.2.2c.1.1.1.1.2.1s.2.1.3.1h.2c.1 0 .2 0 .3-.1.1 0 .1-.1.2-.1l.2-.2c.1-.1.1-.1.1-.2v-.1-.2c.3-.2.3-.3.3-.4 0 .1 0 .1 0 0zM24.4 35.1c0-.1 0-.2-.1-.3v-.1c0-.1-.1-.1-.1-.2l-.2-.2c-.1 0-.1-.1-.2-.1s-.1 0-.2-.1h-.4c-.1 0-.1 0-.2.1 0 0-.1 0-.1.1 0 0-.1 0-.1.1l-.2.2c0 .1-.1.1-.1.2v.1c0 .1-.1.2-.1.3v.5c0 .1.1.1.1.2l.2.2c.1-.1.2-.1.3-.1.1 0 .2.1.3.1h.2c.1 0 .2 0 .3-.1.1 0 .1-.1.2-.1l.2-.2c.1-.1.1-.1.1-.2v-.1-.2c.1 0 .1 0 .1-.1zM23.4 31.1c-.1-.1-.2-.2-.3-.2h-.8c-.1 0-.1.1-.2.1 0 0-.1 0-.1.1l-.1.1c0 .1-.1.1-.1.2 0 0 0 .1-.1.1V32.2c0 .1.1.2.2.3l.1.1.1.1h.2c.1 0 .1 0 .2.1h.2c.1 0 .2 0 .3-.1.1 0 .2-.1.2-.1s.1 0 .1-.1l.1-.1.2-.2c0-.1.1-.1.1-.2v-.3-.2-.1c0-.1-.1-.1-.1-.2-.2 0-.2 0-.2-.1 0 .1 0 0 0 0zM26.4 25.4c0-.1 0-.2-.1-.3V25c0-.1-.1-.1-.1-.2l-.2-.2c-.1 0-.1-.1-.2-.1s-.1 0-.2-.1h-.4c-.1 0-.1 0-.2.1 0 0-.1 0-.1.1 0 0-.1 0-.1.1l-.2.2c0 .1-.1.1-.1.2v.1c0 .1-.1.2-.1.3v.5c0 .1.1.1.1.2l.2.2c.1.1.1.1.2.1s.2.1.3.1h.2c.1 0 .2 0 .3-.1.1 0 .1-.1.2-.1l.2-.2c.1-.1.1-.1.1-.2v-.1-.2c.2-.2.2-.2.2-.3 0 .1 0 0 0 0zM26.4 20.7c0-.1 0-.2-.1-.3v-.1c0-.1-.1-.1-.1-.2-.1 0-.2-.1-.2-.1-.1 0-.1-.1-.2-.1s-.1 0-.2-.1h-.4c-.1 0-.1 0-.2.1 0 0-.1 0-.1.1 0 0-.1 0-.1.1l-.2.2c0 .1-.1.1-.1.2v.1c0 .1-.1.2-.1.3v.5c0 .1.1.1.1.2l.2.2c.1.1.1.1.2.1s.2.1.3.1h.2c.1 0 .2 0 .3-.1.1 0 .1-.1.2-.1l.2-.2c.1-.1.1-.1.1-.2v-.1-.2c.2-.3.2-.3.2-.4zM22.2 18.6c0-.1 0-.2-.1-.3v-.1c0-.1-.1-.1-.1-.2l-.2-.2c-.1 0-.1-.1-.2-.1s-.1 0-.2-.1H21c-.1 0-.1 0-.2.1 0 0-.1 0-.1.1 0 0-.1 0-.1.1l-.2.2c0 .1-.1.1-.1.2v.1c0 .1-.1.2-.1.3v.5c0 .1.1.1.1.2l.2.2c.1.1.1.1.2.1s.2.1.3.1h.2c.1 0 .2 0 .3-.1.1 0 .1-.1.2-.1l.2-.2c.1-.1.1-.1.1-.2v-.1-.2c.2-.2.2-.2.2-.3zM29.5 24.7c0-.1 0-.2-.1-.3v-.1c0-.1-.1-.1-.1-.2l-.2-.2c-.1 0-.1-.1-.2-.1s-.1 0-.2-.1h-.4c-.1 0-.1 0-.2.1 0 0-.1 0-.1.1 0 0-.1 0-.1.1l-.2.2c0 .1-.1.1-.1.2v.1c0 .1-.1.2-.1.3v.5c0 .1.1.1.1.2l.2.2c.1.1.1.1.2.1s.2.1.3.1h.2c.1 0 .2 0 .3-.1.1 0 .1-.1.2-.1l.2-.2c.1-.1.1-.1.1-.2v-.1-.2c.2-.1.2-.2.2-.3 0 .1 0 .1 0 0zM31 17.6c0-.1 0-.2-.1-.3v-.1c0-.1-.1-.1-.1-.2l-.2-.2c-.1 0-.1-.1-.2-.1s-.1 0-.2-.1h-.4c-.1 0-.1 0-.2.1 0 0-.1 0-.1.1 0 0-.1 0-.1.1l-.2.2c0 .1-.1.1-.1.2v.1c0 .1-.1.2-.1.3v.5c0 .1.1.1.1.2l.2.2c.1.1.1.1.2.1s.2.1.3.1h.2c.1 0 .2 0 .3-.1.1 0 .1-.1.2-.1l.2-.2c.1-.1.1-.1.1-.2v-.1-.2c.2-.2.2-.2.2-.3zM29.1 13.8c0-.1 0-.2-.1-.3v-.1c0-.1-.1-.1-.1-.2l-.2-.2c-.1 0-.1-.1-.2-.1s-.1 0-.2-.1h-.4c-.1 0-.1 0-.2.1 0 0-.1 0-.1.1 0 0-.1 0-.1.1l-.2.2c0 .1-.1.1-.1.2v.1c0 .1-.1.2-.1.3v.5c0 .1.1.1.1.2l.2.2c.1.1.1.1.2.1s.2.1.3.1h.2c.1 0 .2 0 .3-.1.1 0 .1-.1.2-.1l.2-.2c.1-.1.1-.1.1-.2v-.1-.2c.2-.2.2-.3.2-.3zM35.2 22.5c0-.1 0-.2-.1-.3v-.1c-.1 0-.1-.1-.1-.1l-.2-.2c-.1 0-.1-.1-.2-.1s-.1 0-.2-.1H34c-.1 0-.1 0-.2.1 0 0-.1 0-.1.1 0 0-.1 0-.1.1l-.2.2c0 .1-.1.1-.1.2v.1c0 .1-.1.2-.1.3v.5c0 .1.1.1.1.2l.2.2c.1.1.1.1.2.1s.2.1.3.1h.2c.1 0 .2 0 .3-.1.1 0 .1-.1.2-.1l.2-.2c.1-.1.1-.1.1-.2v-.1-.2c.2-.3.2-.3.2-.4 0 .1 0 0 0 0zM31 21.1c0-.1 0-.2-.1-.3v-.1c0-.1-.1-.1-.1-.2l-.2-.2c-.1 0-.1-.1-.2-.1s-.1 0-.2-.1h-.4c-.1 0-.1 0-.2.1 0 0-.1 0-.1.1 0 0-.1 0-.1.1l-.2.2c0 .1-.1.1-.1.2v.1c0 .1-.1.2-.1.3v.5c0 .1.1.1.1.2l.2.2c.1.1.1.1.2.1s.2.1.3.1h.2c.1 0 .2 0 .3-.1.1 0 .1-.1.2-.1l.2-.2c.1-.1.1-.1.1-.2v-.1-.2c.2-.2.2-.2.2-.3zM26.1 11.8c0-.1 0-.2-.1-.3v-.1c0-.1-.1-.1-.1-.2l-.2-.2c-.1 0-.1-.1-.2-.1s-.1 0-.2-.1h-.4c-.1 0-.1 0-.2.1 0 0-.1 0-.1.1 0 0-.1 0-.1.1l-.2.2c0 .1-.1.1-.1.2v.1c0 .1-.1.2-.1.3v.5c0 .1.1.1.1.2l.2.2c.1.1.1.1.2.1s.2.1.3.1h.2c.1 0 .2 0 .3-.1.1 0 .1-.1.2-.1l.2-.2c.1-.1.1-.1.1-.2v-.1-.2c.2-.2.2-.3.2-.3zM19.1 10.8c0-.1 0-.2-.1-.3v-.1c0-.1-.1-.1-.1-.2l-.2-.2c-.1 0-.1-.1-.2-.1s-.1 0-.2-.1h-.4c-.1 0-.1 0-.2.1 0 0-.1 0-.1.1 0 0-.1 0-.1.1l-.2.2c0 .1-.1.1-.1.2v.1c0 .1-.1.2-.1.3v.5c0 .1.1.1.1.2l.2.2c.1.1.1.1.2.1s.2.1.3.1h.2c.1 0 .2 0 .3-.1.1 0 .1-.1.2-.1l.2-.2c.1-.1.1-.1.1-.2v-.1-.2c.2-.2.2-.3.2-.3zM7 18.1v-.3-.1c0-.1-.1-.1-.1-.2l-.2-.2c-.1 0-.1-.1-.2-.1s-.1 0-.2-.1h-.4c-.1 0-.1 0-.2.1 0 0-.1 0-.1.1 0 0-.1 0-.1.1l-.2.2c0 .1-.1.1-.1.2v.1c-.1 0-.2.1-.2.2v.5c0 .1.1.1.1.2l.2.2c.1.1.1.1.2.1s.2.1.3.1H6c.1 0 .2 0 .3-.1.1 0 .1-.1.2-.1l.2-.2c.1-.1.1-.1.1-.2v-.1-.2c.2-.1.2-.1.2-.2 0 .1 0 0 0 0zM5.4 21.1c0-.1 0-.2-.1-.3v-.1c0-.1-.1-.1-.1-.2-.1 0-.2-.1-.2-.2-.1 0-.1-.1-.2-.1s-.1 0-.2-.1h-.4c-.1 0-.1 0-.2.1 0 0-.1 0-.1.1 0 0-.1 0-.1.1l-.2.2c0 .1-.1.1-.1.2v.1c0 .1-.1.2-.1.3v.5c0 .1.1.1.1.2l.2.2c.1-.1.2-.1.3 0 .1 0 .2.1.3.1h.2c.1 0 .2 0 .3-.1 0-.1.1-.1.2-.2l.2-.2c.1-.1.1-.1.1-.2v-.1-.2c.1 0 .1 0 .1-.1zM4.4 25.7c0-.1 0-.2-.1-.3v-.1c0-.1-.1-.1-.1-.2-.1 0-.2-.1-.2-.1-.1 0-.1-.1-.2-.1s-.1 0-.2-.1h-.4c-.1 0-.1 0-.2.1 0 0-.1 0-.1.1 0 0-.1 0-.1.1l-.2.2c0 .1-.1.1-.1.2v.1c0 .1-.1.2-.1.3v.5c0 .1.1.1.1.2l.2.2c.1.1.1.1.2.1s.2.1.3.1h.2c.1 0 .2 0 .3-.1.1 0 .1-.1.2-.1l.2-.2c.1-.1.1-.1.1-.2v-.1-.2c.2-.2.2-.3.2-.4 0 .1 0 .1 0 0zM7.4 23.1c0-.1 0-.2-.1-.3v-.1c0-.1-.1-.1-.1-.2-.1 0-.2-.1-.2-.2-.1 0-.1-.1-.2-.1s-.1 0-.2-.1h-.4c-.1 0-.1 0-.2.1 0 0-.1 0-.1.1 0 0-.1 0-.1.1l-.2.2c0 .1-.1.1-.1.2v.1c0 .1-.1.2-.1.3v.5c0 .1.1.1.1.2l.2.2c.1-.1.2-.1.3 0 .1 0 .2.1.3.1h.2c.1 0 .2 0 .3-.1 0-.1.1-.1.2-.1l.2-.2c.1-.1.1-.1.1-.2v-.1-.2c.1-.1.1-.1.1-.2zM3.7 30.8c0-.1 0-.2-.1-.3v-.1c0-.1-.1-.1-.1-.2l-.2-.2c-.1 0-.1-.1-.2-.1s-.1 0-.2-.1h-.4c-.1 0-.1 0-.2.1 0 0-.1 0-.1.1 0 0-.1 0-.1.1-.1 0-.1 0-.2.1 0 .1-.1.1-.1.2v.1c0 .1-.1.2-.1.3v.5c0 .1.1.1.1.2.2 0 .2.1.3.1.1.1.1.1.2.1s.2.1.3.1h.2c.1 0 .2 0 .3-.1.1 0 .1-.1.2-.1l.2-.2c.1-.1.1-.1.1-.2v-.1-.2c.1 0 .1 0 .1-.1zM7 28.6c0-.1 0-.2-.1-.3v-.1c0-.1-.1-.1-.1-.2l-.2-.2c-.1 0-.1-.1-.2-.1s-.1 0-.2-.1h-.4c-.1 0-.1 0-.2.1 0 0-.1 0-.1.1 0 0-.1 0-.1.1l-.2.2c0 .1-.1.1-.1.2v.1c0 .1-.1.2-.1.3v.5c0 .1.1.1.1.2l.2.2c.1.1.1.1.2.1s.2.1.3.1H6c.1 0 .2 0 .3-.1.1 0 .1-.1.2-.1l.2-.2c.1-.1.1-.1.1-.2L7 29v-.2-.2zM8.4 31.8c0-.1 0-.2-.1-.3v-.1c0-.1-.1-.1-.1-.2-.1 0-.2-.1-.2-.2-.1 0-.1-.1-.2-.1s-.1 0-.2-.1h-.4c-.1 0-.1 0-.2.1 0 0-.1 0-.1.1 0 0-.1 0-.1.1l-.2.2c0 .1-.1.1-.1.2v.1c0 .1-.1.2-.1.3v.5c0 .1.1.1.1.2l.2.2c.1.1.1.1.2.1s.2.1.3.1h.2c.1 0 .2 0 .3-.1.1 0 .1-.1.2-.1l.2-.2c.1-.1.1-.1.1-.2v-.1-.2c.2-.2.2-.2.2-.3zM3.7 33.2c-.1 0-.2-.1-.3-.1H3.1c-.1 0-.2.1-.2.1-.1 0-.1.1-.2.1 0 0-.1.1-.1.2s-.1.1-.1.2 0 .1-.1.2v.5c0 .1.1.2.1.2 0 .1.1.1.1.2.2.1.3.2.4.2H3.9c.1 0 .1-.1.2-.2l.2-.2v-.1-.1-.3-.2c0-.1-.1-.2-.1-.2 0-.1-.1-.1-.1-.2l-.1-.1s-.1-.1-.2-.1c0-.1 0-.1-.1-.1zM5.7 37.3c-.1 0-.2-.1-.3-.1H5.1c-.1 0-.2.1-.2.1-.1 0-.1.1-.2.1 0 0-.1.1-.1.2s-.1.1-.1.2 0 .1-.1.2v.5c0 .1.1.2.1.2 0 .1.1.1.1.2.2.1.3.2.4.2h.7c.1 0 .1-.1.2-.1s.1 0 .2-.1l.2-.2v-.1-.1-.3-.2c0-.1-.1-.2-.1-.2 0-.1-.1-.1-.1-.2l-.1-.1s-.1-.1-.2-.1c0-.1 0-.1-.1-.1zM25.2 15.7c0-.1 0-.2-.1-.3v-.1c0-.1-.1-.1-.1-.2s-.1-.1-.2-.2c-.1 0-.1-.1-.2-.1s-.1 0-.2-.1H24c-.1 0-.1 0-.2.1 0 0-.1 0-.1.1 0 0-.1 0-.1.1l-.2.2c0 .1-.1.1-.1.2v.1c0 .1-.1.2-.1.3v.5c0 .1.1.1.1.2l.2.2c.1.1.1.1.2.1s.2.1.3.1h.2c.1 0 .2 0 .3-.1.1 0 .1-.1.2-.1l.2-.2c.1-.1.1-.1.1-.2v-.1-.2c.2-.2.2-.2.2-.3zM22.2 12.8c0-.1 0-.2-.1-.3v-.1c0-.1-.1-.1-.1-.2l-.2-.2c-.1 0-.1-.1-.2-.1s-.1 0-.2-.1H21c-.1 0-.1 0-.2.1 0 0-.1 0-.1.1 0 0-.1 0-.1.1l-.2.2c0 .1-.1.1-.1.2v.1c0 .1-.1.2-.1.3v.5c0 .1.1.1.1.2l.2.2c.1.1.1.1.2.1s.2.1.3.1h.2c.1 0 .2 0 .3-.1.1 0 .1-.1.2-.1l.2-.2c.1-.1.1-.1.1-.2v-.1-.2c.2-.2.2-.3.2-.3zM20.2 15.2c0-.1 0-.2-.1-.3v-.1c0-.1-.1-.1-.1-.2l-.2-.2c-.1 0-.1-.1-.2-.1s-.1 0-.2-.1H19c-.1 0-.1 0-.2.1 0 0-.1 0-.1.1 0 0-.1 0-.1.1l-.2.2c0 .1-.1.1-.1.2v.1c0 .1-.1.2-.1.3v.5c0 .1.1.1.1.2l.2.2c.1.1.1.1.2.1s.2.1.3.1h.2c.1 0 .2 0 .3-.1.1 0 .1-.1.2-.1l.2-.2c.1-.1.1-.1.1-.2v-.1-.2c.2-.2.2-.2.2-.3zM16.7 12.8c0-.1 0-.2-.1-.3v-.1c0-.1-.1-.1-.1-.2l-.2-.2c-.1 0-.1-.1-.2-.1s-.1 0-.2-.1h-.4c-.1 0-.1 0-.2.1 0 0-.1 0-.1.1 0 0-.1 0-.1.1l-.2.2c0 .1-.1.1-.1.2v.1c0 .1-.1.2-.1.3v.5c0 .1.1.1.1.2l.2.2c.1.1.1.1.2.1s.2.1.3.1h.2c.1 0 .2 0 .3-.1.1 0 .1-.1.2-.1l.2-.2c.1-.1.1-.1.1-.2v-.1-.2c.2-.2.2-.3.2-.3zM12.7 16.2c0-.1 0-.2-.1-.3v-.1c0-.1-.1-.1-.1-.2l-.2-.2c-.1 0-.1-.1-.2-.1s-.1 0-.2-.1h-.4c-.1 0-.1 0-.2.1 0 0-.1 0-.1.1 0 0-.1 0-.1.1l-.2.2c0 .1-.1.1-.1.2v.1c0 .1-.1.2-.1.3v.5c0 .1.1.1.1.2.2-.1.2 0 .3 0 .1.1.1.1.2.1s.2.1.3.1h.2c.1 0 .2 0 .3-.1.1 0 .1-.1.2-.1l.2-.2c.1-.1.1-.1.1-.2v-.1-.2c.1 0 .1 0 .1-.1zM15.7 16.2c0-.1 0-.2-.1-.3v-.1c0-.1-.1-.1-.1-.2l-.2-.2c-.1 0-.1-.1-.2-.1s-.1 0-.2-.1h-.4c-.1 0-.1 0-.2.1 0 0-.1 0-.1.1 0 0-.1 0-.1.1l-.2.2c0 .1-.1.1-.1.2v.1c0 .1-.1.2-.1.3v.5c0 .1.1.1.1.2.2-.1.2 0 .3 0 .1.1.1.1.2.1s.2.1.3.1h.2c.1 0 .2 0 .3-.1.1 0 .1-.1.2-.1l.2-.2c.1-.1.1-.1.1-.2v-.1-.2c.1 0 .1 0 .1-.1zM10 19.1c0-.1 0-.2-.1-.3v-.1c0-.1-.1-.1-.1-.2l-.2-.2c-.1 0-.1-.1-.2-.1s-.1 0-.2-.1h-.4c-.1 0-.1 0-.2.1 0 0-.1 0-.1.1 0 0-.1 0-.1.1l-.2.2c0 .1-.1.1-.1.2v.1s-.1.1-.1.2v.5c0 .1.1.1.1.2l.2.2c.1.1.1.1.2.1s.2.1.3.1H9c.1 0 .2 0 .3-.1.1 0 .1-.1.2-.1l.2-.2c.1-.1.1-.1.1-.2v-.1-.2c.2-.1.2-.1.2-.2 0 .1 0 0 0 0zM9 15.2v-.3-.1c0-.1-.1-.1-.1-.2l-.2-.2c-.1 0-.1-.1-.2-.1s-.1 0-.2-.1h-.4c-.1 0-.1 0-.2.1 0 0-.1 0-.1.1 0 0-.1 0-.1.1l-.2.2c0 .1-.1.1-.1.2v.1c-.1 0-.2.1-.2.2v.5c0 .1.1.1.1.2.2 0 .3.1.3.1.1.1.1.1.2.1s.2.1.3.1h.2c.1 0 .2 0 .3-.1.1 0 .1-.1.2-.1l.2-.2c.1-.1.1-.1.1-.2v-.1-.2c.1 0 .1 0 .1-.1zM13.4 12.8c0-.1 0-.2-.1-.3v-.1c0-.1-.1-.1-.1-.2-.1-.1-.2-.1-.2-.2-.1 0-.1-.1-.2-.1s-.1 0-.2-.1h-.4c-.1 0-.1 0-.2.1 0 0-.1 0-.1.1 0 0-.1 0-.1.1l-.2.2c0 .1-.1.1-.1.2v.1c0 .1-.1.2-.1.3v.5c0 .1.1.1.1.2l.2.2c.1.1.1.1.2.1s.2.1.3.1h.2c.1 0 .2 0 .3-.1.1 0 .1-.1.2-.1l.2-.2c.1-.1.1-.1.1-.2v-.1-.2c.2-.2.2-.3.2-.3zM30.5 30.1c0-.1 0-.2-.1-.3v-.1c0-.1-.1-.1-.1-.2l-.2-.2c-.1 0-.1-.1-.2-.1s-.1 0-.2-.1h-.4c-.1 0-.1 0-.2.1 0 0-.1 0-.1.1 0 0-.1 0-.1.1l-.2.2c0 .1-.1.1-.1.2v.1c0 .1-.1.2-.1.3v.5c0 .1.1.1.1.2l.2.2c.1.1.1.1.2.1s.2.1.3.1h.2c.1 0 .2 0 .3-.1.1 0 .1-.1.2-.1l.2-.2c.1-.1.1-.1.1-.2v-.1-.2c.2-.2.2-.2.2-.3 0 .1 0 0 0 0zM28.1 34.8c0-.1 0-.2-.1-.3v-.1c0-.1-.1-.1-.1-.2l-.2-.2c-.1 0-.1-.1-.2-.1s-.1 0-.2-.1h-.4c-.1 0-.1 0-.2.1 0 0-.1 0-.1.1 0 0-.1 0-.1.1l-.2.2c0 .1-.1.1-.1.2v.1c0 .1-.1.2-.1.3v.5c0 .1.1.1.1.2l.2.2c.1.1.1.1.2.1s.2.1.3.1h.2c.1 0 .2 0 .3-.1.1 0 .1-.1.2-.1l.2-.2c.1-.1.1-.1.1-.2v-.1-.2c.2-.2.2-.3.2-.3zM22.2 38.2c0-.1 0-.2-.1-.3v-.1c0-.1-.1-.1-.1-.2l-.2-.2c-.1 0-.1-.1-.2-.1s-.1 0-.2-.1H21c-.1 0-.1 0-.2.1 0 0-.1 0-.1.1 0 0-.1 0-.1.1l-.2.2c0 .1-.1.1-.1.2v.1c0 .1-.1.2-.1.3v.5c0 .1.1.1.1.2l.2.2c.1.1.1.1.2.1s.2.1.3.1h.2c.1 0 .2 0 .3-.1.1 0 .1-.1.2-.1l.2-.2c.1-.1.1-.1.1-.2v-.1-.2c.2-.2.2-.3.2-.3zM19.2 40c0-.1 0-.2-.1-.3v-.1c0-.1-.1-.1-.1-.2l-.2-.2c-.1 0-.1-.1-.2-.1s-.1 0-.2-.1H18c-.1 0-.1 0-.2.1 0 0-.1 0-.1.1 0 0-.1 0-.1.1l-.2.2c0 .1-.1.1-.1.2v.1c0 .1-.1.2-.1.3v.5c0 .1.1.1.1.2l.2.2c.1.1.1.1.2.1s.2.1.3.1h.2c.1 0 .2 0 .3-.1.1 0 .1-.1.2-.1l.2-.2c.1-.1.1-.1.1-.2v-.1-.2c.2-.2.2-.2.2-.3zM22.2 43c0-.1 0-.2-.1-.3v-.1c0-.1-.1-.1-.1-.2l-.2-.2c-.1 0-.1-.1-.2-.1s-.1 0-.2-.1H21c-.1 0-.1 0-.2.1 0 0-.1 0-.1.1 0 0-.1 0-.1.1l-.2.2c0 .1-.1.1-.1.2v.1c0 .1-.1.2-.1.3v.5c0 .1.1.1.1.2l.2.2c.1.1.1.1.2.1s.2.1.3.1h.2c.1 0 .2 0 .3-.1.1 0 .1-.1.2-.1l.2-.2c.1-.1.1-.1.1-.2v-.1-.2c.2-.2.2-.2.2-.3zM26.1 41c0-.1 0-.2-.1-.3v-.1c0-.1-.1-.1-.1-.2l-.2-.2c-.1 0-.1-.1-.2-.1s-.1 0-.2-.1h-.4c-.1 0-.1 0-.2.1 0 0-.1 0-.1.1 0 0-.1 0-.1.1l-.2.2c0 .1-.1.1-.1.2v.1c0 .1-.1.2-.1.3v.5c0 .1.1.1.1.2l.2.2c.1.1.1.1.2.1s.2.1.3.1h.2c.1 0 .2 0 .3-.1.1 0 .1-.1.2-.1l.2-.2c.1-.1.1-.1.1-.2v-.1-.2c.2-.2.2-.2.2-.3zM24.7 45c0-.1 0-.2-.1-.3v-.1c0-.1-.1-.1-.1-.2l-.2-.2c-.1 0-.1-.1-.2-.1s-.1 0-.2-.1h-.4c-.1 0-.1 0-.2.1 0 0-.1 0-.1.1 0 0-.1 0-.1.1l-.2.2c0 .1-.1.1-.1.2v.1c0 .1-.1.2-.1.3v.5c0 .1.1.1.1.2l.2.2c.1.1.1.1.2.1s.2.1.3.1h.2c.1 0 .2 0 .3-.1.1 0 .1-.1.2-.1l.2-.2c.1-.1.1-.1.1-.2v-.1-.2c.2-.2.2-.2.2-.3zM29.5 44c0-.1 0-.2-.1-.3v-.1c0-.1-.1-.1-.1-.2l-.2-.2c-.1 0-.1-.1-.2-.1s-.1 0-.2-.1h-.4c-.1 0-.1 0-.2.1 0 0-.1 0-.1.1 0 0-.1 0-.1.1l-.2.2c0 .1-.1.1-.1.2v.1c0 .1-.1.2-.1.3v.5c0 .1.1.1.1.2l.2.2c.1.1.1.1.2.1s.2.1.3.1h.2c.1 0 .2 0 .3-.1.1 0 .1-.1.2-.1l.2-.2c.1-.1.1-.1.1-.2v-.1-.2c.2-.2.2-.2.2-.3zM29.5 38.5c0-.1 0-.2-.1-.3v-.1c0-.1-.1-.1-.1-.2l-.2-.2c-.1 0-.1-.1-.2-.1s-.1 0-.2-.1h-.4c-.1 0-.1 0-.2.1 0 0-.1 0-.1.1 0 0-.1 0-.1.1l-.2.2c0 .1-.1.1-.1.2v.1c0 .1-.1.2-.1.3v.5c0 .1.1.1.1.2l.2.2c.1.1.1.1.2.1s.2.1.3.1h.2c.1 0 .2 0 .3-.1.1 0 .1-.1.2-.1l.2-.2c.1-.1.1-.1.1-.2V39v-.2c.2-.2.2-.2.2-.3zM32 41c0-.1 0-.2-.1-.3v-.1c0-.1-.1-.1-.1-.2l-.2-.2c-.1 0-.1-.1-.2-.1s-.1 0-.2-.1h-.4c-.1 0-.1 0-.2.1 0 0-.1 0-.1.1 0 0-.1 0-.1.1l-.2.2c0 .1-.1.1-.1.2v.1c0 .1-.1.2-.1.3v.5c0 .1.1.1.1.2l.2.2c.1.1.1.1.2.1s.2.1.3.1h.2c.1 0 .2 0 .3-.1.1 0 .1-.1.2-.1l.2-.2c.1-.1.1-.1.1-.2v-.1-.2c.2-.2.2-.2.2-.3zM35.2 39.2c0-.1 0-.2-.1-.3v-.1c0-.1-.1-.1-.1-.2l-.2-.2c-.1 0-.1-.1-.2-.1s-.1 0-.2-.1H34c-.1 0-.1 0-.2.1 0 0-.1 0-.1.1 0 0-.1 0-.1.1l-.2.2c0 .1-.1.1-.1.2v.1c0 .1-.1.2-.1.3v.5c0 .1.1.1.1.2l.2.2c.1.1.1.1.2.1s.2.1.3.1h.2c.1 0 .2 0 .3-.1.1 0 .1-.1.2-.1l.2-.2c.1-.1.1-.1.1-.2v-.1-.2c.2-.2.2-.3.2-.3zM32.5 36.1c0-.1 0-.2-.1-.3v-.1c0-.1-.1-.1-.1-.2l-.2-.2c-.1 0-.1-.1-.2-.1s-.1 0-.2-.1h-.4c-.1 0-.1 0-.2.1 0 0-.1 0-.1.1 0 0-.1 0-.1.1l-.2.2c0 .1-.1.1-.1.2v.1c0 .1-.1.2-.1.3v.5c0 .1.1.1.1.2l.2.2c.1.1.1.1.2.1s.2.1.3.1h.2c.1 0 .2 0 .3-.1.1 0 .1-.1.2-.1l.2-.2c.1-.1.1-.1.1-.2v-.1-.2c.2-.2.2-.2.2-.3zM33.5 31.8c0-.1 0-.2-.1-.3v-.1c0-.1-.1-.1-.1-.2l-.2-.2c-.1 0-.1-.1-.2-.1s-.1 0-.2-.1h-.4c-.1 0-.1 0-.2.1 0 0-.1 0-.1.1 0 0-.1 0-.1.1l-.2.2c0 .1-.1.1-.1.2v.1c0 .1-.1.2-.1.3v.5c0 .1.1.1.1.2l.2.2c.1.1.1.1.2.1s.2.1.3.1h.2c.1 0 .2 0 .3-.1.1 0 .1-.1.2-.1l.2-.2c.1-.1.1-.1.1-.2v-.1-.2c.2-.2.2-.2.2-.3zM36.2 34.8c0-.1 0-.2-.1-.3v-.1c0-.1-.1-.1-.1-.2l-.2-.2c-.1 0-.1-.1-.2-.1s-.1 0-.2-.1H35c-.1 0-.1 0-.2.1 0 0-.1 0-.1.1 0 0-.1 0-.1.1l-.2.2c0 .1-.1.1-.1.2v.1c0 .1-.1.2-.1.3v.5c0 .1.1.1.1.2l.2.2c.1.1.1.1.2.1s.2.1.3.1h.2c.1 0 .2 0 .3-.1.1 0 .1-.1.2-.1l.2-.2c.1-.1.1-.1.1-.2v-.1-.2c.2-.2.2-.3.2-.3zM37.2 31.1c0-.1 0-.2-.1-.3v-.1c0-.1-.1-.1-.1-.2l-.2-.2c-.1 0-.1-.1-.2-.1s-.1 0-.2-.1H36c-.1 0-.1 0-.2.1 0 0-.1 0-.1.1 0 0-.1 0-.1.1l-.2.2c0 .1-.1.1-.1.2v.1c0 .1-.1.2-.1.3v.5c0 .1.1.1.1.2l.2.2c.1.1.1.1.2.1s.2.1.3.1h.2c.1 0 .2 0 .3-.1.1 0 .1-.1.2-.1l.2-.2c.1-.1.1-.1.1-.2v-.1-.2c.2-.2.2-.2.2-.3 0 .1 0 0 0 0zM33.5 27.1c0-.1 0-.2-.1-.3v-.1c0-.1-.1-.1-.1-.2l-.2-.2c-.1 0-.1-.1-.2-.1s-.1 0-.2-.1h-.4c-.1 0-.1 0-.2.1 0 0-.1 0-.1.1 0 0-.1 0-.1.1l-.2.2c0 .1-.1.1-.1.2v.1c0 .1-.1.2-.1.3v.5c0 .1.1.1.1.2l.2.2c.1.1.1.1.2.1s.2.1.3.1h.2c.1 0 .2 0 .3-.1.1 0 .1-.1.2-.1l.2-.2c.1-.1.1-.1.1-.2v-.1-.2c.2-.2.2-.2.2-.3zM37.2 27.1c0-.1 0-.2-.1-.3v-.1c0-.1-.1-.1-.1-.2l-.2-.2c-.1 0-.1-.1-.2-.1s-.1 0-.2-.1H36c-.1 0-.1 0-.2.1 0 0-.1 0-.1.1 0 0-.1 0-.1.1l-.2.2c0 .1-.1.1-.1.2v.1c0 .1-.1.2-.1.3v.5c0 .1.1.1.1.2l.2.2c.1.1.1.1.2.1s.2.1.3.1h.2c.1 0 .2 0 .3-.1.1 0 .1-.1.2-.1l.2-.2c.1-.1.1-.1.1-.2v-.1-.2c.2-.2.2-.2.2-.3zM38.2 22.2c0-.1 0-.2-.1-.3v-.1c0-.1-.1-.1-.1-.2l-.2-.2c-.1 0-.1-.1-.2-.1s-.1 0-.2-.1H37c-.1 0-.1 0-.2.1 0 0-.1 0-.1.1 0 0-.1 0-.1.1l-.2.2c0 .1-.1.1-.1.2v.1c0 .1-.1.2-.1.3v.5c0 .1.1.1.1.2l.2.2c.1.1.1.1.2.1s.2.1.3.1h.2c.1 0 .2 0 .3-.1.1 0 .1-.1.2-.1l.2-.2c.1-.1.1-.1.1-.2v-.1-.2c.2-.1.2-.2.2-.3 0 .1 0 .1 0 0zM39.9 29.1c0-.1 0-.2-.1-.3v-.1c0-.1-.1-.1-.1-.2l-.2-.2c-.1 0-.1-.1-.2-.1s-.1 0-.2-.1h-.4c-.1 0-.1 0-.2.1 0 0-.1 0-.1.1 0 0-.1 0-.1.1l-.2.2c0 .1-.1.1-.1.2v.1c0 .1-.1.2-.1.3v.5c0 .1.1.1.1.2l.2.2c.1.1.1.1.2.1s.2.1.3.1h.2c.1 0 .2 0 .3-.1.1 0 .1-.1.2-.1l.2-.2c.1-.1.1-.1.1-.2v-.1-.2c.2-.2.2-.2.2-.3 0 .1 0 0 0 0zM38.9 33.4c0-.1 0-.2-.1-.3V33c0-.1-.1-.1-.1-.2l-.2-.2c-.1 0-.1-.1-.2-.1s-.1 0-.2-.1h-.4c-.1 0-.1 0-.2.1 0 0-.1 0-.1.1 0 0-.1 0-.1.1l-.2.2c0 .1-.1.1-.1.2v.1c0 .1-.1.2-.1.3v.5c0 .1.1.1.1.2l.2.2c.1.1.1.1.2.1s.2.1.3.1h.2c.1 0 .2 0 .3-.1.1 0 .1-.1.2-.1l.2-.2c.1-.1.1-.1.1-.2v-.1-.2c.2-.2.2-.2.2-.3zM33.5 15.7c0-.1 0-.2-.1-.3v-.1c0-.1-.1-.1-.1-.2l-.2-.2c-.1 0-.1-.1-.2-.1s-.1 0-.2-.1h-.4c-.1 0-.1 0-.2.1 0 0-.1 0-.1.1 0 0-.1 0-.1.1l-.2.2c0 .1-.1.1-.1.2v.1c0 .1-.1.2-.1.3v.5c0 .1.1.1.1.2l.2.2c.1.1.1.1.2.1s.2.1.3.1h.2c.1 0 .2 0 .3-.1.1 0 .1-.1.2-.1l.2-.2c.1-.1.1-.1.1-.2v-.1-.2c.2-.2.2-.2.2-.3zM27.4 18.1c0-.1 0-.2-.1-.3v-.1c0-.1-.1-.1-.1-.2l-.2-.2c-.1 0-.1-.1-.2-.1s-.1 0-.2-.1h-.4c-.1 0-.1 0-.2.1 0 0-.1 0-.1.1 0 0-.1 0-.1.1l-.2.2c0 .1-.1.1-.1.2v.1c0 .1-.1.2-.1.3v.5c0 .1.1.1.1.2l.2.2c.1.1.1.1.2.1s.2.1.3.1h.2c.1 0 .2 0 .3-.1.1 0 .1-.1.2-.1l.2-.2c.1-.1.1-.1.1-.2v-.1-.2c.2-.2.2-.2.2-.3 0 .1 0 0 0 0zM35.2 18.6c0-.1 0-.2-.1-.3v-.1c0-.1-.1-.1-.1-.2l-.2-.2c-.1 0-.1-.1-.2-.1s-.1 0-.2-.1H34c-.1 0-.1 0-.2.1 0 0-.1 0-.1.1 0 0-.1 0-.1.1l-.2.2c0 .1-.1.1-.1.2v.1c0 .1-.1.2-.1.3v.5c0 .1.1.1.1.2l.2.2c.1.1.1.1.2.1s.2.1.3.1h.2c.1 0 .2 0 .3-.1.1 0 .1-.1.2-.1l.2-.2c.1-.1.1-.1.1-.2v-.1-.2c.2-.2.2-.2.2-.3zM20.2 35.8c0-.1 0-.2-.1-.3v-.1c0-.1-.1-.1-.1-.2l-.2-.2c-.1 0-.1-.1-.2-.1s-.1 0-.2-.1H19c-.1 0-.1 0-.2.1 0 0-.1 0-.1.1 0 0-.1 0-.1.1l-.2.2c0 .1-.1.1-.1.2v.1c0 .1-.1.2-.1.3v.5c0 .1.1.1.1.2l.2.2c.1.1.1.1.2.1s.2.1.3.1h.2c.1 0 .2 0 .3-.1.1 0 .1-.1.2-.1l.2-.2c.1-.1.1-.1.1-.2v-.1-.2c.2-.2.2-.3.2-.3z" fill="#FFF"/><ellipse cx="20.2" cy="18" rx="12.3" ry="7" opacity=".2" fill="#FFF"/></svg>