<svg xmlns="http://www.w3.org/2000/svg" viewBox="0 0 41.1 56.8"><path d="M41.1 36.2c-.1-2.3-.6-4.6-1.4-6.7-.3-.6-.5-1.2-.9-1.8-.6-1.1-1.2-2.1-2-3.1-1.1-1.4-2.3-2.6-3.7-3.6-.3-.2-.5-.4-.8-.6-1.1-.8-2.3-1.4-3.6-2-1-.4-2-.7-3.1-1 .1-.2.1-.5.1-.7 0-.9-.5-1.7-1.3-2 .5-.7.8-1.6.8-2.5 0-.3-.1-.7-.1-1 .5.2 1.1.4 1.6.6.5.1.9.2 1.3.2.6 0 1.1-.1 1.6-.3.7-.3 1.2-.9 1.3-1.5.1-.8-.3-1.6-1.2-2.1-1.2-.7-2.6-.7-3.7-.6h-.1c.9-.4 1.7-.8 2.5-1.4 1.4-1 2.9-2.8 2-4.6-1.7-3.2-7.5 3.6-9.5 5.7-2-2.1-7.8-8.9-9.5-5.7-1 1.8.6 3.6 2 4.6.8.6 1.6 1 2.5 1.4h-.1c-1.1 0-2.5-.1-3.7.6-.8.5-1.3 1.3-1.2 2.1.1.6.6 1.2 1.3 1.5.5.2 1 .3 1.6.3.4 0 .9-.1 1.3-.2.6-.1 1.1-.4 1.6-.6-.1.3-.1.7-.1 1 0 .9.3 1.8.8 2.5-.8.3-1.3 1.1-1.3 2 0 .2 0 .5.1.7-1 .2-2 .5-2.9.9-1 .4-1.9.9-2.8 1.4-.6.3-1.1.7-1.7 1.1-1.4 1-2.6 2.2-3.7 3.6-.9 1.1-1.7 2.4-2.3 3.7-.2.4-.4.8-.6 1.3-.8 2.1-1.3 4.3-1.4 6.7v.7c0 .8.1 1.6.2 2.4.2 1.2.4 2.4.8 3.6.1.5.3.9.5 1.3l.6 1.5c.7 1.4 1.5 2.7 2.5 3.9 1 1.2 2.2 2.3 3.4 3.3 1.4 1 2.9 1.9 4.4 2.5 1.7.7 3.5 1.2 5.4 1.4.7.1 1.4.1 2.1.1.8 0 1.5-.1 2.2-.1 1.9-.2 3.7-.7 5.4-1.4 1.4-.6 2.7-1.3 4-2.2 1.4-1 2.7-2.2 3.8-3.5 1-1.2 1.9-2.6 2.5-4 .3-.5.5-1.1.7-1.7.1-.3.2-.7.3-1 .4-1.2.6-2.5.8-3.7.1-.7.1-1.5.1-2.3.6-.2.6-.4.6-.7zM18.8 12.3c0-.9.6-1.7 1.4-2.1.2-.1.5-.1.7-.2h.6c.3.1.5.1.7.2.8.4 1.4 1.2 1.4 2.1 0 1.2-.9 2.2-2.1 2.3h-.6c-1.1-.1-2.1-1.1-2.1-2.3zM26.3 9c1.2 0 2.2 0 2.9.4.3.2.5.4.5.6 0 .1-.2.3-.4.4-.7.3-1.4.2-2 .1-.6-.1-1.1-.4-1.7-.6-.2-.1-.3-.1-.5-.2l-.9-.3c-.1-.1-.2-.2-.3-.2l2.4-.2zM25 5.3c.6-.7 3.3-3.5 4.2-2.8C30.6 3.6 26.8 5.6 26 6c-.8.4-1.7.7-2.5 1 .5-.5 1-1.1 1.5-1.7zM13.2 2.5c.9-.7 3.6 2.2 4.2 2.8.5.6 1 1.1 1.6 1.7-.9-.3-1.7-.6-2.5-1-.9-.4-4.6-2.4-3.3-3.5zm4.1 7.1c-.2.1-.3.1-.5.2-.6.3-1.2.5-1.7.6-.5.1-1.3.2-2-.1-.2-.1-.4-.3-.4-.4 0-.2.2-.4.5-.6.8-.4 1.7-.5 2.9-.4l2.4.1c-.1.1-.2.2-.3.2-.3.2-.6.3-.9.4z" opacity=".4" fill="#7A7A7A"/><path d="M22.5 18.4h-5.1c-1.2 0-2.2-1-2.2-2.2 0-1.2 1-2.2 2.2-2.2h5.1c1.2 0 2.2 1 2.2 2.2 0 1.2-1 2.2-2.2 2.2z" fill="#EDEDED"/><path d="M20 15.9c-2.3 0-4.3-1.9-4.3-4.3 0-2.3 1.9-4.3 4.3-4.3 2.3 0 4.3 1.9 4.3 4.3-.1 2.3-2 4.3-4.3 4.3zm0-6.7c-1.3 0-2.4 1.1-2.4 2.4 0 1.3 1.1 2.4 2.4 2.4s2.4-1.1 2.4-2.4c-.1-1.3-1.1-2.4-2.4-2.4z" fill="#EDEDED"/><path d="M20 22.4l2.7-4.1 1.1-1.7c-1.2-.2-2.5-.4-3.9-.4-1.3 0-2.5.1-3.7.4l1.1 1.7 2.7 4.1zM12.1 18.4l.4-.6c-1 .4-1.9.9-2.8 1.4-.6.3-1.1.7-1.7 1.1l1.4 2.1 2.7-4zM30.7 22.4l1.3-2.1c-.3-.2-.5-.4-.8-.6-1.1-.8-2.3-1.4-3.6-2l.3.5 2.8 4.2z" fill="#C33960"/><path d="M36 32.7l-2.7 4.1-2.7 4.1-2.6-4.1-2.7-4.1-2.7 4.1-2.6 4.1-2.7-4.1-2.7-4.1-2.7 4.1-2.7 4.1-2.7-4.1-2.7-4.1-2.7 4.1-1.2 1.8c.2 1.2.4 2.4.8 3.6.1.5.3.9.5 1.3l.6 1.5 2-3 2.9 4 2.7 4.1 2.7-4.1 2.7-4.1 2.7 4.1 2.7 4.1 2.7-4.1 2.7-4.1L28 46l2.7 4.1 2.7-4.1 2.6-4 1.9 2.9c.3-.5.5-1.1.7-1.7.1-.3.2-.7.3-1 .4-1.2.6-2.5.8-3.7l-1.1-1.7-2.6-4.1zM32 20.4l-1.3 2.1-2.7-4.1-.3-.5c-1.2-.5-2.5-.9-3.9-1.2l-1.1 1.7-2.7 4-2.7-4.1-1.1-1.7c-1.3.3-2.6.6-3.8 1.1l-.4.6-2.7 4.1L8 20.3c-1.4 1-2.6 2.2-3.7 3.6l2.4 3.7 2.7 4.1 2.7-4.1 2.7-4.1 2.7 4.1 2.7 4.1 2.7-4.1 2.7-4.1 2.7 4.1 2.7 4.1 2.7-4.1 2.4-3.6c-1.4-1.4-2.7-2.6-4.1-3.6z" fill="#FCEFCD"/><path d="M30.7 31.6l-2.7-4-2.7-4.1-2.7 4.1-2.6 4-2.7-4.1-2.7-4.1-2.7 4.1-2.7 4.1-2.7-4.1-2.4-3.7C3.4 25 2.6 26.3 2 27.6c-.2.4-.4.8-.6 1.3C.6 31 .1 33.2 0 35.6v.7c0 .8.1 1.6.2 2.4l1.2-1.8 2.7-4.1 2.7 4.1L9.5 41l2.7-4.1 2.7-4.1 2.7 4.1 2.7 4.1 2.7-4.1 2.7-4.1 2.7 4.1 2.7 4.1 2.7-4.1 2.7-4.1 2.7 4.1 1.1 1.7c.1-.7.1-1.5.1-2.3v-.7c-.1-2.3-.6-4.6-1.4-6.7-.3-.6-.5-1.2-.9-1.8-.6-1.1-1.2-2.1-2-3.1l-2.4 3.6-3 4z" fill="#C33960"/><path d="M14.7 51.2l-2.3 3.5c1.7.7 3.5 1.2 5.4 1.4l-.5-.8-2.6-4.1z" fill="#FCEFCD"/><path d="M33.4 46l-2.7 4.1L28 46l-2.6-4-2.7 4-2.7 4.1-2.6-4.1-2.7-4-2.6 4-2.7 4.1L6.7 46l-2.6-4-2 3c.7 1.4 1.5 2.7 2.5 3.9 1 1.2 2.2 2.3 3.4 3.3 1.4 1 2.9 1.9 4.4 2.5l2.3-3.5 2.7 4.1.5.8c.7.1 1.4.1 2.1.1.8 0 1.5-.1 2.2-.1l.5-.7 2.7-4.1 2.2 3.4c1.4-.6 2.7-1.3 4-2.2 1.4-1 2.7-2.2 3.8-3.5 1-1.2 1.9-2.6 2.5-4L36 42l-2.6 4z" fill="#C33960"/><path d="M22.7 55.2l-.5.8c1.9-.2 3.7-.7 5.4-1.4l-2.2-3.4-2.7 4z" fill="#FCEFCD"/><g fill="#C33960"><path d="M28.8 7.4c-1.2-.7-2.6-.7-3.7-.6H25c.9-.4 1.7-.8 2.5-1.4 1.4-1 2.9-2.8 2-4.6-1.9-3.6-8.7 5.1-10 6.2-.3.3-.3.6-.1.9v.2c0 .1-.1.1-.1.2-.1.4.2.8.5.9 1.2.3 2.3.6 3.4 1.1.2.1.3.1.5.2.6.3 1.3.5 2 .7.5.1.9.2 1.3.2.6 0 1.1-.1 1.6-.3.7-.3 1.2-.9 1.3-1.5.2-.9-.3-1.7-1.1-2.2zm-5-2.8c.6-.6 3.3-3.5 4.2-2.8 1.3 1.1-2.4 3.1-3.2 3.5-.8.4-1.7.7-2.5 1 .5-.5 1-1.1 1.5-1.7zm4.3 5.1c-.7.3-1.4.2-2 .1-.6-.1-1.1-.4-1.7-.6-.2-.2-.4-.2-.5-.3l-1.5-.6 2.7-.1c1.2 0 2.2 0 2.9.4.3.2.5.4.5.6 0 .2-.2.4-.4.5z"/><path d="M10 9.5c.1.6.6 1.2 1.3 1.5.5.2 1 .3 1.6.3.4 0 .9-.1 1.3-.2.7-.2 1.3-.4 2-.7.2-.1.3-.1.5-.2 1.1-.5 2.2-.8 3.4-1.1.4-.1.6-.5.5-.9 0-.1 0-.1-.1-.2v-.2c.2-.3.2-.6-.1-.9-1.2-1.1-8.1-9.7-10-6.2-1 1.8.6 3.6 2 4.6.8.6 1.6 1 2.5 1.4h-.1c-1.1 0-2.5-.1-3.7.6-.8.6-1.2 1.4-1.1 2.2zm7.7-3.2c-.9-.3-1.7-.6-2.5-1S10.6 2.9 12 1.8c.9-.7 3.6 2.2 4.2 2.8.5.6 1 1.2 1.5 1.7zm-6.3 3c0-.2.2-.4.5-.6.8-.4 1.7-.5 2.9-.4l2.7.1L16 9c-.1 0-.2 0-.4.1-.6.3-1.2.5-1.7.6-.5.1-1.3.2-2-.1-.3 0-.4-.2-.5-.3z"/></g><ellipse cx="20" cy="27.1" rx="12.3" ry="7" opacity=".2" fill="#FFF"/></svg>