<svg xmlns="http://www.w3.org/2000/svg" viewBox="0 0 41.3 53.4"><path d="M41.3 32.8c-.1-2.3-.6-4.6-1.4-6.7-.3-.6-.5-1.2-.9-1.8-1.5-2.9-3.7-5.4-6.4-7.3-1.9-1.3-4-2.3-6.3-2.9-.1 0-.2 0-.3-.1.1-.2.1-.4.1-.7 0-.9-.5-1.7-1.3-2 .5-.7.8-1.6.8-2.5 0-2.4-1.9-4.3-4.3-4.3S17 6.4 17 8.8c0 .9.3 1.8.8 2.5-.8.3-1.3 1.1-1.3 2 0 .2 0 .5.1.7-.2.1-.4.1-.6.1-1.8.5-3.5 1.2-5.1 2.2-3.3 2-6 4.9-7.7 8.5-.2.4-.4.8-.6 1.3-.8 2.1-1.3 4.3-1.4 6.7v.7c0 2.1.3 4.1.9 6 .1.5.3.9.5 1.3.8 1.9 1.8 3.7 3.1 5.3 1 1.2 2.2 2.3 3.4 3.3.6.5 1.2.9 1.9 1.2 2.3 1.4 4.9 2.3 7.7 2.6.8.1 1.6.2 2.4.2.7 0 1.4-.1 2.1-.1 2.7-.3 5.3-1.1 7.6-2.4.6-.4 1.3-.7 1.9-1.2 1.4-1 2.7-2.2 3.8-3.5 1.4-1.7 2.5-3.6 3.3-5.7.1-.3.2-.7.3-1 .6-1.9.9-3.9.9-6 .3-.2.3-.4.3-.7zM21.4 6.5c1.3 0 2.4 1.1 2.4 2.4 0 1.2-.9 2.2-2.1 2.3h-.6c-1.2-.1-2.1-1.1-2.1-2.3 0-1.3 1.1-2.4 2.4-2.4z" opacity=".4" fill="#7A7A7A"/><g fill="#EDEDED"><path d="M22.6 15.1h-5.1c-1.2 0-2.2-1-2.2-2.2 0-1.2 1-2.2 2.2-2.2h5.1c1.2 0 2.2 1 2.2 2.2 0 1.2-1 2.2-2.2 2.2z"/><path d="M20 12.6c-2.4 0-4.3-1.9-4.3-4.3.1-2.4 2-4.3 4.3-4.3 2.4 0 4.3 1.9 4.3 4.3 0 2.3-1.9 4.3-4.3 4.3zm0-6.7c-1.3 0-2.4 1.1-2.4 2.4 0 1.3 1.1 2.4 2.4 2.4s2.4-1.1 2.4-2.4c0-1.3-1.1-2.4-2.4-2.4z"/></g><path d="M3.3 43.8c.8 1.3 1.8 2.5 2.9 3.5l27.5.1.3-.3c1.6-1.5 2.9-3.3 3.9-5.3l-35.8-.1c.3.7.7 1.4 1.2 2.1z" fill="#FFF"/><path d="M17.9 52.7c6 .7 11.7-1.5 15.8-5.3l-27.5-.1c3.1 2.9 7.1 4.9 11.7 5.4zM.2 30c0 .2-.1.4-.1.6-.2 2.1-.1 4.1.3 6.1.3 1.7.9 3.4 1.7 4.9l35.8.1c.2-.3.3-.6.5-1 .8-1.8 1.3-3.8 1.6-5.9 0-.2 0-.4.1-.7.2-2.3-.1-4.6-.7-6.8-.2-.7-.4-1.3-.7-2l-37.3.1c-.5 1.5-1 3-1.2 4.6z" fill="#AF0032"/><path d="M4.8 19.8c-1 1.1-1.8 2.4-2.5 3.7-.3.6-.6 1.2-.8 1.9l37.2.1c-.8-2-1.9-3.9-3.3-5.6l-30.6-.1z" fill="#FFF"/><path d="M22.1 12.9C15.3 12.2 9 15 4.8 19.8l30.5.1c-3.2-3.8-7.8-6.4-13.2-7z" fill="#AF0032"/><g fill="#FFDC7B"><circle cx="29.8" cy="33" r="1.6"/><circle cx="34.7" cy="33" r="1"/><g><circle cx="10.2" cy="33" r="1.6"/><circle cx="5.3" cy="32.9" r="1"/></g></g><path d="M26 32.2c.4-.4.3-.8-.3-.8l-2.6-.4c-.5-.1-1.2-.6-1.4-1l-1.2-2.4c-.2-.5-.6-.5-.9 0L18.4 30c-.2.5-.9 1-1.4 1l-2.7.4c-.5.1-.7.5-.3.8l1.9 1.9c.4.4.6 1.1.5 1.7l-.4 2.6c-.1.5.2.8.7.5l2.4-1.2c.5-.3 1.3-.3 1.8 0l2.4 1.3c.5.3.8 0 .7-.5l-.4-2.6c-.1-.5.2-1.3.6-1.7l1.8-2z" fill="#FFDC7B"/><g fill="#AF0032"><path d="M11.2 3.9c1.2.7 2.6.7 3.7.6h.1c-.9.4-1.7.8-2.5 1.4-1.4 1-2.9 2.8-2 4.6 1.9 3.6 8.7-5.1 10-6.2.3-.3.3-.6.1-.9v-.2c0-.1.1-.1.1-.2.1-.4-.2-.8-.5-.9-1.2-.3-2.3-.6-3.4-1.1-.2-.1-.3-.1-.5-.2-.6-.3-1.3-.5-2-.7-.5 0-.9-.1-1.3-.1-.6 0-1.1.1-1.6.3-.7.3-1.2.9-1.3 1.5-.2.8.3 1.6 1.1 2.1zm5 2.8c-.6.7-3.3 3.5-4.2 2.8-1.3-1.1 2.4-3.1 3.2-3.5.8-.4 1.7-.7 2.5-1-.4.6-1 1.1-1.5 1.7zM12 1.6c.7-.3 1.4-.2 2-.1.6.1 1.1.4 1.7.6.2.1.3.1.5.2l1.5.6L15 3c-1.2 0-2.2 0-2.9-.4-.3-.2-.5-.4-.5-.6-.1-.1.1-.2.4-.4z"/><path d="M30 1.8c-.1-.6-.6-1.2-1.3-1.5-.5-.2-1-.3-1.6-.3-.4 0-.9.1-1.3.2-.7.2-1.3.4-2 .7-.2.1-.3.1-.5.2-1.1.5-2.2.8-3.4 1.1-.4.1-.6.5-.5.9 0 .1 0 .1.1.2v.2c-.2.3-.2.6.1.9 1.2 1.1 8.1 9.7 10 6.2 1-1.8-.6-3.6-2-4.6-.8-.6-1.6-1-2.5-1.4h.1c1.1 0 2.5.1 3.7-.6.8-.6 1.2-1.4 1.1-2.2zM22.3 5c.9.3 1.7.6 2.5 1s4.6 2.4 3.2 3.5c-.9.7-3.6-2.2-4.2-2.8-.5-.6-1-1.1-1.5-1.7zm6.3-3c0 .2-.2.4-.5.6-.8.4-1.7.5-2.9.4h-2.8l1.5-.6c.2-.1.3-.1.5-.2.6-.2 1.2-.5 1.8-.6.5-.1 1.3-.2 2 .1.2.1.4.2.4.3z"/></g><ellipse cx="20" cy="23.7" rx="12.3" ry="7" opacity=".2" fill="#FFF"/></svg>