<svg xmlns="http://www.w3.org/2000/svg" viewBox="170 -170 380 380"><path fill="#F2F2F2" d="M170.1-170H550v380H170.1z"/><g opacity=".42"><path fill="#E6E6E6" d="M174.7-170l-4.1 4.3v.7l4.8-5M178.7-170l-8.1 8.5v.7l8.8-9.2M182.8-170l-12.2 12.7v.7l12.8-13.4M186.8-170l-16.2 16.9v.7l16.9-17.6M190.8-170l-20.2 21.1v.7l20.9-21.8M194.8-170l-24.2 25.3v.7l24.9-26M198.8-170l-28.2 29.5v.7l28.9-30.2M202.8-170l-32.2 33.7v.7l32.9-34.4M206.9-170l-36.3 37.9v.7l36.9-38.6M210.9-170l-40.3 42v.8l40.9-42.8M214.9-170l-44.3 46.2v.7l45-46.9M218.9-170l-48.3 50.4v.7l49-51.1M222.9-170l-52.3 54.6v.7l53-55.3M226.9-170l-56.3 58.8v.7l57-59.5M231-170l-60.4 63v.7l61-63.7M235-170l-64.4 67.2v.7l65-67.9M239-170l-68.4 71.4v.7l69.1-72.1M243-170l-72.4 75.6v.7l73.1-76.3M247-170l-76.4 79.8v.7l77.1-80.5M251-170l-80.4 84v.7l81.1-84.7M255.1-170l-84.5 88.1v.7l85.1-88.8M259.1-170l-88.5 92.3v.7l89.1-93M263.1-170l-92.5 96.5v.7l93.2-97.2M267.1-170L170.6-69.3v.7L267.8-170M271.1-170L170.6-65.1v.7L271.8-170M275.1-170L170.6-60.9v.7L275.8-170M279.2-170L170.6-56.7v.7l109.2-114M283.2-170L170.6-52.5v.7L283.8-170M287.2-170L170.6-48.3v.7L287.9-170M291.2-170L170.6-44.1v.7L291.9-170M295.2-170L170.6-40v.7L295.9-170M299.2-170L170.6-35.8v.7L299.9-170M303.2-170L170.6-31.6v.7L303.9-170M307.3-170L170.6-27.4v.7L307.9-170M311.3-170L170.6-23.2v.7L312-170M315.3-170L170.6-19v.7L316-170M319.3-170L170.6-14.8v.7L320-170M323.3-170L170.6-10.6v.7L324-170M327.3-170L170.6-6.4v.7L328-170M331.4-170L170.6-2.2v.7L332-170M335.4-170L170.6 2v.7L336-170M339.4-170L170.6 6.1v.7L340.1-170M343.4-170L170.6 10.3v.7l173.5-181M347.4-170L170.6 14.5v.7L348.1-170M351.4-170L170.6 18.7v.7L352.1-170M355.5-170L170.6 22.9v.7L356.1-170M359.5-170L170.6 27.1v.7L360.1-170M363.5-170L170.6 31.3v.7l193.6-202M367.5-170L170.6 35.5v.7L368.2-170M371.5-170L170.6 39.7v.7L372.2-170M375.5-170L170.6 43.9v.7L376.2-170M379.6-170l-209 218v.7L380.2-170M383.6-170l-213 222.2v.7L384.2-170M387.6-170l-217 226.4v.7L388.3-170M391.6-170l-221 230.6v.7L392.3-170M395.6-170l-225 234.8v.7L396.3-170M399.6-170l-229 239v.7L400.3-170M403.7-170L170.6 73.2v.7L404.3-170M407.7-170L170.6 77.4v.7L408.3-170M411.7-170L170.6 81.6v.7L412.4-170M415.7-170L170.6 85.8v.7L416.4-170M419.7-170L170.6 89.9v.8L420.4-170M423.7-170L170.6 94.1v.7L424.4-170M427.7-170L170.6 98.3v.7l257.8-269M431.8-170L170.6 102.5v.7L432.4-170M435.8-170L170.6 106.7v.7L436.5-170M439.8-170L170.6 110.9v.7L440.5-170M443.8-170L170.6 115.1v.7L444.5-170M447.8-170L170.6 119.3v.7l277.9-290M451.8-170L170.6 123.5v.7L452.5-170M455.9-170L170.6 127.7v.7L456.5-170M459.9-170L170.6 131.9v.7l290-302.6M463.9-170L170.6 136v.7l294-306.7M467.9-170L170.6 140.2v.7l298-310.9M471.9-170L170.6 144.4v.7l302-315.1M475.9-170L170.6 148.6v.7l306-319.3M480-170L170.6 152.8v.7l310-323.5M484-170L170.6 157v.7l314-327.7M488-170L170.6 161.2v.7L488.7-170M492-170L170.6 165.4v.7L492.7-170M496-170L170.6 169.6v.7L496.7-170M500-170L170.6 173.8v.7L500.7-170M504.1-170L170.6 177.9v.7L504.7-170M508.1-170L170.6 182.1v.7L508.7-170M512.1-170L170.6 186.3v.7l342.2-357M516.1-170L170.6 190.5v.7L516.8-170M520.1-170L170.6 194.7v.7L520.8-170M524.1-170L170.6 198.9v.7L524.8-170M528.2-170L170.6 203.1v.7L528.8-170M532.2-170L170.6 207.3v.7l362.2-378M173.3 209.4L536.9-170h-.7L172.6 209.4M177.3 209.4L540.9-170h-.7L176.6 209.4M181.3 209.4L544.9-170h-.7L180.6 209.4M185.3 209.4L548.9-170h-.7L184.6 209.4M189.3 209.4l360.5-376.2v-.7L188.7 209.4M193.4 209.4l356.4-372v-.7L192.7 209.4M197.4 209.4l352.4-367.8v-.7L196.7 209.4M201.4 209.4l348.4-363.6v-.7L200.7 209.4M205.4 209.4L549.8-150v-.7L204.7 209.4M209.4 209.4l340.4-355.2v-.7L208.7 209.4M213.4 209.4l336.4-351v-.8l-337 351.8M217.4 209.4l332.4-346.9v-.7l-333 347.6M221.5 209.4l328.3-342.7v-.7l-329 343.4M225.5 209.4l324.3-338.5v-.7l-325 339.2M229.5 209.4l320.3-334.3v-.7l-321 335M233.5 209.4l316.3-330.1v-.7l-317 330.8M237.5 209.4l312.3-325.9v-.7L236.9 209.4M241.5 209.4l308.3-321.7v-.7L240.9 209.4M245.6 209.4l304.2-317.5v-.7L244.9 209.4M249.6 209.4l300.2-313.3v-.7l-300.9 314M253.6 209.4L549.8-99.7v-.7L252.9 209.4M257.6 209.4l292.2-305v-.7L256.9 209.4M261.6 209.4L549.8-91.4v-.7L261 209.4M265.6 209.4L549.8-87.2v-.7L265 209.4M269.7 209.4L549.8-83v-.7L269 209.4M273.7 209.4L549.8-78.8v-.7L273 209.4M277.7 209.4l272.1-284v-.7L277 209.4M281.7 209.4L549.8-70.4v-.7L281 209.4M285.7 209.4L549.8-66.2v-.7L285.1 209.4M289.7 209.4L549.8-62v-.7L289.1 209.4M293.8 209.4l256-267.2v-.7L293.1 209.4M297.8 209.4l252-263v-.8L297.1 209.4M301.8 209.4l248-258.9v-.7L301.1 209.4M305.8 209.4l244-254.7v-.7L305.1 209.4M309.8 209.4l240-250.5v-.7L309.1 209.4M313.8 209.4l236-246.3v-.7l-236.6 247M317.9 209.4L549.8-32.7v-.7L317.2 209.4M321.9 209.4L549.8-28.5v-.7L321.2 209.4M325.9 209.4L549.8-24.3v-.7L325.2 209.4M329.9 209.4L549.8-20.1v-.7L329.2 209.4M333.9 209.4L549.8-15.9v-.7l-216.6 226M337.9 209.4L549.8-11.7v-.7L337.3 209.4M341.9 209.4l207.9-217v-.7L341.3 209.4M346 209.4L549.8-3.4v-.7L345.3 209.4M350 209.4L549.8.8V.1L349.3 209.4M354 209.4L549.8 5v-.7L353.3 209.4M358 209.4L549.8 9.2v-.7L357.3 209.4M362 209.4l187.8-196v-.7L361.4 209.4M366 209.4L549.8 17.6v-.7L365.4 209.4M370.1 209.4L549.8 21.8v-.7L369.4 209.4M374.1 209.4L549.8 26v-.7L373.4 209.4M378.1 209.4L549.8 30.2v-.7L377.4 209.4M382.1 209.4L549.8 34.3v-.7L381.4 209.4M386.1 209.4L549.8 38.5v-.7L385.5 209.4M390.1 209.4L549.8 42.7V42L389.5 209.4M394.2 209.4L549.8 46.9v-.7L393.5 209.4M398.2 209.4L549.8 51.1v-.7l-152.3 159M402.2 209.4L549.8 55.3v-.7L401.5 209.4M406.2 209.4L549.8 59.5v-.7L405.5 209.4M410.2 209.4L549.8 63.7V63L409.6 209.4M414.2 209.4L549.8 67.9v-.7L413.6 209.4M418.3 209.4L549.8 72.1v-.7l-132.2 138M422.3 209.4L549.8 76.3v-.8L421.6 209.4M426.3 209.4l123.5-129v-.7L425.6 209.4M430.3 209.4L549.8 84.6v-.7L429.6 209.4M434.3 209.4L549.8 88.8v-.7L433.6 209.4M438.3 209.4L549.8 93v-.7L437.7 209.4M442.4 209.4L549.8 97.2v-.7L441.7 209.4M446.4 209.4l103.4-108v-.7L445.7 209.4M450.4 209.4l99.4-103.8v-.7L449.7 209.4M454.4 209.4l95.4-99.6v-.7l-96.1 100.3M458.4 209.4l91.4-95.4v-.7l-92.1 96.1M462.4 209.4l87.4-91.2v-.7l-88 91.9M466.4 209.4l83.4-87.1v-.7l-84 87.8M470.5 209.4l79.3-82.9v-.7l-80 83.6M474.5 209.4l75.3-78.7v-.7l-76 79.4M478.5 209.4l71.3-74.5v-.7l-72 75.2M482.5 209.4l67.3-70.3v-.7l-68 71M486.5 209.4l63.3-66.1v-.7l-63.9 66.8M490.5 209.4l59.3-61.9v-.7l-59.9 62.6M494.6 209.4l55.2-57.7v-.7l-55.9 58.4M498.6 209.4l51.2-53.5v-.7l-51.9 54.2M502.6 209.4l47.2-49.3v-.7l-47.9 50M506.6 209.4l43.2-45.2v-.7l-43.9 45.9M510.6 209.4l39.2-41v-.7L510 209.4M514.6 209.4l35.2-36.8v-.7L514 209.4M518.7 209.4l31.1-32.6v-.7L518 209.4M522.7 209.4l27.1-28.4v-.7L522 209.4M526.7 209.4l23.1-24.2v-.7L526 209.4M530.7 209.4l19.1-20v-.7L530 209.4M534.7 209.4l15.1-15.8v-.7l-15.7 16.5M538.7 209.4l11.1-11.6v-.7l-11.7 12.3M542.8 209.4l7-7.4v-.7l-7.7 8.1M546.8 209.4l3-3.2v-.7l-3.7 3.9"/></g><g fill="#334D5C"><path d="M381-47.7c2.1-1.7 5.8-1.5 6.5 1.5.8 3.7-3.8 7.4-5.6 10.2-1.6 2.5-3.2 5.8-2.4 8.9 1.9 7.3 9.5 3.8 13.2.5 2-1.8.4-3.4-1.6-1.6-5.5 4.9-9.9-.9-7.4-6.3 2-4.2 6.3-7 7.1-11.8 1.3-7.1-6.5-7.3-10.6-3.9-1.4 1.5-1.5 4.5.8 2.5zM287.9-47.7c.1 8.7.4 17.5-.4 26.2-.2 2 3.3-.7 3.6-1.9 1-5.8 2.6-8.5 6.2-12.6 3.2-3.6 4.8-8.1 6.1-12.8.7-2.5-2.9-.1-3.4 1.1-2.4 6.3-2.7 13.9-2.2 20.6.1 1.5.1 4.4 1.4 5.5 2 1.7 5.3-.7 6.8-1.9 1.6-1.3 1.7-4.3-.7-2.4-5.1 4.2-4.2-6.8-4.1-9.4.2-4.5.5-9.2 2.1-13.4-1.1.4-2.3.8-3.4 1.1-1.6 5.9-3.9 9.1-7.7 13.5-3.1 3.6-4.1 8-4.8 12.6 1.2-.6 2.4-1.3 3.6-1.9.8-8.7.5-17.5.4-26.2 0-2.1-3.5.5-3.5 1.9zM276.7-44.5c-.9-4.7-4.6-7.8-9-4.4-3.7 2.9-4.9 8.3-5.3 12.7-.4 4.2-.5 10.7 2.9 13.9 3.8 3.6 9.6-.5 11.7-4.1 1.5-2.5-2.2-1.2-3 .2-1.2 2-4 2-5.5.7-.8-.7-1.2-1.7-1.6-2.7-1-2.7-1.1-5.7-1-8.5.1-2.7.4-6 1.8-8.3 2.3-4.1 5 .2 5.6 3.2.2 1.5 3.7-1.1 3.4-2.7zM324.4-33.5c2-2.3 3.2 6.6 1.9 7.6-2 1.6-2.5-3.1-2.6-4.1-.8-4.3-.7-8.9-.1-13.2.1-.9.5-6.7 2.4-5.5.7.4-.4 4.9-.4 5.1-1 4.3-2.9 8.3-5 12.1-1.4 2.5 2.2 1.2 3-.2 1.7-3 10.8-20.1 3.9-21.6-7.7-1.6-8 16.9-7.8 20.4.1 2.8-.1 9.7 3.1 11.2 2.5 1.1 5.3-1.7 6.3-3.6 1.4-2.6 2.6-8.9.1-11.2-2.5-2.4-5.5.6-7.1 2.5-2 2.1 1 2.1 2.3.5zM351-26.3c.2 2.2 1.1 5.3 4 4.5 1.8-.5 3.2-2.6 3.9-4.2 1-2.4 1.3-5.1 1.7-7.6.3-2 .2-5 1.3-6.8-1.1.2-2.1.5-3.2.7-1.8 5.2.6 11.9 1 17.2.2 2.1 3.5-.6 3.6-1.9.2-4.9 1.7-10.8 3.7-15.3-1.1.2-2.1.5-3.2.7-.9 3.2-2.1 20.7 5 16.7 1.4-.8 2.8-4.4.2-3-1.5.9-2.3-6-2.3-6.6-.2-2.6-.3-5.7.5-8.3.7-2.4-2.7-.4-3.2.7-2.3 5-4.1 11.5-4.3 17 1.2-.6 2.4-1.3 3.6-1.9-.2-2.8-.6-5.5-1-8.3-.4-2.6-1.1-5.6-.2-8.1.9-2.5-2.7-.1-3.2.7-1.5 2.4-1.5 5.8-1.9 8.5-.3 1.9-1 3.9-1.1 5.7-.1.4-.3.7-.4 1.1.9-.3.9-.6-.1-.9-.4-1.1-.7-1.9-.9-3.2-.2-1.5-3.7 1-3.5 2.6zM432.2-27.6c.2 2.2 1.1 5.3 4 4.5 1.8-.5 3.2-2.6 3.9-4.2 1-2.4 1.3-5.1 1.7-7.6.3-2 .2-5 1.3-6.8-1.1.2-2.1.5-3.2.7-1.8 5.2.6 11.9 1 17.2.2 2.1 3.5-.6 3.6-1.9.2-4.9 1.7-10.8 3.7-15.3-1.1.2-2.1.5-3.2.7-.9 3.2-2.1 20.7 5 16.7 1.4-.8 2.8-4.4.2-3-1.5.9-2.3-6-2.3-6.6-.2-2.6-.3-5.7.5-8.3.7-2.4-2.7-.4-3.2.7-2.3 5-4.1 11.5-4.3 17 1.2-.6 2.4-1.3 3.6-1.9-.2-2.8-.6-5.5-1-8.3-.4-2.6-1.1-5.6-.2-8.1.9-2.5-2.7-.1-3.2.7-1.5 2.4-1.5 5.8-1.9 8.5-.3 1.9-1 3.9-1.1 5.7-.1.4-.3.7-.4 1.1.9-.3.9-.6-.1-.9-.4-1.1-.7-1.9-.9-3.2-.2-1.5-3.7 1.1-3.5 2.6z"/><path d="M312.9-41.2c-4.5.4-6.1 6.2-6.4 9.9-.2 3.1-.1 10.2 4.3 10.5 4.5.2 6.3-5.8 6.6-9.3.3-3 .1-10.7-4.2-11.1-1.5-.1-4.1 3.4-2.6 3.5 2.4.2 2.9 3.6 3.2 5.5.2 1.5.2 3.1 0 4.6-.1.8-.4 1.6-.5 2.4-.1.9-.4.8-.2.8-2.4.1-2.9-4.3-3-5.9-.1-1.5-.1-3 .2-4.5.1-.7.3-1.4.5-2.1.2-.8.7-.8.2-.8 1.4 0 3.9-3.6 1.9-3.5zM399.1-43.1c-4.5.4-6.1 6.2-6.4 9.9-.2 3.1-.1 10.2 4.3 10.5 4.5.2 6.3-5.8 6.6-9.3.3-3 .1-10.7-4.2-11.1-1.5-.1-4.1 3.4-2.6 3.5 2.4.2 2.9 3.6 3.2 5.5.2 1.5.2 3.1 0 4.6-.1.8-.4 1.6-.5 2.4-.1.9-.4.8-.2.8-2.4.1-2.9-4.3-3-5.9-.1-1.5-.1-3 .2-4.5.1-.7.3-1.4.5-2.1.2-.8.7-.8.2-.8 1.3-.1 3.9-3.7 1.9-3.5zM426.2-43.2c-4.5.4-6.1 6.2-6.4 9.9-.2 3.1-.1 10.2 4.3 10.5 4.5.2 6.3-5.8 6.6-9.3.3-3 .1-10.7-4.2-11.1-1.5-.1-4.1 3.4-2.6 3.5 2.4.2 2.9 3.6 3.2 5.5.2 1.5.2 3.1 0 4.6-.1.8-.4 1.6-.5 2.4-.1.9-.4.8-.2.8-2.4.1-2.9-4.3-3-5.9-.1-1.5-.1-3 .2-4.5.1-.7.3-1.4.5-2.1.2-.8.7-.8.2-.8 1.3-.1 3.8-3.7 1.9-3.5zM412.2-43.2c-4.5.4-6.1 6.2-6.4 9.9-.2 3.1-.1 10.2 4.3 10.5 4.5.2 6.3-5.8 6.6-9.3.3-3 .1-10.7-4.2-11.1-1.5-.1-4.1 3.4-2.6 3.5 2.4.2 2.9 3.6 3.2 5.5.2 1.5.2 3.1 0 4.6-.1.8-.4 1.6-.5 2.4-.1.9-.4.8-.2.8-2.4.1-2.9-4.3-3-5.9-.1-1.5-.1-3 .2-4.5.1-.7.3-1.4.5-2.1.2-.8.7-.8.2-.8 1.3-.1 3.8-3.7 1.9-3.5z"/><path d="M413.2-40.5c0 7.2.4 14.4.3 21.6 0 1.2 0 9.2-2.3 7.8-4.2-2.6 2.8-11.1 4.4-13 1.9-2.3-1-2.3-2.4-.7-2.6 3.1-9.1 11.1-6.1 15.8 1.2 1.9 3.3 1.8 5.2.7 3.7-2 4.5-6.7 4.7-10.5.5-7.8-.3-15.9-.3-23.7 0-2-3.5.6-3.5 2zM345.8-39.6c-1.4 4.3-1.5 9.5-.9 14 .1 1.1.2 3.2 1.3 3.8 1.7 1.1 4.2-1 5.3-2.1 2-1.9.4-3.5-1.6-1.6-1.6 1.5-1.7-5.7-1.7-6.4 0-2.9 0-6.1 1-8.9.7-2.3-3-.2-3.4 1.2zM333.4-26.9c1.7-.7 4.9-2.1 5.7.5.6 1.9-1.6 1.1-2.4 0-2.5-3.6-1.1-10.7-.1-14.6.7-2.6-3.1-.3-3.5 1.2-1 3.8-3.7 21.2 4.9 17.9 2.5-1 5-3.9 4.7-6.7-.4-4.3-5.7-2.8-8.2-1.8-.9.4-2.2 1.3-2.3 2.3-.1.8.1 1.7 1.2 1.2zM459.7-23.4c.5-.8.8-1.8.9-2.7.1-1-1.1-.8-1.7-.5-.9.5-1.8 1.4-1.9 2.5 0 .3 0 .3-.1.5 0 0-.2.5-.1.3l-.1.2c-.4.6-.5 1.7.5 1.7 1.1-.2 2-1.2 2.5-2zM459.3-50.3c1.1 7.1-.3 14.2-1.1 21.2-.2 1.9 3.4-.5 3.6-1.9.8-7.3 2.1-14.6 1-21.9-.3-1.5-3.8 1.1-3.5 2.6zM319.8-28.9s-3.8 4.5-4.5 5.4c-.7.9-2.1.4-2.1.4l2.2-4.6 4.3-5.2 1.7-.9-1.6 4.9z"/><path d="M417.2-24.2s2.1-2.6 3.8-2.2 0-2.5 0-2.5l-1.2-.9s-6.8 3.3-7.9 6.7 3.8.2 4.1 0c.3-.3 1.2-1.1 1.2-1.1zM400-23.7s5.6-3.3 7.3-6.7c1.7-3.5-.6-3.5-.6-3.5l-5.1 5.4-1.6 4.8z"/></g><path d="M393.6-90.5c0 17.6-14.3 31.9-31.9 31.9s-31.9-14.3-31.9-31.9 14.3-31.9 31.9-31.9 31.9 14.3 31.9 31.9z" fill="#62BA47"/><g fill="#FFF"><path d="M353.7-95c-2.6.3-3.4 3.4-3.4 5.6v.9c0 1-.1 1.8-.2 2.8-.1.4-.2 1.2-.3 1.2-.9.1-1.7-1.4-2-2-.7-1.7-1.1-3.3-1.4-5-.3-1.8-.5-3.8-.6-5.7-.1-.8-.1-1.5-.1-2.3 0-.3 0-.6.1-.9 0-.2.1-.5.1-.5.2-1.4-1.7-.1-2.1.5-2.1 3.7-1.5 8.1-1.4 12.1 0 1.1-.1 2.2-.2 3.3-.1.8-.2 2.1-.9 2.7-.4.4-1.1.1-1.4-.1-.5-.3-.8-.8-.9-1.4-.1-.6-.8-.3-1.1.1-.5.5-.9 1.3-.8 1.9.2 1.4 1.5 2.7 3 2.2 2.4-.7 3.4-3.5 4-5.7.3-1.1.4-2.1.5-3.3.4 1.6.8 3.1 1.5 4.6.5 1.1 1.5 2.1 2.8 1.9 1-.2 1.7-1.2 2.2-2.5.5 1.1 1.2 1.8 2.4 1.7 1.3-.1 2.4-1.5 2.9-2.6.6-1.3.8-2.7.7-4 0-1.8-.6-5.8-3.4-5.5zm.9 9.2c-.1.2-.1.5-.2.8-.5-.1-.9-.8-1.1-1.2-.4-.9-.6-1.8-.7-2.8-.1-1-.1-2 .1-3 .1-.2.1-.5.2-.8 1.4.9 1.6 2.5 1.7 4 .2 1 .2 2 0 3zM385.5-91.2c-2.8-1.1-4.5 2.8-5 4.9-.5 2-1.1 5.6 1.4 6.6 1.2.5 2.6-.4 3.3-1.2.9-.9 1.4-2.2 1.8-3.5.5-2.1 1.1-5.9-1.5-6.8zm-1.7 9.1c-.1.2-.2.5-.4.7-.4-.3-.6-1.2-.6-1.6-.2-1-.1-2 .1-3 .2-.9.5-2 .9-2.8.1-.2.2-.4.4-.7 1.1 1.2.8 3 .5 4.5-.2 1-.5 2-.9 2.9zM377.7-90.8c.5-.7 1.1-1.5 1.5-2.2 1.1-1.6 2.1-3.5 2-5.4-.1-1.8-2.6-2-3.8-1.3-1.8.9-2.9 2.8-3.4 4.7-.7 2.5-1.1 5-1.2 7.4v.1c-.9 1.1-2.8 3.3-4.2 2.4-.4-.2-.5-.7-.7-1.2 1.2-1.2 2.2-2.5 3.1-4 .8-1.3 1.4-3.5-.2-4.4-1.4-.8-3.1.1-4.1 1.2s-1.4 2.6-1.5 4c-.1.8-.2 2.1 0 3.3-.8.5-1.9.8-2.8.7-1.1-.2-1.5-1.4-1.7-2.2-.3-1.3-.2-2.7 0-4l.3-1.2c.1-.1.1-.2.1-.3.6.3.9 1.3 1.1 1.8.3.9 2.7-.6 2.5-1.5-.3-.9-.6-1.9-1.7-2.4-1-.5-2.4.4-3 .9-1.7 1.7-1.9 4.3-1.8 6.6.1 1.5.4 3.3 1.7 4.1 1.7 1.1 4.1.1 5.8-.9.4 1.1 1.2 1.8 2.6 1.7 1.7-.2 3.3-1.2 4.5-2.4.1 1.3.4 2.7 1.3 3.3 1.5.9 3.4-.1 4.4-1.4 1.3-1.7 2-4 1.3-6-.4-1-1.2-1.3-2.1-1.4zm-9.6-1c.1-.4.2-.7.5-1.1.7.2.8 1.1.7 1.6-.1 1.1-.8 2.1-1.7 3.1v-.5c0-1.1.2-2.1.5-3.1zm9.2-5.3c.2-.4.4-.8.7-1.1l.1-.1c1.1 1.2.1 3-.5 4.1-.6 1.1-1.3 2.3-2.1 3.4l.6-3.3c.3-.9.7-2 1.2-3zm-.6 13.1c-.1.1-.2.4-.3.5-.1 0-.2 0-.2-.1-.7-.4-.8-1.9-.8-2.5-.1-.5-.1-1.1-.1-1.7.3-.4.6-.7.9-1 .7-.4 1.1.4 1.2 1.1.3 1.2-.2 2.7-.7 3.7z"/></g><path d="M534.4 127.2c-3.4-5.6-8.4-10.1-11.2-16-3-6.3-1.5-13.1 1.7-18.9 3-5.4 6.3-9.9 6.2-16.3-.1-6.2-2.4-12.1-2-18.4.4-7.1 2.2-13.6 1.1-20.8-1-6.5-4.4-12.1-6.9-18.1-5.3-12.7 2.6-25 5.8-37.1 1.7-6.2 2.8-12.7 3.1-19.1.1-3-.2-5.9-.7-8.8-.8-4.3 0-7.6 1.3-11.7 1.5-4.6 1.4-9.4-1.4-13.4-2.4-3.3-5.9-5.4-8.6-8.4-7.5-8.3-.7-19.2 3.6-27.2 2.4-4.4 4.6-8.9 5.2-13.9.7-5.8-2-10.8-5.2-15.5-.7-1.1-1.4-2.1-2-3.2 3.1-.6 6.2-1.8 8.3-4.1 2.8-3.2 2.3-8.8-.9-11.5-1.3-1.1-2.9-1.8-4.5-2-.1-.1-6-1.2-8.6 1.2 0 0-1.8 1.3.3 7.9.5 2.6 1.4 5 2.5 7.2-6.8 1.1-14.3 0-20.6-1.9-12.5-3.9-23.5-11.4-36.9-12.2-12.9-.8-23.9 5.7-34.8 11.7-4.4 2.4-10.4 5.2-14.9 1.5-3.5-2.8-3.3-8.3-7.1-10.7-5.5-3.4-10.4-.3-15.4 2.1-6.8 3.3-14.3 3.2-21.6 1.8-6.8-1.3-13.5-3.5-20.2-5.2-6.1-1.5-12.4-3.2-18.7-1.8-5.5 1.2-10.3 5.6-14.7 8.9-5 3.8-10.2 6.7-16.6 7-11.9.5-17-11.4-26.9-15.5-5.2-2.1-10.8-2.8-16.4-2.9-5.1-.1-10.9-.1-15.5 2.6-2.1 1.2-3.8 3-5.6 4.7-2.9 2.6-6 4.6-9.6 6.1-5.1 2.1-11.1 2.9-16.6 3.3-2.8.2-5.6.1-8.3-.4 2.2-3.4 4.2-7.7 3.7-11.8-.6-4.4-4.7-8.2-9.1-8.6-4.1-.4-6.9 2.4-7.7 6.3-.9 4.5 1.3 9 4.5 12 1.6 1.5 3.5 2.6 5.5 3.3-.4.6-.8 1.2-1.2 1.7-7 10.3-8.5 23.7-8.8 35.8-.4 13.3 2.2 26.1 6.1 38.8 1.7 5.5 4 13.5-.4 18.3-3.2 3.5-8 4.2-9.5 9.2-1.4 4.9 1.4 10.7 4 14.6 3.4 5.2 8.6 8.8 8.8 15.6.1 5.5-4.6 9.8-6.5 14.7-2.1 5.3-2.1 10.8-1 16.4 1.2 5.5 3.4 10.8 4.4 16.4 1.3 7-.4 13.4-3.2 19.8-2.5 5.8-5.2 11.4-5.7 17.8-.4 6.1 2.7 11.4 4.3 17.1.7 2.5.2 4.8-.2 7.3-.6 3.6-.8 7.2-.8 10.8 0 7.7.7 15.4-.6 23-.6 3.3-1.4 6.5-1.9 9.8-.2 1.8-.6 3.8.2 5.5.6 1.3 2.3 2.1 3.4 2.9 1.9 1.2 4.1 2.4 5.5 4.2 1.5 2 1.4 5 1.4 7.4.1 3.7-.5 7.3-1.2 11-4.8-.7-9.4.2-12.7 4.7-2.8 3.8-1.7 9.3 1 12.8 3.3 4.2 8.6 0 10.6-3.2 1.4-2.1 1.6-4.8 1.8-7.3.1-1.7.4-3.3.7-4.9 2.6.6 5.2 1.7 7.5 2.7 4.7 2.3 9.2 5.1 14.3 6.6 4.9 1.4 9.7.5 14.4-1.3 9.9-4 17.6-12.1 27.6-15.8 6-2.2 11.8-1.9 17.7.3 6 2.2 11.6 4.7 18.1 3.6 5.9-1 11-4.8 16.7-6.6 2.4-.8 4.4-1 6.2.9 2 2.1 3.5 4.5 5.6 6.5 7.5 7.3 20.2 8.2 29.6 4.7 5.7-2.1 10.8-5.8 16-8.8 3-1.7 6.3-3.1 9.8-3.2 3.6-.1 6.9 2.4 9.8 4.3 5.3 3.6 10.6 5.9 17.1 6 6.1.1 13.4-2.3 18.6 1.9 2.1 1.7 4 3.4 6.5 4.6 2.6 1.2 5.5 1.6 8.4 1.8 3 .2 6 0 9-.1 3.6-.1 7.1-.1 10.6-.6 6.5-.9 12.8-2.9 18.5-6.1 2.8-1.5 5.5-3.2 8.6-4.1 3.7-1.1 7.6.2 11.1 1.4 3.1 1 6.1 1.8 9.3 2 1.5.1 3 0 4.5 0-.7 1.3-1.2 2.7-1.6 4.1-1.1 4.5.5 9.2 4 12.2 6 5.1 19.7 2.5 18.1-7.2-.7-4.1-4.5-7.4-8-9.3-2.9-1.5-5.9-1.9-9-1.9 2-2.7 4.6-5.1 6.9-7.3 3.8-3.6 7.9-7 11.1-11.2 3.6-4.7 5.9-10.5 6-16.4.1-5.9-2.2-11.3-5.1-16.1zm-13.9-277.5c-.2-1.4-1.3-2.9-.1-4.4 1.2-1.5 9-1.4 11.4 2.3 2.8 4.3-.7 8.5-4.6 10-1.2.5-2.4.8-3.7 1.1-1.5-2.8-2.5-5.7-3-9zm-325.9 5.8c-4.2-2.8-7.2-9.8-3.8-14.3 1.8-2.3 4.7-1.9 7-.8 2.9 1.4 4.7 3.9 4.8 7.1.1 3.6-1.8 6.9-3.8 9.9-1.4-.3-2.9-1-4.2-1.9zm-7.2 339.1c-3.4 1-4.9-4.9-4.9-7.2-.1-3.1 2-5.6 4.5-7 2.3-1.3 5-1.6 7.6-1.2-.8 5.7-.7 13.5-7.2 15.4zM518.2 180c5.1.4 10.8 4.1 12.3 9.2 1.8 6.2-6.7 8.7-11.2 7.6-5.8-1.5-8.4-7.7-6.8-13.2.4-1.3.9-2.5 1.6-3.6 1.4-.1 2.7-.1 4.1 0zm-.2-7.8c-1.8 1.8-3.5 3.7-4.9 5.9-2.2.1-4.4.2-6.5.1-6.7-.3-12.6-4.7-19.4-3.4-2.8.5-5.4 2-7.8 3.4-3.2 1.8-6.4 3.4-9.9 4.6-6.9 2.4-13.8 2.7-21 2.9-6.6.2-13.2.6-18.9-3.4-2-1.4-3.6-3.3-5.8-4.4-2.6-1.3-5.8-.9-8.6-.8-6.9.3-13.5.9-19.9-2.5-5.3-2.8-9.6-7.6-16.1-7.5-6.1.1-11.7 4.4-16.7 7.4-5.5 3.3-11.1 6.1-17.7 6.4-5.5.3-11.7-.8-16.4-3.9-2.2-1.5-4.1-3.5-5.8-5.6-1.4-1.7-2.6-3.7-4.7-4.7-1.6-.8-3.5-.3-5.1.1-2.9.8-5.7 2.1-8.4 3.4-2.7 1.3-5.4 2.5-8.3 3.2-3.7.9-7.4.3-11-.9-6.1-1.9-11.5-4.9-18-4.5-10.5.6-19.1 8-27.7 13.4-4.5 2.9-9.6 5.5-15 6-5.6.5-10.9-2.4-15.7-4.9-3.5-1.8-7.8-4-12.2-4.9.2-1.2.5-2.5.7-3.7.8-4.8 1.6-11.2-.9-15.6-1.9-3.4-6.4-4.4-9-7.1-1.3-1.3 0-5.7.2-7.1.6-3.6 1.5-7.1 1.9-10.7.8-7.5 0-15 .2-22.5.1-5.5 2.3-11.1.8-16.6-.8-3-2.1-5.8-3.1-8.7-1.1-3.4-1.2-6.8-.6-10.3 1.1-6.5 4.7-12.2 7-18.3 2.1-5.6 2.5-11.5 1.4-17.4-1-5.6-3.3-10.8-4.4-16.3-1.3-6.3-.4-12.4 2.8-18 2.6-4.5 5.4-8.5 4.7-14-.8-5.9-5.3-9.5-8.6-14-3.1-4.3-6.7-12.1-2.4-16.7 1.6-1.7 3.9-2.6 5.7-4 1.9-1.4 3.1-3.2 3.8-5.4 1.8-5.4-.2-11.6-1.7-16.8-4-13.1-6.2-26.1-5.7-39.9.2-6.6 1-13.2 2.8-19.6 1.5-5.6 4.1-10.3 7.2-15.1 6.2 1.5 13.4.3 19.1-.8 6.2-1.2 12-3.5 16.8-7.7 2.1-1.8 4-3.8 6.3-5.3 2.7-1.8 6-2 9.2-2.2 5.8-.4 11.8-.1 17.5 1.4 5.9 1.6 10 5.2 14.4 9.3 3.5 3.2 7.2 6.1 11.9 7.2 5.3 1.2 10.9 0 15.7-2.4 5.1-2.6 9.3-6.6 14.1-9.8 2.8-1.9 5.7-3.3 9.1-3.7 3.7-.5 7.4.3 11 1 6.8 1.5 13.4 3.5 20.1 5.2 6.1 1.6 12.5 2.7 18.8 1.8 3.2-.5 6.1-1.4 9.1-2.7 3.6-1.6 6.6-4 10.7-3.2 2.5.5 4.1 1.7 5 4 .9 2.4 2 4.6 3.7 6.6 7.3 8.4 19.9-1.5 26.9-5.2 5.9-3.1 12.1-5.6 18.7-6.4 6.9-.8 13.7.5 20.2 2.8 10.8 3.8 20.7 10.1 32.3 11.1 4 .4 8.1.3 12.2-.3.7 1.3 1.5 2.6 2.4 3.8 3.3 4.9 5.8 9.8 4.7 15.9-1.7 9.6-9.3 17-11.4 26.5-.9 4.2-.4 8.6 1.8 12.3 2.1 3.5 5.7 5.8 8.5 8.6 4.4 4.4 4 9.5 2.1 15.1-1.1 3.1-1.5 6-1.1 9.2.4 3.5 1 6.7.9 10.2-.2 6.8-1.6 13.6-3.4 20.1-1.7 6.2-4.3 12-6.1 18.2-1.6 5.6-1.7 11.3.1 16.9 2 6.3 5.8 11.7 7.2 18.2 1.6 7.3-.3 14.4-.9 21.7-.5 6.3 1.7 12.2 2 18.4.3 6.9-4.4 12-7.2 17.8-2.5 5.1-2.8 10.5-1.3 16 1.7 6.1 6.8 10.9 10.4 15.9 3.7 5.2 6.5 11 6.5 17.5.3 13.4-11.1 21.1-19.3 29.4z" clip-path="url(#SVGID_2_)" fill="#828282"/><path d="M192.5 135.4c.5-.7 1.2-1.1 1.8-1.2l-.2-.2-1.9-1.6c-.9-.7-2.2-.6-2.9.3-.7.9-.6 2.2.3 3l1.9 1.6c.1 0 .1.1.2.1 0-.7.3-1.4.8-2z" clip-path="url(#SVGID_2_)" fill="#333"/><path d="M189.3 132.7l-.3.6c.7-.8 2-1.2 3.1-.3l1.7 1.3c.2-.1.4-.2.6-.2l-.2-.2-1.9-1.6c-1-.6-2.3-.5-3 .4z" clip-path="url(#SVGID_2_)" fill="#1A1A1A"/><path d="M201 135.8c3.4 2.7 4.5 8.3 3.7 9.4-.8 1.1-6.5 1.2-9.9-1.6-3.4-2.7-4.1-6.2-2.4-8.4 1.7-2.1 5.2-2.1 8.6.6z" clip-path="url(#SVGID_2_)" fill="#DF5A49"/><path d="M196.7 135.6c1.7 1.4 2.3 4.2 1.8 4.7s-3.2.6-4.9-.8c-1.7-1.4-2.1-3.1-1.2-4.2.9-1.1 2.6-1.1 4.3.3z" opacity=".3" clip-path="url(#SVGID_2_)" fill="#DF5A49"/><g opacity=".5" clip-path="url(#SVGID_2_)"><path d="M195 142.3c-.2.2-.5.2-.7.1-3.7-3-1.8-6.3-1.8-6.3.1-.2.4-.3.6-.2.2.1.3.4.2.7-.1.1-1.4 2.6 1.6 5.1.2.1.2.4.1.6z" fill="#FFF"/></g><path d="M201.6-7.2c-.1-.9.1-1.6.5-2.1h-.2l-2.5.2c-1.1.1-2 1.1-1.9 2.3.1 1.2 1.1 2 2.2 2l2.5-.2h.2c-.4-.6-.7-1.3-.8-2.2z" clip-path="url(#SVGID_2_)" fill="#333"/><path d="M197.5-6.9c0 .2.1.4.2.6 0-1.1.7-2.2 2.1-2.3l2.1-.1.3-.6h-.2l-2.5.2c-1.2 0-2.1 1-2 2.2z" clip-path="url(#SVGID_2_)" fill="#1A1A1A"/><path d="M208.2-12.7c4.3-.3 8.9 3 9 4.4.1 1.4-4 5.3-8.3 5.6-4.3.3-7.2-1.7-7.4-4.5-.2-2.7 2.4-5.2 6.7-5.5z" clip-path="url(#SVGID_2_)" fill="#45B29D"/><path d="M204.9-9.9c2.2-.2 4.5 1.5 4.5 2.2 0 .7-2 2.6-4.2 2.8-2.2.2-3.6-.9-3.7-2.2s1.2-2.7 3.4-2.8z" opacity=".3" clip-path="url(#SVGID_2_)" fill="#45B29D"/><g opacity=".5" clip-path="url(#SVGID_2_)"><path d="M208.1-3.8c0 .3-.2.5-.5.5-4.7.3-5.6-3.4-5.6-3.4-.1-.3.1-.5.4-.6.3-.1.5.1.6.4 0 .1.7 2.9 4.6 2.7.3 0 .5.2.5.4z" fill="#FFF"/></g><path d="M281.6-141.6c.6.6 1 1.2 1.1 1.9l.2-.2 1.6-1.9c.8-.9.7-2.2-.2-3-.9-.8-2.2-.7-3 .2l-1.6 1.9c-.1.1-.1.1-.1.2.7.1 1.4.4 2 .9z" clip-path="url(#SVGID_2_)" fill="#333"/><path d="M284.3-144.7c-.2-.1-.4-.3-.6-.3.8.8 1.1 2 .2 3.1l-1.4 1.6c.1.2.2.4.2.6l.2-.2 1.6-1.9c.8-.8.7-2.2-.2-2.9z" clip-path="url(#SVGID_2_)" fill="#1A1A1A"/><path d="M280.8-133c-2.9 3.3-8.4 4.2-9.4 3.3-1-.9-.9-6.6 2-9.9 2.9-3.3 6.3-3.9 8.4-2.1 2 1.9 1.9 5.4-1 8.7z" clip-path="url(#SVGID_2_)" fill="#45B29D"/><path d="M281.2-137.3c-1.4 1.7-4.2 2.1-4.7 1.7-.5-.4-.4-3.3 1-4.9 1.4-1.7 3.2-2 4.2-1 1 .7 1 2.5-.5 4.2z" opacity=".3" clip-path="url(#SVGID_2_)" fill="#45B29D"/><g opacity=".5" clip-path="url(#SVGID_2_)"><path d="M274.6-139.4c-.2-.2-.2-.5 0-.7 3.2-3.6 6.3-1.6 6.3-1.6.2.1.3.4.1.7-.1.2-.4.3-.7.1-.1-.1-2.5-1.6-5.1 1.4-.1.3-.4.3-.6.1z" fill="#FFF"/></g><path d="M363.2-145.7c.9-.1 1.6.1 2.1.5v-.2l-.2-2.5c-.1-1.2-1.1-2-2.2-2-1.1.1-2 1.1-1.9 2.3l.2 2.5v.2c.5-.4 1.2-.7 2-.8z" clip-path="url(#SVGID_2_)" fill="#333"/><path d="M363-149.8c-.2 0-.4.1-.6.2 1.1 0 2.2.7 2.3 2.1l.1 2.1.6.3v-.2l-.2-2.5c-.1-1.2-1.1-2.1-2.2-2z" clip-path="url(#SVGID_2_)" fill="#1A1A1A"/><path d="M368.7-139c.3 4.4-3 9-4.3 9.1-1.3.1-5.2-4-5.5-8.4-.3-4.4 1.7-7.3 4.5-7.5s5 2.4 5.3 6.8z" clip-path="url(#SVGID_2_)" fill="#EFC94C"/><path d="M366-142.4c.2 2.2-1.5 4.5-2.2 4.5-.7 0-2.6-2-2.8-4.2-.2-2.2.9-3.6 2.2-3.7 1.4-.1 2.6 1.2 2.8 3.4z" opacity=".3" clip-path="url(#SVGID_2_)" fill="#EFC94C"/><g opacity=".5" clip-path="url(#SVGID_2_)"><path d="M359.9-139.1c-.3 0-.5-.2-.5-.5-.3-4.8 3.3-5.6 3.4-5.6.3-.1.5.1.6.4.1.3-.1.5-.4.6-.1 0-2.9.7-2.6 4.6-.1.2-.3.5-.5.5z" fill="#FFF"/></g><path d="M441.3-144c.6-.7 1.2-1 1.9-1.1l-.2-.2-1.9-1.6c-.9-.8-2.2-.7-3 .2-.8.9-.7 2.2.2 3l1.9 1.6c.1.1.1.1.2.1.1-.7.4-1.4.9-2z" clip-path="url(#SVGID_2_)" fill="#333"/><path d="M438.2-146.8c-.1.2-.3.4-.3.6.8-.8 2-1.1 3.1-.2l1.6 1.4c.2-.1.4-.2.6-.2l-.2-.2-1.9-1.6c-.8-.8-2.1-.7-2.9.2z" clip-path="url(#SVGID_2_)" fill="#1A1A1A"/><path d="M449.9-143.2c3.3 2.9 4.2 8.5 3.3 9.5-.9 1-6.5.9-9.8-2-3.3-2.9-3.9-6.4-2.1-8.5 1.8-2 5.3-1.9 8.6 1z" clip-path="url(#SVGID_2_)" fill="#334D5C"/><path d="M445.6-143.7c1.6 1.4 2.1 4.3 1.6 4.8-.4.5-3.3.5-4.9-1-1.6-1.4-1.9-3.2-1-4.2.9-1.1 2.6-1 4.3.4z" opacity=".3" clip-path="url(#SVGID_2_)" fill="#334D5C"/><g opacity=".5" clip-path="url(#SVGID_2_)"><path d="M443.6-137c-.2.2-.5.2-.7 0-3.5-3.2-1.6-6.3-1.5-6.4.1-.2.4-.3.7-.1.2.1.3.4.1.7-.1.1-1.5 2.5 1.4 5.1.1.2.1.5 0 .7z" fill="#FFF"/></g><path d="M521.4-74.4c.6.6 1 1.2 1.1 1.9l.2-.2 1.6-1.9c.8-.9.7-2.2-.2-3-.9-.8-2.2-.7-3 .2l-1.6 1.9c-.1.1-.1.1-.1.2.7.1 1.4.4 2 .9z" clip-path="url(#SVGID_2_)" fill="#333"/><path d="M524.1-77.5c-.2-.1-.4-.3-.6-.3.8.8 1.1 2 .2 3.1l-1.4 1.6c.1.2.2.4.2.6l.2-.2 1.6-1.9c.8-.8.7-2.2-.2-2.9z" clip-path="url(#SVGID_2_)" fill="#1A1A1A"/><path d="M520.6-65.8c-2.9 3.3-8.4 4.2-9.4 3.3-1-.9-.9-6.6 2-9.9 2.9-3.3 6.3-3.9 8.4-2.1 2 1.9 1.8 5.4-1 8.7z" clip-path="url(#SVGID_2_)" fill="#EFC94C"/><path d="M521-70.1c-1.4 1.7-4.2 2.1-4.7 1.7-.5-.4-.4-3.3 1-4.9 1.4-1.7 3.2-2 4.2-1s1 2.5-.5 4.2z" opacity=".3" clip-path="url(#SVGID_2_)" fill="#EFC94C"/><g opacity=".5" clip-path="url(#SVGID_2_)"><path d="M514.4-72.2c-.2-.2-.2-.5 0-.7 3.2-3.6 6.3-1.6 6.3-1.6.2.1.3.4.1.7-.1.2-.4.3-.7.1-.1-.1-2.5-1.6-5.1 1.4-.1.3-.4.3-.6.1z" fill="#FFF"/></g><path d="M516.8 11.1c.1.9-.1 1.6-.5 2.1h.2l2.5-.2c1.1-.1 2-1.1 1.9-2.3-.1-1.2-1.1-2-2.2-2l-2.4.3h-.2c.4.6.7 1.3.7 2.1z" clip-path="url(#SVGID_2_)" fill="#333"/><path d="M521 10.8c0-.2-.1-.4-.2-.6 0 1.1-.7 2.2-2.1 2.3l-2.1.1-.3.6h.2l2.5-.2c1.2 0 2-1 2-2.2z" clip-path="url(#SVGID_2_)" fill="#1A1A1A"/><path d="M510.2 16.6c-4.3.3-8.9-3-9-4.4-.1-1.4 4-5.3 8.3-5.6 4.3-.3 7.2 1.7 7.4 4.5.2 2.8-2.3 5.2-6.7 5.5z" clip-path="url(#SVGID_2_)" fill="#334D5C"/><path d="M513.6 13.8c-2.2.2-4.5-1.5-4.5-2.2 0-.7 2-2.6 4.2-2.8 2.2-.2 3.6.9 3.7 2.2 0 1.5-1.2 2.7-3.4 2.8z" opacity=".3" clip-path="url(#SVGID_2_)" fill="#334D5C"/><g opacity=".5" clip-path="url(#SVGID_2_)"><path d="M510.3 7.7c0-.3.2-.5.5-.5 4.7-.3 5.6 3.4 5.6 3.4.1.3-.1.5-.4.6-.3.1-.5-.1-.6-.4 0-.1-.7-2.9-4.6-2.7-.2.1-.4-.1-.5-.4z" fill="#FFF"/></g><path d="M518 95.2c-.6.7-1.2 1-1.9 1.1l.2.2 1.9 1.6c.9.8 2.2.7 3-.2.8-.9.7-2.2-.2-3l-1.9-1.6c-.1-.1-.1-.1-.2-.1-.1.7-.3 1.4-.9 2z" clip-path="url(#SVGID_2_)" fill="#333"/><path d="M521.1 98c.1-.2.3-.4.3-.6-.8.8-2 1.1-3.1.2l-1.6-1.4c-.2.1-.4.2-.6.2l.2.2 1.9 1.6c.8.7 2.2.6 2.9-.2z" clip-path="url(#SVGID_2_)" fill="#1A1A1A"/><path d="M509.5 94.4c-3.3-2.9-4.2-8.5-3.3-9.5.9-1 6.5-.9 9.8 2 3.3 2.9 3.9 6.4 2.1 8.5-1.8 2-5.3 1.9-8.6-1z" clip-path="url(#SVGID_2_)" fill="#DF5A49"/><path d="M513.8 94.9c-1.6-1.4-2.1-4.3-1.6-4.8.4-.5 3.3-.5 4.9 1 1.6 1.4 1.9 3.2 1 4.2-.9 1-2.7 1-4.3-.4z" opacity=".3" clip-path="url(#SVGID_2_)" fill="#DF5A49"/><g opacity=".5" clip-path="url(#SVGID_2_)"><path d="M515.8 88.2c.2-.2.5-.2.7 0 3.5 3.2 1.6 6.3 1.5 6.4-.1.2-.4.3-.7.1-.2-.1-.3-.4-.1-.7.1-.1 1.5-2.5-1.4-5.1-.2-.2-.2-.5 0-.7z" fill="#FFF"/></g><path d="M491.4 172.2c-.6-.6-1-1.2-1.1-1.9l-.2.2-1.6 1.9c-.8.9-.7 2.2.2 3 .9.8 2.2.7 3-.2l1.6-1.9c.1-.1.1-.1.1-.2-.7-.1-1.4-.3-2-.9z" clip-path="url(#SVGID_2_)" fill="#333"/><path d="M488.7 175.3c.2.1.4.3.6.3-.8-.8-1.1-2-.2-3.1l1.4-1.6c-.1-.2-.2-.4-.2-.6l-.2.2-1.6 1.9c-.8.8-.7 2.2.2 2.9z" clip-path="url(#SVGID_2_)" fill="#1A1A1A"/><path d="M492.2 163.6c2.9-3.3 8.4-4.2 9.4-3.3 1 .9.9 6.6-2 9.9-2.9 3.3-6.3 3.9-8.4 2.1s-1.8-5.4 1-8.7z" clip-path="url(#SVGID_2_)" fill="#EFC94C"/><path d="M491.8 168c1.4-1.7 4.2-2.1 4.7-1.7.5.4.4 3.3-1 4.9-1.4 1.7-3.2 2-4.2 1-1-.8-.9-2.6.5-4.2z" opacity=".3" clip-path="url(#SVGID_2_)" fill="#EFC94C"/><g opacity=".5" clip-path="url(#SVGID_2_)"><path d="M498.4 170c.2.2.2.5 0 .7-3.2 3.6-6.3 1.6-6.3 1.6-.2-.1-.3-.4-.1-.7.1-.2.4-.3.7-.1.1.1 2.5 1.6 5.1-1.4.1-.3.4-.3.6-.1z" fill="#FFF"/></g><path d="M363.4 169.8c-.8.2-1.6.2-2.2 0v.2l.7 2.4c.3 1.1 1.5 1.8 2.6 1.4 1.1-.3 1.7-1.5 1.4-2.6l-.7-2.4c0-.1-.1-.1-.1-.2-.3.5-.9.9-1.7 1.2z" clip-path="url(#SVGID_2_)" fill="#333"/><path d="M364.6 173.8l.6-.3c-1.1.2-2.3-.2-2.7-1.5l-.6-2.1c-.2 0-.5-.1-.7-.2v.2l.7 2.4c.4 1.1 1.6 1.8 2.7 1.5z" clip-path="url(#SVGID_2_)" fill="#1A1A1A"/><path d="M356.7 164.4c-1.2-4.2 1-9.4 2.3-9.8 1.3-.4 6 2.8 7.2 7 1.2 4.2-.1 7.5-2.7 8.3-2.7.8-5.6-1.2-6.8-5.5z" clip-path="url(#SVGID_2_)" fill="#DF5A49"/><path d="M360 167.2c-.6-2.1.5-4.7 1.1-4.9.6-.2 3 1.4 3.6 3.5.6 2.1-.1 3.7-1.4 4.1-1.2.4-2.6-.6-3.3-2.7z" opacity=".3" clip-path="url(#SVGID_2_)" fill="#DF5A49"/><g opacity=".5" clip-path="url(#SVGID_2_)"><path d="M365.3 162.6c.3-.1.5.1.6.3 1.3 4.6-2.1 6.2-2.1 6.2-.2.1-.5 0-.6-.2-.1-.2 0-.5.2-.6.1-.1 2.6-1.3 1.6-5.1-.1-.2 0-.5.3-.6z" fill="#FFF"/></g><path d="M285.3 170.1c-.9.1-1.6-.1-2.1-.5v.2l.2 2.5c.1 1.2 1.1 2 2.2 2 1.1-.1 2-1.1 1.9-2.3l-.2-2.5v-.2c-.5.4-1.1.7-2 .8z" clip-path="url(#SVGID_2_)" fill="#333"/><path d="M285.6 174.2c.2 0 .4-.1.6-.2-1.1 0-2.2-.7-2.3-2.1l-.1-2.1-.6-.3v.2l.2 2.5c0 1.2 1 2.1 2.2 2z" clip-path="url(#SVGID_2_)" fill="#1A1A1A"/><path d="M279.9 163.4c-.3-4.4 3-9 4.3-9.1 1.3-.1 5.2 4 5.5 8.4s-1.7 7.3-4.5 7.5c-2.6.2-5-2.4-5.3-6.8z" clip-path="url(#SVGID_2_)" fill="#EFC94C"/><path d="M282.6 166.8c-.2-2.2 1.5-4.5 2.2-4.5.7 0 2.6 2 2.8 4.2.2 2.2-.9 3.6-2.2 3.7-1.5.1-2.7-1.2-2.8-3.4z" opacity=".3" clip-path="url(#SVGID_2_)" fill="#EFC94C"/><g opacity=".5" clip-path="url(#SVGID_2_)"><path d="M288.7 163.5c.3 0 .5.2.5.5.3 4.8-3.3 5.6-3.4 5.6-.3.1-.5-.1-.6-.4-.1-.3.1-.5.4-.6.1 0 2.9-.7 2.6-4.6 0-.2.2-.5.5-.5z" fill="#FFF"/></g><path d="M190.2 83.5c-.6-.6-1-1.2-1.1-1.9l-.2.2-1.6 1.9c-.8.9-.7 2.2.2 3 .9.8 2.2.7 3-.2l1.6-1.9c.1-.1.1-.1.1-.2-.6-.1-1.3-.3-2-.9z" clip-path="url(#SVGID_2_)" fill="#333"/><path d="M187.5 86.6c.2.1.4.3.6.3-.8-.8-1.1-2-.2-3.1l1.4-1.6c-.1-.2-.2-.4-.2-.6l-.2.2-1.6 1.9c-.8.8-.7 2.2.2 2.9z" clip-path="url(#SVGID_2_)" fill="#1A1A1A"/><path d="M191.1 74.9c2.9-3.3 8.4-4.2 9.4-3.3 1 .9.9 6.6-2 9.9-2.9 3.3-6.3 3.9-8.4 2.1-2-1.8-1.9-5.4 1-8.7z" clip-path="url(#SVGID_2_)" fill="#E27A3F"/><path d="M190.6 79.2c1.4-1.7 4.2-2.1 4.7-1.7.5.4.4 3.3-1 4.9-1.4 1.7-3.2 2-4.2 1-1-.7-.9-2.5.5-4.2z" opacity=".3" clip-path="url(#SVGID_2_)" fill="#E27A3F"/><g opacity=".5" clip-path="url(#SVGID_2_)"><path d="M197.2 81.3c.2.2.2.5 0 .7-3.2 3.6-6.3 1.6-6.3 1.6-.2-.1-.3-.4-.1-.7.1-.2.4-.3.7-.1.1.1 2.5 1.6 5.1-1.4.1-.3.4-.3.6-.1z" fill="#FFF"/></g><path d="M192.5-89.7c.6-.7 1.2-1 1.9-1.1l-.2-.2-1.9-1.6c-.9-.8-2.2-.7-3 .2-.8.9-.7 2.2.2 3l1.9 1.6c.1.1.1.1.2.1.1-.7.4-1.4.9-2z" clip-path="url(#SVGID_2_)" fill="#333"/><path d="M189.4-92.5c-.1.2-.3.4-.3.6.8-.8 2-1.1 3.1-.2l1.6 1.4c.2-.1.4-.2.6-.2l-.2-.2-1.9-1.6c-.8-.7-2.1-.7-2.9.2z" clip-path="url(#SVGID_2_)" fill="#1A1A1A"/><path d="M201-88.9c3.3 2.9 4.2 8.5 3.3 9.5-.9 1-6.5.9-9.8-2-3.3-2.9-3.9-6.4-2.1-8.5 1.8-2 5.3-1.9 8.6 1z" clip-path="url(#SVGID_2_)" fill="#DF5A49"/><path d="M196.7-89.4c1.6 1.4 2.1 4.3 1.6 4.8-.4.5-3.3.5-4.9-1-1.6-1.4-1.9-3.2-1-4.2.9-1.1 2.7-1 4.3.4z" opacity=".3" clip-path="url(#SVGID_2_)" fill="#DF5A49"/><g opacity=".5" clip-path="url(#SVGID_2_)"><path d="M194.7-82.7c-.2.2-.5.2-.7 0-3.5-3.2-1.6-6.3-1.5-6.4.1-.2.4-.3.7-.1.2.1.3.4.1.7-.1.1-1.5 2.5 1.4 5.1.2.2.2.5 0 .7z" fill="#FFF"/></g><path d="M184.6-44c-.6.7-1.2 1-1.9 1.1l.2.2 1.9 1.6c.9.8 2.2.7 3-.2.8-.9.7-2.2-.2-3l-1.9-1.6c-.1-.1-.1-.1-.2-.1-.1.6-.4 1.3-.9 2z" clip-path="url(#SVGID_2_)" fill="#333"/><path d="M187.7-41.3c.1-.2.3-.4.3-.6-.8.8-2 1.1-3.1.2l-1.6-1.4c-.2.1-.4.2-.6.2l.2.2 1.9 1.6c.8.8 2.1.7 2.9-.2z" clip-path="url(#SVGID_2_)" fill="#1A1A1A"/><path d="M176.1-44.9c-3.3-2.9-4.2-8.5-3.3-9.5.9-1 6.5-.9 9.8 2 3.3 2.9 3.9 6.4 2.1 8.5-1.8 2-5.3 1.9-8.6-1z" clip-path="url(#SVGID_2_)" fill="#334D5C"/><path d="M180.4-44.4c-1.6-1.4-2.1-4.3-1.6-4.8.4-.5 3.3-.5 4.9 1 1.6 1.4 1.9 3.2 1 4.2-.9 1.1-2.7 1-4.3-.4z" opacity=".3" clip-path="url(#SVGID_2_)" fill="#334D5C"/><g opacity=".5" clip-path="url(#SVGID_2_)"><path d="M182.4-51.1c.2-.2.5-.2.7 0 3.5 3.2 1.6 6.3 1.5 6.4-.1.2-.4.3-.7.1-.2-.1-.3-.4-.1-.7.1-.1 1.5-2.5-1.4-5.1-.2-.2-.2-.5 0-.7z" fill="#FFF"/></g><path d="M185.7 20.5c.1.9-.1 1.6-.5 2.1h.2l2.5-.2c1.1-.1 2-1.1 1.9-2.3-.1-1.2-1.1-2-2.2-2l-2.5.2h-.2c.5.7.8 1.4.8 2.2z" clip-path="url(#SVGID_2_)" fill="#333"/><path d="M189.8 20.3c0-.2-.1-.4-.2-.6 0 1.1-.7 2.2-2.1 2.3l-2.1.1-.3.6h.2l2.5-.2c1.3-.1 2.1-1.1 2-2.2z" clip-path="url(#SVGID_2_)" fill="#1A1A1A"/><path d="M179.1 26c-4.3.3-8.9-3-9-4.4-.1-1.4 4-5.3 8.3-5.6 4.3-.3 7.2 1.7 7.4 4.5.2 2.8-2.3 5.2-6.7 5.5z" clip-path="url(#SVGID_2_)" fill="#EFC94C"/><path d="M182.5 23.3c-2.2.2-4.5-1.5-4.5-2.2 0-.7 2-2.6 4.2-2.8 2.2-.2 3.6.9 3.7 2.2 0 1.4-1.3 2.6-3.4 2.8z" opacity=".3" clip-path="url(#SVGID_2_)" fill="#EFC94C"/><g opacity=".5" clip-path="url(#SVGID_2_)"><path d="M179.2 17.1c0-.3.2-.5.5-.5 4.7-.3 5.6 3.4 5.6 3.4.1.3-.1.5-.4.6-.3.1-.5-.1-.6-.4 0-.1-.7-2.9-4.6-2.7-.2.1-.5-.1-.5-.4z" fill="#FFF"/></g><path d="M217.1 191.6c.6.6 1 1.2 1.1 1.9l.2-.2 1.6-1.9c.8-.9.7-2.2-.2-3-.9-.8-2.2-.7-3 .2l-1.6 1.9c-.1.1-.1.1-.1.2.7.1 1.4.4 2 .9z" clip-path="url(#SVGID_2_)" fill="#333"/><path d="M219.9 188.5c-.2-.1-.4-.3-.6-.3.8.8 1.1 2 .2 3.1l-1.4 1.6c.1.2.2.4.2.6l.2-.2 1.6-1.9c.7-.8.6-2.1-.2-2.9z" clip-path="url(#SVGID_2_)" fill="#1A1A1A"/><path d="M216.3 200.2c-2.9 3.3-8.4 4.2-9.4 3.3-1-.9-.9-6.6 2-9.9 2.9-3.3 6.3-3.9 8.4-2.1s1.9 5.4-1 8.7z" clip-path="url(#SVGID_2_)" fill="#334D5C"/><path d="M216.8 195.9c-1.4 1.7-4.2 2.1-4.7 1.7-.5-.4-.4-3.3 1-4.9 1.4-1.7 3.2-2 4.2-1 .9.8.9 2.5-.5 4.2z" opacity=".3" clip-path="url(#SVGID_2_)" fill="#334D5C"/><g opacity=".5" clip-path="url(#SVGID_2_)"><path d="M210.2 193.9s-.1 0 0 0c-.2-.2-.2-.5 0-.7 3.2-3.6 6.3-1.6 6.3-1.6.2.1.3.4.1.7-.1.2-.4.3-.7.1-.1-.1-2.5-1.6-5.1 1.4-.2.2-.5.2-.6.1z" fill="#FFF"/></g><path d="M322.9 178.8c.6.6 1 1.2 1.1 1.9l.2-.2 1.6-1.9c.8-.9.7-2.2-.2-3-.9-.8-2.2-.7-3 .2l-1.6 1.9c-.1.1-.1.1-.1.2.7 0 1.4.3 2 .9z" clip-path="url(#SVGID_2_)" fill="#333"/><path d="M325.6 175.6c-.2-.1-.4-.3-.6-.3.8.8 1.1 2 .2 3.1l-1.4 1.6c.1.2.2.4.2.6l.2-.2 1.6-1.9c.8-.8.7-2.1-.2-2.9z" clip-path="url(#SVGID_2_)" fill="#1A1A1A"/><path d="M322.1 187.4c-2.9 3.3-8.4 4.2-9.4 3.3-1-.9-.9-6.6 2-9.9 2.9-3.3 6.3-3.9 8.4-2.1 1.9 1.8 1.8 5.4-1 8.7z" clip-path="url(#SVGID_2_)" fill="#E27A3F"/><path d="M322.5 183c-1.4 1.7-4.2 2.1-4.7 1.7-.5-.4-.4-3.3 1-4.9 1.4-1.7 3.2-2 4.2-1 1 .8 1 2.6-.5 4.2z" opacity=".3" clip-path="url(#SVGID_2_)" fill="#E27A3F"/><g opacity=".5" clip-path="url(#SVGID_2_)"><path d="M315.9 181c-.2-.2-.2-.5 0-.7 3.2-3.6 6.3-1.6 6.3-1.6.2.1.3.4.1.7-.1.2-.4.3-.7.1-.1-.1-2.5-1.6-5.1 1.4-.1.3-.4.3-.6.1z" fill="#FFF"/></g><path d="M406.3 175c-.6-.6-1-1.2-1.1-1.9l-.2.2-1.6 1.9c-.8.9-.7 2.2.2 3 .9.8 2.2.7 3-.2l1.6-1.9c.1-.1.1-.1.1-.2-.7-.1-1.4-.4-2-.9z" clip-path="url(#SVGID_2_)" fill="#333"/><path d="M403.5 178.1c.2.1.4.3.6.3-.8-.8-1.1-2-.2-3.1l1.4-1.6c-.1-.2-.2-.4-.2-.6l-.2.2-1.6 1.9c-.7.8-.6 2.1.2 2.9z" clip-path="url(#SVGID_2_)" fill="#1A1A1A"/><path d="M407.1 166.4c2.9-3.3 8.4-4.2 9.4-3.3 1 .9.9 6.6-2 9.9-2.9 3.3-6.3 3.9-8.4 2.1-2-1.9-1.9-5.4 1-8.7z" clip-path="url(#SVGID_2_)" fill="#334D5C"/><path d="M406.6 170.7c1.4-1.7 4.2-2.1 4.7-1.7.5.4.4 3.3-1 4.9-1.4 1.7-3.2 2-4.2 1-.9-.8-.9-2.5.5-4.2z" opacity=".3" clip-path="url(#SVGID_2_)" fill="#334D5C"/><g opacity=".5" clip-path="url(#SVGID_2_)"><path d="M413.2 172.7s.1 0 0 0c.2.2.2.5 0 .7-3.2 3.6-6.3 1.6-6.3 1.6-.2-.1-.3-.4-.1-.7.1-.2.4-.3.7-.1.1.1 2.5 1.6 5.1-1.4.2-.2.5-.2.6-.1z" fill="#FFF"/></g><path d="M458.5 189.9c.9-.1 1.6.1 2.1.5v-.2l-.2-2.5c-.1-1.2-1.1-2-2.2-2-1.1.1-2 1.1-1.9 2.3l.2 2.5v.2c.5-.4 1.2-.7 2-.8z" clip-path="url(#SVGID_2_)" fill="#333"/><path d="M458.2 185.8c-.2 0-.4.1-.6.2 1.1 0 2.2.7 2.3 2.1l.1 2.1.6.3v-.2l-.2-2.5c0-1.2-1-2.1-2.2-2z" clip-path="url(#SVGID_2_)" fill="#1A1A1A"/><path d="M463.9 196.6c.3 4.4-3 9-4.3 9.1-1.3.1-5.2-4-5.5-8.4-.3-4.4 1.7-7.3 4.5-7.5 2.6-.2 5 2.4 5.3 6.8z" clip-path="url(#SVGID_2_)" fill="#45B29D"/><path d="M461.2 193.2c.2 2.2-1.5 4.5-2.2 4.5-.7 0-2.6-2-2.8-4.2-.2-2.2.9-3.6 2.2-3.7 1.5-.1 2.7 1.2 2.8 3.4z" opacity=".3" clip-path="url(#SVGID_2_)" fill="#45B29D"/><g opacity=".5" clip-path="url(#SVGID_2_)"><path d="M455.1 196.5c-.3 0-.5-.2-.5-.5-.3-4.8 3.3-5.6 3.4-5.6.3-.1.5.1.6.4.1.3-.1.5-.4.6-.1 0-2.9.7-2.6 4.6 0 .2-.2.5-.5.5z" fill="#FFF"/></g><path d="M534.4 121c-.6-.6-1-1.2-1.1-1.9l-.2.2-1.6 1.9c-.8.9-.7 2.2.2 3 .9.8 2.2.7 3-.2l1.6-1.9c.1-.1.1-.1.1-.2-.7-.1-1.4-.4-2-.9z" clip-path="url(#SVGID_2_)" fill="#333"/><path d="M531.7 124.1c.2.1.4.3.6.3-.8-.8-1.1-2-.2-3.1l1.4-1.6c-.1-.2-.2-.4-.2-.6l-.2.2-1.6 1.9c-.8.8-.7 2.2.2 2.9z" clip-path="url(#SVGID_2_)" fill="#1A1A1A"/><path d="M535.2 112.4c2.9-3.3 8.4-4.2 9.4-3.3s.9 6.6-2 9.9c-2.9 3.3-6.3 3.9-8.4 2.1-2-1.9-1.9-5.4 1-8.7z" clip-path="url(#SVGID_2_)" fill="#E27A3F"/><path d="M534.8 116.7c1.4-1.7 4.2-2.1 4.7-1.7.5.4.4 3.3-1 4.9-1.4 1.7-3.2 2-4.2 1-1-.7-1-2.5.5-4.2z" opacity=".3" clip-path="url(#SVGID_2_)" fill="#E27A3F"/><g opacity=".5" clip-path="url(#SVGID_2_)"><path d="M541.4 118.8c.2.2.2.5 0 .7-3.2 3.6-6.3 1.6-6.3 1.6-.2-.1-.3-.4-.1-.7.1-.2.4-.3.7-.1.1.1 2.5 1.6 5.1-1.4.1-.3.4-.3.6-.1z" fill="#FFF"/></g><path d="M529.4-13.8c.6-.6 1.2-1 1.9-1.1l-.2-.2-1.8-1.7c-.8-.8-2.2-.8-3 .1-.8.8-.8 2.2.1 3l1.8 1.7c.1.1.1.1.2.1.1-.6.4-1.3 1-1.9z" clip-path="url(#SVGID_2_)" fill="#333"/><path d="M526.4-16.7c-.2.2-.3.4-.4.5.8-.8 2-1 3.1 0l1.6 1.5c.2-.1.4-.2.6-.2l-.2-.2-1.8-1.7c-.8-.8-2.1-.7-2.9.1z" clip-path="url(#SVGID_2_)" fill="#1A1A1A"/><path d="M537.9-12.6c3.2 3 3.8 8.7 2.9 9.7s-6.6.6-9.7-2.4-3.6-6.5-1.7-8.5c1.8-2.1 5.3-1.9 8.5 1.2z" clip-path="url(#SVGID_2_)" fill="#45B29D"/><path d="M533.6-13.3c1.6 1.5 1.9 4.3 1.5 4.8-.5.5-3.3.3-4.9-1.2s-1.8-3.3-.9-4.3c1-.9 2.7-.8 4.3.7z" opacity=".3" clip-path="url(#SVGID_2_)" fill="#45B29D"/><g opacity=".5" clip-path="url(#SVGID_2_)"><path d="M531.4-6.7c-.2.2-.5.2-.7 0-3.4-3.3-1.3-6.4-1.3-6.4.1-.2.4-.3.7-.1.2.2.3.5.1.7-.1.1-1.6 2.5 1.2 5.2.1.1.1.4 0 .6z" fill="#FFF"/></g><path d="M530.4-110.3c.6-.6 1.2-1 1.9-1.1l-.2-.2-1.8-1.7c-.8-.8-2.2-.8-3 .1-.8.8-.8 2.2.1 3l1.8 1.7c.1.1.1.1.2.1.2-.6.4-1.3 1-1.9z" clip-path="url(#SVGID_2_)" fill="#333"/><path d="M527.4-113.2c-.2.2-.3.4-.4.5.8-.8 2-1 3.1 0l1.6 1.5c.2-.1.4-.2.6-.2l-.2-.2-1.8-1.7c-.7-.8-2.1-.8-2.9.1z" clip-path="url(#SVGID_2_)" fill="#1A1A1A"/><path d="M538.9-109.2c3.2 3 3.8 8.7 2.9 9.7-.9 1-6.6.6-9.7-2.4-3.2-3-3.6-6.5-1.7-8.5 1.8-2 5.3-1.8 8.5 1.2z" clip-path="url(#SVGID_2_)" fill="#E27A3F"/><path d="M534.6-109.8c1.6 1.5 1.9 4.3 1.5 4.8-.5.5-3.3.3-4.9-1.2-1.6-1.5-1.8-3.3-.9-4.3 1-.9 2.8-.8 4.3.7z" opacity=".3" clip-path="url(#SVGID_2_)" fill="#E27A3F"/><g opacity=".5" clip-path="url(#SVGID_2_)"><path d="M532.4-103.2c-.2.2-.5.2-.7 0-3.4-3.3-1.3-6.4-1.3-6.4.1-.2.4-.3.7-.1.2.2.3.5.1.7-.1.1-1.6 2.5 1.2 5.2.1.1.1.4 0 .6z" fill="#FFF"/></g><path d="M497.4-146.9c-.6-.6-1-1.3-1.1-1.9l-.2.2-1.7 1.8c-.8.8-.8 2.2.1 3 .8.8 2.2.8 3-.1l1.7-1.8c.1-.1.1-.1.1-.2-.6-.1-1.3-.4-1.9-1z" clip-path="url(#SVGID_2_)" fill="#333"/><path d="M494.5-143.9c.2.2.3.3.5.4-.7-.8-1-2.1 0-3.1l1.5-1.6c-.1-.2-.2-.4-.2-.7l-.2.2-1.7 1.8c-.7.9-.7 2.2.1 3z" clip-path="url(#SVGID_2_)" fill="#1A1A1A"/><path d="M498.5-155.4c3-3.2 8.6-3.9 9.6-2.9 1 .9.6 6.6-2.4 9.8-3 3.2-6.5 3.7-8.5 1.8-1.9-2-1.7-5.5 1.3-8.7z" clip-path="url(#SVGID_2_)" fill="#DF5A49"/><path d="M497.9-151.1c1.5-1.6 4.3-1.9 4.8-1.5s.3 3.3-1.2 4.9c-1.5 1.6-3.2 1.8-4.2.9-1-1-.9-2.7.6-4.3z" opacity=".3" clip-path="url(#SVGID_2_)" fill="#DF5A49"/><g opacity=".5" clip-path="url(#SVGID_2_)"><path d="M504.4-148.8c.2.2.2.5 0 .7-3.3 3.4-6.4 1.3-6.4 1.3-.2-.1-.3-.4-.1-.7.2-.2.4-.3.7-.1.1.1 2.4 1.6 5.2-1.2.2-.2.5-.2.6 0z" fill="#FFF"/></g><path d="M315.1-148.9c-.6.6-1.2 1-1.9 1.1l.2.2 1.8 1.7c.8.8 2.2.8 3-.1.8-.8.8-2.2-.1-3l-1.8-1.7c-.1-.1-.1-.1-.2-.1-.1.6-.4 1.3-1 1.9z" clip-path="url(#SVGID_2_)" fill="#333"/><path d="M318.1-146c.2-.2.3-.4.4-.5-.8.8-2 1-3.1 0l-1.6-1.5c-.2.1-.4.2-.6.2l.2.2 1.8 1.7c.8.8 2.1.7 2.9-.1z" clip-path="url(#SVGID_2_)" fill="#1A1A1A"/><path d="M306.6-150.1c-3.2-3-3.8-8.7-2.9-9.7s6.6-.6 9.7 2.4c3.2 3 3.6 6.5 1.7 8.5-1.8 2.1-5.3 1.8-8.5-1.2z" clip-path="url(#SVGID_2_)" fill="#E27A3F"/><path d="M310.9-149.4c-1.6-1.5-1.9-4.3-1.5-4.8s3.3-.3 4.9 1.2c1.6 1.5 1.8 3.3.9 4.3-.9.9-2.7.8-4.3-.7z" opacity=".3" clip-path="url(#SVGID_2_)" fill="#E27A3F"/><g opacity=".5" clip-path="url(#SVGID_2_)"><path d="M313.2-156c.2-.2.5-.2.7 0 3.4 3.3 1.3 6.4 1.3 6.4-.1.2-.4.3-.7.1-.2-.2-.3-.5-.1-.7.1-.1 1.6-2.5-1.2-5.2-.2-.1-.2-.4 0-.6z" fill="#FFF"/></g><path d="M218-145.4c-.9 0-1.6-.2-2.1-.6v.2l.1 2.5c0 1.2 1 2.1 2.2 2s2.1-1 2-2.2l-.1-2.5v-.2c-.6.5-1.3.8-2.1.8z" clip-path="url(#SVGID_2_)" fill="#333"/><path d="M218.1-141.2c.2 0 .4-.1.6-.1-1.1 0-2.2-.7-2.2-2.2l-.1-2.2-.6-.3v.2l.1 2.5c.1 1.2 1 2.1 2.2 2.1z" clip-path="url(#SVGID_2_)" fill="#1A1A1A"/><path d="M212.8-152.3c-.1-4.4 3.4-8.9 4.7-8.9 1.3 0 5.1 4.2 5.2 8.6.1 4.4-2 7.2-4.7 7.3-2.8.1-5.1-2.6-5.2-7z" clip-path="url(#SVGID_2_)" fill="#EFC94C"/><path d="M215.4-148.8c-.1-2.2 1.7-4.4 2.4-4.5.7 0 2.5 2.1 2.6 4.3.1 2.2-1 3.6-2.4 3.6-1.4.2-2.6-1.2-2.6-3.4z" opacity=".3" clip-path="url(#SVGID_2_)" fill="#EFC94C"/><g opacity=".5" clip-path="url(#SVGID_2_)"><path d="M221.6-151.8c.3 0 .5.2.5.5.1 4.8-3.6 5.5-3.6 5.5-.3 0-.5-.1-.5-.4 0-.3.1-.5.4-.6.1 0 2.9-.6 2.8-4.5-.1-.3.1-.5.4-.5z" fill="#FFF"/></g><path d="M408.2-154.3c-.6-.6-1-1.3-1.1-1.9l-.2.2-1.7 1.8c-.8.8-.8 2.2.1 3 .8.8 2.2.8 3-.1l1.7-1.8c.1-.1.1-.1.1-.2-.6-.1-1.3-.4-1.9-1z" clip-path="url(#SVGID_2_)" fill="#333"/><path d="M405.4-151.3c.2.2.3.3.5.4-.7-.8-1-2.1 0-3.1l1.5-1.6c-.1-.2-.2-.4-.2-.7l-.2.2-1.7 1.8c-.8.9-.8 2.2.1 3z" clip-path="url(#SVGID_2_)" fill="#1A1A1A"/><path d="M409.4-162.9c3-3.2 8.6-3.9 9.6-2.9s.6 6.6-2.4 9.8c-3 3.2-6.5 3.7-8.5 1.8-2-1.9-1.7-5.5 1.3-8.7z" clip-path="url(#SVGID_2_)" fill="#45B29D"/><path d="M408.8-158.6c1.5-1.6 4.3-1.9 4.8-1.5s.3 3.3-1.2 4.9c-1.5 1.6-3.2 1.8-4.2.9-1.1-.9-.9-2.7.6-4.3z" opacity=".3" clip-path="url(#SVGID_2_)" fill="#45B29D"/><g opacity=".5" clip-path="url(#SVGID_2_)"><path d="M415.3-156.3c.2.2.2.5 0 .7-3.3 3.4-6.4 1.3-6.4 1.3-.2-.1-.3-.4-.1-.7.2-.2.4-.3.7-.1.1.1 2.4 1.6 5.2-1.2.1-.1.4-.2.6 0z" fill="#FFF"/></g><path d="M244 175.6c-.6.6-1.2 1-1.9 1.1l.2.2 1.8 1.7c.8.8 2.2.8 3-.1.8-.8.8-2.2-.1-3l-1.8-1.7c-.1-.1-.1-.1-.2-.1-.2.6-.5 1.2-1 1.9z" clip-path="url(#SVGID_2_)" fill="#333"/><path d="M247 178.4c.2-.2.3-.4.4-.5-.8.8-2 1-3.1 0l-1.6-1.5c-.2.1-.4.2-.6.2l.2.2 1.8 1.7c.7.8 2.1.8 2.9-.1z" clip-path="url(#SVGID_2_)" fill="#1A1A1A"/><path d="M235.5 174.4c-3.2-3-3.8-8.7-2.9-9.7.9-1 6.6-.6 9.7 2.4 3.2 3 3.6 6.5 1.7 8.5-1.8 2.1-5.3 1.8-8.5-1.2z" clip-path="url(#SVGID_2_)" fill="#45B29D"/><path d="M239.8 175c-1.6-1.5-1.9-4.3-1.5-4.8.5-.5 3.3-.3 4.9 1.2 1.6 1.5 1.8 3.3.9 4.3-1 .9-2.8.8-4.3-.7z" opacity=".3" clip-path="url(#SVGID_2_)" fill="#45B29D"/><g opacity=".5" clip-path="url(#SVGID_2_)"><path d="M242 168.4c.2-.2.5-.2.7 0 3.4 3.3 1.3 6.4 1.3 6.4-.1.2-.4.3-.7.1-.2-.2-.3-.5-.1-.7.1-.1 1.6-2.5-1.2-5.2-.1-.1-.1-.4 0-.6z" fill="#FFF"/></g><path d="M189.2-130.6c-.6.6-1.2 1-1.9 1.1l.2.2 1.8 1.7c.8.8 2.2.8 3-.1.8-.8.8-2.2-.1-3l-1.8-1.7c-.1-.1-.1-.1-.2-.1-.1.6-.4 1.2-1 1.9z" clip-path="url(#SVGID_2_)" fill="#333"/><path d="M192.2-127.8c.2-.2.3-.4.4-.5-.8.8-2 1-3.1 0l-1.6-1.5c-.2.1-.4.2-.6.2l.2.2 1.8 1.7c.8.8 2.1.8 2.9-.1z" clip-path="url(#SVGID_2_)" fill="#1A1A1A"/><path d="M180.7-131.8c-3.2-3-3.8-8.7-2.9-9.7.9-1 6.6-.6 9.7 2.4 3.2 3 3.6 6.5 1.7 8.5-1.8 2.1-5.3 1.8-8.5-1.2z" clip-path="url(#SVGID_2_)" fill="#E27A3F"/><path d="M185-131.2c-1.6-1.5-1.9-4.3-1.5-4.8.5-.5 3.3-.3 4.9 1.2 1.6 1.5 1.8 3.3.9 4.3-1 1-2.7.8-4.3-.7z" opacity=".3" clip-path="url(#SVGID_2_)" fill="#E27A3F"/><g opacity=".5" clip-path="url(#SVGID_2_)"><path d="M187.3-137.8c.2-.2.5-.2.7 0 3.4 3.3 1.3 6.4 1.3 6.4-.1.2-.4.3-.7.1-.2-.2-.3-.5-.1-.7.1-.1 1.6-2.5-1.2-5.2-.2-.1-.2-.4 0-.6z" fill="#FFF"/></g><g fill="#62BA47"><path d="M307.6 141.8h-1.3l-.5 2.8h-1.3l.5-2.8h-1.6v-1.2h1.8l.3-2h-1.6v-1.2h1.8l.5-2.8h1.3l-.5 2.8h1.3l.5-2.8h1.3l-.5 2.8h1.5v1.2h-1.7l-.3 2h1.5v1.2h-1.7l-.5 2.8h-1.3l.5-2.8zm-1.2-1.2h1.3l.3-2h-1.3l-.3 2zM312.3 144.6v-7.4h3.1c1 0 1.8.2 2.3.5.5.3.8.9.8 1.5 0 .3-.1.7-.3.9-.2.3-.6.5-1 .6.6.1 1 .3 1.3.6.3.3.4.7.4 1.1 0 .7-.3 1.2-.8 1.6-.5.4-1.3.5-2.2.5h-3.6zm2-4.4h1.1c.4 0 .6-.1.8-.2.2-.1.3-.3.3-.5 0-.3-.1-.5-.3-.6-.2-.1-.5-.2-.9-.2h-1.1v1.5zm0 1.3v1.6h1.6c.4 0 .6-.1.8-.2.2-.1.3-.3.3-.6s-.1-.5-.2-.6c-.2-.1-.4-.2-.8-.2h-1.7zM324.6 142.3l1.9-5.1h2.5v7.4h-2v-4.4l-1.7 4.4H324l-1.7-4.3v4.3h-2v-7.4h2.5l1.8 5.1zM334 144.8c-1.1 0-2-.3-2.6-1-.6-.7-.9-1.5-.9-2.6v-.3c0-1.1.3-2 .9-2.7s1.4-1.1 2.5-1.1c1 0 1.8.3 2.3.9.5.6.8 1.4.8 2.5v1h-4.4c0 .5.2.9.5 1.2.3.3.7.5 1.2.5.4 0 .8 0 1.1-.1.3-.1.6-.2 1-.4l.5 1.2c-.3.2-.7.4-1.2.6s-1.1.3-1.7.3zm-.2-6.2c-.4 0-.7.1-.9.4-.2.3-.3.6-.4 1.1h2.4v-.1c0-.4-.1-.8-.3-1-.1-.3-.4-.4-.8-.4zM341.2 143.2c.3 0 .6-.1.8-.3.2-.2.3-.5.3-.8h1.8c0 .7-.3 1.4-.8 1.9-.6.5-1.3.8-2.1.8-1.1 0-1.9-.3-2.5-1-.6-.7-.9-1.6-.9-2.7v-.2c0-1.1.3-2 .9-2.7.6-.7 1.4-1.1 2.5-1.1.9 0 1.6.3 2.2.8s.8 1.2.8 2.1h-1.8c0-.4-.1-.7-.3-1-.2-.3-.5-.4-.8-.4-.5 0-.9.2-1.1.6-.2.4-.3.9-.3 1.6v.2c0 .7.1 1.2.3 1.6.1.4.4.6 1 .6zM351.6 138.7h-2.4v5.9h-2v-5.9h-2.3v-1.5h6.7v1.5zM355.7 144.8c-1.1 0-2-.3-2.6-1-.6-.7-.9-1.5-.9-2.6v-.3c0-1.1.3-2 .9-2.7s1.4-1.1 2.5-1.1c1 0 1.8.3 2.3.9.5.6.8 1.4.8 2.5v1h-4.4c0 .5.2.9.5 1.2.3.3.7.5 1.2.5.4 0 .8 0 1.1-.1.3-.1.6-.2 1-.4l.5 1.2c-.3.2-.7.4-1.2.6s-1.1.3-1.7.3zm-.1-6.2c-.4 0-.7.1-.9.4-.2.3-.3.6-.4 1.1h2.4v-.1c0-.4-.1-.8-.3-1-.2-.3-.4-.4-.8-.4zM362.9 143.2c.3 0 .6-.1.8-.3.2-.2.3-.5.3-.8h1.8c0 .7-.3 1.4-.8 1.9-.6.5-1.3.8-2.1.8-1.1 0-1.9-.3-2.5-1-.6-.7-.9-1.6-.9-2.7v-.2c0-1.1.3-2 .9-2.7.6-.7 1.4-1.1 2.5-1.1.9 0 1.6.3 2.2.8s.8 1.2.8 2.1H364c0-.4-.1-.7-.3-1-.2-.3-.5-.4-.8-.4-.5 0-.9.2-1.1.6-.2.4-.3.9-.3 1.6v.2c0 .7.1 1.2.3 1.6.2.4.6.6 1.1.6zM375.2 134.7v10h-2v-8.4h-2.8v3c0 1.9-.3 3.3-.9 4.2-.6.8-1.5 1.3-2.7 1.3h-.3v-1.5h.3c.6 0 1-.3 1.3-.8s.3-1.6.3-3.1v-4.5h6.8zM376.6 140.8c0-1.1.3-2 .9-2.7.6-.7 1.5-1.1 2.6-1.1s2 .4 2.6 1.1.9 1.6.9 2.7v.1c0 1.1-.3 2-.9 2.7-.6.7-1.5 1-2.6 1s-1.9-.3-2.6-1c-.6-.7-.9-1.6-.9-2.7v-.1zm2 .2c0 .7.1 1.2.4 1.6.2.4.6.6 1.1.6.5 0 .9-.2 1.1-.6.2-.4.4-1 .4-1.6v-.1c0-.7-.1-1.2-.4-1.6s-.6-.6-1.1-.6c-.5 0-.9.2-1.1.6-.2.4-.4 1-.4 1.6v.1zM387.9 143.2c.3 0 .6-.1.8-.3.2-.2.3-.5.3-.8h1.8c0 .7-.3 1.4-.8 1.9-.6.5-1.3.8-2.1.8-1.1 0-1.9-.3-2.5-1-.6-.7-.9-1.6-.9-2.7v-.2c0-1.1.3-2 .9-2.7.6-.7 1.4-1.1 2.5-1.1.9 0 1.6.3 2.2.8s.8 1.2.8 2.1H389c0-.4-.1-.7-.3-1-.2-.3-.5-.4-.8-.4-.5 0-.9.2-1.1.6-.2.4-.3.9-.3 1.6v.2c0 .7.1 1.2.3 1.6.2.4.6.6 1.1.6zM395.2 144.8c-1.1 0-2-.3-2.6-1-.6-.7-.9-1.5-.9-2.6v-.3c0-1.1.3-2 .9-2.7s1.4-1.1 2.5-1.1c1 0 1.8.3 2.3.9.5.6.8 1.4.8 2.5v1h-4.4c0 .5.2.9.5 1.2.3.3.7.5 1.2.5.4 0 .8 0 1.1-.1.3-.1.6-.2 1-.4l.5 1.2c-.3.2-.7.4-1.2.6s-1.1.3-1.7.3zm-.1-6.2c-.4 0-.7.1-.9.4-.2.3-.3.6-.4 1.1h2.4v-.1c0-.4-.1-.8-.3-1-.1-.3-.4-.4-.8-.4zM399.4 144.6v-7.4h3.1c1 0 1.8.2 2.3.5.5.3.8.9.8 1.5 0 .3-.1.7-.3.9-.2.3-.6.5-1 .6.6.1 1 .3 1.3.6.3.3.4.7.4 1.1 0 .7-.3 1.2-.8 1.6-.5.4-1.3.5-2.2.5h-3.6zm2-4.4h1.1c.4 0 .6-.1.8-.2.2-.1.3-.3.3-.5 0-.3-.1-.5-.3-.6-.2-.1-.5-.2-.9-.2h-1.1v1.5zm0 1.3v1.6h1.6c.4 0 .6-.1.8-.2.2-.1.3-.3.3-.6s-.1-.5-.2-.6c-.2-.1-.4-.2-.8-.2h-1.7zM406.9 140.8c0-1.1.3-2 .9-2.7.6-.7 1.5-1.1 2.6-1.1s2 .4 2.6 1.1.9 1.6.9 2.7v.1c0 1.1-.3 2-.9 2.7-.6.7-1.5 1-2.6 1s-1.9-.3-2.6-1c-.6-.7-.9-1.6-.9-2.7v-.1zm2 .2c0 .7.1 1.2.4 1.6.2.4.6.6 1.1.6.5 0 .9-.2 1.1-.6.2-.4.4-1 .4-1.6v-.1c0-.7-.1-1.2-.4-1.6s-.6-.6-1.1-.6c-.5 0-.9.2-1.1.6-.2.4-.4 1-.4 1.6v.1z"/></g></svg>