<svg xmlns="http://www.w3.org/2000/svg" viewBox="0 0 41.1 38.7"><path opacity=".26" fill="#7A7A7A" d="M21.1.7l6.2 12.5 13.8 2-10 9.8 2.4 13.7-12.4-6.5-12.4 6.5L11.1 25l-10-9.8 13.8-2"/><path fill="#F7D36F" d="M20 0l6.2 12.5 13.8 2-10 9.8L32.4 38 20 31.5 7.6 38 10 24.3 0 14.5l13.8-2"/><ellipse cx="20" cy="16.2" rx="6.2" ry="3.5" opacity=".19" fill="#FFF"/><path fill="#FFF" d="M15.4 25.5l-.9 2 1.4 1.6-2-.9-1.6 1.4.9-1.9-1.4-1.7 1.9.9M16.8 10.8l-1.4 3.3 2.4 2.8-3.4-1.5-2.8 2.4 1.5-3.3-2.4-2.8 3.4 1.5M17.3 19l-.8 1.8 1.3 1.4-1.8-.7-1.5 1.2.8-1.7-1.3-1.5 1.8.8M27.5 17.2l-.7 1.7 1.2 1.5-1.7-.8-1.5 1.3.8-1.8-1.3-1.4 1.8.7M26.7 10.9l-.8 1.7 1.2 1.5-1.7-.8-1.5 1.3.8-1.8-1.3-1.4 1.8.7M9.5 16l-.8 1.8 1.3 1.4-1.8-.8-1.4 1.3.7-1.8-1.2-1.4 1.7.8M20.6 7.3L19.8 9l1.3 1.5-1.8-.8-1.4 1.3.8-1.8-1.3-1.4 1.8.7"/></svg>