<svg xmlns="http://www.w3.org/2000/svg" viewBox="0 0 40 38"><path opacity=".26" fill="#7A7A7A" d="M40 19l-9.9-3.7 4.4-9.6-9.7 4.4-3.7-10-3.7 10-9.6-4.4 4.4 9.6-10 3.7 10 3.7-4.4 9.7 9.6-4.4 3.7 9.9 3.7-9.9 9.7 4.4-4.4-9.7"/><path fill="#F7D36F" d="M20 .1l3.7 10 9.6-4.4-4.4 9.6 10 3.7-10 3.7 4.4 9.7-9.6-4.4-3.7 9.9-3.7-9.9-9.6 4.4 4.4-9.7-10-3.7 10-3.7-4.4-9.6 9.6 4.4"/><path fill="#C62B32" d="M20 7.7l2.2 6 5.8-2.6-2.7 5.7 6 2.2-6 2.2L28 27l-5.8-2.6-2.2 5.9-2.2-5.9L12 27l2.7-5.8-6-2.2 6-2.2-2.7-5.7 5.8 2.6"/><ellipse cx="20" cy="14.9" rx="6.2" ry="3.5" opacity=".18" fill="#FFF"/><path fill="#F7D36F" d="M20 14.9l.8 2.2 2.1-1-.9 2.1 2.1.8-2.1.8.9 2.1-2.1-.9-.8 2.2-.8-2.2-2.1.9.9-2.1-2.1-.8 2.1-.8-.9-2.1 2.1 1"/></svg>