<svg xmlns="http://www.w3.org/2000/svg" viewBox="0 0 40.8 38.7"><path opacity=".26" fill="#7A7A7A" d="M21.1.7l6.2 12.5 13.8 2-10 9.8 2.3 13.7-12.3-6.5-12.4 6.5L11.1 25l-10-9.8 13.8-2"/><path fill="#C62B32" d="M20 0l6.2 12.5 13.8 2-10 9.8L32.4 38 20 31.5 7.6 38 10 24.3 0 14.5l13.8-2"/><path fill="#F7D36F" d="M23.4 6.9L8 22.3l2 2-.2 1.2L25 10.2M27.1 12.7L8.9 30.9 7.8 37l23.7-23.7M35.4 13.9L15.2 34l4.8-2.5 1.2.7L39 14.4M0 14.5l1.2 1.2 1.6-1.6M8 13.4l-4.5 4.5 2.2 2.2 7.4-7.5M31.9 35.1l-1.8 1.8 2.3 1.1M30.5 27.4l-6.3 6.3 3 1.6 4-4M14.4 11.4l7.5-7.5-1.4-3-1.9 1.9"/><ellipse cx="20" cy="16.2" rx="6.2" ry="3.5" opacity=".1" fill="#FFF"/></svg>