<svg xmlns="http://www.w3.org/2000/svg" viewBox="0 0 40 65.1"><path d="M23.9 15.6c1.6-4.7 3.3-11 1.5-13.8C24.7.7 23.6.3 22 .3c-2 .1-3.4 1-4.3 2.4-1.8 3.1-.5 8.7 1 12.9-7.7 1.2-13.5 7.5-13.5 15 0 3.9 1.5 7.4 4.1 8.4h7.1c-.6 15.4-4.1 16.7-2.2 21.5 2 5.2 7.2 4.1 7.2 4.1s5.2 1.1 7.2-4.1c1.9-4.8-1.6-6.1-2.2-21.5h7.1c2.5-1 4.1-4.5 4.1-8.4.1-7.6-5.9-13.9-13.7-15zM18.3 2.9C19.1 1.7 20.2 1 22 1h.2c1.1 0 2 .4 2.5 1.2 1.7 2.6-.1 8.9-1.8 13.4-.5 0-1-.1-1.4-.1-.6 0-1.2 0-1.8.1-1.6-4.1-3.1-9.8-1.4-12.7z" opacity=".4" fill="#7A7A7A"/><path d="M20 21.5c-.1 0-.3-.6-.3-.7-.3-.5-6.4-13.2-3.3-18.4C17.3 1 18.7.1 20.7 0c1.5-.1 2.7.4 3.4 1.5 3 4.6-3.4 18.8-3.7 19.4-.1.1-.2.6-.4.6zM20.9.6h-.2c-1.7.1-2.9.7-3.6 1.9-2.5 4.2 1.7 13.9 2.9 16.6 1.3-3 5.8-13.7 3.4-17.4C22.9 1 22.1.6 20.9.6z" fill="#984D22"/><path d="M25.2 34.5l-5 1.4-5-1.4c0 19.4-4.3 20.5-2.3 25.7 2 5.2 7.2 4.1 7.2 4.1s5.2 1.1 7.2-4.1c2.2-5.1-2.1-6.3-2.1-25.7z" fill="#F8CA4D"/><path d="M32.4 38.7c2.5-1 4.1-4.5 4.1-8.4 0-8.4-7.3-15.2-16.3-15.2S3.9 21.9 3.9 30.3c0 3.9 1.5 7.4 4.1 8.4h24.4z" fill="#F5E5C0"/><g fill="#F8CA4D"><circle cx="9.9" cy="33.3" r="1.2"/><circle cx="10.3" cy="26.1" r="3.3"/><circle cx="17" cy="26.3" r="1.7"/><circle cx="16.2" cy="18.9" r="1.1"/></g><ellipse cx="20.2" cy="21.8" rx="8.3" ry="4.7" opacity=".31" fill="#FFF"/></svg>