<svg xmlns="http://www.w3.org/2000/svg" viewBox="0 0 40 69.6"><path d="M33.6 62.4v-30c0-10.6-4.4-14.6-4.4-14.6 1.2-6.5-2-8.5-2-8.5V7h.6V3.6c0-.9-1.2-.8-1.2-.8h-9s-1.2-.1-1.2.8V7h.7v2.3s-3.1 2-2 8.5c0 0-4.4 4-4.4 14.6v30s-.4 6.4 4.3 6.4h14.2c4.8 0 4.4-6.4 4.4-6.4z" opacity=".4" fill="#7A7A7A"/><path d="M32.1 61.4v-30c0-10.6-4.4-14.6-4.4-14.6 1.2-6.5-2-8.5-2-8.5V5.9h-10v2.4s-3.1 2-2 8.5c0 0-4.4 4-4.4 14.6v30s-.4 6.4 4.3 6.4H27.7c4.8.1 4.4-6.4 4.4-6.4z" fill="#F4F4F4"/><path d="M25.2 1.9h-9s-1.2-.1-1.2.8v3.4h11.4V2.7c0-.9-1.2-.8-1.2-.8z" fill="#D6D6D6"/><path d="M32.1 61.4v-30c0-10.6-4.4-14.6-4.4-14.6 1.2-6.5-2-8.5-2-8.5V5.9h-5v61.9h7c4.8.1 4.4-6.4 4.4-6.4z" fill="#EAEAEA"/><path d="M13.1 28h-.2c-.7-.1-1.2-.7-1.1-1.4.6-4.3 2.6-7 2.7-7.1.4-.5 1.2-.6 1.8-.2.5.4.6 1.2.2 1.8 0 0-1.7 2.2-2.2 5.8 0 .6-.6 1.1-1.2 1.1z" fill="#FFF"/><circle cx="21.3" cy="40.7" r="6.1" fill="#EB008B"/><circle cx="16.4" cy="46.1" r="1.9" fill="#62BA47"/><path d="M18.4 33.2c0 .4-.3.8-.8.8-.4 0-.8-.3-.8-.8 0-.4.3-.8.8-.8.4 0 .8.3.8.8z" fill="#E90E8A"/><path d="M18.4 35.8c0 .6-.4 1-1 1s-1-.4-1-1 .4-1 1-1 1 .4 1 1zM15.7 34.2c0 .3-.3.6-.6.6s-.6-.3-.6-.6.3-.6.6-.6c.4 0 .6.3.6.6zM29.9 35.1c0 1.9-1.5 3.4-3.4 3.4s-3.4-1.5-3.4-3.4 1.5-3.4 3.4-3.4 3.4 1.5 3.4 3.4z" fill="#62BA47"/><g fill="#FFF"><path d="M25.7 34.6c-.3 0-.4.4-.4.6v.5c-.1 0-.2-.1-.2-.2-.1-.2-.1-.4-.2-.5 0-.2-.1-.4-.1-.6v-.2-.1-.1c0-.2-.2 0-.2.1-.2.4-.2.9-.2 1.3v.3c0 .1 0 .2-.1.3-.1.1-.1 0-.2 0s-.1-.1-.1-.2-.1 0-.1 0c-.1.1-.1.1-.1.2 0 .2.2.3.3.2.3-.1.4-.4.4-.6 0-.1.1-.2.1-.3 0 .2.1.3.2.5.1.1.2.2.3.2.1 0 .2-.1.2-.3.1.1.1.2.3.2.1 0 .3-.2.3-.3.1-.1.1-.3.1-.4 0-.2 0-.7-.3-.6zm.1.9c0 .1 0 .1 0 0-.1.1-.1 0-.1-.1-.1-.1-.1-.2-.1-.3v-.3-.1c.1.1.2.3.2.4v.4zM29 35c-.3-.1-.5.3-.5.5-.1.2-.1.6.2.7.1.1.3-.1.3-.1.1-.1.2-.2.2-.4.1-.2.1-.6-.2-.7zm-.1.9c0 .1-.1.1 0 0-.1.1-.1-.1-.1-.1v-.3c0-.1.1-.2.1-.3 0 0 0-.1.1-.1.1.1.1.3.1.5-.2.2-.2.3-.2.3zM28.2 35c.1-.1.1-.2.2-.2.1-.2.2-.4.2-.6 0-.2-.3-.2-.4-.1-.2.1-.3.3-.4.5-.1.3-.1.5-.1.8-.1.1-.3.3-.4.2l-.1-.1c.1-.1.2-.3.3-.4.1-.1.2-.4 0-.5-.2-.1-.3 0-.4.1-.1.1-.1.3-.2.4v.3c-.1.1-.2.1-.3.1-.1 0-.2-.2-.2-.2v-.4-.1c.1 0 .1.1.1.2s.3-.1.3-.2-.1-.2-.2-.3c-.1-.1-.3.1-.3.1-.2.2-.2.4-.2.7 0 .2.1.3.2.4.2.1.4 0 .6-.1.1.1.1.2.3.2.2 0 .3-.1.5-.2 0 .1 0 .3.1.3.2.1.4 0 .5-.2.1-.2.2-.4.1-.6 0 0-.1-.1-.2-.1zm-1-.1s0-.1.1-.1.1.1.1.2-.1.2-.2.3v-.1-.3zm1-.5c0-.1.1-.1.1-.1.1.1 0 .3-.1.4-.1.1-.1.2-.2.4 0-.1.1-.2.1-.3 0-.2 0-.3.1-.4zm-.1 1.4c-.1 0-.1-.2-.1-.2v-.2l.1-.1c.1-.1.1.1.1.1 0 .1 0 .2-.1.4z"/></g><g fill="#FFF"><path d="M15 45.8c.1-.2.2-.1.3 0 .1.1 0 .3-.1.4l-.2.2c-.1 0-.1.1-.1.1v.1c.1.1.2.1.3.1.2 0 .3 0 .4-.1.1 0 .2-.2 0-.2-.1.1-.2.1-.3 0h-.2v.1c-.1.1 0 .1 0 0 .1 0 .1-.1.1-.1l.2-.2c.1-.1.2-.3.2-.5-.1-.4-.5-.1-.6.1-.2.2 0 .1 0 0zM16.1 46.5c.2.5.8.1.7-.3 0-.2-.2-.2-.4-.2-.1 0-.1-.1-.1-.2v-.1h.1c.1 0 .3 0 .4.1.1 0 .2-.1.1-.2-.2-.1-.4-.1-.6 0-.2.1-.2.2-.2.4s.2.2.3.3c.1 0 .2.1.2.2 0 .2-.2.2-.3.1-.1 0-.1-.1-.1-.1.1-.2-.1-.1-.1 0zM17.7 45.6c-.2.3-.4.6-.7.9-.1.1.1.1.1 0 .2-.3.5-.6.7-1 .2 0 0 .1-.1.1z"/><path d="M17.4 45.5c-.1 0-.2.1-.2.2s.1.2.2.2c.1.1.2-.3 0-.4-.1 0-.2.1-.1.1s.1.1.1.1v.1c-.1 0-.1-.1-.1-.1v-.1c.1.1.1-.1.1-.1zM17.7 46.2c-.1 0-.2.1-.2.2s.1.2.2.2c.2.1.3-.4 0-.4-.1 0-.2.1-.1.1s.1.1.1.1v.1c-.1 0-.1-.1-.1-.1v-.1c.1.1.2-.1.1-.1zM15.8 46.9c.1-.1.1-.2.2-.3v-.1c-.1-.1-.1 0-.2 0s-.1.1-.1.1c0 .1.1.1.1 0v.2l-.1.1c0 .1.1 0 .1 0z"/></g><g fill="#FFF"><path d="M26.2 40.5c-.1-.1-.2-.1-.3-.1v-.3c0-.1-.1-.1-.2-.1s-.1.1-.1.1c-.1 0-.2 0-.2.1-.2.1-.3.3-.3.6v.1c0 .1-.1.2-.1.3-.1 0-.1-.2-.1-.3 0-.3.1-.6.1-.9 0-.1-.1-.1-.1-.1-.1 0-.2.1-.2.1-.1.2-.1.4-.1.7 0 .1-.1.2-.1.3h-.1c-.1-.1-.1-.4-.1-.5 0-.2.1-.4.2-.6 0-.1 0-.1-.1-.1s-.2.1-.2.1c-.1.2-.1.3-.2.5 0 .2-.1.3-.2.4v-.4c0-.2 0-.4.1-.6 0-.2-.1-.3-.3-.2-.2 0-.3.1-.4.2l-.2.4c0 .2-.1.3-.2.4v-.1c0-.1-.1-.2-.1-.3v-.8c-.1 0-.2.1-.2.1-.2.2-.2.4-.2.6 0 .1-.1.2-.1.4v.1l-.1-.1c0-.1 0-.1-.1-.1s-.2.1-.2.2c-.1 0-.1-.1-.1-.1 0-.1 0-.2-.1-.3V40v-.4-.1c0-.1-.1-.1-.1 0-.1 0-.2.1-.2.2V40.3c0 .1 0 .2-.1.3h-.1c-.1.1-.1-.2-.1-.3 0-.2 0-.4.1-.6v-.1H21s-.1.1-.2.1c-.1.1-.2 0-.3-.1 0-.1-.1-.1-.1-.1-.1-.1-.2 0-.3.1 0-.1 0-.2-.1-.3 0-.1-.1 0-.2 0-.1.1-.1.1-.1.2-.1 0-.2.1-.2.1-.2.2-.2.4-.2.7v.1c0 .1 0 .2-.1.3-.1.1-.2-.2-.2-.2v-.7c0-.1-.1-.1-.1 0-.1.1-.1.1-.1.2 0 .2.1.4.1.7v.3h-.1c-.2 0-.2-.3-.2-.4V40c0-.1 0-.1-.1-.1s-.1.1-.2.2v.7c0 .2.1.4.3.4.2 0 .3-.1.3-.3 0 0 0 .1.1.1.1.2.3 0 .4-.1l.1-.1.1.1c.1.1.2.1.3.1 0 0 .1 0 .1-.1v.8c0 .1.1.1.1 0 .1-.1.1-.1.1-.2v-.7c.1 0 .2-.1.3-.2.2-.2.2-.5.2-.7v-.1c.1 0 .2-.1.2-.1 0 .2-.1.4 0 .6 0 .2.1.5.3.5.1 0 .2-.1.3-.2.1.1.2.2.3.1.1 0 .1 0 .1-.1.1.1.2.1.4 0 .1-.1.2-.2.2-.3v.1c0 .1 0 .2.1.3.1.1.2.1.3 0 .1 0 .1-.1.2-.1 0 .1.1.2.1.2.1.1.3 0 .4-.1 0 .1 0 .1.1.2.2.1.3-.1.4-.2 0 .1.1.2.2.3.2.1.3 0 .4-.1v.1c.1.2.3.1.4.1h.1c0 .1 0 .1.1.1l.2.2h.1c-.1.3-.1.5-.2.8 0 .1.1.1.1.1.1 0 .1-.1.2-.1.1-.2.1-.4.2-.6h.3c.2-.1.3-.4.4-.6-.3 0-.3-.3-.4-.5zm-6.4.4s-.1 0 0 0c-.1 0-.1-.1-.2-.1-.1-.1-.1-.3-.1-.4 0-.1 0-.3.1-.4.1.1.2.2.2.3-.1.2 0 .4 0 .6zm.4-.1s0 .1 0 0c0 .1 0 .1 0 0-.1.1-.2 0-.2-.1 0-.2 0-.4-.1-.6v-.2h.1c.1.1.1.3.1.4.2.2.2.4.1.5zm3.2-.6c-.1.2-.1.5-.1.7v.1h-.1c-.1 0-.1-.1-.1-.2-.1-.2 0-.4.1-.6 0-.1.1-.1.1-.2h.1v.2zm2.1.7c0 .2-.1.4-.1.6h-.1c-.1-.1-.1-.1-.1-.2v-.4c0-.1.1-.2.1-.3.2 0 .2.2.2.3zm.5.3c0 .1-.1.3-.2.4-.1 0-.1-.1-.1-.2.1-.2.1-.4.1-.6 0-.1 0-.1.1-.1l.1.1v.4z"/><path d="M25 39.8s.1-.1.1-.2c-.1-.1-.2 0-.2 0-.1.1-.2.1-.3 0-.1 0-.1-.1-.1-.1-.1-.1-.3.1-.3.2.2.3.5.2.8.1zM17.2 40.2c0-.1-.1-.2-.1-.3.2-.1.5-.1.7-.3.1 0 .1-.1.2-.2 0-.1 0-.1-.1-.1-.4.2-.9.3-1.3.4-.2.1-.3.2-.4.3-.1.2-.1.4 0 .5.1.1.3-.2.2-.3 0-.1-.1-.1-.1-.2.1-.1.3-.1.4-.2h.1c.1.1.1.2.1.4-.1.1-.3.2-.3.4-.2.3-.2 1.1.4 1 .4-.1.4-.5.4-.8 0-.2-.1-.3-.1-.5h.1c.2 0 .3.2.3.4s0 .4-.1.5c-.1.1-.1.2-.1.2 0 .1.1 0 .2-.1.3-.3.4-.8.1-1.2-.1.1-.4.1-.6.1zm-.1 1.3c-.1 0-.2 0-.2-.1-.1-.1-.2-.5-.1-.7l.2-.2c.1.2.1.4.1.6v.4c0-.1 0-.1 0 0z"/></g><g fill="#62BA46"><path d="M13.9 38.1c-.1 0-.1-.1 0 0-.2-.1-.3-.1-.4-.1-.3 0-.4 0-.7-.1 0-.3.2-.5.3-.7.1-.2 0-.4-.1-.7v-.4c-.1.1-.1.4-.1.5-.1-.2 0-.4-.1-.6-.1.2 0 .4 0 .6-.1-.2-.1-.4-.1-.5-.1.2.1.4 0 .6-.1-.1-.1-.3-.2-.4 0 .2.1.4.1.5-.1-.1-.1-.3-.2-.3 0 .1.1.3.1.4l-.2-.2c0 .1.1.2.1.2-.1 0-.1-.1-.2-.1 0 .1.1.1.1.2-.1 0-.1-.1-.1-.1 0 .1.1.1.1.2h-.1l.1.1h-.1c0 .1.1 0 .1.1h-.1v.1c-.3.3-.1.6-.1.8 0-.1-.2-.1-.4-.2-.1 0-.1-.2-.2-.2 0 0-.1 0-.1-.1h.1c-.1 0-.2-.1-.1-.1h.2c-.1 0-.2-.1-.2-.2.1 0 .2.1.2.1-.1-.1-.3-.1-.3-.2.1 0 .2.1.3.1-.1 0-.2-.2-.3-.2l.3.3c-.1-.1-.2-.1-.3-.2.1.1.2.2.3.2-.1 0-.1-.1-.2-.1 0 .1.2.1.2.2h-.2c0 .1.1.1.2.1h-.1s.1 0 .1.1h-.1.1v.1h.1c.1.1.2.3.4.3-.1.1.1.1-1.1.6.1 0 .5-.1.7-.2.1-.1.3-.1.4-.1h.1c.2 0 .5 0 .7-.1-.2 0-.5.1-.6-.1.2-.2.1-.9.2-1 .1-.1.3-.5.6-.2.1.1.1.1-.1.3-.1.2-.2.3-.2.7 0 .1 0 .2-.1.2.5.1.7.1 1 0 0-.3.1-.3.2-.2h-.2c-.1 0 .1.1.1.1s.3 0 .4-.1h-.3z"/><path d="M12.4 35.4c-1.2 0-2.1.9-2.1 2.1 0 1.2.9 2.1 2.1 2.1 1.2 0 2.1-.9 2.1-2.1 0-1.1-1-2.1-2.1-2.1m0 .1c1.1 0 2 .9 2 2s-.9 2-2 2-2-.9-2-2c-.1-1.1.8-2 2-2"/></g></svg>