<svg xmlns="http://www.w3.org/2000/svg" viewBox="0 0 40 64.2"><path d="M35.4 61.2c0-.6-.3-1.2-.7-1.6-.9-1.4-2.9-3.6-7.4-6.3 4.1-1.6 7-5.6 7-10.3V20.5c0-.9.2-.4 0-1.2h-.1c-.3-2.7-1.6-5.2-3.5-6.9-.2-.2-.5-.4-.8-.7-.3-.2-.5-.4-.8-.6-.3-.2-.5-.3-.8-.5 0 0-.1 0-.1-.1-.1-.1-.2-.1-.4-.2 2.5-1.7 5.6-4 6.9-5.9.3-.1.4-.4.5-.6.2-.4.3-.7.2-1 0-1.5-1.2-2.7-2.7-2.7C31.2 0 30 1.2 30 2.7 30 1.2 28.7 0 27.2 0c-1.5 0-2.7 1.2-2.7 2.7 0-1.5-1.2-2.7-2.7-2.7C20.2 0 19 1.2 19 2.7 19 1.2 17.7 0 16.2 0c-1.5 0-2.7 1.2-2.7 2.7 0-1.5-1.2-2.7-2.7-2.7C9.2 0 8 1.2 8 2.7v.2c0 .6.3 1.2.7 1.6.8 1.3 2.6 3.4 6.6 5.8-3.9 1.7-6.7 5.6-6.7 10.1v22.7c0 .5 0 .9.1 1.4v.2c.5 3.3 2.4 6.2 5.1 7.9h.1c.2.1.5.3.7.4.4.2.9.4 1.3.6-2.6 1.7-5.9 4.2-7.3 6.2-.2.2-.3.5-.5.8-.2.4-.3.7-.2 1 0 1.5 1.2 2.7 2.7 2.7s2.7-1.2 2.7-2.7c0 1.5 1.2 2.7 2.7 2.7s3-1.3 3-2.9c0 1.5 1.2 2.7 2.7 2.7s2.7-1.2 2.7-2.7c0 1.5 1.2 2.7 2.7 2.7S30 63 30 61.4c0 1.5 1.2 2.7 2.7 2.7 1.5 0 2.7-1.2 2.7-2.7.1 0 .1 0 0-.2z" opacity=".4" fill="#7A7A7A"/><path d="M21.7 54.2h-3.6C12 54.2 7 49.2 7 43.1V20.5c0-6.1 5-11.1 11.1-11.1h3.6c6.1 0 11.1 5 11.1 11.1v22.6c0 6.1-5 11.1-11.1 11.1z" fill="#E55C8D"/><path d="M33.8 61.2c0-.6-.3-1.2-.7-1.6-1.1-1.8-3.9-4.7-11.2-8.2-12-5.7-4.3 0-4.3 0s-8.2 5-10.6 8.3c-.2.2-.3.5-.5.8-.2.4-.3.7-.2 1 0 1.5 1.2 2.7 2.7 2.7s2.7-1.2 2.7-2.7c0 1.5 1.2 2.7 2.7 2.7s2.7-1.2 2.7-2.7c0 1.5 1.2 2.7 2.7 2.7s2.7-1.2 2.7-2.7c0 1.5 1.2 2.7 2.7 2.7s2.7-1.2 2.7-2.7c0 1.5 1.2 2.7 2.7 2.7s2.7-1.2 2.7-2.7c.5-.1.5-.1.5-.3zM33.2 4.5c.2-.2.3-.5.5-.8.2-.4.3-.7.2-1 0-1.5-1.2-2.7-2.7-2.7-1.5 0-2.7 1.2-2.7 2.7 0-1.5-1.2-2.7-2.7-2.7-1.5 0-2.7 1.2-2.7 2.7 0-1.5-1.2-2.7-2.7-2.7-1.5 0-2.7 1.2-2.7 2.7C17.7 1.2 16.5 0 15 0c-1.5 0-2.7 1.2-2.7 2.7 0-1.5-1.2-2.7-2.7-2.7-2 0-3.2 1.2-3.2 2.7v.2c0 .6.3 1.2.7 1.6 1.1 1.8 3.9 4.7 11.2 8.2 12 5.7 4.3 0 4.3 0s8.1-4.9 10.6-8.2z" fill="#E55C8D"/><path d="M21.7 9.4h-3.6C12 9.4 7 14.4 7 20.5v3.6l22.2-11.7c-2-1.9-4.6-3-7.5-3zM32.8 20.5c0-.9.2-.4 0-1.2L7 33v10.1c0 1 .1 1.9.4 2.8l25.4-13.4v-12zM21.7 54.2c6.1 0 11.1-5 11.1-11.1v-2.2L11.6 52c1.8 1.3 4.1 2.1 6.5 2.1h3.6z" fill="#FFB6D4"/><ellipse cx="19.6" cy="16.7" rx="8.8" ry="5" opacity=".1" fill="#FFF"/></svg>