<svg xmlns="http://www.w3.org/2000/svg" viewBox="0 0 42 67.3"><path d="M41.6 59.5l-7.1-10.6c-.9-1.4-.3-2.6 1.4-2.6h2.6c1.7 0 2.3-1.2 1.4-2.6l-8.4-12.8c-.9-1.4-.3-2.6 1.4-2.6s2.2-1.1 1.1-2.4L24 13.5c-.2-.2-.4-.4-.5-.7 1.3-3.6 2.7-8.6 1.2-10.8-.7-.7-1.5-1-2.7-1-1.5.1-2.6.7-3.3 1.8-1.5 2.6-.1 7.6 1.2 10.9l-9.7 12.2c-1.1 1.3-.5 2.4 1.2 2.4s2.3 1.2 1.4 2.6L4.3 43.7c-.9 1.4-.3 2.6 1.4 2.6h2.6c1.7 0 2.3 1.2 1.4 2.6L2.6 59.5c-.9 1.4-.3 2.6 1.4 2.6h14v2.2c0 1.6 1.3 3 3 3h2c1.6 0 3-1.3 3-3v-2.2h14.2c1.7 0 2.3-1.2 1.4-2.6zM19.3 2.9c.5-.9 1.4-1.3 2.7-1.4h.2c.9 0 1.5.3 1.9.9 1.3 1.9 0 6.5-1.2 9.8-.6-.7-.9-1.2-.9-1.2v-.1s-.7 1-1.5 2.1c-1.3-3.1-2.6-7.7-1.2-10.1z" opacity=".4" fill="#7A7A7A"/><path d="M19.5 16.3c-.1 0-.2-.4-.3-.5-.2-.4-4.8-10-2.5-14C17.4.7 18.5.1 20 0c1.2 0 2 .3 2.6 1.1 2.3 3.5-2.6 14.2-2.8 14.7-.1.1-.2.5-.3.5zM20.2.5H20c-1.3.1-2.2.5-2.8 1.4-1.9 3.2 1.3 10.5 2.2 12.7 1-2.3 4.4-10.4 2.6-13.2-.3-.6-.9-.9-1.8-.9z" fill="#984D22"/><path d="M24 63.3c0 1.6-1.3 3-3 3h-2c-1.6 0-3-1.3-3-3v-15c0-1.6 1.3-3 3-3h2c1.6 0 3 1.3 3 3v15z" fill="#F1573B"/><path d="M18 12.5c1.1-1.3 1.9-2.7 1.9-2.7V61.1h-18c-1.7 0-2.3-1.2-1.4-2.6l7.1-10.6c.9-1.4.3-2.6-1.4-2.6H3.7c-1.7 0-2.3-1.2-1.4-2.6l8.5-12.8c.9-1.4.3-2.6-1.4-2.6s-2.2-1.1-1.2-2.4L18 12.5z" fill="#8BB040"/><path d="M21.9 12.5C20.8 11.2 20 10 20 10v48c0 1.7-.1 3.1-.1 3.1h18.3c1.7 0 2.3-1.2 1.4-2.6l-7.1-10.6c-.9-1.4-.3-2.6 1.4-2.6h2.6c1.7 0 2.3-1.2 1.4-2.6l-8.4-12.8c-.9-1.4-.3-2.6 1.4-2.6s2.2-1.1 1.1-2.4L21.9 12.5z" fill="#B9D08C"/></svg>