<svg xmlns="http://www.w3.org/2000/svg" viewBox="0 0 40 69.6"><path d="M33.6 62.4v-30c0-10.6-4.4-14.6-4.4-14.6 1.2-6.5-2-8.5-2-8.5V7h.6V3.6c0-.9-1.2-.8-1.2-.8h-9s-1.2-.1-1.2.8V7h.7v2.3s-3.1 2-2 8.5c0 0-4.4 4-4.4 14.6v30s-.4 6.4 4.3 6.4h14.2c4.8 0 4.4-6.4 4.4-6.4z" opacity=".4" fill="#7A7A7A"/><path d="M32.1 61.4v-30c0-10.6-4.4-14.6-4.4-14.6 1.2-6.5-2-8.5-2-8.5V5.9h-10v2.4s-3.1 2-2 8.5c0 0-4.4 4-4.4 14.6v30s-.4 6.4 4.3 6.4H27.7c4.8.1 4.4-6.4 4.4-6.4z" fill="#F4F4F4"/><path d="M25.2 1.9h-9s-1.2-.1-1.2.8v3.4h11.4V2.7c0-.9-1.2-.8-1.2-.8z" fill="#D6D6D6"/><path d="M32.1 61.4v-30c0-10.6-4.4-14.6-4.4-14.6 1.2-6.5-2-8.5-2-8.5V5.9h-5v61.9h7c4.8.1 4.4-6.4 4.4-6.4z" fill="#EAEAEA"/><path d="M13.1 28h-.2c-.7-.1-1.2-.7-1.1-1.4.6-4.3 2.6-7 2.7-7.1.4-.5 1.2-.6 1.8-.2.5.4.6 1.2.2 1.8 0 0-1.7 2.2-2.2 5.8 0 .6-.6 1.1-1.2 1.1z" fill="#FFF"/><circle cx="20.5" cy="39.2" r="6" fill="#483290"/><circle cx="15.8" cy="44.5" r="1.9" fill="#62BA47"/><g fill="#FFF"><path d="M14.9 44.2c0-.1.2-.1.3-.1.1.1-.1.2-.1.3-.1.1-.2.2-.2.3 0 .1.2.1.3.1.1 0 .2.1.1.2 0 .2-.3.1-.4 0-.1-.1-.2.1-.2.2.2.2.6.1.7-.2.1-.1.1-.3 0-.3-.1-.1-.2-.1-.3-.1l.1-.1c.1 0 .1-.1.1-.2.1-.1.1-.3 0-.3-.2-.2-.5.1-.6.3 0 .1.2 0 .2-.1zM16.6 44c-.2.4-.5.7-.8 1.1-.1.2.1.2.2 0 .3-.4.6-.7.8-1.1.1-.2-.2-.1-.2 0zM16.2 43.9c-.1 0-.2.1-.3.3 0 .1.1.2.2.2.2 0 .4-.5.1-.5-.1 0-.2.1-.1.1s.1.1.1.1v.1c-.1 0-.1-.1-.1-.1V44c0 .1.2-.1.1-.1zM16.6 44.7c-.1 0-.2.1-.3.3 0 .1.1.2.2.2.2 0 .4-.5.1-.5-.1 0-.2.1-.1.1s.1.1.1.1v.1c-.1 0-.1-.1-.1-.1v-.1c0 .1.2-.1.1-.1z"/></g><path d="M25.2 40c-.1 0-.1 0-.2.1 0 .1-.1.1-.1.2v-.2c0-.2.1-.4.2-.5l.1-.1v-.1c-.1 0-.1 0-.2.1l-.1.1c0 .1-.1.1-.1.1s-.1 0-.1.1c.1-.2.1-.3.1-.5v-.1c-.1 0-.2 0-.2.1-.1.3-.2.5-.4.7v-.1-.2-.1c0-.1.1-.2.1-.3v-.1c0-.1 0-.1-.1-.1s-.1 0-.1.1v.1c0 .1-.1.2-.1.3v.1c0 .1-.1.2-.1.2-.1-.1 0-.3 0-.4v-.1-.1c0-.1.1-.1.1-.2 0 0 0-.1-.1-.1s-.1 0-.2.1-.1.2-.1.3c-.1.1-.1.3-.2.4v-.1-.2c0-.2 0-.4.1-.6h-.2c-.1.1-.2.3-.2.5 0 .1-.1.2-.1.3v-.1s0-.1-.1-.1-.1.1-.2.1l-.1-.1v-.2-.1c0-.1 0-.2.1-.4v-.1c0-.1-.1-.1-.1 0-.1 0-.1.1-.1.1V39.4c0 .1 0 .2-.1.2-.1-.1-.1-.3-.1-.4 0-.2.1-.3.1-.4v-.1h-.1-.1-.1c-.1 0-.2 0-.3-.1 0 0 0-.1-.1-.1-.1-.1-.2 0-.3 0v-.2c0-.1-.1 0-.1 0l-.1.1h-.1s-.1 0-.1.1c-.1.1-.2 0-.3-.1 0 0-.1 0-.1-.1h-.1c-.1 0-.1.1-.1.1 0 .1-.1.1-.1.2v.1c0 .1-.1.2-.1.3 0-.2 0-.4-.1-.6 0-.1-.1 0-.2 0h-.1c-.3.1-.3.4-.3.6v.1c0 .1 0 .2-.1.2-.1.1-.2-.2-.2-.2-.1-.2-.1-.5-.1-.7 0-.1-.1 0-.1 0-.1 0-.1.1-.1.2 0 .2 0 .4.1.6v.2c-.1 0-.2-.3-.2-.4v-.5c0-.1 0-.1-.1 0-.1 0-.1.1-.1.2v.7h-.1l-.1.1c-.1 0-.2-.3-.2-.3-.1-.2-.1-.4-.1-.6 0-.1-.1 0-.1 0s-.1.1-.1.2c0 .2.1.4.1.5v.2c-.1 0-.2-.2-.2-.3V39v-.2c0-.1 0-.1-.1 0-.1 0-.1.1-.1.2v.9c-.1 0-.1-.1-.2-.2-.1-.2-.2-.5-.3-.7 0-.1-.1-.2-.1-.4v-.2c0-.1-.2 0-.2.1-.1.4 0 .8.1 1.1v.1h-.3c-.1 0-.2.2-.1.2.1.1.3 0 .4 0v.3h-.1c-.1 0-.1-.1-.1-.1 0-.1-.1 0-.1 0s-.1.1-.1.2.2.2.3.2c.2-.1.3-.4.3-.6v-.1-.1c.1.1.1.2.2.3.1.1.2.2.3 0 .1-.1.1-.1.1-.2.1.1.1.2.2.1.1 0 .2-.1.2-.2l.1.1c-.1.1-.1.3 0 .4.1.1.2-.1.2-.2-.1-.1 0-.1 0-.2.1 0 .1-.1.1-.1 0 .1.1.1.2.1s.2-.1.3-.2v.1c.1.1.3 0 .4-.1.1.1.1.1.2.1h.1c-.1.2-.1.4-.2.5 0 .2 0 .3.2.3.1 0 .2-.1.3-.2.1-.2.1-.4 0-.6v-.3c0-.1.1-.1.1-.2 0 .2.1.4.3.4.1 0 .2-.1.3-.2.1-.1.1-.3.1-.4v-.2h.1v.3c0 .2 0 .4.1.5 0 .1.1.1.2.1h.1c0 .2 0 .4-.1.7 0 .1.1 0 .1 0l.1-.1c0-.2 0-.4.1-.5.1 0 .2 0 .2-.1.2-.1.2-.4.2-.6V39h.2c0 .1-.1.3-.1.4 0 .1 0 .4.2.4.1 0 .2 0 .3-.1 0 .1.1.2.2.1h.1c.1.1.2.1.3 0l.2-.2V39.9c0 .1.2 0 .2 0 .1 0 .1-.1.1-.1 0 .1 0 .2.1.2h.3v.1c0 .1.2.1.2.1.1 0 .2-.2.3-.3 0 .1-.1.2-.1.3 0 .1 0 .1.1.1s.1 0 .1-.1.1-.2.2-.2c0 0 .1 0 .1-.1-.1.1-.1.3-.1.4 0 .1.1.2.2.2 0-.1.2-.3.2-.5.1 0 0 0 0 0zm-8.2-.1zm0 0zm.5-.1zm.9-.2zm.7-.6v-.3-.1c.2 0 .2.3.2.4v.4c-.1.1-.2-.3-.2-.4zm.4 1.2c0 .1 0 .1 0 0-.1 0-.1 0 0 0-.1 0-.1-.1-.1-.2s.1-.2.1-.3v.5zm.7-.9s-.1.1 0 0c-.1.1-.1.1 0 0-.2.1-.2-.2-.2-.3v-.3-.1c.1.1.1.2.1.3.1.2.1.3.1.4zm.6 0l-.1-.1c0-.1-.1-.2-.1-.4 0-.1 0-.2.1-.3.1.1.1.2.1.3.1.2.1.4 0 .5.1.1.1.1 0 0 .1.1.1.1 0 0 .1.1 0 .1 0 0zm.4.1zm0 0c-.1 0-.1-.1-.1-.1v-.5-.1h.1c.1.1.1.2.1.3 0 .1 0 .3-.1.4zm.8.1zm1.6.3z" fill="#FFF"/><path d="M17.7 31.9c0 .4-.3.8-.8.8-.4 0-.8-.3-.8-.8 0-.4.3-.8.8-.8.5.1.8.4.8.8z" fill-rule="evenodd" clip-rule="evenodd" fill="#483290"/><path d="M17.7 34.5c0 .5-.4 1-1 1-.5 0-1-.4-1-1 0-.5.4-1 1-1s1 .5 1 1zM15.1 33c0 .3-.3.6-.6.6s-.6-.3-.6-.6.3-.6.6-.6.6.3.6.6z" fill-rule="evenodd" clip-rule="evenodd" fill="#62BA47"/><circle cx="25.6" cy="33.8" r="3.3" fill="#62BA47"/><g fill="#FFF"><path d="M24.8 33.3c-.3 0-.3.4-.4.6v.5c-.1 0-.2-.1-.2-.2-.1-.2-.1-.3-.1-.5s-.1-.4-.1-.6v-.2-.1-.1c0-.1-.2 0-.2.1-.2.4-.2.8-.1 1.3v.3c0 .1 0 .2-.1.3h-.1c-.1 0-.1-.1-.1-.1 0-.1-.1 0-.1 0s-.1.1-.1.2.2.3.3.2c.2-.1.4-.4.4-.6 0-.1 0-.2.1-.3 0 .2.1.3.2.5.1.1.2.2.3.2.1 0 .2-.1.2-.3 0 .1.1.2.2.2s.3-.2.3-.3c.1-.1.1-.3.1-.4-.1-.3-.2-.7-.5-.7zm.1 1c-.1.1-.1 0-.1 0 0-.1-.1-.2-.1-.3v-.3-.1c.1.1.2.3.2.4v.3zM28.1 33.7c-.3-.1-.5.3-.5.5-.1.2-.1.6.1.7.1.1.3 0 .3-.1.1-.1.1-.2.2-.4s.2-.6-.1-.7zm-.2 1c-.1 0-.1-.1-.1-.1v-.3c0-.1 0-.2.1-.3v-.1c.1.1.1.3.1.5 0 .1 0 .2-.1.3z"/><path d="M27.3 33.8c.1-.1.1-.2.2-.2.1-.2.2-.4.2-.6 0-.2-.3-.2-.4-.1-.2.1-.3.3-.4.5-.1.3-.1.5-.1.8-.1.1-.3.3-.4.2l-.1-.1c.1-.1.2-.3.3-.4.1-.1.1-.4 0-.5-.1-.1-.3 0-.4.1-.1.1-.1.3-.2.4v.3c-.1.1-.2.1-.3.1-.1 0-.2-.1-.2-.2v-.4-.1c.1 0 .1.1.1.2s.3-.1.3-.2-.1-.2-.2-.2-.2 0-.3.1c-.2.2-.2.4-.2.7 0 .2 0 .3.2.4.2.1.4 0 .6-.1 0 .1.1.2.3.2.2 0 .3-.1.5-.2 0 .1 0 .3.1.3.2.1.3 0 .4-.1.1-.2.2-.4.1-.6.1-.3 0-.3-.1-.3zm-1-.1v-.1c.1 0 .1.1.1.2s-.1.2-.2.3V34c0-.1.1-.2.1-.3zm.9-.6s0-.1.1-.1c.1.1 0 .3-.1.4-.1.1-.1.2-.2.3 0-.1 0-.2.1-.3 0-.1.1-.2.1-.3zm0 1.4c-.1 0-.1 0 0 0-.1 0-.1-.2-.1-.2v-.2l.1-.1c.1 0 .1 0 .1.1s-.1.2-.1.4z"/></g><g fill="#62BA46"><path d="M13.3 36.7c-.1 0-.1 0 0 0-.2-.1-.3 0-.4 0-.3 0-.4 0-.7-.1 0-.3.2-.5.2-.7.1-.2 0-.4 0-.7v-.4c-.1.1-.1.4-.1.5 0-.2 0-.4-.1-.6v.6c0-.2-.1-.3-.1-.5-.1.2 0 .4 0 .5-.1-.1-.1-.3-.2-.4 0 .2.1.3.1.5-.1-.1-.1-.3-.2-.3 0 .1.1.3.1.4-.1 0-.1-.1-.2-.2 0 .1.1.1.1.2-.1 0-.1-.1-.2-.1 0 .1.1.1.1.2l-.1-.1c0 .1.1.1.1.1h-.1s.1 0 0 .1h-.1v.2c-.2.3-.1.5-.1.8l-.4-.2c-.1 0-.1-.1-.2-.2 0 0-.1 0-.1-.1h.1s-.2 0-.1-.1h.2c-.1 0-.2-.1-.2-.1.1 0 .2.1.2.1-.1-.1-.2-.1-.3-.2.1 0 .2.1.2.1-.1 0-.2-.2-.3-.2l.3.3c-.1-.1-.2-.1-.3-.1 0 .1.2.2.3.2-.1 0-.1 0-.2-.1 0 .1.2.1.2.1h-.2c0 .1.1 0 .2.1h-.1s.1 0 .1.1h-.1.2c.1.1.2.3.4.3-.1.1.1.1-1.1.5 0 0 .5-.1.6-.2.1 0 .3-.1.4-.1h.1c.2 0 .5 0 .7-.1-.2 0-.5.1-.6 0 .2-.2 0-.9.2-1 .1-.1.3-.5.6-.2v.3c-.1.2-.2.3-.2.6 0 .1 0 .2-.1.2.5.1.6.1.9 0 .1 0 .2-.1.2 0h-.1s.3 0 .4-.1c.1.1.1.1 0 .1z"/><path d="M11.8 34.2c-1.1 0-2.1.9-2.1 2.1 0 1.1.9 2.1 2.1 2.1 1.1 0 2.1-.9 2.1-2.1 0-1.2-.9-2.1-2.1-2.1m0 0c1.1 0 2 .9 2 2s-.9 2-2 2-2-.9-2-2 .9-2 2-2"/></g></svg>