<svg xmlns="http://www.w3.org/2000/svg" viewBox="10 -80 380 380"><path d="M329.6 261.5c-3.2-8.8-6.7-17.5-10.4-26.1-7.6-17.6-16.1-34.8-25.5-51.6-1.2-2.2-2.5-4.3-3.7-6.5h2.9c2.3 0 6.1.7 8.3-.7 2.9-2.2 1.3-5.4.2-8.2-2.5-6.9-5.2-13.8-8-20.6-5.7-13.5-12.1-26.7-19.2-39.6-3.4-6-6.8-12-10.5-17.9-.5-.8-.8-1.3-1.2-1.7h13.6c1.4 0 2.3-1.6 1.6-2.8-20.7-36.2-45.4-69.9-67.4-105.3-3.3-5.3-5.5 0-5.4 0-24.2 34-46.7 69.1-67.4 105.3-.7 1.2.2 2.8 1.6 2.8h13.6c-.6.8-1.1 1.9-1.6 2.7-2.2 3.6-4.4 7.2-6.5 10.9-7.3 12.6-13.9 25.7-19.8 39-2.5 5.8-5 11.6-7.2 17.5-1.5 3.8-6.6 12.2-4.8 16.1 1.7 3.8 8.1 2.5 11.1 2.5h1.2c-.5.8-1 1.7-1.4 2.5-9.5 16.6-18.2 33.8-25.9 51.3-3.5 7.9-6.7 15.8-9.8 23.9-1.6 4.3-3.4 8.6-4.8 13-.8 2.5-2 5 0 7.2 1.3 1.4 3.4 1.4 5.1 1.6 4.9.4 10 0 15 0h89l2.4 12.3c.2 1.1.4 2.1.8 3 .7 1.5 1.9 1.8 3 2.1 5.2 1.1 10.4 1.4 15.6 1 1-.1 2-.2 2.9-.8 2.2-1.5 3.3-5.7 4-9.7.5-2.6.8-5.4 1.4-7.9h96.9c3.2 0 8.1 1 11.1-.6 5.5-3 .7-10.6-.8-14.7z" opacity=".35" fill="#4F4F4F"/><path d="M184.1 269.1c1 5 2 10 3 15.1.2 1.1.4 2.1.8 3 .7 1.5 1.9 1.8 3 2.1 5.2 1.1 10.4 1.4 15.6 1 1-.1 2-.2 2.9-.8 2.2-1.5 3.3-5.7 4-9.7s1.1-8.3 2.5-11.5" fill="#B03C33"/><path d="M322 256.6c-3.2-8.8-6.7-17.5-10.4-26.1-7.6-17.6-16.1-34.8-25.5-51.6-2.3-4-4.6-8-6.9-11.9-1.8-3-4.3-9.8-7.2-11.8-1.5-1-2.3-.9-4.2-.9H132.7c-.9 0-2.7-.3-3.6.1-2.3 1-3.6 4.8-4.8 6.7-2.8 4.6-5.6 9.2-8.2 13.8-9.5 16.6-18.2 33.8-25.9 51.3-3.5 7.9-6.7 15.8-9.8 23.9-1.6 4.3-3.4 8.6-4.8 13-.8 2.5-2 5 0 7.2 1.3 1.4 3.4 1.4 5.1 1.6 4.9.4 10 0 15 0h216c3.2 0 8.1 1 11.1-.6 5.5-3 .7-10.6-.8-14.7z" fill="#D8487C"/><path d="M202.7-24.4c22 35.4 46.7 69.1 67.4 105.3.7 1.2-.2 2.8-1.6 2.8h-137c-1.4 0-2.3-1.6-1.6-2.8 20.7-36.2 43.2-71.3 67.4-105.3-.1 0 2.1-5.3 5.4 0z" fill="#ED7097"/><path d="M293.8 163.5c-2.5-6.9-5.2-13.8-8-20.6-5.7-13.5-12.1-26.7-19.2-39.6-3.4-6-6.8-12-10.5-17.9-1.5-2.3-1.6-2.6-3.9-2.9-5.6-.6-11.7 0-17.4 0h-85.2c-.8 0-2.3-.3-3.1.1-1.5.6-2.1 2.5-3 3.8-2.2 3.6-4.4 7.2-6.5 10.9-7.3 12.6-13.9 25.7-19.8 39-2.5 5.8-5 11.6-7.2 17.5-1.5 3.8-6.6 12.2-4.8 16.1 1.7 3.8 8.1 2.5 11.1 2.5H285.3c2.3 0 6.1.7 8.3-.7 2.9-2.2 1.3-5.4.2-8.2z" fill="#ED5384"/><g fill="#FFF"><path d="M162.5 44.3c2.3 0 3.2-2.2 2.6-3.9.9-1.1 1.7-2.4 2.3-3.6 2.5 1.7 5.2 3.2 7.8 4.6-.7 1-1.3 1.9-2 2.9h-.2c-3.7 0-3.7 5.7 0 5.7 2.4 0 3.2-2.4 2.5-4.1.7-1.1 1.5-2.1 2.2-3.2v-.1c2.8 1.4 5.7 2.7 8.6 3.8-.3 1.2-.6 2.3-.9 3.5-3.6.1-3.6 5.7.1 5.7 2.4 0 3.3-2.5 2.5-4.2 0-.1.1-.2.1-.3.3-1.3.6-2.5.9-3.8 3.2 1.1 6.4 2.1 9.7 2.9v.2c0 1.3-.2 2.6-.6 3.9-2.5 1-2.1 5.5 1.1 5.5 3 0 3.5-3.7 1.7-5.1.3-1.3.5-2.5.6-3.8 3.8.8 7.6 1.4 11.4 1.8-.1 1.2-.2 2.5-.3 3.7-2.5 1.1-2.1 5.5 1.2 5.5 3 0 3.6-3.8 1.7-5.2.1-1.3.2-2.5.3-3.8 3.5.2 6.9.3 10.4.2.4 1.1.5 2.2.5 3.3v.3c-1.9 1.4-1.3 5.2 1.7 5.2 3.2 0 3.6-4.4 1.1-5.5 0-1.2-.1-2.3-.4-3.4 3.7-.2 7.5-.7 11.2-1.3.6 1.3 1.2 2.6 1.8 4-1.1 1.7-.4 4.5 2.3 4.5 3.6 0 3.7-5.3.3-5.7-.5-1.1-1-2.2-1.5-3.4.3-.1.6-.1.8-.2 1.8-.4 1-3.1-.8-2.8-27.5 5.9-56.3-.4-78.9-17.1-1.5-1.1-2.9 1.4-1.4 2.5.7.5 1.4 1 2 1.5-.6 1.2-1.3 2.4-2.2 3.5h-.4c-3.4.1-3.5 5.8.2 5.8zM117.7 161.8c2.2 0 3.1-2 2.7-3.6.1-.1.1-.2.2-.4.5-1.5 1-3 1.5-4.6.1-.3.1-.6 0-.9 3.3.8 6.6 1.4 10 1.8 0 .1-.1.1-.1.2-.4 1.4-.9 2.7-1.3 4.1-2.9.7-2.6 5.6.8 5.6 2.8 0 3.5-3.3 2-4.9.4-1.4.9-2.7 1.3-4.1.1-.2.1-.5.1-.7 3.7.4 7.5.6 11.2.6v4.7c-1.7 1.5-1.1 5.1 1.8 5.1 3.3 0 3.6-4.5 1-5.5V155c3.5 0 6.9 0 10.3-.1.9 0 1.9-.1 2.8-.1v.1c.1 1.6.3 3.3.5 4.9-1.3 1.6-.7 4.8 2.1 4.8 3.4 0 3.7-5 .7-5.6-.2-1.4-.3-2.7-.4-4.1v-.2c3.9-.2 7.8-.5 11.7-.9 0 .2 0 .4.1.7.5 1.2.8 2.4.9 3.6-1.2 1.7-.4 4.6 2.2 4.6 3.5 0 3.7-5.1.5-5.7-.2-1.2-.5-2.4-1-3.6 4.9-.6 9.8-1.4 14.7-2.4.1 1.4.2 2.9.3 4.3-1.2 1.7-.4 4.6 2.2 4.6 3.5 0 3.7-5.1.6-5.7l-.3-3.9c2.1-.5 4.3-1 6.4-1.6 1.5-.4 3-.8 4.4-1.3v.1l1.2 4.2c-1.3 1.6-.6 4.7 2.1 4.7 3.5 0 3.7-5.1.6-5.7-.4-1.3-.7-2.7-1.1-4 0-.1-.1-.2-.1-.2 3.6-1.2 7.2-2.5 10.7-4 .8 1.4 1.5 2.9 2.3 4.3-.6 1.7.2 3.9 2.6 3.9 3.7 0 3.7-5.7 0-5.7h-.3c-.7-1.2-1.3-2.5-2-3.7 3.1-1.4 6.2-3 9.2-4.7.7 1.3 1.3 2.6 2 4 .1.2.3.4.4.5-.1 1.5.8 3.1 2.7 3.1 3.7 0 3.7-5.7 0-5.7-.4 0-.7.1-1 .2-.6-1.2-1.2-2.3-1.8-3.5 2.6-1.5 5.1-3.1 7.5-4.8.1.2.2.4.3.5 1 1.3 2 2.5 3 3.8 0 .1.1.1.1.1 0 1.4.9 2.9 2.8 2.9 3.7 0 3.7-5.7 0-5.7-.5 0-.9.1-1.2.3-.9-1.1-1.8-2.3-2.7-3.4l-.1-.1c2.7-2 5.4-4.1 8-6.4.2.2.4.3.6.4 1.2.3 2.2 1.1 2.9 2.2 0 .1.1.1.1.2-.3 1.6.6 3.5 2.7 3.5 3.7 0 3.7-5.7 0-5.7-.3 0-.5 0-.7.1-.8-1.2-2-2.1-3.3-2.6 2.4-2.2 4.7-4.5 6.9-7 1.1.9 2.1 1.7 3.2 2.6-.3 1.6.6 3.5 2.7 3.5 3.7 0 3.7-5.7 0-5.7-.3 0-.6 0-.8.1-1.1-.9-2.2-1.7-3.2-2.6.6-.7 1.2-1.3 1.7-2 1.1-1.4-.9-3.5-2-2-15.6 19.3-37.5 32.2-61.3 38.7-13.8 3.8-28 5.5-42.2 5.8-13.6.3-28.5.4-41.5-3.8-1.8-.6-2.5 2.2-.8 2.8.6.2 1.3.4 1.9.6-.2.2-.4.4-.5.7-.4 1.2-.8 2.4-1.2 3.7h-.4c-3.6.2-3.6 5.9.1 5.9zM307.9 237.1c0-.1 0-.1-.1-.2-1-1.6-2-3.3-3-4.9.4-.3.8-.5 1.1-.8 1.5-1.1 0-3.6-1.4-2.5-14.6 10.8-34.3 11.5-51.7 12.7-16.7 1.2-33.5 1.1-50.2-.6-34.3-3.5-67.4-14.2-96.5-32.6-1.6-1-3 1.5-1.4 2.5.7.4 1.3.8 2 1.2-.9 1.7-1.9 3.3-2.8 5-.2 0-.4-.1-.6-.1-3.7 0-3.7 5.7 0 5.7 2.2 0 3.1-2 2.6-3.7.1-.1.2-.2.2-.3 1-1.7 1.9-3.5 2.9-5.2 2.6 1.6 5.2 3.1 7.9 4.5-.7 1.7-1.6 3.2-2.6 4.7-3.3.4-3.2 5.7.4 5.7 2.6 0 3.3-2.8 2.3-4.5 1-1.4 1.8-2.9 2.5-4.5 3.4 1.8 6.8 3.4 10.2 5 0 .1-.1.1-.1.2-.8 1.2-1.7 2.4-2.5 3.6-.2 0-.4-.1-.6-.1-3.7 0-3.7 5.7 0 5.7 2.2 0 3.1-2 2.6-3.7 1-1.4 1.9-2.7 2.9-4.1.1-.2.2-.3.2-.4 2.8 1.2 5.7 2.4 8.6 3.6-.6 1.6-1.1 3.1-1.7 4.7-3.3.4-3.1 5.7.4 5.7 2.6 0 3.4-2.9 2.2-4.6.6-1.6 1.2-3.2 1.7-4.8 3.5 1.3 7.1 2.6 10.7 3.7l-.9 4.2c-3.3.4-3.2 5.7.4 5.7 2.6 0 3.3-2.8 2.3-4.5.3-1.5.6-3 1-4.5 4 1.2 8 2.3 12.1 3.3v.1c-.1 1.2-.4 2.4-.9 3.5 0 .1-.1.2-.1.3-2.7.9-2.4 5.6.9 5.6 2.9 0 3.5-3.5 1.9-5 .5-1.2.9-2.5 1-3.8 4.2 1 8.4 1.9 12.7 2.6 0 .1-.1.2-.1.3-.3 1.3-.5 2.7-.8 4-3.5.2-3.5 5.7.2 5.7 2.5 0 3.3-2.6 2.4-4.3.1-.1.1-.3.2-.4.3-1.4.5-2.8.8-4.2v-.6c4.6.8 9.2 1.4 13.8 1.9-.3 1.3-.7 2.6-1 3.8-3.4.3-3.4 5.7.2 5.7 2.6 0 3.3-2.8 2.3-4.4.1-.1.1-.2.1-.3.4-1.4.7-2.8 1.1-4.2v-.3c3.4.3 6.8.6 10.2.8v3.7c-2.6 1-2.2 5.5 1 5.5 2.9 0 3.5-3.6 1.8-5.1v-4c4.9.2 9.8.3 14.8.3v.5c.3 1.2.4 2.4.2 3.7-2.1 1.3-1.7 5.3 1.4 5.3s3.6-4.1 1.4-5.3c.2-1.4.1-2.8-.3-4.1 4.2 0 8.5-.2 12.7-.4v.2c-.2 1.5-.1 3 .2 4.4-2 1.3-1.5 5.3 1.5 5.3 3.2 0 3.6-4.2 1.3-5.4v-.1c-.3-1.4-.4-2.8-.2-4.2v-.3c2.3-.1 4.7-.3 7-.5 1.8-.1 3.6-.3 5.4-.4-.1.1-.1.3-.1.5-.1 1.6.3 3.1.9 4.6-1.8 1.4-1.3 5.2 1.7 5.2 3.3 0 3.6-4.6 1-5.5 0-.2 0-.5-.1-.7-.5-1.1-.7-2.3-.6-3.5 0-.3 0-.5-.2-.7 3.9-.3 7.9-.8 11.9-1.4.5 1.7.9 3.4 1.1 5.1 0 .1.1.3.1.4-.9 1.7-.2 4.4 2.4 4.4 3.6 0 3.7-5.4.2-5.7-.2-1.6-.6-3.1-1-4.6 3.6-.6 7.2-1.5 10.7-2.6.6 1.3 1.2 2.6 1.7 3.9.1.2.2.3.3.4-1.3 1.6-.7 4.8 2.1 4.8 3.6 0 3.7-5.5.2-5.7 0-.3 0-.6-.1-.9-.5-1.1-1-2.3-1.5-3.4 3.3-1.2 6.5-2.7 9.5-4.5 1 1.6 2 3.2 2.9 4.8-1 1.7-.2 4.4 2.4 4.4 3.7-.3 3.8-5.8.3-6z"/></g></svg>