<svg xmlns="http://www.w3.org/2000/svg" height="280" viewBox="0 0 505 280" width="505"><svg height="96" viewBox="-159 -31 501 96" width="500.083" x="2" y="2"><g fill="#FFF"><path d="M-157.232-17.216c.302 6.7-2.68 32.332 9.136 30.335 14.575-2.463 16.85-22.428 16.98-33.89.04-3.698-6.458.933-6.487 3.553-.035 3.048-.945 28.404-9.45 23.734-3.257-1.79-3.146-10.175-3.32-13.156-.27-4.705-.16-9.423-.37-14.13-.17-3.755-6.606.94-6.49 3.554"/><path d="M-156.954 23.077c.42 10.92 13.266 10.4 18.945 3.814 10.49-12.18 6.244-32.14 6.44-46.71.05-3.695-6.453.933-6.488 3.553-.117 8.748.92 17.525.25 26.263-.348 4.508-.543 10.623-4.024 13.844-3.115 2.882-8.455.326-8.634-4.317-.144-3.75-6.59.938-6.488 3.554M-10.625 12.433C-6.93 8.173-4.71 24.44-7.16 26.346c-3.636 2.83-4.485-5.62-4.814-7.504-1.373-7.862-1.33-16.295-.195-24.177.236-1.638.973-12.227 4.47-10.024 1.293.815-.718 8.972-.78 9.235-1.846 7.792-5.303 15.154-9.224 22.093-2.63 4.654 3.97 2.187 5.444-.426 3.053-5.4 19.67-36.748 7.21-39.407-14.027-2.99-14.53 30.95-14.27 37.31.21 5.128-.17 17.71 5.66 20.38 4.52 2.068 9.623-3.133 11.493-6.664 2.543-4.8 4.746-16.18.197-20.527-4.603-4.396-9.99 1.067-13.004 4.544-3.63 4.19 1.85 4.144 4.35 1.256M98.335 9.697c3.697-4.26 5.914 12.01 3.468 13.914-3.636 2.832-4.488-5.62-4.816-7.503-1.373-7.862-1.328-16.295-.192-24.18.235-1.637.97-12.227 4.47-10.024 1.292.815-.72 8.972-.78 9.235C98.637-1.07 95.18 6.29 91.26 13.23c-2.63 4.654 3.97 2.188 5.444-.425 3.053-5.4 19.666-36.748 7.21-39.407-14.028-2.992-14.53 30.948-14.27 37.31.21 5.125-.172 17.71 5.66 20.377 4.517 2.073 9.622-3.13 11.49-6.662 2.544-4.798 4.745-16.18.196-20.527C102.388-.5 97 4.962 93.987 8.44c-3.63 4.193 1.848 4.146 4.348 1.257M308.08 17.08c3.98-4.71 15.91-20.444 7.845-26.398-5.284-3.904-11.004 3.482-12.713 7.716-2.66 6.564-3.283 15.583-.928 22.333 3.083 8.85 11.292 5.61 17.006.83 2.923-2.45 3.008-7.918-1.258-4.35-10.41 8.708-11.083-7.66-10.234-14.447.238-1.91.69-3.7 1.24-5.538.12-.405.405-1.603.84-1.8-1.714.78.58 1.043.8 1.544 2.94 6.697-2.677 13.804-6.945 18.852-3.577 4.23 1.875 4.185 4.346 1.26M259.087 21.036c.44 7.603 7.472 9.12 12.742 4.354 5.168-4.67 6.12-12.36 5.74-18.942-.257-4.393-1.005-13.477-6.238-15.157C263.537-11.21 258.894.02 258.82 5.69c-.05 3.696 6.45-.933 6.485-3.553.026-1.842-.16-4.856 1.958-4.008.84.334 1.45 1.957 1.795 2.68 1.29 2.712 1.774 5.983 1.998 8.94.238 3.125.195 6.48-.617 9.526-.223.837-.855 2.637-1.085 2.72-1.873.684-3.702-3.13-3.782-4.51-.22-3.767-6.635.942-6.486 3.553"/><path d="M257.468-8.723c2.51 18.837 2.13 38.558.206 57.452-.36 3.555 6.224-.955 6.485-3.554 1.97-19.346 2.257-39.445-.314-58.733-.354-2.683-6.75 2.03-6.378 4.834M-59.422 4.08c-.964-3.147-2.49-7.384-6.446-7.403-3.008-.01-5.744 2.804-7.258 5.088-4.42 6.658-5.4 18.89-2.25 26.32 2.432 5.728 7.975 6.714 13.26 4.558 7.182-2.925 12.25-9.267 14.036-16.728 1.074-4.502-5.55-.522-6.17 2.06-1.41 5.903-9.115 14.19-14.252 6.154-2.16-3.383-1.984-8.335-1.795-12.183.05-1.048 1.106-9.678 1.875-9.433-.268.94.026 1.66.89 2.167.795 1.326 1.372 2.736 1.73 4.236.883 2.87 7.198-2.173 6.38-4.837M297.095-2.076c-.965-3.146-2.487-7.383-6.44-7.402-3.01-.01-5.746 2.803-7.26 5.087-4.423 6.657-5.402 18.89-2.248 26.32 2.43 5.727 7.972 6.712 13.26 4.557 7.182-2.926 12.25-9.263 14.036-16.728 1.073-4.503-5.552-.523-6.17 2.057-1.414 5.905-9.115 14.19-14.253 6.157-2.16-3.382-1.987-8.335-1.795-12.184.054-1.048 1.106-9.678 1.875-9.433-.267.94.03 1.66.89 2.167.796 1.325 1.373 2.735 1.734 4.235.876 2.872 7.19-2.172 6.37-4.836"/><path d="M-54.635 1.694c.702 10.198.035 20.5.005 30.71-.01 3.746 6.408-.987 6.488-3.552.208-6.876.7-13.873 2.43-20.56.316-1.213 1.112-2.67 1.182-3.915l.665-1.628c-.502.188-1 .377-1.5.562.23 1.292 1.143 2.76 1.423 4.152 1.616 8.05.933 16.87.51 25.025 2.16-1.182 4.325-2.367 6.486-3.554 0-5.557.574-11.23 1.63-16.685.448-2.335 1.997-5.508 2.112-7.874 1.256-1.78.922-2.167-1.007-1.157.226.376.45.756.675 1.137-.203 1.413 1.047 4.248 1.237 5.763.34 2.715.45 5.476.467 8.21.023 3.815-.658 8.263.598 11.963 1.413 4.156 4.08 3.568 7.474 1.624 6.28-3.596 9.7-9.82 10.968-16.753.62-3.383-6.023 1.01-6.488 3.554-.382 2.107-1.56 7.57-4.488 8.012-1.493.227.52.705-.943-.737-2.225-2.175-.587-9.93-.662-12.932-.102-3.82.462-15.084-4.408-16.334-4.237-1.09-7.813 5.448-9.072 8.405-3.55 8.338-4.582 18.42-4.582 27.36 0 3.787 6.358-1.048 6.486-3.554.36-6.982.56-14.036.01-21.015-.243-3.098-.14-10.084-4.023-11.223-4.02-1.175-7.56 4.766-8.875 7.62-3.92 8.522-4.517 18.892-4.797 28.087 2.164-1.18 4.325-2.367 6.488-3.553.027-10.21.695-20.514-.005-30.71-.255-3.778-6.666.944-6.485 3.554M38.984-8.475c.78 1.422 1.953 2.56 3.64 2.728 4.647.462 8.303-4.827 10.216-8.316.617-1.124.9-3.13-.943-3.03-1.84.1-3.67 1.946-4.5 3.455-.356.65-.7 1.26-1.158 1.843.395-.504-.402.177.087-.063.64-.318-.96.276.283-.196.345-.132.307-.294.147-.083.55-.71.222.292.03-.055-.07-.128.34.08-.006-.03-.138-.043-.287-.077-.416-.15-.278-.162.414.303-.024-.013-.085-.063-.18-.126-.256-.2-.18-.173-.358-.337-.52-.526-.257-.307-.634-.99-.202-.197-.838-1.532-2.743-.57-3.817.243-.93.7-3.36 3.132-2.56 4.59M56.588 26.08C52.982 29.535 51.6 15.73 51.55 14.916c-.358-5.786-.11-11.612.133-17.397.155-3.69-6.326.992-6.486 3.553-.35 5.495-.366 11.015-.897 16.5-.243 2.5-.473 5.145-1.266 7.544-.684 2.068-1.114 2.624-2.845.497-5.194-6.384-2.707-19.2-.816-26.494 1.16-4.47-5.503-.504-6.166 2.054-1.718 6.63-6.75 32.25 5.692 32.04 14.432-.238 12.23-26.958 12.783-35.692-2.16 1.184-4.325 2.368-6.486 3.553-.358 8.458-1.67 18.993 1.354 27.19 2.616 7.097 8.5 4.983 12.943.723 3.562-3.422.662-6.334-2.905-2.91M-104.596 22.3c-.633 2.4-2.548 7.043-4.883 3.79-1.71-2.378-.937-7.528-.795-10.236.297-5.673 1.084-11.36 2.15-16.938.652-3.433-5.818.81-6.328 2.803-.36 1.414-.94 4.784-2.11 5.618-4.38 3.125-4.402-6.125-3.81-8.375 1.11-4.2-4.154-.987-5.257.4-1.542 1.94-3.085 3.886-4.627 5.828-3.446 4.336 1.942 4.287 4.35 1.256 1.54-1.942 3.084-3.884 4.625-5.826l-5.257.4c-1.58 5.984-.338 16.316 8.485 12.867 5.463-2.137 8.417-8.937 9.767-14.222-2.108.934-4.215 1.87-6.323 2.805-1.56 8.16-4.526 20.098-1.374 28.085 1.288 3.27 3.542 3.687 6.742 2.708 5.87-1.795 9.336-7.404 10.81-13.02 1.174-4.465-5.494-.5-6.164 2.056"/><path d="M-85.582 2.386c-.537-9.908-11.663-4.46-15.072.66-4.298 6.455-5.27 15.87-3.718 23.34 1.48 7.125 7.098 9.652 12.702 4.128 6.953-6.86 5.527-19.285 6.088-28.128-2.164 1.185-4.325 2.37-6.49 3.553-.28 7.033-.517 14.294.637 21.267.45 2.716.85 5.497 3.654 6.31 8.072 2.337 15.276-7.646 17.387-13.843 1.47-4.313-5.33-.406-6.168 2.057-1.12 3.292-5.816 8.29-7.88 3.503-2.756-6.4-1.41-16.11-1.142-22.847.147-3.7-6.326 1-6.49 3.553-.333 5.268-.28 10.61-1.025 15.844-.227 1.592-.804 5.534-1.69 5.412-1.446-.203-2.132-2.127-2.573-3.26-1.397-3.608-1.288-7.95-.89-11.73.222-2.11.593-4.23 1.33-6.23.754-2.03 4.55-5.595 4.85-.038.203 3.762 6.632-.942 6.488-3.552M3.734 2.036c.21 6.13-5.47 34.13 6.46 32C23.82 31.604 23.206 8.15 24.103-1.52c.333-3.573-6.247.95-6.487 3.553-.657 7.092-1.055 14.47-2.837 21.396-.68 2.638-.847 5.747-3.588 3.695-2.965-2.222-1.75-10.635-1.62-13.713.215-4.97.82-9.955.65-14.934-.128-3.746-6.58.942-6.488 3.558"/><path d="M17.69 2.036c.028 13.135.768 26.287.597 39.42-.03 2.243-.016 16.83-4.234 14.194-7.69-4.813 5.166-20.29 8.062-23.753 3.56-4.25-1.88-4.2-4.346-1.256C12.962 36.38 1.06 50.94 6.663 59.588c2.28 3.526 5.955 3.265 9.41 1.368 6.695-3.676 8.205-12.24 8.643-19.127.906-14.33-.507-28.982-.537-43.35-.01-3.714-6.494.937-6.49 3.558M234.08-3.093c.21 6.13-5.47 34.13 6.457 32C254.17 26.475 253.552 3.02 254.45-6.65c.33-3.572-6.25.952-6.49 3.554-.653 7.093-1.055 14.47-2.836 21.396-.68 2.64-.847 5.748-3.588 3.696-2.965-2.222-1.75-10.635-1.618-13.713.213-4.97.82-9.955.646-14.934-.125-3.746-6.576.942-6.483 3.557"/><path d="M248.038-3.093c.027 13.135.765 26.287.596 39.42-.03 2.243-.016 16.83-4.233 14.194-7.692-4.812 5.167-20.29 8.06-23.752 3.563-4.25-1.88-4.2-4.346-1.256-4.806 5.738-16.704 20.297-11.104 28.946 2.28 3.526 5.954 3.265 9.408 1.368 6.694-3.676 8.203-12.24 8.642-19.127.905-14.33-.508-28.983-.534-43.35-.012-3.715-6.493.936-6.488 3.557M179.67-2.76c.57 10.22 1.32 20.476.79 30.714-.198 3.775 6.188-1.16 6.488-3.553.804-6.477 2.155-9.232 6.136-13.82 4.036-4.645 5.903-10.22 7.274-16.145 1.073-4.64-5.4-.28-6.166 2.056-2.602 7.93-2.655 17.305-1.632 25.517.246 1.975.45 5.755 2.404 6.996 3.096 1.964 7.693-1.878 9.726-3.806 3.583-3.398.674-6.305-2.906-2.907-2.87 2.725-3.176-10.364-3.187-11.675-.048-5.336.085-11.067 1.763-16.18-2.057.684-4.11 1.372-6.165 2.056-1.58 6.82-3.764 10.343-7.998 15.42-3.854 4.623-5.006 10.183-5.738 16.043 2.163-1.186 4.324-2.37 6.488-3.553.528-10.24-.222-20.494-.788-30.714-.21-3.764-6.632.945-6.49 3.555M168.51-7.773c-8.305.744-11.144 11.264-11.65 18.076-.415 5.61-.207 18.688 7.805 19.095 8.206.42 11.58-10.605 12.11-16.913.466-5.52.255-19.51-7.623-20.206-2.783-.248-7.466 6.144-4.832 6.378 4.327.38 5.364 6.644 5.815 10.047.37 2.782.39 5.662.043 8.45-.182 1.495-.676 2.903-.914 4.372-.25 1.576-.767 1.4-.4 1.38-4.354.218-5.287-7.894-5.517-10.764-.214-2.718-.114-5.5.315-8.193.21-1.316.577-2.54.903-3.824.387-1.506 1.196-1.488.395-1.413 2.565-.228 7.152-6.81 3.55-6.486"/><path d="M130.226-6.46c2.56 11.628 1.188 23.904.77 35.69-.134 3.768 6.256-1.095 6.488-3.552.513-5.412 1.207-10.855 2.48-16.153.8-3.318 1.64-11.61 6.04-8.332 1.94-1.937 3.877-3.876 5.816-5.813-11.652-7.69-17.366 11.94-18.656 19.892-.318 1.973 2.08 1.368 3.03.944 7.147-3.18 3.888 10.37 7.22 12.758 4.343 3.112 11.865-4.044 14.54-6.438 3.694-3.307.745-6.18-2.907-2.912-9.248 8.28-5.505-2.01-8.42-7.435-2.318-4.32-6.23-3.1-10.007-1.42 1.013.314 2.02.63 3.03.946.533-3.3 1.386-13.807 6.354-10.526 2.452 1.616 7.998-4.187 5.815-5.813-15.246-11.36-20.135 26.534-20.826 33.85 2.163-1.183 4.324-2.368 6.488-3.552.43-12.228 1.773-24.903-.88-36.972-.62-2.8-6.983 2.084-6.376 4.837M206.473-6.46c2.562 11.628 1.19 23.904.77 35.69-.132 3.768 6.258-1.095 6.49-3.552.513-5.412 1.207-10.855 2.48-16.153.8-3.318 1.64-11.61 6.04-8.332 1.94-1.937 3.877-3.876 5.816-5.813-11.653-7.69-17.367 11.94-18.657 19.892-.32 1.973 2.078 1.368 3.03.944 7.147-3.18 3.888 10.37 7.22 12.758 4.343 3.112 11.865-4.044 14.54-6.438 3.694-3.307.745-6.18-2.907-2.912-9.248 8.28-5.505-2.01-8.42-7.435-2.32-4.32-6.23-3.1-10.007-1.42 1.01.314 2.02.63 3.028.946.534-3.3 1.387-13.807 6.355-10.526 2.45 1.616 7.998-4.187 5.815-5.813-15.245-11.36-20.134 26.534-20.826 33.85 2.164-1.183 4.325-2.368 6.49-3.552.43-12.228 1.772-24.903-.883-36.972-.617-2.8-6.98 2.084-6.377 4.837M332.316 25.743c.938-1.464 1.445-3.275 1.64-4.975.217-1.875-1.984-1.512-3.026-.95-1.6.862-3.242 2.623-3.46 4.503-.053.464-.044.466-.165.897-.026.088-.374.953-.17.51.15-.326-.174.305-.263.44-.71 1.106-.833 3.13.946 3.027 1.933-.102 3.542-1.967 4.498-3.45M331.544-23.314c1.958 12.915-.537 25.872-1.97 38.722-.395 3.533 6.198-.96 6.49-3.553 1.484-13.343 3.89-26.603 1.858-40.003-.408-2.712-6.8 2.04-6.378 4.834"/></g></svg><svg height="177.167" viewBox="0 0 108 178" width="108" x="2" y="100"><path fill="#4E7C12" d="M102.467 54.648c.25-.756.504-1.64.504-2.524 0-1.136-1.515-2.02-2.52-1.388.376-1.01.757-2.02 1.007-3.155.254-1.514-1.512-3.154-2.9-2.02-.128.128-.255.128-.38.254.63-1.64.758-3.533.252-5.3-.128-.632-1.01-1.01-1.515-.632-1.39 1.136-2.523 2.398-3.66 3.66.76-1.893 1.893-3.913 1.643-5.806-.127-.882-1.012-1.766-1.894-1.388-2.146.884-3.534 3.155-4.67 5.173v-.25c.253-1.515-1.767-2.904-2.9-1.515-1.138 1.388-2.022 2.902-2.65 4.417-.128-.378-.255-.758-.38-1.01-.127-.378-.38-.63-.758-.882 0 0 0-.127.127-.127.504-1.388-.633-3.66-2.398-2.902-.503.253-1.01.506-1.514.632 1.138-1.388 2.02-2.902 2.526-4.67.504-1.765-1.263-2.9-2.777-2.648-1.515.378-3.03 1.136-4.292 2.02.13-.505.253-1.01.253-1.515.128-1.643-1.64-2.904-2.9-1.516-1.01 1.135-2.022 2.27-3.154 3.66-.13-.126-.38-.126-.507-.252-.38-8.708-3.79-12.493-3.79-12.493 2.4-7.95-1.386-10.98-1.386-10.98l.252-2.776.883.126s.378-3.155.503-4.29c.127-1.136-1.388-1.136-1.388-1.136l-5.428-.63h-.503l-5.426-.632s-1.515-.252-1.64.882c-.127 1.01-.505 4.292-.505 4.292l.883.125-.252 2.777s-4.164 2.146-3.66 10.35c0 0-6.058 4.416-7.445 17.792-.253 2.27-.506 4.795-.758 7.445 0 .125-.126.125-.126.252-2.397-9.465-6.94-12.62-6.94-12.62.378-8.33-3.913-10.348-3.913-10.348l-.378-2.778.883-.125s-.378-3.155-.505-4.29c-.126-1.136-1.64-.758-1.64-.758l-5.428.756-.505.127-5.426.756s-1.515.125-1.39 1.26c.127 1.01.506 4.292.506 4.292l.884-.127.378 2.777s-3.533 3.03-1.135 10.98c0 0-4.795 5.678-3.03 18.93h-.38v113.955h95.277V54.647h-2.017z"/><path fill="#F4F4F4" d="M37.476 94.527s-3.28-24.23-5.048-37.48c-1.768-13.25-7.95-17.54-7.95-17.54.378-8.33-3.913-10.35-3.913-10.35l-.378-3.027-12.494 1.64.378 3.028s-3.532 3.03-1.135 10.98c0 0-4.795 5.678-3.028 19.055 1.767 13.376 5.048 37.48 5.048 37.48s.504 8.075 6.436 7.32c1.64-.254 3.03-.38 4.04-.506 3.027-.38 4.416-.633 4.416-.633l.884-.125 4.417-.632c1.136-.127 2.524-.38 4.038-.506 5.805-.63 4.29-8.705 4.29-8.705"/><path fill="#EAEAEA" d="M37.476 94.527s-3.28-24.23-5.048-37.48c-1.768-13.25-7.95-17.54-7.95-17.54.378-8.33-3.913-10.35-3.913-10.35l-.378-3.027-6.31.882 10.348 77.482h.378l4.417-.63c1.136-.126 2.524-.378 4.04-.505 5.93-.757 4.416-8.833 4.416-8.833"/><path fill="#FFF" d="M8.072 55.91H7.82c-.884 0-1.64-.63-1.64-1.514 0-5.426 2.145-9.212 2.145-9.338.378-.63 1.388-1.01 2.27-.505.632.378 1.01 1.388.506 2.27 0 0-1.766 3.03-1.766 7.573.125.758-.506 1.39-1.262 1.515"/><path fill="#F4F4F4" d="M57.036 85.062s2.524-24.356 4.036-37.606c1.39-13.25-3.532-18.93-3.532-18.93 2.397-7.95-1.39-10.978-1.39-10.978l.38-3.028-12.493-1.39-.378 3.028S39.493 18.304 40 26.506c0 0-6.06 4.417-7.447 17.793-1.388 13.376-4.038 37.732-4.038 37.732s-1.388 7.952 4.543 8.583c1.64.127 3.03.38 4.038.38 3.03.378 4.417.503 4.417.503l.883.127 4.417.505c1.136.127 2.524.252 4.038.378 5.805.756 6.186-7.446 6.186-7.446"/><path fill="#D6D6D6" d="M56.278 9.47l-5.426-.63h-.504l-5.426-.63s-1.515-.253-1.64.883c-.126 1.01-.505 4.29-.505 4.29l6.94.758h.505l6.94.758s.38-3.155.506-4.292c.125-1.135-1.39-1.135-1.39-1.135"/><path fill="#EAEAEA" d="M57.036 85.062s2.524-24.356 4.036-37.606c1.39-13.25-3.532-18.93-3.532-18.93 2.397-7.95-1.39-10.978-1.39-10.978l.38-3.028-6.31-.63-8.203 77.737h.38l4.416.504c1.136.128 2.524.253 4.038.38 5.805.754 6.186-7.448 6.186-7.448"/><path fill="#FFF" d="M37.6 40.64h-.25c-.885-.25-1.39-1.01-1.137-1.892 1.262-5.3 4.165-8.456 4.29-8.583.632-.63 1.642-.63 2.272 0 .63.63.63 1.642 0 2.272 0 0-2.397 2.524-3.533 6.94 0 .76-.883 1.264-1.64 1.264"/><path fill="#629B21" d="M94.768 56.92c.38-1.01.76-2.02 1.01-3.155.253-1.515-1.512-3.155-2.902-2.02-.125.127-.25.127-.378.254.63-1.643.758-3.536.253-5.302-.128-.63-1.01-1.01-1.514-.63-1.388 1.134-2.524 2.396-3.66 3.658.76-1.893 1.894-3.912 1.644-5.805-.13-.883-1.012-1.766-1.895-1.387-2.146.882-3.534 3.155-4.67 5.174v-.253c.254-1.515-1.766-2.902-2.9-1.515-1.138 1.388-2.022 2.903-2.652 4.416-.127-.378-.252-.757-.38-1.01-.503-1.134-2.27-1.64-2.9-.252-.884 2.146-1.515 4.544-1.77 6.94-.124-.124-.124-.25-.25-.377-.63-.883-1.767-1.01-2.523-.252-2.02 1.893-1.136 5.68-.25 7.95.756 1.894 1.892 3.913 3.405 5.427-.252.253-.63.504-.883.757-1.516 1.26-.506 4.038 1.387 4.29 1.894.378 3.91.126 5.932-.378.127.126.38.25.504.25 1.515.76 3.535 0 3.913-1.892v-.125c1.515-.63 2.9-1.515 4.29-2.146 4.036-2.147 9.464-6.058 9.59-11.232.122-1.136-1.395-2.02-2.402-1.388"/><path fill="#A4BE24" d="M76.092 48.213c.506-1.39-.63-3.66-2.396-2.903-.504.252-1.012.505-1.514.63 1.133-1.387 2.02-2.9 2.523-4.667.503-1.768-1.262-2.904-2.775-2.65-1.516.377-3.03 1.135-4.29 2.02.126-.506.25-1.01.25-1.516.126-1.64-1.64-2.902-2.9-1.514-1.263 1.387-2.65 2.902-3.913 4.67-.38-1.263-1.264-2.02-2.775-1.77-2.652.632-3.66 3.914-4.167 6.31h-.126c-2.146-1.26-4.544 1.01-3.913 3.283.504 2.145 1.135 4.417 2.65 6.057h-.127c-2.65 0-3.66 2.902-2.65 4.92 3.533 7.07 17.417 6.185 22.463 1.263 1.135-1.135.38-2.775-1.012-3.155-.25 0-.377-.124-.63-.124 1.516-1.01 3.03-2.02 4.038-3.28.76-.884.38-2.4-.756-2.525-.632-.126-1.138-.126-1.77-.126 1.644-1.388 3.033-3.028 3.79-4.92"/><path fill="#D63A26" d="M55.773 53.765c3.135 0 5.68 2.543 5.68 5.68 0 3.135-2.545 5.678-5.68 5.678s-5.678-2.542-5.678-5.68c0-3.134 2.543-5.678 5.678-5.678M80.762 55.785c3.135 0 5.678 2.542 5.678 5.68 0 3.134-2.543 5.678-5.678 5.678-3.136 0-5.68-2.544-5.68-5.68 0-3.136 2.544-5.678 5.68-5.678"/><path fill="#629B21" d="M53.88 56.794c-.25-1.515-1.892-2.27-3.406-2.146.126-1.01 0-2.02-.253-3.155-.503-1.64-2.775-2.27-4.037-.884 0 0 0 .126-.126.126-.63-1.642-1.64-3.282-2.65-4.29-1.01-1.01-3.155-.758-3.66.63-.378 1.01-.63 2.02-.757 3.155-.378-.252-.757-.377-1.262-.63-.63-.252-1.388-.125-2.02 0-.883.253-1.514.884-1.893 1.515-.378.504-.505 1.262-.378 1.893 0 .757.252 1.388.63 1.893.253.253.38.505.632.757-2.147.758-2.777 4.292-.38 5.175.758.378 1.515.63 2.272.757-1.01.883-.884 2.27 0 3.28 1.01 1.262 2.902 1.515 4.417 1.893 1.514.38 2.65.63 4.038.253-.757 1.767-1.39 3.786-.126 5.426 1.01 1.262 2.397 1.642 3.786.883 2.27-1.135 3.155-5.552 4.038-7.697 1.26-2.777 1.768-5.68 1.135-8.834"/><path fill="#FFF" d="M88.204 64.87c-3.28 4.04-8.96 5.175-13.376 2.903.506.63 1.01 1.135 1.643 1.64 4.67 3.786 11.61 3.028 15.397-1.64 3.784-4.67 3.028-11.61-1.642-15.396-.63-.505-1.262-.884-2.02-1.262 3.154 3.912 3.282 9.59 0 13.755"/><path fill="#FFF" d="M71.168 64.24c-3.53-3.534-4.036-9.086-1.388-13.125-.632.378-1.263.884-1.77 1.388-4.16 4.164-4.16 10.854 0 14.89 4.17 4.167 10.856 4.167 14.896 0 .504-.503 1.01-1.134 1.388-1.765-4.038 2.65-9.465 2.145-13.126-1.39M47.95 64.744c-5.05-.63-8.71-4.795-9.087-9.59-.252.757-.504 1.388-.504 2.27-.758 5.805 3.28 11.106 8.96 11.862 5.804.758 11.103-3.28 11.86-8.96.128-.755.128-1.513 0-2.27-1.513 4.543-6.184 7.445-11.23 6.688"/><path fill="#C19F80" d="M31.543 68.91l-6.184-1.263c0-.252 1.387-7.066 5.3-14.007C35.96 44.048 43.53 39 52.364 39c8.833 0 16.28 5.048 21.454 14.766 3.656 6.94 4.92 13.756 4.92 14.008l-6.184 1.135c0-.254-4.418-23.473-20.19-23.473-16.026-.127-20.823 23.22-20.823 23.472"/><path fill="#C19F80" d="M3.53 60.833h95.276V175.04H3.53z"/><path fill="#A1866C" d="M81.14 116.99c0 15.145-12.24 27.385-27.385 27.385-15.143 0-27.258-12.24-27.258-27.385 0-15.144 12.24-27.385 27.385-27.385s27.26 12.24 27.26 27.385"/><path fill="#62BA47" d="M78.994 115.223c0 15.144-12.24 27.386-27.385 27.386-15.145 0-27.26-12.243-27.26-27.387s12.242-27.385 27.386-27.385c15.143 0 27.258 12.367 27.258 27.385"/><path fill="#FFF" d="M44.92 111.31c-2.27.254-2.902 2.903-2.902 4.797v.758c0 .883 0 1.514-.126 2.396 0 .38-.126 1.01-.252 1.01-.757.13-1.515-1.133-1.64-1.765-.505-1.39-1.01-2.776-1.262-4.29-.252-1.517-.505-3.28-.505-4.923V106.01c.253-1.135-1.514 0-1.767.506-1.767 3.155-1.262 6.94-1.262 10.348 0 .883 0 1.894-.252 2.774-.126.632-.253 1.77-.757 2.272-.38.38-1.01 0-1.262-.127-.504-.252-.757-.758-.757-1.262-.126-.504-.63-.252-1.01 0-.378.38-.756 1.136-.756 1.642.252 1.262 1.262 2.27 2.524 1.893 2.02-.63 2.902-3.025 3.407-4.92.253-.883.38-1.768.38-2.775.252 1.387.757 2.65 1.262 3.912.505.883 1.262 1.766 2.398 1.64.883-.126 1.514-1.01 1.893-2.144.378.883 1.01 1.514 2.02 1.514 1.136-.127 2.02-1.263 2.524-2.27.504-1.136.63-2.272.63-3.407.25-1.014-.13-4.547-2.526-4.294m.76 7.95c0 .254-.127.505-.253.632-.505 0-.757-.758-.884-1.01-.378-.758-.505-1.514-.63-2.396-.127-.884 0-1.766.125-2.524 0-.25.126-.503.253-.632 1.137.76 1.39 2.146 1.515 3.408 0 .756 0 1.64-.126 2.523M72.053 114.59c-2.396-.882-3.785 2.4-4.287 4.167-.38 1.766-.885 4.796 1.133 5.68 1.01.504 2.27-.38 2.776-1.012.758-.758 1.262-1.893 1.514-3.025.63-1.77 1.133-5.052-1.137-5.81m-1.388 7.827c-.128.252-.252.378-.378.504-.38-.25-.506-1.01-.506-1.388-.124-.883 0-1.768.128-2.524s.38-1.642.76-2.396c.125-.252.25-.38.377-.506.885 1.01.63 2.524.506 3.786-.382.885-.506 1.768-.885 2.525M65.49 114.97c.504-.63.884-1.262 1.26-1.895.887-1.39 1.77-3.026 1.77-4.668-.127-1.515-2.27-1.642-3.28-1.135-1.515.758-2.524 2.395-2.904 4.037-.63 2.144-.882 4.29-1.01 6.435-.757.885-2.396 2.777-3.533 2.02-.253-.252-.505-.63-.632-1.01 1.01-1.01 1.896-2.146 2.65-3.406.76-1.138 1.264-3.03-.126-3.787-1.135-.63-2.648.127-3.533 1.01-.76 1.01-1.136 2.27-1.26 3.408 0 .632-.13 1.765 0 2.775-.76.504-1.642.758-2.398.504-1.01-.254-1.262-1.137-1.515-1.895-.252-1.135-.252-2.27 0-3.408 0-.377.126-.756.252-1.008 0-.128 0-.128.125-.255.505.254.757 1.137 1.01 1.516.252.76 2.27-.503 2.145-1.26-.252-.76-.506-1.643-1.517-2.022-.883-.378-2.02.253-2.524.76-1.515 1.514-1.64 3.657-1.515 5.678 0 1.263.38 2.776 1.388 3.533 1.515.882 3.534.128 4.92-.758.38.882 1.01 1.515 2.27 1.388 1.517-.252 2.776-1.01 3.787-2.02 0 1.137.252 2.272 1.136 2.775 1.262.76 2.902-.127 3.786-1.135 1.134-1.39 1.765-3.408 1.134-5.176-.497-.626-1.256-.877-1.887-1.004m-8.328-.884c.127-.25.253-.632.378-.884.63.127.76.884.63 1.39-.124.883-.755 1.767-1.386 2.65v-.505c0-.883.125-1.767.378-2.65m7.95-4.545c.128-.25.38-.63.63-.88 1.012 1.01 0 2.52-.502 3.532-.505 1.01-1.137 2.02-1.768 2.902.125-1.01.252-1.893.506-2.775.377-1.01.63-1.893 1.134-2.778m-.505 11.235c0 .125-.127.25-.252.377H64.1c-.63-.252-.63-1.64-.755-2.146v-1.388c.25-.252.504-.506.756-.883.507-.38.886.377 1.012.883.253 1.01-.126 2.272-.505 3.157"/><path fill="#AF9175" d="M89.848 110.427l-12.24 34.2 6.182 6.437-22.335 6.184 14.008 4.166-39.12 7.318h53.76l-3.913-8.33 6.057-9.465s-2.02-9.085-3.533-11.484c-1.515-2.396 3.533-27.385 3.533-27.385l-5.552-44.042 3.153 42.4z"/><path fill="#D6D6D6" d="M18.924 21.333l-5.426.758-.505.126-5.427.758s-1.515.126-1.388 1.262c.126 1.01.504 4.29.504 4.29l6.94-.884.506-.125 6.94-.884s-.378-3.155-.504-4.29c-.126-1.136-1.64-1.01-1.64-1.01"/></svg><svg height="168.25" viewBox="199 194 172 169" width="172" x="112" y="100"><path fill="#387F21" d="M216.608 264.854H359.45s6.21.282 6.21 5.364l-.28 5.646s-.283 5.363-5.93 5.928c0 0-.564 49.685-27.383 66.622 0 0-45.45 9.88-89.77-.564 0 0-22.3-14.397-24.56-66.34 0 0-8.187-.282-8.187-6.493 0 0-2.822-9.317 7.058-10.163"/><path fill="#F4F4F4" d="M277.58 310.58s-3.717-27.442-5.718-42.45c-2-15.007-9.004-19.867-9.004-19.867.43-9.433-4.43-11.72-4.43-11.72l-.43-3.43-14.15 1.858.43 3.432s-4.003 3.43-1.288 12.435c0 0-5.43 6.432-3.43 21.582 2 15.15 5.717 42.45 5.717 42.45s.572 9.146 7.29 8.288c1.858-.285 3.43-.43 4.573-.57 3.43-.43 5.003-.716 5.003-.716l1-.143 5.003-.716c1.286-.143 2.858-.43 4.574-.57 6.574-.716 4.86-9.864 4.86-9.864"/><path fill="#D6D6D6" d="M256.568 227.682l-6.146.857-.572.142-6.146.857s-1.715.142-1.572 1.428c.143 1.144.572 4.86.572 4.86l7.86-1 .573-.143 7.86-1s-.428-3.573-.57-4.86c-.144-1.286-1.86-1.143-1.86-1.143"/><path fill="#EAEAEA" d="M277.58 310.58s-3.717-27.442-5.718-42.45c-2-15.007-9.004-19.867-9.004-19.867.43-9.433-4.43-11.72-4.43-11.72l-.43-3.43-7.146 1 11.72 87.758H263l5.002-.713c1.286-.144 2.858-.43 4.574-.572 6.718-.857 5.003-10.005 5.003-10.005"/><path fill="#FFF" d="M244.276 266.844h-.286c-1 0-1.858-.715-1.858-1.715 0-6.147 2.43-10.435 2.43-10.578.43-.714 1.572-1.144 2.572-.57.715.427 1.144 1.57.572 2.57 0 0-2 3.43-2 8.577.143.856-.572 1.57-1.43 1.714"/><path fill="#F4F4F4" d="M311.184 301.97s13.79-24.014 21.356-37.128c7.565-13.114 4.98-21.236 4.98-21.236 6.092-7.215 3.636-11.99 3.636-11.99l1.75-2.98-12.346-7.157-1.752 2.98s-5.264.277-8.603 9.07c0 0-8.228 1.784-15.88 15.012-7.653 13.228-21.356 37.13-21.356 37.13s-5.126 7.597.72 11.014c1.647.907 2.98 1.753 3.974 2.337 2.98 1.752 4.4 2.483 4.4 2.483l.88.497 4.4 2.484c1.107.672 2.527 1.404 3.974 2.336 5.647 3.444 9.866-4.852 9.866-4.852"/><path fill="#D6D6D6" d="M345.086 223.458l-5.394-3.068-.54-.235-5.395-3.068s-1.446-.933-2.117.174c-.584.994-2.51 4.2-2.51 4.2l6.84 4.002.54.236 6.84 4s1.84-3.093 2.51-4.2c.672-1.107-.774-2.04-.774-2.04"/><path fill="#EAEAEA" d="M311.184 301.97s13.79-24.014 21.356-37.128c7.565-13.114 4.98-21.236 4.98-21.236 6.092-7.215 3.636-11.99 3.636-11.99l1.75-2.98-6.272-3.565-44.23 76.7.342.26 4.4 2.485c1.106.67 2.526 1.403 3.974 2.336 5.845 3.417 10.064-4.88 10.064-4.88"/><path fill="#FFF" d="M311.462 247l-.227-.174c-.793-.61-1.036-1.7-.427-2.493 3.748-4.87 8.288-6.787 8.376-6.9.775-.305 1.943.053 2.388 1.116.305.775-.053 1.942-1.116 2.387 0 0-3.678 1.5-6.815 5.576-.41.766-1.41.897-2.178.487"/><path fill="#F4F4F4" d="M300.23 298.125s-4.618-27.305-7.11-42.238c-2.495-14.933-9.656-19.56-9.656-19.56.118-9.44-4.814-11.567-4.814-11.567l-.542-3.415-14.08 2.324.54 3.413s-3.886 3.56-.875 12.47c0 0-5.216 6.607-2.717 21.684s7.113 42.238 7.113 42.238.872 9.124 7.558 8.046c1.848-.347 3.414-.54 4.552-.722 3.415-.54 4.976-.88 4.976-.88l.995-.175 4.978-.88c1.28-.184 2.843-.522 4.553-.722 6.547-.93 4.53-10.015 4.53-10.015"/><path fill="#D6D6D6" d="M276.5 215.964l-6.113 1.06-.567.162-6.114 1.06s-1.71.2-1.524 1.48c.18 1.138.73 4.838.73 4.838l7.825-1.26.567-.16 7.824-1.26s-.546-3.558-.73-4.838-1.897-1.082-1.897-1.082"/><path fill="#EAEAEA" d="M300.23 298.125s-4.618-27.305-7.11-42.238c-2.495-14.933-9.656-19.56-9.656-19.56.118-9.44-4.814-11.567-4.814-11.567l-.542-3.415-7.11 1.235 14.606 87.325.428-.015 4.977-.88c1.28-.185 2.842-.52 4.552-.72 6.685-1.08 4.668-10.165 4.668-10.165"/><path fill="#FFF" d="M265.506 255.51l-.286.01c-1 .032-1.88-.654-1.914-1.654-.203-6.143 2.084-10.508 2.08-10.65.405-.73 1.534-1.196 2.553-.657.728.404 1.194 1.533.655 2.55 0 0-1.887 3.496-1.717 8.638.17.854-.52 1.59-1.372 1.762"/><path fill="#F4F4F4" d="M299.732 299.86s2.858-27.585 4.573-42.593c1.572-15.007-4-21.44-4-21.44 2.714-9.003-1.574-12.434-1.574-12.434l.43-3.43-14.15-1.572-.428 3.43s-4.717 2.43-4.145 11.72c0 0-6.86 5.003-8.433 20.154s-4.574 42.736-4.574 42.736-1.572 9.004 5.146 9.72c1.858.142 3.43.428 4.574.428 3.43.43 5.002.57 5.002.57l1 .145 5.002.57c1.286.144 2.858.287 4.574.43 6.576.857 7.004-8.433 7.004-8.433"/><path fill="#D6D6D6" d="M298.875 214.246l-6.146-.714h-.572l-6.146-.715s-1.716-.286-1.86 1c-.142 1.144-.57 4.86-.57 4.86l7.86.857h.57l7.862.857s.43-3.572.57-4.858c.146-1.286-1.57-1.286-1.57-1.286"/><path fill="#EAEAEA" d="M299.732 299.86s2.858-27.585 4.573-42.593c1.572-15.007-4-21.44-4-21.44 2.714-9.003-1.574-12.434-1.574-12.434l.43-3.43-7.145-.714-9.29 88.043h.428l5.002.57c1.287.144 2.858.287 4.574.43 6.574.857 7.002-8.433 7.002-8.433"/><path fill="#FFF" d="M277.722 249.55h-.286c-1-.286-1.572-1.144-1.286-2.144 1.43-6.003 4.716-9.576 4.86-9.72.714-.714 1.857-.714 2.572 0s.715 1.86 0 2.574c0 0-2.716 2.858-4.002 7.86 0 .858-1 1.43-1.858 1.43"/><path fill="#629B21" d="M342.468 267.987c.43-1.144.857-2.287 1.144-3.573.286-1.715-1.715-3.573-3.287-2.287-.144.144-.286.144-.43.286.715-1.858.858-4.002.286-6.003-.142-.714-1.142-1.144-1.714-.714-1.572 1.286-2.858 2.715-4.145 4.145.858-2.144 2.145-4.43 1.858-6.574-.143-1-1.144-2-2.144-1.572-2.43 1-4.002 3.573-5.288 5.86v-.286c.285-1.715-2-3.287-3.287-1.715-1.288 1.573-2.288 3.288-3.004 5.003-.143-.43-.285-.858-.43-1.144-.57-1.286-2.57-1.858-3.286-.286-1 2.43-1.715 5.145-2 7.86-.144-.142-.144-.285-.286-.428-.716-1-2.002-1.144-2.86-.286-2.286 2.144-1.285 6.432-.285 9.005.857 2.144 2.144 4.43 3.858 6.146-.286.285-.714.57-1 .857-1.716 1.43-.572 4.573 1.57 4.86 2.146.428 4.432.142 6.72-.43.143.143.43.286.57.286 1.716.857 4.003 0 4.43-2.145v-.142c1.717-.715 3.29-1.715 4.86-2.43 4.574-2.43 10.72-6.86 10.863-12.72.147-1.285-1.57-2.286-2.712-1.57"/><path fill="#A4BE24" d="M321.314 258.125c.57-1.572-.715-4.145-2.716-3.288-.57.286-1.144.572-1.715.715 1.286-1.572 2.287-3.288 2.858-5.29.573-2-1.428-3.287-3.144-3-1.715.43-3.43 1.287-4.86 2.287.144-.573.287-1.145.287-1.716.143-1.858-1.858-3.288-3.288-1.715-1.43 1.57-3 3.286-4.43 5.288-.43-1.43-1.43-2.287-3.146-2-3.002.714-4.146 4.43-4.717 7.146h-.144c-2.43-1.43-5.147 1.143-4.432 3.716.57 2.43 1.286 5.002 3.002 6.86h-.144c-3 0-4.145 3.288-3 5.575 4 8.004 19.723 7.003 25.44 1.43 1.286-1.288.43-3.146-1.144-3.574-.286 0-.43-.142-.715-.142 1.715-1.144 3.43-2.287 4.573-3.716.857-1 .43-2.715-.857-2.858-.715-.143-1.286-.143-2-.143 1.862-1.573 3.434-3.43 4.29-5.575"/><path fill="#D63A26" d="M298.303 264.414c3.553 0 6.433 2.88 6.433 6.432 0 3.552-2.88 6.432-6.433 6.432-3.552 0-6.43-2.88-6.43-6.432 0-3.552 2.878-6.432 6.43-6.432"/><path fill="#629B21" d="M296.16 267.845c-.287-1.715-2.146-2.573-3.86-2.43.144-1.144 0-2.287-.286-3.573-.57-1.858-3.145-2.573-4.573-1 0 0 0 .143-.142.143-.715-1.858-1.858-3.716-3-4.86-1.145-1.143-3.575-.857-4.146.715-.43 1.144-.715 2.287-.858 3.573-.43-.286-.857-.43-1.43-.714-.714-.287-1.57-.144-2.286 0-1 .285-1.715 1-2.144 1.714-.43.572-.572 1.43-.43 2.144 0 .857.287 1.572.716 2.144.286.286.43.572.715.858-2.43.857-3.145 4.86-.43 5.86.858.43 1.716.715 2.573.858-1.143 1-1 2.572 0 3.716 1.144 1.43 3.288 1.715 5.003 2.144 1.716.43 3.002.715 4.575.286-.857 2-1.572 4.288-.144 6.146 1.146 1.43 2.717 1.858 4.29 1 2.57-1.285 3.572-6.287 4.572-8.718 1.43-3.147 2.002-6.434 1.287-10.007"/><path fill="#FFF" d="M335.036 276.992c-3.717 4.574-10.148 5.86-15.15 3.288.57.715 1.143 1.286 1.857 1.858 5.29 4.287 13.15 3.43 17.438-1.858 4.29-5.29 3.432-13.15-1.857-17.438-.714-.57-1.43-1-2.286-1.43 3.572 4.43 3.715 10.863 0 15.58"/><path fill="#FFF" d="M315.74 276.277c-4.002-4.002-4.573-10.29-1.572-14.865-.714.43-1.43 1-2 1.572-4.718 4.717-4.718 12.292 0 16.866 4.716 4.717 12.29 4.717 16.864 0 .572-.57 1.144-1.287 1.572-2-4.573 3-10.718 2.43-14.864-1.573"/><path fill="#387F21" d="M287.465 198.796c-36.482 0-66.058 29.575-66.058 66.058s29.575 66.058 66.058 66.058 66.058-29.575 66.058-66.058-29.576-66.058-66.058-66.058m0 124.21c-32.117 0-58.153-26.035-58.153-58.152s26.036-58.153 58.153-58.153 58.153 26.037 58.153 58.154-26.036 58.153-58.153 58.153"/><path fill="#984D22" d="M212.092 267.394h142.842s6.21.283 6.21 5.364l-.28 5.646s-.283 5.364-5.93 5.93c0 0-.564 49.684-27.383 66.62 0 0-45.448 9.88-89.77-.563 0 0-22.3-14.396-24.56-66.34 0 0-8.186-.28-8.186-6.492 0 0-2.823-9.317 7.058-10.164"/><path fill="#984D22" d="M282.948 201.337c-36.483 0-66.058 29.575-66.058 66.057 0 36.483 29.575 66.057 66.058 66.057 36.482 0 66.058-29.573 66.058-66.056 0-36.482-29.575-66.057-66.058-66.057m0 124.21c-32.117 0-58.153-26.035-58.153-58.153 0-32.117 26.036-58.153 58.153-58.153s58.153 26.037 58.153 58.154c.002 32.117-26.035 58.153-58.152 58.153"/><path fill="#C6774F" d="M216.044 284.05l81.02-.282s-53.92 13.832-79.89 13.268c0 0-1.13-6.493-1.13-12.986"/><path fill="#62BA47" d="M308.655 315.575c0 13.818-11.307 25.125-25.125 25.125s-25.125-11.307-25.125-25.125 11.306-25.124 25.125-25.124 25.125 11.21 25.125 25.125"/><path fill="#FFF" d="M277.25 312c-2.03.193-2.61 2.706-2.707 4.445v.772c0 .773 0 1.45-.097 2.224 0 .29-.097.967-.193.967-.773.097-1.353-1.063-1.546-1.546-.483-1.256-.87-2.608-1.16-3.962-.192-1.45-.386-2.995-.482-4.444v-2.996c.193-1.063-1.353 0-1.643.387-1.643 2.9-1.16 6.378-1.16 9.566 0 .87 0 1.74-.193 2.61-.098.58-.194 1.643-.677 2.126-.29.29-.87 0-1.16-.097-.386-.194-.676-.678-.676-1.16-.097-.483-.58-.193-.87 0-.386.386-.773 1.063-.676 1.45.194 1.16 1.257 2.125 2.417 1.738 1.836-.58 2.61-2.803 3.092-4.542.192-.87.29-1.643.385-2.513.29 1.257.677 2.513 1.256 3.576.388.868 1.16 1.642 2.224 1.448.773-.097 1.353-.966 1.74-1.933.386.87.965 1.45 1.835 1.353 1.062-.097 1.932-1.256 2.318-2.028.483-1.064.58-2.126.58-3.19 0-1.35-.386-4.54-2.61-4.25m.677 7.247c0 .194-.096.387-.193.58-.387 0-.677-.676-.87-.966-.29-.676-.483-1.45-.58-2.222-.097-.773 0-1.546.097-2.416 0-.193.096-.387.192-.58 1.063.677 1.256 2.03 1.353 3.093.194.967.194 1.74 0 2.512M302.277 314.996c-2.223-.87-3.575 2.223-3.865 3.865-.387 1.547-.87 4.35 1.063 5.122.967.387 2.03-.29 2.61-.966.676-.773 1.158-1.74 1.353-2.803.482-1.545.87-4.54-1.16-5.217m-1.354 7.15c-.096.193-.192.387-.29.483-.29-.194-.482-.968-.482-1.258-.097-.772 0-1.545.097-2.318s.386-1.546.77-2.223c.098-.192.195-.29.29-.482.87.967.58 2.416.388 3.575-.194.774-.387 1.547-.774 2.223M296.19 315.383c.386-.58.868-1.16 1.255-1.74.87-1.256 1.643-2.705 1.547-4.252-.098-1.448-2.03-1.545-2.996-1.062-1.45.677-2.32 2.223-2.706 3.77-.58 1.932-.87 3.864-.966 5.895-.677.87-2.223 2.608-3.285 1.836-.29-.195-.39-.58-.58-.968.966-.967 1.738-1.934 2.51-3.093.678-1.064 1.16-2.706-.096-3.48-1.063-.58-2.513.097-3.188.967-.773.87-1.063 2.03-1.16 3.188 0 .58-.096 1.643 0 2.61-.676.386-1.45.676-2.222.482-.87-.193-1.16-1.063-1.353-1.74-.192-1.063-.192-2.125 0-3.188 0-.29.098-.677.195-.967 0-.098 0-.098.096-.193.484.193.774 1.063.87 1.45.194.772 2.126-.484 1.934-1.16-.193-.773-.483-1.45-1.353-1.837-.772-.387-1.835.29-2.318.773-1.353 1.353-1.45 3.382-1.353 5.12 0 1.16.29 2.61 1.255 3.19 1.353.87 3.19.097 4.542-.677.29.87.967 1.45 2.03 1.256 1.352-.194 2.512-.967 3.574-1.836 0 1.063.29 2.125 1.064 2.512 1.16.677 2.61-.097 3.48-1.063 1.062-1.258 1.546-3.094 1.062-4.736-.58-.772-1.257-1.06-1.837-1.06m-7.634-.87c.096-.29.193-.58.386-.87.58.096.677.87.58 1.256-.096.87-.676 1.643-1.256 2.416v-.387c-.097-.775.095-1.644.29-2.417m7.247-4.156c.097-.29.29-.58.58-.87.87.967 0 2.32-.387 3.286-.483.87-1.063 1.836-1.643 2.61.097-.87.29-1.74.482-2.514.29-.87.58-1.74.968-2.513m-.387 10.244c0 .098-.097.29-.193.387h-.193c-.58-.29-.58-1.45-.677-1.933v-1.256c.193-.29.483-.483.677-.773.483-.29.87.29.967.87.096.773-.29 1.933-.58 2.706"/></svg><svg height="54.347" viewBox="0 0 92 55" width="91.068" x="286" y="100"><g fill="#FFF"><path d="M5.646 2.5c.11 2.448-.98 11.82 3.34 11.09 5.328-.9 6.16-8.2 6.207-12.39.016-1.352-2.36.34-2.37 1.3-.014 1.113-.347 10.383-3.456 8.676-1.19-.654-1.15-3.72-1.213-4.81-.1-1.72-.06-3.446-.136-5.167-.062-1.374-2.415.343-2.372 1.3"/><path d="M5.748 17.23c.153 3.992 4.85 3.802 6.925 1.392 3.835-4.45 2.283-11.748 2.355-17.075.018-1.35-2.36.34-2.372 1.3-.043 3.197.336 6.406.09 9.6-.126 1.648-.198 3.884-1.47 5.062-1.14 1.052-3.09.118-3.156-1.58-.053-1.37-2.41.342-2.372 1.3M59.24 13.338c1.352-1.558 2.163 4.39 1.268 5.086-1.33 1.035-1.64-2.055-1.76-2.744-.502-2.874-.486-5.957-.07-8.838.085-.6.354-4.47 1.633-3.665.474.298-.263 3.28-.284 3.376-.675 2.85-1.938 5.54-3.372 8.077-.962 1.7 1.45.8 1.99-.156C59.76 12.5 65.834 1.04 61.28.068c-5.13-1.094-5.313 11.314-5.218 13.64.077 1.873-.063 6.472 2.07 7.45 1.65.757 3.517-1.146 4.2-2.437.93-1.752 1.735-5.913.072-7.503-1.683-1.607-3.652.39-4.754 1.66-1.326 1.533.677 1.516 1.59.46M41.402 10.283c-.353-1.15-.91-2.7-2.356-2.706-1.1-.004-2.1 1.025-2.654 1.86-1.616 2.434-1.974 6.906-.822 9.622.89 2.093 2.915 2.452 4.848 1.665 2.625-1.07 4.477-3.387 5.13-6.116.393-1.647-2.03-.192-2.255.75-.516 2.16-3.332 5.19-5.21 2.25-.79-1.235-.726-3.045-.657-4.453.02-.383.405-3.538.686-3.448-.098.342.01.606.325.79.29.485.502 1 .633 1.55.323 1.05 2.63-.793 2.332-1.767"/><path d="M43.153 9.41c.257 3.73.013 7.496.002 11.227-.004 1.37 2.343-.36 2.372-1.297.076-2.515.256-5.072.89-7.518.114-.443.405-.976.43-1.43.08-.2.162-.398.243-.596-.183.07-.365.138-.548.206.085.472.418 1.01.52 1.518.592 2.943.342 6.167.188 9.15.79-.435 1.58-.868 2.37-1.3 0-2.032.21-4.106.596-6.1.165-.855.73-2.015.773-2.88.458-.65.336-.792-.37-.423.084.138.166.277.248.416-.074.517.383 1.553.452 2.107.124.993.164 2.002.17 3.002.01 1.394-.24 3.02.22 4.372.516 1.52 1.49 1.305 2.732.596 2.296-1.316 3.546-3.59 4.01-6.125.226-1.237-2.202.37-2.372 1.3-.14.77-.57 2.767-1.642 2.927-.546.084.19.258-.345-.268-.813-.795-.214-3.63-.242-4.73-.036-1.396.17-5.514-1.61-5.97-1.548-.4-2.856 1.99-3.316 3.072-1.297 3.048-1.674 6.735-1.674 10.002 0 1.383 2.324-.383 2.37-1.3.133-2.552.206-5.132.005-7.683-.09-1.133-.052-3.687-1.47-4.103-1.472-.43-2.766 1.742-3.246 2.785-1.434 3.116-1.653 6.907-1.755 10.267l2.372-1.297c.01-3.734.254-7.5-.002-11.23-.095-1.375-2.438.35-2.372 1.304M77.378 5.694c.284.52.713.936 1.33.997 1.698.17 3.035-1.764 3.734-3.04.227-.41.33-1.143-.345-1.107-.673.037-1.342.712-1.646 1.263-.13.238-.255.46-.422.674.145-.184-.146.065.032-.023.234-.116-.35.1.104-.072.126-.048.11-.107.053-.03.202-.26.08.107.01-.02-.024-.047.126.03 0-.01-.052-.017-.106-.03-.153-.056-.102-.06.15.11-.01-.006-.03-.023-.063-.046-.093-.073-.063-.062-.128-.122-.188-.19-.094-.112-.23-.362-.072-.072-.308-.56-1.003-.208-1.396.09-.34.254-1.228 1.144-.936 1.676M83.813 18.325c-1.317 1.266-1.822-3.782-1.842-4.08-.13-2.115-.04-4.245.05-6.36.058-1.35-2.312.363-2.37 1.3-.13 2.008-.135 4.026-.328 6.03-.09.916-.174 1.882-.463 2.758-.25.756-.408.96-1.04.182-1.9-2.333-.99-7.02-.3-9.686.425-1.635-2.012-.185-2.254.75-.628 2.424-2.468 11.79 2.08 11.714 5.277-.088 4.473-9.856 4.674-13.05l-2.37 1.3c-.132 3.092-.61 6.944.494 9.94.956 2.593 3.107 1.82 4.732.263 1.3-1.248.24-2.313-1.063-1.062M24.888 16.944c-.23.876-.93 2.576-1.785 1.386-.625-.87-.343-2.753-.29-3.743.108-2.074.396-4.153.785-6.192.24-1.255-2.127.296-2.313 1.025-.132.517-.344 1.75-.772 2.054-1.6 1.142-1.61-2.24-1.392-3.062.407-1.535-1.518-.36-1.92.146-.565.71-1.13 1.42-1.693 2.13-1.26 1.586.71 1.568 1.59.46l1.692-2.13c-.64.05-1.282.097-1.923.146-.578 2.188-.124 5.965 3.1 4.704 1.998-.78 3.08-3.267 3.572-5.2l-2.313 1.026c-.57 2.983-1.654 7.348-.502 10.268.47 1.195 1.295 1.346 2.465.988 2.146-.656 3.413-2.705 3.952-4.758.428-1.63-2.01-.182-2.254.752"/><path d="M31.84 9.664c-.197-3.622-4.264-1.63-5.51.24-1.572 2.36-1.927 5.802-1.36 8.534.54 2.604 2.595 3.527 4.644 1.508 2.54-2.506 2.02-7.048 2.225-10.282l-2.373 1.3c-.102 2.57-.19 5.225.233 7.775.164.99.31 2.01 1.336 2.306 2.95.854 5.585-2.797 6.356-5.06.537-1.578-1.948-.15-2.255.75-.41 1.205-2.126 3.03-2.88 1.28-1.007-2.34-.516-5.888-.418-8.352.053-1.352-2.313.365-2.373 1.3-.122 1.925-.102 3.878-.375 5.79-.083.584-.294 2.026-.618 1.98-.528-.073-.78-.778-.94-1.192-.51-1.32-.47-2.905-.325-4.288.08-.77.215-1.547.485-2.277.275-.742 1.663-2.046 1.772-.014.075 1.376 2.424-.345 2.372-1.3M64.49 9.536c.077 2.24-2 12.476 2.36 11.7 4.984-.89 4.76-9.465 5.087-13 .12-1.305-2.284.35-2.372 1.3-.24 2.593-.386 5.29-1.037 7.822-.25.964-.31 2.1-1.312 1.35-1.084-.812-.64-3.888-.59-5.013.076-1.817.298-3.64.235-5.46-.045-1.368-2.402.345-2.37 1.3"/><path d="M69.593 9.536c.01 4.802.28 9.61.22 14.412-.013.82-.008 6.152-1.55 5.19-2.81-1.76 1.89-7.42 2.948-8.685 1.302-1.553-.687-1.535-1.588-.46-1.757 2.1-6.108 7.42-4.06 10.583.834 1.29 2.177 1.193 3.44.5 2.447-1.344 3-4.475 3.16-6.992.33-5.238-.187-10.596-.198-15.848-.002-1.357-2.373.342-2.37 1.3"/></g><g fill="#FFF"><path d="M3.194 36.982c1.35-1.558 2.162 4.39 1.267 5.086-1.328 1.035-1.64-2.055-1.76-2.743-.5-2.873-.485-5.957-.07-8.838.086-.6.355-4.47 1.634-3.666.473.3-.263 3.28-.285 3.378-.676 2.85-1.94 5.54-3.373 8.076-.962 1.7 1.45.8 1.99-.156 1.116-1.974 7.19-13.434 2.636-14.405C.103 22.618-.08 35.026.016 37.35c.077 1.875-.062 6.475 2.07 7.45 1.65.758 3.517-1.144 4.2-2.435.93-1.754 1.735-5.914.072-7.504-1.683-1.606-3.652.39-4.754 1.66-1.327 1.534.676 1.518 1.59.462M79.872 39.68c1.456-1.722 5.816-7.475 2.868-9.65-1.932-1.428-4.023 1.272-4.648 2.82-.972 2.4-1.2 5.697-.34 8.165 1.128 3.234 4.13 2.05 6.218.302 1.07-.895 1.1-2.894-.46-1.59-3.805 3.184-4.05-2.8-3.74-5.28.086-.698.25-1.353.452-2.024.044-.148.15-.586.308-.658-.627.285.212.38.292.564 1.075 2.448-.98 5.046-2.54 6.89-1.307 1.548.686 1.53 1.59.46M61.96 41.126c.163 2.78 2.733 3.334 4.66 1.592 1.89-1.708 2.237-4.52 2.098-6.925-.093-1.605-.367-4.927-2.28-5.54-2.85-.916-4.547 3.19-4.574 5.263-.018 1.35 2.358-.342 2.37-1.3.01-.673-.058-1.774.717-1.465.307.123.53.716.657.98.472.992.648 2.188.73 3.27.087 1.14.072 2.368-.225 3.48-.08.307-.313.965-.397.995-.684.25-1.353-1.144-1.382-1.648-.08-1.376-2.427.345-2.372 1.3"/><path d="M61.37 30.248c.917 6.886.778 14.095.075 21.003-.132 1.3 2.275-.348 2.37-1.298.72-7.072.826-14.42-.113-21.47-.13-.982-2.47.74-2.332 1.766M75.855 32.677c-.353-1.15-.91-2.7-2.355-2.706-1.1-.003-2.1 1.026-2.654 1.86-1.616 2.435-1.974 6.906-.82 9.622.888 2.094 2.913 2.454 4.847 1.666 2.625-1.07 4.477-3.386 5.13-6.115.393-1.646-2.03-.19-2.255.752-.517 2.16-3.332 5.188-5.21 2.25-.79-1.235-.727-3.046-.657-4.453.02-.383.406-3.538.687-3.448-.098.344.01.607.325.793.29.483.502 1 .634 1.547.32 1.05 2.63-.793 2.33-1.767M52.82 32.305c.075 2.24-2 12.477 2.36 11.7 4.983-.89 4.757-9.466 5.085-13 .12-1.306-2.284.35-2.372 1.3-.24 2.593-.386 5.29-1.037 7.822-.248.965-.31 2.102-1.312 1.352-1.084-.814-.64-3.89-.59-5.015.077-1.817.298-3.64.235-5.46-.046-1.37-2.404.344-2.37 1.3"/><path d="M57.922 32.305c.01 4.802.28 9.61.218 14.41-.01.82-.006 6.154-1.548 5.19-2.812-1.76 1.89-7.418 2.947-8.683 1.3-1.554-.69-1.536-1.59-.46-1.757 2.098-6.107 7.42-4.06 10.582.834 1.29 2.177 1.194 3.44.5 2.447-1.343 3-4.474 3.16-6.992.33-5.238-.187-10.595-.197-15.847-.003-1.357-2.373.342-2.37 1.3M32.93 32.428c.207 3.735.482 7.484.287 11.228-.072 1.38 2.263-.423 2.372-1.3.293-2.367.787-3.375 2.243-5.05 1.475-1.7 2.158-3.737 2.66-5.903.39-1.696-1.976-.104-2.255.75-.95 2.9-.97 6.326-.597 9.33.09.72.166 2.103.88 2.557 1.132.717 2.813-.687 3.556-1.39 1.31-1.244.246-2.307-1.063-1.064-1.05.996-1.16-3.788-1.165-4.268-.017-1.95.03-4.046.645-5.915l-2.254.75c-.578 2.494-1.377 3.78-2.925 5.638-1.41 1.69-1.83 3.723-2.098 5.866l2.372-1.3c.193-3.742-.082-7.49-.29-11.227-.076-1.378-2.424.343-2.37 1.298M28.85 30.594c-3.037.272-4.075 4.118-4.26 6.608-.152 2.05-.076 6.832 2.853 6.98 3 .154 4.233-3.876 4.428-6.182.17-2.02.093-7.133-2.786-7.388-1.018-.09-2.73 2.248-1.767 2.332 1.582.14 1.96 2.43 2.126 3.674.136 1.017.142 2.07.016 3.09-.068.546-.25 1.06-.335 1.597-.092.577-.28.513-.147.505-1.592.08-1.933-2.886-2.017-3.935-.077-.994-.04-2.01.117-2.995.077-.48.21-.93.33-1.398.14-.55.437-.543.144-.517.938-.083 2.616-2.488 1.3-2.37"/><path d="M14.853 31.075c.936 4.25.435 8.74.28 13.048-.048 1.377 2.288-.4 2.373-1.3.188-1.978.442-3.967.908-5.904.292-1.214.598-4.245 2.208-3.047.71-.708 1.417-1.417 2.126-2.125-4.26-2.81-6.35 4.365-6.82 7.272-.117.72.76.5 1.107.345 2.613-1.162 1.422 3.79 2.64 4.664 1.587 1.137 4.337-1.48 5.315-2.355 1.35-1.21.272-2.26-1.063-1.063-3.38 3.027-2.012-.735-3.078-2.72-.85-1.578-2.278-1.133-3.66-.518.37.114.74.23 1.108.346.196-1.207.507-5.047 2.324-3.85.896.592 2.923-1.53 2.126-2.124-5.574-4.153-7.36 9.7-7.614 12.375l2.372-1.298c.158-4.47.65-9.104-.32-13.517-.228-1.022-2.555.764-2.333 1.77M42.727 31.075c.937 4.25.436 8.74.282 13.048-.05 1.377 2.286-.4 2.37-1.3.19-1.978.443-3.967.91-5.904.29-1.214.597-4.245 2.207-3.047.71-.708 1.417-1.417 2.126-2.125-4.26-2.81-6.35 4.365-6.82 7.272-.118.72.76.5 1.107.345 2.613-1.162 1.422 3.79 2.64 4.664 1.587 1.137 4.337-1.48 5.315-2.355 1.35-1.21.272-2.26-1.063-1.063-3.38 3.027-2.012-.735-3.078-2.72-.848-1.578-2.277-1.133-3.658-.518.37.114.738.23 1.107.346.196-1.207.507-5.047 2.324-3.85.895.592 2.923-1.53 2.126-2.124-5.574-4.153-7.36 9.7-7.614 12.375l2.37-1.298c.16-4.47.65-9.104-.32-13.517-.227-1.022-2.554.764-2.333 1.77M88.73 42.846c.344-.534.53-1.196.6-1.818.08-.686-.725-.553-1.106-.347-.585.316-1.185.96-1.265 1.647-.02.17-.017.17-.06.327-.01.032-.138.35-.064.187.055-.12-.063.112-.095.162-.26.404-.304 1.144.346 1.107.708-.038 1.296-.72 1.645-1.264M88.45 24.914c.716 4.72-.197 9.458-.72 14.155-.145 1.292 2.266-.353 2.372-1.3.543-4.877 1.423-9.725.68-14.623-.15-.992-2.487.744-2.332 1.767"/></g></svg><svg height="68.025" viewBox="23 23 69 69" width="68.031" x="286" y="157"><path fill="#FFF" d="M89.6 57c0-18.003-14.596-32.6-32.6-32.6-18.003 0-32.6 14.596-32.6 32.6S38.997 89.6 57 89.6 89.6 75.003 89.6 57"/><path fill="#62BB46" d="M39.14 56.88c0-2.902-.187-5.82.043-8.705.407-5.11 3.928-8.712 9.066-8.937 5.88-.256 11.786-.223 17.67.006 4.676.182 8.088 3.395 8.808 8.054.992 6.41.948 12.87 0 19.28-.718 4.86-3.947 7.944-8.938 8.17-5.874.268-11.78.254-17.65-.035-4.965-.246-8.454-3.872-8.877-8.873-.25-2.967-.046-5.97-.046-8.96h-.076m17.78 15.49v.036c2.175 0 4.35.006 6.528-.003.576-.004 1.153-.04 1.73-.08 4.317-.292 6.945-2.674 7.088-6.96.186-5.544.198-11.104-.006-16.645-.167-4.485-2.826-6.867-7.462-6.974-4.837-.112-9.678-.045-14.518-.038-.752 0-1.512.05-2.255.16-3.65.54-5.87 2.495-6.04 6.166-.278 5.934-.34 11.896-.1 17.83.166 4.082 2.93 6.37 7.044 6.494 2.66.082 5.327.015 7.99.015"/><path fill="#62BB46" d="M57.052 66.165c-5.054.042-9.3-4.167-9.35-9.27-.053-5.068 4.107-9.262 9.26-9.337 5.103-.075 9.418 4.2 9.42 9.33 0 5.088-4.17 9.233-9.33 9.277m-.03-15.698c-3.498.017-6.36 2.873-6.38 6.364-.02 3.587 2.852 6.482 6.406 6.46 3.557-.024 6.393-2.914 6.382-6.503-.01-3.483-2.904-6.337-6.407-6.32M68.85 47.206c.004 1.22-.986 2.192-2.207 2.164-1.183-.027-2.1-.956-2.104-2.128-.006-1.21 1.003-2.21 2.2-2.184 1.147.026 2.105 1.002 2.11 2.148"/></svg><svg height="68.025" viewBox="23 23 69 69" width="68.031" x="357" y="157"><path fill="#FFF" d="M89.6 57c0-18.003-14.596-32.6-32.6-32.6-18.003 0-32.6 14.596-32.6 32.6S38.997 89.6 57 89.6 89.6 75.003 89.6 57"/><path fill="#62BB46" d="M48.923 70.07c-.686 0-1.29-.494-1.408-1.193l-.97-5.77c-.068-.403.04-.797.27-1.103L66.54 34.25c.22-.31.553-.52.928-.583.374-.063.757.025 1.067.245l6.736 4.797c.644.457.794 1.348.337 1.99L55.905 68.43c-.21.334-.555.58-.974.65l-5.768.97c-.08.015-.16.022-.24.022m.54-6.85l.635 3.772 3.77-.634 18.583-26.15-4.406-3.137-18.582 26.15zM76.142 76.254H40.398c-.79 0-1.43-.64-1.43-1.43 0-.79.64-1.43 1.43-1.43h35.744c.79 0 1.43.64 1.43 1.43 0 .79-.64 1.43-1.43 1.43"/></svg><svg height="68.025" viewBox="23 23 69 69" width="68.031" x="427" y="157"><path fill="#FFF" d="M89.6 57c0-18.003-14.596-32.6-32.6-32.6-18.003 0-32.6 14.596-32.6 32.6S38.997 89.6 57 89.6 89.6 75.003 89.6 57"/><path fill="#62BB46" d="M57.43 79.667c-13.48 0-24.45-10.97-24.45-24.45 0-.71.577-1.287 1.287-1.287s1.287.577 1.287 1.287c0 12.062 9.813 21.875 21.875 21.875s21.874-9.813 21.874-21.875c0-.71.577-1.287 1.287-1.287.712 0 1.288.577 1.288 1.287 0 13.48-10.968 24.45-24.45 24.45"/><path fill="#62BB46" d="M48.088 56.762c-3.968 0-7.197-3.23-7.197-7.197 0-3.968 3.23-7.196 7.198-7.196s7.196 3.228 7.196 7.196-3.228 7.196-7.196 7.196m0-11.82c-2.55 0-4.623 2.074-4.623 4.623s2.074 4.623 4.623 4.623 4.623-2.074 4.623-4.623c0-2.55-2.073-4.623-4.622-4.623M66.39 56.762c-3.97 0-7.197-3.23-7.197-7.197 0-3.968 3.23-7.196 7.196-7.196 3.968 0 7.195 3.228 7.195 7.196s-3.228 7.196-7.196 7.196m0-11.82c-2.55 0-4.624 2.074-4.624 4.623s2.074 4.623 4.623 4.623 4.622-2.074 4.622-4.623c0-2.55-2.074-4.623-4.623-4.623"/></svg></svg>