<svg xmlns="http://www.w3.org/2000/svg" height="139" viewBox="0 0 174 139" width="174"><svg height="108" viewBox="-251 343 108 108" width="108" x="2" y="2"><g id="XMLID_1_"><path id="XMLID_9_" d="M-143.1 397c0 29.8-24.2 54-54 54s-53.9-24.2-53.9-54 24.2-54 54-54 53.9 24.2 53.9 54z" fill="#62BA47"/><g id="XMLID_2_" fill="#FFF"><path id="XMLID_23_" d="M-210.5 389.3c-4.4.5-5.7 5.8-5.8 9.5v1.6c0 1.7-.1 3.1-.3 4.8-.1.7-.3 2.1-.5 2.1-1.6.2-2.9-2.3-3.3-3.4-1.1-2.8-1.9-5.6-2.4-8.5-.5-3.1-.9-6.4-1.1-9.6-.1-1.3-.1-2.6-.1-3.9 0-.5 0-1 .1-1.6 0-.4.1-.9.1-.9.4-2.3-2.9-.1-3.6.9-3.6 6.3-2.5 13.7-2.4 20.5 0 1.8-.1 3.7-.4 5.6-.2 1.3-.4 3.5-1.5 4.5-.7.7-1.9.1-2.4-.2-.9-.5-1.4-1.4-1.5-2.4-.2-1-1.3-.5-1.9.1-.8.8-1.6 2.2-1.4 3.2.4 2.4 2.6 4.6 5.1 3.8 4-1.2 5.7-6 6.7-9.7.5-1.8.7-3.6.8-5.5.6 2.7 1.4 5.3 2.6 7.7.9 1.8 2.5 3.6 4.8 3.2 1.7-.3 2.9-2.1 3.7-4.2.8 1.8 2 3.1 4 2.9 2.2-.2 4.1-2.6 4.9-4.4 1-2.2 1.3-4.6 1.2-6.8.2-3-.7-9.8-5.4-9.3zm1.5 15.6c-.1.4-.2.9-.4 1.3-.9-.1-1.5-1.4-1.8-2-.7-1.5-1-3.1-1.2-4.7-.2-1.7-.1-3.4.2-5.1.1-.4.2-.9.4-1.3 2.3 1.5 2.7 4.3 2.9 6.7.2 1.7.2 3.4-.1 5.1z"/><path id="XMLID_20_" d="M-156.8 395.7c-4.8-1.8-7.6 4.8-8.4 8.3-.8 3.4-1.8 9.4 2.3 11.1 2 .9 4.4-.7 5.6-2 1.5-1.6 2.4-3.8 3-6 1-3.4 1.9-9.8-2.5-11.4zm-2.9 15.5c-.2.4-.4.8-.7 1.1-.7-.5-1-2-1.1-2.7-.3-1.7-.1-3.4.2-5 .3-1.6.8-3.3 1.6-4.8.2-.4.4-.7.7-1.1 1.8 2.1 1.3 5.1.9 7.6-.4 1.7-.8 3.4-1.6 4.9z"/><path id="XMLID_15_" d="M-169.9 396.5c.9-1.2 1.8-2.5 2.6-3.7 1.8-2.7 3.5-5.9 3.4-9.1-.2-3.1-4.4-3.3-6.5-2.2-3.1 1.5-4.9 4.8-5.8 8-1.2 4.2-1.8 8.4-2 12.6v.1c-1.5 1.8-4.7 5.6-7.1 4-.6-.4-.9-1.2-1.2-2 2-2.1 3.7-4.2 5.3-6.7 1.4-2.2 2.4-5.9-.3-7.4-2.3-1.3-5.3.2-6.9 2.1-1.6 1.9-2.3 4.4-2.5 6.8-.1 1.3-.3 3.5 0 5.6-1.4.9-3.2 1.4-4.8 1.1-1.9-.4-2.5-2.3-2.9-3.8-.5-2.2-.4-4.6 0-6.8.1-.7.3-1.4.5-2.1.1-.2.1-.3.2-.5 1.1.5 1.6 2.2 1.9 3.1.5 1.6 4.6-1 4.2-2.5-.5-1.6-1.1-3.2-2.9-4-1.7-.8-4 .6-5 1.6-2.9 2.9-3.2 7.3-3 11.1.1 2.5.7 5.6 2.8 6.9 2.9 1.8 6.9.2 9.8-1.5.7 1.8 2.1 3.1 4.4 2.8 2.9-.4 5.5-2 7.6-4 .1 2.2.6 4.6 2.2 5.5 2.5 1.5 5.7-.2 7.4-2.3 2.2-2.8 3.4-6.7 2.2-10.1-.8-1.9-2.2-2.5-3.6-2.6zm-16.3-1.8c.2-.6.4-1.2.8-1.8 1.2.3 1.4 1.8 1.2 2.7-.2 1.8-1.4 3.6-2.8 5.2v-.9c0-1.7.3-3.5.8-5.2zm15.6-8.9c.3-.6.7-1.3 1.2-1.8l.1-.1c1.9 2.1.1 5-.9 7-1 1.9-2.2 3.9-3.5 5.7.3-1.9.6-3.7 1.1-5.5.5-1.8 1.1-3.6 2-5.3zm-1 22.1c-.1.2-.3.6-.5.8-.1 0-.3 0-.4-.1-1.2-.6-1.3-3.2-1.4-4.2-.1-.9-.1-1.8-.1-2.8.5-.6 1-1.1 1.5-1.7 1.1-.7 1.8.7 2.1 1.8.4 2-.4 4.5-1.2 6.2z"/></g></g></svg><svg height="77.1" viewBox="-457 411 24 78" width="23.4" x="112" y="2"><path id="XMLID_442_" d="M-439.2 488.1h-12.2c-2.9 0-5.3-2.4-5.3-5.3s2.4-5.3 5.3-5.3h12.2c2.9 0 5.3 2.4 5.3 5.3s-2.4 5.3-5.3 5.3z" fill="#EDEDED"/><path id="XMLID_439_" d="M-445.3 482.1c-5.6 0-10.2-4.6-10.2-10.2s4.6-10.2 10.2-10.2 10.2 4.6 10.2 10.2-4.6 10.2-10.2 10.2zm0-15.9c-3.1 0-5.7 2.5-5.7 5.7 0 3.1 2.5 5.7 5.7 5.7s5.7-2.5 5.7-5.7-2.6-5.7-5.7-5.7z" fill="#EDEDED"/><path id="XMLID_730_" d="M-445.7 465.9c-.4 0-.7-2.1-.9-2.4-.7-1.3-15.9-33.4-8.2-46.4 2.1-3.6 5.7-5.9 10.7-6.1 3.9-.1 6.7.9 8.5 3.6 7.6 11.5-8.6 47.6-9.2 49.1-.2.2-.5 2.2-.9 2.2zm2.2-53.5h-.5c-4.4.2-7.3 1.7-9.1 4.7-6.2 10.5 4.2 34.8 7.4 41.7 3.3-7.4 14.6-34.3 8.5-43.5-1.3-1.9-3.4-2.9-6.3-2.9z" fill="#EDEDED"/></svg><svg height="34" viewBox="-288 380 34 34" width="34" x="138" y="2"><path d="M-254 397c0 9.4-7.6 17-17 17s-17-7.6-17-17 7.6-17 17-17 17 7.6 17 17z" fill="#1BADC3"/><path d="M-267 397.2l-5.5 5.8-1.2-1.2 4.4-4.6-4.7-4.9 1.2-1.2 5.5 5.8.3.3z" fill="#FFF"/></svg><svg height="34" viewBox="-288 380 34 34" width="34" x="138" y="38"><circle cx="-271" cy="397" r="17" fill="#1BADC3"/><path d="M-268 401.8l-1.2 1.2-5.5-5.8-.3-.3 5.5-5.8 1.2 1.2-4.4 4.6 4.7 4.9z" fill="#FFF"/></svg><svg height="25" viewBox="-293 384 25 25" width="25" x="138" y="74"><circle cx="-280.5" cy="396.5" r="12.5" fill="#EC5193"/><path d="M-276.5 392.3h-7.9c-.2 0-.4.2-.4.4v8c0 .2.2.4.4.4h7.9c.2 0 .4-.2.4-.4v-8c-.1-.2-.2-.4-.4-.4zm-4 2.9c.8 0 1.5.7 1.5 1.5 0 .9-.7 1.5-1.5 1.5s-1.5-.7-1.5-1.5.7-1.5 1.5-1.5zm3.3 4.9h-6.5v-3.9h.7c0 .2-.1.4-.1.5 0 1.5 1.2 2.6 2.6 2.6 1.4 0 2.6-1.2 2.6-2.6 0-.2 0-.4-.1-.5h.7v3.9zm0-5h-1.6v-1.7h1.6v1.7z" fill="#FFF"/></svg><svg height="25" viewBox="-293 384 25 25" width="25" x="2" y="112"><circle cx="-280.5" cy="396.5" r="12.5" fill="#377EB0"/><path d="M-282.1 394v1.1h-1.7v1.8h1.7v5.4h1.9v-5.4h2v-1.8h-2v-1.3c0-.4.2-.6.4-.6h1.6v-1.9h-1.6c-1.4 0-2.3 1.2-2.3 2.7z" fill="#FFF"/></svg><svg height="25" viewBox="-293 384 25 25" width="25" x="29" y="112"><circle cx="-280.5" cy="396.5" r="12.5" fill="#2E87A8"/><path d="M-275.1 398.5c-.3-.4-.7-.7-1.1-1.1-.3-.3-.4-.5-.1-.9l.9-1.2c.3-.4.6-.8.7-1.2.1-.3 0-.4-.3-.5h-2c-.2 0-.3.1-.4.3-.1.3-.2.5-.3.8-.3.6-.6 1.1-1 1.6-.1.1-.2.2-.4.2-.2-.1-.3-.4-.3-.5v-2c0-.3-.1-.4-.4-.5h-1.8c-.2 0-.4.1-.5.2-.1.1-.1.1.1.2.3.1.5.3.5.6.1.5.1 1 0 1.5 0 .1 0 .3-.1.4-.1.2-.2.2-.4.1s-.3-.3-.4-.4c-.4-.6-.8-1.3-1.1-2-.1-.2-.2-.3-.4-.3h-1.6c-.3 0-.4.2-.3.4.6 1.3 1.2 2.5 2.1 3.6.4.6.9 1.1 1.6 1.4.7.4 1.5.5 2.3.5.4 0 .5-.1.5-.5 0-.3 0-.5.2-.7.1-.2.3-.3.5-.1l.3.3c.2.2.4.5.7.7.3.3.6.5 1 .4h1.6c.3 0 .4-.3.2-.6 0-.4-.1-.6-.3-.7z" fill="#FFF"/></svg><svg height="25" viewBox="-293 384 25 25" width="25" x="56" y="112"><circle cx="-280.5" cy="396.5" r="12.5" fill="#D73333"/><path d="M-276.2 402.1h-7.7c-1 0-1.9-.8-1.9-1.8v-4.1c0-1 .8-1.8 1.9-1.8h7.7c1 0 1.9.8 1.9 1.8v4.1c0 1-.9 1.8-1.9 1.8zm-6.3-6.2h-2.5v.6h.8v4.3h.8v-4.3h1v-.6zm2 1.2h-.8v2.9c-.1.2-.4.4-.5 0v-2.9h-.8v3c0 .2 0 .4.2.6.4.3 1 0 1.2-.4v.5h.6v-3.7zm2.5.8c0-.7-.5-1.2-1.3-.6v-1.4h-.8v4.9h.7l.1-.3c.8.8 1.4.2 1.4-.7l-.1-1.9zm1.6 2.4h-.1c-.2 0-.3-.1-.3-.3v-.9h1.4v-.5-1c-.1-.7-1.1-.8-1.5-.4-.2.1-.3.3-.3.5-.1.2-.1.5-.1.8v1.1c0 1.9 2.3 1.6 2 0h-.6v.4c-.2.1-.4.3-.5.3zm-.1-2.7c.2 0 .4.2.4.4v.4h-.8v-.4c0-.2.2-.4.4-.4zm-2.4 2.6c-.2 0-.3-.1-.3-.3v-2.1c0-.2.2-.3.3-.3.2 0 .3.1.3.3v2.1c0 .2-.1.3-.3.3zm1.4-6.9c-.1.1-.1.2-.2.3-.1.1-.2.1-.3.1-.1 0-.2 0-.3-.1-.1-.1-.2-.1-.2-.2s-.1-.2-.1-.3v-3.3h.7v2.9c0 .2.1.3.3.3s.3-.1.3-.3v-2.9h.7v3.8h-.9v-.3zm-1.9 0l-.3.3c-.1.1-.3.1-.5.1s-.4 0-.5-.1c-.1-.1-.2-.1-.3-.3-.1-.1-.1-.3-.2-.4v-1.7c0-.4 0-.6.1-.9.1-.2.2-.4.3-.5.2-.1.4-.2.6-.2.2 0 .4 0 .5.1.1.1.3.2.3.3.1.1.1.3.2.4V392.8c0 .2-.1.4-.2.5zm-.5-2.6c0-.2-.2-.4-.4-.4s-.4.2-.4.4v2c0 .2.2.4.4.4s.4-.2.4-.4v-2zm-2.3 3h-.8v-2.9l-1.1-2.5h.9l.5 1.9.5-1.8h.9l-1 2.5.1 2.8z" fill="#FFF"/></svg><svg height="22" viewBox="-295 386 20 22" width="20" x="112" y="82"><path d="M-275.1 391.4c-.1.1-.2.1-.3.1h-1.4v13.6c0 .8-.2 1.5-.7 2.1-.4.6-1 .9-1.6.9h-11.8c-.6 0-1.2-.3-1.6-.8-.4-.6-.7-1.2-.7-2v-13.6h-1.4c-.1 0-.2 0-.3-.1-.1-.1-.1-.2-.1-.3v-.9c0-.1 0-.2.1-.3.1-.1.2-.1.3-.1h4.4l1-2.4c.1-.4.4-.7.8-.9.4-.2.7-.4 1.1-.4h4.5c.4 0 .8.1 1.1.4.4.2.6.5.8.9l1 2.4h4.4c.1 0 .2 0 .3.1.1.1.1.2.1.3v.9c.1-.1.1 0 0 .1zm-7.4-3.4l-.2-.2h-4.5c-.1 0-.2.1-.2.2l-.7 1.7h6.4l-.8-1.7zm3.9 17.1v-13.6h-12.7v13.6c0 .2 0 .4.1.6.1.2.1.3.2.4l.1.1h11.8s.1 0 .1-.1c.1-.1.1-.2.2-.4s.2-.4.2-.6zm-2.3-1.7h-.9c-.1 0-.2 0-.3-.1-.1-.1-.1-.2-.1-.3v-8.2c0-.1 0-.2.1-.3.1-.1.2-.1.3-.1h.9c.1 0 .2 0 .3.1s.1.2.1.3v8.2c0 .1 0 .2-.1.3s-.2.1-.3.1zm-3.6 0h-.9c-.1 0-.2 0-.3-.1-.1-.1-.1-.2-.1-.3v-8.2c0-.1 0-.2.1-.3.1-.1.2-.1.3-.1h.9c.1 0 .2 0 .3.1.1.1.1.2.1.3v8.2c0 .1 0 .2-.1.3-.1.1-.2.1-.3.1zm-3.7 0h-.9c-.1 0-.2 0-.3-.1-.1-.1-.1-.2-.1-.3v-8.2c0-.1 0-.2.1-.3.1-.1.2-.1.3-.1h.9c.1 0 .2 0 .3.1.1.1.1.2.1.3v8.2c0 .1 0 .2-.1.3 0 .1-.1.1-.3.1z" fill="#FFF"/></svg><svg height="19" viewBox="-501 491 21 19" width="21" x="83" y="112"><style>.st0{fill:#61B946;}</style><path class="st0" d="M-489.3 491.2c-.4-.2-.9-.2-1.2 0h-.1l-5.5 4.8h-4.3c-.2 0-.4.1-.4.4v7.8c0 .1 0 .2.1.3s.2.1.3.1h4.3l5.5 5.1h.1c.1.2.3.3.6.3.2 0 .4-.1.6-.2.4-.2.6-.7.6-1.1v-16.4c0-.5-.2-.9-.6-1.1zm-.2 17.5c0 .2-.1.3-.2.4-.1 0-.2.1-.4 0l-5.5-5.1v-1.9c0-.2-.2-.4-.4-.4s-.4.2-.4.4v1.7h-3.6v-7h3.6v1.7c0 .2.2.4.4.4s.4-.2.4-.4v-1.9l5.4-4.7c.2-.1.3 0 .4 0 .1.1.2.2.2.4v16.4h.1zM-480.6 504.2c-.1 0-.3 0-.4-.1l-6.3-6.3c-.2-.2-.2-.5 0-.7.2-.2.5-.2.7 0l6.3 6.3c.2.2.2.5 0 .7 0 0-.1.1-.3.1z"/><path class="st0" d="M-486.9 504.2c-.1 0-.3 0-.4-.1-.2-.2-.2-.5 0-.7l6.3-6.3c.2-.2.5-.2.7 0 .2.2.2.5 0 .7l-6.2 6.2c-.1.1-.3.2-.4.2z"/></svg><svg height="19" viewBox="0 0 21 19" width="21" x="106" y="112"><defs><style>.cls-1 { fill: #61b946; fill-rule: evenodd; }</style></defs><path d="M15.67 16.913c-.042.015-.086.022-.13.022-.168 0-.324-.108-.382-.28-.072-.216.04-.45.252-.524 2.86-.998 4.783-3.747 4.783-6.838 0-3.095-1.926-5.843-4.792-6.84-.21-.073-.323-.308-.252-.523.072-.217.3-.333.512-.26C18.854 2.78 21 5.843 21 9.292c0 3.446-2.142 6.508-5.33 7.62zm1.697-7.622c0 2.468-1.618 4.67-3.935 5.356-.037.01-.075.016-.112.016-.175 0-.336-.117-.388-.298-.06-.22.062-.45.276-.512 1.974-.584 3.352-2.46 3.352-4.56 0-2.102-1.378-3.978-3.352-4.562-.214-.063-.337-.292-.276-.51.063-.22.285-.346.5-.284 2.317.686 3.935 2.888 3.935 5.355zm-5.902 9.544c-.192.11-.4.166-.61.166-.22 0-.44-.06-.637-.184-.023-.014-.045-.03-.065-.05l-5.467-5.14-4.283.003c-.107 0-.21-.045-.285-.122C.042 13.43 0 13.326 0 13.216v-7.85c0-.228.18-.413.403-.413h4.293l5.47-4.735c.015-.015.033-.028.052-.04.387-.238.853-.245 1.247-.017.403.234.644.66.644 1.14v16.396c0 .48-.242.905-.645 1.138zM11.302 1.3c0-.178-.088-.335-.234-.42-.063-.036-.224-.107-.41-.007l-5.41 4.685v1.874c0 .23-.18.413-.404.413-.224 0-.404-.184-.404-.413V5.78H.807v7.023L4.44 12.8v-1.65c0-.228.18-.413.404-.413.223 0 .403.185.403.413v1.883l5.418 5.093c.182.095.34.025.403-.01.146-.085.234-.242.234-.42V1.3z" class="cls-1"/></svg></svg>