<?xml version="1.0" encoding="utf-8"?>
<!-- Generator: Adobe Illustrator 19.0.0, SVG Export Plug-In . SVG Version: 6.00 Build 0)  -->
<svg version="1.1" id="Layer_1" xmlns="http://www.w3.org/2000/svg" xmlns:xlink="http://www.w3.org/1999/xlink" x="0px" y="0px"
	 viewBox="-486 476 50 50" style="enable-background:new -486 476 50 50;" xml:space="preserve">
<style type="text/css">
	.st0{fill:#92CCDB;}
	.st1{fill:#454C53;}
	.st2{fill:#DF3300;}
	.st3{fill:#FFD5BB;}
	.st4{fill:#FF7543;}
</style>
<circle class="st0" cx="-461" cy="501" r="25"/>
<rect x="-454.6" y="486.6" transform="matrix(1 2.815937e-03 -2.815937e-03 1 1.3883 1.2775)" class="st1" width="3.2" height="14.1"/>
<polygon class="st2" points="-448.9,503.1 -460.7,485.3 -472.6,502.9 -472.8,521.2 -449,521.2 "/>
<path class="st1" d="M-472.7,521.2l0,1.9c3.5,1.8,7.5,2.9,11.7,2.9c4.4,0,8.5-1.1,12.1-3.1l0-1.6L-472.7,521.2z"/>
<path class="st3" d="M-464.4,510c0-0.8-0.8-1.4-1.7-1.4s-1.7,0.6-1.7,1.4v6.6h3.2L-464.4,510z"/>
<path class="st3" d="M-453.9,510c0-0.8-0.8-1.4-1.7-1.4s-1.7,0.6-1.7,1.4v6.6h3.2L-453.9,510z"/>
<path class="st1" d="M-452,510.2c0-1.8-1.8-3.2-3.6-3.2c-1.8,0-3.6,1.4-3.6,3.2v7.2h-3.2v-7.2c0-1.8-1.4-3.2-3.2-3.2
	c-1.8,0-3.2,1.4-3.2,3.2v7.2h-3.9v1.9l23.8,0.1v-1.9h-3.2V510.2z M-457.3,510c0-0.8,0.8-1.4,1.7-1.4s1.7,0.6,1.7,1.4v6.6h-3.2
	L-457.3,510z M-467.6,510c0-0.8,0.8-1.4,1.7-1.4s1.7,0.6,1.7,1.4v6.6h-3.2L-467.6,510z"/>
<path class="st1" d="M-457.3,503.2v-7.8c0-1.8-1.8-3.2-3.6-3.2s-3.6,1.4-3.6,3.2v7.8h-8.4v1.9l23.8,0.1v-1.9L-457.3,503.2z
	 M-462.3,495.5c0-0.8,0.8-1.4,1.7-1.4s1.7,0.6,1.7,1.4v7.1h-3.2L-462.3,495.5z"/>
<path class="st3" d="M-459.2,495.5c0-0.8-0.8-1.4-1.7-1.4s-1.7,0.6-1.7,1.4v7.1h3.2L-459.2,495.5z"/>
<path class="st4" d="M-448.1,501.5l-11.8-18.2c-0.2-0.4-0.6-0.5-0.9-0.5s-0.8,0.1-0.9,0.5l-12,18.1c-0.4,0.5-0.2,1.2,0.4,1.4
	c0.5,0.4,1.2,0.2,1.4-0.4l11.1-16.8l11,16.9c0.4,0.5,0.9,0.6,1.4,0.4C-448,502.7-447.8,502.1-448.1,501.5z"/>
</svg>
