<?xml version="1.0" encoding="utf-8"?>
<!-- Generator: Adobe Illustrator 19.0.0, SVG Export Plug-In . SVG Version: 6.00 Build 0)  -->
<svg version="1.1" id="Layer_1" xmlns="http://www.w3.org/2000/svg" xmlns:xlink="http://www.w3.org/1999/xlink" x="0px" y="0px"
	 viewBox="170 -170 380 380" style="enable-background:new 170 -170 380 380;" xml:space="preserve">
<rect x="170" y="-170" style="fill:#0D5C74;" width="379.8" height="380"/>
<path style="opacity:0.32;fill:#FFFFFF;" d="M253.5,64.6c-0.9-1.2-2.3-1.8-3.7-1.5c-0.5,0.1-1,0.3-1.4,0.6c-1.7-3.4-5.3-5.4-8.8-4.7
	c-1.3,0.3-2.4,0.9-3.4,1.7c-4.1-6.8-12.1-10.6-20.3-8.9c-5.6,1.2-10.2,4.8-12.8,9.4c-1.5-0.2-3.1-0.2-4.7,0.1
	c-4.7,1-8.2,4.3-9.8,8.5c-0.7-0.1-1.4-0.1-2.1,0.1c-3.5,0.7-5.7,4.2-5,7.8c0.1,0.6,0.3,1.2,0.6,1.7L253.5,64.6z"/>
<path style="opacity:0.32;fill:#FFFFFF;" d="M380.9-105.1c0.6-1.2,1.6-2,2.7-1.9c0.4,0,0.8,0.2,1.1,0.4c1-3.4,3.5-5.7,6.3-5.6
	c1,0.1,1.9,0.5,2.7,1.1c2.4-6.8,8.2-11.5,14.6-11c4.4,0.3,8.2,2.9,10.6,6.9c1.1-0.4,2.4-0.6,3.6-0.5c3.6,0.2,6.7,2.8,8.3,6.4
	c0.5-0.2,1.1-0.3,1.6-0.2c2.7,0.2,4.8,3.1,4.5,6.5c0,0.6-0.1,1.1-0.3,1.6L380.9-105.1z"/>
<path style="opacity:0.22;fill:#FFFFFF;" d="M483.3,45.2c0-0.2,0-0.4,0.1-0.6c0.4-2,2.3-3.3,4.1-2.9c0.6,0.1,1.1,0.4,1.6,0.8
	c1.4-2.3,3.8-3.6,6.2-3.1c0.5,0.1,1,0.3,1.4,0.5c3-4.9,8.5-7.6,13.9-6.4c5.9,1.3,9.9,6.7,10.2,13c0.4,0,0.8,0,1.2,0.1
	c2.9,0.6,4.6,3.8,3.9,7.2c0,0.2-0.1,0.4-0.2,0.6L483.3,45.2z"/>
<g>
	<path style="fill:#726658;" d="M330.1,136.2c0,0-1,6.8-2.7,11.1l1,10.4l-5.3,0.6l-1-10.2c0,0-2.3-4-5.2-10.4l4.1-0.4
		c0,0,1,7.4,4,8.3c0,0,2.4-3.1,1.3-8L330.1,136.2z"/>
	<g style="opacity:0.1;">
		<path d="M326.1,137.5l3.9-1.2c0,0-0.3,1.3-0.5,2.8c-1.2,0.6-1.7,0.9-3.1,1.2C326.4,139.4,326.4,138.5,326.1,137.5z"/>
		<path d="M320.9,137.2c0,0,0.2,1.7,0.8,3.6c-1.6,0-2.1,0.1-3.5-0.2c-0.4-0.8-1.1-2-1.4-2.9L320.9,137.2z"/>
	</g>
	<g style="opacity:0.2;">
		<path d="M326.6,137.4c1.1,4.9-1.3,8-1.3,8c-0.2,0.1-0.4,0.1-0.5,0.1c0.6-0.8,2.2-3.8,1.3-8l3.9-1.2c0,0,0,0,0,0.1L326.6,137.4z"/>
		<path d="M316.8,137.7l0.5-0.1c3,6.4,5.2,10.4,5.2,10.4l1,10.2l-0.5,0.1l-1-10.2C322,148.1,319.7,144.1,316.8,137.7z"/>
	</g>
	<g>
		<path style="fill:#FFFFFF;" d="M302.4,119.1c1.3,12.4,7.5,21.8,21.1,20.4c12.1-1.3,17.7-12,16.3-24.4
			c-1.3-12.4-11.3-26.4-21.7-25.3C305.5,91.2,301.1,106.7,302.4,119.1z"/>
		<path style="opacity:0.1;" d="M310.9,92.7c-5,5.9-6.6,15.6-5.8,23.8c1.3,12.4,7.5,21.8,21.1,20.4c3.6-0.4,6.6-1.6,9-3.4
			c-2.8,3.3-6.7,5.5-11.8,6.1c-13.6,1.5-19.8-8-21.1-20.4C301.3,109.5,303.8,98,310.9,92.7z"/>
	</g>
</g>
<g>
	<g>
		
			<rect x="527.4" y="131.9" transform="matrix(0.9865 0.164 -0.164 0.9865 29.2865 -84.7937)" style="fill:#594A42;" width="1.8" height="6.3"/>
		
			<rect x="525.7" y="134.8" transform="matrix(0.164 -0.9865 0.9865 0.164 308.8763 634.671)" style="opacity:0.2;" width="6.3" height="0.6"/>
	</g>
	<path style="opacity:0.2;" d="M527.8,132.9l-0.2,1c0,0,0.7,0.6,1.7,0.3l0.2-1.1L527.8,132.9z"/>
	<g>
		<path style="fill:#FFFFFF;" d="M537,122.7l3,0.5c-2-2-3.3-5.2-4.1-8.7l2.9,0.5c-1.9-1.9-2.9-5.3-3.5-8.7l2.3,0.4
			c-2.8-3-2.6-11.8-2.6-11.8s-2.2,8.3-6.3,10.3l2.5,0.4c-1.6,2.9-3.7,5.8-6.3,7l3.3,0.5c-1.9,2.9-4.3,5.5-7.1,6.8l3.5,0.6
			c-2.6,3.7-5.7,6.8-9.2,8.5c0,0,5.7,3.2,13.3,4.4c8.4,1.4,14,0.1,14,0.1C540,131,538.3,127,537,122.7z"/>
		<path style="opacity:7.000000e-02;" d="M537,122.7l3,0.5c-2-2-3.3-5.2-4.1-8.7l2.9,0.5c-1.9-1.9-2.9-5.3-3.5-8.7l2.3,0.4
			c-2.8-3-2.6-11.8-2.6-11.8c-0.9,41.4-10.7,35.2-16.7,32.4c-0.9,0.7-1.9,1.3-2.9,1.8c0,0,5.7,3.2,13.3,4.4c8.4,1.4,14,0.1,14,0.1
			C540,131,538.3,127,537,122.7z"/>
	</g>
</g>
<g>
	<g>
		
			<rect x="368.3" y="131.5" transform="matrix(-0.9858 0.168 -0.168 -0.9858 758.0103 210.4896)" style="fill:#594A42;" width="3.5" height="11.7"/>
		
			<rect x="363.1" y="136.9" transform="matrix(-0.168 -0.9858 0.9858 -0.168 295.384 524.3112)" style="opacity:0.2;" width="11.7" height="1.2"/>
	</g>
	<path style="opacity:0.2;" d="M371.2,133.3l0.3,1.8c0,0-1.5,1.1-3.5,0.7l-0.3-2L371.2,133.3z"/>
	<g>
		<path style="fill:#FFFFFF;" d="M352.8,114.6l-6,1c4-3.8,6.6-9.9,8.4-16.3l-5.9,1c3.7-3.6,5.9-10,7.1-16.3l-4.5,0.8
			c5.7-5.8,5.4-22.1,5.4-22.1s4.3,15.4,12.4,19l-5,0.9c3.1,5.4,7.3,10.7,12.5,12.9l-6.5,1.1c3.8,5.4,8.4,10.2,14,12.5l-6.9,1.2
			c5.1,6.7,11.2,12.5,18.3,15.5c0,0-11.5,6.1-26.5,8.6c-16.8,2.9-27.9,0.6-27.9,0.6C346.7,130.2,350.3,122.7,352.8,114.6z"/>
		<path style="opacity:7.000000e-02;" d="M352.8,114.6l-6,1c4-3.8,6.6-9.9,8.4-16.3l-5.9,1c3.7-3.6,5.9-10,7.1-16.3l-4.5,0.8
			c5.7-5.8,5.4-22.1,5.4-22.1c1.1,77.1,20.9,65.2,32.9,60c1.9,1.3,3.8,2.4,5.8,3.2c0,0-11.5,6.1-26.5,8.6
			c-16.8,2.9-27.9,0.6-27.9,0.6C346.7,130.2,350.3,122.7,352.8,114.6z"/>
	</g>
</g>
<g>
	<g>
		
			<rect x="227.9" y="172" transform="matrix(-0.9994 3.455671e-02 -3.455671e-02 -0.9994 463.8976 351.0072)" style="fill:#726351;" width="2.1" height="15.1"/>
		
			<rect x="220.6" y="179.2" transform="matrix(-3.453080e-02 -0.9994 0.9994 -3.453080e-02 56.6359 413.7882)" style="opacity:0.15;" width="15.1" height="0.7"/>
	</g>
	<path style="opacity:0.2;" d="M229.8,175.1l0,0.6c0,0-0.4,0.4-2.1,0.2l0-0.7L229.8,175.1z"/>
	<g>
		<path style="fill:#B3FFF7;" d="M223.9,150.1c-1.9-0.1-3.8-0.2-5.8-0.5c7-4.6,9.2-19.6,9.2-19.6v0l0,0c0,0,0,0,0,0
			c0.1,0.4,2.4,14.6,10.5,18.9c0,0-2.5,0.6-6.3,1c2.6,8.5,6.5,17.5,12.2,21.9c0,0-5.4,3.2-14.8,3.5c-9.6,0.3-15-2.5-15-2.5
			C218.6,168.3,221.8,158.9,223.9,150.1z"/>
		<path style="opacity:4.000000e-02;" d="M223.9,150.1c-1.9-0.1-3.8-0.2-5.8-0.5c7-4.6,9.2-19.6,9.2-19.6v0l0,0c0,0,0,0,0,0
			c0,0,0,0.2,0.1,0.3c-0.9,10.2-8.3,45.7,14.9,40.2c0.5,0.5,1,0.9,1.5,1.3c0,0-5.4,3.2-14.8,3.5c-9.6,0.3-15-2.5-15-2.5
			C218.6,168.3,221.8,158.9,223.9,150.1z"/>
	</g>
</g>
<g>
	<g>
		<path style="fill:#BDBDBD;" d="M492.5,136.5l1.8,0.1c0,0,0-2.3,0-2.8c0-0.5,0-2.1,0-2.1l-1.3,0c0,0,0,1.5-0.1,2.1
			C492.8,134.5,492.5,136.5,492.5,136.5z"/>
		<path style="opacity:0.2;" d="M492.9,133.7c0-0.5,0.1-2.1,0.1-2.1l0.4,0c0,0,0,1.5-0.1,2.1c-0.1,0.8-0.4,2.8-0.4,2.8l1.3,0.1
			c0,0,0,0,0,0l-1.8-0.1C492.5,136.5,492.8,134.5,492.9,133.7z"/>
	</g>
	<path style="opacity:0.1;" d="M494.3,132l0,0.3c0,0-0.7,0.6-1.4,0.1l0-0.4L494.3,132z"/>
	<g>
		<path style="fill:#FFFFFF;" d="M491,129c0,1.6,1,3.2,2.5,3.2c1.4,0,3-1.6,3.1-3.2c0-1.6-1-3-2.5-3.1
			C492.6,125.9,491,127.4,491,129z"/>
		<path style="opacity:0.1;" d="M492,126.8c-0.4,0.5-0.6,1.1-0.6,1.7c0,1.6,1,3.2,2.5,3.2c0.7,0,1.4-0.3,1.9-0.9
			c-0.6,0.8-1.5,1.4-2.4,1.4c-1.4,0-2.5-1.6-2.5-3.2C491,128.1,491.4,127.3,492,126.8z"/>
	</g>
</g>
<g>
	<g>
		
			<rect x="203.2" y="183.3" transform="matrix(-0.9996 -2.772547e-02 2.772547e-02 -0.9996 402.417 376.6867)" style="fill:#BDBDBD;" width="1.2" height="4.6"/>
		
			<rect x="201.2" y="185.3" transform="matrix(2.908617e-02 -0.9996 0.9996 2.908617e-02 12.0476 383.4886)" style="opacity:0.2;" width="4.6" height="0.4"/>
	</g>
	<path style="opacity:0.2;" d="M204.5,184.1l0,0.7c0,0-0.6,0.3-1.2,0l0-0.8L204.5,184.1z"/>
	<g>
		<path style="fill:#FFFFFF;" d="M199.7,175.6l-2-0.1c1.6-1.2,2.8-3.3,3.8-5.6l-2-0.1c1.5-1.1,2.6-3.4,3.4-5.7l-1.5,0
			c2.2-1.8,3.2-8,3.2-8s0.4,6.2,2.8,8.2l-1.7,0c0.7,2.3,1.7,4.6,3.2,5.9l-2.2-0.1c0.9,2.3,2.1,4.5,3.7,5.8l-2.3-0.1
			c1.2,3,2.8,5.6,4.9,7.3c0,0-4.2,1.5-9.3,1.3c-5.7-0.2-9.2-1.8-9.2-1.8C196.6,181.1,198.3,178.5,199.7,175.6z"/>
		<path style="opacity:0.1;" d="M199.7,175.6l-2-0.1c1.6-1.2,2.8-3.3,3.8-5.6l-2-0.1c1.5-1.1,2.6-3.4,3.4-5.7l-1.5,0
			c2.2-1.8,3.2-8,3.2-8c-4.8,29.5,2.5,26.5,6.7,25.4c0.5,0.6,1.1,1.2,1.7,1.7c0,0-4.2,1.5-9.3,1.3c-5.7-0.2-9.2-1.8-9.2-1.8
			C196.6,181.1,198.3,178.5,199.7,175.6z"/>
	</g>
</g>
<g>
	<g>
		
			<rect x="186.5" y="187.3" transform="matrix(-0.9996 -2.772398e-02 2.772398e-02 -0.9996 368.6277 384.2039)" style="fill:#BDBDBD;" width="1" height="4.6"/>
		
			<rect x="184.4" y="189.4" transform="matrix(2.911035e-02 -0.9996 0.9996 2.911035e-02 -8.2435 370.5876)" style="opacity:0.2;" width="4.6" height="0.3"/>
	</g>
	<path style="opacity:0.2;" d="M187.5,188.1l0,0.7c0,0-0.5,0.3-1,0l0-0.8L187.5,188.1z"/>
	<g>
		<path style="fill:#FFFFFF;" d="M183.5,179.6l-1.7,0c1.3-1.2,2.4-3.3,3.3-5.6l-1.7,0c1.2-1.1,2.2-3.4,2.9-5.7l-1.3,0
			c1.9-1.8,2.8-8,2.8-8s0.3,6.2,2.3,8.2l-1.4,0c0.5,2.3,1.4,4.6,2.7,5.9l-1.9-0.1c0.7,2.3,1.7,4.5,3.1,5.8l-2-0.1
			c1,2.9,2.4,5.6,4.1,7.3c0,0-3.5,1.5-7.8,1.4c-4.8-0.1-7.7-1.8-7.7-1.8C180.9,185.1,182.4,182.5,183.5,179.6z"/>
		<path style="opacity:0.1;" d="M183.5,179.6l-1.7,0c1.3-1.2,2.4-3.3,3.3-5.6l-1.7,0c1.2-1.1,2.2-3.4,2.9-5.7l-1.3,0
			c1.9-1.8,2.8-8,2.8-8c-4.2,29.6,2,26.5,5.6,25.3c0.4,0.6,0.9,1.2,1.4,1.7c0,0-3.5,1.5-7.8,1.4c-4.8-0.1-7.7-1.8-7.7-1.8
			C180.9,185.1,182.4,182.5,183.5,179.6z"/>
	</g>
</g>
<g>
	<path style="fill:#EBEBEB;" d="M249.6,177.3c-0.9-1-1.5-2.2-1.9-3.5c-1.4-4.7,0.9-9.5,5.2-10.8c0.8-0.2,1.5-0.3,2.3-0.3
		c0.4-7.4,4.7-13.7,11.2-15.7c4.7-1.4,9.6-0.2,13.7,2.7c1-1,2.3-1.7,3.7-2.1c3.6-1.1,7.3,0.1,10.1,2.8c1-1.2,2.2-2.2,3.8-2.6
		c4.4-1.3,9.3,1.8,10.8,6.9c0.5,1.7,0.6,3.5,0.3,5.1L249.6,177.3z"/>
	<path style="opacity:0.1;" d="M252.9,162.9c0.8-0.2,1.5-0.3,2.3-0.3c0.4-7.4,4.7-13.7,11.2-15.7c0.7-0.2,1.3-0.3,2-0.4
		c-4.7,6.3-8.3,15.6-1,25.5l-17.8,5.3c-0.9-1-1.5-2.2-1.9-3.5C246.3,169,248.6,164.2,252.9,162.9z"/>
</g>
<g>
	<path style="fill:#968A7D;" d="M409.6,118.1l0.5-1.7c2.7,0.3,5,1.9,6.1,2.8l0.6-15.9h4.5l1.3,35.8h-7.1l0.6-16.6
		C414.2,119.6,409.6,118.1,409.6,118.1z"/>
	<g style="opacity:0.2;">
		<path style="opacity:0.4;" d="M409.6,118.1l0.5-1.7c0.2,0,0.3,0.1,0.5,0.1l-0.3,1.2c0,0,4.6,1.4,6.5,4.3l-0.6,16.6h6.5l0,0.5h-7.1
			l0.6-16.6C414.2,119.6,409.6,118.1,409.6,118.1z"/>
		<path style="opacity:0.4;" d="M416.9,119.6c-0.2-0.1-0.4-0.3-0.6-0.4l0.6-15.9h0.6L416.9,119.6z"/>
	</g>
	<path style="opacity:0.1;" d="M421.5,106l0,1.7c0,0-2.1,0.9-4.8,0.3l0.1-2L421.5,106z"/>
	<g>
		<path style="fill:#FFFFFF;" d="M392.5,72.4c1.6,19.1,11.1,34.6,24.8,34.6S445,91.6,445,72.5c0-21.7-10.7-34.5-24.4-34.5
			S390.8,52,392.5,72.4z"/>
		<path style="opacity:0.1;" d="M403.8,44.7c-4,5.7-6.4,13.1-5.7,21.6c1.6,19.1,11.1,34.6,24.8,34.6c5.2,0,10.5-2.2,15-6
			c-5.3,7.5-13,12.2-20.6,12.2c-13.7,0-23.3-15.6-24.8-34.6C391.5,60.4,396.7,50.7,403.8,44.7z"/>
	</g>
	<path style="opacity:0.1;" d="M412.6,117c0,0,0.5,0.2,0.7,0.3c0.2,0.1,0,1.9-1.1,1.9l-0.6-0.3L412.6,117z"/>
	<g>
		<path style="fill:#FFFFFF;" d="M401.9,116.8c0,2.6,2.3,4.7,5.1,4.7c2.8,0,5.8-2.5,5.8-5.1c0-2.6-3-5.1-5.8-5.1
			C404.2,111.3,401.9,114.2,401.9,116.8z"/>
		<path style="opacity:0.1;" d="M405.3,111.6c-0.7,1-1.1,2.1-1.1,3.2c0,2.6,2.3,4.7,5.1,4.7c0.9,0,1.8-0.3,2.6-0.7
			c-1.1,1.5-3.1,2.6-4.9,2.6c-2.8,0-5.1-2.1-5.1-4.7C401.9,114.8,403.4,112.5,405.3,111.6z"/>
	</g>
</g>
<g>
	<path style="fill:#B3FFF7;" d="M452.5,131.9c0.2-4.6,4.2-8.2,9.1-8c0.4,0,0.9,0.1,1.3,0.1c1.8-2.9,5.2-4.7,9-4.6
		c5.6,0.2,10,4.6,9.8,9.9c0,0.1,0,0.2,0,0.3c2.8,1,4.8,3.6,4.7,6.6l-33.3-1.1C452.7,134.2,452.5,133,452.5,131.9z"/>
	<path style="opacity:0.1;" d="M461.6,123.8c0.4,0,0.9,0.1,1.3,0.1c1.5-2.3,3.9-3.9,6.7-4.4c-4.6,2.5-8.6,9.1-5.3,16l-11.1-0.4
		c-0.4-1-0.7-2.2-0.6-3.3C452.7,127.3,456.7,123.7,461.6,123.8z"/>
</g>
<g>
	<path style="fill:#C4FFF9;" d="M175.6,16.9c0.7,0,0.7-1.1,0-1.1C174.9,15.8,174.9,16.9,175.6,16.9L175.6,16.9z"/>
</g>
<g>
	<path style="fill:#C4FFF9;" d="M207.6,32.3c0.7,0,0.7-1.1,0-1.1C206.9,31.2,206.9,32.3,207.6,32.3L207.6,32.3z"/>
</g>
<g>
	<path style="fill:#C4FFF9;" d="M326.2-76.3c0,2.1,3.3,2.1,3.3,0C329.5-78.4,326.2-78.5,326.2-76.3L326.2-76.3z"/>
</g>
<g>
	<path style="fill:#C4FFF9;" d="M192.2-102.6c2.1,0,2.1-3.3,0-3.3C190-105.9,190-102.6,192.2-102.6L192.2-102.6z"/>
</g>
<g>
	<path style="fill:#C4FFF9;" d="M292.1-69.7c0,2.1,3.3,2.1,3.3,0C295.4-71.8,292.1-71.8,292.1-69.7L292.1-69.7z"/>
</g>
<g>
	<path style="fill:#C4FFF9;" d="M198.2,106.7c2.1,0,2.1-3.3,0-3.3C196.1,103.4,196.1,106.7,198.2,106.7L198.2,106.7z"/>
</g>
<g>
	<path style="fill:#C4FFF9;" d="M172.3,126.5c2.1,0,2.1-3.3,0-3.3C170.2,123.2,170.2,126.5,172.3,126.5L172.3,126.5z"/>
</g>
<g>
	<path style="fill:#C4FFF9;" d="M233.5,121.6c2.1,0,2.1-3.3,0-3.3C231.4,118.3,231.4,121.6,233.5,121.6L233.5,121.6z"/>
</g>
<g>
	<path style="fill:#C4FFF9;" d="M266,94.6c2.1,0,2.1-3.3,0-3.3C263.9,91.3,263.9,94.6,266,94.6L266,94.6z"/>
</g>
<g>
	<path style="fill:#C4FFF9;" d="M278.1,113.3c2.1,0,2.1-3.3,0-3.3C276,110,276,113.3,278.1,113.3L278.1,113.3z"/>
</g>
<g>
	<path style="fill:#C4FFF9;" d="M285.3,42.8c2.1,0,2.1-3.3,0-3.3C283.2,39.5,283.2,42.8,285.3,42.8L285.3,42.8z"/>
</g>
<g>
	<path style="fill:#C4FFF9;" d="M385,19.1c2.1,0,2.1-3.3,0-3.3C382.9,15.8,382.9,19.1,385,19.1L385,19.1z"/>
</g>
<g>
	<path style="fill:#C4FFF9;" d="M453.6-105.3c2.1,0,2.1-3.3,0-3.3C451.4-108.6,451.4-105.3,453.6-105.3L453.6-105.3z"/>
</g>
<g>
	<path style="fill:#C4FFF9;" d="M449.5,24.6c2.1,0,2.1-3.3,0-3.3C447.4,21.3,447.4,24.6,449.5,24.6L449.5,24.6z"/>
</g>
<g>
	<path style="fill:#C4FFF9;" d="M450.1,54.9c2.1,0,2.1-3.3,0-3.3C447.9,51.6,447.9,54.9,450.1,54.9L450.1,54.9z"/>
</g>
<g>
	<path style="fill:#C4FFF9;" d="M502.4,75.3c2.1,0,2.1-3.3,0-3.3C500.3,72,500.3,75.3,502.4,75.3L502.4,75.3z"/>
</g>
<g>
	<path style="fill:#C4FFF9;" d="M537.1,89.1c2.1,0,2.1-3.3,0-3.3C535,85.8,535,89.1,537.1,89.1L537.1,89.1z"/>
</g>
<g>
	<path style="fill:#C4FFF9;" d="M506.4,104.4c0.5,0.2,1.1,0.4,1.6,0.6c0.8,0.3,1.8-0.3,2-1.2c0.2-0.9-0.3-1.7-1.2-2
		c-0.5-0.2-1.1-0.4-1.6-0.6c-0.8-0.3-1.8,0.3-2,1.2C505,103.3,505.5,104.1,506.4,104.4L506.4,104.4z"/>
</g>
<g>
	<path style="fill:#C4FFF9;" d="M209.1-48.1c2.1,0,2.1-3.3,0-3.3C206.9-51.4,206.9-48.1,209.1-48.1L209.1-48.1z"/>
</g>
<g>
	<path style="fill:#C4FFF9;" d="M222.3-63.5c2.1,0,2.1-3.3,0-3.3C220.2-66.8,220.2-63.5,222.3-63.5L222.3-63.5z"/>
</g>
<g>
	<path style="fill:#C4FFF9;" d="M209.1-120.4c2.1,0,2.1-3.3,0-3.3C206.9-123.7,206.9-120.4,209.1-120.4L209.1-120.4z"/>
</g>
<g>
	<path style="fill:#C4FFF9;" d="M184.3-151.7c2.1,0,2.1-3.3,0-3.3C182.1-155,182.1-151.7,184.3-151.7L184.3-151.7z"/>
</g>
<g>
	<path style="fill:#C4FFF9;" d="M204.4-24.3c2.1,0,2.1-3.3,0-3.3C202.3-27.6,202.3-24.3,204.4-24.3L204.4-24.3z"/>
</g>
<g>
	<path style="fill:#C4FFF9;" d="M193.9-10.5c0.2,0,0.4,0,0.6,0c0.9,0,1.7-0.8,1.7-1.7c0-0.9-0.7-1.7-1.7-1.7c-0.2,0-0.4,0-0.6,0
		c-0.9,0-1.7,0.8-1.7,1.7C192.3-11.2,193-10.5,193.9-10.5L193.9-10.5z"/>
</g>
<g>
	<path style="fill:#C4FFF9;" d="M261.7-33.1c2.1,0,2.1-3.3,0-3.3C259.6-36.4,259.6-33.1,261.7-33.1L261.7-33.1z"/>
</g>
<g>
	<path style="fill:#C4FFF9;" d="M268.9-20.4c2.1,0,2.1-3.3,0-3.3C266.7-23.7,266.7-20.4,268.9-20.4L268.9-20.4z"/>
</g>
<g>
	<path style="fill:#C4FFF9;" d="M315.2-13c2.1,0,2.1-3.3,0-3.3C313-16.3,313-13,315.2-13L315.2-13z"/>
</g>
<g>
	<path style="fill:#C4FFF9;" d="M333.4-22.6c2.1,0,2.1-3.3,0-3.3C331.2-25.9,331.2-22.6,333.4-22.6L333.4-22.6z"/>
</g>
<g>
	<path style="fill:#C4FFF9;" d="M375.2-28.7c2.1,0,2.1-3.3,0-3.3C373.1-32,373.1-28.7,375.2-28.7L375.2-28.7z"/>
</g>
<g>
	<path style="fill:#C4FFF9;" d="M417.1-34.7c2.1,0,2.1-3.3,0-3.3C415-38,415-34.7,417.1-34.7L417.1-34.7z"/>
</g>
<g>
	<path style="fill:#C4FFF9;" d="M444.7-27c2.1,0,2.1-3.3,0-3.3C442.5-30.3,442.5-27,444.7-27L444.7-27z"/>
</g>
<g>
	<path style="fill:#C4FFF9;" d="M397.8-12.1c2.1,0,2.1-3.3,0-3.3C395.7-15.4,395.7-12.1,397.8-12.1L397.8-12.1z"/>
</g>
<g>
	<path style="fill:#C4FFF9;" d="M429.2,0.5c2.1,0,2.1-3.3,0-3.3C427.1-2.8,427.1,0.5,429.2,0.5L429.2,0.5z"/>
</g>
<g>
	<path style="fill:#C4FFF9;" d="M517.5-95.1c2.1,0,2.1-3.3,0-3.3C515.3-98.4,515.3-95.1,517.5-95.1L517.5-95.1z"/>
</g>
<g>
	<path style="fill:#C4FFF9;" d="M534-84.6c2.1,0,2.1-3.3,0-3.3C531.9-87.9,531.9-84.6,534-84.6L534-84.6z"/>
</g>
<g>
	<path style="fill:#C4FFF9;" d="M519.7-55.9c2.1,0,2.1-3.3,0-3.3C517.5-59.3,517.5-55.9,519.7-55.9L519.7-55.9z"/>
</g>
<g>
	<path style="fill:#C4FFF9;" d="M512.2-122.1c2.1,0,2.1-3.3,0-3.3C510-125.4,510-122.1,512.2-122.1L512.2-122.1z"/>
</g>
<g>
	<path style="fill:#C4FFF9;" d="M479.6-136.4c2.1,0,2.1-3.3,0-3.3C477.5-139.7,477.5-136.4,479.6-136.4L479.6-136.4z"/>
</g>
<g>
	<path style="fill:#C4FFF9;" d="M433.3-136.4c2.1,0,2.1-3.3,0-3.3C431.2-139.7,431.2-136.4,433.3-136.4L433.3-136.4z"/>
</g>
<g>
	<path style="fill:#C4FFF9;" d="M319.1-121.4c2.1,0,2.1-3.3,0-3.3C317-124.8,317-121.4,319.1-121.4L319.1-121.4z"/>
</g>
<g>
	<path style="fill:#C4FFF9;" d="M353.8,41.8c2.1,0,2.1-3.3,0-3.3C351.7,38.5,351.7,41.8,353.8,41.8L353.8,41.8z"/>
</g>
<g>
	<path style="fill:#C4FFF9;" d="M335.1,53.9c2.1,0,2.1-3.3,0-3.3C332.9,50.6,332.9,53.9,335.1,53.9L335.1,53.9z"/>
</g>
<g>
	<path style="fill:#C4FFF9;" d="M454.6-15.2c2.1,0,2.1-3.3,0-3.3C452.5-18.5,452.5-15.2,454.6-15.2L454.6-15.2z"/>
</g>
<g>
	<path style="fill:#C4FFF9;" d="M482.7-25.6c2.1,0,2.1-3.3,0-3.3C480.6-28.9,480.6-25.6,482.7-25.6L482.7-25.6z"/>
</g>
<g>
	<path style="fill:#C4FFF9;" d="M492.1-11.3c2.1,0,2.1-3.3,0-3.3C490-14.6,490-11.3,492.1-11.3L492.1-11.3z"/>
</g>
<g>
	<path style="fill:#C4FFF9;" d="M507.4,12.5c2.1,0,2.1-3.3,0-3.3C505.2,9.2,505.2,12.5,507.4,12.5L507.4,12.5z"/>
</g>
<g>
	<path style="fill:#C4FFF9;" d="M426.4,15.2c2.8,0,2.8-4.4,0-4.4C423.5,10.8,423.5,15.2,426.4,15.2L426.4,15.2z"/>
</g>
<g>
	<path style="fill:#C4FFF9;" d="M283.6,83.6c3.5,0,3.6-5.5,0-5.5C280.1,78.1,280.1,83.6,283.6,83.6L283.6,83.6z"/>
</g>
<g>
	<path style="fill:#C4FFF9;" d="M267.7-120.4c0,3.5,5.5,3.6,5.5,0C273.2-124,267.7-124,267.7-120.4L267.7-120.4z"/>
</g>
<g>
	<path style="fill:#C4FFF9;" d="M230.9-78c0,3.5,5.5,3.6,5.5,0C236.4-81.5,230.9-81.5,230.9-78L230.9-78z"/>
</g>
<g>
	<path style="fill:#C4FFF9;" d="M531.6,69.8c3.5,0,3.6-5.5,0-5.5C528.1,64.3,528.1,69.8,531.6,69.8L531.6,69.8z"/>
</g>
<g>
	<path style="fill:#C4FFF9;" d="M460.7-40.5c3.5,0,3.6-5.5,0-5.5C457.2-46,457.1-40.5,460.7-40.5L460.7-40.5z"/>
</g>
<g>
	<path style="fill:#C4FFF9;" d="M454.6,107.3c3.5,0,3.6-5.5,0-5.5C451.1,101.7,451.1,107.3,454.6,107.3L454.6,107.3z"/>
</g>
<g>
	<path style="fill:#C4FFF9;" d="M389.1-67c3.5,0,3.6-5.5,0-5.5C385.5-72.5,385.5-67,389.1-67L389.1-67z"/>
</g>
<g>
	<path style="fill:#C4FFF9;" d="M383.4-136.4c3.5,0,3.6-5.5,0-5.5C379.9-141.9,379.9-136.4,383.4-136.4L383.4-136.4z"/>
</g>
<g>
	<path style="fill:#C4FFF9;" d="M478-101.4c3.5,0,3.6-5.5,0-5.5C474.5-107,474.5-101.4,478-101.4L478-101.4z"/>
</g>
<g>
	<path style="fill:#C4FFF9;" d="M412.5-158.1c3.5,0,3.6-5.5,0-5.5C408.9-163.6,408.9-158.1,412.5-158.1L412.5-158.1z"/>
</g>
<g>
	<path style="fill:#C4FFF9;" d="M424.2-80.3c3.5,0,3.6-5.5,0-5.5C420.7-85.8,420.7-80.3,424.2-80.3L424.2-80.3z"/>
</g>
<g>
	<path style="fill:#C4FFF9;" d="M488.2-73.9c3.5,0,3.6-5.5,0-5.5C484.6-79.4,484.6-73.9,488.2-73.9L488.2-73.9z"/>
</g>
<g>
	<path style="fill:#C4FFF9;" d="M348.1,15.2c3.5,0,3.6-5.5,0-5.5C344.5,9.7,344.5,15.2,348.1,15.2L348.1,15.2z"/>
</g>
<g>
	<path style="fill:#C4FFF9;" d="M482.6,66.5c3.5,0,3.6-5.5,0-5.5C479,61,479,66.5,482.6,66.5L482.6,66.5z"/>
</g>
<g>
	<path style="fill:#C4FFF9;" d="M230.7,83c3.5,0,3.6-5.5,0-5.5C227.2,77.5,227.2,83,230.7,83L230.7,83z"/>
</g>
<g>
	<path style="fill:#C4FFF9;" d="M192.2,52.2c3.5,0,3.6-5.5,0-5.5C188.6,46.6,188.6,52.2,192.2,52.2L192.2,52.2z"/>
</g>
<g>
	<path style="fill:#C4FFF9;" d="M194.4,147.5c3.5,0,3.6-5.5,0-5.5C190.8,142,190.8,147.5,194.4,147.5L194.4,147.5z"/>
</g>
<g>
	<path style="fill:#C4FFF9;" d="M264.9,133.7c1.4,0,1.4-2.2,0-2.2C263.5,131.5,263.5,133.7,264.9,133.7L264.9,133.7z"/>
</g>
<g>
	<path style="fill:#C4FFF9;" d="M265.4,61.5c0.7,0,0.7-1.1,0-1.1C264.7,60.4,264.7,61.5,265.4,61.5L265.4,61.5z"/>
</g>
<g>
	<path style="fill:#C4FFF9;" d="M296.9,73.6c0.7,0,0.7-1.1,0-1.1C296.1,72.5,296.1,73.6,296.9,73.6L296.9,73.6z"/>
</g>
<g>
	<path style="fill:#C4FFF9;" d="M226.9,110.6c0.7,0,0.7-1.1,0-1.1C226.2,109.5,226.2,110.6,226.9,110.6L226.9,110.6z"/>
</g>
<g>
	<path style="fill:#C4FFF9;" d="M247.3,106.7c0.7,0,0.7-1.1,0-1.1C246.6,105.6,246.6,106.7,247.3,106.7L247.3,106.7z"/>
</g>
<g>
	<path style="fill:#C4FFF9;" d="M202.1,92.9c0.7,0,0.7-1.1,0-1.1C201.4,91.8,201.4,92.9,202.1,92.9L202.1,92.9z"/>
</g>
<g>
	<path style="fill:#C4FFF9;" d="M246.3-92.3c0,0.7,1.1,0.7,1.1,0C247.4-93,246.3-93,246.3-92.3L246.3-92.3z"/>
</g>
<g>
	<path style="fill:#C4FFF9;" d="M229.2-102.2c0,0.7,1.1,0.7,1.1,0C230.3-102.9,229.2-102.9,229.2-102.2L229.2-102.2z"/>
</g>
<g>
	<path style="fill:#C4FFF9;" d="M204.4,132.1c0.7,0,0.7-1.1,0-1.1C203.7,131,203.7,132.1,204.4,132.1L204.4,132.1z"/>
</g>
<g>
	<path style="fill:#C4FFF9;" d="M279.2,135.4c0.7,0,0.7-1.1,0-1.1C278.5,134.3,278.5,135.4,279.2,135.4L279.2,135.4z"/>
</g>
<g>
	<path style="fill:#C4FFF9;" d="M465.5,12.5c1.4,0,1.4-2.2,0-2.2C464.1,10.3,464.1,12.5,465.5,12.5L465.5,12.5z"/>
</g>
<g>
	<path style="fill:#C4FFF9;" d="M485.9,30.7c1.4,0,1.4-2.2,0-2.2C484.5,28.5,484.5,30.7,485.9,30.7L485.9,30.7z"/>
</g>
<g>
	<path style="fill:#C4FFF9;" d="M468.2,80.3c1.4,0,1.4-2.2,0-2.2C466.8,78.1,466.8,80.3,468.2,80.3L468.2,80.3z"/>
</g>
<g>
	<path style="fill:#C4FFF9;" d="M490.3,103.4c1.4,0,1.4-2.2,0-2.2C488.9,101.2,488.9,103.4,490.3,103.4L490.3,103.4z"/>
</g>
<g>
	<path style="fill:#C4FFF9;" d="M500.2,88.5c1.4,0,1.4-2.2,0-2.2C498.8,86.3,498.8,88.5,500.2,88.5L500.2,88.5z"/>
</g>
<g>
	<path style="fill:#C4FFF9;" d="M525.6,106.7c1.4,0,1.4-2.2,0-2.2C524.1,104.5,524.1,106.7,525.6,106.7L525.6,106.7z"/>
</g>
<g>
	<path style="fill:#C4FFF9;" d="M505.2,124.3c1.4,0,1.4-2.2,0-2.2C503.7,122.1,503.7,124.3,505.2,124.3L505.2,124.3z"/>
</g>
<g>
	<path style="fill:#C4FFF9;" d="M297,46.2c1.4,0,1.4-2.2,0-2.2C295.6,44,295.6,46.2,297,46.2L297,46.2z"/>
</g>
<g>
	<path style="fill:#C4FFF9;" d="M448.2-127.6c1.4,0,1.4-2.2,0-2.2C446.8-129.8,446.8-127.6,448.2-127.6L448.2-127.6z"/>
</g>
<g>
	<path style="fill:#C4FFF9;" d="M220.9-27c1.4,0,1.4-2.2,0-2.2C219.5-29.2,219.5-27,220.9-27L220.9-27z"/>
</g>
<g>
	<path style="fill:#C4FFF9;" d="M232-9.9c1.4,0,1.4-2.2,0-2.2C230.5-12.1,230.5-9.9,232-9.9L232-9.9z"/>
</g>
<g>
	<path style="fill:#C4FFF9;" d="M242.4-39.7c1.4,0,1.4-2.2,0-2.2C241-41.9,241-39.7,242.4-39.7L242.4-39.7z"/>
</g>
<g>
	<path style="fill:#C4FFF9;" d="M204.1-157.2c1.4,0,1.4-2.2,0-2.2C202.7-159.4,202.7-157.2,204.1-157.2L204.1-157.2z"/>
</g>
<g>
	<path style="fill:#C4FFF9;" d="M191.4-136.8c1.4,0,1.4-2.2,0-2.2C190-139,190-136.8,191.4-136.8L191.4-136.8z"/>
</g>
<g>
	<path style="fill:#C4FFF9;" d="M525.6,14.7c1.4,0,1.4-2.2,0-2.2C524.1,12.5,524.1,14.7,525.6,14.7L525.6,14.7z"/>
</g>
<g>
	<path style="fill:#C4FFF9;" d="M548.7,11.4c1.4,0,1.4-2.2,0-2.2C547.3,9.2,547.3,11.4,548.7,11.4L548.7,11.4z"/>
</g>
<g>
	<path style="fill:#C4FFF9;" d="M539.9,48.8c1.4,0,1.4-2.2,0-2.2C538.5,46.6,538.5,48.8,539.9,48.8L539.9,48.8z"/>
</g>
<g>
	<path style="fill:#C4FFF9;" d="M524.5-21.5c1.4,0,1.4-2.2,0-2.2C523.1-23.7,523.1-21.5,524.5-21.5L524.5-21.5z"/>
</g>
<g>
	<path style="fill:#C4FFF9;" d="M326.7-40.8c1.4,0,1.4-2.2,0-2.2C325.3-43,325.3-40.8,326.7-40.8L326.7-40.8z"/>
</g>
<g>
	<path style="fill:#C4FFF9;" d="M295.3-30.3c1.4,0,1.4-2.2,0-2.2C293.9-32.5,293.9-30.3,295.3-30.3L295.3-30.3z"/>
</g>
<g>
	<path style="fill:#C4FFF9;" d="M284.9-43.6c1.4,0,1.4-2.2,0-2.2C283.4-45.8,283.4-43.6,284.9-43.6L284.9-43.6z"/>
</g>
<g>
	<path style="fill:#C4FFF9;" d="M352.6-14.9c1.4,0,1.4-2.2,0-2.2C351.2-17.1,351.2-14.9,352.6-14.9L352.6-14.9z"/>
</g>
<g>
	<path style="fill:#C4FFF9;" d="M375.2-11c1.4,0,1.4-2.2,0-2.2C373.8-13.2,373.8-11,375.2-11L375.2-11z"/>
</g>
<g>
	<path style="fill:#C4FFF9;" d="M387.4-40.2c1.4,0,1.4-2.2,0-2.2C385.9-42.4,385.9-40.2,387.4-40.2L387.4-40.2z"/>
</g>
<g>
	<path style="fill:#C4FFF9;" d="M414.9-46.6c1.4,0,1.4-2.2,0-2.2C413.5-48.8,413.5-46.6,414.9-46.6L414.9-46.6z"/>
</g>
<g>
	<path style="fill:#C4FFF9;" d="M433.4-42.7c1.4,0,1.4-2.2,0-2.2C432-44.9,431.9-42.7,433.4-42.7L433.4-42.7z"/>
</g>
<g>
	<path style="fill:#C4FFF9;" d="M430.6-9.7c1.4,0,1.4-2.2,0-2.2C429.2-11.9,429.2-9.7,430.6-9.7L430.6-9.7z"/>
</g>
<g>
	<path style="fill:#C4FFF9;" d="M544.7-110.5c1.4,0,1.4-2.2,0-2.2C543.3-112.7,543.3-110.5,544.7-110.5L544.7-110.5z"/>
</g>
<g>
	<path style="fill:#C4FFF9;" d="M531.6-147.2c1.4,0,1.4-2.2,0-2.2C530.2-149.4,530.2-147.2,531.6-147.2L531.6-147.2z"/>
</g>
<g>
	<path style="fill:#C4FFF9;" d="M377.8,39.3c1.4,0,1.4-2.2,0-2.2C376.4,37.1,376.4,39.3,377.8,39.3L377.8,39.3z"/>
</g>
<g>
	<path style="fill:#C4FFF9;" d="M482.2-49.1c0.7,0,0.7-1.1,0-1.1C481.5-50.2,481.5-49.1,482.2-49.1L482.2-49.1z"/>
</g>
<g>
	<path style="fill:#C4FFF9;" d="M500.1-32c0.7,0,0.7-1.1,0-1.1C499.4-33.1,499.4-32,500.1-32L500.1-32z"/>
</g>
<g>
	<path style="fill:#C4FFF9;" d="M514.2-41.6c0.7,0,0.7-1.1,0-1.1C513.4-42.7,513.4-41.6,514.2-41.6L514.2-41.6z"/>
</g>
<g>
	<path style="fill:#C4FFF9;" d="M543.6-57.9c0.7,0,0.7-1.1,0-1.1C542.9-59,542.9-57.9,543.6-57.9L543.6-57.9z"/>
</g>
<g>
	<path style="fill:#C4FFF9;" d="M545-29.2c0.7,0,0.7-1.1,0-1.1C544.3-30.3,544.3-29.2,545-29.2L545-29.2z"/>
</g>
<g>
	<path style="fill:#C4FFF9;" d="M508.9-12.7c0.7,0,0.7-1.1,0-1.1C508.2-13.8,508.2-12.7,508.9-12.7L508.9-12.7z"/>
</g>
<g>
	<path style="fill:#C4FFF9;" d="M543.1-9.7c0.7,0,0.7-1.1,0-1.1C542.4-10.8,542.4-9.7,543.1-9.7L543.1-9.7z"/>
</g>
<g>
	<path style="fill:#C4FFF9;" d="M319.1,58.1c0.7,0,0.7-1.1,0-1.1C318.4,57,318.4,58.1,319.1,58.1L319.1,58.1z"/>
</g>
<g>
	<path style="fill:#C4FFF9;" d="M233.3-52.8c0.7,0,0.7-1.1,0-1.1C232.6-53.9,232.6-52.8,233.3-52.8L233.3-52.8z"/>
</g>
<g>
	<path style="fill:#C4FFF9;" d="M285.2,11c0.7,0,0.7-1.1,0-1.1C284.5,9.9,284.5,11,285.2,11L285.2,11z"/>
</g>
<g>
	<path style="fill:#C4FFF9;" d="M413.5-145.2c0.7,0,0.7-1.1,0-1.1C412.8-146.3,412.8-145.2,413.5-145.2L413.5-145.2z"/>
</g>
<g>
	<path style="fill:#C4FFF9;" d="M433.3-148.8c0.7,0,0.7-1.1,0-1.1C432.6-149.9,432.6-148.8,433.3-148.8L433.3-148.8z"/>
</g>
<g>
	<path style="fill:#C4FFF9;" d="M421.8-142.2c0.7,0,0.7-1.1,0-1.1C421.1-143.3,421.1-142.2,421.8-142.2L421.8-142.2z"/>
</g>
<g>
	<path style="fill:#C4FFF9;" d="M447.4-143.9c0.7,0,0.7-1.1,0-1.1C446.7-145,446.7-143.9,447.4-143.9L447.4-143.9z"/>
</g>
<g>
	<path style="fill:#C4FFF9;" d="M460.6-132.3c0.7,0,0.7-1.1,0-1.1C459.9-133.4,459.9-132.3,460.6-132.3L460.6-132.3z"/>
</g>
<g>
	<path style="fill:#C4FFF9;" d="M468.6-145.8c0.7,0,0.7-1.1,0-1.1C467.9-146.9,467.9-145.8,468.6-145.8L468.6-145.8z"/>
</g>
<g>
	<path style="fill:#C4FFF9;" d="M473.9-149.4c0.7,0,0.7-1.1,0-1.1C473.1-150.5,473.1-149.4,473.9-149.4L473.9-149.4z"/>
</g>
<g>
	<path style="fill:#C4FFF9;" d="M488.2-143c0.7,0,0.7-1.1,0-1.1C487.5-144.1,487.5-143,488.2-143L488.2-143z"/>
</g>
<g>
	<path style="fill:#C4FFF9;" d="M495.6-133.1c0.7,0,0.7-1.1,0-1.1C494.9-134.2,494.9-133.1,495.6-133.1L495.6-133.1z"/>
</g>
<g>
	<path style="fill:#C4FFF9;" d="M512.2-147.7c0.7,0,0.7-1.1,0-1.1C511.4-148.8,511.4-147.7,512.2-147.7L512.2-147.7z"/>
</g>
<g>
	<path style="fill:#C4FFF9;" d="M322.4-132.5c2.1,0,2.1-3.3,0-3.3C320.3-135.8,320.3-132.5,322.4-132.5L322.4-132.5z"/>
</g>
<g>
	<path style="fill:#C4FFF9;" d="M289.9-146.8c2.1,0,2.1-3.3,0-3.3C287.8-150.1,287.8-146.8,289.9-146.8L289.9-146.8z"/>
</g>
<g>
	<path style="fill:#C4FFF9;" d="M243.6-146.8c2.1,0,2.1-3.3,0-3.3C241.5-150.1,241.5-146.8,243.6-146.8L243.6-146.8z"/>
</g>
<g>
	<path style="fill:#C4FFF9;" d="M258.5-138c1.4,0,1.4-2.2,0-2.2C257.1-140.2,257.1-138,258.5-138L258.5-138z"/>
</g>
<g>
	<path style="fill:#C4FFF9;" d="M355-120.9c1.4,0,1.4-2.2,0-2.2C353.6-123.1,353.6-120.9,355-120.9L355-120.9z"/>
</g>
<g>
	<path style="fill:#C4FFF9;" d="M321.6-147.7c1.4,0,1.4-2.2,0-2.2C320.2-149.9,320.2-147.7,321.6-147.7L321.6-147.7z"/>
</g>
<g>
	<path style="fill:#C4FFF9;" d="M223.8-155.6c0.7,0,0.7-1.1,0-1.1C223.1-156.8,223.1-155.6,223.8-155.6L223.8-155.6z"/>
</g>
<g>
	<path style="fill:#C4FFF9;" d="M243.6-159.2c0.7,0,0.7-1.1,0-1.1C242.9-160.3,242.9-159.2,243.6-159.2L243.6-159.2z"/>
</g>
<g>
	<path style="fill:#C4FFF9;" d="M232.1-152.6c0.7,0,0.7-1.1,0-1.1C231.3-153.7,231.3-152.6,232.1-152.6L232.1-152.6z"/>
</g>
<g>
	<path style="fill:#C4FFF9;" d="M257.7-154.3c0.7,0,0.7-1.1,0-1.1C257-155.4,257-154.3,257.7-154.3L257.7-154.3z"/>
</g>
<g>
	<path style="fill:#C4FFF9;" d="M270.9-142.7c0.7,0,0.7-1.1,0-1.1C270.2-143.8,270.2-142.7,270.9-142.7L270.9-142.7z"/>
</g>
<g>
	<path style="fill:#C4FFF9;" d="M278.9-156.2c0.7,0,0.7-1.1,0-1.1C278.2-157.3,278.2-156.2,278.9-156.2L278.9-156.2z"/>
</g>
<g>
	<path style="fill:#C4FFF9;" d="M284.1-159.8c0.7,0,0.7-1.1,0-1.1C283.4-160.9,283.4-159.8,284.1-159.8L284.1-159.8z"/>
</g>
<g>
	<path style="fill:#C4FFF9;" d="M298.5-153.4c0.7,0,0.7-1.1,0-1.1C297.7-154.5,297.7-153.4,298.5-153.4L298.5-153.4z"/>
</g>
<g>
	<path style="fill:#C4FFF9;" d="M305.9-143.5c0.7,0,0.7-1.1,0-1.1C305.2-144.6,305.2-143.5,305.9-143.5L305.9-143.5z"/>
</g>
<g>
	<path style="fill:#C4FFF9;" d="M322.4-158.1c0.7,0,0.7-1.1,0-1.1C321.7-159.2,321.7-158.1,322.4-158.1L322.4-158.1z"/>
</g>
<g>
	<path style="fill:#C4FFF9;" d="M454.1-75.5c0.7,0,0.7-1.1,0-1.1C453.4-76.6,453.4-75.5,454.1-75.5L454.1-75.5z"/>
</g>
<g>
	<path style="fill:#C4FFF9;" d="M456.8-62.6c0.7,0,0.7-1.1,0-1.1C456.1-63.7,456.1-62.6,456.8-62.6L456.8-62.6z"/>
</g>
<g>
	<path style="fill:#C4FFF9;" d="M469.8-62c0.7,0,0.7-1.1,0-1.1C469.1-63.1,469.1-62,469.8-62L469.8-62z"/>
</g>
<g>
	<path style="fill:#C4FFF9;" d="M515.5-72.5c0.7,0,0.7-1.1,0-1.1C514.8-73.6,514.8-72.5,515.5-72.5L515.5-72.5z"/>
</g>
<g>
	<path style="fill:#C4FFF9;" d="M508.9-63.9c0.7,0,0.7-1.1,0-1.1C508.2-65,508.2-63.9,508.9-63.9L508.9-63.9z"/>
</g>
<g>
	<path style="fill:#C4FFF9;" d="M536.7-74.1c0.7,0,0.7-1.1,0-1.1C536-75.2,536-74.1,536.7-74.1L536.7-74.1z"/>
</g>
<g>
	<path style="fill:#C4FFF9;" d="M545.6-92c0.7,0,0.7-1.1,0-1.1C544.9-93.1,544.9-92,545.6-92L545.6-92z"/>
</g>
<g>
	<path style="fill:#C4FFF9;" d="M548-74.4c0.7,0,0.7-1.1,0-1.1C547.3-75.5,547.3-74.4,548-74.4L548-74.4z"/>
</g>
<g>
	<path style="fill:#C4FFF9;" d="M492.7-44.1c0.7,0,0.7-1.1,0-1.1C492-45.2,492-44.1,492.7-44.1L492.7-44.1z"/>
</g>
<g>
	<path style="fill:#C4FFF9;" d="M223.8,12.5c0.7,0,0.7-1.1,0-1.1C223,11.4,223,12.5,223.8,12.5L223.8,12.5z"/>
</g>
<g>
	<path style="fill:#C4FFF9;" d="M252.4,28.6c0.7,0,0.7-1.1,0-1.1C251.7,27.5,251.7,28.6,252.4,28.6L252.4,28.6z"/>
</g>
<g>
	<path style="fill:#C4FFF9;" d="M242.9,41.9c0.7,0,0.7-1.1,0-1.1C242.1,40.8,242.1,41.9,242.9,41.9L242.9,41.9z"/>
</g>
<g>
	<path style="fill:#C4FFF9;" d="M195.1,11c0.7,0,0.7-1.1,0-1.1C194.4,9.9,194.4,11,195.1,11L195.1,11z"/>
</g>
<g>
	<path style="fill:#C4FFF9;" d="M256.1,10.1c1.4,0,1.4-2.2,0-2.2C254.7,7.9,254.7,10.1,256.1,10.1L256.1,10.1z"/>
</g>
<g>
	<path style="fill:#C4FFF9;" d="M286.2,13c1.4,0,1.4-2.2,0-2.2C284.8,10.8,284.8,13,286.2,13L286.2,13z"/>
</g>
<g>
	<path style="fill:#C4FFF9;" d="M368.5-94.3c0,2.1,3.3,2.1,3.3,0C371.8-96.4,368.5-96.5,368.5-94.3L368.5-94.3z"/>
</g>
<g>
	<path style="fill:#C4FFF9;" d="M334.9-97.3c0,2.8,4.4,2.8,4.4,0C339.3-100.1,334.9-100.1,334.9-97.3L334.9-97.3z"/>
</g>
<g>
	<path style="fill:#C4FFF9;" d="M348.1-67.1c0,2.8,4.4,2.8,4.4,0C352.5-70,348.1-70,348.1-67.1L348.1-67.1z"/>
</g>
<g>
	<path style="fill:#C4FFF9;" d="M339.4-143c0,2.8,4.4,2.8,4.4,0C343.8-145.9,339.4-145.9,339.4-143L339.4-143z"/>
</g>
<g>
	<path style="fill:#C4FFF9;" d="M243.6,37.6c2.8,0,2.8-4.4,0-4.4C240.8,33.2,240.7,37.6,243.6,37.6L243.6,37.6z"/>
</g>
<g>
	<path style="fill:#C4FFF9;" d="M306.2-87.7c0,2.8,4.4,2.8,4.4,0C310.6-90.5,306.2-90.6,306.2-87.7L306.2-87.7z"/>
</g>
<g>
	<path style="fill:#C4FFF9;" d="M194.4,24c1.4,0,1.4-2.2,0-2.2C192.9,21.8,192.9,24,194.4,24L194.4,24z"/>
</g>
<g>
	<path style="fill:#C4FFF9;" d="M216.4,43.2c1.4,0,1.4-2.2,0-2.2C215,40.9,215,43.2,216.4,43.2L216.4,43.2z"/>
</g>
<g>
	<path style="fill:#C4FFF9;" d="M206.9,71.1c1.4,0,1.4-2.2,0-2.2C205.4,68.9,205.4,71.1,206.9,71.1L206.9,71.1z"/>
</g>
<g>
	<path style="fill:#C4FFF9;" d="M173.8,97.5c1.4,0,1.4-2.2,0-2.2C172.4,95.3,172.4,97.5,173.8,97.5L173.8,97.5z"/>
</g>
<g>
	<path style="fill:#C4FFF9;" d="M287.5-103.1c0,1.4,2.2,1.4,2.2,0C289.7-104.6,287.5-104.6,287.5-103.1L287.5-103.1z"/>
</g>
<g>
	<path style="fill:#C4FFF9;" d="M254.4-98c0,1.4,2.2,1.4,2.2,0C256.6-99.4,254.4-99.4,254.4-98L254.4-98z"/>
</g>
<g>
	<path style="fill:#C4FFF9;" d="M389.1,39.5c1.4,0,1.4-2.2,0-2.2C387.7,37.3,387.7,39.5,389.1,39.5L389.1,39.5z"/>
</g>
<g>
	<path style="fill:#C4FFF9;" d="M406,13c1.4,0,1.4-2.2,0-2.2C404.6,10.8,404.5,13,406,13L406,13z"/>
</g>
<g>
	<path style="fill:#C4FFF9;" d="M411.8,27c1.4,0,1.4-2.2,0-2.2C410.4,24.8,410.4,27,411.8,27L411.8,27z"/>
</g>
<g>
	<path style="fill:#C4FFF9;" d="M435.4,30.7c1.4,0,1.4-2.2,0-2.2C433.9,28.5,433.9,30.7,435.4,30.7L435.4,30.7z"/>
</g>
<g>
	<path style="fill:#C4FFF9;" d="M441.2,6.4c1.4,0,1.4-2.2,0-2.2C439.8,4.2,439.8,6.4,441.2,6.4L441.2,6.4z"/>
</g>
<g>
	<path style="fill:#C4FFF9;" d="M433.9,46.8c-0.2,0-0.5,0-0.7,0c-1.4,0-1.4,2.2,0,2.2c0.2,0,0.5,0,0.7,0
		C435.3,49,435.3,46.8,433.9,46.8L433.9,46.8z"/>
</g>
<g>
	<path style="fill:#C4FFF9;" d="M371.4,64.5c1.4,0,1.4-2.2,0-2.2C370,62.3,370,64.5,371.4,64.5L371.4,64.5z"/>
</g>
<g>
	<path style="fill:#C4FFF9;" d="M311.9,82.1c1.4,0,1.4-2.2,0-2.2C310.5,79.9,310.5,82.1,311.9,82.1L311.9,82.1z"/>
</g>
<g>
	<path style="fill:#C4FFF9;" d="M292.1,104.1c1.4,0,1.4-2.2,0-2.2C290.7,101.9,290.7,104.1,292.1,104.1L292.1,104.1z"/>
</g>
<g>
	<path style="fill:#C4FFF9;" d="M292.8,137.9c1.4,0,1.4-2.2,0-2.2C291.4,135.7,291.4,137.9,292.8,137.9L292.8,137.9z"/>
</g>
<g>
	<path style="fill:#C4FFF9;" d="M295.8,22.6c1.4,0,1.4-2.2,0-2.2C294.3,20.4,294.3,22.6,295.8,22.6L295.8,22.6z"/>
</g>
<g>
	<path style="fill:#C4FFF9;" d="M319.3,8.6c1.4,0,1.4-2.2,0-2.2C317.9,6.4,317.8,8.6,319.3,8.6L319.3,8.6z"/>
</g>
<g>
	<path style="fill:#C4FFF9;" d="M468.4,26.3c1.4,0,1.4-2.2,0-2.2C467,24,467,26.3,468.4,26.3L468.4,26.3z"/>
</g>
<g>
	<path style="fill:#C4FFF9;" d="M492.7,2.7c1.4,0,1.4-2.2,0-2.2C491.3,0.5,491.3,2.7,492.7,2.7L492.7,2.7z"/>
</g>
<g>
	<path style="fill:#C4FFF9;" d="M181.3-80.8c1.4,0,1.4-2.2,0-2.2C179.9-83,179.9-80.8,181.3-80.8L181.3-80.8z"/>
</g>
<g>
	<path style="fill:#C4FFF9;" d="M536,113c1.4,0,1.4-2.2,0-2.2C534.6,110.7,534.6,113,536,113L536,113z"/>
</g>
<g>
	<path style="fill:#C4FFF9;" d="M189.4-43.3c1.4,0,1.4-2.2,0-2.2C188-45.5,188-43.3,189.4-43.3L189.4-43.3z"/>
</g>
<path style="fill:#FFFFFF;" d="M550,140.1c-45.5-6.6-98.9-9.8-145.4-3.8c-80.1,10.3-169,51.4-221.9,53.6c-4.5,0.2-8.7,0.3-12.7,0.3
	v19.6h380V140.1z"/>
</svg>
