<?xml version="1.0" encoding="utf-8"?>
<!-- Generator: Adobe Illustrator 19.0.0, SVG Export Plug-In . SVG Version: 6.00 Build 0)  -->
<svg version="1.1" id="Layer_1" xmlns="http://www.w3.org/2000/svg" xmlns:xlink="http://www.w3.org/1999/xlink" x="0px" y="0px"
	 viewBox="-321 311 380 380" style="enable-background:new -321 311 380 380;" xml:space="preserve">
<rect x="-321" y="311" style="fill:#F6693E;" width="380" height="380"/>
<g>
	<g>
		<polygon style="fill:#F65D37;" points="-307.9,336.7 -321,353.8 -321,319.6 		"/>
		<polygon style="fill:#F65D37;" points="-288.2,311.2 -307.9,336.7 -288.2,362.2 -268.6,336.7 		"/>
		<polygon style="fill:#F65D37;" points="-249,311.2 -268.6,336.7 -249,362.2 -229.4,336.7 		"/>
		<polygon style="fill:#F65D37;" points="-209.8,311.2 -229.4,336.7 -209.8,362.2 -190.1,336.7 		"/>
		<polygon style="fill:#F65D37;" points="-170.5,311.2 -190.1,336.7 -170.5,362.2 -150.9,336.7 		"/>
		<polygon style="fill:#F65D37;" points="-131.3,311.2 -150.9,336.7 -131.3,362.2 -111.6,336.7 		"/>
		<polygon style="fill:#F65D37;" points="-92,311.2 -111.6,336.7 -92,362.2 -72.4,336.7 		"/>
		<polygon style="fill:#F65D37;" points="-52.8,311.2 -72.4,336.7 -52.8,362.2 -33.1,336.7 		"/>
		<polygon style="fill:#F65D37;" points="-13.5,311.2 -33.1,336.7 -13.5,362.2 6.1,336.7 		"/>
		<polygon style="fill:#F65D37;" points="25.7,311.2 6.1,336.7 25.7,362.2 45.3,336.7 		"/>
		<polygon style="fill:#F65D37;" points="59,319 59,354.5 45.3,336.7 		"/>
		<polygon style="fill:#F65D37;" points="-307.9,387.8 -321,404.9 -321,370.7 		"/>
		<polygon style="fill:#F65D37;" points="-288.2,362.3 -307.9,387.8 -288.2,413.3 -268.6,387.8 		"/>
		<polygon style="fill:#F65D37;" points="-249,362.3 -268.6,387.8 -249,413.3 -229.4,387.8 		"/>
		<polygon style="fill:#F65D37;" points="-209.8,362.3 -229.4,387.8 -209.8,413.3 -190.1,387.8 		"/>
		<polygon style="fill:#F65D37;" points="-170.5,362.3 -190.1,387.8 -170.5,413.3 -150.9,387.8 		"/>
		<polygon style="fill:#F65D37;" points="-131.3,362.3 -150.9,387.8 -131.3,413.3 -111.6,387.8 		"/>
		<polygon style="fill:#F65D37;" points="-92,362.3 -111.6,387.8 -92,413.3 -72.4,387.8 		"/>
		<polygon style="fill:#F65D37;" points="-52.8,362.3 -72.4,387.8 -52.8,413.3 -33.1,387.8 		"/>
		<polygon style="fill:#F65D37;" points="-13.5,362.3 -33.1,387.8 -13.5,413.3 6.1,387.8 		"/>
		<polygon style="fill:#F65D37;" points="25.7,362.3 6.1,387.8 25.7,413.3 45.3,387.8 		"/>
		<polygon style="fill:#F65D37;" points="59,370.1 59,405.6 45.3,387.8 		"/>
		<polygon style="fill:#F65D37;" points="-307.9,438.9 -321,456 -321,421.8 		"/>
		<polygon style="fill:#F65D37;" points="-288.2,413.4 -307.9,438.9 -288.2,464.4 -268.6,438.9 		"/>
		<polygon style="fill:#F65D37;" points="-249,413.4 -268.6,438.9 -249,464.4 -229.4,438.9 		"/>
		<polygon style="fill:#F65D37;" points="-209.8,413.4 -229.4,438.9 -209.8,464.4 -190.1,438.9 		"/>
		<polygon style="fill:#F65D37;" points="-170.5,413.4 -190.1,438.9 -170.5,464.4 -150.9,438.9 		"/>
		<polygon style="fill:#F65D37;" points="-131.3,413.4 -150.9,438.9 -131.3,464.4 -111.6,438.9 		"/>
		<polygon style="fill:#F65D37;" points="-92,413.4 -111.6,438.9 -92,464.4 -72.4,438.9 		"/>
		<polygon style="fill:#F65D37;" points="-52.8,413.4 -72.4,438.9 -52.8,464.4 -33.1,438.9 		"/>
		<polygon style="fill:#F65D37;" points="-13.5,413.4 -33.1,438.9 -13.5,464.4 6.1,438.9 		"/>
		<polygon style="fill:#F65D37;" points="25.7,413.4 6.1,438.9 25.7,464.4 45.3,438.9 		"/>
		<polygon style="fill:#F65D37;" points="59,421.2 59,456.7 45.3,438.9 		"/>
		<polygon style="fill:#F65D37;" points="-307.9,490 -321,507.1 -321,472.9 		"/>
		<polygon style="fill:#F65D37;" points="-288.2,464.5 -307.9,490 -288.2,515.5 -268.6,490 		"/>
		<polygon style="fill:#F65D37;" points="-249,464.5 -268.6,490 -249,515.5 -229.4,490 		"/>
		<polygon style="fill:#F65D37;" points="-209.8,464.5 -229.4,490 -209.8,515.5 -190.1,490 		"/>
		<polygon style="fill:#F65D37;" points="-170.5,464.5 -190.1,490 -170.5,515.5 -150.9,490 		"/>
		<polygon style="fill:#F65D37;" points="-131.3,464.5 -150.9,490 -131.3,515.5 -111.6,490 		"/>
		<polygon style="fill:#F65D37;" points="-92,464.5 -111.6,490 -92,515.5 -72.4,490 		"/>
		<polygon style="fill:#F65D37;" points="-52.8,464.5 -72.4,490 -52.8,515.5 -33.1,490 		"/>
		<polygon style="fill:#F65D37;" points="-13.5,464.5 -33.1,490 -13.5,515.5 6.1,490 		"/>
		<polygon style="fill:#F65D37;" points="25.7,464.5 6.1,490 25.7,515.5 45.3,490 		"/>
		<polygon style="fill:#F65D37;" points="59,472.3 59,507.8 45.3,490 		"/>
		<polygon style="fill:#F65D37;" points="-307.9,541.1 -321,558.2 -321,524 		"/>
		<polygon style="fill:#F65D37;" points="-288.2,515.6 -307.9,541.1 -288.2,566.6 -268.6,541.1 		"/>
		<polygon style="fill:#F65D37;" points="-249,515.6 -268.6,541.1 -249,566.6 -229.4,541.1 		"/>
		<polygon style="fill:#F65D37;" points="-209.8,515.6 -229.4,541.1 -209.8,566.6 -190.1,541.1 		"/>
		<polygon style="fill:#F65D37;" points="-170.5,515.6 -190.1,541.1 -170.5,566.6 -150.9,541.1 		"/>
		<polygon style="fill:#F65D37;" points="-131.3,515.6 -150.9,541.1 -131.3,566.6 -111.6,541.1 		"/>
		<polygon style="fill:#F65D37;" points="-92,515.6 -111.6,541.1 -92,566.6 -72.4,541.1 		"/>
		<polygon style="fill:#F65D37;" points="-52.8,515.6 -72.4,541.1 -52.8,566.6 -33.1,541.1 		"/>
		<polygon style="fill:#F65D37;" points="-13.5,515.6 -33.1,541.1 -13.5,566.6 6.1,541.1 		"/>
		<polygon style="fill:#F65D37;" points="25.7,515.6 6.1,541.1 25.7,566.6 45.3,541.1 		"/>
		<polygon style="fill:#F65D37;" points="59,523.4 59,558.9 45.3,541.1 		"/>
		<polygon style="fill:#F65D37;" points="-307.9,592.2 -321,609.3 -321,575.1 		"/>
		<polygon style="fill:#F65D37;" points="-288.2,566.7 -307.9,592.2 -288.2,617.7 -268.6,592.2 		"/>
		<polygon style="fill:#F65D37;" points="-249,566.7 -268.6,592.2 -249,617.7 -229.4,592.2 		"/>
		<polygon style="fill:#F65D37;" points="-209.8,566.7 -229.4,592.2 -209.8,617.7 -190.1,592.2 		"/>
		<polygon style="fill:#F65D37;" points="-170.5,566.7 -190.1,592.2 -170.5,617.7 -150.9,592.2 		"/>
		<polygon style="fill:#F65D37;" points="-131.3,566.7 -150.9,592.2 -131.3,617.7 -111.6,592.2 		"/>
		<polygon style="fill:#F65D37;" points="-92,566.7 -111.6,592.2 -92,617.7 -72.4,592.2 		"/>
		<polygon style="fill:#F65D37;" points="-52.8,566.7 -72.4,592.2 -52.8,617.7 -33.1,592.2 		"/>
		<polygon style="fill:#F65D37;" points="-13.5,566.7 -33.1,592.2 -13.5,617.7 6.1,592.2 		"/>
		<polygon style="fill:#F65D37;" points="25.7,566.7 6.1,592.2 25.7,617.7 45.3,592.2 		"/>
		<polygon style="fill:#F65D37;" points="59,574.5 59,610 45.3,592.2 		"/>
		<polygon style="fill:#F65D37;" points="-307.9,643.3 -321,660.4 -321,626.2 		"/>
		<polygon style="fill:#F65D37;" points="-288.2,617.8 -307.9,643.3 -288.2,668.8 -268.6,643.3 		"/>
		<polygon style="fill:#F65D37;" points="-249,617.8 -268.6,643.3 -249,668.8 -229.4,643.3 		"/>
		<polygon style="fill:#F65D37;" points="-209.8,617.8 -229.4,643.3 -209.8,668.8 -190.1,643.3 		"/>
		<polygon style="fill:#F65D37;" points="-170.5,617.8 -190.1,643.3 -170.5,668.8 -150.9,643.3 		"/>
		<polygon style="fill:#F65D37;" points="-131.3,617.8 -150.9,643.3 -131.3,668.8 -111.6,643.3 		"/>
		<polygon style="fill:#F65D37;" points="-92,617.8 -111.6,643.3 -92,668.8 -72.4,643.3 		"/>
		<polygon style="fill:#F65D37;" points="-52.8,617.8 -72.4,643.3 -52.8,668.8 -33.1,643.3 		"/>
		<polygon style="fill:#F65D37;" points="-13.5,617.8 -33.1,643.3 -13.5,668.8 6.1,643.3 		"/>
		<polygon style="fill:#F65D37;" points="25.7,617.8 6.1,643.3 25.7,668.8 45.3,643.3 		"/>
		<polygon style="fill:#F65D37;" points="59,625.6 59,661.1 45.3,643.3 		"/>
	</g>
</g>
<rect x="-321" y="645.4" style="fill:#FFFFEB;" width="380" height="10.2"/>
<rect x="-321" y="647.6" style="fill:#F6C79A;" width="380" height="1.2"/>
<rect x="-321" y="655.6" style="fill:#F5C175;" width="380" height="35.4"/>
<g>
	<path style="fill:#CF4628;" d="M-186.4,414.4l0.1-1h-25.3c0,0-0.2,0.7-0.5,2.1h-57.5c-0.2-1.3-0.3-2.1-0.3-2.1h-29.5
		c-3.3-5.6-12.9-0.4-11.9,5.3c1.1,6.4,9,9.5,11.9,4.5l9.5,124.4c-0.9,0.4-1.4,0.9-1.4,0.9l0.3,6.9h0.8V601l4.2-0.5l0.7-8.1l0.8,7.9
		l3.1-0.4v-2.7l1.1,2.6l2.7-0.3c0,0-1.1-26.3-9.6-44h1l1.9-5.5h81.7l1.9,5.5h1c-8.5,17.7-9.6,44-9.6,44l12.7,1.6v-45.6h0.8l0.3-6.9
		c0,0-0.5-0.5-1.4-0.9l9.7-126.3h0.1c2,8.7,13.8,3.1,12.7-3.3C-175.2,411.3-183.9,408.2-186.4,414.4z"/>
	<path style="fill:#CF4628;" d="M50.8,419c-1.1-6.7-9.8-9.7-12.3-3.6l0.1-1H13.4c0,0-0.2,0.7-0.4,2h-57.3c-0.2-1.3-0.3-2-0.3-2H-74
		c-3.3-5.5-12.9-0.4-11.9,5.3c1.1,6.3,8.9,9.4,11.9,4.4l9.5,123.9c-0.9,0.4-1.4,0.9-1.4,0.9l0.3,6.8h0.8v45.4l4.2-0.5l0.7-8.1
		l0.8,7.9l3.1-0.4v-2.7l1.1,2.6l2.6-0.3c0,0-1.1-26.2-9.5-43.8h1l1.9-5.5h81.4l1.9,5.5h1c-8.4,17.6-9.5,43.8-9.5,43.8l2.4,0.3
		l1.2-3.7v3.8l2.3,0.3l0.4-2.3l0.5,1.9c0,0,1.7-1.8,1.5-1.5c-0.1,0.2-0.2,1.1-0.3,2.1l4.6,0.6v-45.4h0.8l0.3-6.8
		c0,0-0.5-0.5-1.4-0.9l9.7-125.8H38C40.1,430.9,51.9,425.3,50.8,419z"/>
	<g>
		<g>
			<g>
				<rect x="-299.5" y="412.9" style="fill:#FFCC51;" width="112.8" height="5.6"/>
				<g>
					<polygon style="fill:#FF9025;" points="-215.3,416.3 -267.1,416.3 -267.4,415 -214.6,415 					"/>
					<path style="fill:#FFFF77;" d="M-264.4,413.4h49.8C-214.6,413.4-252.7,414.7-264.4,413.4z"/>
				</g>
				<path style="fill:#9A0916;" d="M-283.8,583.7l0.8,7.7l3-0.4v-2.6l1.1,2.5l2.6-0.3c0,0-1.1-26.2-9.6-43.3h-2.6v44.8l4.1-0.5
					L-283.8,583.7z"/>
				<path style="fill:#9A0916;" d="M-198.1,547.2V592l-12.2-1.6c0,0,1.1-26.2,9.6-43.3L-198.1,547.2L-198.1,547.2z"/>
				<rect x="-286.6" y="417.1" style="fill:#D51E23;" width="84.3" height="125.6"/>
				<rect x="-282.8" y="421.1" style="fill:#47090A;" width="78.5" height="117.6"/>
				<path style="fill:#600E0A;" d="M-257.6,497.8c-0.2-0.8-0.5-1.7-1.1-2.2s-1.7-0.6-2.2,0.1c-0.4,0.5-0.2,1.2-0.1,1.8
					c-0.8-1.4-3-1.4-3.9-0.1c-0.3-0.8-1-1.5-1.8-1.6s-1.8,0.5-1.8,1.3c-0.1-0.1-0.2-0.2-0.4-0.4c-0.2,1.3-0.5,2.6-0.7,3.9
					c0,0,0,0,0.1,0c3.1,0.2,6.2,0.4,9.3,0.5c0.7,0,1.4,0.1,2-0.3C-257.3,500.3-257.3,498.9-257.6,497.8z"/>
				<g>
					<path style="fill:#600E0A;" d="M-261.2,531.9c-1.7-0.2-3.5,0.9-3.9,2.6c-0.6-0.7-1.4-1.5-2.3-1.8c-1-0.3-2.1,0.1-2.5,1
						c0-1.4-1.1-2.7-2.5-3s-2.9,0.4-3.6,1.6c-0.4-0.7-0.8-1.4-1.4-2c-0.7,2-1.4,4-2.1,5.9c2.7,0.4,6.2,0.6,6.8,0.7
						c3.7,0.2,7.5,0.3,11.1-0.2c1.9-0.3,3-0.5,3.7-1.7C-258.3,533.5-259.6,532.2-261.2,531.9z"/>
					<path style="fill:#600E0A;" d="M-231,533.1c-0.4-1.2-1.4-2.3-2.6-2.4s-2.5,1.2-2.1,2.3c-0.4-1.2-2.2-1.5-3.1-0.6
						c-0.7-0.8-1.2-1.9-1.9-2.8s-1.9-1.6-2.9-1.2c-1.4,0.5-1.7,2.3-1.6,3.7c-0.5-0.4-1.1-0.8-1.8-0.9s-1.4,0.2-1.7,0.8
						c-0.3-1-1.3-1.7-2.3-1.8c-1,0-2.1,0.7-2.4,1.6c-0.1-1.2-1.5-1.9-2.6-1.5c-1.4,0.5-1.1,2.1-1.4,3.2c-0.2,0.6-0.3,1.1-0.6,1.5
						c0,0.1,0.1,0.3,0.1,0.4c0,0.2,0,0.4-0.1,0.6l1.5,0.4c8.5,0.9,17.1,1,25.7,0.4C-230.7,535.6-230.6,534.3-231,533.1z"/>
				</g>
				<path style="fill:#600E0A;" d="M-258.1,451.6c-1.5,0.1-3,1.4-3,3c-0.5-0.8-1.5-1.5-2.4-1.5c-0.3,0-0.6,0.1-0.9,0.3
					c0,1.8-0.1,3.6-0.2,5.4c1.1,0.1,2.2,0.1,3.2,0c1.1,0,2.2-0.1,3.3-0.1L-258.1,451.6L-258.1,451.6z"/>
				<path style="fill:#600E0A;" d="M-255.6,452.1c1.3-0.2,2.3,0.9,3.1,1.9c0.3-0.7,1-1.2,1.8-1.3c0.8,0,1.5,0.5,1.8,1.2
					c0.9-1,2.8-0.9,3.5,0.3c-0.2-2,1.5-3.9,3.4-4c2-0.1,3.9,1.7,3.9,3.7c0.7-0.9,2.3-0.6,2.7,0.4c0.1-1.3,2-1.7,3-0.9
					c1,0.8,1.2,2.3,1.3,3.6c0,0.2,0,0.4-0.1,0.6c-0.1,0.1-0.3,0.2-0.5,0.2c-8.2,1.2-16.6,1.2-24.8-0.1c-0.2,0-0.4-0.1-0.6-0.2
					c-0.2-0.2-0.2-0.4-0.2-0.7c-0.1-0.9-0.2-1.8,0-2.7C-257.2,453.1-256.5,452.3-255.6,452.1z"/>
				<path style="fill:#600E0A;" d="M-227.4,458.4c-1-0.3-2.1-0.8-2.4-1.8c-0.2-0.7,0-1.4,0.2-2.1c0.2-0.6,0.4-1.2,1-1.4
					c0.5-0.1,1,0.2,1.3,0.5c0.3,0.4,0.5,0.8,0.8,1.3c0-1,1-1.8,1.9-1.8c1,0,1.9,0.6,2.4,1.5c0-1.6,1.5-2.9,3.1-3
					c1.6,0,3.1,1,3.8,2.4c0.8,1.4,0.9,3,0.7,4.6c-2.7,0.1-5.3,0.2-8,0.2C-224.1,458.8-225.8,458.9-227.4,458.4z"/>
				<path style="fill:#600E0A;" d="M-221.5,495.4c0.1,0.1,0.2,0.2,0.4,0.3c0.2,0.1,0.5-0.1,0.7-0.2c0.7-0.3,1.7,0.3,1.8,1.1
					c0.3-0.9,0.6-1.9,1.2-2.7c0.6-0.8,1.5-1.4,2.5-1.3c0.7,0,1.3,0.4,1.8,0.8c1.7,1.5,2,4,2.2,6.2c0,0.3,0,0.5-0.1,0.7
					c-0.1,0.1-0.3,0.2-0.4,0.2c-5.4,1.4-11.1,1.7-16.5,0.7c-0.6-0.1-1.2-0.2-1.6-0.6c-0.7-0.6-0.7-1.7-0.6-2.6
					c0.1-1.2,0.2-2.4,0.8-3.4c0.6-1,1.9-1.7,3-1.2c0.9,0.4,1.3,1.4,1.6,2.2C-224,494.7-222.4,494.6-221.5,495.4z"/>
				<path style="fill:#600E0A;" d="M-256.5,536.4c7.1,0.7,14.3,1,21.4,0.7c3.6-0.2,3.7-0.2,4.9-3.2c0.7-1.6,4.2-4,4.4-0.7
					c0.4-0.9,0.8-1.7,1.5-2.4c0.7-0.7,1.6-1.1,2.5-1c1.2,0.2,2,1.4,2.6,2.5c1.2-1,3.4-0.3,3.7,1.3c1.2-0.9,3.2-0.5,3.8,0.9
					c0.9-1.3,2.7-2,4.2-1.6c1.6,0.4,2.8,1.9,2.9,3.5c0,0.2,0,0.4-0.1,0.6s-0.4,0.2-0.6,0.3c-7.9,1.7-16.1,0.5-24-0.8"/>
				<path style="fill:#600E0A;" d="M-239.5,501.1c-6-0.2-11.9-0.5-17.9-0.7c0.2-1.7-0.1-3.3,0-5c0.2-1.7,1-3.4,2.6-3.9
					c1.5-0.5,3.2,0.4,3.7,1.9c0.5-0.8,2-0.5,2.1,0.5c0.5-0.6,1.5-0.4,1.9,0.2c0.5,0.6,0.6,1.4,0.6,2.1c0.1-0.9,0.3-1.8,0.7-2.6
					c0.4-0.8,1.2-1.4,2.1-1.5c0.9,0,1.7,0.5,2.1,1.3c0.5,0.7,0.7,1.6,0.9,2.4c0.4-0.8,1.8-0.8,2.1,0.1c-0.3-0.4,0.3-1,0.8-1
					s0.9,0.4,1.3,0.7c-0.2-1.5,0.1-3,0.9-4.3c0.3-0.5,0.7-1,1.3-1.2c0.9-0.3,1.8,0.2,2.4,0.9c0.5,0.7,0.7,1.6,0.9,2.5
					c0.4,2.4,0.7,4.9,0.7,7.4C-233.2,501.3-236.4,501.2-239.5,501.1z"/>
				<g>
					<circle style="fill:#600E0A;" cx="-243.9" cy="478.7" r="1.9"/>
					<circle style="fill:#600E0A;" cx="-223.9" cy="435.2" r="1.9"/>
					<circle style="fill:#600E0A;" cx="-240.7" cy="444.7" r="1.9"/>
					<circle style="fill:#600E0A;" cx="-241.8" cy="470" r="1.1"/>
					<circle style="fill:#600E0A;" cx="-249.2" cy="445.7" r="1.1"/>
					<circle style="fill:#600E0A;" cx="-245.8" cy="437.1" r="1.1"/>
					<circle style="fill:#600E0A;" cx="-223.9" cy="442.8" r="1.1"/>
					<circle style="fill:#600E0A;" cx="-249.2" cy="472.4" r="1.5"/>
				</g>
				<rect x="-259.6" y="426.6" style="fill:#8F0D15;" width="3.3" height="112.2"/>
				<rect x="-232.6" y="426.6" style="fill:#8F0D15;" width="3.3" height="112.2"/>
				<path style="fill:#8F0D15;" d="M-269.4,499.6c-0.2,1.1-0.4,2.2-0.7,3.3h63.9v-3.3H-269.4z"/>
				<rect x="-282.8" y="420.5" style="fill:#8F0D15;" width="76.6" height="3.3"/>
				<rect x="-282.9" y="535.5" style="fill:#8F0D15;" width="79.8" height="3.3"/>
				<path style="fill:#9A0916;" d="M-283.9,541.4c25.8-64.9,14.8-130.5,14.8-130.5h-29.2l10,130.5H-283.9z"/>
				<path style="fill:#D51E23;" d="M-292.1,422.4c0,0,7.6,83.8,7.2,107.4C-284.8,529.7-281.1,443.3-292.1,422.4z"/>
				<path style="fill:#D51E23;" d="M-276.9,422.8c0,0-1.8,73.5-3.4,86.3C-280.2,509.1-268,438.5-276.9,422.8z"/>
				<path style="fill:#8F0D15;" d="M-264.6,456.9c0,1.1-0.1,2.2-0.1,3.3h58.6v-3.3H-264.6z"/>
				<path style="fill:#9A0916;" d="M-202.9,541.4c-25.8-64.9-9.9-130.5-9.9-130.5h24.4l-10,130.5H-202.9z"/>
				<path style="fill:#FFCC51;" d="M-309.1,416c-1.1-6.6,12.2-12.4,12.6-1C-296.2,426.5-307.8,423.7-309.1,416z"/>
				<path style="fill:#FF9025;" d="M-301.5,416.8c-2.2,0.5-4.2,0-6-1c0.6,3.3,3.4,5.3,5.7,5.3c0.9,0,1.6-0.3,2.2-0.9
					c0.9-1,1.4-2.7,1.3-4.9C-299.2,415.9-300.3,416.5-301.5,416.8z"/>
				<g>
					<path style="fill:#FFCC51;" d="M-176.6,415.3c1.1,6.6-12.2,12.4-12.6,1S-177.9,407.6-176.6,415.3z"/>
				</g>
				<path style="fill:#FF9025;" d="M-184.2,416.8c2.2,0.5,4.2,0,6-1c-0.6,3.3-3.4,5.3-5.7,5.3c-0.9,0-1.6-0.3-2.2-0.9
					c-0.9-1-1.4-2.7-1.3-4.9C-186.5,415.9-185.4,416.5-184.2,416.8z"/>
				<path style="fill:#FFFF77;" d="M-186,410.9c1-1.6,6.3,0.7,6,1.6C-180.3,413.3-187.4,413.1-186,410.9z"/>
				<path style="fill:#CD1D1D;" d="M-289.7,541.4c0,0,3.3-3.3,7.3,0l-2.4,6.6h-4.7L-289.7,541.4z"/>
				<path style="fill:#D51E23;" d="M-197,541.4c0,0-3.3-3.3-7.3,0l2.4,6.6h4.7L-197,541.4z"/>
			</g>
			<circle style="fill:#600E0A;" cx="-223.7" cy="469.7" r="1.2"/>
			<circle style="fill:#600E0A;" cx="-222.7" cy="483.5" r="2.3"/>
			<circle style="fill:#600E0A;" cx="-222.9" cy="489.1" r="0.9"/>
			<circle style="fill:#600E0A;" cx="-250.6" cy="509" r="1"/>
			<circle style="fill:#600E0A;" cx="-242.5" cy="513.3" r="1.8"/>
			<circle style="fill:#600E0A;" cx="-248.5" cy="521.3" r="0.7"/>
			<circle style="fill:#600E0A;" cx="-222.1" cy="515.1" r="1.8"/>
			<circle style="fill:#600E0A;" cx="-219" cy="508.7" r="0.7"/>
			<circle style="fill:#600E0A;" cx="-214.9" cy="522.7" r="2.1"/>
			<circle style="fill:#600E0A;" cx="-269.5" cy="522" r="1.5"/>
			<circle style="fill:#600E0A;" cx="-265.1" cy="508.2" r="1.6"/>
			<circle style="fill:#600E0A;" cx="-265.4" cy="515.8" r="0.7"/>
			<circle style="fill:#600E0A;" cx="-265.7" cy="527.9" r="1.1"/>
			<circle style="fill:#600E0A;" cx="-237.7" cy="521.7" r="1.2"/>
			<path style="fill:#FFFF77;" d="M-307.8,414.2c-1-1.5,4.4-5.8,6.9-4.2C-298.5,411.6-306.3,416.6-307.8,414.2z"/>
			<polygon style="fill:#9A0916;" points="-286.7,547.2 -285.4,541.4 -283.8,542.1 -285.4,547.2 			"/>
			<path style="fill:#CD1D1D;" d="M-286.1,550.4c0,0,6.3,15.6,7,34.9L-286.1,550.4z"/>
			<path style="fill:#D51E23;" d="M-194.2,422.4c0,0-7.6,83.8-7.2,107.4C-201.4,529.7-205.2,443.3-194.2,422.4z"/>
			<path style="fill:#D51E23;" d="M-209.4,422.8c0,0,1.8,73.5,3.4,86.3C-206,509.1-218.2,438.5-209.4,422.8z"/>
			<polygon style="fill:#9A0916;" points="-199.5,547.2 -200.8,541.4 -202.4,542.1 -200.9,547.2 			"/>
			<path style="fill:#CD1D1D;" d="M-200.2,550.4c0,0-6.3,15.6-7,34.9L-200.2,550.4z"/>
		</g>
	</g>
	<g>
		<g>
			<g>
				<rect x="-72.6" y="412.9" style="fill:#FFCC51;" width="112.8" height="5.6"/>
				<g>
					<polygon style="fill:#FF9025;" points="11.7,416.3 -40.2,416.3 -40.5,415 12.3,415 					"/>
					<path style="fill:#FFFF77;" d="M-37.5,413.4h49.8C12.3,413.4-25.7,414.7-37.5,413.4z"/>
				</g>
				<path style="fill:#9A0916;" d="M-56.9,583.7l0.8,7.7l3-0.4v-2.6l1.1,2.5l2.6-0.3c0,0-1.1-26.2-9.6-43.3h-2.6v44.8l4.1-0.5
					L-56.9,583.7z"/>
				<path style="fill:#9A0916;" d="M26.2,547.2c-8.5,17.1-9.6,43.3-9.6,43.3l3.5,0.4l1.2-3.6v3.8l2.3,0.3l0.4-2.2l0.5,1.9
					c0,0,1.7-1.8,1.5-1.5c-0.1,0.2-0.2,1.1-0.3,2.1l3.2,0.4v-44.9H26.2z"/>
				<rect x="-59.7" y="417.1" style="fill:#D51E23;" width="84.3" height="125.6"/>
				<rect x="-55.8" y="421.1" style="fill:#47090A;" width="78.5" height="117.6"/>
				<path style="fill:#600E0A;" d="M-30.6,497.8c-0.2-0.8-0.5-1.7-1.1-2.2s-1.7-0.6-2.2,0.1c-0.4,0.5-0.2,1.2-0.1,1.8
					c-0.8-1.4-3-1.4-3.9-0.1c-0.3-0.8-1-1.5-1.8-1.6s-1.8,0.5-1.8,1.3c-0.1-0.1-0.2-0.2-0.4-0.4c-0.2,1.3-0.5,2.6-0.7,3.9
					c0,0,0,0,0.1,0c3.1,0.2,6.2,0.4,9.3,0.5c0.7,0,1.4,0.1,2-0.3C-30.3,500.3-30.4,498.9-30.6,497.8z"/>
				<g>
					<path style="fill:#600E0A;" d="M-34.2,531.9c-1.7-0.2-3.5,0.9-3.9,2.6c-0.6-0.7-1.4-1.5-2.3-1.8c-1-0.3-2.1,0.1-2.5,1
						c0-1.4-1.1-2.7-2.5-3s-2.9,0.4-3.6,1.6c-0.4-0.7-0.8-1.4-1.4-2c-0.7,2-1.4,4-2.1,5.9c2.7,0.4,6.2,0.6,6.8,0.7
						c3.7,0.2,7.5,0.3,11.1-0.2c1.9-0.3,3-0.5,3.7-1.7C-31.4,533.5-32.7,532.2-34.2,531.9z"/>
					<path style="fill:#600E0A;" d="M-4.1,533.1c-0.4-1.2-1.4-2.3-2.6-2.4s-2.5,1.2-2.1,2.3c-0.4-1.2-2.2-1.5-3.1-0.6
						c-0.7-0.8-1.2-1.9-1.9-2.8c-0.7-0.9-1.9-1.6-2.9-1.2c-1.4,0.5-1.7,2.3-1.6,3.7c-0.5-0.4-1.1-0.8-1.8-0.9
						c-0.7-0.1-1.4,0.2-1.7,0.8c-0.3-1-1.3-1.7-2.3-1.8c-1,0-2.1,0.7-2.4,1.6c-0.1-1.2-1.5-1.9-2.6-1.5c-1.4,0.5-1.1,2.1-1.4,3.2
						c-0.2,0.6-0.3,1.1-0.6,1.5c0,0.1,0.1,0.3,0.1,0.4c0,0.2,0,0.4-0.1,0.6l1.5,0.4c8.5,0.9,17.1,1,25.7,0.4
						C-3.8,535.6-3.7,534.3-4.1,533.1z"/>
				</g>
				<path style="fill:#600E0A;" d="M-31.1,451.6c-1.5,0.1-3,1.4-3,3c-0.5-0.8-1.5-1.5-2.4-1.5c-0.3,0-0.6,0.1-0.9,0.3
					c0,1.8-0.1,3.6-0.2,5.4c1.1,0.1,2.2,0.1,3.2,0c1.1,0,2.2-0.1,3.3-0.1V451.6z"/>
				<path style="fill:#600E0A;" d="M-28.7,452.1c1.3-0.2,2.3,0.9,3.1,1.9c0.3-0.7,1-1.2,1.8-1.3c0.8,0,1.5,0.5,1.8,1.2
					c0.9-1,2.8-0.9,3.5,0.3c-0.2-2,1.5-3.9,3.4-4c2-0.1,3.9,1.7,3.9,3.7c0.7-0.9,2.3-0.6,2.7,0.4c0.1-1.3,2-1.7,3-0.9
					c1,0.8,1.2,2.3,1.3,3.6c0,0.2,0,0.4-0.1,0.6c-0.1,0.1-0.3,0.2-0.5,0.2c-8.2,1.2-16.6,1.2-24.8-0.1c-0.2,0-0.4-0.1-0.6-0.2
					c-0.2-0.2-0.2-0.4-0.2-0.7c-0.1-0.9-0.2-1.8,0-2.7S-29.6,452.3-28.7,452.1z"/>
				<path style="fill:#600E0A;" d="M-0.5,458.4c-1-0.3-2.1-0.8-2.4-1.8c-0.2-0.7,0-1.4,0.2-2.1c0.2-0.6,0.4-1.2,1-1.4
					c0.5-0.1,1,0.2,1.3,0.5c0.3,0.4,0.5,0.8,0.8,1.3c0-1,1-1.8,1.9-1.8c1,0,1.9,0.6,2.4,1.5c0-1.6,1.5-2.9,3.1-3
					c1.6,0,3.1,1,3.8,2.4c0.8,1.4,0.9,3,0.7,4.6c-2.7,0.1-5.3,0.2-8,0.2C2.8,458.8,1.1,458.9-0.5,458.4z"/>
				<path style="fill:#600E0A;" d="M5.4,495.4c0.1,0.1,0.2,0.2,0.4,0.3c0.2,0.1,0.5-0.1,0.7-0.2c0.7-0.3,1.7,0.3,1.8,1.1
					c0.3-0.9,0.6-1.9,1.2-2.7c0.6-0.8,1.5-1.4,2.5-1.3c0.7,0,1.3,0.4,1.8,0.8c1.7,1.5,2,4,2.2,6.2c0,0.3,0,0.5-0.1,0.7
					c-0.1,0.1-0.3,0.2-0.4,0.2c-5.4,1.4-11.1,1.7-16.5,0.7c-0.6-0.1-1.2-0.2-1.6-0.6c-0.7-0.6-0.7-1.7-0.6-2.6
					c0.1-1.2,0.2-2.4,0.8-3.4c0.6-1,1.9-1.7,3-1.2c0.9,0.4,1.3,1.4,1.6,2.2C2.9,494.7,4.5,494.6,5.4,495.4z"/>
				<path style="fill:#600E0A;" d="M-29.5,536.4c7.1,0.7,14.3,1,21.4,0.7c3.6-0.2,3.7-0.2,4.9-3.2c0.7-1.6,4.2-4,4.4-0.7
					c0.4-0.9,0.8-1.7,1.5-2.4c0.7-0.7,1.6-1.1,2.5-1c1.2,0.2,2,1.4,2.6,2.5c1.2-1,3.4-0.3,3.7,1.3c1.2-0.9,3.2-0.5,3.8,0.9
					c0.9-1.3,2.7-2,4.2-1.6c1.6,0.4,2.8,1.9,2.9,3.5c0,0.2,0,0.4-0.1,0.6s-0.4,0.2-0.6,0.3c-7.9,1.7-16.1,0.5-24-0.8"/>
				<path style="fill:#600E0A;" d="M-12.5,501.1c-6-0.2-11.9-0.5-17.9-0.7c0.2-1.7-0.1-3.3,0-5c0.2-1.7,1-3.4,2.6-3.9
					c1.5-0.5,3.2,0.4,3.7,1.9c0.5-0.8,2-0.5,2.1,0.5c0.5-0.6,1.5-0.4,1.9,0.2c0.5,0.6,0.6,1.4,0.6,2.1c0.1-0.9,0.3-1.8,0.7-2.6
					c0.4-0.8,1.2-1.4,2.1-1.5c0.9,0,1.7,0.5,2.1,1.3c0.5,0.7,0.7,1.6,0.9,2.4c0.4-0.8,1.8-0.8,2.1,0.1c-0.3-0.4,0.3-1,0.8-1
					s0.9,0.4,1.3,0.7c-0.2-1.5,0.1-3,0.9-4.3c0.3-0.5,0.7-1,1.3-1.2c0.9-0.3,1.8,0.2,2.4,0.9c0.5,0.7,0.7,1.6,0.9,2.5
					c0.4,2.4,0.7,4.9,0.7,7.4C-6.3,501.3-9.4,501.2-12.5,501.1z"/>
				<g>
					<circle style="fill:#600E0A;" cx="-17" cy="478.7" r="1.9"/>
					<circle style="fill:#600E0A;" cx="3" cy="435.2" r="1.9"/>
					<circle style="fill:#600E0A;" cx="-13.8" cy="444.7" r="1.9"/>
					<circle style="fill:#600E0A;" cx="-14.8" cy="470" r="1.1"/>
					<circle style="fill:#600E0A;" cx="-22.3" cy="445.7" r="1.1"/>
					<circle style="fill:#600E0A;" cx="-18.9" cy="437.1" r="1.1"/>
					<circle style="fill:#600E0A;" cx="3" cy="442.8" r="1.1"/>
					<circle style="fill:#600E0A;" cx="-22.3" cy="472.4" r="1.5"/>
				</g>
				<rect x="-32.7" y="426.6" style="fill:#8F0D15;" width="3.3" height="112.2"/>
				<rect x="-5.7" y="426.6" style="fill:#8F0D15;" width="3.3" height="112.2"/>
				<path style="fill:#8F0D15;" d="M-42.4,499.6c-0.2,1.1-0.4,2.2-0.7,3.3h63.9v-3.3H-42.4z"/>
				<rect x="-55.8" y="420.5" style="fill:#8F0D15;" width="76.6" height="3.3"/>
				<rect x="-55.9" y="535.5" style="fill:#8F0D15;" width="79.8" height="3.3"/>
				<path style="fill:#9A0916;" d="M-56.9,541.4c25.8-64.9,14.8-130.5,14.8-130.5h-29.2l10,130.5H-56.9z"/>
				<path style="fill:#D51E23;" d="M-65.1,422.4c0,0,7.6,83.8,7.2,107.4C-57.9,529.7-54.1,443.3-65.1,422.4z"/>
				<path style="fill:#D51E23;" d="M-49.9,422.8c0,0-1.8,73.5-3.4,86.3C-53.3,509.1-41.1,438.5-49.9,422.8z"/>
				<path style="fill:#8F0D15;" d="M-37.6,456.9c0,1.1-0.1,2.2-0.1,3.3h58.6v-3.3H-37.6z"/>
				<path style="fill:#9A0916;" d="M24.1,541.4c-25.8-64.9-9.9-130.5-9.9-130.5h24.4l-10,130.5H24.1z"/>
				<path style="fill:#FFCC51;" d="M-82.2,416c-1.1-6.6,12.2-12.4,12.6-1C-69.3,426.5-80.9,423.7-82.2,416z"/>
				<path style="fill:#FF9025;" d="M-74.5,416.8c-2.2,0.5-4.2,0-6-1c0.6,3.3,3.4,5.3,5.7,5.3c0.9,0,1.6-0.3,2.2-0.9
					c0.9-1,1.4-2.7,1.3-4.9C-72.3,415.9-73.3,416.5-74.5,416.8z"/>
				<g>
					<path style="fill:#FFCC51;" d="M50.4,415.3c1.1,6.6-12.2,12.4-12.6,1S49.1,407.6,50.4,415.3z"/>
				</g>
				<path style="fill:#FF9025;" d="M42.7,416.8c2.2,0.5,4.2,0,6-1c-0.6,3.3-3.4,5.3-5.7,5.3c-0.9,0-1.6-0.3-2.2-0.9
					c-0.9-1-1.4-2.7-1.3-4.9C40.5,415.9,41.5,416.5,42.7,416.8z"/>
				<path style="fill:#FFFF77;" d="M41,410.9c1-1.6,6.3,0.7,6,1.6C46.7,413.3,39.6,413.1,41,410.9z"/>
				<path style="fill:#CD1D1D;" d="M-62.8,541.4c0,0,3.3-3.3,7.3,0l-2.4,6.6h-4.7L-62.8,541.4z"/>
				<path style="fill:#D51E23;" d="M29.9,541.4c0,0-3.3-3.3-7.3,0L25,548h4.7L29.9,541.4z"/>
			</g>
			<circle style="fill:#600E0A;" cx="3.2" cy="469.7" r="1.2"/>
			<circle style="fill:#600E0A;" cx="4.3" cy="483.5" r="2.3"/>
			<circle style="fill:#600E0A;" cx="4.1" cy="489.1" r="0.9"/>
			<circle style="fill:#600E0A;" cx="-23.7" cy="509" r="1"/>
			<circle style="fill:#600E0A;" cx="-15.6" cy="513.3" r="1.8"/>
			<circle style="fill:#600E0A;" cx="-21.5" cy="521.3" r="0.7"/>
			<circle style="fill:#600E0A;" cx="4.8" cy="515.1" r="1.8"/>
			<circle style="fill:#600E0A;" cx="7.9" cy="508.7" r="0.7"/>
			<circle style="fill:#600E0A;" cx="12" cy="522.7" r="2.1"/>
			<circle style="fill:#600E0A;" cx="-42.6" cy="522" r="1.5"/>
			<circle style="fill:#600E0A;" cx="-38.2" cy="508.2" r="1.6"/>
			<circle style="fill:#600E0A;" cx="-38.5" cy="515.8" r="0.7"/>
			<circle style="fill:#600E0A;" cx="-38.8" cy="527.9" r="1.1"/>
			<circle style="fill:#600E0A;" cx="-10.7" cy="521.7" r="1.2"/>
			<path style="fill:#FFFF77;" d="M-80.9,414.2c-1-1.5,4.4-5.8,6.9-4.2S-79.3,416.6-80.9,414.2z"/>
			<polygon style="fill:#9A0916;" points="-59.8,547.2 -58.5,541.4 -56.9,542.1 -58.4,547.2 			"/>
			<path style="fill:#CD1D1D;" d="M-59.1,550.4c0,0,6.3,15.6,7,34.9L-59.1,550.4z"/>
			<path style="fill:#D51E23;" d="M32.8,422.4c0,0-7.6,83.8-7.2,107.4C25.5,529.7,21.8,443.3,32.8,422.4z"/>
			<path style="fill:#D51E23;" d="M17.6,422.8c0,0,1.8,73.5,3.4,86.3C20.9,509.1,8.7,438.5,17.6,422.8z"/>
			<polygon style="fill:#9A0916;" points="27.4,547.2 26.1,541.4 24.5,542.1 26.1,547.2 			"/>
			<path style="fill:#CD1D1D;" d="M26.8,550.4c0,0-6.3,15.6-7,34.9L26.8,550.4z"/>
		</g>
	</g>
</g>
</svg>
