<?xml version="1.0" encoding="utf-8"?>
<!-- Generator: Adobe Illustrator 19.0.0, SVG Export Plug-In . SVG Version: 6.00 Build 0)  -->
<svg version="1.1" id="Layer_1" xmlns="http://www.w3.org/2000/svg" xmlns:xlink="http://www.w3.org/1999/xlink" x="0px" y="0px"
	 viewBox="-156 476 50 50" style="enable-background:new -156 476 50 50;" xml:space="preserve">
<circle style="fill:#0D5C74;" cx="-131" cy="501" r="25"/>
<path style="opacity:0.32;fill:#FFFFFF;enable-background:new    ;" d="M-134.2,503.5c0.2-0.5,0.6-0.8,1-0.8c0.2,0,0.3,0.1,0.4,0.1
	c0.3-1.3,1.2-2.3,2.3-2.3c0.4,0,0.7,0.1,1.1,0.4c0.8-2.7,2.9-4.6,5.4-4.6c1.7,0,3.2,0.9,4.2,2.4c0.4-0.2,0.9-0.3,1.4-0.3
	c1.4,0,2.6,0.9,3.3,2.3c0.2-0.1,0.4-0.1,0.6-0.1c1,0,1.9,1.1,1.9,2.4c0,0.2,0,0.4-0.1,0.6L-134.2,503.5z"/>
<g>
	<path style="fill:#C4FFF9;" d="M-124.6,520.6c0,1,1.5,1,1.5,0S-124.6,519.6-124.6,520.6L-124.6,520.6z"/>
</g>
<g>
	<path style="fill:#C4FFF9;" d="M-140.6,516.3c0,1,1.5,1,1.5,0S-140.6,515.3-140.6,516.3L-140.6,516.3z"/>
</g>
<g>
	<path style="fill:#C4FFF9;" d="M-139.1,499.5c1,0,1-1.5,0-1.5C-140,497.9-140,499.5-139.1,499.5L-139.1,499.5z"/>
</g>
<g>
	<path style="fill:#C4FFF9;" d="M-152,499.9c0,1.6,2.6,1.7,2.6,0C-149.5,498.2-152,498.2-152,499.9L-152,499.9z"/>
</g>
<g>
	<path style="fill:#C4FFF9;" d="M-126.4,494.3c1,0,1-1.5,0-1.5C-127.4,492.7-127.4,494.3-126.4,494.3L-126.4,494.3z"/>
</g>
<g>
	<path style="fill:#C4FFF9;" d="M-141.6,487.5c1,0,1-1.5,0-1.5C-142.6,486-142.6,487.5-141.6,487.5L-141.6,487.5z"/>
</g>
<g>
	<path style="fill:#C4FFF9;" d="M-126.8,487.1c0.7,0,0.7-1,0-1C-127.4,486.1-127.4,487.1-126.8,487.1L-126.8,487.1z"/>
</g>
<g>
	<path style="fill:#C4FFF9;" d="M-150.5,489.5c0.3,0,0.3-0.5,0-0.5C-150.9,488.9-150.9,489.5-150.5,489.5L-150.5,489.5z"/>
</g>
<g>
	<path style="fill:#C4FFF9;" d="M-144.6,494.5c0.3,0,0.3-0.5,0-0.5C-144.9,494-144.9,494.5-144.6,494.5L-144.6,494.5z"/>
</g>
<g>
	<path style="fill:#C4FFF9;" d="M-139.1,483.3c0.3,0,0.3-0.5,0-0.5S-139.4,483.3-139.1,483.3L-139.1,483.3z"/>
</g>
<g>
	<path style="fill:#C4FFF9;" d="M-137.6,484.4c0.3,0,0.3-0.5,0-0.5C-138,483.9-138,484.4-137.6,484.4L-137.6,484.4z"/>
</g>
<g>
	<path style="fill:#C4FFF9;" d="M-134.1,489.1c0.3,0,0.3-0.5,0-0.5C-134.5,488.6-134.5,489.1-134.1,489.1L-134.1,489.1z"/>
</g>
<g>
	<path style="fill:#C4FFF9;" d="M-126.4,482.2c0.3,0,0.3-0.5,0-0.5C-126.7,481.7-126.7,482.2-126.4,482.2L-126.4,482.2z"/>
</g>
<g>
	<path style="fill:#C4FFF9;" d="M-120.5,510.8c0,1.3,2.1,1.3,2.1,0C-118.5,509.5-120.5,509.5-120.5,510.8L-120.5,510.8z"/>
</g>
<g>
	<path style="fill:#C4FFF9;" d="M-118.4,489.3c0,1.3,2.1,1.3,2.1,0C-116.3,488-118.4,488-118.4,489.3L-118.4,489.3z"/>
</g>
<g>
	<path style="fill:#C4FFF9;" d="M-134,515.3c0,1.3,2.1,1.3,2.1,0C-131.9,514-134,513.9-134,515.3L-134,515.3z"/>
</g>
<g>
	<path style="fill:#C4FFF9;" d="M-142.8,508c0,0.7,1,0.7,1,0C-141.7,507.3-142.8,507.3-142.8,508L-142.8,508z"/>
</g>
</svg>
