<?xml version="1.0" encoding="utf-8"?>
<!-- Generator: Adobe Illustrator 19.0.0, SVG Export Plug-In . SVG Version: 6.00 Build 0)  -->
<svg version="1.1" id="Layer_1" xmlns="http://www.w3.org/2000/svg" xmlns:xlink="http://www.w3.org/1999/xlink" x="0px" y="0px"
	 viewBox="-44 -8 50 50" style="enable-background:new -44 -8 50 50;" xml:space="preserve">
<circle style="fill:#5989A1;" cx="-19" cy="17" r="25"/>
<g>
	<path style="fill:none;" d="M-30.7,23.9c-0.1,0.4-0.2,0.5-0.5,0.4c-0.6-0.2-0.5-0.2-0.9-0.4c0.2,1.3,0.5,2.6,0.9,3.9
		c1.7-3.7,3.6-6.6,4.7-8.2c-2,0.1-4.5,0.4-6.2,1.7C-31.9,22.6-31.2,23.2-30.7,23.9z"/>
	<path style="fill:none;" d="M5.5,22.3c0.1-0.6,0.2-1.2,0.3-1.8c-0.6,0-1.2-0.1-1.7-0.1C4.6,21,5,21.6,5.5,22.3z"/>
	<path style="fill:#9E5738;" d="M4.1,20.4c0.5,0,1.1,0,1.7,0.1C5.9,19.9,6,19.3,6,18.7c-1.4-0.2-2.8-0.3-3.8-0.5
		C2.9,18.9,3.5,19.6,4.1,20.4z"/>
	<path style="fill:#9E5738;" d="M-32.1,23.9c0.4,0.2,0.3,0.2,0.9,0.4c0.3,0.1,0.4,0,0.5-0.4c-0.5-0.7-1.2-1.3-2-2.6
		c1.7-1.3,4.2-1.6,6.2-1.7c0.3-0.4,0.5-0.7,0.7-0.9c0.3-0.4,0.7-0.8,1-1.2c-3.7,0.4-9.5,1.1-9.4,3.8c0,2,1.2,6.9,1.5,7.8
		c0.2,0.3,0.3,0.7,0.5,1.1c0.3-0.8,0.7-1.6,1-2.4C-31.6,26.5-31.9,25.2-32.1,23.9z"/>
	<path style="fill:#FFFFFF;" d="M-3.6,5.3c0,0.1,0.1,0.2,0.1,0.2c0.4-0.1,0.7-0.3,0.9-0.6c0.4-0.7,0.2-1.6-0.6-2
		c-0.9-0.5-2.1-0.4-2.5,0.3c0,0,0,0.1-0.1,0.1C-4.9,3.7-4.2,4.3-3.6,5.3z"/>
	<path style="fill:#779978;" d="M-2.3,11.5c0.3-2-0.3-4.2-1.2-6c0-0.1-0.1-0.2-0.1-0.2c-0.6-1-1.3-1.6-2.2-2c-3.1-1.5-7.6,0.3-9.4,2
		C-10.5,3.4-4.3,5.7-2.3,11.5z"/>
	<path style="fill:#FFFFFF;" d="M-16.6,9.8c0.5,0,0.9,0.3,0.9,0.8c0,0.3-0.2,0.6-0.4,0.7c0.7,0.4,1.2,0.7,1.4,0.8
		c0.8,0.4,1.3,1.4,0.9,2.3c0,0,0,0,0,0.1c0.3,0.1,0.5,0.2,0.7,0.3c0.5,0.3,0.5,0.4,0.5,0.4c-0.2,0-0.3,0-0.4,0
		c0.5,0.1,1,0.1,1.6,0.2c4.3,0.4,7.5-2.1,9.2-3.7c0-0.1,0-0.1-0.1-0.2c-2-5.9-8.2-8.1-12.8-6.3C-17,6-18.7,7.4-19.7,9.6
		c0.7,0.3,1.4,0.6,2.2,1C-17.5,10.1-17.1,9.8-16.6,9.8z M-10.7,12c-0.5,0-0.9-0.4-0.9-0.9s0.4-0.8,0.9-0.8c0.4,0,0.9,0.2,0.9,0.8
		C-9.8,11.6-10.2,12-10.7,12z M-9.2,14.7c-0.5,0.1-1-0.3-1-0.7c-0.1-0.5,0.3-0.9,0.9-0.9c0.5-0.1,1,0.3,1,0.7
		C-8.3,14.3-8.7,14.6-9.2,14.7z"/>
	<path style="fill:#FFFFFF;" d="M2.2,18.2c-0.8-0.8-1.7-1.7-2.7-2.6C-1.7,19.1-7,21.4-11.9,21c-0.5,0-1.1-0.1-1.7-0.2
		c-0.1,0.8-0.2,1.6-0.3,2.5c0,0.2,0,0.2-0.1,0.3c0.1,0.3,0.1,0.7,0.1,1.2c0,0.9-0.1,1.6-0.3,1.6c-0.2,0-0.3-0.7-0.3-1.6
		c0-0.4,0-0.7,0.1-1c-0.2,0-0.4,0-0.6,0c0,0.3,0.1,0.6,0.1,0.9c0,0.9-0.1,1.6-0.3,1.6c-0.2,0-0.3-0.7-0.3-1.6c0-0.3,0-0.6,0.1-0.9
		c-0.2,0-0.3,0-0.5,0c0,0.3,0.1,0.6,0.1,0.9c0,0.9-0.1,1.6-0.3,1.6c-0.1,0-0.3-0.5-0.3-1.2c-0.1,0-0.2,0-0.3,0.1
		c0,0.3,0.1,0.6,0.1,1c0,0.9-0.1,1.6-0.3,1.6c-0.2,0-0.3-0.7-0.3-1.6c0-0.4,0-0.7,0.1-1c-0.2,0-0.5,0-0.7,0c0,0.3,0.1,0.6,0.1,1
		c0,0.9-0.1,1.6-0.3,1.6c-0.2,0-0.3-0.7-0.3-1.6c0-0.4,0-0.7,0.1-1c-0.3,0-0.6-0.1-0.9-0.1c0.1,0.3,0.1,0.7,0.1,1.1
		c0,0.9-0.1,1.6-0.3,1.6c-0.2,0-0.3-0.7-0.3-1.6c0-0.5,0-0.9,0.1-1.2c-0.3-0.1-0.5-0.1-0.7-0.2c0,0.3,0.1,0.7,0.1,1.1
		c0,0.9-0.1,1.6-0.3,1.6c-0.2,0-0.3-0.7-0.3-1.6c0-0.5,0-0.9,0.1-1.2c-0.2-0.1-0.3-0.1-0.3-0.1c-0.5-1.8-0.1-4.4,0.6-6.6
		c-1.1-0.7-1.9-1.6-2.2-2.5c-0.6,0.6-1.3,1.2-2,1.9c-0.4,0.4-0.7,0.7-1,1.2c-0.2,0.2-0.4,0.5-0.7,0.9c-1.1,1.5-3,4.4-4.7,8.2
		c-0.4,0.8-0.7,1.6-1,2.4c-0.8,2-1.5,4.2-2,6.5c4.2,3.3,9.6,5.3,15.4,5.3c12,0,22-8.4,24.4-19.7C5,21.6,4.6,21,4.1,20.4
		C3.5,19.6,2.9,18.9,2.2,18.2z M-14.1,32.8c-0.8,0.4-1.7,0-2.1-0.8c-0.4-0.8,0-1.7,0.8-2.1c0.9-0.3,1.9,0.4,2.2,1.2
		C-12.8,31.9-13.3,32.4-14.1,32.8z"/>
	<path style="fill:#3E3D40;" d="M-9.8,11.1c0-0.6-0.5-0.8-0.9-0.8c-0.5,0-0.9,0.3-0.9,0.8s0.4,0.9,0.9,0.9S-9.8,11.6-9.8,11.1z
		 M-10.4,11.5c-0.2,0-0.4-0.2-0.4-0.4s0.1-0.3,0.4-0.3c0.2-0.1,0.4,0.1,0.4,0.3S-10.2,11.5-10.4,11.5z"/>
	<path style="fill:#FFFFFF;" d="M-10.4,10.8c-0.3,0-0.4,0.1-0.4,0.3s0.2,0.4,0.4,0.4c0.2,0,0.4-0.2,0.4-0.4S-10.2,10.7-10.4,10.8z"
		/>
	<path style="fill:#3E3D40;" d="M-15.7,10.6c0-0.5-0.4-0.8-0.9-0.8c-0.5,0-0.9,0.3-0.9,0.8c0.5,0.3,1,0.5,1.4,0.7
		C-15.9,11.2-15.7,10.9-15.7,10.6z M-16.3,10.9c-0.2,0-0.4-0.2-0.4-0.4c0-0.2,0.1-0.3,0.4-0.3c0.2,0,0.4,0.1,0.4,0.3
		S-16.1,10.9-16.3,10.9z"/>
	<path style="fill:#FFFFFF;" d="M-16.3,10.2c-0.3,0-0.4,0.1-0.4,0.3c0,0.2,0.2,0.4,0.4,0.4s0.4-0.2,0.4-0.4S-16.1,10.2-16.3,10.2z"
		/>
	<path style="fill:#FF9D8D;" d="M-9.3,13.1c-0.6,0-1,0.4-0.9,0.9c0,0.4,0.5,0.8,1,0.7s0.9-0.4,0.9-0.9C-8.3,13.4-8.8,13-9.3,13.1z"
		/>
	<path style="fill:#B51C1C;" d="M-16.5,23.5c0-0.1,0.1-0.2,0.2-0.2c0.1,0,0.2,0.3,0.2,0.7c0.2,0,0.4,0,0.5,0
		c0.1-0.4,0.1-0.7,0.2-0.7c0.1,0,0.2,0.3,0.2,0.7c0.2,0,0.4,0,0.6,0c0.1-0.4,0.1-0.6,0.2-0.6c0.1,0,0.1,0.2,0.2,0.4
		c0.1-0.1,0.1-0.1,0.1-0.3c0.1-0.9,0.2-1.8,0.3-2.5c-0.8-0.1-1.7-0.3-2.5-0.6C-16.4,21.4-16.5,22.6-16.5,23.5z"/>
	<path style="fill:#B51C1C;" d="M-16.3,23.3c-0.1,0-0.1,0.1-0.2,0.2c0,0.9,0,1.5,0,1.5v0.3c0,0-0.1,0-0.1,0c0,0.7,0.1,1.2,0.3,1.2
		c0.2,0,0.3-0.7,0.3-1.6c0-0.4,0-0.7-0.1-0.9C-16.2,23.6-16.2,23.3-16.3,23.3z"/>
	<path style="fill:#B51C1C;" d="M-15.3,23.2c-0.1,0-0.2,0.3-0.2,0.7c0,0.3-0.1,0.6-0.1,0.9c0,0.9,0.1,1.6,0.3,1.6
		c0.2,0,0.3-0.7,0.3-1.6c0-0.4,0-0.7-0.1-0.9C-15.2,23.5-15.2,23.2-15.3,23.2z"/>
	<path style="fill:#B51C1C;" d="M-14.2,23.2c-0.1,0-0.2,0.2-0.2,0.6c0,0.3-0.1,0.6-0.1,1c0,0.9,0.1,1.6,0.3,1.6
		c0.2,0,0.3-0.7,0.3-1.6c0-0.5,0-0.9-0.1-1.2C-14.1,23.4-14.2,23.2-14.2,23.2z"/>
	<path style="fill:#CE2020;" d="M-20.6,18.2c0.7-2.1,1.6-3.9,2.4-4.3c0,0,0.1,0,0.1,0c-0.8-0.8-1.8-1.8-2.5-2.7
		c-2.1,1.6-2.6,3.1-2.2,4.5C-22.5,16.6-21.7,17.5-20.6,18.2z"/>
	<path style="fill:#CE2020;" d="M-11.4,15.4c-0.6,0-1.1-0.1-1.6-0.2c-1.9,0.2-2.7,2.6-3.1,5c0.9,0.3,1.7,0.5,2.5,0.6
		c0.6,0.1,1.2,0.2,1.7,0.2c4.9,0.4,10.3-1.9,11.4-5.4c0.2-0.7,0.3-1.4,0.2-2.2c-0.2-1.1-0.5-1.7-1.6-2c-0.1,0.1-0.2,0.2-0.3,0.3
		C-4,13.3-7.1,15.8-11.4,15.4z"/>
	<path style="fill:#F48357;" d="M-16.9,13.7c1,0.1,2.1,0.4,3,0.7c0,0,0.1,0,0.1,0c0.4-0.9-0.1-1.9-0.9-2.3c-0.2-0.1-0.7-0.4-1.4-0.8
		c-0.4-0.2-0.9-0.5-1.4-0.7c-0.7-0.4-1.5-0.7-2.2-1c-1-0.4-1.8-0.6-2-0.3C-20.9,10.3-18.9,12.5-16.9,13.7z M-15.9,11.8
		c0.2,0,0.7,0.4,0.8,0.8c0.1,0.4,0,0.8-0.2,0.9c-0.2,0.1-0.4-0.3-0.5-0.7C-15.9,12.2-16.1,11.8-15.9,11.8z M-17.1,11.1
		c0.1,0,0.5,0.2,0.5,0.5s0,0.5-0.1,0.6c-0.1,0-0.4-0.3-0.5-0.5C-17.3,11.4-17.2,11.1-17.1,11.1z M-18,10.7c0.1,0,0.2,0.1,0.2,0.2
		c0,0.1-0.1,0.2-0.2,0.2s-0.2,0-0.2-0.2C-18.2,10.8-18.1,10.7-18,10.7z M-19,10.3c0.1,0,0.2,0.1,0.2,0.2c0,0.1-0.1,0.2-0.2,0.2
		s-0.2,0-0.2-0.2C-19.2,10.4-19.1,10.3-19,10.3z"/>
	<path style="fill:#DD6C4A;" d="M-13.8,14.4C-13.9,14.4-13.9,14.4-13.8,14.4C-13.9,14.4-13.9,14.4-13.8,14.4
		C-13.9,14.4-13.8,14.4-13.8,14.4z"/>
	<path style="fill:#DD6C4A;" d="M-18.1,13.9c0.3-0.1,0.7-0.2,1.2-0.1c-1.9-1.2-4-3.4-4.7-4.4c-0.1,0.3,0.3,1,1,1.9
		C-19.9,12.1-19,13-18.1,13.9z"/>
	<path style="fill:#DD6C4A;" d="M-15.3,13.5c0.2-0.1,0.3-0.5,0.2-0.9c-0.1-0.4-0.6-0.8-0.8-0.8c-0.2,0,0,0.4,0.1,1
		C-15.7,13.2-15.5,13.6-15.3,13.5z"/>
	<path style="fill:#DD6C4A;" d="M-17.2,11.7c0.1,0.2,0.4,0.5,0.5,0.5c0.1-0.1,0.1-0.3,0.1-0.6s-0.4-0.5-0.5-0.5
		C-17.2,11.1-17.3,11.4-17.2,11.7z"/>
	<path style="fill:#DD6C4A;" d="M-18,11.1c0.1,0,0.2-0.1,0.2-0.2c0-0.1-0.1-0.2-0.2-0.2c-0.1,0-0.2,0.1-0.2,0.2
		C-18.2,11.1-18.1,11.1-18,11.1z"/>
	<path style="fill:#DD6C4A;" d="M-19,10.7c0.1,0,0.2-0.1,0.2-0.2c0-0.1-0.1-0.2-0.2-0.2c-0.1,0-0.2,0.1-0.2,0.2
		C-19.2,10.7-19.1,10.7-19,10.7z"/>
	<path style="fill:#E22323;" d="M-16.5,25c0,0,0-0.6,0-1.5c0-0.9,0.1-2.1,0.3-3.4c0.4-2.3,1.2-4.7,3.1-5c0.1,0,0.3,0,0.4,0
		c0,0,0-0.1-0.5-0.4c-0.2-0.1-0.5-0.2-0.7-0.3c0,0,0,0-0.1,0c-0.9-0.4-2.1-0.7-3-0.7c-0.5,0-0.9,0-1.2,0.1c0,0-0.1,0-0.1,0
		c-0.7,0.4-1.7,2.2-2.4,4.3c-0.7,2.2-1.2,4.9-0.6,6.6c0,0,0.1,0,0.3,0.1c0.1-0.2,0.1-0.4,0.2-0.4c0.1,0,0.2,0.2,0.2,0.5
		c0.2,0.1,0.4,0.1,0.7,0.2c0.1-0.2,0.1-0.4,0.2-0.4c0.1,0,0.2,0.2,0.2,0.5c0.3,0,0.6,0.1,0.9,0.1c0.1-0.4,0.1-0.6,0.2-0.6
		c0.1,0,0.2,0.3,0.2,0.6c0.2,0,0.5,0,0.7,0c0.1-0.4,0.1-0.6,0.2-0.6c0.1,0,0.2,0.2,0.2,0.6c0.1,0,0.2,0,0.3-0.1c0,0,0.1,0,0.1,0V25z
		"/>
	<path style="fill:#E22323;" d="M-20.7,24.5c-0.1,0-0.1,0.2-0.2,0.4c-0.1,0.3-0.1,0.7-0.1,1.2c0,0.9,0.1,1.6,0.3,1.6
		c0.2,0,0.3-0.7,0.3-1.6c0-0.4,0-0.8-0.1-1.1C-20.6,24.7-20.7,24.5-20.7,24.5z"/>
	<path style="fill:#E22323;" d="M-19.6,24.8c-0.1,0-0.1,0.2-0.2,0.4c-0.1,0.3-0.1,0.7-0.1,1.2c0,0.9,0.1,1.6,0.3,1.6
		c0.2,0,0.3-0.7,0.3-1.6c0-0.4,0-0.8-0.1-1.1C-19.5,25-19.6,24.8-19.6,24.8z"/>
	<path style="fill:#E22323;" d="M-18.3,24.8c-0.1,0-0.2,0.2-0.2,0.6c0,0.3-0.1,0.6-0.1,1c0,0.9,0.1,1.6,0.3,1.6
		c0.2,0,0.3-0.7,0.3-1.6c0-0.4,0-0.7-0.1-1C-18.2,25.1-18.2,24.8-18.3,24.8z"/>
	<path style="fill:#E22323;" d="M-17.1,24.8c-0.1,0-0.2,0.2-0.2,0.6c0,0.3-0.1,0.6-0.1,1c0,0.9,0.1,1.6,0.3,1.6
		c0.2,0,0.3-0.7,0.3-1.6c0-0.4,0-0.7-0.1-1C-17,25-17,24.8-17.1,24.8z"/>
	<path style="fill:#3E3D40;" d="M-15.4,29.9c-0.8,0.4-1.2,1.3-0.8,2.1c0.4,0.8,1.3,1.2,2.1,0.8s1.3-0.9,0.9-1.7
		C-13.5,30.3-14.5,29.6-15.4,29.9z"/>
</g>
</svg>
