<?xml version="1.0" encoding="utf-8"?>
<!-- Generator: Adobe Illustrator 19.0.0, SVG Export Plug-In . SVG Version: 6.00 Build 0)  -->
<svg version="1.1" id="Layer_1" xmlns="http://www.w3.org/2000/svg" xmlns:xlink="http://www.w3.org/1999/xlink" x="0px" y="0px"
	 viewBox="170 277.9 380 380" style="enable-background:new 170 277.9 380 380;" xml:space="preserve">
<path style="fill:#EFD9CB;" d="M548.1,657.9c-0.2-26.2,0-380,0-380h-377c0,0,0.1,343.8,0,380H548.1z"/>
<polygon style="fill:#FFEFE6;" points="356.2,278.2 347.1,278.2 347.5,328.1 347.2,381.2 348,492.5 348,623.9 356.2,623.9 
	356.2,454.4 356.1,357 "/>
<polygon style="fill:#FFEFE6;" points="319.7,278.2 310.8,278.2 311.1,313.3 310.8,368.8 311.5,485.1 311.5,622.4 319.8,622.4 
	319.8,445.2 319.6,343.5 "/>
<polygon style="fill:#FFEFE6;" points="300.9,278.2 291.6,278.2 292.2,347.4 292,396.7 292.7,500.1 292.7,622.1 300.9,622.1 
	300.9,464.6 300.8,374.2 "/>
<polygon style="fill:#FFEFE6;" points="281.7,278.2 272.7,278.2 273.1,326.6 272.8,379.3 273.5,489.8 273.5,620.2 281.8,620.2 
	281.8,451.9 281.6,355.2 "/>
<polygon style="fill:#FFEFE6;" points="262.3,278.2 253.1,278.2 253.6,340.3 253.3,389.6 254.1,493 254.1,615 262.3,615 
	262.3,457.6 262.2,367.1 "/>
<polygon style="fill:#FFEFE6;" points="241.6,278.2 232.4,278.2 232.9,335.5 232.6,384.8 233.3,488.1 233.3,610.1 241.6,610.1 
	241.6,452.7 241.4,362.3 "/>
<polygon style="fill:#FFEFE6;" points="221.8,278.2 212.5,278.2 213.1,352.3 212.8,404.6 213.6,514.1 213.6,643.3 221.8,643.3 
	221.8,476.5 221.6,380.7 "/>
<polygon style="fill:#FFEFE6;" points="201.7,278.2 192.3,278.2 193,353.4 192.7,403.8 193.5,509.6 193.5,634.4 201.7,634.4 
	201.7,473.3 201.5,380.8 "/>
<polygon style="fill:#FFEFE6;" points="182.2,278.2 172.9,278.2 173.5,352.4 173.3,401.7 174,504.9 174,626.9 182.2,626.9 
	182.2,469.6 182.1,379.2 "/>
<polygon style="fill:#FFEFE6;" points="337.9,278.2 328.7,278.2 329.2,340.1 329,389.4 329.7,492.7 329.7,614.7 338,614.7 
	338,457.3 337.8,366.9 "/>
<polygon style="fill:#FFEFE6;" points="449.1,278.2 440.2,278.2 440.5,315.2 440.2,370.4 440.9,486 440.9,622.6 449.2,622.6 
	449.2,446.4 449,345.2 "/>
<polygon style="fill:#FFEFE6;" points="412.7,278.2 403.9,278.2 404,301.9 403.8,360 404.5,481.9 404.5,625.7 412.8,625.7 
	412.8,440.1 412.6,333.5 "/>
<polygon style="fill:#FFEFE6;" points="393.9,278.2 384.7,278.2 385.2,329.9 384.9,379.2 385.7,482.5 385.7,604.6 393.9,604.6 
	393.9,447.1 393.7,356.7 "/>
<polygon style="fill:#FFEFE6;" points="374.7,278.2 365.7,278.2 366,316.3 365.8,371.1 366.5,485.9 366.5,621.4 374.7,621.4 
	374.7,446.5 374.6,346.1 "/>
<polygon style="fill:#FFEFE6;" points="430.9,278.2 421.8,278.2 422.2,322.5 421.9,371.8 422.7,475.2 422.7,597.2 430.9,597.2 
	430.9,439.8 430.8,349.3 "/>
<polygon style="fill:#FFEFE6;" points="523,278.2 513.8,278.2 514.3,334.4 514,383.6 514.7,487 514.7,609 523,609 523,451.6 
	522.8,361.1 "/>
<polygon style="fill:#FFEFE6;" points="541.5,278.2 532.2,278.2 532.8,348.8 532.5,397 533.3,498.3 533.3,617.8 541.5,617.8 
	541.5,463.6 541.4,375 "/>
<polygon style="fill:#FFEFE6;" points="486.5,278.2 477.5,278.2 477.8,325.3 477.6,379 478.3,491.6 478.3,624.4 486.6,624.4 
	486.6,453 486.4,354.5 "/>
<polygon style="fill:#FFEFE6;" points="467.7,278.2 458.4,278.2 459,351.2 458.7,402.8 459.5,511.1 459.5,638.9 467.7,638.9 
	467.7,474 467.6,379.3 "/>
<polygon style="fill:#FFEFE6;" points="504.7,278.2 495.4,278.2 496,351.7 495.8,401.9 496.5,507.2 496.5,631.5 504.7,631.5 
	504.7,471.1 504.6,379 "/>
<rect x="170" y="593.6" style="fill:#99887A;" width="380" height="64.3"/>
<rect x="171.5" y="575.3" style="fill:#FCF2ED;" width="376.1" height="18.4"/>
<rect x="171.5" y="575.3" style="fill:#FFFFFF;" width="377" height="2.2"/>
<rect x="171.4" y="608.7" style="fill:#7C6757;" width="376.6" height="1.7"/>
<rect x="171.4" y="625.7" style="fill:#7C6757;" width="376.7" height="1.7"/>
<rect x="171.4" y="642.7" style="fill:#7C6757;" width="376.6" height="1.7"/>
<path style="opacity:0.82;fill:#D6CBC5;" d="M533.4,342.6L504.8,318c-1.1-0.9-2.5-1.3-3.8-1.2v0c-1.1,0-2.1,0.3-3,1l-31.7,24
	c-2.3,1.7-2.7,5-1,7.3c1.6,2.1,4.6,2.6,6.9,1.2l2.7,4.1c0.2-0.1,2.1-1.6,4.9-3.6l0,0.1l0,0l0.1,1.6l2.1,45.6l7.7,0.3v9.5
	c-1.1,1-2,4.2-2,7.9c0,4.6,1.2,8.3,2.8,8.3c1.5,0,2.8-3.7,2.8-8.3c0-3.7-0.8-6.9-2-7.9v-9.4l11.2,0.4v25.3c-3,0.5-5.2,3-5.2,6.1
	c0,3.4,2.8,6.2,6.2,6.2c3.4,0,6.2-2.8,6.2-6.2c0-3.2-2.4-5.9-5.6-6.2v-25.2l12.3,0.4l2.2-43.6l0,0l0.2-3.9l2.9,2.7l4.1-4.6l0.7,0.6
	c2.2,1.9,5.4,1.6,7.3-0.5C535.8,347.8,535.5,344.5,533.4,342.6z"/>
<g>
	<polygon style="fill:#FFEFE6;" points="247.4,318.1 247.4,364.5 204.8,364.5 201.9,361.1 204.8,318.1 244.5,314.7 	"/>
	<polygon style="fill:#FFEFE6;" points="247.4,428.3 204.8,428.3 201.9,424.9 204.8,381.9 244.5,378.5 247.4,381.9 	"/>
</g>
<rect x="200.8" y="314.7" style="fill:#99887A;" width="42.7" height="46.4"/>
<rect x="206.8" y="321.1" style="fill:#F7EAE2;" width="30.5" height="33.5"/>
<rect x="210.6" y="325.5" style="fill:#FFFFFF;" width="23.1" height="24.7"/>
<g>
	<path style="fill:#EA3131;" d="M229.9,337.5H228l1.4-0.8c0.1-0.1,0.2-0.2,0.1-0.4c-0.1-0.1-0.2-0.2-0.4-0.1l-2.1,1.2c0,0,0,0-0.1,0
		h-0.6l1.4-0.8c0.1-0.1,0.2-0.2,0.1-0.4c-0.1-0.1-0.2-0.2-0.4-0.1l-1.6,1c-0.1-0.6-0.3-1.1-0.7-1.6l1.9-0.5c0.1,0,0.2-0.2,0.2-0.3
		s-0.2-0.2-0.3-0.2l-1.6,0.4l0.5-0.5c0,0,0,0,0.1,0l2.3-0.6c0.1,0,0.2-0.2,0.2-0.3c0-0.1-0.2-0.2-0.3-0.2l-1.6,0.4l1.3-1.3
		c0.1-0.1,0.1-0.4,0-0.5c-0.1-0.1-0.4-0.1-0.5,0l-1.3,1.3l0.4-1.6c0-0.1-0.1-0.3-0.2-0.3c-0.1,0-0.3,0.1-0.3,0.2l-0.6,2.3
		c0,0,0,0,0,0.1l-0.5,0.5l0.4-1.6c0-0.1-0.1-0.3-0.2-0.3c-0.1,0-0.3,0.1-0.3,0.2l-0.5,1.9c-0.5-0.4-1.1-0.6-1.7-0.7l1.1-1.8
		c0.1-0.1,0-0.3-0.1-0.4c-0.1-0.1-0.3,0-0.4,0.1l-0.8,1.4v-0.6c0,0,0,0,0-0.1l1.2-2.1c0.1-0.1,0-0.3-0.1-0.4c-0.1-0.1-0.3,0-0.4,0.1
		l-0.8,1.4v-1.6c0-0.2-0.2-0.4-0.4-0.4c-0.2,0-0.4,0.2-0.4,0.4v1.6l-0.8-1.4c-0.1-0.1-0.2-0.2-0.4-0.1c-0.1,0.1-0.2,0.2-0.1,0.4
		l1.2,2.1c0,0,0,0,0,0.1v0.6l-0.8-1.4c-0.1-0.1-0.2-0.2-0.4-0.1c-0.1,0.1-0.2,0.2-0.1,0.4l1.1,1.8c-0.6,0.1-1.2,0.3-1.7,0.7
		l-0.5-1.9c0-0.1-0.2-0.2-0.3-0.2c-0.1,0-0.2,0.2-0.2,0.3l0.4,1.6l-0.5-0.5c0,0,0,0,0-0.1l-0.6-2.3c0-0.1-0.2-0.2-0.3-0.2
		c-0.1,0-0.2,0.2-0.2,0.3l0.4,1.6l-1.1-1.1c-0.1-0.1-0.4-0.1-0.5,0c-0.1,0.1-0.1,0.4,0,0.5l1.1,1.1l-1.6-0.4c-0.1,0-0.3,0.1-0.3,0.2
		s0.1,0.3,0.2,0.3l2.3,0.6c0,0,0,0,0.1,0l0.5,0.5l-1.6-0.4c-0.1,0-0.3,0.1-0.3,0.2c0,0.1,0.1,0.3,0.2,0.3l1.9,0.5
		c-0.4,0.5-0.6,1.1-0.7,1.7l-1.8-1.1c-0.1-0.1-0.3,0-0.4,0.1c-0.1,0.1,0,0.3,0.1,0.4l1.4,0.8h-0.6c0,0,0,0-0.1,0l-2.1-1.2
		c-0.1-0.1-0.3,0-0.4,0.1c-0.1,0.1,0,0.3,0.1,0.4l1.4,0.8h-1.6c-0.2,0-0.4,0.2-0.4,0.4c0,0.2,0.2,0.4,0.4,0.4h1.6l-1.4,0.8
		c-0.1,0.1-0.2,0.2-0.1,0.4c0.1,0.1,0.2,0.2,0.4,0.1l2.1-1.2c0,0,0,0,0.1,0h0.6l-1.4,0.8c-0.1,0.1-0.2,0.2-0.1,0.4
		c0.1,0.1,0.2,0.2,0.4,0.1l1.8-1.1c0.1,0.6,0.3,1.2,0.7,1.7l-1.9,0.5c-0.1,0-0.2,0.2-0.2,0.3c0,0.1,0.2,0.2,0.3,0.2l1.6-0.4
		l-0.5,0.5c0,0,0,0-0.1,0l-2.3,0.6c-0.1,0-0.2,0.2-0.2,0.3s0.2,0.2,0.3,0.2l1.6-0.4l-1.1,1.1c-0.1,0.1-0.1,0.4,0,0.5l0,0
		c0.1,0.1,0.4,0.1,0.5,0l1.1-1.1l-0.4,1.6c0,0.1,0.1,0.3,0.2,0.3s0.3-0.1,0.3-0.2l0.6-2.3c0,0,0,0,0-0.1l0.5-0.5l-0.4,1.6
		c0,0.1,0.1,0.3,0.2,0.3c0.1,0,0.3-0.1,0.3-0.2l0.5-1.9c0.5,0.3,1,0.6,1.6,0.7l-1,1.6c-0.1,0.1,0,0.3,0.1,0.4c0.1,0.1,0.3,0,0.4-0.1
		l0.8-1.4v0.6c0,0,0,0,0,0.1l-1.2,2.1c-0.1,0.1,0,0.3,0.1,0.4c0.1,0.1,0.3,0,0.4-0.1l0.8-1.4v1.8c0,0.2,0.2,0.4,0.4,0.4
		c0.2,0,0.4-0.2,0.4-0.4v-1.8l0.8,1.4c0.1,0.1,0.2,0.2,0.4,0.1c0.1-0.1,0.2-0.2,0.1-0.4l-1.2-2.1c0,0,0,0,0-0.1v-0.6l0.8,1.4
		c0.1,0.1,0.2,0.2,0.4,0.1c0.1-0.1,0.2-0.2,0.1-0.4l-1-1.6c0.6-0.1,1.1-0.3,1.6-0.7l0.5,1.9c0,0.1,0.2,0.2,0.3,0.2
		c0.1,0,0.2-0.2,0.2-0.3l-0.4-1.6l0.5,0.5c0,0,0,0,0,0.1l0.6,2.3c0,0.1,0.2,0.2,0.3,0.2c0.1,0,0.2-0.2,0.2-0.3l-0.4-1.6l1.3,1.3
		c0.1,0.1,0.4,0.1,0.5,0c0.1-0.1,0.1-0.4,0-0.5l-1.3-1.3l1.6,0.4c0.1,0,0.3-0.1,0.3-0.2c0-0.1-0.1-0.3-0.2-0.3l-2.3-0.6
		c0,0,0,0-0.1,0l-0.5-0.5l1.6,0.4c0.1,0,0.3-0.1,0.3-0.2c0-0.1-0.1-0.3-0.2-0.3l-1.9-0.5c0.3-0.5,0.6-1,0.7-1.6l1.6,1
		c0.1,0.1,0.3,0,0.4-0.1c0.1-0.1,0-0.3-0.1-0.4l-1.4-0.8h0.6c0,0,0,0,0.1,0l2.1,1.2c0.1,0.1,0.3,0,0.4-0.1c0.1-0.1,0-0.3-0.1-0.4
		l-1.4-0.8h1.8c0.2,0,0.4-0.2,0.4-0.4C230.2,337.7,230.1,337.5,229.9,337.5z M222.5,341.2C222.5,341.2,222.5,341.2,222.5,341.2l0-2
		c0.1,0,0.2-0.1,0.3-0.1l1.4,1.4C223.7,340.9,223.1,341.1,222.5,341.2z M220,340.5l1.4-1.4c0.1,0.1,0.2,0.1,0.3,0.1v2c0,0,0,0,0,0
		C221.1,341.1,220.5,340.9,220,340.5z M225.4,337.5h-2c0-0.1-0.1-0.2-0.1-0.3l1.4-1.4C225.1,336.3,225.3,336.9,225.4,337.5
		C225.4,337.5,225.4,337.5,225.4,337.5z M222.8,336.7c-0.1-0.1-0.2-0.1-0.3-0.1v-2c0.6,0.1,1.2,0.3,1.7,0.7L222.8,336.7z
		 M221.7,334.6v2c-0.1,0-0.2,0.1-0.3,0.1l-1.4-1.4C220.5,334.9,221.1,334.7,221.7,334.6z M219.5,335.8l1.4,1.4
		c-0.1,0.1-0.1,0.2-0.1,0.3h-2C218.9,336.9,219.1,336.3,219.5,335.8z M220.8,338.3c0,0.1,0.1,0.2,0.1,0.3l-1.4,1.4
		c-0.4-0.5-0.6-1.1-0.7-1.7H220.8z M224.7,340l-1.4-1.4c0.1-0.1,0.1-0.2,0.1-0.3h2c0,0,0,0,0,0C225.3,338.9,225.1,339.5,224.7,340z"
		/>
</g>
<rect x="200.8" y="378.5" style="fill:#99887A;" width="42.7" height="46.4"/>
<rect x="206.8" y="385" style="fill:#F7EAE2;" width="30.5" height="33.5"/>
<rect x="210.6" y="389.4" style="fill:#FFFFFF;" width="23.1" height="24.7"/>
<g>
	<path style="fill:#0D5C74;" d="M229.9,401.4H228l1.4-0.8c0.1-0.1,0.2-0.2,0.1-0.4c-0.1-0.1-0.2-0.2-0.4-0.1l-2.1,1.2c0,0,0,0-0.1,0
		h-0.6l1.4-0.8c0.1-0.1,0.2-0.2,0.1-0.4c-0.1-0.1-0.2-0.2-0.4-0.1l-1.6,1c-0.1-0.6-0.3-1.1-0.7-1.6l1.9-0.5c0.1,0,0.2-0.2,0.2-0.3
		c0-0.1-0.2-0.2-0.3-0.2l-1.6,0.4l0.5-0.5c0,0,0,0,0.1,0l2.3-0.6c0.1,0,0.2-0.2,0.2-0.3c0-0.1-0.2-0.2-0.3-0.2l-1.6,0.4l1.3-1.3
		c0.1-0.1,0.1-0.4,0-0.5c-0.1-0.1-0.4-0.1-0.5,0l-1.3,1.3l0.4-1.6c0-0.1-0.1-0.3-0.2-0.3c-0.1,0-0.3,0.1-0.3,0.2l-0.6,2.3
		c0,0,0,0,0,0.1l-0.5,0.5l0.4-1.6c0-0.1-0.1-0.3-0.2-0.3c-0.1,0-0.3,0.1-0.3,0.2l-0.5,1.9c-0.5-0.4-1.1-0.6-1.7-0.7l1.1-1.8
		c0.1-0.1,0-0.3-0.1-0.4c-0.1-0.1-0.3,0-0.4,0.1l-0.8,1.4v-0.6c0,0,0,0,0-0.1l1.2-2.1c0.1-0.1,0-0.3-0.1-0.4c-0.1-0.1-0.3,0-0.4,0.1
		l-0.8,1.4V394c0-0.2-0.2-0.4-0.4-0.4c-0.2,0-0.4,0.2-0.4,0.4v1.6l-0.8-1.4c-0.1-0.1-0.2-0.2-0.4-0.1c-0.1,0.1-0.2,0.2-0.1,0.4
		l1.2,2.1c0,0,0,0,0,0.1v0.6l-0.8-1.4c-0.1-0.1-0.2-0.2-0.4-0.1c-0.1,0.1-0.2,0.2-0.1,0.4l1.1,1.8c-0.6,0.1-1.2,0.3-1.7,0.7
		l-0.5-1.9c0-0.1-0.2-0.2-0.3-0.2c-0.1,0-0.2,0.2-0.2,0.3l0.4,1.6l-0.5-0.5c0,0,0,0,0-0.1l-0.6-2.3c0-0.1-0.2-0.2-0.3-0.2
		c-0.1,0-0.2,0.2-0.2,0.3l0.4,1.6l-1.1-1.1c-0.1-0.1-0.4-0.1-0.5,0c-0.1,0.1-0.1,0.4,0,0.5l1.1,1.1l-1.6-0.4c-0.1,0-0.3,0.1-0.3,0.2
		s0.1,0.3,0.2,0.3l2.3,0.6c0,0,0,0,0.1,0l0.5,0.5l-1.6-0.4c-0.1,0-0.3,0.1-0.3,0.2c0,0.1,0.1,0.3,0.2,0.3l1.9,0.5
		c-0.4,0.5-0.6,1.1-0.7,1.7l-1.8-1.1c-0.1-0.1-0.3,0-0.4,0.1c-0.1,0.1,0,0.3,0.1,0.4l1.4,0.8h-0.6c0,0,0,0-0.1,0l-2.1-1.2
		c-0.1-0.1-0.3,0-0.4,0.1c-0.1,0.1,0,0.3,0.1,0.4l1.4,0.8h-1.6c-0.2,0-0.4,0.2-0.4,0.4c0,0.2,0.2,0.4,0.4,0.4h1.6l-1.4,0.8
		c-0.1,0.1-0.2,0.2-0.1,0.4c0.1,0.1,0.2,0.2,0.4,0.1l2.1-1.2c0,0,0,0,0.1,0h0.6l-1.4,0.8c-0.1,0.1-0.2,0.2-0.1,0.4
		c0.1,0.1,0.2,0.2,0.4,0.1l1.8-1.1c0.1,0.6,0.3,1.2,0.7,1.7l-1.9,0.5c-0.1,0-0.2,0.2-0.2,0.3c0,0.1,0.2,0.2,0.3,0.2l1.6-0.4
		l-0.5,0.5c0,0,0,0-0.1,0l-2.3,0.6c-0.1,0-0.2,0.2-0.2,0.3s0.2,0.2,0.3,0.2l1.6-0.4l-1.1,1.1c-0.1,0.1-0.1,0.4,0,0.5l0,0
		c0.1,0.1,0.4,0.1,0.5,0l1.1-1.1l-0.4,1.6c0,0.1,0.1,0.3,0.2,0.3c0.1,0,0.3-0.1,0.3-0.2l0.6-2.3c0,0,0,0,0-0.1l0.5-0.5l-0.4,1.6
		c0,0.1,0.1,0.3,0.2,0.3c0.1,0,0.3-0.1,0.3-0.2l0.5-1.9c0.5,0.3,1,0.6,1.6,0.7l-1,1.6c-0.1,0.1,0,0.3,0.1,0.4c0.1,0.1,0.3,0,0.4-0.1
		l0.8-1.4v0.6c0,0,0,0,0,0.1l-1.2,2.1c-0.1,0.1,0,0.3,0.1,0.4c0.1,0.1,0.3,0,0.4-0.1l0.8-1.4v1.8c0,0.2,0.2,0.4,0.4,0.4
		c0.2,0,0.4-0.2,0.4-0.4v-1.8l0.8,1.4c0.1,0.1,0.2,0.2,0.4,0.1c0.1-0.1,0.2-0.2,0.1-0.4l-1.2-2.1c0,0,0,0,0-0.1V406l0.8,1.4
		c0.1,0.1,0.2,0.2,0.4,0.1c0.1-0.1,0.2-0.2,0.1-0.4l-1-1.6c0.6-0.1,1.1-0.3,1.6-0.7l0.5,1.9c0,0.1,0.2,0.2,0.3,0.2
		c0.1,0,0.2-0.2,0.2-0.3l-0.4-1.6l0.5,0.5c0,0,0,0,0,0.1l0.6,2.3c0,0.1,0.2,0.2,0.3,0.2c0.1,0,0.2-0.2,0.2-0.3l-0.4-1.6l1.3,1.3
		c0.1,0.1,0.4,0.1,0.5,0c0.1-0.1,0.1-0.4,0-0.5l-1.3-1.3l1.6,0.4c0.1,0,0.3-0.1,0.3-0.2c0-0.1-0.1-0.3-0.2-0.3L226,405
		c0,0,0,0-0.1,0l-0.5-0.5l1.6,0.4c0.1,0,0.3-0.1,0.3-0.2s-0.1-0.3-0.2-0.3l-1.9-0.5c0.3-0.5,0.6-1,0.7-1.6l1.6,1
		c0.1,0.1,0.3,0,0.4-0.1c0.1-0.1,0-0.3-0.1-0.4l-1.4-0.8h0.6c0,0,0,0,0.1,0l2.1,1.2c0.1,0.1,0.3,0,0.4-0.1c0.1-0.1,0-0.3-0.1-0.4
		l-1.4-0.8h1.8c0.2,0,0.4-0.2,0.4-0.4C230.2,401.5,230.1,401.4,229.9,401.4z M222.5,405C222.5,405,222.5,405,222.5,405l0-2
		c0.1,0,0.2-0.1,0.3-0.1l1.4,1.4C223.7,404.7,223.1,404.9,222.5,405z M220,404.3l1.4-1.4c0.1,0.1,0.2,0.1,0.3,0.1v2c0,0,0,0,0,0
		C221.1,404.9,220.5,404.7,220,404.3z M225.4,401.4h-2c0-0.1-0.1-0.2-0.1-0.3l1.4-1.4C225.1,400.1,225.3,400.7,225.4,401.4
		C225.4,401.4,225.4,401.4,225.4,401.4z M222.8,400.5c-0.1-0.1-0.2-0.1-0.3-0.1v-2c0.6,0.1,1.2,0.3,1.7,0.7L222.8,400.5z
		 M221.7,398.4v2c-0.1,0-0.2,0.1-0.3,0.1l-1.4-1.4C220.5,398.8,221.1,398.5,221.7,398.4z M219.5,399.7l1.4,1.4
		c-0.1,0.1-0.1,0.2-0.1,0.3h-2C218.9,400.7,219.1,400.1,219.5,399.7z M220.8,402.1c0,0.1,0.1,0.2,0.1,0.3l-1.4,1.4
		c-0.4-0.5-0.6-1.1-0.7-1.7H220.8z M224.7,403.8l-1.4-1.4c0.1-0.1,0.1-0.2,0.1-0.3h2c0,0,0,0,0,0
		C225.3,402.7,225.1,403.3,224.7,403.8z"/>
</g>
<g>
	<g>
		<rect x="485.9" y="378.5" style="fill:#7C6757;" width="1.6" height="31.3"/>
		<g>
			<g>
				<polygon style="fill:#99887A;" points="512.7,398.2 478.3,397 475.8,343.4 496.4,332.4 515.4,344.4 				"/>
				<path style="fill:#99887A;" d="M471.2,353.3c0.8-0.5,26-19.1,26-19.1l20.9,19.1l4.3-4.8l-25.2-21.4L468.4,349L471.2,353.3z"/>
				<polygon style="fill:#7C6757;" points="476,349.8 476.3,353.7 497.7,337.3 514.9,354.6 515.1,350.6 497.2,334.2 				"/>
			</g>
			<g>
				<circle style="fill:#F7EAE2;" cx="495.4" cy="360" r="13"/>
				<g>
					<g>
						<circle style="fill:#7C6757;" cx="495.3" cy="349.1" r="0.8"/>
						<circle style="fill:#7C6757;" cx="495.3" cy="371.2" r="0.8"/>
					</g>
					<g>
						<circle style="fill:#7C6757;" cx="489.8" cy="350.6" r="0.8"/>
						<circle style="fill:#7C6757;" cx="500.8" cy="369.7" r="0.8"/>
					</g>
					<g>
						<circle style="fill:#7C6757;" cx="485.7" cy="354.7" r="0.8"/>
						<circle style="fill:#7C6757;" cx="504.8" cy="365.7" r="0.8"/>
					</g>
					<g>
						<circle style="fill:#7C6757;" cx="484.3" cy="360.2" r="0.8"/>
						<circle style="fill:#7C6757;" cx="506.3" cy="360.2" r="0.8"/>
					</g>
					<g>
						<circle style="fill:#7C6757;" cx="485.7" cy="365.7" r="0.8"/>
						<circle style="fill:#7C6757;" cx="504.8" cy="354.7" r="0.8"/>
					</g>
					<g>
						<circle style="fill:#7C6757;" cx="489.8" cy="369.7" r="0.8"/>
						<circle style="fill:#7C6757;" cx="500.8" cy="350.6" r="0.8"/>
					</g>
				</g>
				<g>
					<circle style="fill:#7C6757;" cx="495.3" cy="359.9" r="1.3"/>
					<rect x="495" y="351.1" style="fill:#7C6757;" width="0.6" height="8"/>
					<rect x="489.8" y="359.6" style="fill:#7C6757;" width="5.2" height="0.9"/>
				</g>
			</g>
			<g>
				<path style="fill:#7C6757;" d="M503.2,393.4c0-0.3,0-0.6,0.1-0.9c1.3-11.9-3.1-15.7-7.8-15.9c-4.7-0.2-10.4,4.7-9.2,15.1
					c0,0.3,0,0.6,0,0.9L503.2,393.4z"/>
				<rect x="494.6" y="376.5" style="fill:#99887A;" width="1" height="17.9"/>
			</g>
		</g>
		<rect x="498.7" y="397.5" style="fill:#7C6757;" width="1.6" height="31.3"/>
		<circle style="fill:#99887A;" cx="499.7" cy="429.2" r="6.2"/>
		<ellipse style="fill:#99887A;" cx="486.8" cy="414.7" rx="2.8" ry="8.3"/>
	</g>
</g>
<path style="fill:#0D5C74;" d="M500.6,324.9l-31.7,24c-2.3,1.7-5.5,1.3-7.3-1l0,0c-1.7-2.3-1.3-5.5,1-7.3l31.7-24
	c2.3-1.7,5.5-1.3,7.3,1l0,0C503.3,320,502.8,323.2,500.6,324.9z"/>
<path style="fill:#0A4E5E;" d="M529.7,341.5l-28.6-24.6c-1.1-0.9-2.5-1.3-3.8-1.2v11.6l25.6,22.1c2.2,1.9,5.4,1.6,7.3-0.5
	C532.1,346.6,531.8,343.3,529.7,341.5z"/>
</svg>
