<?xml version="1.0" encoding="utf-8"?>
<!-- Generator: Adobe Illustrator 19.0.0, SVG Export Plug-In . SVG Version: 6.00 Build 0)  -->
<svg version="1.1" id="Layer_1" xmlns="http://www.w3.org/2000/svg" xmlns:xlink="http://www.w3.org/1999/xlink" x="0px" y="0px"
	 viewBox="120 -173 380 380" style="enable-background:new 120 -173 380 380;" xml:space="preserve">
<rect x="120" y="-173" style="fill:none;" width="380" height="380"/>
<rect x="120.7" y="-173" style="fill:#5989A1;" width="379.3" height="379.9"/>
<rect x="120" y="-173" style="fill:none;" width="380" height="380"/>
<rect x="120.1" y="124.1" style="fill:#FFFFFF;" width="379.9" height="82.8"/>
<rect x="120" y="-173" style="fill:none;" width="380" height="380"/>
<g>
	<path style="fill:#FFFFFF;" d="M121,124.1h37C158,124.1,137.5,109.9,121,124.1z"/>
	<path style="fill:#FFFFFF;" d="M461.4,125.2h37C498.6,125.2,478,111.1,461.4,125.2z"/>
	<path style="fill:#FFFFFF;" d="M170,124.1h13.9C183.9,124.1,176.9,115.5,170,124.1z"/>
	<path style="fill:#FFFFFF;" d="M208.4,124.6h34.3C242.7,124.6,225.6,115,208.4,124.6z"/>
	<path style="fill:#FFFFFF;" d="M327.3,124h25.2C352.5,124,339.9,115.4,327.3,124z"/>
	<path style="fill:#FFFFFF;" d="M381,124.4h13.9C394.8,124.4,387.9,115.9,381,124.4z"/>
</g>
<rect x="120" y="-173" style="fill:none;" width="380" height="380"/>
<g style="opacity:0.6;">
	<circle style="fill:#FFFFFF;" cx="157.8" cy="-129.7" r="2.1"/>
	<circle style="fill:#FFFFFF;" cx="250.6" cy="-100.4" r="2.1"/>
	<circle style="fill:#FFFFFF;" cx="217.6" cy="-144.3" r="2.1"/>
	<circle style="fill:#FFFFFF;" cx="261.4" cy="-114.6" r="2.1"/>
	<circle style="fill:#FFFFFF;" cx="195.2" cy="-147.6" r="2.1"/>
	<circle style="fill:#FFFFFF;" cx="152.3" cy="-158.6" r="2.1"/>
	<circle style="fill:#FFFFFF;" cx="157.8" cy="-150.1" r="2.1"/>
	<circle style="fill:#FFFFFF;" cx="355.1" cy="-148.1" r="2.1"/>
	<circle style="fill:#FFFFFF;" cx="128" cy="-158.1" r="2.1"/>
	<circle style="fill:#FFFFFF;" cx="337.5" cy="-124.1" r="2.1"/>
	<circle style="fill:#FFFFFF;" cx="326.8" cy="-46.6" r="2.1"/>
	<circle style="opacity:0.1;fill:#FFFFFF;enable-background:new    ;" cx="338.3" cy="-92" r="2.1"/>
	<circle style="fill:#FFFFFF;" cx="359.8" cy="-157.5" r="2.1"/>
	<circle style="fill:#FFFFFF;" cx="293" cy="-136.4" r="2.1"/>
	<circle style="fill:#FFFFFF;" cx="128.7" cy="-102.5" r="2.1"/>
	<circle style="fill:#FFFFFF;" cx="321.9" cy="-138.6" r="3"/>
	<circle style="fill:#FFFFFF;" cx="314.3" cy="-124.1" r="3"/>
	<circle style="opacity:0.5;fill:#FFFFFF;enable-background:new    ;" cx="287.1" cy="-121.1" r="3"/>
	<circle style="opacity:0.5;fill:#FFFFFF;enable-background:new    ;" cx="325.4" cy="-154.8" r="3"/>
	<circle style="opacity:0.1;fill:#FFFFFF;enable-background:new    ;" cx="346.1" cy="-77.4" r="3"/>
	<circle style="opacity:0.1;fill:#FFFFFF;enable-background:new    ;" cx="308" cy="-94.7" r="3"/>
	<circle style="opacity:0.5;fill:#FFFFFF;enable-background:new    ;" cx="349.1" cy="-108.7" r="3"/>
	<circle style="opacity:0.5;fill:#FFFFFF;enable-background:new    ;" cx="213.8" cy="-105.7" r="3"/>
	<circle style="opacity:0.1;fill:#FFFFFF;enable-background:new    ;" cx="370.9" cy="-85.4" r="3"/>
	<circle style="opacity:0.5;fill:#FFFFFF;enable-background:new    ;" cx="277.8" cy="-141.5" r="3"/>
	<circle style="opacity:0.5;fill:#FFFFFF;enable-background:new    ;" cx="207.2" cy="-128.4" r="3"/>
	<circle style="opacity:0.5;fill:#FFFFFF;enable-background:new    ;" cx="178.8" cy="-131.4" r="3"/>
	<circle style="opacity:0.5;fill:#FFFFFF;enable-background:new    ;" cx="183" cy="-104" r="3"/>
	<circle style="opacity:0.5;fill:#FFFFFF;enable-background:new    ;" cx="168.6" cy="-79.3" r="3"/>
	<circle style="opacity:0.5;fill:#FFFFFF;enable-background:new    ;" cx="175.4" cy="-160.5" r="3"/>
	<circle style="opacity:0.5;fill:#FFFFFF;enable-background:new    ;" cx="137.3" cy="-124.1" r="3"/>
	<circle style="opacity:0.5;fill:#FFFFFF;enable-background:new    ;" cx="148.1" cy="-76.2" r="3"/>
	<circle style="opacity:0.1;fill:#FFFFFF;enable-background:new    ;" cx="271.3" cy="-82.8" r="3"/>
	<circle style="fill:#FFFFFF;" cx="220.8" cy="-122" r="3"/>
	<circle style="fill:#FFFFFF;" cx="235.1" cy="-138.5" r="3"/>
	<circle style="fill:#FFFFFF;" cx="186.3" cy="-82.3" r="3"/>
	<circle style="fill:#FFFFFF;" cx="338.3" cy="-150.1" r="3"/>
	<circle style="fill:#FFFFFF;" cx="132.6" cy="-142.5" r="3"/>
	<circle style="fill:#FFFFFF;" cx="259.4" cy="-135.5" r="3"/>
	<circle style="fill:#FFFFFF;" cx="165.6" cy="-100.4" r="3"/>
	<circle style="fill:#FFFFFF;" cx="180.9" cy="-149.7" r="2.1"/>
	<circle style="opacity:0.3;fill:#FFFFFF;enable-background:new    ;" cx="193.1" cy="-122.9" r="2.1"/>
	<circle style="opacity:0.3;fill:#FFFFFF;enable-background:new    ;" cx="146.3" cy="-151.8" r="2.1"/>
	<circle style="opacity:0.3;fill:#FFFFFF;enable-background:new    ;" cx="146.2" cy="-111.8" r="2.1"/>
	<circle style="opacity:0.3;fill:#FFFFFF;enable-background:new    ;" cx="271.3" cy="-113.9" r="2.1"/>
	<circle style="opacity:0.3;fill:#FFFFFF;enable-background:new    ;" cx="227.9" cy="-100.4" r="2.1"/>
	<circle style="opacity:0.3;fill:#FFFFFF;enable-background:new    ;" cx="203" cy="-97.4" r="2.1"/>
	<circle style="opacity:0.3;fill:#FFFFFF;enable-background:new    ;" cx="284" cy="-153.9" r="2.1"/>
	<circle style="opacity:0.3;fill:#FFFFFF;enable-background:new    ;" cx="203" cy="-167.3" r="2.1"/>
	<circle style="opacity:0.3;fill:#FFFFFF;enable-background:new    ;" cx="168.6" cy="-166.5" r="2.1"/>
	<circle style="opacity:0.1;fill:#FFFFFF;enable-background:new    ;" cx="298.8" cy="-98.2" r="2.1"/>
	<circle style="opacity:0.3;fill:#FFFFFF;enable-background:new    ;" cx="267.8" cy="-62.6" r="2.1"/>
	<circle style="opacity:0.1;fill:#FFFFFF;enable-background:new    ;" cx="228.8" cy="-74.1" r="2.1"/>
	<circle style="opacity:0.3;fill:#FFFFFF;enable-background:new    ;" cx="178.8" cy="-64.9" r="2.1"/>
	<circle style="opacity:0.3;fill:#FFFFFF;enable-background:new    ;" cx="146.3" cy="-79.3" r="2.1"/>
	<circle style="opacity:0.1;fill:#FFFFFF;enable-background:new    ;" cx="361.9" cy="-72.4" r="2.1"/>
	<circle style="opacity:0.3;fill:#FFFFFF;enable-background:new    ;" cx="359.9" cy="-129.7" r="2.1"/>
	<circle style="opacity:0.3;fill:#FFFFFF;enable-background:new    ;" cx="308" cy="-147" r="2.1"/>
	<circle style="opacity:0.3;fill:#FFFFFF;enable-background:new    ;" cx="246.1" cy="-69.8" r="2.1"/>
	<circle style="opacity:0.3;fill:#FFFFFF;enable-background:new    ;" cx="237.6" cy="-126.2" r="2.1"/>
	<circle style="fill:#FFFFFF;" cx="393.4" cy="-116.6" r="2.1"/>
	<circle style="fill:#FFFFFF;" cx="487.1" cy="-150.2" r="2.1"/>
	<circle style="fill:#FFFFFF;" cx="469.4" cy="-126.1" r="2.1"/>
	<circle style="fill:#FFFFFF;" cx="470.2" cy="-94" r="2.1"/>
	<circle style="fill:#FFFFFF;" cx="491.7" cy="-159.5" r="2.1"/>
	<circle style="fill:#FFFFFF;" cx="425" cy="-138.4" r="2.1"/>
	<circle style="fill:#FFFFFF;" cx="453.8" cy="-140.6" r="3"/>
	<circle style="fill:#FFFFFF;" cx="446.3" cy="-126.1" r="3"/>
	<circle style="opacity:0.5;fill:#FFFFFF;enable-background:new    ;" cx="419.1" cy="-123.1" r="3"/>
	<circle style="opacity:0.5;fill:#FFFFFF;enable-background:new    ;" cx="457.4" cy="-156.8" r="3"/>
	<circle style="opacity:0.5;fill:#FFFFFF;enable-background:new    ;" cx="440" cy="-96.7" r="3"/>
	<circle style="opacity:0.5;fill:#FFFFFF;enable-background:new    ;" cx="481.1" cy="-110.7" r="3"/>
	<circle style="opacity:0.5;fill:#FFFFFF;enable-background:new    ;" cx="482.2" cy="-50.7" r="3"/>
	<circle style="opacity:0.5;fill:#FFFFFF;enable-background:new    ;" cx="409.7" cy="-143.6" r="3"/>
	<circle style="opacity:0.1;fill:#FFFFFF;enable-background:new    ;" cx="403.3" cy="-84.8" r="3"/>
	<circle style="fill:#FFFFFF;" cx="470.2" cy="-152.1" r="3"/>
	<circle style="fill:#FFFFFF;" cx="476.2" cy="-72.2" r="3"/>
	<circle style="fill:#FFFFFF;" cx="391.4" cy="-137.6" r="3"/>
	<circle style="opacity:0.3;fill:#FFFFFF;enable-background:new    ;" cx="403.3" cy="-115.9" r="2.1"/>
	<circle style="opacity:0.3;fill:#FFFFFF;enable-background:new    ;" cx="416" cy="-155.9" r="2.1"/>
	<circle style="opacity:0.3;fill:#FFFFFF;enable-background:new    ;" cx="430.7" cy="-100.2" r="2.1"/>
	<circle style="opacity:0.3;fill:#FFFFFF;enable-background:new    ;" cx="263.5" cy="-154.8" r="2.1"/>
	<path style="opacity:0.3;fill:#FFFFFF;enable-background:new    ;" d="M491.9-133.8c-1.2,0-2.1,0.9-2.1,2.1s0.9,2.1,2.1,2.1
		c0.9,0,1.6-0.5,2-1.3v-1.6C493.4-133.3,492.8-133.8,491.9-133.8z"/>
	<circle style="opacity:0.3;fill:#FFFFFF;enable-background:new    ;" cx="440" cy="-149" r="2.1"/>
	<circle style="opacity:0.1;fill:#FFFFFF;enable-background:new    ;" cx="378" cy="-71.8" r="2.1"/>
	<circle style="opacity:0.3;fill:#FFFFFF;enable-background:new    ;" cx="369.5" cy="-128.2" r="2.1"/>
	<circle style="fill:#FFFFFF;" cx="157.4" cy="-66.4" r="2.1"/>
	<circle style="fill:#FFFFFF;" cx="250.2" cy="-37.1" r="2.1"/>
	<circle style="fill:#FFFFFF;" cx="248.5" cy="-54.8" r="2.1"/>
	<circle style="fill:#FFFFFF;" cx="337.9" cy="-28.7" r="2.1"/>
	<circle style="fill:#FFFFFF;" cx="128.3" cy="-39.2" r="2.1"/>
	<circle style="opacity:0.1;fill:#FFFFFF;enable-background:new    ;" cx="309.3" cy="-71.9" r="3"/>
	<circle style="opacity:0.5;fill:#FFFFFF;enable-background:new    ;" cx="283.7" cy="-62.8" r="3"/>
	<circle style="opacity:0.5;fill:#FFFFFF;enable-background:new    ;" cx="345.7" cy="-14.2" r="3"/>
	<circle style="opacity:0.5;fill:#FFFFFF;enable-background:new    ;" cx="307.6" cy="-31.4" r="3"/>
	<circle style="opacity:0.5;fill:#FFFFFF;enable-background:new    ;" cx="348.7" cy="-45.4" r="3"/>
	<circle style="opacity:0.5;fill:#FFFFFF;enable-background:new    ;" cx="213.4" cy="-42.4" r="3"/>
	<circle style="opacity:0.5;fill:#FFFFFF;enable-background:new    ;" cx="370.5" cy="-22.1" r="3"/>
	<circle style="opacity:0.5;fill:#FFFFFF;enable-background:new    ;" cx="206.8" cy="-65.1" r="3"/>
	<circle style="opacity:0.5;fill:#FFFFFF;enable-background:new    ;" cx="178.4" cy="-68.1" r="3"/>
	<circle style="opacity:0.5;fill:#FFFFFF;enable-background:new    ;" cx="182.6" cy="-40.8" r="3"/>
	<circle style="opacity:0.5;fill:#FFFFFF;enable-background:new    ;" cx="163.1" cy="-5.9" r="3"/>
	<circle style="opacity:0.5;fill:#FFFFFF;enable-background:new    ;" cx="136.9" cy="-60.8" r="3"/>
	<circle style="opacity:0.5;fill:#FFFFFF;enable-background:new    ;" cx="148.1" cy="-2.8" r="3"/>
	<circle style="fill:#FFFFFF;" cx="270.9" cy="-19.5" r="3"/>
	<circle style="fill:#FFFFFF;" cx="220.5" cy="-58.7" r="3"/>
	<circle style="fill:#FFFFFF;" cx="185.9" cy="-19.1" r="3"/>
	<circle style="fill:#FFFFFF;" cx="364.5" cy="-43.5" r="3"/>
	<circle style="fill:#FFFFFF;" cx="165.2" cy="-37.1" r="3"/>
	<circle style="opacity:0.3;fill:#FFFFFF;enable-background:new    ;" cx="192.7" cy="-59.6" r="2.1"/>
	<circle style="opacity:0.3;fill:#FFFFFF;enable-background:new    ;" cx="145.9" cy="-48.5" r="2.1"/>
	<circle style="opacity:0.3;fill:#FFFFFF;enable-background:new    ;" cx="270.9" cy="-50.6" r="2.1"/>
	<circle style="opacity:0.3;fill:#FFFFFF;enable-background:new    ;" cx="227.6" cy="-37.1" r="2.1"/>
	<circle style="opacity:0.3;fill:#FFFFFF;enable-background:new    ;" cx="202.6" cy="-34.1" r="2.1"/>
	<circle style="opacity:0.3;fill:#FFFFFF;enable-background:new    ;" cx="298.4" cy="-34.9" r="2.1"/>
	<circle style="opacity:0.3;fill:#FFFFFF;enable-background:new    ;" cx="228.4" cy="-10.8" r="2.1"/>
	<circle style="opacity:0.3;fill:#FFFFFF;enable-background:new    ;" cx="178.4" cy="-1.7" r="2.1"/>
	<circle style="opacity:0.3;fill:#FFFFFF;enable-background:new    ;" cx="145.9" cy="-16" r="2.1"/>
	<circle style="opacity:0.3;fill:#FFFFFF;enable-background:new    ;" cx="361.5" cy="-9.1" r="2.1"/>
	<circle style="opacity:0.3;fill:#FFFFFF;enable-background:new    ;" cx="245.7" cy="-6.5" r="2.1"/>
	<circle style="opacity:0.3;fill:#FFFFFF;enable-background:new    ;" cx="237.2" cy="-62.9" r="2.1"/>
	<circle style="fill:#FFFFFF;" cx="382.2" cy="-39.2" r="2.1"/>
	<circle style="fill:#FFFFFF;" cx="404" cy="-92" r="2.1"/>
	<circle style="fill:#FFFFFF;" cx="393" cy="-53.4" r="2.1"/>
	<circle style="fill:#FFFFFF;" cx="469.1" cy="-62.8" r="2.1"/>
	<circle style="fill:#FFFFFF;" cx="395.1" cy="-0.7" r="2.1"/>
	<circle style="fill:#FFFFFF;" cx="469.9" cy="-30.7" r="2.1"/>
	<circle style="fill:#FFFFFF;" cx="445.9" cy="-62.8" r="3"/>
	<circle style="opacity:0.5;fill:#FFFFFF;enable-background:new    ;" cx="418.7" cy="-59.8" r="3"/>
	<circle style="opacity:0.5;fill:#FFFFFF;enable-background:new    ;" cx="412.8" cy="-76.3" r="3"/>
	<circle style="opacity:0.5;fill:#FFFFFF;enable-background:new    ;" cx="485.2" cy="-32" r="3"/>
	<circle style="opacity:0.5;fill:#FFFFFF;enable-background:new    ;" cx="439.6" cy="-33.4" r="3"/>
	<circle style="fill:#FFFFFF;" cx="402.9" cy="-21.5" r="3"/>
	<circle style="fill:#FFFFFF;" cx="475.8" cy="-8.9" r="3"/>
	<circle style="opacity:0.3;fill:#FFFFFF;enable-background:new    ;" cx="402.9" cy="-52.6" r="2.1"/>
	<circle style="opacity:0.3;fill:#FFFFFF;enable-background:new    ;" cx="430.4" cy="-36.9" r="2.1"/>
	<circle style="opacity:0.3;fill:#FFFFFF;enable-background:new    ;" cx="239.7" cy="-156.5" r="2.1"/>
	<circle style="opacity:0.3;fill:#FFFFFF;enable-background:new    ;" cx="377.7" cy="-8.5" r="2.1"/>
	<circle style="opacity:0.3;fill:#FFFFFF;enable-background:new    ;" cx="369.2" cy="-65" r="2.1"/>
	<circle style="fill:#FFFFFF;" cx="288" cy="31.6" r="2.1"/>
	<circle style="fill:#FFFFFF;" cx="276.5" cy="-13.8" r="2.1"/>
	<circle style="opacity:0.5;fill:#FFFFFF;enable-background:new    ;" cx="268.7" cy="0.8" r="3"/>
	<circle style="opacity:0.5;fill:#FFFFFF;enable-background:new    ;" cx="306.8" cy="-16.5" r="3"/>
	<circle style="opacity:0.5;fill:#FFFFFF;enable-background:new    ;" cx="243.9" cy="-7.2" r="3"/>
	<circle style="opacity:0.5;fill:#FFFFFF;enable-background:new    ;" cx="446.2" cy="-1.1" r="3"/>
	<circle style="opacity:0.5;fill:#FFFFFF;enable-background:new    ;" cx="466.7" cy="2" r="3"/>
	<circle style="fill:#FFFFFF;" cx="343.5" cy="-4.6" r="3"/>
	<circle style="fill:#FFFFFF;" cx="428.5" cy="-4.1" r="3"/>
	<circle style="opacity:0.3;fill:#FFFFFF;enable-background:new    ;" cx="347" cy="15.6" r="2.1"/>
	<circle style="opacity:0.3;fill:#FFFFFF;enable-background:new    ;" cx="386" cy="4.1" r="2.1"/>
	<circle style="opacity:0.3;fill:#FFFFFF;enable-background:new    ;" cx="433.4" cy="20.4" r="2.1"/>
	<circle style="opacity:0.3;fill:#FFFFFF;enable-background:new    ;" cx="460.4" cy="-13.5" r="2.1"/>
	<circle style="opacity:0.3;fill:#FFFFFF;enable-background:new    ;" cx="252.9" cy="5.8" r="2.1"/>
	<circle style="opacity:0.3;fill:#FFFFFF;enable-background:new    ;" cx="368.7" cy="8.4" r="2.1"/>
	<circle style="fill:#FFFFFF;" cx="219.3" cy="14.3" r="2.1"/>
	<circle style="fill:#FFFFFF;" cx="144.6" cy="-15.8" r="2.1"/>
	<circle style="opacity:0.5;fill:#FFFFFF;enable-background:new    ;" cx="174.9" cy="-18.5" r="3"/>
	<circle style="opacity:0.5;fill:#FFFFFF;enable-background:new    ;" cx="132.6" cy="27.5" r="3"/>
	<circle style="fill:#FFFFFF;" cx="211.5" cy="-6.6" r="3"/>
	<circle style="fill:#FFFFFF;" cx="138.6" cy="6" r="3"/>
	<circle style="opacity:0.3;fill:#FFFFFF;enable-background:new    ;" cx="215.1" cy="13.5" r="2.1"/>
	<circle style="opacity:0.3;fill:#FFFFFF;enable-background:new    ;" cx="236.8" cy="6.4" r="2.1"/>
	<circle style="fill:#FFFFFF;" cx="457.4" cy="11.8" r="2.1"/>
	<circle style="fill:#FFFFFF;" cx="364.6" cy="41.1" r="2.1"/>
	<circle style="fill:#FFFFFF;" cx="366.4" cy="23.4" r="2.1"/>
	<circle style="fill:#FFFFFF;" cx="277.6" cy="17.4" r="2.1"/>
	<circle style="fill:#FFFFFF;" cx="276.9" cy="49.5" r="2.1"/>
	<circle style="fill:#FFFFFF;" cx="486.4" cy="38.9" r="2.1"/>
	<circle style="fill:#FFFFFF;" cx="300.9" cy="17.4" r="3"/>
	<circle style="opacity:0.5;fill:#FFFFFF;enable-background:new    ;" cx="328.1" cy="20.4" r="3"/>
	<circle style="opacity:0.5;fill:#FFFFFF;enable-background:new    ;" cx="269.1" cy="64" r="3"/>
	<circle style="opacity:0.5;fill:#FFFFFF;enable-background:new    ;" cx="307.2" cy="46.8" r="3"/>
	<circle style="opacity:0.5;fill:#FFFFFF;enable-background:new    ;" cx="266.1" cy="32.8" r="3"/>
	<circle style="opacity:0.5;fill:#FFFFFF;enable-background:new    ;" cx="401.4" cy="35.8" r="3"/>
	<circle style="opacity:0.5;fill:#FFFFFF;enable-background:new    ;" cx="244.3" cy="56.1" r="3"/>
	<circle style="opacity:0.5;fill:#FFFFFF;enable-background:new    ;" cx="408" cy="13.1" r="3"/>
	<circle style="opacity:0.5;fill:#FFFFFF;enable-background:new    ;" cx="436.4" cy="10.1" r="3"/>
	<circle style="opacity:0.5;fill:#FFFFFF;enable-background:new    ;" cx="432.2" cy="37.4" r="3"/>
	<circle style="opacity:0.5;fill:#FFFFFF;enable-background:new    ;" cx="446.6" cy="62.2" r="3"/>
	<circle style="opacity:0.5;fill:#FFFFFF;enable-background:new    ;" cx="477.9" cy="17.4" r="3"/>
	<circle style="opacity:0.5;fill:#FFFFFF;enable-background:new    ;" cx="467.1" cy="65.3" r="3"/>
	<circle style="fill:#FFFFFF;" cx="343.9" cy="58.7" r="3"/>
	<circle style="fill:#FFFFFF;" cx="394.3" cy="19.5" r="3"/>
	<circle style="fill:#FFFFFF;" cx="428.9" cy="59.1" r="3"/>
	<circle style="fill:#FFFFFF;" cx="250.3" cy="34.7" r="3"/>
	<circle style="fill:#FFFFFF;" cx="449.6" cy="41.1" r="3"/>
	<circle style="opacity:0.3;fill:#FFFFFF;enable-background:new    ;" cx="422.1" cy="18.6" r="2.1"/>
	<circle style="opacity:0.3;fill:#FFFFFF;enable-background:new    ;" cx="469" cy="29.7" r="2.1"/>
	<circle style="opacity:0.3;fill:#FFFFFF;enable-background:new    ;" cx="343.9" cy="27.6" r="2.1"/>
	<circle style="opacity:0.3;fill:#FFFFFF;enable-background:new    ;" cx="387.2" cy="41.1" r="2.1"/>
	<circle style="opacity:0.3;fill:#FFFFFF;enable-background:new    ;" cx="412.2" cy="44.1" r="2.1"/>
	<circle style="opacity:0.3;fill:#FFFFFF;enable-background:new    ;" cx="316.4" cy="43.3" r="2.1"/>
	<circle style="opacity:0.3;fill:#FFFFFF;enable-background:new    ;" cx="386.4" cy="67.4" r="2.1"/>
	<circle style="opacity:0.3;fill:#FFFFFF;enable-background:new    ;" cx="436.4" cy="76.5" r="2.1"/>
	<circle style="opacity:0.3;fill:#FFFFFF;enable-background:new    ;" cx="468.9" cy="62.2" r="2.1"/>
	<circle style="opacity:0.3;fill:#FFFFFF;enable-background:new    ;" cx="253.3" cy="69.1" r="2.1"/>
	<circle style="opacity:0.3;fill:#FFFFFF;enable-background:new    ;" cx="255.3" cy="11.8" r="2.1"/>
	<circle style="opacity:0.3;fill:#FFFFFF;enable-background:new    ;" cx="369.1" cy="71.7" r="2.1"/>
	<circle style="opacity:0.3;fill:#FFFFFF;enable-background:new    ;" cx="377.6" cy="15.2" r="2.1"/>
	<circle style="fill:#FFFFFF;" cx="232.6" cy="39" r="2.1"/>
	<circle style="fill:#FFFFFF;" cx="221.8" cy="24.8" r="2.1"/>
	<circle style="fill:#FFFFFF;" cx="145.7" cy="15.4" r="2.1"/>
	<circle style="fill:#FFFFFF;" cx="219.7" cy="77.5" r="2.1"/>
	<circle style="fill:#FFFFFF;" cx="144.9" cy="47.5" r="2.1"/>
	<circle style="fill:#FFFFFF;" cx="168.9" cy="15.4" r="3"/>
	<circle style="opacity:0.5;fill:#FFFFFF;enable-background:new    ;" cx="196.1" cy="18.4" r="3"/>
	<circle style="opacity:0.5;fill:#FFFFFF;enable-background:new    ;" cx="129.6" cy="46.2" r="3"/>
	<circle style="opacity:0.5;fill:#FFFFFF;enable-background:new    ;" cx="175.2" cy="44.8" r="3"/>
	<circle style="fill:#FFFFFF;" cx="211.9" cy="56.7" r="3"/>
	<circle style="fill:#FFFFFF;" cx="139" cy="69.3" r="3"/>
	<circle style="opacity:0.3;fill:#FFFFFF;enable-background:new    ;" cx="211.9" cy="25.6" r="2.1"/>
	<circle style="opacity:0.3;fill:#FFFFFF;enable-background:new    ;" cx="184.5" cy="41.3" r="2.1"/>
	<circle style="opacity:0.3;fill:#FFFFFF;enable-background:new    ;" cx="237.1" cy="69.6" r="2.1"/>
	<circle style="opacity:0.3;fill:#FFFFFF;enable-background:new    ;" cx="245.6" cy="13.2" r="2.1"/>
	<circle style="opacity:0.5;fill:#FFFFFF;enable-background:new    ;" cx="345.3" cy="84.8" r="3"/>
	<circle style="opacity:0.5;fill:#FFFFFF;enable-background:new    ;" cx="162.7" cy="93.1" r="3"/>
	<circle style="opacity:0.5;fill:#FFFFFF;enable-background:new    ;" cx="147.7" cy="96.1" r="3"/>
	<circle style="opacity:0.3;fill:#FFFFFF;enable-background:new    ;" cx="228" cy="88.1" r="2.1"/>
	<circle style="opacity:0.3;fill:#FFFFFF;enable-background:new    ;" cx="178" cy="97.3" r="2.1"/>
	<circle style="opacity:0.3;fill:#FFFFFF;enable-background:new    ;" cx="145.5" cy="82.9" r="2.1"/>
	<circle style="opacity:0.3;fill:#FFFFFF;enable-background:new    ;" cx="361.1" cy="89.8" r="2.1"/>
	<circle style="opacity:0.3;fill:#FFFFFF;enable-background:new    ;" cx="245.3" cy="92.4" r="2.1"/>
	<circle style="fill:#FFFFFF;" cx="394.7" cy="98.3" r="2.1"/>
	<circle style="fill:#FFFFFF;" cx="475.4" cy="90" r="3"/>
	<circle style="opacity:0.3;fill:#FFFFFF;enable-background:new    ;" cx="377.3" cy="90.4" r="2.1"/>
	<circle style="fill:#FFFFFF;" cx="287.6" cy="130.6" r="2.1"/>
	<circle style="fill:#FFFFFF;" cx="276.1" cy="85.2" r="2.1"/>
	<circle style="opacity:0.5;fill:#FFFFFF;enable-background:new    ;" cx="268.3" cy="99.7" r="3"/>
	<circle style="opacity:0.5;fill:#FFFFFF;enable-background:new    ;" cx="306.4" cy="82.5" r="3"/>
	<circle style="opacity:0.5;fill:#FFFFFF;enable-background:new    ;" cx="243.5" cy="91.8" r="3"/>
	<circle style="opacity:0.5;fill:#FFFFFF;enable-background:new    ;" cx="445.8" cy="97.8" r="3"/>
	<circle style="opacity:0.5;fill:#FFFFFF;enable-background:new    ;" cx="466.3" cy="100.9" r="3"/>
	<circle style="fill:#FFFFFF;" cx="343.1" cy="94.4" r="3"/>
	<circle style="fill:#FFFFFF;" cx="428.1" cy="94.8" r="3"/>
	<circle style="opacity:0.3;fill:#FFFFFF;enable-background:new    ;" cx="346.6" cy="114.5" r="2.1"/>
	<circle style="opacity:0.3;fill:#FFFFFF;enable-background:new    ;" cx="385.6" cy="103.1" r="2.1"/>
	<circle style="opacity:0.3;fill:#FFFFFF;enable-background:new    ;" cx="433" cy="119.4" r="2.1"/>
	<circle style="opacity:0.3;fill:#FFFFFF;enable-background:new    ;" cx="460.1" cy="85.5" r="2.1"/>
	<circle style="opacity:0.3;fill:#FFFFFF;enable-background:new    ;" cx="252.5" cy="104.8" r="2.1"/>
	<circle style="opacity:0.3;fill:#FFFFFF;enable-background:new    ;" cx="368.3" cy="107.3" r="2.1"/>
	<circle style="fill:#FFFFFF;" cx="218.9" cy="113.2" r="2.1"/>
	<circle style="fill:#FFFFFF;" cx="144.2" cy="83.2" r="2.1"/>
	<circle style="opacity:0.5;fill:#FFFFFF;enable-background:new    ;" cx="132.2" cy="126.4" r="3"/>
	<circle style="fill:#FFFFFF;" cx="211.1" cy="92.3" r="3"/>
	<circle style="fill:#FFFFFF;" cx="138.2" cy="105" r="3"/>
	<circle style="opacity:0.3;fill:#FFFFFF;enable-background:new    ;" cx="214.7" cy="112.5" r="2.1"/>
	<circle style="opacity:0.3;fill:#FFFFFF;enable-background:new    ;" cx="236.4" cy="105.3" r="2.1"/>
	<circle style="fill:#FFFFFF;" cx="457" cy="110.7" r="2.1"/>
	<circle style="fill:#FFFFFF;" cx="364.2" cy="140" r="2.1"/>
	<circle style="fill:#FFFFFF;" cx="366" cy="122.4" r="2.1"/>
	<circle style="fill:#FFFFFF;" cx="277.2" cy="116.3" r="2.1"/>
	<circle style="fill:#FFFFFF;" cx="276.5" cy="148.4" r="2.1"/>
	<circle style="fill:#FFFFFF;" cx="486.1" cy="137.9" r="2.1"/>
	<circle style="fill:#FFFFFF;" cx="300.5" cy="116.3" r="3"/>
	<circle style="opacity:0.5;fill:#FFFFFF;enable-background:new    ;" cx="327.7" cy="119.4" r="3"/>
	<circle style="opacity:0.5;fill:#FFFFFF;enable-background:new    ;" cx="268.7" cy="163" r="3"/>
	<circle style="opacity:0.5;fill:#FFFFFF;enable-background:new    ;" cx="306.8" cy="145.7" r="3"/>
	<circle style="opacity:0.5;fill:#FFFFFF;enable-background:new    ;" cx="265.7" cy="131.7" r="3"/>
	<circle style="opacity:0.5;fill:#FFFFFF;enable-background:new    ;" cx="401" cy="134.7" r="3"/>
	<circle style="opacity:0.5;fill:#FFFFFF;enable-background:new    ;" cx="243.9" cy="155" r="3"/>
	<circle style="opacity:0.5;fill:#FFFFFF;enable-background:new    ;" cx="407.6" cy="112" r="3"/>
	<circle style="opacity:0.5;fill:#FFFFFF;enable-background:new    ;" cx="436" cy="109" r="3"/>
	<circle style="opacity:0.5;fill:#FFFFFF;enable-background:new    ;" cx="431.8" cy="136.4" r="3"/>
	<circle style="opacity:0.5;fill:#FFFFFF;enable-background:new    ;" cx="446.2" cy="161.1" r="3"/>
	<circle style="opacity:0.5;fill:#FFFFFF;enable-background:new    ;" cx="477.4" cy="116.3" r="3"/>
	<circle style="opacity:0.5;fill:#FFFFFF;enable-background:new    ;" cx="466.7" cy="164.2" r="3"/>
	<circle style="fill:#FFFFFF;" cx="343.5" cy="157.6" r="3"/>
	<circle style="fill:#FFFFFF;" cx="393.9" cy="118.4" r="3"/>
	<circle style="fill:#FFFFFF;" cx="428.5" cy="158.1" r="3"/>
	<circle style="fill:#FFFFFF;" cx="249.9" cy="133.6" r="3"/>
	<circle style="fill:#FFFFFF;" cx="449.2" cy="140" r="3"/>
	<circle style="opacity:0.3;fill:#FFFFFF;enable-background:new    ;" cx="421.7" cy="117.5" r="2.1"/>
	<circle style="opacity:0.3;fill:#FFFFFF;enable-background:new    ;" cx="468.4" cy="128.6" r="2.1"/>
	<circle style="opacity:0.3;fill:#FFFFFF;enable-background:new    ;" cx="343.5" cy="126.5" r="2.1"/>
	<circle style="opacity:0.3;fill:#FFFFFF;enable-background:new    ;" cx="386.8" cy="140" r="2.1"/>
	<circle style="opacity:0.3;fill:#FFFFFF;enable-background:new    ;" cx="411.8" cy="143" r="2.1"/>
	<circle style="opacity:0.3;fill:#FFFFFF;enable-background:new    ;" cx="316" cy="142.2" r="2.1"/>
	<circle style="opacity:0.3;fill:#FFFFFF;enable-background:new    ;" cx="386" cy="166.3" r="2.1"/>
	<circle style="opacity:0.3;fill:#FFFFFF;enable-background:new    ;" cx="436" cy="175.5" r="2.1"/>
	<circle style="opacity:0.3;fill:#FFFFFF;enable-background:new    ;" cx="468.4" cy="161.1" r="2.1"/>
	<circle style="opacity:0.3;fill:#FFFFFF;enable-background:new    ;" cx="252.9" cy="168" r="2.1"/>
	<circle style="opacity:0.3;fill:#FFFFFF;enable-background:new    ;" cx="254.9" cy="110.7" r="2.1"/>
	<circle style="opacity:0.3;fill:#FFFFFF;enable-background:new    ;" cx="368.7" cy="170.6" r="2.1"/>
	<circle style="opacity:0.3;fill:#FFFFFF;enable-background:new    ;" cx="377.2" cy="114.2" r="2.1"/>
	<circle style="fill:#FFFFFF;" cx="232.2" cy="138" r="2.1"/>
	<circle style="fill:#FFFFFF;" cx="221.4" cy="123.8" r="2.1"/>
	<circle style="fill:#FFFFFF;" cx="145.3" cy="114.3" r="2.1"/>
	<circle style="fill:#FFFFFF;" cx="219.3" cy="176.5" r="2.1"/>
	<circle style="fill:#FFFFFF;" cx="144.5" cy="146.4" r="2.1"/>
	<circle style="fill:#FFFFFF;" cx="168.5" cy="114.3" r="3"/>
	<circle style="opacity:0.5;fill:#FFFFFF;enable-background:new    ;" cx="195.7" cy="117.3" r="3"/>
	<circle style="opacity:0.5;fill:#FFFFFF;enable-background:new    ;" cx="129.2" cy="145.1" r="3"/>
	<circle style="opacity:0.5;fill:#FFFFFF;enable-background:new    ;" cx="174.8" cy="143.7" r="3"/>
	<circle style="fill:#FFFFFF;" cx="211.5" cy="155.6" r="3"/>
	<circle style="fill:#FFFFFF;" cx="138.6" cy="168.2" r="3"/>
	<circle style="opacity:0.3;fill:#FFFFFF;enable-background:new    ;" cx="211.5" cy="124.5" r="2.1"/>
	<circle style="opacity:0.3;fill:#FFFFFF;enable-background:new    ;" cx="184.1" cy="140.2" r="2.1"/>
	<circle style="opacity:0.3;fill:#FFFFFF;enable-background:new    ;" cx="236.7" cy="168.6" r="2.1"/>
	<circle style="opacity:0.3;fill:#FFFFFF;enable-background:new    ;" cx="245.2" cy="112.2" r="2.1"/>
</g>
<rect x="120" y="-173" style="fill:none;" width="380" height="380"/>
<g>
	<g>
		<path style="fill:#9E5738;" d="M473.4,58.3c7.5,0.8,24.1,1.9,24,8.6c-0.1,4.4-2.3,8.4-2.1,12.5c-0.2,0.6,5.9,10.8-1.3,4.9
			c-1.1,2.5-2.1,5.3-3.8,7.6c-0.6-0.2-3.2-1.7-3.4-2.1c3.4-4.6,4.7-11.4,5.7-17.1c-0.8,0.4-2.8,2.2-4.2,2.6c-0.6,0.2-0.9,0-1.1-0.9
			c1.1-1.6,4.8-4.7,6.7-7.6c-6.7-5-18.4-3.3-21.2-4.3C471.4,62.2,470.9,58.7,473.4,58.3"/>
	</g>
	<g>
		<path style="fill:#9E5738;" d="M416.4,56.6c-7.5,0.8-24.1,1.9-24,8.6c0.1,4.4,2.6,15.3,3.4,17.5c1.1,2.5,2.1,5.3,3.8,7.6
			c0.6-0.2,3.2-1.7,3.4-2.1c-3.4-4.6-4.7-11.4-5.7-17.1c0.8,0.4,0.6,0.4,2,0.8c0.6,0.2,0.9,0,1.1-0.9c-1.1-1.6-2.6-3-4.5-5.9
			c6.7-5,18.4-3.3,21.2-4.3C418.4,60.5,419,57,416.4,56.6"/>
	</g>
	<path style="fill:#FFFFFF;" d="M462.9,28.6c-0.9,1.6-3.2,1.9-5.1,0.8c-1.9-1.1-2.7-3.3-1.8-4.8c0.9-1.6,3.6-1.8,5.6-0.7
		C463.4,25.1,463.8,27.1,462.9,28.6z"/>
	<g>
		<path style="fill:#779978;" d="M434.1,30.5c3.6-4.9,20.4-11.5,26.5-0.9c3,5.2,4.3,12,2,17.7c-2.4-0.4-4.6-3.7-6.8-5.2
			c-4.1-2.7-8.7-4.6-13.1-6.7C439.8,33.7,436.2,33.1,434.1,30.5z"/>
	</g>
	<g>
		<path style="fill:#FFFFFF;" d="M391.1,125.5c-5-31.4,16.2-61.4,20.2-66.1c4.7-6,10.8-8.1,12.1-15.5c4.7-22.1,34.8-20.7,40.8,0.7
			c0.6,2.2,0.5,4.8,2,6.2c9,8.6,14.3,12.1,21.5,29.4c4,8,7.3,31.2,4,39.9c-4,12.7-13.2,15.9-26.2,18.6
			C445.6,142.8,393.3,139.5,391.1,125.5z"/>
	</g>
	<g>
		<path style="fill:#3E3D40;" d="M446.9,42.5c0,1.2-0.9,2.1-2.1,2.1s-2.1-0.9-2.1-2.1s0.8-1.8,2-1.8
			C445.8,40.8,446.9,41.3,446.9,42.5z"/>
		<path style="fill:#FFFFFF;" d="M446.4,42.5c0,0.5-0.4,0.9-0.9,0.9s-0.9-0.4-0.9-0.9s0.3-0.7,0.8-0.7
			C445.9,41.7,446.4,42,446.4,42.5z"/>
	</g>
	<g>
		<path style="fill:#3E3D40;" d="M433.7,41.4c0,1.2-0.9,2.1-2.1,2.1c-1.2,0-2.1-0.9-2.1-2.1s0.8-1.8,2-1.8
			C432.7,39.6,433.7,40.2,433.7,41.4z"/>
		<path style="fill:#FFFFFF;" d="M433.2,41.3c0,0.5-0.4,0.9-0.9,0.9s-0.9-0.4-0.9-0.9s0.3-0.7,0.8-0.7
			C432.8,40.6,433.2,40.8,433.2,41.3z"/>
	</g>
	<path style="fill:#FF9D8D;" d="M445.9,49c0.1,1,1.1,1.7,2.3,1.6c1.2-0.1,2-1,1.9-2c-0.1-1-1.1-1.7-2.3-1.6
		C446.6,47.1,445.8,48,445.9,49z"/>
	<g>
		<g>
			<path style="fill:#B51C1C;" d="M441.5,58.4c-3.9,3.7-3.1,6.9-3.7,11.4c-0.1,0.5,0.1,0.5-0.4,0.8s-2.2,0.3-2.8,0.5
				c-0.7,0.1-2,0.2-2.7,0.3c-1.6,0.2-1.4,0.5-1.8-0.2c-1.2-1.9,0-4.8,0.1-7c0-1.7,1.3-3.3,2.3-4.9c0.9-1.4,1.2-1.2,3.5-1.1
				C437.8,58.1,439.7,58.2,441.5,58.4"/>
		</g>
		<g>
			<ellipse style="fill:#B51C1C;" cx="432.4" cy="73.3" rx="0.7" ry="3.6"/>
			<ellipse style="fill:#B51C1C;" cx="434.6" cy="73.2" rx="0.7" ry="3.6"/>
			<ellipse style="fill:#B51C1C;" cx="437.1" cy="73.1" rx="0.7" ry="3.6"/>
		</g>
	</g>
	<g>
		<path style="fill:#CE2020;" d="M468.1,47.7c1.7,10.5-12.7,18.1-26,17c-13.3-1.2-35.7-10.5-17.9-23c4.9,6.8,7.3,9.5,19,10.5
			c10.3,0.9,17.6-5.3,21.1-8.9C466.9,43.9,467.7,45.3,468.1,47.7z"/>
	</g>
	<g>
		<path style="fill:#F48357;" d="M420.6,38.5c-0.9,2.1,10.2,12.9,12,13.7c1.8,0.8,4.4-0.3,5.4-2.3c0.9-2.1-0.2-4.3-2-5.1
			C434.2,43.9,421.5,36.4,420.6,38.5z"/>
		<path style="fill:#DD6C4A;" d="M420.6,38.5c-0.9,2.1,10.2,12.9,12,13.7c1.8,0.8,4.4-0.3,5.4-2.3C433.1,52.3,423.3,42.1,420.6,38.5
			z"/>
		<path style="fill:#DD6C4A;" d="M433.3,44c0.5-0.1,1.5,0.8,1.7,1.7c0.2,1,0,1.8-0.5,1.9s-1-0.6-1.2-1.6
			C433.2,45.1,432.8,44.1,433.3,44z"/>
		<path style="fill:#DD6C4A;" d="M430.6,42.6c0.3-0.1,1.1,0.5,1.2,1.2c0.1,0.7,0,1.2-0.3,1.3c-0.3,0.1-1-0.6-1.1-1.2
			C430.2,43.2,430.3,42.6,430.6,42.6z"/>
		<path style="fill:#DD6C4A;" d="M428.5,41.6c0.2,0,0.5,0.2,0.5,0.5c0.1,0.3-0.2,0.4-0.4,0.5c-0.2,0-0.5-0.1-0.5-0.4
			C428.1,41.8,428.3,41.6,428.5,41.6z"/>
		<path style="fill:#DD6C4A;" d="M426.4,40.7c0.2,0,0.5,0.2,0.5,0.5c0.1,0.3-0.2,0.4-0.4,0.5c-0.2,0-0.5-0.1-0.5-0.4
			C426,40.9,426.2,40.7,426.4,40.7z"/>
	</g>
	<g>
		<g>
			<g>
				<path style="fill:#E22323;" d="M440.6,51.8c0,0,0.1-0.3-1.1-1c-2.6-1.5-9.1-3.4-11.4-2c-3.4,2.1-9,16.7-6.6,24.3
					c0,0,6,2.3,10.5,1.1l0.1-0.6C432.1,73.7,431.1,51.3,440.6,51.8z"/>
			</g>
		</g>
		<ellipse style="fill:#E22323;" cx="422.5" cy="76.1" rx="0.7" ry="3.6"/>
		<ellipse style="fill:#E22323;" cx="425" cy="76.6" rx="0.7" ry="3.6"/>
		<ellipse style="fill:#E22323;" cx="428" cy="76.8" rx="0.7" ry="3.6"/>
		<ellipse style="fill:#E22323;" cx="430.5" cy="76.8" rx="0.7" ry="3.6"/>
	</g>
	<path style="fill:#3E3D40;" d="M434.5,84.6c-1.8,0.8-2.6,2.8-1.8,4.6c0.8,1.8,2.8,2.6,4.6,1.8c1.8-0.8,2.9-2.1,2.1-3.9
		C438.6,85.4,436.3,83.8,434.5,84.6z"/>
	<path style="fill:#3E3D40;" d="M433.8,112c-1.8,0.8-2.6,2.8-1.8,4.6s2.8,2.6,4.6,1.8s2.9-2.1,2.1-3.9
		C437.9,112.8,435.5,111.2,433.8,112z"/>
</g>
<rect x="120" y="-173" style="fill:none;" width="380" height="380"/>
<g>
	<path style="fill:#FFFFFF;" d="M130.9,100.4c2.7,1,5.7-0.6,6.8-3.6s-0.2-6.2-2.9-7.2s-5.7-0.3-6.8,2.7
		C127,95.3,128.2,99.5,130.9,100.4z"/>
	<g>
		<path style="fill:#FFFFFF;" d="M209.4,128.9c0.9-23.1,5-47.6-10.9-67.3c-9.1-11.5-31.1-20.3-44.9-12.1
			c-23.6,14.2-20.4,53.4-22.1,77.2c2.4,5.7,19.7,6.1,30,6.5C173.3,133.7,190.1,133.8,209.4,128.9"/>
	</g>
	<g>
		<g>
			<path style="fill:#9E5738;" d="M188.8,77.7c2.7-1.4,4.4-4.2,6.8-5.8c1.1-0.7,3.6-0.6,4.5-1.3c0.2-0.2,0.1-0.3,0.1-0.7
				c-0.9,0-2.1,0.2-3,0c0.8-1,2-2.3,2.7-3.5c0.2-0.5-0.5-1-0.9-0.7c-1.8,1.1-3.1,3.4-4.5,5c-0.5-0.8-0.7-3.6-1.3-1.3
				c-0.5,1.6,0.3,2-1.1,3.4c-1,1.1-2.3,2.6-3.6,3.4c-0.4,0.3-7.3,4.3-7.6,4.6c-0.5,0.6-0.2,1.8,1.1,1.8L188.8,77.7z"/>
		</g>
	</g>
	<g>
		<path style="fill:#9E5738;" d="M136,99.7c-1.2-0.9-2.1-2.1-3-3.3c-0.2-0.3-2.5,0-2.7-0.3c-0.1-0.1-0.4-0.7,0-0.9
			c0.5-0.3,1.8-0.2,1.7-0.3c-0.5-0.7-1.1-1.4-1.7-1.9c-1-0.9-3.4-1.1-4.2-2c-0.2-0.2,0-0.3,0-0.7c0.9,0.2,2,0.5,3,0.5
			c-0.6-1.2-1.6-2.6-2.1-3.9c-0.1-0.5,0.6-0.9,1-0.5c1.6,1.4,2.5,3.9,3.7,5.7c0.6-0.7,1.2-2.2,1.4,0.2c0.2,1.7-0.5,0.7,0.7,2.3
			c0.8,1.3,1.9,2.9,3,4c0.4,0.3,6.5,5.4,6.7,5.7c0.4,0.7-0.1,1.8-1.4,1.6L136,99.7z"/>
	</g>
	<g>
		<path style="fill:#F48357;" d="M148.2,38.4c-1.8,1.8,6,17.4,7.5,19c1.6,1.5,4.8,1.4,6.6-0.4c1.8-1.8,1.4-4.6-0.1-6.2
			C160.6,49.3,150,36.6,148.2,38.4z"/>
		<path style="fill:#DD6C4A;" d="M148.2,38.4c-1.8,1.8,6,17.4,7.5,19c1.6,1.5,4.8,1.4,6.6-0.4C156.3,57.7,149.8,43.3,148.2,38.4z"/>
		<path style="fill:#DD6C4A;" d="M159.6,49.1c0.5,0.1,1.3,1.4,1.2,2.5s-0.7,1.9-1.2,1.8s-0.8-1-0.7-2.1
			C159.1,50.2,159.1,49,159.6,49.1z"/>
		<path style="fill:#DD6C4A;" d="M157.3,46.5c0.4,0,0.9,1,0.8,1.7s-0.5,1.3-0.8,1.3c-0.4,0-0.8-1-0.7-1.7
			C156.6,47,156.9,46.4,157.3,46.5z"/>
		<path style="fill:#DD6C4A;" d="M155.4,44.7c0.2,0,0.4,0.4,0.4,0.7c0,0.3-0.3,0.4-0.5,0.4s-0.5-0.3-0.4-0.6
			C154.9,44.8,155.2,44.6,155.4,44.7z"/>
		<path style="fill:#DD6C4A;" d="M153.6,42.9c0.2,0,0.4,0.4,0.4,0.7s-0.3,0.4-0.5,0.4s-0.5-0.3-0.4-0.6
			C153,43.1,153.4,42.9,153.6,42.9z"/>
	</g>
	<g>
		<path style="fill:#3E3D40;" d="M184.9,65c0,1-0.8,1.9-1.9,1.9c-1,0-1.9-0.8-1.9-1.9c0-1,1.4-1.6,2.4-1.6
			C184.6,63.4,184.9,64,184.9,65z"/>
		<path style="fill:#FFFFFF;" d="M183.4,65.5c0,0.4-0.4,0.8-0.8,0.8c-0.4,0-0.8-0.4-0.8-0.8s0.3-0.7,0.7-0.7
			C183,64.8,183.4,65.1,183.4,65.5z"/>
	</g>
	<g>
		<path style="fill:#3E3D40;" d="M155.7,78.6c0,1-0.8,1.9-1.9,1.9c-1,0-1.9-0.8-1.9-1.9c0-1,1.4-1.6,2.4-1.6
			C155.4,76.9,155.7,77.6,155.7,78.6z"/>
		<path style="fill:#FFFFFF;" d="M154.2,79.1c0,0.4-0.4,0.8-0.8,0.8s-0.8-0.4-0.8-0.8s0.3-0.7,0.7-0.7
			C153.8,78.4,154.2,78.6,154.2,79.1z"/>
	</g>
	<g>
		<path style="fill:#8C312A;" d="M185.4,108c1-0.3,1.6-1.7,0.9-2.9c-2.2-3.8-6.2-5.2-10.6-4.6c-2,0.1-3.1,1-2.6,2l0,0
			c0.4,1,1.2,0.7,2,0.6c2.8-0.4,6.3,1.5,7.8,4C183.3,107.8,184.3,108.3,185.4,108L185.4,108z"/>
		<path style="fill:#C6584F;" d="M178.3,102.5c-2.1-1.1-4.4,0.4-4.5,0.6c0.4,0.1,0.8,0,1.3-0.1c1.7-0.2,3.5,0.3,5.1,1.3
			C180.1,104.1,179.6,103.2,178.3,102.5z"/>
	</g>
	<path style="fill:#FFFFFF;" d="M181.3,52.4c0,2.9,2.6,5.2,5.8,5.2c3.2,0,5.8-2.3,5.8-5.2S191.2,47,188,47
		C184.8,47,181.3,49.5,181.3,52.4z"/>
</g>
<rect x="120" y="-173" style="fill:none;" width="380" height="380"/>
<g id="XMLID_1_">
	<path id="XMLID_9_" style="fill:#62BA47;" d="M461.6,102c0,11.6-9.5,21.1-21.1,21.1s-21.1-9.5-21.1-21.1s9.5-21.1,21.1-21.1
		S461.6,90.4,461.6,102z"/>
	<g id="XMLID_2_">
		<path id="XMLID_23_" style="fill:#FFFFFF;" d="M435.3,99c-1.7,0.2-2.2,2.3-2.3,3.7l0,0l0,0c0,0.2,0,0.4,0,0.6c0,0.7,0,1.2-0.1,1.9
			c0,0.3-0.1,0.8-0.2,0.8c-0.6,0.1-1.1-0.9-1.3-1.3c-0.4-1.1-0.7-2.2-0.9-3.3c-0.2-1.2-0.4-2.5-0.4-3.8c0-0.5,0-1,0-1.5
			c0-0.2,0-0.4,0-0.6s0-0.4,0-0.4c0.2-0.9-1.1,0-1.4,0.4c-1.4,2.5-1,5.4-0.9,8c0,0.7,0,1.4-0.2,2.2c-0.1,0.5-0.2,1.4-0.6,1.8
			c-0.3,0.3-0.7,0-0.9-0.1c-0.4-0.2-0.5-0.5-0.6-0.9c-0.1-0.4-0.5-0.2-0.7,0c-0.3,0.3-0.6,0.9-0.5,1.3c0.2,0.9,1,1.8,2,1.5
			c1.6-0.5,2.2-2.3,2.6-3.8c0.2-0.7,0.3-1.4,0.3-2.1c0.2,1.1,0.5,2.1,1,3c0.4,0.7,1,1.4,1.9,1.3c0.7-0.1,1.1-0.8,1.4-1.6
			c0.3,0.7,0.8,1.2,1.6,1.1c0.9-0.1,1.6-1,1.9-1.7c0.4-0.9,0.5-1.8,0.5-2.7C437.5,101.5,437.1,98.8,435.3,99z M435.9,105.1
			c0,0.2-0.1,0.4-0.2,0.5c-0.4,0-0.6-0.5-0.7-0.8c-0.3-0.6-0.4-1.2-0.5-1.8c-0.1-0.7,0-1.3,0.1-2c0-0.2,0.1-0.4,0.2-0.5
			c0.9,0.6,1.1,1.7,1.1,2.6C436,103.8,436,104.5,435.9,105.1z"/>
		<path id="XMLID_20_" style="fill:#FFFFFF;" d="M456.3,101.5c-1.9-0.7-3,1.9-3.3,3.2c-0.3,1.3-0.7,3.7,0.9,4.3
			c0.8,0.4,1.7-0.3,2.2-0.8c0.6-0.6,0.9-1.5,1.2-2.3C457.6,104.6,458,102.1,456.3,101.5z M455.1,107.6c-0.1,0.2-0.2,0.3-0.3,0.4
			c-0.3-0.2-0.4-0.8-0.4-1.1c-0.1-0.7,0-1.3,0.1-2c0.1-0.6,0.3-1.3,0.6-1.9c0.1-0.2,0.2-0.3,0.3-0.4c0.7,0.8,0.5,2,0.4,3
			C455.6,106.3,455.5,107,455.1,107.6z"/>
		<path id="XMLID_15_" style="fill:#FFFFFF;" d="M451.2,101.8c0.4-0.5,0.7-1,1-1.4c0.7-1.1,1.4-2.3,1.3-3.6
			c-0.1-1.2-1.7-1.3-2.5-0.9c-1.2,0.6-1.9,1.9-2.3,3.1c-0.5,1.6-0.7,3.3-0.8,4.9l0,0c-0.6,0.7-1.8,2.2-2.8,1.6
			c-0.2-0.2-0.4-0.5-0.5-0.8c0.8-0.8,1.4-1.6,2.1-2.6c0.5-0.9,0.9-2.3-0.1-2.9c-0.9-0.5-2.1,0.1-2.7,0.8c-0.6,0.7-0.9,1.7-1,2.7
			c0,0.5-0.1,1.4,0,2.2c-0.5,0.4-1.3,0.5-1.9,0.4c-0.7-0.2-1-0.9-1.1-1.5c-0.2-0.9-0.2-1.8,0-2.7c0-0.3,0.1-0.5,0.2-0.8
			c0-0.1,0-0.1,0.1-0.2c0.4,0.2,0.6,0.9,0.7,1.2c0.2,0.6,1.8-0.4,1.6-1s-0.4-1.3-1.1-1.6c-0.7-0.3-1.6,0.2-2,0.6
			c-1.1,1.1-1.3,2.9-1.2,4.3c0,1,0.3,2.2,1.1,2.7c1.1,0.7,2.7,0.1,3.8-0.6c0.3,0.7,0.8,1.2,1.7,1.1c1.1-0.2,2.1-0.8,3-1.6
			c0,0.9,0.2,1.8,0.9,2.1c1,0.6,2.2-0.1,2.9-0.9c0.9-1.1,1.3-2.6,0.9-3.9C452.3,102.1,451.7,101.9,451.2,101.8z M444.8,101.1
			c0.1-0.2,0.2-0.5,0.3-0.7l0,0c0.5,0.1,0.5,0.7,0.5,1.1c-0.1,0.7-0.5,1.4-1.1,2c0-0.1,0-0.2,0-0.4
			C444.5,102.5,444.6,101.8,444.8,101.1z M450.9,97.7c0.1-0.2,0.3-0.5,0.5-0.7l0,0c0.7,0.8,0,2-0.4,2.7s-0.9,1.5-1.4,2.2
			c0.1-0.7,0.2-1.4,0.4-2.1C450.3,99,450.5,98.3,450.9,97.7z M450.5,106.3c0,0.1-0.1,0.2-0.2,0.3c0,0-0.1,0-0.2,0
			c-0.5-0.2-0.5-1.3-0.5-1.6c0-0.4,0-0.7,0-1.1c0.2-0.2,0.4-0.4,0.6-0.7c0.4-0.3,0.7,0.3,0.8,0.7
			C451.1,104.6,450.8,105.6,450.5,106.3z"/>
	</g>
</g>
</svg>
