<?xml version="1.0" encoding="utf-8"?>
<!-- Generator: Adobe Illustrator 19.0.0, SVG Export Plug-In . SVG Version: 6.00 Build 0)  -->
<svg version="1.1" id="Layer_1" xmlns="http://www.w3.org/2000/svg" xmlns:xlink="http://www.w3.org/1999/xlink" x="0px" y="0px"
	 viewBox="-486 476 50 50" style="enable-background:new -486 476 50 50;" xml:space="preserve">
<style type="text/css">
	.st0{clip-path:url(#SVGID_2_);fill:#EFD9CB;}
	.st1{fill:none;}
	.st2{fill:#FFEFE6;}
</style>
<g>
	<defs>
		<circle id="SVGID_1_" cx="-461" cy="501" r="25"/>
	</defs>
	<use xlink:href="#SVGID_1_"  style="overflow:visible;fill:#EFD9CB;"/>
	<clipPath id="SVGID_2_">
		<use xlink:href="#SVGID_1_"  style="overflow:visible;"/>
	</clipPath>
	<polygon class="st0" points="-398.4,418.4 -402.8,418.4 -402.5,453.3 -402.6,477.2 -402.3,527.2 -402.3,586.3 -398.4,586.3 
		-398.4,510.1 -398.4,466.3 	"/>
</g>
<path class="st1" d="M-473.9,479.6c-1.6,1-3.2,2.2-4.5,3.5l0,20.8v15c1.4,1.4,3,2.6,4.7,3.6v-1.9L-473.9,479.6z"/>
<path class="st1" d="M-447,480.3c-1.5-1-3.1-1.9-4.9-2.6l0,21.4v25.1c1.8-0.7,3.5-1.6,5-2.7v-5.9L-447,480.3z"/>
<path class="st1" d="M-456,476.5c-1.6-0.3-3.3-0.5-5-0.5v22.8V526c1.8,0,3.6-0.2,5.3-0.6V516L-456,476.5z"/>
<path class="st1" d="M-442.9,483.8l0,12v22.5c1.9-2,3.5-4.4,4.7-7l-0.1-20.8C-439.5,488-441.1,485.7-442.9,483.8z"/>
<path class="st1" d="M-465.1,476.4c-1.6,0.3-3.2,0.7-4.7,1.3v25v21.9c1.6,0.6,3.2,1,4.9,1.3v-8.1L-465.1,476.4z"/>
<path class="st1" d="M-486,501c0,4.7,1.3,9.1,3.6,12.9l-0.2-25.4C-484.8,492.1-486,496.4-486,501z"/>
<path class="st2" d="M-469.8,477.6c-1.4,0.5-2.8,1.2-4.1,2l0.2,41v1.9c1.2,0.7,2.5,1.4,3.9,1.9v-21.9V477.6z"/>
<path class="st2" d="M-478.4,483.1c-1.6,1.6-3,3.4-4.1,5.3l0.2,25.4c1.1,1.9,2.5,3.6,4,5.1v-15L-478.4,483.1z"/>
<path class="st2" d="M-442.9,483.8c-1.2-1.3-2.6-2.4-4.1-3.4l0.2,35.4v5.9c1.4-1,2.7-2.1,3.9-3.3v-22.5L-442.9,483.8z"/>
<path class="st2" d="M-451.8,477.8c-1.3-0.5-2.7-0.9-4.2-1.2l0.3,39.5v9.5c1.3-0.3,2.6-0.7,3.9-1.2v-25.1L-451.8,477.8z"/>
<path class="st2" d="M-461,476c-1.4,0-2.8,0.1-4.1,0.3l0.2,41.2v8.1c1.3,0.2,2.6,0.3,3.9,0.3v-27.2V476z"/>
<path class="st2" d="M-438.3,490.5l0.1,20.8c1.4-3.1,2.2-6.6,2.2-10.3C-436,497.2-436.8,493.7-438.3,490.5z"/>
</svg>
