<?xml version="1.0" encoding="utf-8"?>
<!-- Generator: Adobe Illustrator 19.0.0, SVG Export Plug-In . SVG Version: 6.00 Build 0)  -->
<svg version="1.1" id="Layer_1" xmlns="http://www.w3.org/2000/svg" xmlns:xlink="http://www.w3.org/1999/xlink" x="0px" y="0px"
	 viewBox="170 715.1 380 380" style="enable-background:new 170 715.1 380 380;" xml:space="preserve">
<rect x="170" y="715" style="fill:#FFFFFF;" width="380" height="380"/>
<g>
	<rect x="170" y="932" style="fill:#FFFFFF;" width="380" height="95"/>
	<rect x="170" y="983" style="fill:#E0EAE2;" width="380" height="14"/>
</g>
<rect x="170" y="715" style="fill:#A8D6E2;" width="380" height="235"/>
<polygon style="fill:#E0EAE2;" points="550,954 170,954 170,908.9 247.9,864.3 316.8,891.2 334.9,864.3 406.1,892.3 456,864.3 
	500.1,884.8 550,864.3 "/>
<g>
	<g>
		<g>
			<rect x="237" y="868" style="fill:#FFD5BB;" width="6" height="22"/>
			<polygon style="fill:#FF7543;" points="270,894.3 252,866.8 234,894.3 234,973 270,973 			"/>
			<rect x="234" y="945" style="fill:#FFD5BB;" width="36" height="28"/>
			<path style="fill:#DF3300;" d="M244.6,972.9v-17.2c0-2-1.6-3.6-3.6-3.6s-3.6,1.6-3.6,3.6v17.2H244.6z"/>
			<g>
				<rect x="234" y="939" style="fill:#FFD5BB;" width="36" height="3"/>
				<g>
					<g>
						<path style="fill:#DF3300;" d="M247.9,940.2v-12.4c0-2-1.6-3.6-3.6-3.6c-2,0-3.6,1.6-3.6,3.6v12.4H247.9z"/>
						<path style="fill:#FFD5BB;" d="M249.3,941.6h-10v-13.9c0-2.8,2.3-5,5-5c2.8,0,5,2.3,5,5V941.6z M242.1,938.7h4.3v-11
							c0-1.2-1-2.2-2.2-2.2c-1.2,0-2.2,1-2.2,2.2V938.7z"/>
					</g>
					<g>
						<path style="fill:#DF3300;" d="M263.7,940.2v-12.4c0-2-1.6-3.6-3.6-3.6c-2,0-3.6,1.6-3.6,3.6v12.4H263.7z"/>
						<path style="fill:#FFD5BB;" d="M265.1,941.6h-10v-13.9c0-2.8,2.3-5,5-5c2.8,0,5,2.3,5,5V941.6z M257.9,938.7h4.3v-11
							c0-1.2-1-2.2-2.2-2.2c-1.2,0-2.2,1-2.2,2.2V938.7z"/>
					</g>
				</g>
			</g>
			<g>
				<rect x="234" y="917" style="fill:#FFD5BB;" width="36" height="3"/>
				<g>
					<g>
						<path style="fill:#DF3300;" d="M247.9,917.8v-12.4c0-2-1.6-3.6-3.6-3.6c-2,0-3.6,1.6-3.6,3.6v12.4H247.9z"/>
						<path style="fill:#FFD5BB;" d="M249.3,919.2h-10v-13.9c0-2.8,2.3-5,5-5c2.8,0,5,2.3,5,5V919.2z M242.1,916.3h4.3v-11
							c0-1.2-1-2.2-2.2-2.2c-1.2,0-2.2,1-2.2,2.2V916.3z"/>
					</g>
					<g>
						<path style="fill:#DF3300;" d="M263.7,917.8v-12.4c0-2-1.6-3.6-3.6-3.6c-2,0-3.6,1.6-3.6,3.6v12.4H263.7z"/>
						<path style="fill:#FFD5BB;" d="M265.1,919.2h-10v-13.9c0-2.8,2.3-5,5-5c2.8,0,5,2.3,5,5V919.2z M257.9,916.3h4.3v-11
							c0-1.2-1-2.2-2.2-2.2c-1.2,0-2.2,1-2.2,2.2V916.3z"/>
					</g>
				</g>
			</g>
			<g>
				<rect x="234" y="894" style="fill:#FFD5BB;" width="36" height="3"/>
				<g>
					<g>
						<path style="fill:#DF3300;" d="M255.8,894.9v-12.4c0-2-1.6-3.6-3.6-3.6c-2,0-3.6,1.6-3.6,3.6v12.4H255.8z"/>
						<path style="fill:#FFD5BB;" d="M257.2,896.3h-10v-13.9c0-2.8,2.3-5,5-5c2.8,0,5,2.3,5,5V896.3z M250,893.5h4.3v-11
							c0-1.2-1-2.2-2.2-2.2c-1.2,0-2.2,1-2.2,2.2V893.5z"/>
					</g>
				</g>
			</g>
			<path style="fill:#DF3300;" d="M267.1,972.9v-17.2c0-2-1.6-3.6-3.6-3.6c-2,0-3.6,1.6-3.6,3.6v17.2H267.1z"/>
			<path style="fill:#454C53;" d="M256.5,972.9v-20.5c0-2.4-1.9-4.3-4.3-4.3c-2.4,0-4.3,1.9-4.3,4.3v20.5H256.5z"/>
			<path style="fill:#454C53;" d="M272.2,892l-18.5-28.3c-0.3-0.5-0.9-0.8-1.5-0.7c-0.6,0-1.2,0.2-1.5,0.7L232.2,892
				c-0.5,0.8-0.3,1.8,0.5,2.3c0.8,0.5,1.8,0.3,2.3-0.5l17.3-26.3l17.3,26.3c0.5,0.8,1.5,1,2.3,0.5
				C272.5,893.8,272.7,892.8,272.2,892z"/>
		</g>
		<g>
			<rect x="322" y="891" style="fill:#454C53;" width="5" height="22"/>
			<polygon style="fill:#DF3300;" points="331,916.7 312.5,889.2 294,916.7 294,973 331,973 			"/>
			<rect x="294" y="945" style="fill:#454C53;" width="37" height="28"/>
			<path style="fill:#FFD5BB;" d="M304.5,972.9v-17.2c0-2-1.6-3.6-3.6-3.6c-2,0-3.6,1.6-3.6,3.6v17.2H304.5z"/>
			<path style="fill:#FFD5BB;" d="M307,927.7c0-1.2-1.3-2.2-2.5-2.2s-2.5,1-2.5,2.2V938h5V927.7z"/>
			<path style="fill:#FFD5BB;" d="M323,927.7c0-1.2-1.3-2.2-2.5-2.2s-2.5,1-2.5,2.2V938h5V927.7z"/>
			<path style="fill:#454C53;" d="M326,927.7c0-2.8-2.7-5-5.5-5s-5.5,2.3-5.5,5V939h-5v-11.3c0-2.8-2.2-5-5-5s-5,2.3-5,5V939h-6v3
				h37v-3h-5V927.7z M318,927.7c0-1.2,1.3-2.2,2.5-2.2s2.5,1,2.5,2.2V938h-5V927.7z M302,927.7c0-1.2,1.3-2.2,2.5-2.2s2.5,1,2.5,2.2
				V938h-5V927.7z"/>
			<path style="fill:#454C53;" d="M318,917v-12.1c0-2.8-2.7-5-5.5-5s-5.5,2.3-5.5,5V917h-13v3h37v-3H318z M310,904.9
				c0-1.2,1.3-2.2,2.5-2.2s2.5,1,2.5,2.2V916h-5V904.9z"/>
			<path style="fill:#FFD5BB;" d="M315,904.9c0-1.2-1.3-2.2-2.5-2.2s-2.5,1-2.5,2.2V916h5V904.9z"/>
			<path style="fill:#FFD5BB;" d="M327,972.9v-17.2c0-2-1.6-3.6-3.6-3.6c-2,0-3.6,1.6-3.6,3.6v17.2H327z"/>
			<path style="fill:#FF7543;" d="M316.3,972.9v-20.5c0-2.4-1.9-4.3-4.3-4.3c-2.4,0-4.3,1.9-4.3,4.3v20.5H316.3z"/>
			<path style="fill:#FF7543;" d="M332.1,914.4l-18.5-28.3c-0.3-0.5-0.9-0.8-1.5-0.7c-0.6,0-1.2,0.2-1.5,0.7L292,914.4
				c-0.5,0.8-0.3,1.8,0.5,2.3c0.8,0.5,1.8,0.3,2.3-0.5l17.3-26.3l17.3,26.3c0.5,0.8,1.5,1,2.3,0.5
				C332.4,916.2,332.6,915.2,332.1,914.4z"/>
		</g>
		<g>
			<path style="fill:#785105;" d="M283,971.1c0,1.1-1.1,1.9-2.2,1.9h-0.2c-1,0-1.6-0.9-1.6-1.9v-16.2c0-1.1,0.6-1.9,1.6-1.9h0.2
				c1,0,2.2,0.9,2.2,1.9V971.1z"/>
			<polygon style="fill:#92CCDB;" points="292.6,963 270.2,963 281.4,911.6 			"/>
			<polygon style="fill:#FFFFFF;" points="288.8,945.2 281.4,911.9 273.5,945.2 			"/>
		</g>
		<g>
			<rect x="340" y="882" style="fill:#6DAAC5;" width="7" height="28"/>
			<polygon style="fill:#92CCDB;" points="380,910.9 358,876 336,910.9 336,973 380,973 			"/>
			<rect x="336" y="937" style="fill:#FFFFFF;" width="44" height="4"/>
			<rect x="335" y="954" style="fill:#FFFFFF;" width="46" height="19"/>
			<path style="fill:#FF7543;" d="M348.4,972.9V951c0-2.5-2-4.6-4.6-4.6c-2.5,0-4.6,2.1-4.6,4.6v21.9H348.4z"/>
			<path style="fill:#FF7543;" d="M377,972.9V951c0-2.5-2-4.6-4.6-4.6c-2.5,0-4.6,2.1-4.6,4.6v21.9H377z"/>
			<rect x="336" y="905" style="fill:#FFFFFF;" width="44" height="3"/>
			<path style="fill:#454C53;" d="M363.4,972.9v-23.2c0-3-2.4-5.5-5.4-5.5c-3,0-5.4,2.4-5.4,5.5v23.2H363.4z"/>
			<path style="fill:#DF3300;" d="M383.5,908l-23.6-36c-0.4-0.7-1.2-1-1.9-0.9c-0.7-0.1-1.5,0.3-1.9,0.9l-23.6,36
				c-0.6,1-0.4,2.3,0.6,2.9c1,0.6,2.3,0.4,2.9-0.6l22-33.5l22,33.5c0.6,1,2,1.3,2.9,0.6C383.9,910.3,384.1,909,383.5,908z"/>
			<rect x="336" y="928" style="fill:#FFFFFF;" width="44" height="3"/>
			<g>
				<path style="fill:#DF3300;" d="M347.4,929.7v-12.4c0-2-1.6-3.6-3.6-3.6c-2,0-3.6,1.6-3.6,3.6v12.4H347.4z"/>
				<path style="fill:#FFFFFF;" d="M348.8,931.1h-10v-13.9c0-2.8,2.3-5,5-5s5,2.3,5,5V931.1z M341.6,928.3h4.3v-11
					c0-1.2-1-2.2-2.2-2.2s-2.2,1-2.2,2.2V928.3z"/>
			</g>
			<g>
				<path style="fill:#DF3300;" d="M376.4,929.7v-12.4c0-2-1.6-3.6-3.6-3.6c-2,0-3.6,1.6-3.6,3.6v12.4H376.4z"/>
				<path style="fill:#FFFFFF;" d="M377.8,931.1h-10v-13.9c0-2.8,2.3-5,5-5c2.8,0,5,2.3,5,5V931.1z M370.6,928.3h4.3v-11
					c0-1.2-1-2.2-2.2-2.2c-1.2,0-2.2,1-2.2,2.2V928.3z"/>
			</g>
			<g>
				<path style="fill:#DF3300;" d="M361.6,929.7v-12.4c0-2-1.6-3.6-3.6-3.6c-2,0-3.6,1.6-3.6,3.6v12.4H361.6z"/>
				<path style="fill:#FFFFFF;" d="M363,931.1h-10v-13.9c0-2.8,2.3-5,5-5c2.8,0,5,2.3,5,5V931.1z M355.8,928.3h4.3v-11
					c0-1.2-1-2.2-2.2-2.2c-1.2,0-2.2,1-2.2,2.2V928.3z"/>
			</g>
			<g>
				<path style="fill:#DF3300;" d="M361.6,905.2v-12.4c0-2-1.6-3.6-3.6-3.6c-2,0-3.6,1.6-3.6,3.6v12.4H361.6z"/>
				<path style="fill:#FFFFFF;" d="M363,906.6h-10v-13.9c0-2.8,2.3-5,5-5c2.8,0,5,2.3,5,5V906.6z M355.8,903.7h4.3v-11
					c0-1.2-1-2.2-2.2-2.2c-1.2,0-2.2,1-2.2,2.2V903.7z"/>
			</g>
		</g>
		<g>
			<rect x="428" y="902" style="fill:#DF3300;" width="7" height="22"/>
			<polygon style="fill:#454C53;" points="393,925.2 416.5,899.8 440,925.2 440,973 393,973 			"/>
			<rect x="393" y="954" style="fill:#FFD5BB;" width="47" height="19"/>
			<path style="fill:#454C53;" d="M435.5,972.9v-9.9c0-2.5-2-4.6-4.6-4.6c-2.5,0-4.6,2.1-4.6,4.6v9.9H435.5z"/>
			<path style="fill:#454C53;" d="M406.8,972.9v-9.9c0-2.5-2-4.6-4.6-4.6c-2.5,0-4.6,2.1-4.6,4.6v9.9H406.8z"/>
			<rect x="393" y="924" style="fill:#FFD5BB;" width="47" height="3"/>
			<path style="fill:#454C53;" d="M422.2,972.9v-11.2c0-3-2.4-5.5-5.4-5.5c-3,0-5.4,2.4-5.4,5.5v11.2H422.2z"/>
			<path style="fill:#FF7543;" d="M391.2,922.3l23.6-26.5c0.4-0.7,1.2-1,1.9-0.9c0.7-0.1,1.5,0.3,1.9,0.9l23.6,26.5
				c0.6,1,0.4,2.3-0.6,2.9c-1,0.6-2.3,0.4-2.9-0.6l-22-24l-22,24c-0.6,1-2,1.3-2.9,0.6C390.8,924.6,390.6,923.3,391.2,922.3z"/>
			<rect x="393" y="947" style="fill:#FFD5BB;" width="47" height="4"/>
			<g>
				<path style="fill:#DF3300;" d="M427.3,948.7v-12.4c0-2,1.6-3.6,3.6-3.6c2,0,3.6,1.6,3.6,3.6v12.4H427.3z"/>
				<path style="fill:#FFD5BB;" d="M435.9,950.2h-10v-13.9c0-2.8,2.3-5,5-5s5,2.3,5,5V950.2z M428.7,947.3h4.3v-11
					c0-1.2-1-2.2-2.2-2.2s-2.2,1-2.2,2.2V947.3z"/>
			</g>
			<g>
				<path style="fill:#DF3300;" d="M398.3,948.7v-12.4c0-2,1.6-3.6,3.6-3.6c2,0,3.6,1.6,3.6,3.6v12.4H398.3z"/>
				<path style="fill:#FFD5BB;" d="M406.9,950.2h-10v-13.9c0-2.8,2.3-5,5-5c2.8,0,5,2.3,5,5V950.2z M399.8,947.3h4.3v-11
					c0-1.2-1-2.2-2.2-2.2c-1.2,0-2.2,1-2.2,2.2V947.3z"/>
			</g>
			<g>
				<path style="fill:#DF3300;" d="M413.1,948.7v-12.4c0-2,1.6-3.6,3.6-3.6c2,0,3.6,1.6,3.6,3.6v12.4H413.1z"/>
				<path style="fill:#FFD5BB;" d="M421.7,950.2h-10v-13.9c0-2.8,2.3-5,5-5c2.8,0,5,2.3,5,5V950.2z M414.6,947.3h4.3v-11
					c0-1.2-1-2.2-2.2-2.2c-1.2,0-2.2,1-2.2,2.2V947.3z"/>
			</g>
			<g>
				<path style="fill:#DF3300;" d="M413.1,924.2v-12.4c0-2,1.6-3.6,3.6-3.6c2,0,3.6,1.6,3.6,3.6v12.4H413.1z"/>
				<path style="fill:#FFD5BB;" d="M421.7,925.6h-10v-13.9c0-2.8,2.3-5,5-5c2.8,0,5,2.3,5,5V925.6z M414.6,922.8h4.3v-11
					c0-1.2-1-2.2-2.2-2.2c-1.2,0-2.2,1-2.2,2.2V922.8z"/>
			</g>
		</g>
		<g>
			<path style="fill:#785105;" d="M392,971.5c0,0.8-0.2,1.5-1.1,1.5h0c-0.8,0-1.9-0.7-1.9-1.5v-14c0-0.8,1.1-1.5,1.9-1.5h0
				c0.8,0,1.1,0.7,1.1,1.5V971.5z"/>
			<polygon style="fill:#6DAAC5;" points="400.9,965 381.8,965 391.4,933.4 			"/>
			<polygon style="fill:#FFFFFF;" points="396.5,949.3 391.4,933.1 386.3,949.3 			"/>
		</g>
		<g>
			<g>
				<path style="fill:#785105;" d="M222,971.1c0,1.1-1,1.9-2,1.9h-0.2c-1,0-1.8-0.9-1.8-1.9v-16.2c0-1.1,0.7-1.9,1.8-1.9h0.2
					c1,0,2,0.9,2,1.9V971.1z"/>
				<polygon style="fill:#6DAAC5;" points="231.3,963 208.9,963 220.1,925.9 				"/>
				<polygon style="fill:#FFFFFF;" points="226.1,945.2 220.1,926.2 214.1,945.2 				"/>
			</g>
			<g>
				<path style="fill:#785105;" d="M211,971.1c0,1.1-1,1.9-2,1.9h-0.2c-1,0-1.8-0.9-1.8-1.9v-16.2c0-1.1,0.8-1.9,1.8-1.9h0.2
					c1,0,2,0.9,2,1.9V971.1z"/>
				<g>
					<polygon style="fill:#92CCDB;" points="216.1,967 201.3,967 208.7,942.4 					"/>
					<polygon style="fill:#FFFFFF;" points="212.7,955.1 208.7,942.5 204.8,955.1 					"/>
				</g>
			</g>
			<g>
				<path style="fill:#785105;" d="M502,954.9c0-1.1-0.7-1.9-1.8-1.9H500c-1,0-2,0.9-2,1.9v16.2c0,1.1,1,1.9,2,1.9h0.2
					c1,0,1.8-0.9,1.8-1.9V954.9z"/>
				<polygon style="fill:#6DAAC5;" points="489.2,963 511.6,963 500.4,925.9 				"/>
				<polygon style="fill:#FFFFFF;" points="494.4,945.2 500.4,926.2 506.4,945.2 				"/>
			</g>
			<g>
				<path style="fill:#785105;" d="M514,954.9c0-1.1-0.8-1.9-1.8-1.9H512c-1,0-2,0.9-2,1.9v16.2c0,1.1,1,1.9,2,1.9h0.2
					c1,0,1.8-0.9,1.8-1.9V954.9z"/>
				<g>
					<polygon style="fill:#92CCDB;" points="504.4,967 519.2,967 511.8,942.4 					"/>
					<polygon style="fill:#FFFFFF;" points="507.9,955.1 511.8,942.5 515.8,955.1 					"/>
				</g>
			</g>
		</g>
		<g>
			<path style="fill:#785105;" d="M444,971.1c0,1.1-0.6,1.9-1.6,1.9h-0.2c-1,0-2.2-0.9-2.2-1.9v-16.2c0-1.1,1.1-1.9,2.2-1.9h0.2
				c1,0,1.6,0.9,1.6,1.9V971.1z"/>
			<g>
				<polygon style="fill:#92CCDB;" points="449.9,967 435.1,967 442.5,942.4 				"/>
				<polygon style="fill:#FFFFFF;" points="446.4,955.1 442.5,942.5 438.5,955.1 				"/>
			</g>
		</g>
		<g>
			<polygon style="fill:#785105;" points="487,894.3 469,866.8 451,894.3 451,973 487,973 			"/>
			<g>
				<defs>
					<rect id="XMLID_1_" x="451" y="945" width="36" height="28"/>
				</defs>
				<use xlink:href="#XMLID_1_"  style="overflow:visible;fill:#E0EAE2;"/>
				<clipPath id="XMLID_5_">
					<use xlink:href="#XMLID_1_"  style="overflow:visible;"/>
				</clipPath>
				<g style="clip-path:url(#XMLID_5_);">
					<path style="fill:#FF7543;" d="M474.8,979.9v-26.2c0-3-2.4-5.5-5.5-5.5s-5.5,2.5-5.5,5.5v26.2H474.8z"/>
					<path style="fill:#E0EAE2;" d="M476.2,981.3h-13.8v-27.6c0-3.8,3.1-6.9,6.9-6.9s6.9,3.1,6.9,6.9V981.3z M465.3,978.4h8.1v-24.7
						c0-2.2-1.8-4-4-4s-4,1.8-4,4V978.4z"/>
				</g>
			</g>
			<rect x="451" y="894" style="fill:#E0EAE2;" width="36" height="3"/>
			<g>
				<g>
					<path style="fill:#FF7543;" d="M472.9,919.3v-12.4c0-2-1.6-3.6-3.6-3.6c-2,0-3.6,1.6-3.6,3.6v12.4H472.9z"/>
					<path style="fill:#E0EAE2;" d="M474.3,920.8h-10v-13.9c0-2.8,2.3-5,5-5s5,2.3,5,5V920.8z M467.1,917.9h4.3v-11
						c0-1.2-1-2.2-2.2-2.2s-2.2,1-2.2,2.2V917.9z"/>
				</g>
			</g>
			<g>
				<g>
					<path style="fill:#FF7543;" d="M472.9,944.2v-12.9c0-2-1.6-3.6-3.6-3.6c-2,0-3.6,1.6-3.6,3.6v12.9H472.9z"/>
					<path style="fill:#E0EAE2;" d="M474.3,945.7h-10v-14.3c0-2.8,2.3-5,5-5s5,2.3,5,5V945.7z M467.1,942.8h4.3v-11.5
						c0-1.2-1-2.2-2.2-2.2s-2.2,1-2.2,2.2V942.8z"/>
				</g>
			</g>
			<path style="fill:#92CCDB;" d="M483.8,972.9v-14c0-1.6-1.3-2.9-2.9-2.9c-1.6,0-2.9,1.3-2.9,2.9v14H483.8z"/>
			<path style="fill:#92CCDB;" d="M461,972.9v-14c0-1.6-1.3-2.9-2.9-2.9c-1.6,0-2.9,1.3-2.9,2.9v14H461z"/>
			<path style="fill:#FF7543;" d="M489.3,892l-18.5-28.3c-0.3-0.5-0.9-0.8-1.5-0.7c-0.6,0-1.2,0.2-1.5,0.7L449.3,892
				c-0.5,0.8-0.3,1.8,0.5,2.3c0.8,0.5,1.8,0.3,2.3-0.5l17.3-26.3l17.3,26.3c0.5,0.8,1.5,1,2.3,0.5
				C489.6,893.8,489.8,892.8,489.3,892z"/>
			<g>
				<ellipse style="fill:#FF7543;" cx="469.3" cy="884.8" rx="4.8" ry="4.8"/>
				<path style="fill:#E0EAE2;" d="M469.3,890.9c-3.4,0-6.2-2.8-6.2-6.2s2.8-6.2,6.2-6.2s6.2,2.8,6.2,6.2S472.7,890.9,469.3,890.9z
					 M469.3,881.4c-1.8,0-3.3,1.5-3.3,3.3s1.5,3.3,3.3,3.3s3.3-1.5,3.3-3.3S471.1,881.4,469.3,881.4z"/>
			</g>
		</g>
	</g>
	<g>
		<g>
			<defs>
				<rect id="XMLID_2_" x="170" y="1013" width="380" height="82"/>
			</defs>
			<use xlink:href="#XMLID_2_"  style="overflow:visible;fill:#92CCDB;"/>
			<clipPath id="XMLID_6_">
				<use xlink:href="#XMLID_2_"  style="overflow:visible;"/>
			</clipPath>
			<g style="opacity:0.1;clip-path:url(#XMLID_6_);">
				<g>
					<rect x="237" y="1065" style="fill:#FFD5BB;" width="5" height="22"/>
					<polygon style="fill:#FF7543;" points="270,1061.5 251.5,1089 233,1061.5 233,983 270,983 					"/>
					<rect x="233" y="983" style="fill:#FFD5BB;" width="37" height="28"/>
					<path style="fill:#DF3300;" d="M244.4,982.9v17.2c0,2-1.6,3.6-3.6,3.6c-2,0-3.6-1.6-3.6-3.6v-17.2H244.4z"/>
					<g>
						<rect x="233" y="1013" style="fill:#FFD5BB;" width="37" height="4"/>
						<g>
							<g>
								<path style="fill:#DF3300;" d="M247.6,1015.6v12.4c0,2-1.6,3.6-3.6,3.6c-2,0-3.6-1.6-3.6-3.6v-12.4H247.6z"/>
								<path style="fill:#FFD5BB;" d="M244,1033.1c-2.8,0-5-2.3-5-5v-13.9h10v13.9C249,1030.9,246.8,1033.1,244,1033.1z
									 M241.9,1017.1v11c0,1.2,1,2.2,2.2,2.2c1.2,0,2.2-1,2.2-2.2v-11H241.9z"/>
							</g>
							<g>
								<path style="fill:#DF3300;" d="M263.5,1015.6v12.4c0,2-1.6,3.6-3.6,3.6c-2,0-3.6-1.6-3.6-3.6v-12.4H263.5z"/>
								<path style="fill:#FFD5BB;" d="M259.9,1033.1c-2.8,0-5-2.3-5-5v-13.9h10v13.9C264.9,1030.9,262.6,1033.1,259.9,1033.1z
									 M257.7,1017.1v11c0,1.2,1,2.2,2.2,2.2c1.2,0,2.2-1,2.2-2.2v-11H257.7z"/>
							</g>
						</g>
					</g>
					<g>
						<rect x="233" y="1036" style="fill:#FFD5BB;" width="37" height="3"/>
						<g>
							<g>
								<path style="fill:#DF3300;" d="M247.6,1038v12.4c0,2-1.6,3.6-3.6,3.6c-2,0-3.6-1.6-3.6-3.6V1038H247.6z"/>
								<path style="fill:#FFD5BB;" d="M244,1055.5c-2.8,0-5-2.3-5-5v-13.9h10v13.9C249,1053.2,246.8,1055.5,244,1055.5z
									 M241.9,1039.5v11c0,1.2,1,2.2,2.2,2.2c1.2,0,2.2-1,2.2-2.2v-11H241.9z"/>
							</g>
							<g>
								<path style="fill:#DF3300;" d="M263.5,1038v12.4c0,2-1.6,3.6-3.6,3.6c-2,0-3.6-1.6-3.6-3.6V1038H263.5z"/>
								<path style="fill:#FFD5BB;" d="M259.9,1055.5c-2.8,0-5-2.3-5-5v-13.9h10v13.9C264.9,1053.2,262.6,1055.5,259.9,1055.5z
									 M257.7,1039.5v11c0,1.2,1,2.2,2.2,2.2c1.2,0,2.2-1,2.2-2.2v-11H257.7z"/>
							</g>
						</g>
					</g>
					<g>
						<rect x="233" y="1058" style="fill:#FFD5BB;" width="37" height="3"/>
						<g>
							<g>
								<path style="fill:#DF3300;" d="M255.5,1060.9v12.4c0,2-1.6,3.6-3.6,3.6s-3.6-1.6-3.6-3.6v-12.4H255.5z"/>
								<path style="fill:#FFD5BB;" d="M252,1078.4c-2.8,0-5-2.3-5-5v-13.9h10v13.9C257,1076.1,254.7,1078.4,252,1078.4z
									 M249.8,1062.3v11c0,1.2,1,2.2,2.2,2.2s2.2-1,2.2-2.2v-11H249.8z"/>
							</g>
						</g>
					</g>
					<path style="fill:#DF3300;" d="M266.9,982.9v17.2c0,2-1.6,3.6-3.6,3.6c-2,0-3.6-1.6-3.6-3.6v-17.2H266.9z"/>
					<path style="fill:#454C53;" d="M256.2,982.9v20.5c0,2.4-1.9,4.3-4.3,4.3s-4.3-1.9-4.3-4.3v-20.5H256.2z"/>
					<path style="fill:#454C53;" d="M271.7,1063.8l-18.5,28.3c-0.3,0.5-0.9,0.8-1.5,0.7c-0.6,0-1.2-0.2-1.5-0.7l-18.5-28.3
						c-0.5-0.8-0.3-1.8,0.5-2.3c0.8-0.5,1.8-0.3,2.3,0.5l17.3,26.3L269,1062c0.5-0.8,1.5-1,2.3-0.5
						C272,1062,272.3,1063,271.7,1063.8z"/>
				</g>
				<g>
					<rect x="321" y="1044" style="fill:#454C53;" width="6" height="21"/>
					<polygon style="fill:#DF3300;" points="330,1039.1 312,1066.6 294,1039.1 294,983 330,983 					"/>
					<rect x="294" y="983" style="fill:#454C53;" width="36" height="28"/>
					<path style="fill:#FFD5BB;" d="M304.3,982.9v17.2c0,2-1.6,3.6-3.6,3.6s-3.6-1.6-3.6-3.6v-17.2H304.3z"/>
					<path style="fill:#FFD5BB;" d="M306,1028.1c0,1.2-0.8,2.2-2,2.2s-2-1-2-2.2V1017h4V1028.1z"/>
					<path style="fill:#FFD5BB;" d="M322,1028.1c0,1.2-0.8,2.2-2,2.2s-2-1-2-2.2V1017h4V1028.1z"/>
					<path style="fill:#454C53;" d="M325,1017h5v-4h-36v4h5v11.1c0,2.8,2.2,5,5,5s5-2.3,5-5V1017h6v11.1c0,2.8,2.2,5,5,5s5-2.3,5-5
						V1017z M318,1017h4v11.1c0,1.2-0.8,2.2-2,2.2s-2-1-2-2.2V1017z M302,1017h4v11.1c0,1.2-0.8,2.2-2,2.2s-2-1-2-2.2V1017z"/>
					<path style="fill:#454C53;" d="M330,1040v-3h-36v3h13v10.9c0,2.8,2.2,5,5,5s5-2.3,5-5V1040H330z M310,1040h4v10.9
						c0,1.2-0.8,2.2-2,2.2s-2-1-2-2.2V1040z"/>
					<path style="fill:#FFD5BB;" d="M314,1050.9c0,1.2-0.8,2.2-2,2.2s-2-1-2-2.2V1040h4V1050.9z"/>
					<path style="fill:#FFD5BB;" d="M326.8,982.9v17.2c0,2-1.6,3.6-3.6,3.6c-2,0-3.6-1.6-3.6-3.6v-17.2H326.8z"/>
					<path style="fill:#FF7543;" d="M316.1,982.9v20.5c0,2.4-1.9,4.3-4.3,4.3c-2.4,0-4.3-1.9-4.3-4.3v-20.5H316.1z"/>
					<path style="fill:#FF7543;" d="M331.6,1041.4l-18.5,28.3c-0.3,0.5-0.9,0.8-1.5,0.7c-0.6,0-1.2-0.2-1.5-0.7l-18.5-28.3
						c-0.5-0.8-0.3-1.8,0.5-2.3c0.8-0.5,1.8-0.3,2.3,0.5l17.3,26.3l17.3-26.3c0.5-0.8,1.5-1,2.3-0.5
						C331.9,1039.6,332.1,1040.6,331.6,1041.4z"/>
				</g>
				<g>
					<path style="fill:#785105;" d="M283,984.9c0-1.1-1.1-1.9-2.2-1.9h-0.2c-1,0-1.6,0.9-1.6,1.9v16.2c0,1.1,0.6,1.9,1.6,1.9h0.2
						c1,0,2.2-0.9,2.2-1.9V984.9z"/>
					<polygon style="fill:#92CCDB;" points="292.1,992 269.7,992 280.9,1043.4 					"/>
					<polygon style="fill:#FFFFFF;" points="288.6,1010.6 281.2,1043.9 273.3,1010.6 					"/>
				</g>
				<g>
					<rect x="339" y="1047" style="fill:#6DAAC5;" width="8" height="26"/>
					<polygon style="fill:#92CCDB;" points="380,1044.9 357.5,1079.9 335,1044.9 335,983 380,983 					"/>
					<rect x="335" y="1015" style="fill:#FFFFFF;" width="45" height="3"/>
					<rect x="335" y="983" style="fill:#FFFFFF;" width="45" height="18"/>
					<path style="fill:#FF7543;" d="M348.1,982.9v21.9c0,2.5-2,4.6-4.6,4.6c-2.5,0-4.6-2.1-4.6-4.6v-21.9H348.1z"/>
					<path style="fill:#FF7543;" d="M376.8,982.9v21.9c0,2.5-2,4.6-4.6,4.6c-2.5,0-4.6-2.1-4.6-4.6v-21.9H376.8z"/>
					<rect x="335" y="1048" style="fill:#FFFFFF;" width="45" height="2"/>
					<path style="fill:#454C53;" d="M363.2,982.9v23.2c0,3-2.4,5.5-5.4,5.5c-3,0-5.4-2.4-5.4-5.5v-23.2H363.2z"/>
					<path style="fill:#DF3300;" d="M383,1047.8l-23.6,36c-0.4,0.7-1.2,1-1.9,0.9c-0.7,0.1-1.5-0.3-1.9-0.9l-23.6-36
						c-0.6-1-0.4-2.3,0.6-2.9c1-0.6,2.3-0.4,2.9,0.6l22,33.5l22-33.5c0.6-1,2-1.3,2.9-0.6C383.4,1045.5,383.7,1046.8,383,1047.8z"/>
					<rect x="335" y="1024" style="fill:#FFFFFF;" width="45" height="3"/>
					<g>
						<path style="fill:#DF3300;" d="M347.2,1026.1v12.4c0,2-1.6,3.6-3.6,3.6s-3.6-1.6-3.6-3.6v-12.4H347.2z"/>
						<path style="fill:#FFFFFF;" d="M343.6,1043.6c-2.8,0-5-2.3-5-5v-13.9h10v13.9C348.6,1041.3,346.3,1043.6,343.6,1043.6z
							 M341.4,1027.6v11c0,1.2,1,2.2,2.2,2.2c1.2,0,2.2-1,2.2-2.2v-11H341.4z"/>
					</g>
					<g>
						<path style="fill:#DF3300;" d="M376.1,1026.1v12.4c0,2-1.6,3.6-3.6,3.6c-2,0-3.6-1.6-3.6-3.6v-12.4H376.1z"/>
						<path style="fill:#FFFFFF;" d="M372.5,1043.6c-2.8,0-5-2.3-5-5v-13.9h10v13.9C377.6,1041.3,375.3,1043.6,372.5,1043.6z
							 M370.4,1027.6v11c0,1.2,1,2.2,2.2,2.2s2.2-1,2.2-2.2v-11H370.4z"/>
					</g>
					<g>
						<path style="fill:#DF3300;" d="M361.3,1026.1v12.4c0,2-1.6,3.6-3.6,3.6s-3.6-1.6-3.6-3.6v-12.4H361.3z"/>
						<path style="fill:#FFFFFF;" d="M357.7,1043.6c-2.8,0-5-2.3-5-5v-13.9h10v13.9C362.8,1041.3,360.5,1043.6,357.7,1043.6z
							 M355.6,1027.6v11c0,1.2,1,2.2,2.2,2.2s2.2-1,2.2-2.2v-11H355.6z"/>
					</g>
					<g>
						<path style="fill:#DF3300;" d="M361.3,1050.6v12.4c0,2-1.6,3.6-3.6,3.6s-3.6-1.6-3.6-3.6v-12.4H361.3z"/>
						<path style="fill:#FFFFFF;" d="M357.7,1068.1c-2.8,0-5-2.3-5-5v-13.9h10v13.9C362.8,1065.9,360.5,1068.1,357.7,1068.1z
							 M355.6,1052.1v11c0,1.2,1,2.2,2.2,2.2s2.2-1,2.2-2.2v-11H355.6z"/>
					</g>
				</g>
				<g>
					<rect x="428" y="1032" style="fill:#DF3300;" width="7" height="21"/>
					<polygon style="fill:#454C53;" points="393,1030.6 416,1056 439,1030.6 439,983 393,983 					"/>
					<rect x="393" y="983" style="fill:#FFD5BB;" width="46" height="18"/>
					<path style="fill:#454C53;" d="M435.2,982.9v9.9c0,2.5-2,4.6-4.6,4.6c-2.5,0-4.6-2.1-4.6-4.6v-9.9H435.2z"/>
					<path style="fill:#454C53;" d="M406.6,982.9v9.9c0,2.5-2,4.6-4.6,4.6c-2.5,0-4.6-2.1-4.6-4.6v-9.9H406.6z"/>
					<rect x="393" y="1029" style="fill:#FFD5BB;" width="46" height="3"/>
					<path style="fill:#454C53;" d="M421.9,982.9v11.2c0,3-2.4,5.5-5.4,5.5c-3,0-5.4-2.4-5.4-5.5v-11.2H421.9z"/>
					<path style="fill:#FF7543;" d="M390.7,1033.5l23.6,26.5c0.4,0.7,1.2,1,1.9,0.9c0.7,0.1,1.5-0.3,1.9-0.9l23.6-26.5
						c0.6-1,0.4-2.3-0.6-2.9c-1-0.6-2.3-0.4-2.9,0.6l-22,24l-22-24c-0.6-1-2-1.3-2.9-0.6C390.4,1031.2,390.1,1032.5,390.7,1033.5z"
						/>
					<rect x="393" y="1005" style="fill:#FFD5BB;" width="46" height="3"/>
					<g>
						<path style="fill:#DF3300;" d="M427.1,1007.1v12.4c0,2,1.6,3.6,3.6,3.6c2,0,3.6-1.6,3.6-3.6v-12.4H427.1z"/>
						<path style="fill:#FFD5BB;" d="M430.7,1024.5c-2.8,0-5-2.3-5-5v-13.9h10v13.9C435.7,1022.3,433.4,1024.5,430.7,1024.5z
							 M428.5,1008.5v11c0,1.2,1,2.2,2.2,2.2s2.2-1,2.2-2.2v-11H428.5z"/>
					</g>
					<g>
						<path style="fill:#DF3300;" d="M398.1,1007.1v12.4c0,2,1.6,3.6,3.6,3.6c2,0,3.6-1.6,3.6-3.6v-12.4H398.1z"/>
						<path style="fill:#FFD5BB;" d="M401.7,1024.5c-2.8,0-5-2.3-5-5v-13.9h10v13.9C406.7,1022.3,404.4,1024.5,401.7,1024.5z
							 M399.5,1008.5v11c0,1.2,1,2.2,2.2,2.2c1.2,0,2.2-1,2.2-2.2v-11H399.5z"/>
					</g>
					<g>
						<path style="fill:#DF3300;" d="M412.9,1007.1v12.4c0,2,1.6,3.6,3.6,3.6c2,0,3.6-1.6,3.6-3.6v-12.4H412.9z"/>
						<path style="fill:#FFD5BB;" d="M416.5,1024.5c-2.8,0-5-2.3-5-5v-13.9h10v13.9C421.5,1022.3,419.3,1024.5,416.5,1024.5z
							 M414.3,1008.5v11c0,1.2,1,2.2,2.2,2.2c1.2,0,2.2-1,2.2-2.2v-11H414.3z"/>
					</g>
					<g>
						<path style="fill:#DF3300;" d="M412.9,1031.6v12.4c0,2,1.6,3.6,3.6,3.6c2,0,3.6-1.6,3.6-3.6v-12.4H412.9z"/>
						<path style="fill:#FFD5BB;" d="M416.5,1049.1c-2.8,0-5-2.3-5-5v-13.9h10v13.9C421.5,1046.8,419.3,1049.1,416.5,1049.1z
							 M414.3,1033v11c0,1.2,1,2.2,2.2,2.2c1.2,0,2.2-1,2.2-2.2v-11H414.3z"/>
					</g>
				</g>
				<g>
					<path style="fill:#785105;" d="M391,984.5c0-0.8-0.2-1.5-1.1-1.5h0c-0.8,0-1.9,0.7-1.9,1.5v14c0,0.8,1.1,1.5,1.9,1.5h0
						c0.8,0,1.1-0.7,1.1-1.5V984.5z"/>
					<polygon style="fill:#6DAAC5;" points="400.5,991 381.4,991 390.9,1022.6 					"/>
					<polygon style="fill:#FFFFFF;" points="396.3,1006.5 391.2,1022.7 386,1006.5 					"/>
				</g>
				<g>
					<g>
						<path style="fill:#785105;" d="M222,984.9c0-1.1-1-1.9-2-1.9h-0.2c-1,0-1.8,0.9-1.8,1.9v16.2c0,1.1,0.7,1.9,1.8,1.9h0.2
							c1,0,2-0.9,2-1.9V984.9z"/>
						<polygon style="fill:#6DAAC5;" points="230.9,992 208.4,992 219.6,1029.1 						"/>
						<polygon style="fill:#FFFFFF;" points="225.9,1010.6 219.9,1029.6 213.9,1010.6 						"/>
					</g>
					<g>
						<path style="fill:#785105;" d="M210,984.9c0-1.1-1-1.9-2-1.9h-0.2c-1,0-1.8,0.9-1.8,1.9v16.2c0,1.1,0.8,1.9,1.8,1.9h0.2
							c1,0,2-0.9,2-1.9V984.9z"/>
						<g>
							<polygon style="fill:#92CCDB;" points="215.7,989 200.8,989 208.2,1013.6 							"/>
							<polygon style="fill:#FFFFFF;" points="212.4,1000.7 208.5,1013.3 204.5,1000.7 							"/>
						</g>
					</g>
					<g>
						<path style="fill:#785105;" d="M502,1001.1c0,1.1-0.7,1.9-1.8,1.9H500c-1,0-2-0.9-2-1.9v-16.2c0-1.1,1-1.9,2-1.9h0.2
							c1,0,1.8,0.9,1.8,1.9V1001.1z"/>
						<polygon style="fill:#6DAAC5;" points="488.7,992 511.2,992 499.9,1029.1 						"/>
						<polygon style="fill:#FFFFFF;" points="494.2,1010.6 500.2,1029.6 506.2,1010.6 						"/>
					</g>
					<g>
						<path style="fill:#785105;" d="M513,1001.1c0,1.1-0.8,1.9-1.8,1.9H511c-1,0-2-0.9-2-1.9v-16.2c0-1.1,1-1.9,2-1.9h0.2
							c1,0,1.8,0.9,1.8,1.9V1001.1z"/>
						<g>
							<polygon style="fill:#92CCDB;" points="503.9,989 518.8,989 511.3,1013.6 							"/>
							<polygon style="fill:#FFFFFF;" points="507.6,1000.7 511.6,1013.3 515.6,1000.7 							"/>
						</g>
					</g>
				</g>
				<g>
					<path style="fill:#785105;" d="M444,984.9c0-1.1-0.6-1.9-1.6-1.9h-0.2c-1,0-2.2,0.9-2.2,1.9v16.2c0,1.1,1.1,1.9,2.2,1.9h0.2
						c1,0,1.6-0.9,1.6-1.9V984.9z"/>
					<g>
						<polygon style="fill:#92CCDB;" points="449.4,989 434.6,989 442,1013.6 						"/>
						<polygon style="fill:#FFFFFF;" points="446.2,1000.7 442.2,1013.3 438.3,1000.7 						"/>
					</g>
				</g>
				<g>
					<polygon style="fill:#785105;" points="486,1061.5 468.5,1089 451,1061.5 451,983 486,983 					"/>
					<g>
						<defs>
							<rect id="XMLID_3_" x="451" y="983" width="35" height="28"/>
						</defs>
						<use xlink:href="#XMLID_3_"  style="overflow:visible;fill:#E0EAE2;"/>
						<clipPath id="XMLID_7_">
							<use xlink:href="#XMLID_3_"  style="overflow:visible;"/>
						</clipPath>
						<g style="clip-path:url(#XMLID_7_);">
							<path style="fill:#FF7543;" d="M474.5,975.9v26.2c0,3-2.4,5.5-5.5,5.5s-5.5-2.5-5.5-5.5v-26.2H474.5z"/>
							<path style="fill:#E0EAE2;" d="M469.1,1009c-3.8,0-6.9-3.1-6.9-6.9v-27.6H476v27.6C476,1005.9,472.9,1009,469.1,1009z
								 M465,977.4v24.7c0,2.2,1.8,4,4,4c2.2,0,4-1.8,4-4v-24.7H465z"/>
						</g>
					</g>
					<rect x="451" y="1058" style="fill:#E0EAE2;" width="35" height="3"/>
					<g>
						<g>
							<path style="fill:#FF7543;" d="M472.7,1036.5v12.4c0,2-1.6,3.6-3.6,3.6s-3.6-1.6-3.6-3.6v-12.4H472.7z"/>
							<path style="fill:#E0EAE2;" d="M469.1,1053.9c-2.8,0-5-2.3-5-5V1035h10v13.9C474.1,1051.7,471.8,1053.9,469.1,1053.9z
								 M466.9,1037.9v11c0,1.2,1,2.2,2.2,2.2c1.2,0,2.2-1,2.2-2.2v-11H466.9z"/>
						</g>
					</g>
					<g>
						<g>
							<path style="fill:#FF7543;" d="M472.7,1012v12.4c0,2-1.6,3.6-3.6,3.6s-3.6-1.6-3.6-3.6V1012H472.7z"/>
							<path style="fill:#E0EAE2;" d="M469.1,1029.5c-2.8,0-5-2.3-5-5v-13.9h10v13.9C474.1,1027.2,471.8,1029.5,469.1,1029.5z
								 M466.9,1013.5v11c0,1.2,1,2.2,2.2,2.2c1.2,0,2.2-1,2.2-2.2v-11H466.9z"/>
						</g>
					</g>
					<path style="fill:#92CCDB;" d="M483.6,982.9v14c0,1.6-1.3,2.9-2.9,2.9c-1.6,0-2.9-1.3-2.9-2.9v-14H483.6z"/>
					<path style="fill:#92CCDB;" d="M460.8,982.9v14c0,1.6-1.3,2.9-2.9,2.9c-1.6,0-2.9-1.3-2.9-2.9v-14H460.8z"/>
					<path style="fill:#FF7543;" d="M488.9,1063.8l-18.5,28.3c-0.3,0.5-0.9,0.8-1.5,0.7c-0.6,0-1.2-0.2-1.5-0.7l-18.5-28.3
						c-0.5-0.8-0.3-1.8,0.5-2.3c0.8-0.5,1.8-0.3,2.3,0.5l17.3,26.3l17.3-26.3c0.5-0.8,1.5-1,2.3-0.5
						C489.2,1062,489.4,1063,488.9,1063.8z"/>
					<g>
						<ellipse style="fill:#FF7543;" cx="468.8" cy="1071" rx="4.8" ry="4.8"/>
						<path style="fill:#E0EAE2;" d="M468.8,1077.2c-3.4,0-6.2-2.8-6.2-6.2c0-3.4,2.8-6.2,6.2-6.2c3.4,0,6.2,2.8,6.2,6.2
							C475,1074.5,472.2,1077.2,468.8,1077.2z M468.8,1067.7c-1.8,0-3.3,1.5-3.3,3.3s1.5,3.3,3.3,3.3c1.8,0,3.3-1.5,3.3-3.3
							S470.7,1067.7,468.8,1067.7z"/>
					</g>
				</g>
			</g>
		</g>
		<rect x="170" y="1012" style="fill:#528094;" width="380" height="3"/>
		<polygon style="opacity:0.7;fill:#FFFFFF;" points="465.7,1058.6 396.8,1095.3 457.3,1095.3 514,1051.2 302.1,1049.6 359,1022.4 
			211.1,1032 283.1,1036.5 238.9,1073.8 		"/>
	</g>
</g>
<g>
	<path style="fill:#FFFFFF;" d="M234,743c-3,0-3,4.5,0,4.5S237,743,234,743z"/>
	<path style="fill:#FFFFFF;" d="M217.1,779.9c-0.4-0.7-0.9-1.2-1.6-1.6c-0.1-0.1-0.2-0.1-0.4-0.2c-0.7-0.4-1.5-0.6-2.4-0.6
		c-0.9,0-1.7,0.2-2.4,0.6c-1.4,0.8-2.4,2.4-2.4,4.1c0,1.7,0.9,3.3,2.4,4.1c0.7,0.4,1.5,0.6,2.4,0.6c0.9,0,1.7-0.2,2.4-0.6
		c0.1-0.1,0.2-0.1,0.4-0.2c0.7-0.4,1.2-0.9,1.6-1.6c0.4-0.7,0.6-1.5,0.6-2.3C217.7,781.4,217.5,780.6,217.1,779.9z"/>
	<path style="fill:#FFFFFF;" d="M246,766.4c-3,0-3,3.8,0,3.8C248,770.2,248,766.4,246,766.4z"/>
	<path style="fill:#FFFFFF;" d="M218,817.6c-2,0-2,3.1,0,3.1S220,817.6,218,817.6z"/>
	<path style="fill:#FFFFFF;" d="M196,793.2c-2,0-2,2.9,0,2.9S198,793.2,196,793.2z"/>
	<path style="fill:#FFFFFF;" d="M191.4,823.8c0,0,0-0.1-0.1-0.1c-0.1-0.1-0.1-0.1-0.2-0.2c-0.3-0.3-0.6-0.4-1-0.4
		c-0.5,0-0.8,0.4-0.8,0.8c0,0.4,0.3,0.7,0.7,0.8c0,0,0.1,0.1,0.1,0.1c0.3,0.3,0.7,0.3,1.1,0.2C191.8,825,191.9,824.2,191.4,823.8z"
		/>
	<path style="fill:#FFFFFF;" d="M238,803c-2,0-2,2.6,0,2.6S240,803,238,803z"/>
	<path style="fill:#FFFFFF;" d="M239,826.4c-1,0-1,1.9,0,1.9S240,826.4,239,826.4z"/>
	<path style="fill:#FFFFFF;" d="M256.4,795.4c-1.9,0-3.6,1.6-3.6,3.6s1.6,3.6,3.6,3.6s3.6-1.6,3.6-3.6S258.3,795.4,256.4,795.4z"/>
	<path style="fill:#FFFFFF;" d="M210,837.6c-4,0-4,7.4,0,7.4C215,844.9,215,837.6,210,837.6z"/>
	<path style="fill:#FFFFFF;" d="M231,849.6c-4,0-4,6.3,0,6.3S235,849.6,231,849.6z"/>
	<path style="fill:#FFFFFF;" d="M191,859.1c-4,0-4,5.6,0,5.6S195,859.1,191,859.1z"/>
	<path style="fill:#FFFFFF;" d="M189,805.7c-3,0-3,3.9,0,3.9C191,809.6,191,805.7,189,805.7z"/>
	<path style="fill:#FFFFFF;" d="M177,823.7c-2,0-2,3.4,0,3.4S179,823.7,177,823.7z"/>
	<path style="fill:#FFFFFF;" d="M175,840.3c-2,0-2,2.9,0,2.9S177,840.3,175,840.3z"/>
	<path style="fill:#FFFFFF;" d="M177.7,778.3c-0.3-0.3-0.6-0.4-1-0.4c-0.6,0-0.9,0.3-1.2,0.7c-0.4,0.5-0.6,1-0.5,1.6
		c0.1,0.6,0.4,1.1,1,1.3c0.3,0.1,0.7,0,1-0.1c0.3-0.2,0.5-0.5,0.6-0.8c0.1-0.1,0.2-0.1,0,0c0,0,0,0,0,0c0.3-0.2,0.5-0.4,0.6-0.8
		C178.2,779.2,178.1,778.7,177.7,778.3z"/>
	<path style="fill:#FFFFFF;" d="M219,759.8c-1,0-1,1.5,0,1.5S220,759.8,219,759.8z"/>
	<path style="fill:#FFFFFF;" d="M234,775c-1,0-1,2,0,2S235,775,234,775z"/>
	<path style="fill:#FFFFFF;" d="M270,774.8c-2,0-2,3.2,0,3.2S272,774.8,270,774.8z"/>
	<path style="fill:#FFFFFF;" d="M280,734.6c-1,0-1,2,0,2C282,736.6,282,734.6,280,734.6z"/>
	<path style="fill:#FFFFFF;" d="M247.5,725.9c-0.3-0.5-1-0.9-1.5-0.6c0,0,0,0,0,0c-0.2,0.1-0.4,0.2-0.6,0.3
		c-0.2,0.2-0.4,0.6-0.4,0.9c0,0.2,0.1,0.5,0.2,0.7c0.2,0.3,0.4,0.5,0.8,0.6c0,0,0,0,0,0c0.5,0.2,1.2-0.1,1.5-0.6
		C247.8,726.8,247.8,726.2,247.5,725.9z"/>
	<path style="fill:#FFFFFF;" d="M221,721.6c-3,0-3,5.1,0,5.1S224,721.6,221,721.6z"/>
	<path style="fill:#FFFFFF;" d="M177,735.6c-1,0-1,2,0,2S178,735.6,177,735.6z"/>
	<path style="fill:#FFFFFF;" d="M283,837.3c-3,0-3,4.1,0,4.1C285,841.4,285,837.3,283,837.3z"/>
	<path style="fill:#FFFFFF;" d="M281,788.8c-2,0-2,4.1,0,4.1C284,792.9,284,788.8,281,788.8z"/>
	<path style="fill:#FFFFFF;" d="M296,773.6c-2,0-2,2.8,0,2.8S298,773.6,296,773.6z"/>
	<path style="fill:#FFFFFF;" d="M302.8,734.5c-0.5-0.4-1-0.7-1.7-0.7c-0.8,0-1.6,0.5-2,1.2c-0.4,0.7-0.4,1.7,0,2.4
		c0.3,0.6,1,1.1,1.7,1.2c0,0,0.1,0,0.1,0.1c0,0-0.1,0-0.1,0c0.2,0.1,0.4,0.1,0.6,0.1c0.4,0,0.7-0.1,1-0.3c0.7-0.4,1.1-1.2,1.1-1.9
		C303.7,735.7,303.3,734.9,302.8,734.5z"/>
	<path style="fill:#FFFFFF;" d="M276.4,833.6c-0.4-1.5-1.8-2.5-3.3-2.5c-1.5,0-2.9,1-3.3,2.5c-0.2,0.6-0.2,1.2,0,1.8
		c0.1,0.3,0.2,0.5,0.3,0.8c0.3,0.5,0.7,0.9,1.2,1.2c0.1,0,0.1,0.1,0.2,0.1c0.8,0.6,2.2,0.6,3,0c0.1,0,0.1-0.1,0.2-0.1
		c0.5-0.3,0.9-0.7,1.2-1.2C276.6,835.5,276.7,834.5,276.4,833.6z"/>
	<path style="fill:#FFFFFF;" d="M329,743.5c-7,0-7,11.2,0,11.2C337,754.7,337,743.5,329,743.5z"/>
	<path style="fill:#FFFFFF;" d="M363,743c-3,0-3,4.5,0,4.5S366,743,363,743z"/>
	<path style="fill:#FFFFFF;" d="M375,766.4c-3,0-3,3.8,0,3.8C377,770.2,377,766.4,375,766.4z"/>
	<path style="fill:#FFFFFF;" d="M347,817.6c-2,0-2,3.1,0,3.1S349,817.6,347,817.6z"/>
	<path style="fill:#FFFFFF;" d="M325,793.2c-2,0-2,2.9,0,2.9S327,793.2,325,793.2z"/>
	<path style="fill:#FFFFFF;" d="M320.6,823.8c0,0,0-0.1-0.1-0.1c-0.1-0.1-0.1-0.1-0.2-0.2c-0.3-0.3-0.6-0.4-1-0.4
		c-0.5,0-0.8,0.4-0.8,0.8c0,0.4,0.3,0.7,0.7,0.8c0,0,0.1,0.1,0.1,0.1c0.3,0.3,0.7,0.3,1.1,0.2C321,825,321.1,824.2,320.6,823.8z"/>
	<path style="fill:#FFFFFF;" d="M318,805.7c-3,0-3,3.9,0,3.9C320,809.6,320,805.7,318,805.7z"/>
	<path style="fill:#FFFFFF;" d="M306,823.7c-2,0-2,3.4,0,3.4S308,823.7,306,823.7z"/>
	<path style="fill:#FFFFFF;" d="M306.8,778.3c-0.3-0.3-0.6-0.4-1-0.4c-0.6,0-0.9,0.3-1.2,0.7c-0.4,0.5-0.6,1-0.5,1.6
		c0.1,0.6,0.4,1.1,1,1.3c0.3,0.1,0.7,0,1-0.1c0.3-0.2,0.5-0.5,0.6-0.8c0.1-0.1,0.2-0.1,0,0c0,0,0,0,0,0c0.3-0.2,0.5-0.4,0.6-0.8
		C307.4,779.2,307.2,778.7,306.8,778.3z"/>
	<path style="fill:#FFFFFF;" d="M349,759.8c-1,0-1,1.5,0,1.5S350,759.8,349,759.8z"/>
	<path style="fill:#FFFFFF;" d="M363,775c-1,0-1,2,0,2S364,775,363,775z"/>
	<path style="fill:#FFFFFF;" d="M399,774.8c-2,0-2,3.2,0,3.2C402,778,402,774.8,399,774.8z"/>
	<path style="fill:#FFFFFF;" d="M410,734.6c-2,0-2,2,0,2C411,736.6,411,734.6,410,734.6z"/>
	<path style="fill:#FFFFFF;" d="M376.6,725.9c-0.3-0.5-1-0.9-1.5-0.6c0,0,0,0,0,0c-0.2,0.1-0.4,0.2-0.6,0.3
		c-0.2,0.2-0.4,0.6-0.4,0.9c0,0.2,0.1,0.5,0.2,0.7c0.2,0.3,0.4,0.5,0.8,0.6c0,0,0,0,0,0c0.5,0.2,1.2-0.1,1.5-0.6
		C376.9,726.8,376.9,726.2,376.6,725.9z"/>
	<path style="fill:#FFFFFF;" d="M350,721.6c-3,0-3,5.1,0,5.1S353,721.6,350,721.6z"/>
	<path style="fill:#FFFFFF;" d="M306,735.6c-1,0-1,2,0,2C308,737.6,308,735.6,306,735.6z"/>
	<path style="fill:#FFFFFF;" d="M410,788.8c-2,0-2,4.1,0,4.1C413,792.9,413,788.8,410,788.8z"/>
	<path style="fill:#FFFFFF;" d="M425,773.6c-2,0-2,2.8,0,2.8S427,773.6,425,773.6z"/>
	<path style="fill:#FFFFFF;" d="M432,734.5c-0.5-0.4-1-0.7-1.7-0.7c-0.8,0-1.6,0.5-2,1.2c-0.4,0.7-0.4,1.7,0,2.4
		c0.3,0.6,1,1.1,1.7,1.2c0,0,0.1,0,0.1,0.1c0,0-0.1,0-0.1,0c0.2,0.1,0.4,0.1,0.6,0.1c0.4,0,0.7-0.1,1-0.3c0.7-0.4,1.1-1.2,1.1-1.9
		C432.8,735.7,432.5,734.9,432,734.5z"/>
	<path style="fill:#FFFFFF;" d="M492,743c-3,0-3,4.5,0,4.5S495,743,492,743z"/>
	<path style="fill:#FFFFFF;" d="M504,766.4c-2,0-2,3.8,0,3.8C507,770.2,507,766.4,504,766.4z"/>
	<path style="fill:#FFFFFF;" d="M476,817.6c-2,0-2,3.1,0,3.1S478,817.6,476,817.6z"/>
	<path style="fill:#FFFFFF;" d="M454,793.2c-2,0-2,2.9,0,2.9S456,793.2,454,793.2z"/>
	<path style="fill:#FFFFFF;" d="M449.7,823.8c0,0,0-0.1-0.1-0.1c-0.1-0.1-0.1-0.1-0.2-0.2c-0.3-0.3-0.6-0.4-1-0.4
		c-0.5,0-0.8,0.4-0.8,0.8c0,0.4,0.3,0.7,0.7,0.8c0,0,0.1,0.1,0.1,0.1c0.3,0.3,0.7,0.3,1.1,0.2C450.1,825,450.2,824.2,449.7,823.8z"
		/>
	<path style="fill:#FFFFFF;" d="M496,803c-1,0-1,2.6,0,2.6C498,805.6,498,803,496,803z"/>
	<path style="fill:#FFFFFF;" d="M497,826.4c-1,0-1,1.9,0,1.9C499,828.3,499,826.4,497,826.4z"/>
	<path style="fill:#FFFFFF;" d="M514.7,795.4c-1.9,0-3.6,1.6-3.6,3.6s1.6,3.6,3.6,3.6s3.6-1.6,3.6-3.6S516.6,795.4,514.7,795.4z"/>
	<path style="fill:#FFFFFF;" d="M469,837.6c-5,0-5,7.4,0,7.4C473,844.9,473,837.6,469,837.6z"/>
	<path style="fill:#FFFFFF;" d="M490,849.6c-4,0-4,6.3,0,6.3S494,849.6,490,849.6z"/>
	<path style="fill:#FFFFFF;" d="M449,859.1c-3,0-3,5.6,0,5.6C453,864.7,453,859.1,449,859.1z"/>
	<path style="fill:#FFFFFF;" d="M447,805.7c-3,0-3,3.9,0,3.9C449,809.6,449,805.7,447,805.7z"/>
	<path style="fill:#FFFFFF;" d="M435,823.7c-2,0-2,3.4,0,3.4C438,827.1,438,823.7,435,823.7z"/>
	<path style="fill:#FFFFFF;" d="M433,840.3c-2,0-2,2.9,0,2.9S435,840.3,433,840.3z"/>
	<path style="fill:#FFFFFF;" d="M436,778.3c-0.3-0.3-0.6-0.4-1-0.4c-0.6,0-0.9,0.3-1.2,0.7c-0.4,0.5-0.6,1-0.5,1.6
		c0.1,0.6,0.4,1.1,1,1.3c0.3,0.1,0.7,0,1-0.1c0.3-0.2,0.5-0.5,0.6-0.8c0.1-0.1,0.2-0.1,0,0c0,0,0,0,0,0c0.3-0.2,0.5-0.4,0.6-0.8
		C436.5,779.2,436.4,778.7,436,778.3z"/>
	<path style="fill:#FFFFFF;" d="M478,759.8c-1,0-1,1.5,0,1.5S479,759.8,478,759.8z"/>
	<path style="fill:#FFFFFF;" d="M492,775c-1,0-1,2,0,2S493,775,492,775z"/>
	<path style="fill:#FFFFFF;" d="M529,774.8c-2,0-2,3.2,0,3.2S531,774.8,529,774.8z"/>
	<path style="fill:#FFFFFF;" d="M539,734.6c-2,0-2,2,0,2C540,736.6,540,734.6,539,734.6z"/>
	<path style="fill:#FFFFFF;" d="M505.8,725.9c-0.3-0.5-1-0.9-1.5-0.6c0,0,0,0,0,0c-0.2,0.1-0.4,0.2-0.6,0.3
		c-0.2,0.2-0.4,0.6-0.4,0.9c0,0.2,0.1,0.5,0.2,0.7c0.2,0.3,0.4,0.5,0.8,0.6c0,0,0,0,0,0c0.5,0.2,1.2-0.1,1.5-0.6
		C506.1,726.8,506.1,726.2,505.8,725.9z"/>
	<path style="fill:#FFFFFF;" d="M479,721.6c-3,0-3,5.1,0,5.1S482,721.6,479,721.6z"/>
	<path style="fill:#FFFFFF;" d="M435,735.6c-1,0-1,2,0,2C437,737.6,437,735.6,435,735.6z"/>
	<path style="fill:#FFFFFF;" d="M541,837.3c-3,0-3,4.1,0,4.1S544,837.3,541,837.3z"/>
	<path style="fill:#FFFFFF;" d="M540,788.8c-3,0-3,4.1,0,4.1C542,792.9,542,788.8,540,788.8z"/>
	<path style="fill:#FFFFFF;" d="M534.7,833.6c-0.4-1.5-1.8-2.5-3.3-2.5s-2.9,1-3.3,2.5c-0.2,0.6-0.2,1.2,0,1.8
		c0.1,0.3,0.2,0.5,0.3,0.8c0.3,0.5,0.7,0.9,1.2,1.2c0.1,0,0.1,0.1,0.2,0.1c0.8,0.6,2.2,0.6,3,0c0.1,0,0.1-0.1,0.2-0.1
		c0.5-0.3,0.9-0.7,1.2-1.2C534.8,835.5,535,834.5,534.7,833.6z"/>
	<path style="fill:#FFFFFF;" d="M234,897.6c-3,0-3,4.5,0,4.5S237,897.6,234,897.6z"/>
	<path style="fill:#FFFFFF;" d="M246,920.9c-3,0-3,3.8,0,3.8C248,924.8,248,920.9,246,920.9z"/>
	<path style="fill:#FFFFFF;" d="M218,972.2c-2,0-2,3.1,0,3.1S220,972.2,218,972.2z"/>
	<path style="fill:#FFFFFF;" d="M196,947.8c-2,0-2,2.9,0,2.9S198,947.8,196,947.8z"/>
	<path style="fill:#FFFFFF;" d="M191.4,978.4c0,0,0-0.1-0.1-0.1c-0.1-0.1-0.1-0.1-0.2-0.2c-0.3-0.3-0.6-0.4-1-0.4
		c-0.5,0-0.8,0.4-0.8,0.8c0,0.4,0.3,0.7,0.7,0.8c0,0,0.1,0.1,0.1,0.1c0.3,0.3,0.7,0.3,1.1,0.2C191.8,979.6,191.9,978.7,191.4,978.4z
		"/>
	<path style="fill:#FFFFFF;" d="M239,980.9c-1,0-1,1.9,0,1.9S240,980.9,239,980.9z"/>
	<path style="fill:#FFFFFF;" d="M210,992.2c-4,0-4,7.4,0,7.4C215,999.5,215,992.2,210,992.2z"/>
	<path style="fill:#FFFFFF;" d="M191,1013.7c-4,0-4,5.6,0,5.6S195,1013.7,191,1013.7z"/>
	<path style="fill:#FFFFFF;" d="M189,960.3c-3,0-3,3.9,0,3.9C191,964.2,191,960.3,189,960.3z"/>
	<path style="fill:#FFFFFF;" d="M177,978.3c-2,0-2,3.4,0,3.4S179,978.3,177,978.3z"/>
	<path style="fill:#FFFFFF;" d="M175,994.9c-2,0-2,2.9,0,2.9S177,994.9,175,994.9z"/>
	<path style="fill:#FFFFFF;" d="M177.7,932.9c-0.3-0.3-0.6-0.4-1-0.4c-0.6,0-0.9,0.3-1.2,0.7c-0.4,0.5-0.6,1-0.5,1.6
		c0.1,0.6,0.4,1.1,1,1.3c0.3,0.1,0.7,0,1-0.1c0.3-0.2,0.5-0.5,0.6-0.8c0.1-0.1,0.2-0.1,0,0c0,0,0,0,0,0c0.3-0.2,0.5-0.4,0.6-0.8
		C178.2,933.8,178.1,933.2,177.7,932.9z"/>
	<path style="fill:#FFFFFF;" d="M219,914.4c-1,0-1,1.5,0,1.5S220,914.4,219,914.4z"/>
	<path style="fill:#FFFFFF;" d="M234,929.5c-1,0-1,2,0,2S235,929.5,234,929.5z"/>
	<path style="fill:#FFFFFF;" d="M270,929.4c-2,0-2,3.2,0,3.2S272,929.4,270,929.4z"/>
	<path style="fill:#FFFFFF;" d="M280,889.2c-1,0-1,2,0,2C282,891.2,282,889.2,280,889.2z"/>
	<path style="fill:#FFFFFF;" d="M247.5,880.5c-0.3-0.5-1-0.9-1.5-0.6c0,0,0,0,0,0c-0.2,0.1-0.4,0.2-0.6,0.3
		c-0.2,0.2-0.4,0.6-0.4,0.9c0,0.2,0.1,0.5,0.2,0.7c0.2,0.3,0.4,0.5,0.8,0.6c0,0,0,0,0,0c0.5,0.2,1.2-0.1,1.5-0.6
		C247.8,881.4,247.8,880.8,247.5,880.5z"/>
	<path style="fill:#FFFFFF;" d="M221,876.1c-3,0-3,5.1,0,5.1S224,876.1,221,876.1z"/>
	<path style="fill:#FFFFFF;" d="M177,890.2c-1,0-1,2,0,2S178,890.2,177,890.2z"/>
	<path style="fill:#FFFFFF;" d="M281,943.3c-2,0-2,4.1,0,4.1C284,947.5,284,943.3,281,943.3z"/>
	<path style="fill:#FFFFFF;" d="M296,928.2c-2,0-2,2.8,0,2.8S298,928.2,296,928.2z"/>
	<path style="fill:#FFFFFF;" d="M302.8,889.1c-0.5-0.4-1-0.7-1.7-0.7c-0.8,0-1.6,0.5-2,1.2c-0.4,0.7-0.4,1.7,0,2.4
		c0.3,0.6,1,1.1,1.7,1.2c0,0,0.1,0,0.1,0.1c0,0-0.1,0-0.1,0c0.2,0.1,0.4,0.1,0.6,0.1c0.4,0,0.7-0.1,1-0.3c0.7-0.4,1.1-1.2,1.1-1.9
		C303.7,890.3,303.3,889.5,302.8,889.1z"/>
	<path style="fill:#FFFFFF;" d="M363,897.6c-3,0-3,4.5,0,4.5S366,897.6,363,897.6z"/>
	<path style="fill:#FFFFFF;" d="M375,920.9c-3,0-3,3.8,0,3.8C377,924.8,377,920.9,375,920.9z"/>
	<path style="fill:#FFFFFF;" d="M347,972.2c-2,0-2,3.1,0,3.1S349,972.2,347,972.2z"/>
	<path style="fill:#FFFFFF;" d="M320.6,978.4c0,0,0-0.1-0.1-0.1c-0.1-0.1-0.1-0.1-0.2-0.2c-0.3-0.3-0.6-0.4-1-0.4
		c-0.5,0-0.8,0.4-0.8,0.8c0,0.4,0.3,0.7,0.7,0.8c0,0,0.1,0.1,0.1,0.1c0.3,0.3,0.7,0.3,1.1,0.2C321,979.6,321.1,978.7,320.6,978.4z"
		/>
	<path style="fill:#FFFFFF;" d="M367,957.6c-1,0-1,2.6,0,2.6C369,960.2,369,957.6,367,957.6z"/>
	<path style="fill:#FFFFFF;" d="M368,980.9c-1,0-1,1.9,0,1.9S369,980.9,368,980.9z"/>
	<path style="fill:#FFFFFF;" d="M385.5,950c-1.9,0-3.6,1.6-3.6,3.6s1.6,3.6,3.6,3.6s3.6-1.6,3.6-3.6S387.5,950,385.5,950z"/>
	<path style="fill:#FFFFFF;" d="M361,1004.2c-5,0-5,6.3,0,6.3C365,1010.5,365,1004.2,361,1004.2z"/>
	<path style="fill:#FFFFFF;" d="M306,978.3c-2,0-2,3.4,0,3.4S308,978.3,306,978.3z"/>
	<path style="fill:#FFFFFF;" d="M304,994.9c-2,0-2,2.9,0,2.9S306,994.9,304,994.9z"/>
	<path style="fill:#FFFFFF;" d="M306.8,932.9c-0.3-0.3-0.6-0.4-1-0.4c-0.6,0-0.9,0.3-1.2,0.7c-0.4,0.5-0.6,1-0.5,1.6
		c0.1,0.6,0.4,1.1,1,1.3c0.3,0.1,0.7,0,1-0.1c0.3-0.2,0.5-0.5,0.6-0.8c0.1-0.1,0.2-0.1,0,0c0,0,0,0,0,0c0.3-0.2,0.5-0.4,0.6-0.8
		C307.4,933.8,307.2,933.2,306.8,932.9z"/>
	<path style="fill:#FFFFFF;" d="M349,914.4c-1,0-1,1.5,0,1.5S350,914.4,349,914.4z"/>
	<path style="fill:#FFFFFF;" d="M363,929.5c-1,0-1,2,0,2S364,929.5,363,929.5z"/>
	<path style="fill:#FFFFFF;" d="M399,929.4c-2,0-2,3.2,0,3.2C402,932.6,402,929.4,399,929.4z"/>
	<path style="fill:#FFFFFF;" d="M410,889.2c-2,0-2,2,0,2C411,891.2,411,889.2,410,889.2z"/>
	<path style="fill:#FFFFFF;" d="M376.6,880.5c-0.3-0.5-1-0.9-1.5-0.6c0,0,0,0,0,0c-0.2,0.1-0.4,0.2-0.6,0.3
		c-0.2,0.2-0.4,0.6-0.4,0.9c0,0.2,0.1,0.5,0.2,0.7c0.2,0.3,0.4,0.5,0.8,0.6c0,0,0,0,0,0c0.5,0.2,1.2-0.1,1.5-0.6
		C376.9,881.4,376.9,880.8,376.6,880.5z"/>
	<path style="fill:#FFFFFF;" d="M350,876.1c-3,0-3,5.1,0,5.1S353,876.1,350,876.1z"/>
	<path style="fill:#FFFFFF;" d="M386.3,867.6c-0.4,0.1-0.8,0.4-1.1,0.7c-0.7,0.6-0.7,2,0,2.5c0.3,0.3,0.7,0.6,1.1,0.7
		c1.3,0.3,2.5-0.6,2.5-1.9S387.6,867.3,386.3,867.6z"/>
	<path style="fill:#FFFFFF;" d="M306,890.2c-1,0-1,2,0,2C308,892.2,308,890.2,306,890.2z"/>
	<path style="fill:#FFFFFF;" d="M412,991.9c-3,0-3,4.1,0,4.1S415,991.9,412,991.9z"/>
	<path style="fill:#FFFFFF;" d="M410,943.3c-2,0-2,4.1,0,4.1C413,947.5,413,943.3,410,943.3z"/>
	<path style="fill:#FFFFFF;" d="M425,928.2c-2,0-2,2.8,0,2.8S427,928.2,425,928.2z"/>
	<path style="fill:#FFFFFF;" d="M432,889.1c-0.5-0.4-1-0.7-1.7-0.7c-0.8,0-1.6,0.5-2,1.2c-0.4,0.7-0.4,1.7,0,2.4
		c0.3,0.6,1,1.1,1.7,1.2c0,0,0.1,0,0.1,0.1c0,0-0.1,0-0.1,0c0.2,0.1,0.4,0.1,0.6,0.1c0.4,0,0.7-0.1,1-0.3c0.7-0.4,1.1-1.2,1.1-1.9
		C432.8,890.3,432.5,889.5,432,889.1z"/>
	<path style="fill:#FFFFFF;" d="M405.6,988.2c-0.4-1.5-1.8-2.5-3.3-2.5c-1.5,0-2.9,1-3.3,2.5c-0.2,0.6-0.2,1.2,0,1.8
		c0.1,0.3,0.2,0.5,0.3,0.8c0.3,0.5,0.7,0.9,1.2,1.2c0.1,0,0.1,0.1,0.2,0.1c0.8,0.6,2.2,0.6,3,0c0.1,0,0.1-0.1,0.2-0.1
		c0.5-0.3,0.9-0.7,1.2-1.2C405.7,990,405.8,989.1,405.6,988.2z"/>
	<path style="fill:#FFFFFF;" d="M492,897.6c-3,0-3,4.5,0,4.5S495,897.6,492,897.6z"/>
	<path style="fill:#FFFFFF;" d="M504,920.9c-2,0-2,3.8,0,3.8C507,924.8,507,920.9,504,920.9z"/>
	<path style="fill:#FFFFFF;" d="M476,972.2c-2,0-2,3.1,0,3.1S478,972.2,476,972.2z"/>
	<path style="fill:#FFFFFF;" d="M449.7,978.4c0,0,0-0.1-0.1-0.1c-0.1-0.1-0.1-0.1-0.2-0.2c-0.3-0.3-0.6-0.4-1-0.4
		c-0.5,0-0.8,0.4-0.8,0.8c0,0.4,0.3,0.7,0.7,0.8c0,0,0.1,0.1,0.1,0.1c0.3,0.3,0.7,0.3,1.1,0.2C450.1,979.6,450.2,978.7,449.7,978.4z
		"/>
	<path style="fill:#FFFFFF;" d="M496,957.6c-1,0-1,2.6,0,2.6C498,960.2,498,957.6,496,957.6z"/>
	<path style="fill:#FFFFFF;" d="M497,980.9c-1,0-1,1.9,0,1.9C499,982.9,499,980.9,497,980.9z"/>
	<path style="fill:#FFFFFF;" d="M514.7,950c-1.9,0-3.6,1.6-3.6,3.6s1.6,3.6,3.6,3.6s3.6-1.6,3.6-3.6S516.6,950,514.7,950z"/>
	<path style="fill:#FFFFFF;" d="M449,1013.7c-3,0-3,5.6,0,5.6C453,1019.3,453,1013.7,449,1013.7z"/>
	<path style="fill:#FFFFFF;" d="M435,978.3c-2,0-2,3.4,0,3.4C438,981.7,438,978.3,435,978.3z"/>
	<path style="fill:#FFFFFF;" d="M433,994.9c-2,0-2,2.9,0,2.9S435,994.9,433,994.9z"/>
	<path style="fill:#FFFFFF;" d="M492,929.5c-1,0-1,2,0,2S493,929.5,492,929.5z"/>
	<path style="fill:#FFFFFF;" d="M529,929.4c-2,0-2,3.2,0,3.2S531,929.4,529,929.4z"/>
	<path style="fill:#FFFFFF;" d="M539,889.2c-2,0-2,2,0,2C540,891.2,540,889.2,539,889.2z"/>
	<path style="fill:#FFFFFF;" d="M505.8,880.5c-0.3-0.5-1-0.9-1.5-0.6c0,0,0,0,0,0c-0.2,0.1-0.4,0.2-0.6,0.3
		c-0.2,0.2-0.4,0.6-0.4,0.9c0,0.2,0.1,0.5,0.2,0.7c0.2,0.3,0.4,0.5,0.8,0.6c0,0,0,0,0,0c0.5,0.2,1.2-0.1,1.5-0.6
		C506.1,881.4,506.1,880.8,505.8,880.5z"/>
	<path style="fill:#FFFFFF;" d="M479,876.1c-3,0-3,5.1,0,5.1S482,876.1,479,876.1z"/>
	<path style="fill:#FFFFFF;" d="M515.5,867.6c-0.4,0.1-0.8,0.4-1.1,0.7c-0.7,0.6-0.7,2,0,2.5c0.3,0.3,0.7,0.6,1.1,0.7
		c1.3,0.3,2.5-0.6,2.5-1.9S516.7,867.3,515.5,867.6z"/>
	<path style="fill:#FFFFFF;" d="M435,890.2c-1,0-1,2,0,2C437,892.2,437,890.2,435,890.2z"/>
	<path style="fill:#FFFFFF;" d="M540,943.3c-3,0-3,4.1,0,4.1C542,947.5,542,943.3,540,943.3z"/>
	<path style="fill:#FFFFFF;" d="M191,1030.5c-4,0-4,5.6,0,5.6S195,1030.5,191,1030.5z"/>
	<path style="fill:#FFFFFF;" d="M320,1030.5c-3,0-3,5.6,0,5.6C324,1036.1,324,1030.5,320,1030.5z"/>
	<path style="fill:#FFFFFF;" d="M234,1068.9c-3,0-3,4.5,0,4.5S237,1068.9,234,1068.9z"/>
	<path style="fill:#FFFFFF;" d="M219,1085.8c-1,0-1,1.5,0,1.5S220,1085.8,219,1085.8z"/>
	<path style="fill:#FFFFFF;" d="M280,1060.6c-1,0-1,2,0,2C282,1062.6,282,1060.6,280,1060.6z"/>
	<path style="fill:#FFFFFF;" d="M247.5,1051.9c-0.3-0.5-1-0.9-1.5-0.6c0,0,0,0,0,0c-0.2,0.1-0.4,0.2-0.6,0.3
		c-0.2,0.2-0.4,0.6-0.4,0.9c0,0.2,0.1,0.5,0.2,0.7c0.2,0.3,0.4,0.5,0.8,0.6c0,0,0,0,0,0c0.5,0.2,1.2-0.1,1.5-0.6
		C247.8,1052.8,247.8,1052.2,247.5,1051.9z"/>
	<path style="fill:#FFFFFF;" d="M221,1047.5c-3,0-3,5.1,0,5.1S224,1047.5,221,1047.5z"/>
	<path style="fill:#FFFFFF;" d="M257.2,1039c-0.4,0.1-0.8,0.4-1.1,0.7c-0.7,0.6-0.7,2,0,2.5c0.3,0.3,0.7,0.6,1.1,0.7
		c1.3,0.3,2.5-0.6,2.5-1.9S258.4,1038.7,257.2,1039z"/>
	<path style="fill:#FFFFFF;" d="M177,1061.6c-1,0-1,2,0,2S178,1061.6,177,1061.6z"/>
	<path style="fill:#FFFFFF;" d="M302.8,1060.4c-0.5-0.4-1-0.7-1.7-0.7c-0.8,0-1.6,0.5-2,1.2c-0.4,0.7-0.4,1.7,0,2.4
		c0.3,0.6,1,1.1,1.7,1.2c0,0,0.1,0,0.1,0.1c0,0-0.1,0-0.1,0c0.2,0.1,0.4,0.1,0.6,0.1c0.4,0,0.7-0.1,1-0.3c0.7-0.4,1.1-1.2,1.1-1.9
		C303.7,1061.7,303.3,1060.9,302.8,1060.4z"/>
	<path style="fill:#FFFFFF;" d="M363,1068.9c-3,0-3,4.5,0,4.5S366,1068.9,363,1068.9z"/>
	<path style="fill:#FFFFFF;" d="M349,1085.8c-1,0-1,1.5,0,1.5S350,1085.8,349,1085.8z"/>
	<path style="fill:#FFFFFF;" d="M410,1060.6c-2,0-2,2,0,2C411,1062.6,411,1060.6,410,1060.6z"/>
	<path style="fill:#FFFFFF;" d="M376.6,1051.9c-0.3-0.5-1-0.9-1.5-0.6c0,0,0,0,0,0c-0.2,0.1-0.4,0.2-0.6,0.3
		c-0.2,0.2-0.4,0.6-0.4,0.9c0,0.2,0.1,0.5,0.2,0.7c0.2,0.3,0.4,0.5,0.8,0.6c0,0,0,0,0,0c0.5,0.2,1.2-0.1,1.5-0.6
		C376.9,1052.8,376.9,1052.2,376.6,1051.9z"/>
	<path style="fill:#FFFFFF;" d="M350,1047.5c-3,0-3,5.1,0,5.1S353,1047.5,350,1047.5z"/>
	<path style="fill:#FFFFFF;" d="M386.3,1039c-0.4,0.1-0.8,0.4-1.1,0.7c-0.7,0.6-0.7,2,0,2.5c0.3,0.3,0.7,0.6,1.1,0.7
		c1.3,0.3,2.5-0.6,2.5-1.9S387.6,1038.7,386.3,1039z"/>
	<path style="fill:#FFFFFF;" d="M432,1060.4c-0.5-0.4-1-0.7-1.7-0.7c-0.8,0-1.6,0.5-2,1.2c-0.4,0.7-0.4,1.7,0,2.4
		c0.3,0.6,1,1.1,1.7,1.2c0,0,0.1,0,0.1,0.1c0,0-0.1,0-0.1,0c0.2,0.1,0.4,0.1,0.6,0.1c0.4,0,0.7-0.1,1-0.3c0.7-0.4,1.1-1.2,1.1-1.9
		C432.8,1061.7,432.5,1060.9,432,1060.4z"/>
	<path style="fill:#FFFFFF;" d="M492,1068.9c-3,0-3,4.5,0,4.5S495,1068.9,492,1068.9z"/>
	<path style="fill:#FFFFFF;" d="M478,1085.8c-1,0-1,1.5,0,1.5S479,1085.8,478,1085.8z"/>
	<path style="fill:#FFFFFF;" d="M539,1060.6c-2,0-2,2,0,2C540,1062.6,540,1060.6,539,1060.6z"/>
	<path style="fill:#FFFFFF;" d="M505.8,1051.9c-0.3-0.5-1-0.9-1.5-0.6c0,0,0,0,0,0c-0.2,0.1-0.4,0.2-0.6,0.3
		c-0.2,0.2-0.4,0.6-0.4,0.9c0,0.2,0.1,0.5,0.2,0.7c0.2,0.3,0.4,0.5,0.8,0.6c0,0,0,0,0,0c0.5,0.2,1.2-0.1,1.5-0.6
		C506.1,1052.8,506.1,1052.2,505.8,1051.9z"/>
	<path style="fill:#FFFFFF;" d="M479,1047.5c-3,0-3,5.1,0,5.1S482,1047.5,479,1047.5z"/>
	<path style="fill:#FFFFFF;" d="M515.5,1039c-0.4,0.1-0.8,0.4-1.1,0.7c-0.7,0.6-0.7,2,0,2.5c0.3,0.3,0.7,0.6,1.1,0.7
		c1.3,0.3,2.5-0.6,2.5-1.9S516.7,1038.7,515.5,1039z"/>
	<path style="fill:#FFFFFF;" d="M534.7,988.2c-0.4-1.5-1.8-2.5-3.3-2.5s-2.9,1-3.3,2.5c-0.2,0.6-0.2,1.2,0,1.8
		c0.1,0.3,0.2,0.5,0.3,0.8c0.3,0.5,0.7,0.9,1.2,1.2c0.1,0,0.1,0.1,0.2,0.1c0.8,0.6,2.2,0.6,3,0c0.1,0,0.1-0.1,0.2-0.1
		c0.5-0.3,0.9-0.7,1.2-1.2C534.8,990,535,989.1,534.7,988.2z"/>
</g>
</svg>
