<?xml version="1.0" encoding="utf-8"?>
<!-- Generator: Adobe Illustrator 19.0.0, SVG Export Plug-In . SVG Version: 6.00 Build 0)  -->
<svg version="1.1" id="Layer_1" xmlns="http://www.w3.org/2000/svg" xmlns:xlink="http://www.w3.org/1999/xlink" x="0px" y="0px"
	 viewBox="-107 230.9 380 380" style="enable-background:new -107 230.9 380 380;" xml:space="preserve">
<style type="text/css">
	.st0{fill:#F6693E;}
	.st1{fill:#F65D37;}
	.st2{fill:#FFFFEB;}
	.st3{fill:#F6C79A;}
	.st4{fill:#F5C175;}
	.st5{fill:#CF4628;}
	.st6{fill:#FFCC51;}
	.st7{fill:#FF9025;}
	.st8{fill:#FFFF77;}
	.st9{fill:#9A0916;}
	.st10{fill:#D51E23;}
	.st11{fill:#47090A;}
	.st12{fill:#600E0A;}
	.st13{fill:#8F0D15;}
	.st14{fill:#CD1D1D;}
	.st15{opacity:0.32;fill:#47090A;enable-background:new    ;}
	.st16{fill:#FFFFFF;}
	.st17{fill:#EDDEDA;}
	.st18{fill:#E2D1CC;}
	.st19{fill:#D3C2BE;}
	.st20{fill:#7E7E89;}
	.st21{fill:#0F1110;}
	.st22{opacity:0.6;fill:#CF4628;enable-background:new    ;}
	.st23{fill:#62BA47;}
	.st24{fill:#F4F4F4;}
	.st25{fill:#E0DCDC;}
	.st26{fill:#955F5D;}
	.st27{fill:#AA7F7D;}
	.st28{fill:#E2B27F;}
	.st29{fill:#C69263;}
	.st30{fill:#F3E9DF;}
	.st31{fill:#35201C;}
	.st32{fill:none;stroke:#35201C;stroke-width:1;stroke-linecap:round;stroke-miterlimit:10;}
</style>
<rect x="-107" y="230.9" class="st0" width="380" height="380"/>
<g>
	<g>
		<polygon class="st1" points="-93.9,256.6 -107,273.7 -107,239.5 		"/>
		<polygon class="st1" points="-74.2,231.1 -93.9,256.6 -74.2,282.1 -54.6,256.6 		"/>
		<polygon class="st1" points="-35,231.1 -54.6,256.6 -35,282.1 -15.4,256.6 		"/>
		<polygon class="st1" points="4.2,231.1 -15.4,256.6 4.2,282.1 23.9,256.6 		"/>
		<polygon class="st1" points="43.5,231.1 23.9,256.6 43.5,282.1 63.1,256.6 		"/>
		<polygon class="st1" points="82.7,231.1 63.1,256.6 82.7,282.1 102.4,256.6 		"/>
		<polygon class="st1" points="122,231.1 102.4,256.6 122,282.1 141.6,256.6 		"/>
		<polygon class="st1" points="161.2,231.1 141.6,256.6 161.2,282.1 180.9,256.6 		"/>
		<polygon class="st1" points="200.5,231.1 180.9,256.6 200.5,282.1 220.1,256.6 		"/>
		<polygon class="st1" points="239.7,231.1 220.1,256.6 239.7,282.1 259.3,256.6 		"/>
		<polygon class="st1" points="273,238.9 273,274.4 259.3,256.6 		"/>
		<polygon class="st1" points="-93.9,307.7 -107,324.8 -107,290.6 		"/>
		<polygon class="st1" points="-74.2,282.2 -93.9,307.7 -74.2,333.2 -54.6,307.7 		"/>
		<polygon class="st1" points="-35,282.2 -54.6,307.7 -35,333.2 -15.4,307.7 		"/>
		<polygon class="st1" points="4.2,282.2 -15.4,307.7 4.2,333.2 23.9,307.7 		"/>
		<polygon class="st1" points="43.5,282.2 23.9,307.7 43.5,333.2 63.1,307.7 		"/>
		<polygon class="st1" points="82.7,282.2 63.1,307.7 82.7,333.2 102.4,307.7 		"/>
		<polygon class="st1" points="122,282.2 102.4,307.7 122,333.2 141.6,307.7 		"/>
		<polygon class="st1" points="161.2,282.2 141.6,307.7 161.2,333.2 180.9,307.7 		"/>
		<polygon class="st1" points="200.5,282.2 180.9,307.7 200.5,333.2 220.1,307.7 		"/>
		<polygon class="st1" points="239.7,282.2 220.1,307.7 239.7,333.2 259.3,307.7 		"/>
		<polygon class="st1" points="273,290 273,325.5 259.3,307.7 		"/>
		<polygon class="st1" points="-93.9,358.8 -107,375.9 -107,341.7 		"/>
		<polygon class="st1" points="-74.2,333.3 -93.9,358.8 -74.2,384.3 -54.6,358.8 		"/>
		<polygon class="st1" points="-35,333.3 -54.6,358.8 -35,384.3 -15.4,358.8 		"/>
		<polygon class="st1" points="4.2,333.3 -15.4,358.8 4.2,384.3 23.9,358.8 		"/>
		<polygon class="st1" points="43.5,333.3 23.9,358.8 43.5,384.3 63.1,358.8 		"/>
		<polygon class="st1" points="82.7,333.3 63.1,358.8 82.7,384.3 102.4,358.8 		"/>
		<polygon class="st1" points="122,333.3 102.4,358.8 122,384.3 141.6,358.8 		"/>
		<polygon class="st1" points="161.2,333.3 141.6,358.8 161.2,384.3 180.9,358.8 		"/>
		<polygon class="st1" points="200.5,333.3 180.9,358.8 200.5,384.3 220.1,358.8 		"/>
		<polygon class="st1" points="239.7,333.3 220.1,358.8 239.7,384.3 259.3,358.8 		"/>
		<polygon class="st1" points="273,341.1 273,376.6 259.3,358.8 		"/>
		<polygon class="st1" points="-93.9,409.9 -107,427 -107,392.8 		"/>
		<polygon class="st1" points="-74.2,384.4 -93.9,409.9 -74.2,435.4 -54.6,409.9 		"/>
		<polygon class="st1" points="-35,384.4 -54.6,409.9 -35,435.4 -15.4,409.9 		"/>
		<polygon class="st1" points="4.2,384.4 -15.4,409.9 4.2,435.4 23.9,409.9 		"/>
		<polygon class="st1" points="43.5,384.4 23.9,409.9 43.5,435.4 63.1,409.9 		"/>
		<polygon class="st1" points="82.7,384.4 63.1,409.9 82.7,435.4 102.4,409.9 		"/>
		<polygon class="st1" points="122,384.4 102.4,409.9 122,435.4 141.6,409.9 		"/>
		<polygon class="st1" points="161.2,384.4 141.6,409.9 161.2,435.4 180.9,409.9 		"/>
		<polygon class="st1" points="200.5,384.4 180.9,409.9 200.5,435.4 220.1,409.9 		"/>
		<polygon class="st1" points="239.7,384.4 220.1,409.9 239.7,435.4 259.3,409.9 		"/>
		<polygon class="st1" points="273,392.2 273,427.7 259.3,409.9 		"/>
		<polygon class="st1" points="-93.9,461 -107,478.1 -107,443.9 		"/>
		<polygon class="st1" points="-74.2,435.5 -93.9,461 -74.2,486.5 -54.6,461 		"/>
		<polygon class="st1" points="-35,435.5 -54.6,461 -35,486.5 -15.4,461 		"/>
		<polygon class="st1" points="4.2,435.5 -15.4,461 4.2,486.5 23.9,461 		"/>
		<polygon class="st1" points="43.5,435.5 23.9,461 43.5,486.5 63.1,461 		"/>
		<polygon class="st1" points="82.7,435.5 63.1,461 82.7,486.5 102.4,461 		"/>
		<polygon class="st1" points="122,435.5 102.4,461 122,486.5 141.6,461 		"/>
		<polygon class="st1" points="161.2,435.5 141.6,461 161.2,486.5 180.9,461 		"/>
		<polygon class="st1" points="200.5,435.5 180.9,461 200.5,486.5 220.1,461 		"/>
		<polygon class="st1" points="239.7,435.5 220.1,461 239.7,486.5 259.3,461 		"/>
		<polygon class="st1" points="273,443.3 273,478.8 259.3,461 		"/>
		<polygon class="st1" points="-93.9,512.1 -107,529.2 -107,495 		"/>
		<polygon class="st1" points="-74.2,486.6 -93.9,512.1 -74.2,537.6 -54.6,512.1 		"/>
		<polygon class="st1" points="-35,486.6 -54.6,512.1 -35,537.6 -15.4,512.1 		"/>
		<polygon class="st1" points="4.2,486.6 -15.4,512.1 4.2,537.6 23.9,512.1 		"/>
		<polygon class="st1" points="43.5,486.6 23.9,512.1 43.5,537.6 63.1,512.1 		"/>
		<polygon class="st1" points="82.7,486.6 63.1,512.1 82.7,537.6 102.4,512.1 		"/>
		<polygon class="st1" points="122,486.6 102.4,512.1 122,537.6 141.6,512.1 		"/>
		<polygon class="st1" points="161.2,486.6 141.6,512.1 161.2,537.6 180.9,512.1 		"/>
		<polygon class="st1" points="200.5,486.6 180.9,512.1 200.5,537.6 220.1,512.1 		"/>
		<polygon class="st1" points="239.7,486.6 220.1,512.1 239.7,537.6 259.3,512.1 		"/>
		<polygon class="st1" points="273,494.4 273,529.9 259.3,512.1 		"/>
		<polygon class="st1" points="-93.9,563.2 -107,580.3 -107,546.1 		"/>
		<polygon class="st1" points="-74.2,537.7 -93.9,563.2 -74.2,588.7 -54.6,563.2 		"/>
		<polygon class="st1" points="-35,537.7 -54.6,563.2 -35,588.7 -15.4,563.2 		"/>
		<polygon class="st1" points="4.2,537.7 -15.4,563.2 4.2,588.7 23.9,563.2 		"/>
		<polygon class="st1" points="43.5,537.7 23.9,563.2 43.5,588.7 63.1,563.2 		"/>
		<polygon class="st1" points="82.7,537.7 63.1,563.2 82.7,588.7 102.4,563.2 		"/>
		<polygon class="st1" points="122,537.7 102.4,563.2 122,588.7 141.6,563.2 		"/>
		<polygon class="st1" points="161.2,537.7 141.6,563.2 161.2,588.7 180.9,563.2 		"/>
		<polygon class="st1" points="200.5,537.7 180.9,563.2 200.5,588.7 220.1,563.2 		"/>
		<polygon class="st1" points="239.7,537.7 220.1,563.2 239.7,588.7 259.3,563.2 		"/>
		<polygon class="st1" points="273,545.5 273,581 259.3,563.2 		"/>
	</g>
</g>
<rect x="-107" y="565.3" class="st2" width="380" height="10.2"/>
<rect x="-107" y="567.5" class="st3" width="380" height="1.2"/>
<rect x="-107" y="575.5" class="st4" width="380" height="35.4"/>
<g>
	<path class="st5" d="M27.6,334.3l0.1-1H2.4c0,0-0.2,0.7-0.5,2.1h-57.5c-0.2-1.3-0.3-2.1-0.3-2.1h-29.5c-3.3-5.6-12.9-0.4-11.9,5.3
		c1.1,6.4,9,9.5,11.9,4.5l9.5,124.4c-0.9,0.4-1.4,0.9-1.4,0.9l0.3,6.9h0.8v45.6l4.2-0.5l0.7-8.1l0.8,7.9l3.1-0.4v-2.7l1.1,2.6
		l2.7-0.3c0,0-1.1-26.3-9.6-44h1l1.9-5.5h81.7l1.9,5.5h1c-8.5,17.7-9.6,44-9.6,44l12.7,1.6v-45.6h0.8l0.3-6.9c0,0-0.5-0.5-1.4-0.9
		l9.7-126.3h0.1c2,8.7,13.8,3.1,12.7-3.3C38.8,331.2,30.1,328.1,27.6,334.3z"/>
	<path class="st5" d="M264.8,338.9c-1.1-6.7-9.8-9.7-12.3-3.6l0.1-1h-25.2c0,0-0.2,0.7-0.4,2h-57.3c-0.2-1.3-0.3-2-0.3-2H140
		c-3.3-5.5-12.9-0.4-11.9,5.3c1.1,6.3,8.9,9.4,11.9,4.4l9.5,123.9c-0.9,0.4-1.4,0.9-1.4,0.9l0.3,6.8h0.8V521l4.2-0.5l0.7-8.1
		l0.8,7.9l3.1-0.4v-2.7l1.1,2.6l2.6-0.3c0,0-1.1-26.2-9.5-43.8h1l1.9-5.5h81.4l1.9,5.5h1c-8.4,17.6-9.5,43.8-9.5,43.8l2.4,0.3
		l1.2-3.7v3.8l2.3,0.3l0.4-2.3l0.5,1.9c0,0,1.7-1.8,1.5-1.5c-0.1,0.2-0.2,1.1-0.3,2.1l4.6,0.6v-45.4h0.8l0.3-6.8
		c0,0-0.5-0.5-1.4-0.9l9.7-125.8h0.1C254.1,350.8,265.9,345.2,264.8,338.9z"/>
	<g>
		<g>
			<g>
				<rect x="-85.5" y="332.8" class="st6" width="112.8" height="5.6"/>
				<g>
					<polygon class="st7" points="-1.3,336.2 -53.1,336.2 -53.4,334.9 -0.6,334.9 					"/>
					<path class="st8" d="M-50.4,333.3h49.8C-0.6,333.3-38.7,334.6-50.4,333.3z"/>
				</g>
				<path class="st9" d="M-69.8,503.6l0.8,7.7l3-0.4v-2.6l1.1,2.5l2.6-0.3c0,0-1.1-26.2-9.6-43.3h-2.6V512l4.1-0.5L-69.8,503.6z"/>
				<path class="st9" d="M15.9,467.1v44.8l-12.2-1.6c0,0,1.1-26.2,9.6-43.3L15.9,467.1L15.9,467.1z"/>
				<rect x="-72.6" y="337" class="st10" width="84.3" height="125.6"/>
				<rect x="-68.8" y="341" class="st11" width="78.5" height="117.6"/>
				<path class="st12" d="M-43.6,417.7c-0.2-0.8-0.5-1.7-1.1-2.2c-0.6-0.5-1.7-0.6-2.2,0.1c-0.4,0.5-0.2,1.2-0.1,1.8
					c-0.8-1.4-3-1.4-3.9-0.1c-0.3-0.8-1-1.5-1.8-1.6s-1.8,0.5-1.8,1.3c-0.1-0.1-0.2-0.2-0.4-0.4c-0.2,1.3-0.5,2.6-0.7,3.9
					c0,0,0,0,0.1,0c3.1,0.2,6.2,0.4,9.3,0.5c0.7,0,1.4,0.1,2-0.3C-43.3,420.2-43.3,418.8-43.6,417.7z"/>
				<g>
					<path class="st12" d="M-47.2,451.8c-1.7-0.2-3.5,0.9-3.9,2.6c-0.6-0.7-1.4-1.5-2.3-1.8c-1-0.3-2.1,0.1-2.5,1
						c0-1.4-1.1-2.7-2.5-3c-1.4-0.3-2.9,0.4-3.6,1.6c-0.4-0.7-0.8-1.4-1.4-2c-0.7,2-1.4,4-2.1,5.9c2.7,0.4,6.2,0.6,6.8,0.7
						c3.7,0.2,7.5,0.3,11.1-0.2c1.9-0.3,3-0.5,3.7-1.7C-44.3,453.4-45.6,452.1-47.2,451.8z"/>
					<path class="st12" d="M-17,453c-0.4-1.2-1.4-2.3-2.6-2.4c-1.2-0.1-2.5,1.2-2.1,2.3c-0.4-1.2-2.2-1.5-3.1-0.6
						c-0.7-0.8-1.2-1.9-1.9-2.8s-1.9-1.6-2.9-1.2c-1.4,0.5-1.7,2.3-1.6,3.7c-0.5-0.4-1.1-0.8-1.8-0.9s-1.4,0.2-1.7,0.8
						c-0.3-1-1.3-1.7-2.3-1.8c-1,0-2.1,0.7-2.4,1.6c-0.1-1.2-1.5-1.9-2.6-1.5c-1.4,0.5-1.1,2.1-1.4,3.2c-0.2,0.6-0.3,1.1-0.6,1.5
						c0,0.1,0.1,0.3,0.1,0.4c0,0.2,0,0.4-0.1,0.6l1.5,0.4c8.5,0.9,17.1,1,25.7,0.4C-16.7,455.5-16.6,454.2-17,453z"/>
				</g>
				<path class="st12" d="M-44.1,371.5c-1.5,0.1-3,1.4-3,3c-0.5-0.8-1.5-1.5-2.4-1.5c-0.3,0-0.6,0.1-0.9,0.3c0,1.8-0.1,3.6-0.2,5.4
					c1.1,0.1,2.2,0.1,3.2,0c1.1,0,2.2-0.1,3.3-0.1L-44.1,371.5L-44.1,371.5z"/>
				<path class="st12" d="M-41.6,372c1.3-0.2,2.3,0.9,3.1,1.9c0.3-0.7,1-1.2,1.8-1.3c0.8,0,1.5,0.5,1.8,1.2c0.9-1,2.8-0.9,3.5,0.3
					c-0.2-2,1.5-3.9,3.4-4c2-0.1,3.9,1.7,3.9,3.7c0.7-0.9,2.3-0.6,2.7,0.4c0.1-1.3,2-1.7,3-0.9c1,0.8,1.2,2.3,1.3,3.6
					c0,0.2,0,0.4-0.1,0.6c-0.1,0.1-0.3,0.2-0.5,0.2c-8.2,1.2-16.6,1.2-24.8-0.1c-0.2,0-0.4-0.1-0.6-0.2c-0.2-0.2-0.2-0.4-0.2-0.7
					c-0.1-0.9-0.2-1.8,0-2.7C-43.2,373-42.5,372.2-41.6,372z"/>
				<path class="st12" d="M-13.4,378.3c-1-0.3-2.1-0.8-2.4-1.8c-0.2-0.7,0-1.4,0.2-2.1c0.2-0.6,0.4-1.2,1-1.4c0.5-0.1,1,0.2,1.3,0.5
					c0.3,0.4,0.5,0.8,0.8,1.3c0-1,1-1.8,1.9-1.8c1,0,1.9,0.6,2.4,1.5c0-1.6,1.5-2.9,3.1-3c1.6,0,3.1,1,3.8,2.4
					c0.8,1.4,0.9,3,0.7,4.6c-2.7,0.1-5.3,0.2-8,0.2C-10.1,378.7-11.8,378.8-13.4,378.3z"/>
				<path class="st12" d="M-7.5,415.3c0.1,0.1,0.2,0.2,0.4,0.3c0.2,0.1,0.5-0.1,0.7-0.2c0.7-0.3,1.7,0.3,1.8,1.1
					c0.3-0.9,0.6-1.9,1.2-2.7c0.6-0.8,1.5-1.4,2.5-1.3c0.7,0,1.3,0.4,1.8,0.8c1.7,1.5,2,4,2.2,6.2c0,0.3,0,0.5-0.1,0.7
					c-0.1,0.1-0.3,0.2-0.4,0.2c-5.4,1.4-11.1,1.7-16.5,0.7c-0.6-0.1-1.2-0.2-1.6-0.6c-0.7-0.6-0.7-1.7-0.6-2.6
					c0.1-1.2,0.2-2.4,0.8-3.4c0.6-1,1.9-1.7,3-1.2c0.9,0.4,1.3,1.4,1.6,2.2C-10,414.6-8.4,414.5-7.5,415.3z"/>
				<path class="st12" d="M-42.5,456.3c7.1,0.7,14.3,1,21.4,0.7c3.6-0.2,3.7-0.2,4.9-3.2c0.7-1.6,4.2-4,4.4-0.7
					c0.4-0.9,0.8-1.7,1.5-2.4c0.7-0.7,1.6-1.1,2.5-1c1.2,0.2,2,1.4,2.6,2.5c1.2-1,3.4-0.3,3.7,1.3c1.2-0.9,3.2-0.5,3.8,0.9
					c0.9-1.3,2.7-2,4.2-1.6c1.6,0.4,2.8,1.9,2.9,3.5c0,0.2,0,0.4-0.1,0.6c-0.1,0.2-0.4,0.2-0.6,0.3c-7.9,1.7-16.1,0.5-24-0.8"/>
				<path class="st12" d="M-25.5,421c-6-0.2-11.9-0.5-17.9-0.7c0.2-1.7-0.1-3.3,0-5c0.2-1.7,1-3.4,2.6-3.9c1.5-0.5,3.2,0.4,3.7,1.9
					c0.5-0.8,2-0.5,2.1,0.5c0.5-0.6,1.5-0.4,1.9,0.2c0.5,0.6,0.6,1.4,0.6,2.1c0.1-0.9,0.3-1.8,0.7-2.6c0.4-0.8,1.2-1.4,2.1-1.5
					c0.9,0,1.7,0.5,2.1,1.3c0.5,0.7,0.7,1.6,0.9,2.4c0.4-0.8,1.8-0.8,2.1,0.1c-0.3-0.4,0.3-1,0.8-1c0.5,0,0.9,0.4,1.3,0.7
					c-0.2-1.5,0.1-3,0.9-4.3c0.3-0.5,0.7-1,1.3-1.2c0.9-0.3,1.8,0.2,2.4,0.9c0.5,0.7,0.7,1.6,0.9,2.5c0.4,2.4,0.7,4.9,0.7,7.4
					C-19.2,421.2-22.4,421.1-25.5,421z"/>
				<g>
					<circle class="st12" cx="-29.9" cy="398.6" r="1.9"/>
					<circle class="st12" cx="-9.9" cy="355.1" r="1.9"/>
					<circle class="st12" cx="-26.7" cy="364.6" r="1.9"/>
					<circle class="st12" cx="-27.8" cy="389.9" r="1.1"/>
					<circle class="st12" cx="-35.2" cy="365.6" r="1.1"/>
					<circle class="st12" cx="-31.8" cy="357" r="1.1"/>
					<circle class="st12" cx="-9.9" cy="362.7" r="1.1"/>
					<circle class="st12" cx="-35.2" cy="392.3" r="1.5"/>
				</g>
				<rect x="-45.6" y="346.5" class="st13" width="3.3" height="112.2"/>
				<rect x="-18.6" y="346.5" class="st13" width="3.3" height="112.2"/>
				<path class="st13" d="M-55.4,419.5c-0.2,1.1-0.4,2.2-0.7,3.3H7.8v-3.3H-55.4z"/>
				<rect x="-68.8" y="340.4" class="st13" width="76.6" height="3.3"/>
				<rect x="-68.9" y="455.4" class="st13" width="79.8" height="3.3"/>
				<path class="st9" d="M-69.9,461.3c25.8-64.9,14.8-130.5,14.8-130.5h-29.2l10,130.5H-69.9z"/>
				<path class="st10" d="M-78.1,342.3c0,0,7.6,83.8,7.2,107.4C-70.8,449.6-67.1,363.2-78.1,342.3z"/>
				<path class="st10" d="M-62.9,342.7c0,0-1.8,73.5-3.4,86.3C-66.2,429-54,358.4-62.9,342.7z"/>
				<path class="st13" d="M-50.6,376.8c0,1.1-0.1,2.2-0.1,3.3H7.9v-3.3H-50.6z"/>
				<path class="st9" d="M11.1,461.3c-25.8-64.9-9.9-130.5-9.9-130.5h24.4l-10,130.5H11.1z"/>
				<path class="st6" d="M-95.1,335.9c-1.1-6.6,12.2-12.4,12.6-1C-82.2,346.4-93.8,343.6-95.1,335.9z"/>
				<path class="st7" d="M-87.5,336.7c-2.2,0.5-4.2,0-6-1c0.6,3.3,3.4,5.3,5.7,5.3c0.9,0,1.6-0.3,2.2-0.9c0.9-1,1.4-2.7,1.3-4.9
					C-85.2,335.8-86.3,336.4-87.5,336.7z"/>
				<g>
					<path class="st6" d="M37.4,335.2c1.1,6.6-12.2,12.4-12.6,1C24.4,324.8,36.1,327.5,37.4,335.2z"/>
				</g>
				<path class="st7" d="M29.8,336.7c2.2,0.5,4.2,0,6-1c-0.6,3.3-3.4,5.3-5.7,5.3c-0.9,0-1.6-0.3-2.2-0.9c-0.9-1-1.4-2.7-1.3-4.9
					C27.5,335.8,28.6,336.4,29.8,336.7z"/>
				<path class="st8" d="M28,330.8c1-1.6,6.3,0.7,6,1.6C33.7,333.2,26.6,333,28,330.8z"/>
				<path class="st14" d="M-75.7,461.3c0,0,3.3-3.3,7.3,0l-2.4,6.6h-4.7L-75.7,461.3z"/>
				<path class="st10" d="M17,461.3c0,0-3.3-3.3-7.3,0l2.4,6.6h4.7L17,461.3z"/>
			</g>
			<circle class="st12" cx="-9.7" cy="389.6" r="1.2"/>
			<circle class="st12" cx="-8.7" cy="403.4" r="2.3"/>
			<circle class="st12" cx="-8.9" cy="409" r="0.9"/>
			<circle class="st12" cx="-36.6" cy="428.9" r="1"/>
			<circle class="st12" cx="-28.5" cy="433.2" r="1.8"/>
			<circle class="st12" cx="-34.5" cy="441.2" r="0.7"/>
			<circle class="st12" cx="-8.1" cy="435" r="1.8"/>
			<circle class="st12" cx="-5" cy="428.6" r="0.7"/>
			<circle class="st12" cx="-0.9" cy="442.6" r="2.1"/>
			<circle class="st12" cx="-55.5" cy="441.9" r="1.5"/>
			<circle class="st12" cx="-51.1" cy="428.1" r="1.6"/>
			<circle class="st12" cx="-51.4" cy="435.7" r="0.7"/>
			<circle class="st12" cx="-51.7" cy="447.8" r="1.1"/>
			<circle class="st12" cx="-23.7" cy="441.6" r="1.2"/>
			<path class="st8" d="M-93.8,334.1c-1-1.5,4.4-5.8,6.9-4.2C-84.5,331.5-92.3,336.5-93.8,334.1z"/>
			<polygon class="st9" points="-72.7,467.1 -71.4,461.3 -69.8,462 -71.4,467.1 			"/>
			<path class="st14" d="M-72.1,470.3c0,0,6.3,15.6,7,34.9L-72.1,470.3z"/>
			<path class="st10" d="M19.8,342.3c0,0-7.6,83.8-7.2,107.4C12.6,449.6,8.8,363.2,19.8,342.3z"/>
			<path class="st10" d="M4.6,342.7c0,0,1.8,73.5,3.4,86.3C8,429-4.2,358.4,4.6,342.7z"/>
			<polygon class="st9" points="14.5,467.1 13.2,461.3 11.6,462 13.1,467.1 			"/>
			<path class="st14" d="M13.8,470.3c0,0-6.3,15.6-7,34.9L13.8,470.3z"/>
		</g>
	</g>
	<g>
		<g>
			<g>
				<rect x="141.4" y="332.8" class="st6" width="112.8" height="5.6"/>
				<g>
					<polygon class="st7" points="225.7,336.2 173.8,336.2 173.5,334.9 226.3,334.9 					"/>
					<path class="st8" d="M176.5,333.3h49.8C226.3,333.3,188.3,334.6,176.5,333.3z"/>
				</g>
				<path class="st9" d="M157.1,503.6l0.8,7.7l3-0.4v-2.6l1.1,2.5l2.6-0.3c0,0-1.1-26.2-9.6-43.3h-2.6V512l4.1-0.5L157.1,503.6z"/>
				<path class="st9" d="M240.2,467.1c-8.5,17.1-9.6,43.3-9.6,43.3l3.5,0.4l1.2-3.6v3.8l2.3,0.3l0.4-2.2l0.5,1.9
					c0,0,1.7-1.8,1.5-1.5c-0.1,0.2-0.2,1.1-0.3,2.1l3.2,0.4v-44.9L240.2,467.1L240.2,467.1z"/>
				<rect x="154.3" y="337" class="st10" width="84.3" height="125.6"/>
				<rect x="158.2" y="341" class="st11" width="78.5" height="117.6"/>
				<path class="st12" d="M183.4,417.7c-0.2-0.8-0.5-1.7-1.1-2.2c-0.6-0.5-1.7-0.6-2.2,0.1c-0.4,0.5-0.2,1.2-0.1,1.8
					c-0.8-1.4-3-1.4-3.9-0.1c-0.3-0.8-1-1.5-1.8-1.6c-0.8-0.1-1.8,0.5-1.8,1.3c-0.1-0.1-0.2-0.2-0.4-0.4c-0.2,1.3-0.5,2.6-0.7,3.9
					c0,0,0,0,0.1,0c3.1,0.2,6.2,0.4,9.3,0.5c0.7,0,1.4,0.1,2-0.3C183.7,420.2,183.6,418.8,183.4,417.7z"/>
				<g>
					<path class="st12" d="M179.8,451.8c-1.7-0.2-3.5,0.9-3.9,2.6c-0.6-0.7-1.4-1.5-2.3-1.8c-1-0.3-2.1,0.1-2.5,1
						c0-1.4-1.1-2.7-2.5-3c-1.4-0.3-2.9,0.4-3.6,1.6c-0.4-0.7-0.8-1.4-1.4-2c-0.7,2-1.4,4-2.1,5.9c2.7,0.4,6.2,0.6,6.8,0.7
						c3.7,0.2,7.5,0.3,11.1-0.2c1.9-0.3,3-0.5,3.7-1.7C182.6,453.4,181.3,452.1,179.8,451.8z"/>
					<path class="st12" d="M209.9,453c-0.4-1.2-1.4-2.3-2.6-2.4s-2.5,1.2-2.1,2.3c-0.4-1.2-2.2-1.5-3.1-0.6
						c-0.7-0.8-1.2-1.9-1.9-2.8c-0.7-0.9-1.9-1.6-2.9-1.2c-1.4,0.5-1.7,2.3-1.6,3.7c-0.5-0.4-1.1-0.8-1.8-0.9
						c-0.7-0.1-1.4,0.2-1.7,0.8c-0.3-1-1.3-1.7-2.3-1.8c-1,0-2.1,0.7-2.4,1.6c-0.1-1.2-1.5-1.9-2.6-1.5c-1.4,0.5-1.1,2.1-1.4,3.2
						c-0.2,0.6-0.3,1.1-0.6,1.5c0,0.1,0.1,0.3,0.1,0.4c0,0.2,0,0.4-0.1,0.6l1.5,0.4c8.5,0.9,17.1,1,25.7,0.4
						C210.2,455.5,210.3,454.2,209.9,453z"/>
				</g>
				<path class="st12" d="M182.9,371.5c-1.5,0.1-3,1.4-3,3c-0.5-0.8-1.5-1.5-2.4-1.5c-0.3,0-0.6,0.1-0.9,0.3c0,1.8-0.1,3.6-0.2,5.4
					c1.1,0.1,2.2,0.1,3.2,0c1.1,0,2.2-0.1,3.3-0.1C182.9,378.6,182.9,371.5,182.9,371.5z"/>
				<path class="st12" d="M185.3,372c1.3-0.2,2.3,0.9,3.1,1.9c0.3-0.7,1-1.2,1.8-1.3c0.8,0,1.5,0.5,1.8,1.2c0.9-1,2.8-0.9,3.5,0.3
					c-0.2-2,1.5-3.9,3.4-4c2-0.1,3.9,1.7,3.9,3.7c0.7-0.9,2.3-0.6,2.7,0.4c0.1-1.3,2-1.7,3-0.9c1,0.8,1.2,2.3,1.3,3.6
					c0,0.2,0,0.4-0.1,0.6c-0.1,0.1-0.3,0.2-0.5,0.2c-8.2,1.2-16.6,1.2-24.8-0.1c-0.2,0-0.4-0.1-0.6-0.2c-0.2-0.2-0.2-0.4-0.2-0.7
					c-0.1-0.9-0.2-1.8,0-2.7C183.8,373.1,184.4,372.2,185.3,372z"/>
				<path class="st12" d="M213.5,378.3c-1-0.3-2.1-0.8-2.4-1.8c-0.2-0.7,0-1.4,0.2-2.1c0.2-0.6,0.4-1.2,1-1.4c0.5-0.1,1,0.2,1.3,0.5
					c0.3,0.4,0.5,0.8,0.8,1.3c0-1,1-1.8,1.9-1.8c1,0,1.9,0.6,2.4,1.5c0-1.6,1.5-2.9,3.1-3c1.6,0,3.1,1,3.8,2.4
					c0.8,1.4,0.9,3,0.7,4.6c-2.7,0.1-5.3,0.2-8,0.2C216.8,378.7,215.1,378.8,213.5,378.3z"/>
				<path class="st12" d="M219.4,415.3c0.1,0.1,0.2,0.2,0.4,0.3c0.2,0.1,0.5-0.1,0.7-0.2c0.7-0.3,1.7,0.3,1.8,1.1
					c0.3-0.9,0.6-1.9,1.2-2.7c0.6-0.8,1.5-1.4,2.5-1.3c0.7,0,1.3,0.4,1.8,0.8c1.7,1.5,2,4,2.2,6.2c0,0.3,0,0.5-0.1,0.7
					c-0.1,0.1-0.3,0.2-0.4,0.2c-5.4,1.4-11.1,1.7-16.5,0.7c-0.6-0.1-1.2-0.2-1.6-0.6c-0.7-0.6-0.7-1.7-0.6-2.6
					c0.1-1.2,0.2-2.4,0.8-3.4c0.6-1,1.9-1.7,3-1.2c0.9,0.4,1.3,1.4,1.6,2.2C216.9,414.6,218.5,414.5,219.4,415.3z"/>
				<path class="st12" d="M184.5,456.3c7.1,0.7,14.3,1,21.4,0.7c3.6-0.2,3.7-0.2,4.9-3.2c0.7-1.6,4.2-4,4.4-0.7
					c0.4-0.9,0.8-1.7,1.5-2.4s1.6-1.1,2.5-1c1.2,0.2,2,1.4,2.6,2.5c1.2-1,3.4-0.3,3.7,1.3c1.2-0.9,3.2-0.5,3.8,0.9
					c0.9-1.3,2.7-2,4.2-1.6c1.6,0.4,2.8,1.9,2.9,3.5c0,0.2,0,0.4-0.1,0.6c-0.1,0.2-0.4,0.2-0.6,0.3c-7.9,1.7-16.1,0.5-24-0.8"/>
				<path class="st12" d="M201.5,421c-6-0.2-11.9-0.5-17.9-0.7c0.2-1.7-0.1-3.3,0-5c0.2-1.7,1-3.4,2.6-3.9c1.5-0.5,3.2,0.4,3.7,1.9
					c0.5-0.8,2-0.5,2.1,0.5c0.5-0.6,1.5-0.4,1.9,0.2c0.5,0.6,0.6,1.4,0.6,2.1c0.1-0.9,0.3-1.8,0.7-2.6c0.4-0.8,1.2-1.4,2.1-1.5
					c0.9,0,1.7,0.5,2.1,1.3c0.5,0.7,0.7,1.6,0.9,2.4c0.4-0.8,1.8-0.8,2.1,0.1c-0.3-0.4,0.3-1,0.8-1s0.9,0.4,1.3,0.7
					c-0.2-1.5,0.1-3,0.9-4.3c0.3-0.5,0.7-1,1.3-1.2c0.9-0.3,1.8,0.2,2.4,0.9c0.5,0.7,0.7,1.6,0.9,2.5c0.4,2.4,0.7,4.9,0.7,7.4
					C207.7,421.2,204.6,421.1,201.5,421z"/>
				<g>
					<circle class="st12" cx="197" cy="398.6" r="1.9"/>
					<circle class="st12" cx="217" cy="355.1" r="1.9"/>
					<circle class="st12" cx="200.2" cy="364.6" r="1.9"/>
					<circle class="st12" cx="199.2" cy="389.9" r="1.1"/>
					<circle class="st12" cx="191.7" cy="365.6" r="1.1"/>
					<circle class="st12" cx="195.1" cy="357" r="1.1"/>
					<circle class="st12" cx="217" cy="362.7" r="1.1"/>
					<circle class="st12" cx="191.7" cy="392.3" r="1.5"/>
				</g>
				<rect x="181.3" y="346.5" class="st13" width="3.3" height="112.2"/>
				<rect x="208.3" y="346.5" class="st13" width="3.3" height="112.2"/>
				<path class="st13" d="M171.6,419.5c-0.2,1.1-0.4,2.2-0.7,3.3h63.9v-3.3H171.6z"/>
				<rect x="158.2" y="340.4" class="st13" width="76.6" height="3.3"/>
				<rect x="158.1" y="455.4" class="st13" width="79.8" height="3.3"/>
				<path class="st9" d="M157.1,461.3c25.8-64.9,14.8-130.5,14.8-130.5h-29.2l10,130.5H157.1z"/>
				<path class="st10" d="M148.9,342.3c0,0,7.6,83.8,7.2,107.4C156.1,449.6,159.9,363.2,148.9,342.3z"/>
				<path class="st10" d="M164.1,342.7c0,0-1.8,73.5-3.4,86.3C160.7,429,172.9,358.4,164.1,342.7z"/>
				<path class="st13" d="M176.4,376.8c0,1.1-0.1,2.2-0.1,3.3h58.6v-3.3H176.4z"/>
				<path class="st9" d="M238.1,461.3c-25.8-64.9-9.9-130.5-9.9-130.5h24.4l-10,130.5H238.1z"/>
				<path class="st6" d="M131.8,335.9c-1.1-6.6,12.2-12.4,12.6-1C144.7,346.4,133.1,343.6,131.8,335.9z"/>
				<path class="st7" d="M139.5,336.7c-2.2,0.5-4.2,0-6-1c0.6,3.3,3.4,5.3,5.7,5.3c0.9,0,1.6-0.3,2.2-0.9c0.9-1,1.4-2.7,1.3-4.9
					C141.7,335.8,140.7,336.4,139.5,336.7z"/>
				<g>
					<path class="st6" d="M264.4,335.2c1.1,6.6-12.2,12.4-12.6,1C251.4,324.8,263.1,327.5,264.4,335.2z"/>
				</g>
				<path class="st7" d="M256.7,336.7c2.2,0.5,4.2,0,6-1c-0.6,3.3-3.4,5.3-5.7,5.3c-0.9,0-1.6-0.3-2.2-0.9c-0.9-1-1.4-2.7-1.3-4.9
					C254.5,335.8,255.5,336.4,256.7,336.7z"/>
				<path class="st8" d="M255,330.8c1-1.6,6.3,0.7,6,1.6C260.7,333.2,253.6,333,255,330.8z"/>
				<path class="st14" d="M151.2,461.3c0,0,3.3-3.3,7.3,0l-2.4,6.6h-4.7L151.2,461.3z"/>
				<path class="st10" d="M243.9,461.3c0,0-3.3-3.3-7.3,0l2.4,6.6h4.7L243.9,461.3z"/>
			</g>
			<circle class="st12" cx="217.2" cy="389.6" r="1.2"/>
			<circle class="st12" cx="218.3" cy="403.4" r="2.3"/>
			<circle class="st12" cx="218.1" cy="409" r="0.9"/>
			<circle class="st12" cx="190.3" cy="428.9" r="1"/>
			<circle class="st12" cx="198.4" cy="433.2" r="1.8"/>
			<circle class="st12" cx="192.5" cy="441.2" r="0.7"/>
			<circle class="st12" cx="218.8" cy="435" r="1.8"/>
			<circle class="st12" cx="221.9" cy="428.6" r="0.7"/>
			<circle class="st12" cx="226" cy="442.6" r="2.1"/>
			<circle class="st12" cx="171.4" cy="441.9" r="1.5"/>
			<circle class="st12" cx="175.8" cy="428.1" r="1.6"/>
			<circle class="st12" cx="175.5" cy="435.7" r="0.7"/>
			<circle class="st12" cx="175.2" cy="447.8" r="1.1"/>
			<circle class="st12" cx="203.3" cy="441.6" r="1.2"/>
			<path class="st8" d="M133.1,334.1c-1-1.5,4.4-5.8,6.9-4.2C142.5,331.5,134.7,336.5,133.1,334.1z"/>
			<polygon class="st9" points="154.2,467.1 155.5,461.3 157.1,462 155.6,467.1 			"/>
			<path class="st14" d="M154.9,470.3c0,0,6.3,15.6,7,34.9L154.9,470.3z"/>
			<path class="st10" d="M246.8,342.3c0,0-7.6,83.8-7.2,107.4C239.5,449.6,235.8,363.2,246.8,342.3z"/>
			<path class="st10" d="M231.6,342.7c0,0,1.8,73.5,3.4,86.3C234.9,429,222.7,358.4,231.6,342.7z"/>
			<polygon class="st9" points="241.4,467.1 240.1,461.3 238.5,462 240.1,467.1 			"/>
			<path class="st14" d="M240.8,470.3c0,0-6.3,15.6-7,34.9L240.8,470.3z"/>
		</g>
	</g>
</g>
<g>
	<path class="st15" d="M-35.1,420c0,0-0.6-1.2-1.3-2.7c0.4-0.6,4-5.4,2.5-7.9c-0.1-0.4-0.4-0.4-0.4-0.4c-1.9,0-6.8,3.7-7.7,4.8
		l-9.2,1.5c-1.1-0.8-4.8-2.6-7.4-1.9c0,0-0.5,0.2-0.7,0.7l0,0l0,0c0,0,2.4,6.1,3.5,7c0,0,0.6,0.4,1.3,0.6l0.6,5.8l0,0
		c-0.3,1.6-1.2,4.4-3.6,5.4c0,0-12.4,4.1-14.2,12c0,0-0.8,3.6-0.4,7.7c-1.5,0.8-3.3,1.2-5,1.4c-2.6,0.3-5.2,0.4-7.7-0.4
		c-2.5-0.7-4.8-2.4-5.9-4.7c-0.8-1.7-1-3.7-0.7-5.6c0.8-3.7,3.5-6.9,7-8.3c-0.9,0-1.8-0.1-2.7-0.1c1.4-1.3,3.2-2.1,5.1-2.1
		c1,0,2,0.4,2.5,1.1c0.6,0.8,0.4,2.1-0.5,2.5c-0.3,0.1-0.5,0.2-0.8,0.2c-2.3,0.6-3.1,4-1.6,5.9c1.5,1.9,4.4,2.1,6.6,1.1
		c2.2-1,3.7-3.1,4.7-5.3c1.7-3.6,2.4-8,0.5-11.6c-0.9-1.8-2.6-3.7-4.5-4.9c-1.7-2.5-5-3.7-8-3.1c-3.3,0.7-6,3.4-7.3,6.6
		c-0.4,0.4-0.8,0.9-1.1,1.3c0.3-0.9,0.7-1.8,1.2-2.7c-2.1,1.9-3.8,4.4-4.8,7c-1.9,2.5-3.6,5-4.7,8.1c-2.1,5.9-0.6,13.9,4.1,18
		c3.6,3.2,9,4.1,13.7,3.1c3.7-0.8,7.1-2.5,10.3-4.6c0.4,1.6,1,3.1,2,4.4l0.5,1.9h14.3v-0.7c-0.2-1.6-1.6-2.4-2.6-2.7l4.7-5.4
		c0.1,0.1,0.1,0.3,0.2,0.4c0,0,1.5,5.4,1.5,6.8l-0.1,1.2c0,0-0.3,0.8,0.5,1.3l3.7-0.1c0,0,0.8-1.2-1.3-2.6l0.9-9.2
		c0.2-0.1,0.4-0.2,0.6-0.2l1.5,7l0.5,4.2l4.7,0.2c0,0,1.2-0.9,0-1.6c0,0-1.1-1.2-1.5-1.2l-1.1-5.6c0,0,1.5-4.2,1.2-7
		c0.1-0.1,0.1-0.1,0.2-0.2c0,0,4-7.1,1.6-16.5c0.1-0.1,0.3-0.2,0.4-0.2c0,0,6-4.3,5.3-6C-33.9,423.7-33.9,422.7-35.1,420z
		 M-85.4,421.4c2-1.4,4.6-1.8,6.9-1c0.2,0.1,0.4,0.2,0.7,0.3c-0.9-0.3-1.8-0.3-2.7-0.2c-1.6,0.3-3.6,0.6-5.4,1.4
		C-85.8,421.7-85.6,421.5-85.4,421.4z"/>
	<path class="st16" d="M-70.2,450.7c-1.6,1-3.5,1.3-5.3,1.6c-2.6,0.3-5.2,0.4-7.7-0.4c-2.5-0.7-4.8-2.4-5.9-4.7
		c-0.8-1.7-1-3.7-0.7-5.6c0.8-3.7,3.5-6.9,7-8.3c-0.9,0-1.8-0.1-2.7-0.1c1.4-1.3,3.2-2.1,5.1-2.1c1,0,2,0.4,2.5,1.1
		c0.6,0.8,0.4,2.1-0.5,2.5c-0.3,0.1-0.5,0.2-0.8,0.2c-2.3,0.6-3.1,4-1.6,5.9c1.5,1.9,4.4,2.1,6.6,1.1c2.2-1,3.7-3.1,4.7-5.3
		c1.7-3.6,2.4-8,0.5-11.6c-0.9-1.8-2.6-3.7-4.5-4.9c-1.7-2.5-5-3.7-8-3.1c-3.3,0.7-6,3.4-7.3,6.6c-0.4,0.4-0.8,0.9-1.1,1.3
		c0.3-0.9,0.7-1.8,1.2-2.7c-2.1,1.9-3.8,4.4-4.8,7c-1.9,2.5-3.6,5-4.7,8.1c-2.1,5.9-0.6,13.9,4.1,18c3.6,3.2,9,4.1,13.7,3.1
		c4.8-1,9.1-3.6,12.9-6.6l0.3-5.7C-67.3,448.1-68.6,449.7-70.2,450.7z M-77,418.5c0.2,0.1,0.4,0.2,0.7,0.3c-0.9-0.3-1.8-0.3-2.7-0.2
		c-1.6,0.3-3.6,0.6-5.4,1.4c0.2-0.1,0.4-0.3,0.5-0.4C-81.9,418.2-79.3,417.7-77,418.5z"/>
	<path class="st16" d="M-52.2,424.4c0,0-0.3,5.1-3.8,6.6c0,0-12.4,4.1-14.2,12c0,0-2.1,9.9,2.4,15.6l10.3-0.1l7.2-8.2
		c0,0,7.6-1.2,10.6-5.8c0,0,4.1-7.2,1.6-16.7L-52.2,424.4z"/>
	<path class="st16" d="M-37.9,411.5l-13.2,2.1c0,0-1.7,0.6-2.1,2.8l0.9,9.2c0,0,10.2,5.5,14.7,2.3c0,0,6-4.3,5.3-6
		c0,0,0-1.1-1.2-3.7C-33.5,418.1-35.9,412.7-37.9,411.5z"/>
	<g>
		<path class="st16" d="M-40.7,412.2c-0.1-0.3,5.8-5.1,7.9-5.1c0,0,0.4,0.1,0.4,0.4c0,0-3.6,3.4-4.5,5.1
			C-36.8,412.6-40.1,414-40.7,412.2z"/>
		<path class="st17" d="M-34.9,415.5c0,0,4.1-5.4,2.6-8l-4.5,3.8l-0.4,2L-34.9,415.5z"/>
	</g>
	<g>
		<path class="st16" d="M-49.3,413.7c-0.1-0.3-4.7-3-7.8-2.2c0,0-0.5,0.2-0.7,0.7c-0.1,0.4,4.5,0.4,5.7,3
			C-52,415.2-48.7,415.1-49.3,413.7z"/>
		<path class="st17" d="M-57.8,412.2c0,0,2.4,6.1,3.5,7c0,0,1.5,1,2.6,0.5l0.4-4.9C-51.3,414.8-55.4,411-57.8,412.2z"/>
	</g>
	<path class="st16" d="M-51.2,441.7c0,0-3.5,3.7,0.4,10c0,0,1.5,5.4,1.5,6.8l-0.1,1.2c0,0-0.3,0.8,0.5,1.3l3.7-0.1
		c0,0,0.8-1.2-1.3-2.6l1.5-15.6C-45.1,442.6-49.8,439.7-51.2,441.7z"/>
	<path class="st16" d="M-63.7,441.4c0.3,0,6.6,2.3,6.4,13.6c0,0,0.2,1.2,0.6,1.5c0,0,3.1,0.6,3.4,3v0.7h-14.3l-0.8-3
		c0,0,1.5-12.8,1.5-13C-66.9,443.9-63.7,441.4-63.7,441.4z"/>
	<path class="st16" d="M-45.4,447.8l1.7,8.1l0.5,4.2l4.7,0.2c0,0,1.2-0.9,0-1.6c0,0-1.1-1.2-1.5-1.2l-1.1-5.6c0,0,2.1-5.9,0.8-8.4
		C-40.2,443.5-45.8,444.3-45.4,447.8z"/>
	<path class="st18" d="M-39.2,420.6c-1.4-0.2-2.5,0.3-3.5,1.3c-1.1,1-1.4,2.8-0.5,3.9c0.6,0.7,1.5,1.1,2.5,1.2c0.3,0,0.7,0.1,1,0
		c0.5-0.1,0.9-0.4,1.4-0.7c0.7-0.5,1.4-1,1.8-1.8c0.5-1.1,0.1-2.5-0.8-3.4C-38,420.8-38.4,420.8-39.2,420.6"/>
	<g>
		<path class="st19" d="M-40.1,422.8c0,0.4,0,0.8-0.3,1.1c-0.2,0.3-0.6,0.5-1,0.4c0.2,0.2,0.6,0.3,0.9,0.1c0.3-0.1,0.5-0.4,0.6-0.7
			c0.1-0.3,0.1-0.6,0.1-0.9"/>
		<path class="st19" d="M-39.7,422.7c0,0.4,0,0.8,0.3,1.1c0.2,0.3,0.6,0.5,1,0.4c-0.2,0.2-0.6,0.3-0.9,0.1c-0.3-0.1-0.5-0.4-0.6-0.7
			c-0.1-0.3-0.1-0.6-0.1-0.9"/>
		<path class="st20" d="M-38.8,421.9c0-0.3-0.6-0.6-1.3-0.5c-0.7,0-1.2,0.3-1.2,0.7c0,0.2,0.2,0.3,0.5,0.4c0.1,0.3,0.4,0.5,0.9,0.5
			s0.8-0.3,0.8-0.6C-38.9,422.2-38.8,422.1-38.8,421.9z"/>
	</g>
	<path class="st21" d="M-45.7,418.3c-0.1-0.1-0.2-0.1-0.4-0.1c-0.3,0-0.7,0.2-0.8,0.5c-0.2,0.3-0.2,0.7,0,1c0.3,0.4,1,0.5,1.4,0.1
		c0.1-0.1,0.2-0.3,0.2-0.4C-45.3,418.9-45.4,418.5-45.7,418.3z"/>
	<path class="st21" d="M-37.9,416.4c-0.1-0.1-0.2-0.1-0.4-0.1c-0.3,0-0.7,0.2-0.8,0.5c-0.2,0.3-0.2,0.7,0,1c0.3,0.4,1,0.5,1.4,0.1
		c0.1-0.1,0.2-0.3,0.2-0.4C-37.5,417.1-37.6,416.6-37.9,416.4z"/>
</g>
<path class="st22" d="M251.1,288.3c-0.5-2.1-1.3-4.2-2.8-5.7c-0.3-0.3-0.6-0.6-0.9-0.8c1-1.4,1.1-3.4,0.5-5
	c-0.1-0.2-0.4-0.3-0.6-0.1c-1.1,1-2.4,1.8-3.8,2.4c0-0.2,0-0.3-0.1-0.5c0,0,0.5-1.6-0.6-2.1c-0.5-0.2-1-0.1-1.3,0.1
	c-0.1-0.8-0.5-1.9-1.5-3.2c-1-1.2-2.2-2.8-3.3-4c0.1-0.1,0.1-0.2,0.2-0.3c0-0.1,0.1-0.1,0.1-0.2c0.1-0.1,0.1-0.3,0.1-0.4
	s0-0.1,0.1-0.2c0-0.2,0.1-0.5,0.1-0.7c0-1.8-1.5-3.3-3.3-3.3c-0.2,0-0.4,0-0.6,0.1c-0.1,0-0.1,0-0.2,0s-0.3,0.1-0.4,0.1
	c-0.1,0-0.1,0.1-0.2,0.1c-0.1,0.1-0.2,0.1-0.3,0.2c-0.1,0-0.1,0.1-0.2,0.1c0,0-0.1,0-0.1,0.1l0,0c-0.8,0.6-1.3,1.6-1.3,2.6
	c0,0.7,0.2,1.3,0.5,1.8c-1.1,1.3-2.3,2.9-3.4,4.1c-1.2,1.4-1.5,2.6-1.6,3.4c-0.3,0-0.5,0-0.8,0.1c-1.1,0.5-0.8,2.1-0.8,2.2l0,0
	c-1.6-0.5-2.9-1.6-4.3-2.6c-0.1,0-0.1-0.1-0.2-0.1c-0.1,0-0.2,0-0.3,0.1c-0.2,0.1-0.3,0.4-0.4,0.6c-1,1.8-1.1,4-0.4,6
	c-1.9,2.6-2.9,6-3.5,9.3c-0.8,4.3-1.3,8.7-1.4,13.2c0,0.4,0,0.8,0,1.2c0,7.5,1.1,14.9,3.7,21.8c0.4,1,0.7,1.9,1.2,2.8
	c0.3,0.7,0.7,1.5,1.5,1.7c0.1,0,0.2,0,0.3,0c-0.2,1.3-0.2,2.7,0.3,3.9c0,0.1,0.1,0.2,0.2,0.3c0.1,0.1,0.3,0.2,0.5,0.2
	c0.5,0,0.9-0.4,1.1-0.8c0.2-0.4,0.2-0.9,0.3-1.4c0.1-0.9,0.1-1.8-0.1-2.6c0.2,0,0.3-0.1,0.5-0.1c0,0.2,0,0.4,0.1,0.7
	c0.1,1,0.2,2,0.6,3c0.2,0.6,0.7,1.2,1.3,1.1c0.5,0,0.9-0.6,1.1-1.1c0.4-1.3-0.1-2.7-0.5-3.9c0-0.1-0.1-0.2-0.1-0.2
	c0.2,0,0.4-0.1,0.5-0.1c0,0.6,0.1,1.2,0.3,1.8c0.2,0.8,0.5,1.6,1.1,2.1c0.3,0.3,0.9,0.5,1.3,0.3c0.4-0.3,0.5-0.8,0.5-1.3
	c0-1.1-0.1-2.2-0.4-3.2c3.2-0.4,6.5-0.5,9.7-0.3c-0.1,0.9-0.2,1.8-0.1,2.7c0,0.4,0.1,0.8,0.2,1.2c0.2,0.4,0.5,0.7,0.9,0.7
	c0.5,0.1,0.9-0.2,1.2-0.6s0.3-0.9,0.4-1.3c0.1-0.8,0.2-1.6,0.3-2.4c0.1,0,0.1,0,0.2,0c-0.1,1.1-0.3,2.2-0.2,3.3
	c0,0.4,0.1,0.8,0.3,1.1s0.5,0.6,0.9,0.6c0.5,0,0.9-0.5,1.1-1c0.5-1.1,0.6-2.4,0.6-3.7c0.1,0,0.3,0,0.4,0.1c-0.3,1-0.3,2.1-0.4,3.1
	c0,0.4,0,0.8,0.1,1.1c0.1,0.4,0.3,0.7,0.7,0.8c0.4,0.2,0.9,0,1.2-0.3c0.3-0.3,0.5-0.8,0.6-1.2c0.3-1,0.5-2,0.5-3.1
	c0.3,0.1,0.6,0.1,0.9,0.2c0.6-1.2,1-2.4,1.5-3.6c2.4-6.7,2.8-14.2,3-21.4c0-0.7,0-1.4,0-2.1c0-0.2,0-0.5,0-0.7
	C252.7,299.1,252.4,293.6,251.1,288.3z M227.8,277.3c0,0,0,0-0.1-0.1L227.8,277.3L227.8,277.3z"/>
<g>
	<path class="st23" d="M-41.3,409.2c-1.5-1.2-3.6-3.3-4.6-3.1l0,0l0,0l0,0l0,0c-1,0.2-2.2,2.9-3.2,4.6c-1,1.7-0.5,2.9-0.5,2.9
		l4.8-1.6l5-0.3C-39.8,411.6-39.7,410.4-41.3,409.2z"/>
	<g>
		<circle class="st24" cx="-45.8" cy="406.2" r="2.2"/>
		<path class="st25" d="M-43.7,405.8c-0.2-1.2-1.4-1.9-2.5-1.7c-0.5,0.1-0.9,0.3-1.2,0.7c3.6-0.6,3.3,2.7,3.3,2.7
			C-43.8,407-43.6,406.4-43.7,405.8z"/>
	</g>
	<g>
		<path class="st24" d="M-50.4,414.6c0,0-0.8,0.3-0.2,0.9c0.6,0.6,1.4-0.1,1.4-0.4c0,0,0.8,0.4,1.5-0.3c0,0,1.9-0.2,2-1
			c0,0,1.5,0.7,2.6-0.5c0,0,1.1,0.7,2.4,0c0,0,1.1,0.6,1.7-0.3c0,0,1.3-0.1,0.7-1.1c0,0,0.1-1.1-0.7-1.2c-0.8-0.1-1.3,0.7-1.3,0.7
			s-0.7-0.9-1.5-0.7c-0.8,0.1-1.2,0.8-1.2,0.8s-1-0.9-1.8-0.6c-0.9,0.3-1.3,1.1-1.3,1.1s-0.7-0.7-1.6-0.4c-0.9,0.3-0.7,1.5-0.7,1.5
			s-1-0.5-1.7-0.1C-50.8,413.6-50.4,414.6-50.4,414.6z"/>
		<path class="st25" d="M-39.1,413.1c0,0,1.3-0.1,0.7-1.1c0,0,0.1-1.1-0.7-1.2c-0.8-0.1-1.3,0.7-1.3,0.7s-0.6-0.7-1.3-0.7l0,0
			c1.4,1.8-0.3,3-0.3,3c0.4,0,0.8-0.1,1.2-0.3C-40.8,413.4-39.7,414-39.1,413.1z"/>
	</g>
</g>
<g>
	<g>
		<g>
			<g>
				<path class="st26" d="M246.3,279.3c-0.4-0.2-0.8-0.4-1.2-0.3c1.9-0.6,3.7-1.6,5.2-2.9c0.2-0.2,0.5-0.1,0.6,0.1
					c0.6,1.7,0.5,3.7-0.6,5.1C249,280.6,247.6,280,246.3,279.3z"/>
				<path class="st27" d="M248,278.7c0,0.1,0,0.2,0.1,0.2c0.6,0.4,1.4,0.7,2.1,0.7h0.1c0,0,0-0.1,0.1-0.1c0.3-0.8,0.3-1.7,0-2.5
					C249.6,277.6,248.9,278.1,248,278.7C248.1,278.7,248,278.7,248,278.7z"/>
			</g>
			<g>
				<path class="st26" d="M222.2,276.4c0.1-0.2,0.2-0.4,0.4-0.6c0.1-0.1,0.2-0.1,0.3-0.1s0.1,0.1,0.2,0.1c1.4,1,2.8,2.2,4.5,2.7
					c-1.1,0.4-2.2,0.9-3.2,1.5c-1,0.6-1.9,1.5-2.4,2.6C221.1,280.6,221.2,278.3,222.2,276.4z"/>
				<path class="st27" d="M224.3,278.7c0.1-0.2-0.1-0.4-0.2-0.5c-0.4-0.4-0.9-0.8-1.3-1.2c-0.5,0.7-0.5,1.6-0.5,2.5
					c0,0.1,0,0.3,0.1,0.4c0.1,0.1,0.2,0.2,0.3,0.2s0.1-0.1,0.2-0.1C223.2,279.4,223.7,279,224.3,278.7z"/>
			</g>
		</g>
		<g>
			<g>
				<path class="st28" d="M232.7,308.8c6.1,0.5,12.5,0.7,18.2-1.8c1.7-0.7,3.3-1.7,4.8-2.9c0-5.5-0.2-11-1.6-16.4
					c-0.5-2.1-1.3-4.2-2.8-5.7c-1.2-1.3-2.7-2.1-4.3-2.7c-1.4-0.5-2.8-0.9-4.3-1.1c-2.1,1.6-4,3.5-5.7,5.5c-0.1,0.1-0.2,0.2-0.3,0.3
					c-0.3,0.1-0.6-0.2-0.8-0.5c-1.7-2.3-3.9-4.2-6.5-5.6c-1.7,0.3-3.3,0.8-4.7,1.7c-3.9,2.5-5.4,7.4-6.3,11.9
					c-0.8,4.3-1.3,8.7-1.4,13.2c1.3,0.8,2.8,1.5,4.2,2C224.8,308.1,228.8,308.5,232.7,308.8z"/>
				<path class="st29" d="M235.8,283.6c0.2,0.3,0.5,0.6,0.8,0.5c0.1,0,0.2-0.2,0.3-0.3c1.7-2.1,3.6-3.9,5.7-5.5
					c-3.4-0.6-6.9-0.5-10.3-0.5c-1,0-1.9,0.1-2.9,0.2C231.9,279.3,234.2,281.2,235.8,283.6z"/>
				<path class="st29" d="M250.8,307.1c-5.6,2.4-12,2.3-18.2,1.8c-3.9-0.3-7.8-0.8-11.5-2.1c-1.5-0.5-2.9-1.2-4.2-2
					c0,0.4,0,0.8,0,1.2c1.3,0.8,2.3,2,3.2,3.3c1.9,2.8,3.1,6.2,3.2,9.6c0.1,3.2-0.8,6.4-2.6,8.9c0.4,1,0.7,1.9,1.2,2.8
					c0.3,0.7,0.7,1.5,1.5,1.7c0.5,0.2,1,0,1.5-0.1c8.6-2.1,17.7-2.2,26.4-0.3c0.6-1.2,1-2.4,1.5-3.6c-1.5-1.2-2.6-3-3.2-4.8
					c-0.7-2.1-0.8-4.3-0.7-6.5c0-0.9,0.1-1.8,0.3-2.7c0.7-3.8,3.4-7.4,6.6-9.5c0-0.2,0-0.5,0-0.7
					C254.2,305.3,252.6,306.3,250.8,307.1z"/>
			</g>
			<g>
				<path class="st26" d="M220.1,309.4c-0.9-1.3-1.9-2.5-3.2-3.3c0,7.5,1.1,14.9,3.7,21.8c1.8-2.6,2.7-5.8,2.6-8.9
					C223.2,315.5,222,312.2,220.1,309.4z"/>
				<path class="st26" d="M249,314.4c-0.2,0.9-0.2,1.8-0.3,2.7c-0.1,2.2,0,4.4,0.7,6.5c0.6,1.9,1.7,3.6,3.2,4.8
					c2.4-6.7,2.8-14.2,3-21.4c0-0.7,0-1.4,0-2.1C252.4,307,249.7,310.7,249,314.4z"/>
			</g>
		</g>
	</g>
	<g>
		<path class="st30" d="M234.7,293.4c0.3-1.2,0.4-2.5,0.1-3.7c-0.3-1.1-0.9-2.2-1.5-3.2c-0.4-0.6-0.9-1.2-1.5-1.6
			c-0.5-0.3-1-0.4-1.6-0.5c-1.8-0.4-3.8-0.3-5.4,0.6c-1.8,1-2.9,2.9-3.4,4.8c-0.2,0.9-0.3,1.8-0.2,2.8c0.3,3.2,3.2,5.9,6.4,6
			C230.7,298.8,233.8,296.5,234.7,293.4z"/>
		<path class="st30" d="M250.2,289.1c-0.7-2.6-3.4-4.6-6.1-4.5c-2.7,0.1-5.3,2-6.2,4.6c-0.4,1.1-0.5,2.2-0.4,3.4
			c0.3,2.4,1.9,4.6,4.2,5.3c0.9,0.3,1.9,0.4,2.9,0.4c0.8,0,1.5,0.1,2.2-0.1c1.3-0.3,2.4-1.4,2.9-2.7c0.6-1.3,0.7-2.7,0.7-4
			C250.4,290.7,250.4,289.8,250.2,289.1z"/>
	</g>
	<path class="st21" d="M244.4,291.5c-0.1-0.1-0.2-0.1-0.4-0.1c-0.3,0-0.6,0.2-0.8,0.4c-0.2,0.3-0.2,0.6,0,0.9
		c0.3,0.4,0.9,0.5,1.3,0.1c0.1-0.1,0.2-0.2,0.2-0.4C244.7,292.1,244.6,291.7,244.4,291.5z"/>
	<path class="st21" d="M228,291.5c-0.1-0.1-0.2-0.1-0.4-0.1c-0.3,0-0.6,0.2-0.8,0.4c-0.2,0.3-0.2,0.6,0,0.9c0.3,0.4,0.9,0.5,1.3,0.1
		c0.1-0.1,0.2-0.2,0.2-0.4C228.4,292.1,228.3,291.7,228,291.5z"/>
	<path class="st21" d="M236.2,304.4c-0.2,0.1-0.3,0.3-0.6,0.3c-0.2,0-0.4-0.2-0.6-0.4c-0.9-1-1.6-2.3-1.9-3.7c0-0.2-0.1-0.5,0-0.7
		c0.1-0.2,0.2-0.5,0.4-0.5c0.1,0,0.3,0,0.4,0c1.5,0.3,3.1,0.4,4.6,0.3C238.4,301.5,237.5,303.2,236.2,304.4z"/>
	<g>
		<path class="st29" d="M251.2,302.4c0.4-0.2,0.7-0.5,0.9-0.9c0.2-0.5,0.2-1.1,0.1-1.6c-0.1-0.3-0.2-0.7-0.4-0.9
			c-0.2-0.2-0.6-0.3-0.9-0.3c-0.5,0-1,0-1.5,0.2c-0.5,0.2-0.9,0.6-1.1,1c-0.3,0.8-0.1,1.7,0.6,2.2
			C249.5,302.7,250.5,302.8,251.2,302.4z"/>
		<path class="st29" d="M221,299.5c-0.3,0.5-0.5,1.1-0.3,1.7c0.1,0.6,0.5,1.1,1.1,1.4c0.3,0.1,0.6,0.2,0.9,0.3c0.3,0.1,0.7,0.1,1,0
			c0.4-0.1,0.7-0.4,0.9-0.7c0.1-0.2,0.2-0.3,0.3-0.5c0.1-0.3,0.1-0.6,0.1-0.9c0-0.4,0-0.8-0.2-1.1c-0.1-0.2-0.3-0.4-0.5-0.5
			c-0.6-0.3-1.3-0.4-2-0.2C221.5,299,221.4,298.9,221,299.5z"/>
	</g>
	<g>
		<g>
			<g>
				<path class="st26" d="M228.9,313c-0.1,0-0.1,0-0.2,0c-0.2-0.1-0.2-0.2-0.3-0.3c-0.3-0.5-0.6-1.1-0.8-1.6c0-0.1,0-0.2,0.1-0.3
					c0.1,0,0.2,0,0.3,0.1c0.2,0.5,0.5,1.1,0.8,1.5l0.1,0.1c0,0,0.1,0,0.2-0.1c0.4-0.3,0.8-0.7,1.1-1.2c0.1-0.1,0.2-0.1,0.3-0.1
					c0.1,0.1,0.1,0.2,0.1,0.3c-0.3,0.5-0.7,0.9-1.2,1.3C229.3,312.8,229.1,313,228.9,313z"/>
				<path class="st26" d="M232,314.7L232,314.7c-0.5-0.1-0.7-0.6-0.8-0.8l-0.2-0.7c0-0.1,0-0.2,0.1-0.3c0.1,0,0.2,0,0.3,0.1l0.3,0.8
					c0.1,0.2,0.2,0.5,0.3,0.5s0.3-0.1,0.4-0.2c0.4-0.3,0.7-0.6,0.9-1c0.1-0.1,0.2-0.1,0.3-0.1c0.1,0.1,0.1,0.2,0.1,0.3
					c-0.3,0.4-0.6,0.8-1,1.1C232.4,314.6,232.2,314.7,232,314.7z"/>
				<path class="st26" d="M234.9,313.5C234.9,313.5,234.8,313.5,234.9,313.5c-0.2,0-0.3-0.1-0.3-0.2c-0.4-0.5-0.8-1.1-1-1.8
					c0-0.1,0-0.2,0.1-0.3c0.1,0,0.2,0,0.3,0.1c0.2,0.6,0.5,1.1,0.9,1.6l0,0l0,0c0.4-0.4,0.7-0.9,0.9-1.4c0-0.1,0.2-0.2,0.3-0.1
					c0.1,0,0.2,0.2,0.1,0.3c-0.2,0.6-0.6,1.1-1,1.5C235.2,313.3,235,313.5,234.9,313.5z"/>
				<path class="st26" d="M234.6,317.2c-0.1,0-0.3,0-0.4-0.1c-0.6-0.4-0.7-1.2-0.7-1.7c0-0.1,0.1-0.2,0.2-0.2l0,0
					c0.1,0,0.2,0.1,0.2,0.2c0,0.3,0,1,0.5,1.4c0.1,0.1,0.2,0.1,0.2,0.1c0.1,0,0.2-0.2,0.4-0.3l0.7-1.1c0.1-0.1,0.2-0.1,0.3-0.1
					c0.1,0.1,0.1,0.2,0.1,0.3l-0.7,1.1C235.2,316.8,235,317.2,234.6,317.2L234.6,317.2z"/>
				<path class="st26" d="M231.4,318.5C231.4,318.5,231.3,318.5,231.4,318.5c-0.2,0-0.4-0.2-0.4-0.2c-0.4-0.5-0.8-1.1-1-1.7
					c0-0.1,0-0.2,0.1-0.3c0.1,0,0.2,0,0.3,0.1c0.2,0.6,0.5,1.1,0.9,1.5c0.1,0.1,0.1,0.1,0.1,0.1s0,0,0.2-0.1
					c0.3-0.4,0.6-0.8,0.8-1.2c0.1-0.1,0.2-0.1,0.3-0.1c0.1,0.1,0.1,0.2,0.1,0.3c-0.2,0.5-0.5,0.9-0.9,1.3
					C231.8,318.3,231.6,318.5,231.4,318.5z"/>
				<path class="st26" d="M234.5,320.6c0,0-0.1,0-0.1-0.1c-0.5-0.4-0.8-1-1-1.6c0-0.1,0-0.2,0.1-0.3c0.1,0,0.2,0,0.3,0.1
					c0.1,0.4,0.4,0.9,0.7,1.2l0.5-0.7c0.1-0.1,0.2-0.1,0.3-0.1c0.1,0.1,0.1,0.2,0.1,0.3l-0.7,1.2
					C234.6,320.6,234.6,320.6,234.5,320.6L234.5,320.6z"/>
				<path class="st26" d="M237.4,319.7c-0.1,0-0.1,0-0.2,0c-0.2-0.1-0.4-0.3-0.5-0.4l-0.7-1.1c-0.1-0.1,0-0.2,0.1-0.3
					c0.1-0.1,0.2,0,0.3,0.1l0.7,1.1c0.1,0.1,0.1,0.2,0.2,0.3c0.1,0,0.3-0.2,0.4-0.3l0.6-0.9c0.1-0.1,0.2-0.1,0.3-0.1
					c0.1,0.1,0.1,0.2,0.1,0.3l-0.6,0.9C237.9,319.5,237.6,319.7,237.4,319.7z"/>
				<path class="st26" d="M236.8,323c-0.2,0-0.4-0.1-0.6-0.3c-0.3-0.3-0.5-0.7-0.6-1.1c0-0.1,0-0.2,0.1-0.3c0.1,0,0.2,0,0.3,0.1
					c0.1,0.3,0.3,0.7,0.5,0.9c0.1,0.1,0.2,0.2,0.3,0.2c0.1,0,0.2-0.2,0.3-0.3l0.6-1c0.1-0.1,0.2-0.1,0.3-0.1
					c0.1,0.1,0.1,0.2,0.1,0.3l-0.6,1C237.4,322.7,237.2,323,236.8,323L236.8,323z"/>
				<path class="st26" d="M238.5,315.4L238.5,315.4c-0.2,0-0.3-0.1-0.3-0.2c-0.3-0.4-0.6-0.8-0.8-1.2c0-0.1,0-0.2,0.1-0.3
					c0.1,0,0.2,0,0.3,0.1c0.2,0.4,0.4,0.8,0.7,1.1l0,0c0,0,0,0,0.1-0.1l0.5-0.7c0.1-0.1,0.2-0.1,0.3-0.1c0.1,0.1,0.1,0.2,0.1,0.3
					L239,315C238.8,315.4,238.7,315.4,238.5,315.4z"/>
				<path class="st26" d="M241.1,314.4L241.1,314.4c-0.8-0.4-1.3-1-1.6-1.6c0-0.1,0-0.2,0.1-0.3c0.1,0,0.2,0,0.3,0.1
					c0.2,0.5,0.6,1,1.1,1.3c0.3-0.4,0.5-0.8,0.6-1.2c0-0.1,0.2-0.2,0.3-0.1c0.1,0,0.2,0.2,0.1,0.3
					C241.8,313.4,241.5,313.9,241.1,314.4C241.3,314.4,241.2,314.4,241.1,314.4z"/>
				<path class="st26" d="M243.8,312.3c-0.1,0-0.2-0.1-0.3-0.1l-1.2-1.3c-0.1-0.1-0.1-0.2,0-0.3s0.2-0.1,0.3,0l1.2,1.3
					c0.3-0.4,0.5-0.9,0.6-1.4c0-0.1,0.1-0.2,0.2-0.2c0.1,0,0.2,0.1,0.2,0.2c-0.1,0.6-0.3,1.2-0.7,1.6
					C244.1,312.1,244,312.2,243.8,312.3C243.9,312.2,243.8,312.3,243.8,312.3z"/>
				<path class="st26" d="M240.9,318.4c-0.1,0-0.2-0.1-0.2-0.1c-0.5-0.4-0.9-1-1.1-1.6c0-0.1,0.1-0.2,0.2-0.2c0.1,0,0.2,0.1,0.2,0.2
					c0.1,0.5,0.4,1,0.8,1.3c0.4-0.5,0.6-1,0.8-1.5c0-0.1,0.2-0.2,0.3-0.1c0.1,0,0.2,0.2,0.1,0.3c-0.2,0.6-0.5,1.2-0.9,1.7
					C241.1,318.3,241.1,318.4,240.9,318.4L240.9,318.4z"/>
				<path class="st26" d="M241.5,322.3c-0.2,0-0.4-0.2-0.6-0.5l-0.3-0.8c0-0.1,0-0.2,0.1-0.3c0.1,0,0.2,0,0.3,0.1l0.3,0.8
					c0.1,0.2,0.2,0.3,0.2,0.3l0,0l0.1-0.1c0.3-0.3,0.6-0.7,0.7-1.1c0-0.1,0.1-0.2,0.3-0.1c0.1,0,0.2,0.1,0.1,0.3
					c-0.1,0.5-0.5,1-0.9,1.3C241.8,322.2,241.7,322.2,241.5,322.3L241.5,322.3z"/>
				<path class="st26" d="M231.7,323.6c-0.2,0-0.4-0.2-0.5-0.3l-1-1.2c-0.1-0.1-0.1-0.2,0-0.3s0.2-0.1,0.3,0l1,1.2
					c0.1,0.2,0.2,0.1,0.2,0.1s0,0,0.1-0.1c0.3-0.4,0.5-0.7,0.6-1.2c0-0.1,0.2-0.2,0.3-0.1c0.1,0,0.2,0.2,0.1,0.3
					c-0.2,0.5-0.4,0.9-0.7,1.3c0,0.1-0.1,0.2-0.3,0.2C231.8,323.6,231.7,323.6,231.7,323.6z"/>
				<path class="st26" d="M234.9,326.4L234.9,326.4c-0.2,0-0.3-0.2-0.4-0.2c-0.3-0.3-0.5-0.7-0.6-1.1c0-0.1,0-0.2,0.2-0.2
					c0.1,0,0.2,0,0.2,0.2c0.1,0.4,0.2,0.7,0.5,0.9c0.1,0.1,0.1,0.1,0.1,0.1l0,0c0,0,0.1,0,0.1-0.2l0.6-1c0.1-0.1,0.2-0.1,0.3-0.1
					c0.1,0.1,0.1,0.2,0.1,0.3l-0.6,1C235.3,326.3,235.1,326.4,234.9,326.4z"/>
				<path class="st26" d="M227.1,315.2c-0.1,0-0.3-0.1-0.5-0.3c-0.4-0.4-0.7-1-1-1.5c-0.1-0.1,0-0.2,0.1-0.3c0.1,0,0.2,0,0.3,0.1
					c0.3,0.5,0.6,1,0.9,1.4c0.1,0.1,0.2,0.1,0.2,0.1l0,0c0,0,0-0.1,0.1-0.1c0.2-0.3,0.4-0.6,0.6-0.9c0.1-0.1,0.2-0.1,0.3-0.1
					c0.1,0.1,0.1,0.2,0.1,0.3c-0.2,0.3-0.4,0.6-0.6,0.9c0,0.1-0.1,0.2-0.2,0.2C227.2,315.2,227.1,315.2,227.1,315.2z"/>
				<path class="st26" d="M229,320.1c-0.1,0-0.1,0-0.2,0c0,0,0,0-0.1,0c-0.4-0.4-0.7-0.9-0.9-1.5c0-0.1,0-0.2,0.1-0.3
					c0.1,0,0.2,0,0.3,0.1c0.2,0.4,0.4,0.8,0.7,1.2l0.2-0.6l-0.1-0.1c0-0.1,0.1-0.2,0.2-0.2h0.1c0.1,0,0.1,0,0.2,0.1
					c0,0.1,0.1,0.1,0,0.2l-0.3,0.8C229.3,319.8,229.2,320,229,320.1L229,320.1z"/>
				<path class="st26" d="M243.8,316.3C243.8,316.3,243.7,316.3,243.8,316.3c-0.2,0-0.3-0.1-0.3-0.2c-0.3-0.3-0.5-0.7-0.6-1
					c0-0.1,0-0.2,0.1-0.3c0.1,0,0.2,0,0.3,0.1c0.1,0.3,0.3,0.6,0.5,0.9l0,0l0,0c0.4-0.3,0.7-0.6,0.9-1c0.1-0.1,0.2-0.1,0.3-0.1
					c0.1,0.1,0.1,0.2,0.1,0.3c-0.3,0.4-0.6,0.8-1,1.1C244,316.3,243.9,316.3,243.8,316.3z"/>
			</g>
			<g>
				<path class="st26" d="M234.6,280.2c-0.1,0-0.1,0-0.2-0.1c-0.3-0.4-0.7-0.7-1.1-1c-0.1-0.1-0.1-0.2-0.1-0.3
					c0.1-0.1,0.2-0.1,0.3-0.1c0.5,0.3,0.9,0.7,1.3,1.1c0.1,0.1,0.1,0.2,0,0.3C234.7,280.2,234.7,280.2,234.6,280.2z"/>
				<path class="st26" d="M236.1,280.3c-0.1,0-0.1,0-0.2-0.1c-0.2-0.4-0.5-0.7-0.8-1c-0.1-0.1-0.1-0.2,0-0.3s0.2-0.1,0.3,0
					c0.4,0.3,0.7,0.7,0.9,1.1c0.1,0.1,0,0.2-0.1,0.3C236.2,280.2,236.1,280.3,236.1,280.3z"/>
				<path class="st26" d="M236,282.6c-0.1,0-0.2-0.1-0.2-0.2c-0.1-0.5-0.3-1-0.6-1.3c-0.1-0.1-0.1-0.2,0-0.3s0.2-0.1,0.3,0
					c0.4,0.4,0.6,1,0.7,1.5C236.2,282.5,236.1,282.6,236,282.6L236,282.6z"/>
				<path class="st26" d="M237.2,280.7c-0.1,0-0.2-0.1-0.2-0.2c-0.1-0.5-0.2-1-0.2-1.6c0-0.1,0.1-0.2,0.2-0.2c0.1,0,0.2,0.1,0.2,0.2
					c0,0.5,0.1,1,0.2,1.5C237.4,280.6,237.4,280.7,237.2,280.7C237.3,280.7,237.2,280.7,237.2,280.7z"/>
				<path class="st26" d="M237.9,281.6C237.9,281.6,237.8,281.6,237.9,281.6c-0.2,0-0.2-0.2-0.2-0.3c0.2-0.6,0.5-1.1,0.9-1.6
					c0.1-0.1,0.2-0.1,0.3,0c0.1,0.1,0.1,0.2,0,0.3c-0.4,0.5-0.6,1-0.8,1.5C238.1,281.6,238,281.6,237.9,281.6z"/>
			</g>
		</g>
		<g>
			<g>
				<path class="st26" d="M219.6,310.8c-0.1,0-0.2-0.1-0.2-0.1c-0.2-0.5-0.4-0.9-0.7-1.3c-0.1-0.1-0.1-0.2,0-0.3
					c0.1-0.1,0.2-0.1,0.3,0c0.4,0.4,0.6,0.9,0.8,1.4C219.8,310.7,219.7,310.8,219.6,310.8L219.6,310.8z"/>
				<path class="st26" d="M219.1,312.6c-0.1,0-0.2-0.1-0.2-0.2c-0.1-0.5-0.4-1-0.7-1.5c-0.1-0.1,0-0.2,0-0.3c0.1-0.1,0.2,0,0.3,0
					c0.3,0.5,0.6,1,0.8,1.6C219.3,312.5,219.2,312.6,219.1,312.6L219.1,312.6z"/>
				<path class="st26" d="M220.7,314.2c-0.1,0-0.2-0.1-0.2-0.2c-0.1-0.6-0.2-1.1-0.5-1.6c0-0.1,0-0.2,0.1-0.3c0.1,0,0.2,0,0.3,0.1
					c0.2,0.5,0.4,1.1,0.5,1.7C220.9,314.1,220.9,314.2,220.7,314.2L220.7,314.2z"/>
				<path class="st26" d="M219.6,316.3c-0.1,0-0.2-0.1-0.2-0.2l-0.1-1.5c0-0.1,0.1-0.2,0.2-0.2c0.1,0,0.2,0.1,0.2,0.2l0.1,1.5
					C219.8,316.1,219.8,316.2,219.6,316.3L219.6,316.3z"/>
				<path class="st26" d="M220.9,317.4L220.9,317.4c-0.1,0-0.2-0.1-0.2-0.2c0-0.4,0-0.8-0.1-1.1c0-0.1,0-0.2,0.1-0.3
					c0.1,0,0.2,0,0.3,0.1c0.1,0.4,0.2,0.8,0.2,1.3C221.1,317.3,221,317.4,220.9,317.4z"/>
				<path class="st26" d="M222.2,317.3c-0.1,0-0.2-0.1-0.2-0.2c0-0.5-0.1-0.9-0.3-1.3c-0.1-0.1,0-0.2,0.1-0.3s0.2,0,0.3,0.1
					c0.2,0.5,0.4,1,0.4,1.5C222.4,317.2,222.3,317.3,222.2,317.3L222.2,317.3z"/>
				<path class="st26" d="M221.8,320.9L221.8,320.9c-0.1,0-0.2-0.1-0.2-0.2c0-0.1,0.1-0.2,0.1-0.2l0,0l-0.1-1.3
					c0-0.1,0.1-0.2,0.2-0.2c0.1,0,0.2,0.1,0.2,0.2l0.1,1.3c0,0.1,0,0.3-0.1,0.4C222,320.9,221.9,320.9,221.8,320.9z"/>
				<path class="st26" d="M220.3,320.4c-0.1,0-0.2-0.1-0.2-0.2v-1.4c0-0.1,0.1-0.2,0.2-0.2c0.1,0,0.2,0.1,0.2,0.2v1.4
					C220.5,320.3,220.4,320.4,220.3,320.4z"/>
				<path class="st26" d="M220.7,323.1C220.7,323.1,220.6,323.1,220.7,323.1c-0.2-0.1-0.2-0.2-0.2-0.3c0.2-0.4,0.3-0.9,0.3-1.4
					c0-0.1,0.1-0.2,0.2-0.2s0.2,0.1,0.2,0.2c0,0.6-0.1,1.1-0.3,1.6C220.8,323.1,220.8,323.1,220.7,323.1z"/>
				<path class="st26" d="M221.1,324.3H221c-0.1-0.1-0.1-0.2,0-0.3c0.3-0.4,0.5-0.9,0.5-1.4c0-0.1,0.1-0.2,0.2-0.2
					c0.1,0,0.2,0.1,0.2,0.2c0,0.6-0.3,1.2-0.6,1.6C221.3,324.3,221.2,324.3,221.1,324.3z"/>
				<path class="st26" d="M219.2,319c-0.1,0-0.1,0-0.2-0.1c-0.3-0.6-0.4-1.2-0.4-1.9c0-0.1,0.1-0.2,0.2-0.2c0.1,0,0.2,0.1,0.2,0.2
					c0,0.6,0.1,1.2,0.4,1.7C219.4,318.8,219.4,318.9,219.2,319L219.2,319z"/>
			</g>
			<g>
				<path class="st26" d="M251.4,313.4L251.4,313.4c-0.2-0.1-0.2-0.2-0.2-0.3c0.1-0.2,0.2-0.4,0.2-0.6c0-0.1,0-0.2,0.1-0.3
					c0.1-0.4,0.3-0.8,0.6-1.1c0.1-0.1,0.2-0.1,0.3,0s0.1,0.2,0,0.3c-0.3,0.3-0.4,0.6-0.5,0.9c0,0.1,0,0.2-0.1,0.3
					c-0.1,0.3-0.1,0.5-0.3,0.7C251.5,313.4,251.5,313.4,251.4,313.4z"/>
				<path class="st26" d="M251,311.6L251,311.6c-0.2-0.1-0.2-0.2-0.2-0.3l1-1.6c0.1-0.1,0.2-0.1,0.3-0.1c0.1,0.1,0.1,0.2,0.1,0.3
					l-1,1.6C251.1,311.6,251,311.6,251,311.6z"/>
				<path class="st26" d="M253.1,310.2C253.1,310.2,253,310.1,253.1,310.2c-0.2-0.1-0.2-0.2-0.2-0.3l0.8-1.7c0-0.1,0.2-0.1,0.3-0.1
					c0.1,0,0.1,0.2,0.1,0.3l-0.8,1.7C253.2,310.1,253.2,310.2,253.1,310.2z"/>
				<path class="st26" d="M253.4,312.6L253.4,312.6c-0.1,0-0.2-0.1-0.2-0.2c0-0.6,0.1-1.1,0.3-1.7c0-0.1,0.2-0.2,0.3-0.1
					c0.1,0,0.2,0.2,0.1,0.3c-0.2,0.5-0.3,1-0.3,1.5C253.6,312.5,253.5,312.6,253.4,312.6z"/>
				<path class="st26" d="M252.4,316.4L252.4,316.4c-0.1,0-0.2-0.1-0.2-0.2l0.1-1.8c0-0.1,0.1-0.2,0.2-0.2c0.1,0,0.2,0.1,0.2,0.2
					l-0.1,1.8C252.6,316.4,252.6,316.4,252.4,316.4z"/>
				<path class="st26" d="M250.2,316.1L250.2,316.1c-0.1,0-0.2-0.1-0.2-0.2c0-0.6,0-1.3,0.1-1.9c0-0.1,0.1-0.2,0.2-0.2
					s0.2,0.1,0.2,0.2c-0.1,0.6-0.1,1.2-0.1,1.9C250.4,316,250.3,316.1,250.2,316.1z"/>
				<path class="st26" d="M251.4,317.7c-0.1,0-0.2-0.1-0.2-0.2c-0.1-0.5-0.2-1.1-0.1-1.7c0-0.1,0.1-0.2,0.2-0.2s0.2,0.1,0.2,0.2
					c0,0.5,0,1,0.1,1.5C251.6,317.5,251.6,317.6,251.4,317.7L251.4,317.7z"/>
				<path class="st26" d="M250.3,320.1c-0.1,0-0.2,0-0.2-0.1c-0.2-0.6-0.3-1.3-0.2-2c0-0.1,0.1-0.2,0.2-0.2s0.2,0.1,0.2,0.2
					c-0.1,0.6,0,1.2,0.2,1.7C250.6,319.9,250.5,320.1,250.3,320.1C250.4,320.1,250.4,320.1,250.3,320.1z"/>
				<path class="st26" d="M251.5,320.8c-0.1,0-0.2-0.1-0.2-0.2c-0.1-0.5-0.2-1.1-0.2-1.7c0-0.1,0.1-0.2,0.2-0.2l0,0
					c0.1,0,0.2,0.1,0.2,0.2c0,0.5,0.1,1,0.2,1.6C251.7,320.7,251.6,320.8,251.5,320.8L251.5,320.8z"/>
				<path class="st26" d="M252.9,319.2L252.9,319.2c-0.1,0-0.2-0.1-0.2-0.2l0.1-1.6c0-0.1,0.1-0.2,0.2-0.2c0.1,0,0.2,0.1,0.2,0.2
					l-0.1,1.6C253.1,319.1,253,319.2,252.9,319.2z"/>
				<path class="st26" d="M253.8,316.7c-0.1,0-0.2-0.1-0.2-0.1c0-0.1,0-0.2,0.1-0.3h0.1c0.1-0.6,0.2-1.2,0.2-1.8
					c0-0.1,0.1-0.2,0.2-0.2c0.1,0,0.2,0.1,0.2,0.2c0,0.7,0,1.4-0.2,2c0,0.1-0.1,0.1-0.1,0.1L253.8,316.7L253.8,316.7z"/>
				<path class="st26" d="M251.4,324.3c-0.1,0-0.1,0-0.2-0.1c-0.4-0.5-0.6-1.2-0.6-1.8c0-0.1,0.1-0.2,0.2-0.2l0,0
					c0.1,0,0.2,0.1,0.2,0.2c0,0.6,0.2,1.1,0.5,1.6C251.6,324.1,251.5,324.2,251.4,324.3C251.5,324.3,251.5,324.3,251.4,324.3z"/>
				<path class="st26" d="M252.4,324.5c-0.1,0-0.1,0-0.2-0.1c-0.2-0.5-0.4-0.9-0.4-1.4c0-0.1,0.1-0.2,0.2-0.2c0.1,0,0.2,0.1,0.2,0.2
					c0.1,0.5,0.2,0.9,0.4,1.3C252.6,324.3,252.6,324.4,252.4,324.5C252.5,324.5,252.4,324.5,252.4,324.5z"/>
				<path class="st26" d="M253.4,322.1c-0.1,0-0.2-0.1-0.2-0.2v-1.2c0-0.1,0.1-0.2,0.2-0.2l0,0c0.1,0,0.2,0.1,0.2,0.2v1.2
					C253.6,322,253.5,322.1,253.4,322.1L253.4,322.1z"/>
			</g>
		</g>
	</g>
	<g>
		<g>
			<path class="st21" d="M223.9,331c-0.1,0.3-0.2,0.6-0.3,0.9c-0.3,1.5-0.4,3.1,0.2,4.5c0,0.1,0.1,0.2,0.2,0.3
				c0.1,0.1,0.3,0.2,0.5,0.2c0.5,0,0.9-0.4,1.1-0.8c0.2-0.4,0.2-0.9,0.3-1.4c0.1-1.4,0.1-2.9-0.8-4c-0.1-0.2-0.3-0.3-0.5-0.3
				C224.3,330.4,224,330.7,223.9,331z"/>
			<path class="st21" d="M226.8,335.6c0.2,0.6,0.7,1.2,1.3,1.1c0.5,0,0.9-0.6,1.1-1.1c0.4-1.3-0.1-2.7-0.5-3.9
				c-0.2-0.6-0.5-1.3-1.1-1.7c-0.3-0.2-0.7-0.3-1.1-0.1c-0.2,0.2-0.3,0.5-0.4,0.8c-0.1,0.6,0,1.3,0,2
				C226.3,333.6,226.4,334.7,226.8,335.6z"/>
			<path class="st21" d="M231.8,335.6c0.4-0.3,0.5-0.8,0.5-1.3c0-1.6-0.2-3.3-1-4.7c-0.2-0.4-0.6-0.8-1-0.8c-0.5,0-0.8,0.6-1,1.1
				c-0.2,1.1-0.1,2.2,0.2,3.2c0.2,0.8,0.5,1.6,1.1,2.1C230.9,335.6,231.4,335.8,231.8,335.6z"/>
		</g>
		<g>
			<path class="st21" d="M244.3,329.9c0-0.4-0.1-0.8-0.4-1.1s-0.7-0.3-1.1-0.3c-0.2,0-0.5,0.1-0.7,0.3c-0.2,0.1-0.2,0.3-0.3,0.5
				c-0.5,1.3-0.6,2.7-0.5,4c0,0.4,0.1,0.8,0.2,1.2c0.2,0.4,0.5,0.7,0.9,0.7c0.5,0.1,0.9-0.2,1.2-0.6c0.3-0.4,0.3-0.9,0.4-1.3
				C244.3,332.2,244.4,331.1,244.3,329.9z"/>
			<path class="st21" d="M244.3,334.3c0,0.4,0.1,0.8,0.3,1.1s0.5,0.6,0.9,0.6c0.5,0,0.9-0.5,1.1-1c0.6-1.4,0.7-3,0.6-4.6
				c0-0.4,0-0.9-0.3-1.3c-0.4-0.6-1.5-0.7-1.9-0.1c-0.3,0.3-0.3,0.8-0.4,1.2C244.4,331.5,244.3,332.9,244.3,334.3z"/>
			<path class="st21" d="M248.7,329.3c-0.3,0.1-0.5,0.5-0.7,0.8c-0.6,1.4-0.7,2.9-0.8,4.4c0,0.4,0,0.8,0.1,1.1
				c0.1,0.4,0.3,0.7,0.7,0.8c0.4,0.2,0.9,0,1.2-0.3c0.3-0.3,0.5-0.8,0.6-1.2c0.4-1.2,0.5-2.6,0.4-3.9c0-0.5-0.1-0.9-0.4-1.3
				C249.6,329.3,249.1,329.1,248.7,329.3z"/>
		</g>
	</g>
</g>
<g>
	<path class="st23" d="M242.8,272.7c-1.9-2.3-4.5-6-6.1-6.1l0,0l0,0l0,0l0,0c-1.5,0.1-4.1,3.8-6.1,6.1c-2,2.4-1.5,4.2-1.5,4.2l7.7-1
		l7.7,1C244.4,277,244.8,275.1,242.8,272.7z"/>
	<g>
		<circle class="st24" cx="236.8" cy="266.9" r="3.3"/>
		<path class="st25" d="M240.1,266.9c0-1.8-1.5-3.3-3.3-3.3c-0.8,0-1.5,0.3-2,0.7c5.7,0.1,4.3,5.1,4.3,5.1
			C239.7,268.7,240.1,267.9,240.1,266.9z"/>
	</g>
	<g>
		<path class="st24" d="M227.5,278.4c0,0-1.3,0.2-0.6,1.3s2.1,0.2,2.2-0.2c0,0,1.1,0.8,2.3,0c0,0,2.9,0.2,3.3-0.9
			c0,0,2.1,1.5,4.1,0.1c0,0,1.5,1.3,3.6,0.7c0,0,1.5,1.2,2.6,0c0,0,2.1,0.2,1.4-1.5c0,0,0.5-1.6-0.6-2.1c-1.1-0.4-2.2,0.6-2.2,0.6
			s-0.8-1.5-2-1.5c-1.2,0-2,0.9-2,0.9s-1.2-1.7-2.6-1.4c-1.4,0.2-2.3,1.3-2.3,1.3s-0.9-1.2-2.3-1c-1.4,0.2-1.4,2.1-1.4,2.1
			s-1.4-1.1-2.6-0.6C227.1,276.8,227.5,278.4,227.5,278.4z"/>
		<path class="st25" d="M245,279.4c0,0,2.1,0.2,1.4-1.5c0,0,0.5-1.6-0.6-2.1c-1.1-0.4-2.2,0.6-2.2,0.6s-0.7-1.3-1.7-1.5l0,0
			c1.6,3.1-1.3,4.4-1.3,4.5c0.5,0.1,1.2,0.1,1.9-0.1C242.4,279.4,243.9,280.6,245,279.4z"/>
	</g>
</g>
<circle class="st31" cx="-57" cy="281.6" r="1.2"/>
<circle class="st16" cx="-57" cy="280.8" r="31.5"/>
<g id="XMLID_1_">
	<path id="XMLID_9_" class="st23" d="M-31,280.6c0,14.3-11.7,26-26,26s-26-11.7-26-26s11.7-26,26-26S-31,266.2-31,280.6z"/>
	<g id="XMLID_2_">
		<path id="XMLID_23_" class="st16" d="M-63.5,276.9c-2.1,0.2-2.7,2.8-2.8,4.6l0,0l0,0c0,0.3,0,0.5,0,0.8c0,0.8,0,1.5-0.1,2.3
			c0,0.3-0.1,1-0.2,1c-0.8,0.1-1.4-1.1-1.6-1.6c-0.5-1.3-0.9-2.7-1.2-4.1c-0.2-1.5-0.4-3.1-0.5-4.6c0-0.6,0-1.3,0-1.9
			c0-0.2,0-0.5,0-0.8c0-0.2,0-0.4,0-0.4c0.2-1.1-1.4,0-1.7,0.4c-1.7,3-1.2,6.6-1.2,9.9c0,0.9,0,1.8-0.2,2.7
			c-0.1,0.6-0.2,1.7-0.7,2.2c-0.3,0.3-0.9,0-1.2-0.1c-0.4-0.2-0.7-0.7-0.7-1.2c-0.1-0.5-0.6-0.2-0.9,0c-0.4,0.4-0.8,1.1-0.7,1.5
			c0.2,1.2,1.3,2.2,2.5,1.8c1.9-0.6,2.7-2.9,3.2-4.7c0.2-0.9,0.3-1.7,0.4-2.6c0.3,1.3,0.7,2.6,1.3,3.7c0.4,0.9,1.2,1.7,2.3,1.5
			c0.8-0.1,1.4-1,1.8-2c0.4,0.9,1,1.5,1.9,1.4c1.1-0.1,2-1.3,2.4-2.1c0.5-1.1,0.6-2.2,0.6-3.3C-60.8,279.9-61.2,276.6-63.5,276.9z
			 M-62.8,284.4c0,0.2-0.1,0.4-0.2,0.6c-0.4,0-0.7-0.7-0.9-1c-0.3-0.7-0.5-1.5-0.6-2.3c-0.1-0.8,0-1.6,0.1-2.5
			c0-0.2,0.1-0.4,0.2-0.6c1.1,0.7,1.3,2.1,1.4,3.2C-62.6,282.8-62.6,283.6-62.8,284.4z"/>
		<path id="XMLID_20_" class="st16" d="M-37.6,280c-2.3-0.9-3.7,2.3-4,4c-0.4,1.6-0.9,4.5,1.1,5.3c1,0.4,2.1-0.3,2.7-1
			c0.7-0.8,1.2-1.8,1.4-2.9C-35.9,283.8-35.5,280.7-37.6,280z M-39,287.4c-0.1,0.2-0.2,0.4-0.3,0.5c-0.3-0.2-0.5-1-0.5-1.3
			c-0.1-0.8,0-1.6,0.1-2.4c0.1-0.8,0.4-1.6,0.8-2.3c0.1-0.2,0.2-0.3,0.3-0.5c0.9,1,0.6,2.5,0.4,3.7C-38.4,285.9-38.6,286.7-39,287.4
			z"/>
		<path id="XMLID_15_" class="st16" d="M-43.9,280.4c0.4-0.6,0.9-1.2,1.3-1.8c0.9-1.3,1.7-2.8,1.6-4.4c-0.1-1.5-2.1-1.6-3.1-1.1
			c-1.5,0.7-2.4,2.3-2.8,3.9c-0.6,2-0.9,4-1,6.1l0,0c-0.7,0.9-2.3,2.7-3.4,1.9c-0.3-0.2-0.4-0.6-0.6-1c1-1,1.8-2,2.6-3.2
			c0.7-1.1,1.2-2.8-0.1-3.6c-1.1-0.6-2.6,0.1-3.3,1c-0.8,0.9-1.1,2.1-1.2,3.3c0,0.6-0.1,1.7,0,2.7c-0.7,0.4-1.5,0.7-2.3,0.5
			c-0.9-0.2-1.2-1.1-1.4-1.8c-0.2-1.1-0.2-2.2,0-3.3c0-0.3,0.1-0.7,0.2-1c0-0.1,0-0.1,0.1-0.2c0.5,0.2,0.8,1.1,0.9,1.5
			c0.2,0.8,2.2-0.5,2-1.2c-0.2-0.8-0.5-1.5-1.4-1.9c-0.8-0.4-1.9,0.3-2.4,0.8c-1.4,1.4-1.5,3.5-1.4,5.3c0,1.2,0.3,2.7,1.3,3.3
			c1.4,0.9,3.3,0.1,4.7-0.7c0.3,0.9,1,1.5,2.1,1.3c1.4-0.2,2.6-1,3.7-1.9c0,1.1,0.3,2.2,1.1,2.6c1.2,0.7,2.7-0.1,3.6-1.1
			c1.1-1.3,1.6-3.2,1.1-4.9C-42.6,280.7-43.3,280.4-43.9,280.4z M-51.8,279.5c0.1-0.3,0.2-0.6,0.4-0.9l0,0c0.6,0.1,0.7,0.9,0.6,1.3
			c-0.1,0.9-0.7,1.7-1.3,2.5c0-0.1,0-0.3,0-0.4C-52.2,281.2-52,280.3-51.8,279.5z M-44.3,275.2c0.1-0.3,0.3-0.6,0.6-0.9l0,0
			c0.9,1,0,2.4-0.4,3.4c-0.5,0.9-1.1,1.9-1.7,2.7c0.1-0.9,0.3-1.8,0.5-2.6C-45,276.9-44.7,276-44.3,275.2z M-44.7,285.8
			c0,0.1-0.1,0.3-0.2,0.4c0,0-0.1,0-0.2,0c-0.6-0.3-0.6-1.5-0.7-2c0-0.4,0-0.9,0-1.3c0.2-0.3,0.5-0.5,0.7-0.8c0.5-0.3,0.9,0.3,1,0.9
			C-44,283.8-44.4,285-44.7,285.8z"/>
	</g>
</g>
<g>
	<g>
		<line class="st32" x1="-57" y1="280.4" x2="-58.4" y2="271.9"/>
		<g>
			<polygon class="st31" points="-56.4,272.1 -58.9,269 -60.3,272.8 			"/>
		</g>
	</g>
</g>
<g>
	<g>
		<line class="st32" x1="-57.8" y1="280.8" x2="-68.7" y2="273.3"/>
		<g>
			<polygon class="st31" points="-67.1,272 -71.1,271.6 -69.4,275.2 			"/>
		</g>
	</g>
</g>
<circle class="st31" cx="-57" cy="281.4" r="1.7"/>
</svg>
