<?xml version="1.0" encoding="utf-8"?>
<!-- Generator: Adobe Illustrator 19.0.0, SVG Export Plug-In . SVG Version: 6.00 Build 0)  -->
<svg version="1.1" id="Layer_1" xmlns="http://www.w3.org/2000/svg" xmlns:xlink="http://www.w3.org/1999/xlink" x="0px" y="0px"
	 viewBox="-486 476 50 50" style="enable-background:new -486 476 50 50;" xml:space="preserve">
<style type="text/css">
	.st0{fill:none;}
	.st1{fill:#F6693E;}
	.st2{fill:#F65D37;}
</style>
<circle class="st0" cx="-461" cy="501" r="25"/>
<circle class="st1" cx="-461" cy="501" r="25"/>
<path class="st0" d="M-455.4,525.4l0.2,0.3l0.3-0.4C-455,525.3-455.2,525.4-455.4,525.4z"/>
<g>
	<path class="st2" d="M-473.5,479.3c-4.1,2.4-7.5,5.9-9.7,10.1l1.6,2l8.7-11.4L-473.5,479.3z"/>
	<path class="st2" d="M-464.1,491.5l8.8-11.4l-3.1-4c-0.9-0.1-1.8-0.1-2.6-0.1c-3.8,0-7.3,0.8-10.5,2.3l-1.4,1.8L-464.1,491.5z"/>
	<path class="st2" d="M-446.6,491.5l4.9-6.4c-3-3.6-6.9-6.4-11.5-7.9l-2.2,2.8L-446.6,491.5z"/>
	<path class="st2" d="M-472.9,502.9l-8.7-11.4l-4,5.2c-0.2,1.4-0.4,2.8-0.4,4.3c0,3.8,0.9,7.5,2.4,10.7l2,2.6L-472.9,502.9z"/>
	<polygon class="st2" points="-472.9,502.9 -464.1,514.3 -455.3,502.9 -464.1,491.5 	"/>
	<polygon class="st2" points="-455.3,502.9 -446.6,514.3 -437.8,502.9 -446.6,491.5 	"/>
	<path class="st2" d="M-436,500.6l-1.8,2.3l1.5,1.9c0.2-1.3,0.3-2.5,0.3-3.8C-436,500.9-436,500.7-436,500.6z"/>
	<path class="st2" d="M-455.5,525.4l-8.6-11l-7.3,9.3c3.2,1.4,6.7,2.3,10.4,2.3C-459.1,526-457.3,525.8-455.5,525.4z"/>
	<path class="st2" d="M-455,525.3c4.5-1.1,8.5-3.4,11.7-6.6l-3.3-4.2L-455,525.3z"/>
</g>
</svg>
