<?xml version="1.0" encoding="utf-8"?>
<!-- Generator: Adobe Illustrator 19.0.0, SVG Export Plug-In . SVG Version: 6.00 Build 0)  -->
<svg version="1.1" id="Layer_1" xmlns="http://www.w3.org/2000/svg" xmlns:xlink="http://www.w3.org/1999/xlink" x="0px" y="0px"
	 viewBox="120 -173 380 380" style="enable-background:new 120 -173 380 380;" xml:space="preserve">
<rect x="120" y="-173" style="fill:none;" width="380" height="380"/>
<path style="fill:#EFD9CB;" d="M500,207c-0.2-26.2,0-380,0-380H120c0,0,0.1,343.8,0,380H500z"/>
<polygon style="fill:#FFEFE6;" points="306.6,-172.7 297.5,-172.7 297.9,-122.8 297.6,-69.7 298.4,41.6 298.4,173 306.6,173 
	306.6,3.5 306.5,-93.9 "/>
<polygon style="fill:#FFEFE6;" points="270.1,-172.7 261.2,-172.7 261.5,-137.6 261.2,-82.1 261.9,34.2 261.9,171.5 270.2,171.5 
	270.2,-5.7 270,-107.4 "/>
<polygon style="fill:#FFEFE6;" points="251.3,-172.7 242,-172.7 242.6,-103.5 242.4,-54.2 243.1,49.2 243.1,171.2 251.3,171.2 
	251.3,13.7 251.2,-76.7 "/>
<polygon style="fill:#FFEFE6;" points="232.1,-172.7 223.1,-172.7 223.5,-124.3 223.2,-71.6 223.9,38.9 223.9,169.3 232.2,169.3 
	232.2,1 232,-95.7 "/>
<polygon style="fill:#FFEFE6;" points="212.7,-172.7 203.5,-172.7 204,-110.6 203.7,-61.3 204.5,42.1 204.5,164.1 212.7,164.1 
	212.7,6.7 212.6,-83.8 "/>
<polygon style="fill:#FFEFE6;" points="192,-172.7 182.8,-172.7 183.3,-115.4 183,-66.1 183.7,37.2 183.7,159.2 192,159.2 192,1.8 
	191.8,-88.6 "/>
<polygon style="fill:#FFEFE6;" points="172.2,-172.7 162.9,-172.7 163.5,-98.6 163.2,-46.3 164,63.2 164,192.4 172.2,192.4 
	172.2,25.6 172,-70.2 "/>
<polygon style="fill:#FFEFE6;" points="152.1,-172.7 142.7,-172.7 143.4,-97.5 143.1,-47.1 143.9,58.7 143.9,183.5 152.1,183.5 
	152.1,22.4 151.9,-70.1 "/>
<polygon style="fill:#FFEFE6;" points="132.6,-172.7 123.3,-172.7 123.9,-98.5 123.7,-49.2 124.4,54 124.4,176 132.6,176 
	132.6,18.7 132.5,-71.7 "/>
<polygon style="fill:#FFEFE6;" points="288.3,-172.7 279.1,-172.7 279.6,-110.8 279.4,-61.5 280.1,41.8 280.1,163.8 288.4,163.8 
	288.4,6.4 288.2,-84 "/>
<polygon style="fill:#FFEFE6;" points="399.5,-172.7 390.6,-172.7 390.9,-135.7 390.6,-80.5 391.3,35.1 391.3,171.7 399.6,171.7 
	399.6,-4.5 399.4,-105.7 "/>
<polygon style="fill:#FFEFE6;" points="363.1,-172.7 354.3,-172.7 354.4,-149 354.2,-90.9 354.9,31 354.9,174.8 363.2,174.8 
	363.2,-10.8 363,-117.4 "/>
<polygon style="fill:#FFEFE6;" points="344.3,-172.7 335.1,-172.7 335.6,-121 335.3,-71.7 336.1,31.6 336.1,153.7 344.3,153.7 
	344.3,-3.8 344.1,-94.2 "/>
<polygon style="fill:#FFEFE6;" points="325.1,-172.7 316.1,-172.7 316.4,-134.6 316.2,-79.8 316.9,35 316.9,170.5 325.1,170.5 
	325.1,-4.4 325,-104.8 "/>
<polygon style="fill:#FFEFE6;" points="381.3,-172.7 372.2,-172.7 372.6,-128.4 372.3,-79.1 373.1,24.3 373.1,146.3 381.3,146.3 
	381.3,-11.1 381.2,-101.6 "/>
<polygon style="fill:#FFEFE6;" points="473.4,-172.7 464.2,-172.7 464.7,-116.5 464.4,-67.3 465.1,36.1 465.1,158.1 473.4,158.1 
	473.4,0.7 473.2,-89.8 "/>
<polygon style="fill:#FFEFE6;" points="491.9,-172.7 482.6,-172.7 483.2,-102.1 482.9,-53.9 483.7,47.4 483.7,166.9 491.9,166.9 
	491.9,12.7 491.8,-75.9 "/>
<polygon style="fill:#FFEFE6;" points="436.9,-172.7 427.9,-172.7 428.2,-125.6 428,-71.9 428.7,40.7 428.7,173.5 437,173.5 
	437,2.1 436.8,-96.4 "/>
<polygon style="fill:#FFEFE6;" points="418.1,-172.7 408.8,-172.7 409.4,-99.7 409.1,-48.1 409.9,60.2 409.9,188 418.1,188 
	418.1,23.1 418,-71.6 "/>
<polygon style="fill:#FFEFE6;" points="455.1,-172.7 445.8,-172.7 446.4,-99.2 446.2,-49 446.9,56.3 446.9,180.6 455.1,180.6 
	455.1,20.2 455,-71.9 "/>
<rect x="120" y="124.4" style="fill:#FCF2ED;" width="379.8" height="18.4"/>
<rect x="120" y="124.4" style="fill:#FFFFFF;" width="379.9" height="2.2"/>
<path style="opacity:0.41;fill:#998370;enable-background:new    ;" d="M211,55.8c0.2-0.6,0.4-1.3,0.4-2c0-0.9-1.2-1.6-2-1.1
	c0.3-0.8,0.6-1.6,0.8-2.5c0.2-1.2-1.2-2.5-2.3-1.6c-0.1,0.1-0.2,0.1-0.3,0.2c0.5-1.3,0.6-2.8,0.2-4.2c-0.1-0.5-0.8-0.8-1.2-0.5
	c-1.1,0.9-2,1.9-2.9,2.9c0.6-1.5,1.5-3.1,1.3-4.6c-0.1-0.7-0.8-1.4-1.5-1.1c-1.7,0.7-2.8,2.5-3.7,4.1c0-0.1,0-0.2,0-0.2
	c0.2-1.2-1.4-2.3-2.3-1.2c-0.9,1.1-1.6,2.3-2.1,3.5c-0.1-0.3-0.2-0.6-0.3-0.8c-0.1-0.3-0.3-0.5-0.6-0.7c0,0,0-0.1,0.1-0.1
	c0.4-1.1-0.5-2.9-1.9-2.3c-0.4,0.2-0.8,0.4-1.2,0.5c0.9-1.1,1.6-2.3,2-3.7c0.4-1.4-1-2.3-2.2-2.1c-1.2,0.3-2.4,0.9-3.4,1.6
	c0.1-0.4,0.2-0.8,0.2-1.2c0.1-1.3-1.3-2.3-2.3-1.2c-0.8,0.9-1.6,1.8-2.5,2.9c-0.1-0.1-0.3-0.1-0.4-0.2c-0.3-6.9-3-9.9-3-9.9
	c1.9-6.3-1.1-8.7-1.1-8.7l0.2-2.2l0.7,0.1c0,0,0.3-2.5,0.4-3.4c0.1-0.9-1.1-0.9-1.1-0.9l-4.3-0.5h-0.4l-4.3-0.5c0,0-1.2-0.2-1.3,0.7
	c-0.1,0.8-0.4,3.4-0.4,3.4l0.7,0.1l-0.2,2.2c0,0-3.3,1.7-2.9,8.2c0,0-4.8,3.5-5.9,14.1c-0.2,1.8-0.4,3.8-0.6,5.9
	c0,0.1-0.1,0.1-0.1,0.2c-1.9-7.5-5.5-10-5.5-10c0.3-6.6-3.1-8.2-3.1-8.2l-0.3-2.2l0.7-0.1c0,0-0.3-2.5-0.4-3.4s-1.3-0.6-1.3-0.6
	l-4.3,0.6l-0.4,0.1l-4.3,0.6c0,0-1.2,0.1-1.1,1c0.1,0.8,0.4,3.4,0.4,3.4l0.7-0.1l0.3,2.2c0,0-2.8,2.4-0.9,8.7c0,0-3.8,4.5-2.4,15
	h-0.3v90.3h75.5V55.8L211,55.8L211,55.8z"/>
<rect x="120" y="142.7" style="fill:#99887A;" width="379.9" height="64.3"/>
<rect x="120.2" y="157.8" style="fill:#7C6757;" width="379.7" height="1.7"/>
<rect x="120.2" y="174.8" style="fill:#7C6757;" width="379.7" height="1.7"/>
<rect x="120.2" y="191.8" style="fill:#7C6757;" width="379.8" height="1.7"/>
<path style="opacity:0.82;fill:#D6CBC5;enable-background:new    ;" d="M483.8-135.2l-28.6-24.6c-1.1-0.9-2.5-1.3-3.8-1.2l0,0
	c-1.1,0-2.1,0.3-3,1l-31.7,24c-2.3,1.7-2.7,5-1,7.3c1.6,2.1,4.6,2.6,6.9,1.2l2.7,4.1c0.2-0.1,2.1-1.6,4.9-3.6v0.1l0,0l0.1,1.6
	l2.1,45.6l7.7,0.3v9.5c-1.1,1-2,4.2-2,7.9c0,4.6,1.2,8.3,2.8,8.3c1.5,0,2.8-3.7,2.8-8.3c0-3.7-0.8-6.9-2-7.9v-9.4l11.2,0.4v25.3
	c-3,0.5-5.2,3-5.2,6.1c0,3.4,2.8,6.2,6.2,6.2c3.4,0,6.2-2.8,6.2-6.2c0-3.2-2.4-5.9-5.6-6.2v-25.2l12.3,0.4l2.2-43.6l0,0l0.2-3.9
	l2.9,2.7l4.1-4.6l0.7,0.6c2.2,1.9,5.4,1.6,7.3-0.5C486.2-130,485.9-133.3,483.8-135.2z"/>
<g style="opacity:0.41;">
	<polygon style="fill:#998370;" points="197.8,-132.8 197.8,-86.4 155.2,-86.4 152.3,-89.8 155.2,-132.8 194.9,-136.2 	"/>
	<polygon style="fill:#998370;" points="197.8,-22.6 155.2,-22.6 152.3,-26 155.2,-69 194.9,-72.4 197.8,-69 	"/>
</g>
<rect x="151.2" y="-136.2" style="fill:#99887A;" width="42.7" height="46.4"/>
<rect x="157.2" y="-129.8" style="fill:#F7EAE2;" width="30.5" height="33.5"/>
<rect x="161" y="-125.4" style="fill:#FFFFFF;" width="23.1" height="24.7"/>
<g>
	<path style="fill:#EA3131;" d="M180.3-113.4h-1.9l1.4-0.8c0.1-0.1,0.2-0.2,0.1-0.4c-0.1-0.1-0.2-0.2-0.4-0.1l-2.1,1.2
		c0,0,0,0-0.1,0h-0.6l1.4-0.8c0.1-0.1,0.2-0.2,0.1-0.4c-0.1-0.1-0.2-0.2-0.4-0.1l-1.6,1c-0.1-0.6-0.3-1.1-0.7-1.6l1.9-0.5
		c0.1,0,0.2-0.2,0.2-0.3s-0.2-0.2-0.3-0.2l-1.6,0.4l0.5-0.5c0,0,0,0,0.1,0l2.3-0.6c0.1,0,0.2-0.2,0.2-0.3s-0.2-0.2-0.3-0.2l-1.6,0.4
		l1.3-1.3c0.1-0.1,0.1-0.4,0-0.5c-0.1-0.1-0.4-0.1-0.5,0l-1.3,1.3l0.4-1.6c0-0.1-0.1-0.3-0.2-0.3s-0.3,0.1-0.3,0.2l-0.6,2.3
		c0,0,0,0,0,0.1l-0.5,0.5l0.4-1.6c0-0.1-0.1-0.3-0.2-0.3c-0.1,0-0.3,0.1-0.3,0.2l-0.5,1.9c-0.5-0.4-1.1-0.6-1.7-0.7l1.1-1.8
		c0.1-0.1,0-0.3-0.1-0.4s-0.3,0-0.4,0.1l-0.8,1.4v-0.6c0,0,0,0,0-0.1l1.2-2.1c0.1-0.1,0-0.3-0.1-0.4c-0.1-0.1-0.3,0-0.4,0.1
		l-0.8,1.4v-1.6c0-0.2-0.2-0.4-0.4-0.4c-0.2,0-0.4,0.2-0.4,0.4v1.6l-0.8-1.4c-0.1-0.1-0.2-0.2-0.4-0.1c-0.1,0.1-0.2,0.2-0.1,0.4
		l1.2,2.1c0,0,0,0,0,0.1v0.6l-0.8-1.4c-0.1-0.1-0.2-0.2-0.4-0.1c-0.1,0.1-0.2,0.2-0.1,0.4l1.1,1.8c-0.6,0.1-1.2,0.3-1.7,0.7
		l-0.5-1.9c0-0.1-0.2-0.2-0.3-0.2c-0.1,0-0.2,0.2-0.2,0.3l0.4,1.6l-0.5-0.5c0,0,0,0,0-0.1l-0.6-2.3c0-0.1-0.2-0.2-0.3-0.2
		c-0.1,0-0.2,0.2-0.2,0.3l0.4,1.6l-1.1-1.1c-0.1-0.1-0.4-0.1-0.5,0c-0.1,0.1-0.1,0.4,0,0.5l1.1,1.1l-1.6-0.4c-0.1,0-0.3,0.1-0.3,0.2
		s0.1,0.3,0.2,0.3l2.3,0.6c0,0,0,0,0.1,0l0.5,0.5l-1.6-0.4c-0.1,0-0.3,0.1-0.3,0.2s0.1,0.3,0.2,0.3l1.9,0.5
		c-0.4,0.5-0.6,1.1-0.7,1.7l-1.8-1.1c-0.1-0.1-0.3,0-0.4,0.1c-0.1,0.1,0,0.3,0.1,0.4l1.4,0.8h-0.6c0,0,0,0-0.1,0l-2.1-1.2
		c-0.1-0.1-0.3,0-0.4,0.1s0,0.3,0.1,0.4l1.4,0.8h-1.6c-0.2,0-0.4,0.2-0.4,0.4c0,0.2,0.2,0.4,0.4,0.4h1.6l-1.4,0.8
		c-0.1,0.1-0.2,0.2-0.1,0.4c0.1,0.1,0.2,0.2,0.4,0.1l2.1-1.2c0,0,0,0,0.1,0h0.6l-1.4,0.8c-0.1,0.1-0.2,0.2-0.1,0.4
		c0.1,0.1,0.2,0.2,0.4,0.1l1.8-1.1c0.1,0.6,0.3,1.2,0.7,1.7l-1.9,0.5c-0.1,0-0.2,0.2-0.2,0.3s0.2,0.2,0.3,0.2l1.6-0.4l-0.5,0.5
		c0,0,0,0-0.1,0l-2.3,0.6c-0.1,0-0.2,0.2-0.2,0.3s0.2,0.2,0.3,0.2l1.6-0.4l-1.1,1.1c-0.1,0.1-0.1,0.4,0,0.5l0,0
		c0.1,0.1,0.4,0.1,0.5,0l1.1-1.1l-0.4,1.6c0,0.1,0.1,0.3,0.2,0.3c0.1,0,0.3-0.1,0.3-0.2l0.6-2.3c0,0,0,0,0-0.1l0.5-0.5l-0.4,1.6
		c0,0.1,0.1,0.3,0.2,0.3c0.1,0,0.3-0.1,0.3-0.2l0.5-1.9c0.5,0.3,1,0.6,1.6,0.7l-1,1.6c-0.1,0.1,0,0.3,0.1,0.4c0.1,0.1,0.3,0,0.4-0.1
		l0.8-1.4v0.6c0,0,0,0,0,0.1l-1.2,2.1c-0.1,0.1,0,0.3,0.1,0.4c0.1,0.1,0.3,0,0.4-0.1l0.8-1.4v1.8c0,0.2,0.2,0.4,0.4,0.4
		c0.2,0,0.4-0.2,0.4-0.4v-1.8l0.8,1.4c0.1,0.1,0.2,0.2,0.4,0.1c0.1-0.1,0.2-0.2,0.1-0.4l-1.2-2.1c0,0,0,0,0-0.1v-0.6l0.8,1.4
		c0.1,0.1,0.2,0.2,0.4,0.1c0.1-0.1,0.2-0.2,0.1-0.4l-1-1.6c0.6-0.1,1.1-0.3,1.6-0.7l0.5,1.9c0,0.1,0.2,0.2,0.3,0.2
		c0.1,0,0.2-0.2,0.2-0.3l-0.4-1.6l0.5,0.5c0,0,0,0,0,0.1l0.6,2.3c0,0.1,0.2,0.2,0.3,0.2c0.1,0,0.2-0.2,0.2-0.3l-0.4-1.6l1.3,1.3
		c0.1,0.1,0.4,0.1,0.5,0s0.1-0.4,0-0.5l-1.3-1.3l1.6,0.4c0.1,0,0.3-0.1,0.3-0.2s-0.1-0.3-0.2-0.3l-2.3-0.6c0,0,0,0-0.1,0l-0.5-0.5
		l1.6,0.4c0.1,0,0.3-0.1,0.3-0.2s-0.1-0.3-0.2-0.3l-1.9-0.5c0.3-0.5,0.6-1,0.7-1.6l1.6,1c0.1,0.1,0.3,0,0.4-0.1
		c0.1-0.1,0-0.3-0.1-0.4l-1.4-0.8h0.6c0,0,0,0,0.1,0l2.1,1.2c0.1,0.1,0.3,0,0.4-0.1c0.1-0.1,0-0.3-0.1-0.4l-1.4-0.8h1.8
		c0.2,0,0.4-0.2,0.4-0.4C180.6-113.2,180.5-113.4,180.3-113.4z M172.9-109.7L172.9-109.7v-2c0.1,0,0.2-0.1,0.3-0.1l1.4,1.4
		C174.1-110,173.5-109.8,172.9-109.7z M170.4-110.4l1.4-1.4c0.1,0.1,0.2,0.1,0.3,0.1v2l0,0C171.5-109.8,170.9-110,170.4-110.4z
		 M175.8-113.4h-2c0-0.1-0.1-0.2-0.1-0.3l1.4-1.4C175.5-114.6,175.7-114,175.8-113.4L175.8-113.4z M173.2-114.2
		c-0.1-0.1-0.2-0.1-0.3-0.1v-2c0.6,0.1,1.2,0.3,1.7,0.7L173.2-114.2z M172.1-116.3v2c-0.1,0-0.2,0.1-0.3,0.1l-1.4-1.4
		C170.9-116,171.5-116.2,172.1-116.3z M169.9-115.1l1.4,1.4c-0.1,0.1-0.1,0.2-0.1,0.3h-2C169.3-114,169.5-114.6,169.9-115.1z
		 M171.2-112.6c0,0.1,0.1,0.2,0.1,0.3l-1.4,1.4c-0.4-0.5-0.6-1.1-0.7-1.7L171.2-112.6L171.2-112.6z M175.1-110.9l-1.4-1.4
		c0.1-0.1,0.1-0.2,0.1-0.3h2l0,0C175.7-112,175.5-111.4,175.1-110.9z"/>
</g>
<rect x="151.2" y="-72.4" style="fill:#99887A;" width="42.7" height="46.4"/>
<rect x="157.2" y="-65.9" style="fill:#F7EAE2;" width="30.5" height="33.5"/>
<rect x="161" y="-61.5" style="fill:#FFFFFF;" width="23.1" height="24.7"/>
<g>
	<path style="fill:#0D5C74;" d="M180.3-49.5h-1.9l1.4-0.8c0.1-0.1,0.2-0.2,0.1-0.4c-0.1-0.1-0.2-0.2-0.4-0.1l-2.1,1.2c0,0,0,0-0.1,0
		h-0.6l1.4-0.8c0.1-0.1,0.2-0.2,0.1-0.4c-0.1-0.1-0.2-0.2-0.4-0.1l-1.6,1c-0.1-0.6-0.3-1.1-0.7-1.6l1.9-0.5c0.1,0,0.2-0.2,0.2-0.3
		s-0.2-0.2-0.3-0.2l-1.6,0.4l0.5-0.5c0,0,0,0,0.1,0l2.3-0.6c0.1,0,0.2-0.2,0.2-0.3c0-0.1-0.2-0.2-0.3-0.2l-1.6,0.4l1.3-1.3
		c0.1-0.1,0.1-0.4,0-0.5c-0.1-0.1-0.4-0.1-0.5,0l-1.3,1.3l0.4-1.6c0-0.1-0.1-0.3-0.2-0.3s-0.3,0.1-0.3,0.2l-0.6,2.3c0,0,0,0,0,0.1
		l-0.5,0.5l0.4-1.6c0-0.1-0.1-0.3-0.2-0.3c-0.1,0-0.3,0.1-0.3,0.2l-0.5,1.9c-0.5-0.4-1.1-0.6-1.7-0.7l1.1-1.8c0.1-0.1,0-0.3-0.1-0.4
		s-0.3,0-0.4,0.1l-0.8,1.4v-0.6c0,0,0,0,0-0.1l1.2-2.1c0.1-0.1,0-0.3-0.1-0.4c-0.1-0.1-0.3,0-0.4,0.1l-0.8,1.4v-1.4
		c0-0.2-0.2-0.4-0.4-0.4c-0.2,0-0.4,0.2-0.4,0.4v1.6l-0.8-1.4c-0.1-0.1-0.2-0.2-0.4-0.1c-0.1,0.1-0.2,0.2-0.1,0.4l1.2,2.1
		c0,0,0,0,0,0.1v0.6l-0.8-1.4c-0.1-0.1-0.2-0.2-0.4-0.1c-0.1,0.1-0.2,0.2-0.1,0.4l1.1,1.8c-0.6,0.1-1.2,0.3-1.7,0.7l-0.5-1.9
		c0-0.1-0.2-0.2-0.3-0.2c-0.1,0-0.2,0.2-0.2,0.3l0.4,1.6l-0.5-0.5c0,0,0,0,0-0.1l-0.6-2.3c0-0.1-0.2-0.2-0.3-0.2
		c-0.1,0-0.2,0.2-0.2,0.3l0.4,1.6l-1.1-1.1c-0.1-0.1-0.4-0.1-0.5,0c-0.1,0.1-0.1,0.4,0,0.5l1.1,1.1l-1.6-0.4c-0.1,0-0.3,0.1-0.3,0.2
		s0.1,0.3,0.2,0.3l2.3,0.6c0,0,0,0,0.1,0l0.5,0.5l-1.6-0.4c-0.1,0-0.3,0.1-0.3,0.2s0.1,0.3,0.2,0.3l1.9,0.5
		c-0.4,0.5-0.6,1.1-0.7,1.7l-1.8-1.1c-0.1-0.1-0.3,0-0.4,0.1c-0.1,0.1,0,0.3,0.1,0.4l1.4,0.8h-0.6c0,0,0,0-0.1,0l-2.1-1.2
		c-0.1-0.1-0.3,0-0.4,0.1s0,0.3,0.1,0.4l1.4,0.8h-1.6c-0.2,0-0.4,0.2-0.4,0.4s0.2,0.4,0.4,0.4h1.6l-1.4,0.8
		c-0.1,0.1-0.2,0.2-0.1,0.4c0.1,0.1,0.2,0.2,0.4,0.1l2.1-1.2c0,0,0,0,0.1,0h0.6l-1.4,0.8c-0.1,0.1-0.2,0.2-0.1,0.4
		c0.1,0.1,0.2,0.2,0.4,0.1l1.8-1.1c0.1,0.6,0.3,1.2,0.7,1.7L167-46c-0.1,0-0.2,0.2-0.2,0.3c0,0.1,0.2,0.2,0.3,0.2l1.6-0.4l-0.5,0.5
		c0,0,0,0-0.1,0l-2.3,0.6c-0.1,0-0.2,0.2-0.2,0.3s0.2,0.2,0.3,0.2l1.6-0.4l-1.1,1.1c-0.1,0.1-0.1,0.4,0,0.5l0,0
		c0.1,0.1,0.4,0.1,0.5,0l1.1-1.1l-0.4,1.6c0,0.1,0.1,0.3,0.2,0.3c0.1,0,0.3-0.1,0.3-0.2l0.6-2.3c0,0,0,0,0-0.1l0.5-0.5l-0.4,1.6
		c0,0.1,0.1,0.3,0.2,0.3c0.1,0,0.3-0.1,0.3-0.2l0.5-1.9c0.5,0.3,1,0.6,1.6,0.7l-1,1.6c-0.1,0.1,0,0.3,0.1,0.4c0.1,0.1,0.3,0,0.4-0.1
		l0.8-1.4v0.6c0,0,0,0,0,0.1l-1.2,2.1c-0.1,0.1,0,0.3,0.1,0.4c0.1,0.1,0.3,0,0.4-0.1l0.8-1.4v1.8c0,0.2,0.2,0.4,0.4,0.4
		c0.2,0,0.4-0.2,0.4-0.4v-1.8l0.8,1.4c0.1,0.1,0.2,0.2,0.4,0.1c0.1-0.1,0.2-0.2,0.1-0.4l-1.2-2.1c0,0,0,0,0-0.1v-1.1l0.8,1.4
		c0.1,0.1,0.2,0.2,0.4,0.1c0.1-0.1,0.2-0.2,0.1-0.4l-1-1.6c0.6-0.1,1.1-0.3,1.6-0.7l0.5,1.9c0,0.1,0.2,0.2,0.3,0.2
		c0.1,0,0.2-0.2,0.2-0.3l-0.4-1.6l0.5,0.5c0,0,0,0,0,0.1l0.6,2.3c0,0.1,0.2,0.2,0.3,0.2c0.1,0,0.2-0.2,0.2-0.3l-0.4-1.6l1.3,1.3
		c0.1,0.1,0.4,0.1,0.5,0s0.1-0.4,0-0.5l-1.3-1.3l1.6,0.4c0.1,0,0.3-0.1,0.3-0.2s-0.1-0.3-0.2-0.3l-2.2-0.6c0,0,0,0-0.1,0l-0.5-0.5
		l1.6,0.4c0.1,0,0.3-0.1,0.3-0.2s-0.1-0.3-0.2-0.3l-1.9-0.5c0.3-0.5,0.6-1,0.7-1.6l1.6,1c0.1,0.1,0.3,0,0.4-0.1s0-0.3-0.1-0.4
		l-1.4-0.8h0.6c0,0,0,0,0.1,0l2.1,1.2c0.1,0.1,0.3,0,0.4-0.1c0.1-0.1,0-0.3-0.1-0.4l-1.4-0.8h1.8c0.2,0,0.4-0.2,0.4-0.4
		C180.6-49.4,180.5-49.5,180.3-49.5z M172.9-45.9L172.9-45.9v-2c0.1,0,0.2-0.1,0.3-0.1l1.4,1.4C174.1-46.2,173.5-46,172.9-45.9z
		 M170.4-46.6l1.4-1.4c0.1,0.1,0.2,0.1,0.3,0.1v2l0,0C171.5-46,170.9-46.2,170.4-46.6z M175.8-49.5h-2c0-0.1-0.1-0.2-0.1-0.3
		l1.4-1.4C175.5-50.8,175.7-50.2,175.8-49.5L175.8-49.5z M173.2-50.4c-0.1-0.1-0.2-0.1-0.3-0.1v-2c0.6,0.1,1.2,0.3,1.7,0.7
		L173.2-50.4z M172.1-52.5v2c-0.1,0-0.2,0.1-0.3,0.1l-1.4-1.4C170.9-52.1,171.5-52.4,172.1-52.5z M169.9-51.2l1.4,1.4
		c-0.1,0.1-0.1,0.2-0.1,0.3h-2C169.3-50.2,169.5-50.8,169.9-51.2z M171.2-48.8c0,0.1,0.1,0.2,0.1,0.3l-1.4,1.4
		c-0.4-0.5-0.6-1.1-0.7-1.7L171.2-48.8L171.2-48.8z M175.1-47.1l-1.4-1.4c0.1-0.1,0.1-0.2,0.1-0.3h2l0,0
		C175.7-48.2,175.5-47.6,175.1-47.1z"/>
</g>
<g>
	<g>
		<rect x="436.3" y="-99.3" style="fill:#7C6757;" width="1.6" height="31.3"/>
		<g>
			<g>
				<polygon style="fill:#99887A;" points="463.1,-79.6 428.7,-80.8 426.2,-134.4 446.8,-145.4 465.8,-133.4 				"/>
				<path style="fill:#99887A;" d="M421.6-124.5c0.8-0.5,26-19.1,26-19.1l20.9,19.1l4.3-4.8l-25.2-21.4l-28.8,21.9L421.6-124.5z"/>
				<polygon style="fill:#7C6757;" points="426.4,-128 426.7,-124.1 448.1,-140.5 465.3,-123.2 465.5,-127.2 447.6,-143.6 				"/>
			</g>
			<g>
				<circle style="fill:#F7EAE2;" cx="445.8" cy="-117.8" r="13"/>
				<g>
					<g>
						<circle style="fill:#7C6757;" cx="445.7" cy="-128.7" r="0.8"/>
						<circle style="fill:#7C6757;" cx="445.7" cy="-106.6" r="0.8"/>
					</g>
					<g>
						<circle style="fill:#7C6757;" cx="440.2" cy="-127.2" r="0.8"/>
						<circle style="fill:#7C6757;" cx="451.2" cy="-108.1" r="0.8"/>
					</g>
					<g>
						<circle style="fill:#7C6757;" cx="436.1" cy="-123.1" r="0.8"/>
						<circle style="fill:#7C6757;" cx="455.2" cy="-112.1" r="0.8"/>
					</g>
					<g>
						<circle style="fill:#7C6757;" cx="434.7" cy="-117.6" r="0.8"/>
						<circle style="fill:#7C6757;" cx="456.7" cy="-117.6" r="0.8"/>
					</g>
					<g>
						<circle style="fill:#7C6757;" cx="436.1" cy="-112.1" r="0.8"/>
						<circle style="fill:#7C6757;" cx="455.2" cy="-123.1" r="0.8"/>
					</g>
					<g>
						<circle style="fill:#7C6757;" cx="440.2" cy="-108.1" r="0.8"/>
						<circle style="fill:#7C6757;" cx="451.2" cy="-127.2" r="0.8"/>
					</g>
				</g>
				<g>
					<circle style="fill:#7C6757;" cx="445.7" cy="-117.9" r="1.3"/>
					<rect x="445.4" y="-126.7" style="fill:#7C6757;" width="0.6" height="8"/>
					<rect x="440.2" y="-118.2" style="fill:#7C6757;" width="5.2" height="0.9"/>
				</g>
			</g>
			<g>
				<path style="fill:#7C6757;" d="M453.6-84.4c0-0.3,0-0.6,0.1-0.9c1.3-11.9-3.1-15.7-7.8-15.9c-4.7-0.2-10.4,4.7-9.2,15.1
					c0,0.3,0,0.6,0,0.9L453.6-84.4z"/>
				<rect x="445" y="-101.3" style="fill:#99887A;" width="1" height="17.9"/>
			</g>
		</g>
		<rect x="449.1" y="-80.3" style="fill:#7C6757;" width="1.6" height="31.3"/>
		<circle style="fill:#99887A;" cx="450.1" cy="-48.6" r="6.2"/>
		<ellipse style="fill:#99887A;" cx="437.2" cy="-63.1" rx="2.8" ry="8.3"/>
	</g>
</g>
<path style="fill:#0D5C74;" d="M451-152.9l-31.7,24c-2.3,1.7-5.5,1.3-7.3-1l0,0c-1.7-2.3-1.3-5.5,1-7.3l31.7-24
	c2.3-1.7,5.5-1.3,7.3,1l0,0C453.7-157.8,453.2-154.6,451-152.9z"/>
<path style="fill:#0A4E5E;" d="M480.1-136.3l-28.6-24.6c-1.1-0.9-2.5-1.3-3.8-1.2v11.6l25.6,22.1c2.2,1.9,5.4,1.6,7.3-0.5
	C482.5-131.2,482.2-134.5,480.1-136.3z"/>
<g>
	<path id="XMLID_52_" style="fill:#F4F4F4;" d="M159.5,87.4c0,0-2.6-19.2-4-29.7s-6.3-13.9-6.3-13.9c0.3-6.6-3.1-8.2-3.1-8.2
		l-0.3-2.4l-9.9,1.3l0.3,2.4l0,0c0,0-2.8,2.4-0.9,8.7c0,0-3.8,4.5-2.4,15.1s4,29.7,4,29.7s0.4,6.4,5.1,5.8c1.3-0.2,2.4-0.3,3.2-0.4
		c2.4-0.3,3.5-0.5,3.5-0.5l0.7-0.1l3.5-0.5c0.9-0.1,2-0.3,3.2-0.4C160.7,93.8,159.5,87.4,159.5,87.4z"/>
	<path id="XMLID_51_" style="fill:#D6D6D6;" d="M144.8,29.4l-4.3,0.6l-0.4,0.1l-4.3,0.6c0,0-1.2,0.1-1.1,1c0.1,0.8,0.4,3.4,0.4,3.4
		l5.5-0.7l0.4-0.1l5.5-0.7c0,0-0.3-2.5-0.4-3.4C146,29.3,144.8,29.4,144.8,29.4z"/>
	<path id="XMLID_50_" style="fill:#EAEAEA;" d="M159.5,87.4c0,0-2.6-19.2-4-29.7s-6.3-13.9-6.3-13.9c0.3-6.6-3.1-8.2-3.1-8.2
		l-0.3-2.4l-5,0.7l8.2,61.4h0.3l3.5-0.5c0.9-0.1,2-0.3,3.2-0.4C160.7,93.8,159.5,87.4,159.5,87.4z"/>
	<path id="XMLID_49_" style="fill:#FFFFFF;" d="M136.2,56.8c-0.1,0-0.1,0-0.2,0c-0.7,0-1.3-0.5-1.3-1.2c0-4.3,1.7-7.3,1.7-7.4
		c0.3-0.5,1.1-0.8,1.8-0.4c0.5,0.3,0.8,1.1,0.4,1.8c0,0-1.4,2.4-1.4,6C137.3,56.2,136.8,56.7,136.2,56.8z"/>
</g>
<path style="fill:#A68A6F;" d="M160,67.1l-4.9-1c0-0.2,1.1-5.6,4.2-11.1c4.2-7.6,10.2-11.6,17.2-11.6s12.9,4,17,11.7
	c2.9,5.5,3.9,10.9,3.9,11.1l-4.9,0.9c0-0.2-3.5-18.6-16-18.6C163.9,48.4,160,66.9,160,67.1z"/>
<g>
	<path id="XMLID_4_" style="fill:#F4F4F4;" d="M175,79.9c0,0,2-19.3,3.2-29.8c1.1-10.5-2.8-15-2.8-15c1.9-6.3-1.1-8.7-1.1-8.7
		l0.3-2.4l-9.9-1.1l-0.3,2.4l0,0c0,0-3.3,1.7-2.9,8.2c0,0-4.8,3.5-5.9,14.1s-3.2,29.9-3.2,29.9s-1.1,6.3,3.6,6.8
		c1.3,0.1,2.4,0.3,3.2,0.3c2.4,0.3,3.5,0.4,3.5,0.4l0.7,0.1l3.5,0.4c0.9,0.1,2,0.2,3.2,0.3C174.7,86.4,175,79.9,175,79.9z"/>
	<path id="XMLID_3_" style="fill:#D6D6D6;" d="M174.4,20l-4.3-0.5h-0.4l-4.3-0.5c0,0-1.2-0.2-1.3,0.7c-0.1,0.8-0.4,3.4-0.4,3.4
		l5.5,0.6h0.4l5.5,0.6c0,0,0.3-2.5,0.4-3.4C175.6,20,174.4,20,174.4,20z"/>
	<path id="XMLID_2_" style="fill:#EAEAEA;" d="M175,79.9c0,0,2-19.3,3.2-29.8c1.1-10.5-2.8-15-2.8-15c1.9-6.3-1.1-8.7-1.1-8.7
		l0.3-2.4l-5-0.5l-6.5,61.6h0.3l3.5,0.4c0.9,0.1,2,0.2,3.2,0.3C174.7,86.4,175,79.9,175,79.9z"/>
	<path id="XMLID_1_" style="fill:#FFFFFF;" d="M159.6,44.7c-0.1,0-0.1,0-0.2,0c-0.7-0.2-1.1-0.8-0.9-1.5c1-4.2,3.3-6.7,3.4-6.8
		c0.5-0.5,1.3-0.5,1.8,0s0.5,1.3,0,1.8c0,0-1.9,2-2.8,5.5C160.9,44.3,160.2,44.7,159.6,44.7z"/>
</g>
<g id="XMLID_203_">
	<path id="XMLID_197_" style="fill:#629B21;" d="M204.9,57.6c0.3-0.8,0.6-1.6,0.8-2.5c0.2-1.2-1.2-2.5-2.3-1.6
		c-0.1,0.1-0.2,0.1-0.3,0.2c0.5-1.3,0.6-2.8,0.2-4.2c-0.1-0.5-0.8-0.8-1.2-0.5c-1.1,0.9-2,1.9-2.9,2.9c0.6-1.5,1.5-3.1,1.3-4.6
		c-0.1-0.7-0.8-1.4-1.5-1.1c-1.7,0.7-2.8,2.5-3.7,4.1c0-0.1,0-0.2,0-0.2c0.2-1.2-1.4-2.3-2.3-1.2c-0.9,1.1-1.6,2.3-2.1,3.5
		c-0.1-0.3-0.2-0.6-0.3-0.8c-0.4-0.9-1.8-1.3-2.3-0.2c-0.7,1.7-1.2,3.6-1.4,5.5c-0.1-0.1-0.1-0.2-0.2-0.3c-0.5-0.7-1.4-0.8-2-0.2
		c-1.6,1.5-0.9,4.5-0.2,6.3c0.6,1.5,1.5,3.1,2.7,4.3c-0.2,0.2-0.5,0.4-0.7,0.6c-1.2,1-0.4,3.2,1.1,3.4c1.5,0.3,3.1,0.1,4.7-0.3
		c0.1,0.1,0.3,0.2,0.4,0.2c1.2,0.6,2.8,0,3.1-1.5v-0.1c1.2-0.5,2.3-1.2,3.4-1.7c3.2-1.7,7.5-4.8,7.6-8.9
		C206.9,57.8,205.7,57.1,204.9,57.6z"/>
	<path id="XMLID_196_" style="fill:#A4BE24;" d="M190.1,50.7c0.4-1.1-0.5-2.9-1.9-2.3c-0.4,0.2-0.8,0.4-1.2,0.5
		c0.9-1.1,1.6-2.3,2-3.7c0.4-1.4-1-2.3-2.2-2.1c-1.2,0.3-2.4,0.9-3.4,1.6c0.1-0.4,0.2-0.8,0.2-1.2c0.1-1.3-1.3-2.3-2.3-1.2
		c-1,1.1-2.1,2.3-3.1,3.7c-0.3-1-1-1.6-2.2-1.4c-2.1,0.5-2.9,3.1-3.3,5c0,0,0,0-0.1,0c-1.7-1-3.6,0.8-3.1,2.6
		c0.4,1.7,0.9,3.5,2.1,4.8h-0.1c-2.1,0-2.9,2.3-2.1,3.9c2.8,5.6,13.8,4.9,17.8,1c0.9-0.9,0.3-2.2-0.8-2.5c-0.2,0-0.3-0.1-0.5-0.1
		c1.2-0.8,2.4-1.6,3.2-2.6c0.6-0.7,0.3-1.9-0.6-2c-0.5-0.1-0.9-0.1-1.4-0.1C188.4,53.5,189.5,52.2,190.1,50.7z"/>
	<circle id="XMLID_195_" style="fill:#D63A26;" cx="174" cy="59.6" r="4.5"/>
	<circle id="XMLID_194_" style="fill:#D63A26;" cx="193.8" cy="61.2" r="4.5"/>
	<path id="XMLID_193_" style="fill:#629B21;" d="M172.5,57.5c-0.2-1.2-1.5-1.8-2.7-1.7c0.1-0.8,0-1.6-0.2-2.5
		c-0.4-1.3-2.2-1.8-3.2-0.7c0,0,0,0.1-0.1,0.1c-0.5-1.3-1.3-2.6-2.1-3.4s-2.5-0.6-2.9,0.5c-0.3,0.8-0.5,1.6-0.6,2.5
		c-0.3-0.2-0.6-0.3-1-0.5c-0.5-0.2-1.1-0.1-1.6,0c-0.7,0.2-1.2,0.7-1.5,1.2c-0.3,0.4-0.4,1-0.3,1.5c0,0.6,0.2,1.1,0.5,1.5
		c0.2,0.2,0.3,0.4,0.5,0.6c-1.7,0.6-2.2,3.4-0.3,4.1c0.6,0.3,1.2,0.5,1.8,0.6c-0.8,0.7-0.7,1.8,0,2.6c0.8,1,2.3,1.2,3.5,1.5
		s2.1,0.5,3.2,0.2c-0.6,1.4-1.1,3-0.1,4.3c0.8,1,1.9,1.3,3,0.7c1.8-0.9,2.5-4.4,3.2-6.1C172.6,62.3,173,60,172.5,57.5z"/>
	<path id="XMLID_192_" style="fill:#FFFFFF;" d="M199.7,63.9c-2.6,3.2-7.1,4.1-10.6,2.3c0.4,0.5,0.8,0.9,1.3,1.3
		c3.7,3,9.2,2.4,12.2-1.3c3-3.7,2.4-9.2-1.3-12.2c-0.5-0.4-1-0.7-1.6-1C202.2,56.1,202.3,60.6,199.7,63.9z"/>
	<path id="XMLID_191_" style="fill:#FFFFFF;" d="M186.2,63.4c-2.8-2.8-3.2-7.2-1.1-10.4c-0.5,0.3-1,0.7-1.4,1.1
		c-3.3,3.3-3.3,8.6,0,11.8c3.3,3.3,8.6,3.3,11.8,0c0.4-0.4,0.8-0.9,1.1-1.4C193.4,66.6,189.1,66.2,186.2,63.4z"/>
	<path id="XMLID_190_" style="fill:#FFFFFF;" d="M167.8,63.8c-4-0.5-6.9-3.8-7.2-7.6c-0.2,0.6-0.4,1.1-0.4,1.8
		c-0.6,4.6,2.6,8.8,7.1,9.4c4.6,0.6,8.8-2.6,9.4-7.1c0.1-0.6,0.1-1.2,0-1.8C175.5,62.1,171.8,64.4,167.8,63.8z"/>
</g>
<path style="fill:#C19F80;" d="M154.8,67.1l-4.9-1c0-0.2,1.1-5.6,4.2-11.1c4.2-7.6,10.2-11.6,17.2-11.6s12.9,4,17,11.7
	c2.9,5.5,3.9,10.9,3.9,11.1l-4.9,0.9c0-0.2-3.5-18.6-16-18.6C158.6,48.4,154.8,66.9,154.8,67.1z"/>
<rect x="132.6" y="60.7" style="fill:#C19F80;" width="75.5" height="90.5"/>
<g id="XMLID_7_">
	<path id="XMLID_13_" style="fill:#A1866C;" d="M194.1,105.2c0,12-9.7,21.7-21.7,21.7s-21.6-9.7-21.6-21.7s9.7-21.7,21.7-21.7
		S194.1,93.2,194.1,105.2z"/>
	<g id="XMLID_8_">
		<path id="XMLID_12_" style="fill:#A1866C;" d="M167.1,102.1c-1.8,0.2-2.3,2.3-2.3,3.8l0,0l0,0c0,0.2,0,0.4,0,0.6
			c0,0.7,0,1.2-0.1,1.9c0,0.3-0.1,0.8-0.2,0.8c-0.6,0.1-1.2-0.9-1.3-1.4c-0.4-1.1-0.8-2.2-1-3.4c-0.2-1.2-0.4-2.6-0.4-3.9
			c0-0.5,0-1,0-1.6c0-0.2,0-0.4,0-0.6s0-0.4,0-0.4c0.2-0.9-1.2,0-1.4,0.4c-1.4,2.5-1,5.5-1,8.2c0,0.7,0,1.5-0.2,2.2
			c-0.1,0.5-0.2,1.4-0.6,1.8c-0.3,0.3-0.8,0-1-0.1c-0.4-0.2-0.6-0.6-0.6-1c-0.1-0.4-0.5-0.2-0.8,0c-0.3,0.3-0.6,0.9-0.6,1.3
			c0.2,1,1,1.8,2,1.5c1.6-0.5,2.3-2.4,2.7-3.9c0.2-0.7,0.3-1.4,0.3-2.2c0.2,1.1,0.6,2.1,1,3.1c0.4,0.7,1,1.4,1.9,1.3
			c0.7-0.1,1.2-0.8,1.5-1.7c0.3,0.7,0.8,1.2,1.6,1.2c0.9-0.1,1.6-1,2-1.8c0.4-0.9,0.5-1.8,0.5-2.7
			C169.3,104.6,168.9,101.9,167.1,102.1z M167.7,108.3c0,0.2-0.1,0.4-0.2,0.5c-0.4,0-0.6-0.6-0.7-0.8c-0.3-0.6-0.4-1.2-0.5-1.9
			c-0.1-0.7,0-1.4,0.1-2c0-0.2,0.1-0.4,0.2-0.5c0.9,0.6,1.1,1.7,1.2,2.7C167.8,107,167.8,107.6,167.7,108.3z"/>
		<path id="XMLID_11_" style="fill:#A1866C;" d="M188.6,104.6c-1.9-0.7-3,1.9-3.4,3.3c-0.3,1.4-0.7,3.8,0.9,4.5
			c0.8,0.4,1.8-0.3,2.2-0.8c0.6-0.6,1-1.5,1.2-2.4C190,107.8,190.4,105.3,188.6,104.6z M187.4,110.9c-0.1,0.2-0.2,0.3-0.3,0.4
			c-0.3-0.2-0.4-0.8-0.4-1.1c-0.1-0.7,0-1.4,0.1-2c0.1-0.6,0.3-1.3,0.6-1.9c0.1-0.2,0.2-0.3,0.3-0.4c0.7,0.8,0.5,2,0.4,3
			C187.9,109.6,187.8,110.3,187.4,110.9z"/>
		<path id="XMLID_10_" style="fill:#A1866C;" d="M183.3,105c0.4-0.5,0.7-1,1-1.5c0.7-1.1,1.4-2.4,1.4-3.7c-0.1-1.2-1.8-1.3-2.6-0.9
			c-1.2,0.6-2,1.9-2.3,3.2c-0.5,1.7-0.7,3.4-0.8,5.1l0,0c-0.6,0.7-1.9,2.2-2.8,1.6c-0.2-0.2-0.4-0.5-0.5-0.8
			c0.8-0.8,1.5-1.7,2.1-2.7c0.6-0.9,1-2.4-0.1-3c-0.9-0.5-2.1,0.1-2.8,0.8c-0.6,0.8-0.9,1.8-1,2.7c0,0.5-0.1,1.4,0,2.2
			c-0.6,0.4-1.3,0.6-1.9,0.4c-0.8-0.2-1-0.9-1.2-1.5c-0.2-0.9-0.2-1.8,0-2.7c0-0.3,0.1-0.6,0.2-0.8c0-0.1,0-0.1,0.1-0.2
			c0.4,0.2,0.6,0.9,0.8,1.2c0.2,0.6,1.8-0.4,1.7-1c-0.2-0.6-0.4-1.3-1.2-1.6c-0.7-0.3-1.6,0.2-2,0.6c-1.2,1.2-1.3,2.9-1.2,4.5
			c0,1,0.3,2.2,1.1,2.8c1.2,0.7,2.8,0.1,3.9-0.6c0.3,0.7,0.8,1.2,1.8,1.1c1.2-0.2,2.2-0.8,3-1.6c0,0.9,0.2,1.8,0.9,2.2
			c1,0.6,2.3-0.1,3-0.9c0.9-1.1,1.4-2.7,0.9-4.1C184.5,105.2,183.9,105,183.3,105z M176.8,104.2c0.1-0.2,0.2-0.5,0.3-0.7l0,0
			c0.5,0.1,0.6,0.7,0.5,1.1c-0.1,0.7-0.6,1.4-1.1,2.1c0-0.1,0-0.2,0-0.4C176.5,105.6,176.6,104.9,176.8,104.2z M183.1,100.7
			c0.1-0.2,0.3-0.5,0.5-0.7l0,0c0.8,0.8,0,2-0.4,2.8s-0.9,1.6-1.4,2.3c0.1-0.8,0.2-1.5,0.4-2.2C182.5,102.1,182.7,101.3,183.1,100.7
			z M182.7,109.5c0,0.1-0.1,0.2-0.2,0.3c0,0-0.1,0-0.2,0c-0.5-0.2-0.5-1.3-0.6-1.7c0-0.4,0-0.7,0-1.1c0.2-0.2,0.4-0.4,0.6-0.7
			c0.4-0.3,0.7,0.3,0.8,0.7C183.3,107.8,183,108.9,182.7,109.5z"/>
	</g>
</g>
<g id="XMLID_5_">
	<path id="XMLID_9_" style="fill:#62BA47;" d="M192.4,103.8c0,12-9.7,21.7-21.7,21.7s-21.6-9.7-21.6-21.7s9.7-21.7,21.7-21.7
		C182.8,82.1,192.4,91.9,192.4,103.8z"/>
	<g id="XMLID_6_">
		<path id="XMLID_23_" style="fill:#FFFFFF;" d="M165.4,100.7c-1.8,0.2-2.3,2.3-2.3,3.8l0,0l0,0c0,0.2,0,0.4,0,0.6
			c0,0.7,0,1.2-0.1,1.9c0,0.3-0.1,0.8-0.2,0.8c-0.6,0.1-1.2-0.9-1.3-1.4c-0.4-1.1-0.8-2.2-1-3.4c-0.2-1.2-0.4-2.6-0.4-3.9
			c0-0.5,0-1,0-1.6c0-0.2,0-0.4,0-0.6s0-0.4,0-0.4c0.2-0.9-1.2,0-1.4,0.4c-1.4,2.5-1,5.5-1,8.2c0,0.7,0,1.5-0.2,2.2
			c-0.1,0.5-0.2,1.4-0.6,1.8c-0.3,0.3-0.8,0-1-0.1c-0.4-0.2-0.6-0.6-0.6-1c-0.1-0.4-0.5-0.2-0.8,0c-0.3,0.3-0.6,0.9-0.6,1.3
			c0.2,1,1,1.8,2,1.5c1.6-0.5,2.3-2.4,2.7-3.9c0.2-0.7,0.3-1.4,0.3-2.2c0.2,1.1,0.6,2.1,1,3.1c0.4,0.7,1,1.4,1.9,1.3
			c0.7-0.1,1.2-0.8,1.5-1.7c0.3,0.7,0.8,1.2,1.6,1.2c0.9-0.1,1.6-1,2-1.8c0.4-0.9,0.5-1.8,0.5-2.7
			C167.6,103.3,167.3,100.5,165.4,100.7z M166,107c0,0.2-0.1,0.4-0.2,0.5c-0.4,0-0.6-0.6-0.7-0.8c-0.3-0.6-0.4-1.2-0.5-1.9
			c-0.1-0.7,0-1.4,0.1-2c0-0.2,0.1-0.4,0.2-0.5c0.9,0.6,1.1,1.7,1.2,2.7C166.1,105.6,166.1,106.3,166,107z"/>
		<path id="XMLID_20_" style="fill:#FFFFFF;" d="M186.9,103.3c-1.9-0.7-3,1.9-3.4,3.3c-0.3,1.4-0.7,3.8,0.9,4.5
			c0.8,0.4,1.8-0.3,2.2-0.8c0.6-0.6,1-1.5,1.2-2.4C188.3,106.5,188.7,103.9,186.9,103.3z M185.8,109.5c-0.1,0.2-0.2,0.3-0.3,0.4
			c-0.3-0.2-0.4-0.8-0.4-1.1c-0.1-0.7,0-1.4,0.1-2s0.3-1.3,0.6-1.9c0.1-0.2,0.2-0.3,0.3-0.4c0.7,0.8,0.5,2,0.4,3
			C186.2,108.2,186.1,108.9,185.8,109.5z"/>
		<path id="XMLID_15_" style="fill:#FFFFFF;" d="M181.7,103.6c0.4-0.5,0.7-1,1-1.5c0.7-1.1,1.4-2.4,1.4-3.7
			c-0.1-1.2-1.8-1.3-2.6-0.9c-1.2,0.6-2,1.9-2.3,3.2c-0.5,1.7-0.7,3.4-0.8,5.1l0,0c-0.6,0.7-1.9,2.2-2.8,1.6
			c-0.2-0.2-0.4-0.5-0.5-0.8c0.8-0.8,1.5-1.7,2.1-2.7c0.6-0.9,1-2.4-0.1-3c-0.9-0.5-2.1,0.1-2.8,0.8c-0.6,0.8-0.9,1.8-1,2.7
			c0,0.5-0.1,1.4,0,2.2c-0.6,0.4-1.3,0.6-1.9,0.4c-0.8-0.2-1-0.9-1.2-1.5c-0.2-0.9-0.2-1.8,0-2.7c0-0.3,0.1-0.6,0.2-0.8
			c0-0.1,0-0.1,0.1-0.2c0.4,0.2,0.6,0.9,0.8,1.2c0.2,0.6,1.8-0.4,1.7-1c-0.2-0.6-0.4-1.3-1.2-1.6c-0.7-0.3-1.6,0.2-2,0.6
			c-1.2,1.2-1.3,2.9-1.2,4.5c0,1,0.3,2.2,1.1,2.8c1.2,0.7,2.8,0.1,3.9-0.6c0.3,0.7,0.8,1.2,1.8,1.1c1.2-0.2,2.2-0.8,3-1.6
			c0,0.9,0.2,1.8,0.9,2.2c1,0.6,2.3-0.1,3-0.9c0.9-1.1,1.4-2.7,0.9-4.1C182.8,103.9,182.2,103.7,181.7,103.6z M175.1,102.9
			c0.1-0.2,0.2-0.5,0.3-0.7l0,0c0.5,0.1,0.6,0.7,0.5,1.1c-0.1,0.7-0.6,1.4-1.1,2.1c0-0.1,0-0.2,0-0.4
			C174.8,104.3,174.9,103.6,175.1,102.9z M181.4,99.3c0.1-0.2,0.3-0.5,0.5-0.7l0,0c0.8,0.8,0,2-0.4,2.8s-0.9,1.6-1.4,2.3
			c0.1-0.8,0.2-1.5,0.4-2.2C180.8,100.7,181,100,181.4,99.3z M181,108.2c0,0.1-0.1,0.2-0.2,0.3c0,0-0.1,0-0.2,0
			c-0.5-0.2-0.5-1.3-0.6-1.7c0-0.4,0-0.7,0-1.1c0.2-0.2,0.4-0.4,0.6-0.7c0.4-0.3,0.7,0.3,0.8,0.7C181.6,106.5,181.3,107.5,181,108.2
			z"/>
	</g>
</g>
<path style="fill:#AF9175;" d="M201,100l-9.7,27.1l4.9,5.1l-17.7,4.9l11.1,3.3l-31,5.8h42.6l-3.1-6.6l4.8-7.5c0,0-1.6-7.2-2.8-9.1
	c-1.2-1.9,2.8-21.7,2.8-21.7l-4.4-34.9L201,100z"/>
<path style="opacity:0.41;fill:#998370;enable-background:new    ;" d="M499.9-29.9v-10c-1.2,1.9-1.4,4.2-1.1,6.3
	C499-32.3,499.4-31.1,499.9-29.9z"/>
<path style="opacity:0.41;fill:#998370;enable-background:new    ;" d="M499.9,62.8c-6.2-0.7-12.4-1.7-18.6-2.8
	c-3.7-0.7-7.5-1.5-10.9-3c0.7-5,1.7-9.9,3-14.7c1.8-0.6,3.6-1.3,5.4-2c7.5-3.2,14.1-8.3,19-14.8c0.8-1,1.5-2.2,2.1-3.4v-6.3
	c-0.5-1.2-1.2-2.4-2.1-3.4l-0.1-0.1c0.7-0.7,1.4-1.3,2.2-1.9V1.3c-0.6,0-1.2,0-1.9,0c-1.4,0.1-2.7,0.3-4,0.8c-1.5,0.6-2.9,1.5-4,2.7
	c-1.2-1-2.5-2-3.3-2.6c-0.7-0.5-1.4-1-2.1-1.5c1.3-2.7,2.6-5.5,4.8-7.5c2-1.8,4.5-2.9,7-3.9c1.1-0.5,2.3-0.9,3.5-1.4v-9.5
	c-0.3,0-0.6,0-0.9-0.1c-1.3-0.3-2.3-1.2-3.2-2.2c-1-1.2-2-2.5-2.7-3.8c-0.3-0.5-0.5-1-1-1.4c-0.4-0.3-1.1-0.5-1.5-0.1
	c-0.3,0.2-0.4,0.6-0.5,0.9c-0.2,1.1,0.1,2.1,0.4,3.1c0.6,1.8,1.5,3.5,2.6,5c0.7,1,1.6,2.1,1.5,3.3c-0.1,0.9-0.7,1.7-1.3,2.3
	c-1.5,1.5-3.2,2.8-5.2,3.6c-0.9,0.4-1.9,0.7-2.8,0.4c-0.8-0.2-1.3-0.9-1.9-1.4c-0.9-0.9-2-1.6-3.2-2.1c-0.3-0.1-0.6-0.3-0.9-0.1
	c-0.2,0.1-0.4,0.3-0.5,0.5c-0.5,0.9-0.4,2.1,0.2,3c0.5,0.9,1.3,1.6,2.1,2.4c0.5,0.5,1.1,1.1,1.3,1.8c0.1,0.5,0,1-0.1,1.5
	c-0.3,1.2-0.8,2.4-1.4,3.5c-0.4-0.2-0.9-0.4-1.3-0.6c-4-1.7-8.2-2.7-12.5-3.4C456.9-7,446.4-7,436.5-4c-1,0.3-2,0.7-3,1
	c-0.3-0.8-0.6-1.6-0.8-2.4c-0.2-0.6-0.4-1.2-0.3-1.9c0.2-0.8,0.9-1.3,1.4-1.9c0.5-0.6,1-1.4,0.7-2.2c-0.4-0.9-1.6-1-2.6-0.9
	c-0.4,0.8-0.8,1.6-1.1,2.4c-0.1,0.2-0.2,0.5-0.4,0.6c-0.4,0.2-0.8,0.1-1.2-0.1c-1.8-0.9-3.1-2.6-4.4-4.2c-0.3-0.4-0.6-0.8-0.7-1.3
	c-0.2-1,0.5-1.9,1.1-2.6c1.4-1.6,2.7-3.2,4.1-4.8c0.7-0.8,1.4-2,0.7-2.8c-0.4-0.5-1.2-0.6-1.7-0.3c-0.6,0.2-1,0.7-1.4,1.2
	c-1.6,2-2.7,4.5-4.9,5.8c-0.3,0.2-0.6,0.3-0.9,0.3s-0.6-0.1-0.8-0.3c-2.1-1.2-3.9-3.1-5-5.2c-0.2-0.4-0.4-0.9-0.2-1.4
	c0.1-0.3,0.5-0.5,0.8-0.7c3.8-2.5,6.4-6.9,6.7-11.5c0.1-0.9,0-1.8-0.5-2.5s-1.7-0.9-2.2-0.1c-0.2,0.3-0.2,0.6-0.3,0.9
	c-0.6,3.4-2.2,6.6-4.5,9c-0.5,0.5-1,1-1.6,1.2c-1.1,0.3-2.2-0.1-3.1-0.8c-2.5-1.7-3.9-4.6-4.5-7.5c-0.6-2.9-0.5-6-0.5-9
	c0-0.5,0-1-0.2-1.4c-0.2-0.4-0.7-0.8-1.1-0.7c-0.5,0.1-0.8,0.5-1,0.9c-1.1,2-1.4,4.4-1.4,6.7c-0.1,6.6,1.8,13.2,5.4,18.8
	c3.6,5.5,8.9,10,14.9,12.6c1.1,0.5,2.1,0.9,3.1,1.5c2.3,1.5,3.6,4,4.7,6.5c-2.8,1.4-5.5,3-8,5c-3.1-1.8-6.4-3.5-9.9-3.9
	c-0.9-0.1-1.8-0.1-2.7,0c-0.9,0.1-1.9,0.4-2.1,1.2c-0.2,0.7,0.4,1.4,0.9,2c2.4,2.6,5.1,5.1,6.5,8.4c-0.6,0.8-1.1,1.6-1.7,2.4
	c-0.6,0.9-1.1,1.9-1.3,3c-0.4,2.5,1.2,5,2.8,6.9c5.6,6.7,12.6,11.9,20,16.4c2.5,10.2,3.7,20.8,3.4,31.3c-0.1,4.7-0.5,9.5-0.3,14.1
	v0.1c0,4.4,0.2,9,2,12.9c1,16.6,2.9,33.1,5.7,49.5c0.5,2.7,0.9,5.3,1.4,7.9c1.7,0.4,3.5,0.5,5.2,0.4c-0.5-2.7-1-5.3-1.5-8
	c-2.3-13.9-3.6-28-3.9-42.1c0.8,0.5,1.5,0.9,2.3,1.4c3.8,2,7.9,3.3,12.1,4.2c-1.3,9.3-2.5,18.7-3.6,28c-0.3,2.7-0.6,5.4-0.8,8.1
	c-0.2,2.8-0.2,5.7,0.1,8.5c1.7-0.5,4,1,5-0.5c0.2-0.4,0.3-0.9,0.4-1.3c0.3-2.3,0.7-4.5,1-6.8c1.7-11.5,3.4-23,5.1-34.5
	c6.5,1.2,16.8,2.8,28.4,3.5c1.2,0.1,2.4,0.1,3.6,0.2V62.8z"/>
<g>
	<g>
		<g>
			<path style="fill:#0F1110;" d="M449,158.4c-1.7,0.1-3.5,0-5.2-0.4c-0.5-2.6-1-5.3-1.4-7.9c1.7,0.2,3.5,0.3,5.2,0.3
				C448,153.1,448.5,155.7,449,158.4z"/>
			<path style="fill:#A16D58;" d="M443,104.5c0.2,0.5,0.5,0.9,0.6,1.4s0.1,1,0.1,1.5c0.2,14.4,1.5,28.8,3.9,43
				c-1.7,0-3.5-0.1-5.2-0.3c-3.1-18.1-5.1-36.5-6-54.9C439,98,441.2,101.1,443,104.5z"/>
		</g>
		<g>
			<g>
				<g>
					<g>
						<g>
							<path style="fill:#A16D58;" d="M499.9,64.9c-6.9-0.8-13.9-1.8-20.7-3.1c-4.2-0.8-8.4-1.7-12.2-3.6
								c-5.5-2.8-12.7-0.9-18.4,1.7c-3.2,1.4-6.1,3.6-8.3,6.3c-4.7,5.9-5.5,14-5.6,21.5c0,4.9,0.2,10.2,2.9,14.5
								c2,3.3,5.2,5.7,8.6,7.5c6.8,3.6,14.6,4.9,22.3,6.1c10.4,1.6,20.9,3.1,31.4,3.4V64.9z"/>
							<path style="fill:#F1D2BE;" d="M499.9,100.7c-12.8-1.5-25.7-1.8-38.6-1.1c-0.8,4.8-1.8,9.6-3.1,14.3c0-0.1,19.6,4.7,41.7,5.1
								V100.7z"/>
							<g>
								<path style="fill:#C48775;" d="M499.9,73.1c-0.2-0.1-0.5-0.1-0.7-0.2c-0.9-0.2-1.9,0-2.9,0.1c-0.7,0.1-1.4,0.2-1.7,0.8
									c-0.3,0.5,0,1.2,0.3,1.8c0.2,0.3,0.5,0.7,0.8,0.9c0.4,0.3,0.8,0.3,1.2,0.3c1.1,0,2.1-0.1,3-0.3V73.1z"/>
								<path style="fill:#C48775;" d="M490.5,68.6c0.1,0.1,0.2,0.3,0.2,0.5c0.1,0.5-0.5,0.9-1.1,1c-0.9,0.3-2,0.5-2.9,0.2
									c-0.4-0.1-0.8-0.4-1-0.8c-0.5-0.7-0.1-1.6,0.7-1.8c0.5-0.1,1.1-0.2,1.7-0.2C489.1,67.5,490,67.9,490.5,68.6z"/>
							</g>
						</g>
						<path style="fill:#F1D2BE;" d="M451.7,102.9c-1.7,1.1-3.4,2.1-5.1,3.2c-3.9-2.7-7.1-6.4-9.2-10.7c-0.4,0.9-0.7,1.9-0.7,2.9
							c-3-7.8-1.9-16.5-1.7-24.9c0.3-10.7-0.9-21.5-3.5-31.9c13.1,4.7,27.9,4.4,40.7-0.9c-4.2,13.4-5.1,27.6-6.5,41.5
							c-0.4,3.4-0.8,6.8-2.3,9.9C461.1,96.9,456.3,100,451.7,102.9z"/>
					</g>
				</g>
			</g>
			<g>
				<path style="fill:#0F1110;" d="M460.2,149.8c-0.3,2.3-0.7,4.5-1,6.8c-0.1,0.5-0.1,0.9-0.4,1.3c-1,1.6-3.3,0-5,0.5
					c-0.3-2.8-0.3-5.7-0.1-8.5C455.9,150.2,458.1,150.1,460.2,149.8z"/>
				<path style="fill:#A16D58;" d="M453.7,149.9c0.2-2.7,0.5-5.4,0.8-8.1c1.5-12.5,3.1-25,4.9-37.5c0.2-1.7,0.5-3.5,1.3-4.9
					c0.8-1.4,2-2.5,3.2-3.5c1.6-1.4,3.2-2.7,4.8-4.1c-0.6,4.1-1.2,8.3-1.8,12.4c-0.4,2.5-0.7,5-1.1,7.4c-1.9,12.7-3.7,25.4-5.6,38.1
					C458.1,150.1,455.9,150.2,453.7,149.9z"/>
			</g>
		</g>
	</g>
	<g>
		<g>
			<path style="fill:#F1D2BE;" d="M418-16.4c0.3,0.1,0.5,0.3,0.8,0.3c0.3,0,0.6-0.1,0.9-0.3c2.2-1.4,3.3-3.8,4.9-5.8
				c0.4-0.5,0.8-1,1.4-1.2c0.6-0.2,1.4-0.2,1.7,0.3c0.6,0.8,0,2-0.7,2.8c-1.4,1.6-2.7,3.2-4.1,4.8c-0.6,0.7-1.3,1.6-1.1,2.6
				c0.1,0.5,0.4,0.9,0.7,1.3c1.3,1.6,2.6,3.3,4.4,4.2c0.4,0.2,0.9,0.4,1.2,0.1c0.2-0.1,0.3-0.4,0.4-0.6c0.4-0.8,0.8-1.6,1.1-2.4
				c1-0.1,2.2,0,2.6,0.9c0.3,0.7-0.2,1.6-0.7,2.2c-0.6,0.6-1.2,1.1-1.4,1.9c-0.1,0.6,0.1,1.3,0.3,1.9c0.4,1.1,0.8,2.2,1.2,3.3
				c-1.5,0.2-3,0.7-4.3,1.5c-1.2-2.7-2.5-5.6-5-7.2c-1-0.6-2-1-3.1-1.5c-6.1-2.6-11.3-7.1-14.9-12.6c-3.6-5.5-5.5-12.2-5.4-18.8
				c0-2.3,0.3-4.7,1.4-6.7c0.2-0.4,0.6-0.9,1-0.9c0.5-0.1,0.9,0.3,1.1,0.7c0.2,0.4,0.2,1,0.2,1.4c0,3-0.1,6,0.5,9s2,5.8,4.5,7.5
				c0.9,0.6,2.1,1.1,3.1,0.8c0.6-0.2,1.2-0.7,1.6-1.2c2.4-2.5,4-5.7,4.5-9c0.1-0.3,0.1-0.6,0.3-0.9c0.5-0.7,1.7-0.5,2.2,0.1
				c0.5,0.7,0.6,1.6,0.5,2.5c-0.3,4.6-2.9,8.9-6.7,11.5c-0.3,0.2-0.6,0.4-0.8,0.7c-0.2,0.4,0,1,0.2,1.4
				C414.1-19.4,415.9-17.6,418-16.4z"/>
			<path style="fill:#F1D2BE;" d="M499.6-24.6c0.1,0.2,0.2,0.4,0.3,0.6v-15.9c-0.5,0.2-1.1,0.7-1.4,1.1c-1.6,2-2,4.7-1.6,7.1
				C497.3-29.1,498.4-26.8,499.6-24.6z"/>
			<path style="fill:#F1D2BE;" d="M499.9-20.5c-0.7,0.7-1.8,1-2.8,0.8c-1.3-0.3-2.3-1.2-3.2-2.2c-1-1.2-2-2.5-2.7-3.8
				c-0.3-0.5-0.5-1-1-1.4c-0.4-0.3-1.1-0.5-1.5-0.1c-0.3,0.2-0.4,0.6-0.5,0.9c-0.2,1.1,0.1,2.1,0.4,3.1c0.6,1.8,1.5,3.5,2.6,5
				c0.7,1,1.6,2.1,1.5,3.3c-0.1,0.9-0.7,1.7-1.3,2.3c-1.5,1.5-3.2,2.8-5.2,3.6c-0.9,0.4-1.9,0.7-2.8,0.4c-0.8-0.2-1.3-0.9-1.9-1.4
				c-0.9-0.9-2-1.6-3.2-2.1c-0.3-0.1-0.6-0.3-0.9-0.1c-0.2,0.1-0.4,0.3-0.5,0.5c-0.5,0.9-0.4,2.1,0.2,3c0.5,0.9,1.3,1.6,2.1,2.4
				c0.5,0.5,1.1,1.1,1.3,1.8c0.1,0.5,0,1-0.1,1.5c-0.3,1.5-1,2.9-1.9,4.2c1.3,0.6,2.6,1.3,3.9,1.9c1.3-2.9,2.7-5.9,5.1-8
				c2-1.8,4.5-2.9,7-3.9c1.8-0.7,3.6-1.4,5.4-2.2V-20.5z"/>
		</g>
		<g>
			<g>
				<g>
					<g>
						<path style="fill:#855D53;" d="M409.3,1.9c-0.9-0.1-1.8-0.1-2.7,0s-1.9,0.4-2.1,1.2c-0.2,0.7,0.4,1.4,0.9,2
							c2.5,2.6,5.2,5.2,6.5,8.5c2.5-2.7,5.2-5.2,8.2-7.4C416.7,4.2,413.2,2.3,409.3,1.9z"/>
						<path style="fill:#EFBEB8;" d="M412.2,11.3c0.4,0.5,0.9,1,0.9,1.6c1.6-1.5,3.2-2.9,4.7-4.4c-2.7-2.8-6.5-4.5-10.3-4.7
							c-0.5,0-1.2,0.1-1.2,0.6c-0.1,0.3,0.2,0.6,0.4,0.8C408.5,7.3,410.4,9.3,412.2,11.3z"/>
					</g>
					<g>
						<path style="fill:#855D53;" d="M499.9,3.2c-1.3-0.1-2.7-0.1-4,0c-1.4,0.1-2.7,0.3-4,0.8c-1.7,0.6-3.2,1.7-4.4,3.2
							c2.9,2.2,5.3,5,7,8.1c1.7-1.7,3.5-3.2,5.4-4.6V3.2z"/>
						<path style="fill:#EFBEB8;" d="M499.9,5.8c-0.6-0.1-1.3-0.2-2-0.2c-3,0-6,0.9-8.5,2.6c1.7,1.6,3.1,3.4,4.3,5.4
							c2.1-1.4,4.2-2.8,6.2-4.3V5.8z"/>
					</g>
				</g>
				<g>
					<path style="fill:#A16D58;" d="M408.8,18.8c0.2-1.1,0.7-2,1.3-3c4.8-7.8,12.5-13.5,21-16.8c5.4,6.7,8.7,14.9,11.4,23.1
						c2.7,8.4,5,17,5.6,25.8c1.6-0.3,3.3-0.3,4.8,0.1c0-0.3,0-0.5,0-0.8c0.2-3.9,1.6-7.7,2.9-11.4c2.5-6.8,5.2-13.7,8.7-20
						c3.4-6,7.6-11.6,12.9-16c2.5,1.1,4.9,2.5,7.1,4.2c1.6,1.3,4.8,3.8,6.3,5.3c2,2,2.8,2.9,4.8,4.9c1.3,1.4,2.1,3,2.6,4.9
						c0.7,2.8-0.9,5.7-2.6,8.1c-4.9,6.5-11.5,11.7-19,14.8c-2.2,0.9-4.4,1.7-6.6,2.4c-5.5,1.9-11,3.7-16.5,5.6
						c-1.6,0.5-3.2,1.1-4.8,0.8c-1.2-0.2-2.3-0.7-3.3-1.3c-12.4-6.3-24.9-13.2-33.8-23.9C410,23.8,408.4,21.4,408.8,18.8z"/>
					<path style="fill:#C48775;" d="M464.6,15.9c-3.5,6.4-6.2,13.2-8.7,20c-1.4,3.7-2.7,7.5-2.9,11.4c0,0.3,0,0.5,0,0.8
						c-1.6-0.4-3.3-0.4-4.8-0.1c-0.6-8.8-2.8-17.4-5.6-25.8c-2.7-8.2-5.9-16.4-11.4-23.1c1.1-0.4,2.2-0.8,3.3-1.1
						c9.8-3,20.4-3.1,30.6-1.4c4.3,0.7,8.6,1.7,12.5,3.4C472.2,4.3,468,9.9,464.6,15.9z"/>
				</g>
			</g>
			<g>
				<path style="fill:#0F1110;" d="M453.6,52.2c-0.4,0.4-0.8,0.8-1.4,1c-0.5,0.2-1,0.2-1.5,0.3c-0.6,0-1.1,0-1.7-0.1
					c-1.1-0.3-1.9-1.2-2.4-2.2c-0.4-1-0.5-2.2-0.3-3.3c0-0.3,0.1-0.7,0.3-1c0.3-0.6,0.9-1.1,1.6-1.4c1.8-0.7,4-0.2,5.3,1.3
					C454.7,48.3,454.8,50.7,453.6,52.2z"/>
				<g>
					<g>
						<path style="fill:#0F1110;" d="M432.4,25.6c0.3-0.7,1.2-1.1,1.8-0.8c0.6,0.3,1.1,1.2,0.8,1.9c-0.3,0.7-1.2,1-1.8,0.7
							C432.6,27.1,432.2,26.3,432.4,25.6z"/>
						<path style="fill:#0F1110;" d="M472,25.6c0.3-0.7,1.2-1.1,1.8-0.8c0.6,0.3,1.1,1.2,0.8,1.9c-0.3,0.7-1.2,1-1.8,0.7
							C472.1,27.1,471.7,26.3,472,25.6z"/>
					</g>
					<g>
						<path style="fill:#E78072;" d="M429.1,37.6c-0.5,0.2-1,0.3-1.5,0.3c-1.8,0.1-3.5-1.2-3.9-2.9s0.4-3.6,2-4.5
							c0.3-0.2,0.7-0.3,1-0.3c1.2-0.2,2.4,0.5,3.3,1.4c0.6,0.6,1.1,1.3,1.4,2.1c0.2,0.8,0.1,1.6-0.3,2.3
							C430.6,36.7,429.8,37.3,429.1,37.6z"/>
						<path style="fill:#E78072;" d="M471.2,34.8c0.2-0.3,0.3-0.6,0.6-0.8c0.5-0.5,1.2-0.8,1.9-0.9c0.9-0.1,1.8,0,2.6,0.3
							c0.7,0.3,1.3,0.7,1.8,1.3c0.9,1.2,0.5,3.1-0.5,4.1c-1.1,1-2.7,1.3-4.2,1c-0.3-0.1-0.5-0.1-0.8-0.2c-0.8-0.4-1.5-1.2-1.7-2.1
							C470.6,36.6,470.8,35.6,471.2,34.8z"/>
					</g>
				</g>
			</g>
		</g>
	</g>
</g>
</svg>
