<?xml version="1.0" encoding="utf-8"?>
<!-- Generator: Adobe Illustrator 19.0.0, SVG Export Plug-In . SVG Version: 6.00 Build 0)  -->
<svg version="1.1" id="Layer_1" xmlns="http://www.w3.org/2000/svg" xmlns:xlink="http://www.w3.org/1999/xlink" x="0px" y="0px"
	 viewBox="-107 230.9 380 380" style="enable-background:new -107 230.9 380 380;" xml:space="preserve">
<style type="text/css">
	.st0{fill:#0D5C74;}
	.st1{opacity:0.32;fill:#FFFFFF;enable-background:new    ;}
	.st2{opacity:0.22;fill:#FFFFFF;enable-background:new    ;}
	.st3{fill:#726351;}
	.st4{opacity:0.15;enable-background:new    ;}
	.st5{opacity:0.2;enable-background:new    ;}
	.st6{fill:#B3FFF7;}
	.st7{opacity:4.000000e-02;enable-background:new    ;}
	.st8{fill:#BDBDBD;}
	.st9{fill:#FFFFFF;}
	.st10{opacity:0.1;enable-background:new    ;}
	.st11{fill:#EBEBEB;}
	.st12{fill:#C4FFF9;}
	.st13{fill:#B3A78F;}
	.st14{fill:#95856E;}
	.st15{fill:#E8D9BC;}
	.st16{fill:#EFBEB8;}
	.st17{fill:none;stroke:#95856E;stroke-width:1.0003;stroke-linecap:round;stroke-linejoin:round;stroke-miterlimit:10;}
	.st18{fill:#0F1110;}
	.st19{fill:#CD675B;}
	.st20{fill:#EFE1D5;}
	.st21{fill:#E78072;}
	.st22{fill:#655B51;}
	.st23{fill:#F1D2BE;}
	.st24{fill:#95A63A;}
	.st25{fill:#8EF2F4;}
	.st26{fill:#167593;}
	.st27{fill:#62BA47;}
	.st28{fill:#F2B062;}
	.st29{fill:#F29211;}
</style>
<g>
	<rect x="-107" y="230.9" class="st0" width="380" height="380"/>
	<path class="st1" d="M0.2,331.9c-0.7-1.3-2-2.1-3.4-2c-0.5,0-1,0.1-1.5,0.4c-1.2-3.6-4.4-6.1-8-6c-1.3,0.1-2.5,0.5-3.6,1.2
		c-3-7.3-10.4-12.3-18.7-11.9c-5.7,0.3-10.8,3.2-14.1,7.4c-1.5-0.4-3-0.7-4.7-0.6c-4.8,0.3-8.8,3-11,6.9c-0.7-0.2-1.4-0.3-2.1-0.2
		c-3.6,0.2-6.3,3.3-6.1,7c0,0.6,0.1,1.2,0.3,1.8L0.2,331.9z"/>
	<path class="st1" d="M104,295.8c0.6-1.2,1.6-2,2.7-1.9c0.4,0,0.8,0.2,1.1,0.4c1-3.4,3.5-5.7,6.3-5.6c1,0.1,1.9,0.5,2.7,1.1
		c2.4-6.8,8.2-11.5,14.6-11c4.4,0.3,8.2,2.9,10.6,6.9c1.1-0.4,2.4-0.6,3.6-0.5c3.6,0.2,6.7,2.8,8.3,6.4c0.5-0.2,1.1-0.3,1.6-0.2
		c2.7,0.2,4.8,3.1,4.5,6.5c0,0.6-0.1,1.1-0.3,1.6L104,295.8z"/>
	<path class="st2" d="M206.8,448.3c0-0.2,0-0.4,0-0.6c0.2-2,1.9-3.5,3.8-3.3c0.6,0,1.1,0.3,1.7,0.6c1.2-2.4,3.4-4,5.8-3.7
		c0.5,0,1,0.2,1.4,0.4c2.5-5.2,7.7-8.4,13.2-7.8c6,0.7,10.5,5.6,11.5,11.9c0.4,0,0.8-0.1,1.2,0c2.9,0.3,5,3.3,4.6,6.8
		c0,0.2-0.1,0.4-0.1,0.6L206.8,448.3z"/>
	<g>
		<g>
			
				<rect x="-25.1" y="484.3" transform="matrix(0.9994 -3.453882e-02 3.453882e-02 0.9994 -17.0005 -0.5357)" class="st3" width="2.1" height="15.1"/>
			
				<rect x="-32.2" y="491.5" transform="matrix(3.454932e-02 0.9994 -0.9994 3.454932e-02 467.7347 499.4443)" class="st4" width="15.1" height="0.7"/>
		</g>
		<path class="st5" d="M-23.1,487.4v0.6c0,0-0.4,0.4-2.1,0.2v-0.7L-23.1,487.4z"/>
		<g>
			<path class="st6" d="M-29,462.4c-1.9-0.1-3.8-0.2-5.8-0.5c7-4.6,9.2-19.6,9.2-19.6l0,0l0,0l0,0c0.1,0.4,2.4,14.6,10.5,18.9
				c0,0-2.5,0.6-6.3,1c2.6,8.5,6.5,17.5,12.2,21.9c0,0-5.4,3.2-14.8,3.5c-9.6,0.3-15-2.5-15-2.5C-34.3,480.6-31.1,471.2-29,462.4z"
				/>
			<path class="st7" d="M-29,462.4c-1.9-0.1-3.8-0.2-5.8-0.5c7-4.6,9.2-19.6,9.2-19.6l0,0l0,0l0,0c0,0,0,0.2,0.1,0.3
				c-0.9,10.2-8.3,45.7,14.9,40.2c0.5,0.5,1,0.9,1.5,1.3c0,0-5.4,3.2-14.8,3.5c-9.6,0.3-15-2.5-15-2.5
				C-34.3,480.6-31.1,471.2-29,462.4z"/>
		</g>
	</g>
	<g>
		<g>
			
				<rect x="232.7" y="496.2" transform="matrix(0.9996 2.771218e-02 -2.771218e-02 0.9996 13.9027 -6.2728)" class="st8" width="1.2" height="4.6"/>
			
				<rect x="230.6" y="498.2" transform="matrix(-2.909946e-02 0.9996 -0.9996 -2.909946e-02 737.8179 280.123)" class="st5" width="4.6" height="0.4"/>
		</g>
		<path class="st5" d="M234,497v0.7c0,0-0.6,0.3-1.2,0v-0.8L234,497z"/>
		<g>
			<path class="st9" d="M229.2,488.5l-2-0.1c1.6-1.2,2.8-3.3,3.8-5.6l-2-0.1c1.5-1.1,2.6-3.4,3.4-5.7h-1.5c2.2-1.8,3.2-8,3.2-8
				s0.4,6.2,2.8,8.2h-1.7c0.7,2.3,1.7,4.6,3.2,5.9l-2.2-0.1c0.9,2.3,2.1,4.5,3.7,5.8l-2.3-0.1c1.2,3,2.8,5.6,4.9,7.3
				c0,0-4.2,1.5-9.3,1.3c-5.7-0.2-9.2-1.8-9.2-1.8C226.1,494,227.8,491.4,229.2,488.5z"/>
			<path class="st10" d="M229.2,488.5l-2-0.1c1.6-1.2,2.8-3.3,3.8-5.6l-2-0.1c1.5-1.1,2.6-3.4,3.4-5.7h-1.5c2.2-1.8,3.2-8,3.2-8
				c-4.8,29.5,2.5,26.5,6.7,25.4c0.5,0.6,1.1,1.2,1.7,1.7c0,0-4.2,1.5-9.3,1.3c-5.7-0.2-9.2-1.8-9.2-1.8
				C226.1,494,227.8,491.4,229.2,488.5z"/>
		</g>
	</g>
	<g>
		<g>
			
				<rect x="160.5" y="494.7" transform="matrix(0.9996 2.771069e-02 -2.771069e-02 0.9996 13.8328 -4.2713)" class="st8" width="1" height="4.6"/>
			
				<rect x="158.4" y="496.8" transform="matrix(-2.912359e-02 0.9996 -0.9996 -2.912359e-02 662.0754 350.7703)" class="st5" width="4.6" height="0.3"/>
		</g>
		<path class="st5" d="M161.5,495.6v0.7c0,0-0.5,0.3-1,0v-0.8L161.5,495.6z"/>
		<g>
			<path class="st9" d="M157.5,487.1h-1.7c1.3-1.2,2.4-3.3,3.3-5.6h-1.7c1.2-1.1,2.2-3.4,2.9-5.7H159c1.9-1.8,2.8-8,2.8-8
				s0.3,6.2,2.3,8.2h-1.4c0.5,2.3,1.4,4.6,2.7,5.9l-1.9-0.1c0.7,2.3,1.7,4.5,3.1,5.8l-2-0.1c1,2.9,2.4,5.6,4.1,7.3
				c0,0-3.5,1.5-7.8,1.4c-4.8-0.1-7.7-1.8-7.7-1.8C154.9,492.6,156.4,490,157.5,487.1z"/>
			<path class="st10" d="M157.5,487.1h-1.7c1.3-1.2,2.4-3.3,3.3-5.6h-1.7c1.2-1.1,2.2-3.4,2.9-5.7H159c1.9-1.8,2.8-8,2.8-8
				c-4.2,29.6,2,26.5,5.6,25.3c0.4,0.6,0.9,1.2,1.4,1.7c0,0-3.5,1.5-7.8,1.4c-4.8-0.1-7.7-1.8-7.7-1.8
				C154.9,492.6,156.4,490,157.5,487.1z"/>
		</g>
	</g>
	<g>
		<path class="st11" d="M-1.7,500c-0.6-1.2-0.8-2.5-0.8-3.9c0-4.9,3.6-8.9,8.1-8.9c0.8,0,1.5,0.1,2.3,0.4c2.5-7,8.4-11.8,15.2-11.9
			c4.9,0,9.3,2.5,12.4,6.5c1.2-0.7,2.7-1,4.1-1c3.8,0,7,2.2,8.9,5.6c1.3-0.9,2.7-1.5,4.4-1.4c4.6,0,8.4,4.4,8.4,9.7
			c0,1.8-0.4,3.5-1.2,5L-1.7,500z"/>
		<path class="st10" d="M5.5,487.1c0.8,0,1.5,0.1,2.3,0.4c2.5-7,8.4-11.8,15.2-11.9c0.7,0,1.3,0.1,2,0.2
			c-6.3,4.7-12.4,12.6-8.2,24.2H-1.8c-0.6-1.2-0.8-2.5-0.8-3.9C-2.5,491.1,1,487.2,5.5,487.1z"/>
	</g>
	<g>
		<path class="st6" d="M176.5,496.3c0.2-4.6,4.2-8.2,9.1-8c0.4,0,0.9,0.1,1.3,0.1c1.8-2.9,5.2-4.7,9-4.6c5.6,0.2,10,4.6,9.8,9.9
			c0,0.1,0,0.2,0,0.3c2.8,1,4.8,3.6,4.7,6.6l-33.3-1.1C176.7,498.6,176.5,497.4,176.5,496.3z"/>
		<path class="st10" d="M185.7,488.2c0.4,0,0.9,0.1,1.3,0.1c1.5-2.3,3.9-3.9,6.7-4.4c-4.6,2.5-8.6,9.1-5.3,16l-11.1-0.4
			c-0.4-1-0.7-2.2-0.6-3.3C176.7,491.7,180.8,488.1,185.7,488.2z"/>
	</g>
	<g>
		<path class="st12" d="M-101.4,417.8c0.7,0,0.7-1.1,0-1.1C-102.1,416.7-102.1,417.8-101.4,417.8L-101.4,417.8z"/>
	</g>
	<g>
		<path class="st12" d="M-69.4,433.2c0.7,0,0.7-1.1,0-1.1S-70.1,433.2-69.4,433.2L-69.4,433.2z"/>
	</g>
	<g>
		<path class="st12" d="M49.3,324.6c0,2.1,3.3,2.1,3.3,0C52.6,322.5,49.3,322.4,49.3,324.6L49.3,324.6z"/>
	</g>
	<g>
		<path class="st12" d="M-84.8,298.3c2.1,0,2.1-3.3,0-3.3C-87,295-87,298.3-84.8,298.3L-84.8,298.3z"/>
	</g>
	<g>
		<path class="st12" d="M15.2,331.2c0,2.1,3.3,2.1,3.3,0C18.5,329.1,15.2,329.1,15.2,331.2L15.2,331.2z"/>
	</g>
	<g>
		<path class="st12" d="M-78.8,507.6c2.1,0,2.1-3.3,0-3.3C-80.9,504.3-80.9,507.6-78.8,507.6L-78.8,507.6z"/>
	</g>
	<g>
		<path class="st12" d="M-104.7,527.4c2.1,0,2.1-3.3,0-3.3S-106.8,527.4-104.7,527.4L-104.7,527.4z"/>
	</g>
	<g>
		<path class="st12" d="M-43.5,522.5c2.1,0,2.1-3.3,0-3.3C-45.6,519.2-45.6,522.5-43.5,522.5L-43.5,522.5z"/>
	</g>
	<g>
		<path class="st12" d="M-10.9,495.5c2.1,0,2.1-3.3,0-3.3S-13.1,495.5-10.9,495.5L-10.9,495.5z"/>
	</g>
	<g>
		<path class="st12" d="M1.2,514.2c2.1,0,2.1-3.3,0-3.3S-0.9,514.2,1.2,514.2L1.2,514.2z"/>
	</g>
	<g>
		<path class="st12" d="M8.4,443.7c2.1,0,2.1-3.3,0-3.3C6.3,440.4,6.3,443.7,8.4,443.7L8.4,443.7z"/>
	</g>
	<g>
		<path class="st12" d="M108.1,420c2.1,0,2.1-3.3,0-3.3S106,420,108.1,420L108.1,420z"/>
	</g>
	<g>
		<path class="st12" d="M176.7,295.6c2.1,0,2.1-3.3,0-3.3C174.5,292.3,174.5,295.6,176.7,295.6L176.7,295.6z"/>
	</g>
	<g>
		<path class="st12" d="M172.6,425.5c2.1,0,2.1-3.3,0-3.3S170.5,425.5,172.6,425.5L172.6,425.5z"/>
	</g>
	<g>
		<path class="st12" d="M173.2,455.8c2.1,0,2.1-3.3,0-3.3C171,452.5,171,455.8,173.2,455.8L173.2,455.8z"/>
	</g>
	<g>
		<path class="st12" d="M225.6,476.2c2.1,0,2.1-3.3,0-3.3S223.5,476.2,225.6,476.2L225.6,476.2z"/>
	</g>
	<g>
		<path class="st12" d="M260.3,490c2.1,0,2.1-3.3,0-3.3C258.2,486.7,258.2,490,260.3,490L260.3,490z"/>
	</g>
	<g>
		<path class="st12" d="M229.6,505.3c0.5,0.2,1.1,0.4,1.6,0.6c0.8,0.3,1.8-0.3,2-1.2c0.2-0.9-0.3-1.7-1.2-2
			c-0.5-0.2-1.1-0.4-1.6-0.6c-0.8-0.3-1.8,0.3-2,1.2S228.7,505,229.6,505.3L229.6,505.3z"/>
	</g>
	<g>
		<path class="st12" d="M-67.9,352.8c2.1,0,2.1-3.3,0-3.3C-70.1,349.5-70.1,352.8-67.9,352.8L-67.9,352.8z"/>
	</g>
	<g>
		<path class="st12" d="M-54.7,337.4c2.1,0,2.1-3.3,0-3.3C-56.8,334.1-56.8,337.4-54.7,337.4L-54.7,337.4z"/>
	</g>
	<g>
		<path class="st12" d="M-67.9,280.5c2.1,0,2.1-3.3,0-3.3C-70.1,277.2-70.1,280.5-67.9,280.5L-67.9,280.5z"/>
	</g>
	<g>
		<path class="st12" d="M-92.7,249.2c2.1,0,2.1-3.3,0-3.3C-94.9,245.9-94.9,249.2-92.7,249.2L-92.7,249.2z"/>
	</g>
	<g>
		<path class="st12" d="M-72.6,376.6c2.1,0,2.1-3.3,0-3.3S-74.7,376.6-72.6,376.6L-72.6,376.6z"/>
	</g>
	<g>
		<path class="st12" d="M-83.1,390.4c0.2,0,0.4,0,0.6,0c0.9,0,1.7-0.8,1.7-1.7s-0.7-1.7-1.7-1.7c-0.2,0-0.4,0-0.6,0
			c-0.9,0-1.7,0.8-1.7,1.7C-84.7,389.7-84,390.4-83.1,390.4L-83.1,390.4z"/>
	</g>
	<g>
		<path class="st12" d="M-15.3,367.8c2.1,0,2.1-3.3,0-3.3S-17.4,367.8-15.3,367.8L-15.3,367.8z"/>
	</g>
	<g>
		<path class="st12" d="M-8,380.5c2.1,0,2.1-3.3,0-3.3C-10.2,377.2-10.2,380.5-8,380.5L-8,380.5z"/>
	</g>
	<g>
		<path class="st12" d="M38.3,387.9c2.1,0,2.1-3.3,0-3.3C36.1,384.6,36.1,387.9,38.3,387.9L38.3,387.9z"/>
	</g>
	<g>
		<path class="st12" d="M56.5,378.3c2.1,0,2.1-3.3,0-3.3C54.3,375,54.3,378.3,56.5,378.3L56.5,378.3z"/>
	</g>
	<g>
		<path class="st12" d="M98.3,372.2c2.1,0,2.1-3.3,0-3.3S96.2,372.2,98.3,372.2L98.3,372.2z"/>
	</g>
	<g>
		<path class="st12" d="M140.2,366.2c2.1,0,2.1-3.3,0-3.3S138.1,366.2,140.2,366.2L140.2,366.2z"/>
	</g>
	<g>
		<path class="st12" d="M167.8,373.9c2.1,0,2.1-3.3,0-3.3C165.6,370.6,165.6,373.9,167.8,373.9L167.8,373.9z"/>
	</g>
	<g>
		<path class="st12" d="M120.9,388.8c2.1,0,2.1-3.3,0-3.3C118.8,385.5,118.8,388.8,120.9,388.8L120.9,388.8z"/>
	</g>
	<g>
		<path class="st12" d="M240.7,305.8c2.1,0,2.1-3.3,0-3.3C238.5,302.5,238.5,305.8,240.7,305.8L240.7,305.8z"/>
	</g>
	<g>
		<path class="st12" d="M257.2,316.3c2.1,0,2.1-3.3,0-3.3C255.1,313,255.1,316.3,257.2,316.3L257.2,316.3z"/>
	</g>
	<g>
		<path class="st12" d="M242.9,345c2.1,0,2.1-3.3,0-3.3C240.7,341.6,240.7,345,242.9,345L242.9,345z"/>
	</g>
	<g>
		<path class="st12" d="M235.4,278.8c2.1,0,2.1-3.3,0-3.3C233.2,275.5,233.2,278.8,235.4,278.8L235.4,278.8z"/>
	</g>
	<g>
		<path class="st12" d="M202.8,264.5c2.1,0,2.1-3.3,0-3.3S200.7,264.5,202.8,264.5L202.8,264.5z"/>
	</g>
	<g>
		<path class="st12" d="M156.4,264.5c2.1,0,2.1-3.3,0-3.3C154.3,261.2,154.3,264.5,156.4,264.5L156.4,264.5z"/>
	</g>
	<g>
		<path class="st12" d="M42.2,279.5c2.1,0,2.1-3.3,0-3.3C40.1,276.1,40.1,279.5,42.2,279.5L42.2,279.5z"/>
	</g>
	<g>
		<path class="st12" d="M76.9,442.7c2.1,0,2.1-3.3,0-3.3C74.8,439.4,74.8,442.7,76.9,442.7L76.9,442.7z"/>
	</g>
	<g>
		<path class="st12" d="M58.2,454.8c2.1,0,2.1-3.3,0-3.3C56,451.5,56,454.8,58.2,454.8L58.2,454.8z"/>
	</g>
	<g>
		<path class="st12" d="M177.7,385.7c2.1,0,2.1-3.3,0-3.3S175.6,385.7,177.7,385.7L177.7,385.7z"/>
	</g>
	<g>
		<path class="st12" d="M205.9,375.3c2.1,0,2.1-3.3,0-3.3S203.8,375.3,205.9,375.3L205.9,375.3z"/>
	</g>
	<g>
		<path class="st12" d="M215.3,389.6c2.1,0,2.1-3.3,0-3.3S213.2,389.6,215.3,389.6L215.3,389.6z"/>
	</g>
	<g>
		<path class="st12" d="M230.6,413.4c2.1,0,2.1-3.3,0-3.3C228.4,410.1,228.4,413.4,230.6,413.4L230.6,413.4z"/>
	</g>
	<g>
		<path class="st12" d="M6.7,484.5c3.5,0,3.6-5.5,0-5.5C3.2,479,3.2,484.5,6.7,484.5L6.7,484.5z"/>
	</g>
	<g>
		<path class="st12" d="M-9.2,280.5c0,3.5,5.5,3.6,5.5,0C-3.7,276.9-9.2,276.9-9.2,280.5L-9.2,280.5z"/>
	</g>
	<g>
		<path class="st12" d="M-46.1,322.9c0,3.5,5.5,3.6,5.5,0C-40.6,319.4-46.1,319.4-46.1,322.9L-46.1,322.9z"/>
	</g>
	<g>
		<path class="st12" d="M254.8,470.7c3.5,0,3.6-5.5,0-5.5C251.3,465.2,251.3,470.7,254.8,470.7L254.8,470.7z"/>
	</g>
	<g>
		<path class="st12" d="M183.9,360.4c3.5,0,3.6-5.5,0-5.5C180.4,354.9,180.3,360.4,183.9,360.4L183.9,360.4z"/>
	</g>
	<g>
		<path class="st12" d="M177.7,508.2c3.5,0,3.6-5.5,0-5.5C174.2,502.6,174.2,508.2,177.7,508.2L177.7,508.2z"/>
	</g>
	<g>
		<path class="st12" d="M112.2,333.9c3.5,0,3.6-5.5,0-5.5S108.6,333.9,112.2,333.9L112.2,333.9z"/>
	</g>
	<g>
		<path class="st12" d="M106.5,264.5c3.5,0,3.6-5.5,0-5.5C103,259,103,264.5,106.5,264.5L106.5,264.5z"/>
	</g>
	<g>
		<path class="st12" d="M201.2,299.5c3.5,0,3.6-5.5,0-5.5C197.7,293.9,197.7,299.5,201.2,299.5L201.2,299.5z"/>
	</g>
	<g>
		<path class="st12" d="M135.6,242.8c3.5,0,3.6-5.5,0-5.5S132,242.8,135.6,242.8L135.6,242.8z"/>
	</g>
	<g>
		<path class="st12" d="M147.3,320.6c3.5,0,3.6-5.5,0-5.5C143.8,315.1,143.8,320.6,147.3,320.6L147.3,320.6z"/>
	</g>
	<g>
		<path class="st12" d="M211.4,327c3.5,0,3.6-5.5,0-5.5C207.8,321.5,207.8,327,211.4,327L211.4,327z"/>
	</g>
	<g>
		<path class="st12" d="M71.2,416.1c3.5,0,3.6-5.5,0-5.5C67.6,410.6,67.6,416.1,71.2,416.1L71.2,416.1z"/>
	</g>
	<g>
		<path class="st12" d="M205.8,467.4c3.5,0,3.6-5.5,0-5.5S202.2,467.4,205.8,467.4L205.8,467.4z"/>
	</g>
	<g>
		<path class="st12" d="M-46.3,483.9c3.5,0,3.6-5.5,0-5.5C-49.8,478.4-49.8,483.9-46.3,483.9L-46.3,483.9z"/>
	</g>
	<g>
		<path class="st12" d="M-84.8,453.1c3.5,0,3.6-5.5,0-5.5C-88.4,447.5-88.4,453.1-84.8,453.1L-84.8,453.1z"/>
	</g>
	<g>
		<path class="st12" d="M-82.6,548.4c3.5,0,3.6-5.5,0-5.5C-86.2,542.9-86.2,548.4-82.6,548.4L-82.6,548.4z"/>
	</g>
	<g>
		<path class="st12" d="M-12.1,534.6c1.4,0,1.4-2.2,0-2.2S-13.5,534.6-12.1,534.6L-12.1,534.6z"/>
	</g>
	<g>
		<path class="st12" d="M-11.5,462.4c0.7,0,0.7-1.1,0-1.1C-12.3,461.3-12.3,462.4-11.5,462.4L-11.5,462.4z"/>
	</g>
	<g>
		<path class="st12" d="M20,474.5c0.7,0,0.7-1.1,0-1.1C19.2,473.4,19.2,474.5,20,474.5L20,474.5z"/>
	</g>
	<g>
		<path class="st12" d="M-50.1,511.5c0.7,0,0.7-1.1,0-1.1C-50.8,510.4-50.8,511.5-50.1,511.5L-50.1,511.5z"/>
	</g>
	<g>
		<path class="st12" d="M-29.7,507.6c0.7,0,0.7-1.1,0-1.1S-30.4,507.6-29.7,507.6L-29.7,507.6z"/>
	</g>
	<g>
		<path class="st12" d="M-74.9,493.8c0.7,0,0.7-1.1,0-1.1C-75.6,492.7-75.6,493.8-74.9,493.8L-74.9,493.8z"/>
	</g>
	<g>
		<path class="st12" d="M-30.7,308.6c0,0.7,1.1,0.7,1.1,0C-29.6,307.9-30.7,307.9-30.7,308.6L-30.7,308.6z"/>
	</g>
	<g>
		<path class="st12" d="M-47.8,298.7c0,0.7,1.1,0.7,1.1,0C-46.7,298-47.8,298-47.8,298.7L-47.8,298.7z"/>
	</g>
	<g>
		<path class="st12" d="M-72.6,533c0.7,0,0.7-1.1,0-1.1C-73.3,531.9-73.3,533-72.6,533L-72.6,533z"/>
	</g>
	<g>
		<path class="st12" d="M2.3,536.3c0.7,0,0.7-1.1,0-1.1S1.6,536.3,2.3,536.3L2.3,536.3z"/>
	</g>
	<g>
		<path class="st12" d="M188.7,413.4c1.4,0,1.4-2.2,0-2.2S187.3,413.4,188.7,413.4L188.7,413.4z"/>
	</g>
	<g>
		<path class="st12" d="M209.1,431.6c1.4,0,1.4-2.2,0-2.2S207.7,431.6,209.1,431.6L209.1,431.6z"/>
	</g>
	<g>
		<path class="st12" d="M191.4,481.2c1.4,0,1.4-2.2,0-2.2C190,479,190,481.2,191.4,481.2L191.4,481.2z"/>
	</g>
	<g>
		<path class="st12" d="M213.5,504.3c1.4,0,1.4-2.2,0-2.2C212.1,502.1,212.1,504.3,213.5,504.3L213.5,504.3z"/>
	</g>
	<g>
		<path class="st12" d="M223.4,489.4c1.4,0,1.4-2.2,0-2.2C222,487.2,222,489.4,223.4,489.4L223.4,489.4z"/>
	</g>
	<g>
		<path class="st12" d="M248.8,507.6c1.4,0,1.4-2.2,0-2.2C247.3,505.4,247.3,507.6,248.8,507.6L248.8,507.6z"/>
	</g>
	<g>
		<path class="st12" d="M228.4,525.2c1.4,0,1.4-2.2,0-2.2C226.9,523,226.9,525.2,228.4,525.2L228.4,525.2z"/>
	</g>
	<g>
		<path class="st12" d="M20.1,447.1c1.4,0,1.4-2.2,0-2.2C18.7,444.9,18.7,447.1,20.1,447.1L20.1,447.1z"/>
	</g>
	<g>
		<path class="st12" d="M171.3,273.3c1.4,0,1.4-2.2,0-2.2S169.9,273.3,171.3,273.3L171.3,273.3z"/>
	</g>
	<g>
		<path class="st12" d="M-56.1,373.9c1.4,0,1.4-2.2,0-2.2C-57.5,371.7-57.5,373.9-56.1,373.9L-56.1,373.9z"/>
	</g>
	<g>
		<path class="st12" d="M-45,391c1.4,0,1.4-2.2,0-2.2C-46.5,388.8-46.5,391-45,391L-45,391z"/>
	</g>
	<g>
		<path class="st12" d="M-34.6,361.2c1.4,0,1.4-2.2,0-2.2S-36,361.2-34.6,361.2L-34.6,361.2z"/>
	</g>
	<g>
		<path class="st12" d="M-72.9,243.7c1.4,0,1.4-2.2,0-2.2C-74.3,241.5-74.3,243.7-72.9,243.7L-72.9,243.7z"/>
	</g>
	<g>
		<path class="st12" d="M-85.6,264.1c1.4,0,1.4-2.2,0-2.2S-87,264.1-85.6,264.1L-85.6,264.1z"/>
	</g>
	<g>
		<path class="st12" d="M248.8,415.6c1.4,0,1.4-2.2,0-2.2C247.3,413.4,247.3,415.6,248.8,415.6L248.8,415.6z"/>
	</g>
	<g>
		<path class="st12" d="M271.9,412.3c1.4,0,1.4-2.2,0-2.2S270.5,412.3,271.9,412.3L271.9,412.3z"/>
	</g>
	<g>
		<path class="st12" d="M263.1,449.7c1.4,0,1.4-2.2,0-2.2S261.7,449.7,263.1,449.7L263.1,449.7z"/>
	</g>
	<g>
		<path class="st12" d="M247.7,379.4c1.4,0,1.4-2.2,0-2.2S246.3,379.4,247.7,379.4L247.7,379.4z"/>
	</g>
	<g>
		<path class="st12" d="M49.8,360.1c1.4,0,1.4-2.2,0-2.2S48.4,360.1,49.8,360.1L49.8,360.1z"/>
	</g>
	<g>
		<path class="st12" d="M18.4,370.6c1.4,0,1.4-2.2,0-2.2C17,368.4,17,370.6,18.4,370.6L18.4,370.6z"/>
	</g>
	<g>
		<path class="st12" d="M8,357.3c1.4,0,1.4-2.2,0-2.2C6.5,355.1,6.5,357.3,8,357.3L8,357.3z"/>
	</g>
	<g>
		<path class="st12" d="M75.7,386c1.4,0,1.4-2.2,0-2.2C74.3,383.8,74.3,386,75.7,386L75.7,386z"/>
	</g>
	<g>
		<path class="st12" d="M98.3,389.9c1.4,0,1.4-2.2,0-2.2C96.9,387.7,96.9,389.9,98.3,389.9L98.3,389.9z"/>
	</g>
	<g>
		<path class="st12" d="M110.5,360.7c1.4,0,1.4-2.2,0-2.2C109,358.5,109,360.7,110.5,360.7L110.5,360.7z"/>
	</g>
	<g>
		<path class="st12" d="M138,354.3c1.4,0,1.4-2.2,0-2.2C136.6,352.1,136.6,354.3,138,354.3L138,354.3z"/>
	</g>
	<g>
		<path class="st12" d="M156.5,358.2c1.4,0,1.4-2.2,0-2.2C155.1,356,155,358.2,156.5,358.2L156.5,358.2z"/>
	</g>
	<g>
		<path class="st12" d="M153.7,391.2c1.4,0,1.4-2.2,0-2.2S152.3,391.2,153.7,391.2L153.7,391.2z"/>
	</g>
	<g>
		<path class="st12" d="M267.9,290.4c1.4,0,1.4-2.2,0-2.2S266.5,290.4,267.9,290.4L267.9,290.4z"/>
	</g>
	<g>
		<path class="st12" d="M254.8,253.7c1.4,0,1.4-2.2,0-2.2C253.4,251.5,253.4,253.7,254.8,253.7L254.8,253.7z"/>
	</g>
	<g>
		<path class="st12" d="M100.9,440.2c1.4,0,1.4-2.2,0-2.2C99.5,438,99.5,440.2,100.9,440.2L100.9,440.2z"/>
	</g>
	<g>
		<path class="st12" d="M205.4,351.8c0.7,0,0.7-1.1,0-1.1C204.7,350.7,204.7,351.8,205.4,351.8L205.4,351.8z"/>
	</g>
	<g>
		<path class="st12" d="M223.3,368.9c0.7,0,0.7-1.1,0-1.1S222.6,368.9,223.3,368.9L223.3,368.9z"/>
	</g>
	<g>
		<path class="st12" d="M237.4,359.3c0.7,0,0.7-1.1,0-1.1C236.6,358.2,236.6,359.3,237.4,359.3L237.4,359.3z"/>
	</g>
	<g>
		<path class="st12" d="M266.8,343c0.7,0,0.7-1.1,0-1.1C266.1,341.9,266.1,343,266.8,343L266.8,343z"/>
	</g>
	<g>
		<path class="st12" d="M268.2,371.7c0.7,0,0.7-1.1,0-1.1C267.5,370.6,267.5,371.7,268.2,371.7L268.2,371.7z"/>
	</g>
	<g>
		<path class="st12" d="M232.1,388.2c0.7,0,0.7-1.1,0-1.1S231.4,388.2,232.1,388.2L232.1,388.2z"/>
	</g>
	<g>
		<path class="st12" d="M266.3,391.2c0.7,0,0.7-1.1,0-1.1C265.6,390.1,265.6,391.2,266.3,391.2L266.3,391.2z"/>
	</g>
	<g>
		<path class="st12" d="M42.2,459c0.7,0,0.7-1.1,0-1.1S41.5,459,42.2,459L42.2,459z"/>
	</g>
	<g>
		<path class="st12" d="M-43.7,348.1c0.7,0,0.7-1.1,0-1.1S-44.4,348.1-43.7,348.1L-43.7,348.1z"/>
	</g>
	<g>
		<path class="st12" d="M8.3,411.9c0.7,0,0.7-1.1,0-1.1C7.6,410.8,7.6,411.9,8.3,411.9L8.3,411.9z"/>
	</g>
	<g>
		<path class="st12" d="M136.6,255.7c0.7,0,0.7-1.1,0-1.1C135.9,254.6,135.9,255.7,136.6,255.7L136.6,255.7z"/>
	</g>
	<g>
		<path class="st12" d="M156.4,252.1c0.7,0,0.7-1.1,0-1.1C155.7,251,155.7,252.1,156.4,252.1L156.4,252.1z"/>
	</g>
	<g>
		<path class="st12" d="M144.9,258.7c0.7,0,0.7-1.1,0-1.1C144.2,257.6,144.2,258.7,144.9,258.7L144.9,258.7z"/>
	</g>
	<g>
		<path class="st12" d="M170.5,257c0.7,0,0.7-1.1,0-1.1C169.8,255.9,169.8,257,170.5,257L170.5,257z"/>
	</g>
	<g>
		<path class="st12" d="M183.8,268.6c0.7,0,0.7-1.1,0-1.1C183.1,267.5,183.1,268.6,183.8,268.6L183.8,268.6z"/>
	</g>
	<g>
		<path class="st12" d="M191.8,255.1c0.7,0,0.7-1.1,0-1.1C191.1,254,191.1,255.1,191.8,255.1L191.8,255.1z"/>
	</g>
	<g>
		<path class="st12" d="M197.1,251.5c0.7,0,0.7-1.1,0-1.1C196.3,250.4,196.3,251.5,197.1,251.5L197.1,251.5z"/>
	</g>
	<g>
		<path class="st12" d="M211.4,257.9c0.7,0,0.7-1.1,0-1.1S210.7,257.9,211.4,257.9L211.4,257.9z"/>
	</g>
	<g>
		<path class="st12" d="M218.8,267.8c0.7,0,0.7-1.1,0-1.1C218.1,266.7,218.1,267.8,218.8,267.8L218.8,267.8z"/>
	</g>
	<g>
		<path class="st12" d="M235.4,253.2c0.7,0,0.7-1.1,0-1.1C234.6,252.1,234.6,253.2,235.4,253.2L235.4,253.2z"/>
	</g>
	<g>
		<path class="st12" d="M45.5,268.4c2.1,0,2.1-3.3,0-3.3C43.4,265.1,43.4,268.4,45.5,268.4L45.5,268.4z"/>
	</g>
	<g>
		<path class="st12" d="M13,254.1c2.1,0,2.1-3.3,0-3.3S10.9,254.1,13,254.1L13,254.1z"/>
	</g>
	<g>
		<path class="st12" d="M-33.4,254.1c2.1,0,2.1-3.3,0-3.3S-35.5,254.1-33.4,254.1L-33.4,254.1z"/>
	</g>
	<g>
		<path class="st12" d="M-18.5,262.9c1.4,0,1.4-2.2,0-2.2C-19.9,260.7-19.9,262.9-18.5,262.9L-18.5,262.9z"/>
	</g>
	<g>
		<path class="st12" d="M78.1,280c1.4,0,1.4-2.2,0-2.2C76.7,277.8,76.7,280,78.1,280L78.1,280z"/>
	</g>
	<g>
		<path class="st12" d="M44.7,253.2c1.4,0,1.4-2.2,0-2.2S43.3,253.2,44.7,253.2L44.7,253.2z"/>
	</g>
	<g>
		<path class="st12" d="M-53.2,245.3c0.7,0,0.7-1.1,0-1.1C-53.9,244.1-53.9,245.3-53.2,245.3L-53.2,245.3z"/>
	</g>
	<g>
		<path class="st12" d="M-33.4,241.7c0.7,0,0.7-1.1,0-1.1C-34.1,240.6-34.1,241.7-33.4,241.7L-33.4,241.7z"/>
	</g>
	<g>
		<path class="st12" d="M-44.9,248.3c0.7,0,0.7-1.1,0-1.1C-45.7,247.2-45.7,248.3-44.9,248.3L-44.9,248.3z"/>
	</g>
	<g>
		<path class="st12" d="M-19.3,246.6c0.7,0,0.7-1.1,0-1.1C-20,245.5-20,246.6-19.3,246.6L-19.3,246.6z"/>
	</g>
	<g>
		<path class="st12" d="M-6,258.2c0.7,0,0.7-1.1,0-1.1C-6.7,257.1-6.7,258.2-6,258.2L-6,258.2z"/>
	</g>
	<g>
		<path class="st12" d="M2,244.7c0.7,0,0.7-1.1,0-1.1S1.3,244.7,2,244.7L2,244.7z"/>
	</g>
	<g>
		<path class="st12" d="M7.2,241.1c0.7,0,0.7-1.1,0-1.1C6.5,240,6.5,241.1,7.2,241.1L7.2,241.1z"/>
	</g>
	<g>
		<path class="st12" d="M21.6,247.5c0.7,0,0.7-1.1,0-1.1C20.8,246.4,20.8,247.5,21.6,247.5L21.6,247.5z"/>
	</g>
	<g>
		<path class="st12" d="M29,257.4c0.7,0,0.7-1.1,0-1.1C28.3,256.3,28.3,257.4,29,257.4L29,257.4z"/>
	</g>
	<g>
		<path class="st12" d="M45.5,242.8c0.7,0,0.7-1.1,0-1.1C44.8,241.7,44.8,242.8,45.5,242.8L45.5,242.8z"/>
	</g>
	<g>
		<path class="st12" d="M177.2,325.4c0.7,0,0.7-1.1,0-1.1C176.5,324.3,176.5,325.4,177.2,325.4L177.2,325.4z"/>
	</g>
	<g>
		<path class="st12" d="M180,338.3c0.7,0,0.7-1.1,0-1.1C179.3,337.2,179.3,338.3,180,338.3L180,338.3z"/>
	</g>
	<g>
		<path class="st12" d="M193,338.9c0.7,0,0.7-1.1,0-1.1S192.3,338.9,193,338.9L193,338.9z"/>
	</g>
	<g>
		<path class="st12" d="M238.7,328.4c0.7,0,0.7-1.1,0-1.1S238,328.4,238.7,328.4L238.7,328.4z"/>
	</g>
	<g>
		<path class="st12" d="M232.1,337c0.7,0,0.7-1.1,0-1.1S231.4,337,232.1,337L232.1,337z"/>
	</g>
	<g>
		<path class="st12" d="M259.9,326.8c0.7,0,0.7-1.1,0-1.1S259.2,326.8,259.9,326.8L259.9,326.8z"/>
	</g>
	<g>
		<path class="st12" d="M268.8,308.9c0.7,0,0.7-1.1,0-1.1S268.1,308.9,268.8,308.9L268.8,308.9z"/>
	</g>
	<g>
		<path class="st12" d="M271.2,326.5c0.7,0,0.7-1.1,0-1.1C270.5,325.4,270.5,326.5,271.2,326.5L271.2,326.5z"/>
	</g>
	<g>
		<path class="st12" d="M215.9,356.8c0.7,0,0.7-1.1,0-1.1S215.2,356.8,215.9,356.8L215.9,356.8z"/>
	</g>
	<g>
		<path class="st12" d="M-53.2,413.4c0.7,0,0.7-1.1,0-1.1C-54,412.3-54,413.4-53.2,413.4L-53.2,413.4z"/>
	</g>
	<g>
		<path class="st12" d="M-24.6,429.5c0.7,0,0.7-1.1,0-1.1S-25.3,429.5-24.6,429.5L-24.6,429.5z"/>
	</g>
	<g>
		<path class="st12" d="M-34.1,442.8c0.7,0,0.7-1.1,0-1.1C-34.9,441.7-34.9,442.8-34.1,442.8L-34.1,442.8z"/>
	</g>
	<g>
		<path class="st12" d="M-81.9,411.9c0.7,0,0.7-1.1,0-1.1C-82.6,410.8-82.6,411.9-81.9,411.9L-81.9,411.9z"/>
	</g>
	<g>
		<path class="st12" d="M-20.9,411c1.4,0,1.4-2.2,0-2.2C-22.3,408.8-22.3,411-20.9,411L-20.9,411z"/>
	</g>
	<g>
		<path class="st12" d="M9.3,413.9c1.4,0,1.4-2.2,0-2.2C7.9,411.7,7.9,413.9,9.3,413.9L9.3,413.9z"/>
	</g>
	<g>
		<path class="st12" d="M91.6,306.6c0,2.1,3.3,2.1,3.3,0S91.6,304.4,91.6,306.6L91.6,306.6z"/>
	</g>
	<g>
		<path class="st12" d="M58,303.6c0,2.8,4.4,2.8,4.4,0C62.4,300.8,58,300.8,58,303.6L58,303.6z"/>
	</g>
	<g>
		<path class="st12" d="M71.2,333.8c0,2.8,4.4,2.8,4.4,0C75.6,330.9,71.2,330.9,71.2,333.8L71.2,333.8z"/>
	</g>
	<g>
		<path class="st12" d="M62.5,257.9c0,2.8,4.4,2.8,4.4,0C66.9,255,62.5,255,62.5,257.9L62.5,257.9z"/>
	</g>
	<g>
		<path class="st12" d="M-33.4,438.5c2.8,0,2.8-4.4,0-4.4S-36.3,438.5-33.4,438.5L-33.4,438.5z"/>
	</g>
	<g>
		<path class="st12" d="M29.3,313.2c0,2.8,4.4,2.8,4.4,0C33.7,310.4,29.3,310.3,29.3,313.2L29.3,313.2z"/>
	</g>
	<g>
		<path class="st12" d="M-82.6,424.9c1.4,0,1.4-2.2,0-2.2C-84.1,422.7-84.1,424.9-82.6,424.9L-82.6,424.9z"/>
	</g>
	<g>
		<path class="st12" d="M-60.6,444.1c1.4,0,1.4-2.2,0-2.2C-62,441.8-62,444.1-60.6,444.1L-60.6,444.1z"/>
	</g>
	<g>
		<path class="st12" d="M-70.1,472c1.4,0,1.4-2.2,0-2.2C-71.6,469.8-71.6,472-70.1,472L-70.1,472z"/>
	</g>
	<g>
		<path class="st12" d="M-103.2,498.4c1.4,0,1.4-2.2,0-2.2C-104.6,496.2-104.6,498.4-103.2,498.4L-103.2,498.4z"/>
	</g>
	<g>
		<path class="st12" d="M10.6,297.8c0,1.4,2.2,1.4,2.2,0C12.8,296.3,10.6,296.3,10.6,297.8L10.6,297.8z"/>
	</g>
	<g>
		<path class="st12" d="M-22.6,302.9c0,1.4,2.2,1.4,2.2,0S-22.6,301.5-22.6,302.9L-22.6,302.9z"/>
	</g>
	<g>
		<path class="st12" d="M112.2,440.4c1.4,0,1.4-2.2,0-2.2S110.8,440.4,112.2,440.4L112.2,440.4z"/>
	</g>
	<g>
		<path class="st12" d="M164.3,407.3c1.4,0,1.4-2.2,0-2.2C162.9,405.1,162.9,407.3,164.3,407.3L164.3,407.3z"/>
	</g>
	<g>
		<path class="st12" d="M94.5,465.4c1.4,0,1.4-2.2,0-2.2S93.1,465.4,94.5,465.4L94.5,465.4z"/>
	</g>
	<g>
		<path class="st12" d="M35,483c1.4,0,1.4-2.2,0-2.2S33.6,483,35,483L35,483z"/>
	</g>
	<g>
		<path class="st12" d="M15.2,505c1.4,0,1.4-2.2,0-2.2S13.8,505,15.2,505L15.2,505z"/>
	</g>
	<g>
		<path class="st12" d="M15.9,538.8c1.4,0,1.4-2.2,0-2.2S14.5,538.8,15.9,538.8L15.9,538.8z"/>
	</g>
	<g>
		<path class="st12" d="M18.9,423.5c1.4,0,1.4-2.2,0-2.2C17.4,421.3,17.4,423.5,18.9,423.5L18.9,423.5z"/>
	</g>
	<g>
		<path class="st12" d="M42.4,409.5c1.4,0,1.4-2.2,0-2.2C41,407.3,40.9,409.5,42.4,409.5L42.4,409.5z"/>
	</g>
	<g>
		<path class="st12" d="M191.6,427.2c1.4,0,1.4-2.2,0-2.2C190.2,424.9,190.2,427.2,191.6,427.2L191.6,427.2z"/>
	</g>
	<g>
		<path class="st12" d="M215.9,403.6c1.4,0,1.4-2.2,0-2.2S214.5,403.6,215.9,403.6L215.9,403.6z"/>
	</g>
	<g>
		<path class="st12" d="M-95.7,320.1c1.4,0,1.4-2.2,0-2.2S-97.1,320.1-95.7,320.1L-95.7,320.1z"/>
	</g>
	<g>
		<path class="st12" d="M259.2,513.9c1.4,0,1.4-2.2,0-2.2C257.8,511.6,257.8,513.9,259.2,513.9L259.2,513.9z"/>
	</g>
	<g>
		<path class="st12" d="M-87.6,357.6c1.4,0,1.4-2.2,0-2.2S-89,357.6-87.6,357.6L-87.6,357.6z"/>
	</g>
	<rect x="-107.3" y="499.1" class="st9" width="380.3" height="111.8"/>
	<g>
		<g>
			<g>
				<path class="st13" d="M-53.3,497.2c0.2-0.1,0.5-0.1,0.7-0.2c0.3,0.6,0.4,1.3,0.3,1.9c0.3,0.1,0.7,0,1-0.1c0.5,1.4,1,2.8,1,4.3
					s-0.5,3-1.6,4c-0.6,0.5-1.2,0.8-1.9,1.1c-1.5,0.6-3.2,0.7-4.8,0.5c0.3-2.8-0.1-5.7-1.2-8.3c-0.4-0.8-1-1.8-1.9-1.7
					c-0.2-1,0.5-2,1.3-2.6c0.9-0.5,1.9-0.7,2.9-0.8c1.1-0.1,2.2-0.1,3.1,0.4c0,0.2,0,0.3-0.2,0.4c0.4,0,0.8-0.2,1.1-0.4
					C-53.3,496.3-53.2,496.8-53.3,497.2z"/>
				<g>
					<path class="st14" d="M-86.4,498.5c-0.7,0.2-1.2,0.7-1.7,1.2c-1.3,1.5-2.1,3.5-2,5.5c0.1,2,0.9,4,2.3,5.4
						c-0.9-0.3-2-0.1-2.6,0.6c-0.6,0.8-0.5,2,0.3,2.6c0.5,0.4,1.1,0.5,1.8,0.5c3.1,0.2,6.2,0.2,9.2,0.1c6.7-0.1,13.5-0.3,20.2-0.4
						c0.8,0,1.7,0,2.4-0.4c0.7-0.4,1.3-1.2,1.1-2c-0.2-0.7-0.9-1.2-1.7-1.3c-0.7-0.1-1.5,0.1-2.2,0.3c0.9-2.1,1.2-4.4,1-6.7
						c-0.1-1.1-0.4-2.2-0.8-3.3c-0.4-0.8-0.8-1.5-1.5-2c-1.4-0.9-3.2-0.8-4.8-0.6c-3.5,0.4-7,0.5-10.5,0.6c-1.2,0-2.4,0.1-3.6-0.1
						c-0.9-0.1-1.8-0.3-2.7-0.4c-1.1-0.1-2.1,0.1-3.2,0.2C-85.8,498.4-86.1,498.4-86.4,498.5z"/>
					<g>
						<g>
							<path class="st13" d="M-83,515.3c0.7,0.1,1.4-0.3,1.8-0.9c0.4-0.6,0.6-1.3,0.6-1.9c0.3-2.4-0.1-4.9-0.5-7.2
								c-0.2-0.9-0.4-1.9-0.7-2.7c-0.3-0.7-0.7-1.3-1-1.9c-1.6-2.9-2.5-6.2-2.6-9.5c-0.5,0.6-0.8,1.3-1,2.1
								c-0.7,2.5-0.8,5.1-0.2,7.6c0.4,1.7,1.2,3.3,1.6,5c0.6,2.2,0.6,4.5,0.6,6.7c0,0.5,0,1,0.1,1.5
								C-84.1,514.7-83.6,515.2-83,515.3z"/>
							<path class="st13" d="M-69.8,512.6c0-1.6,0.3-3.2,1-4.7c0.5-1,1.1-2,1.6-2.9c1.3-2.1,2.6-4.2,3.5-6.4c0.9-2.3,1.4-4.7,1-7.1
								c1.1,2.9,1.4,6,1.1,9c-0.2,2.2-0.8,4.5-1.7,6.5c-0.9,2.2-2.5,4-3.4,6.2c-0.3,0.8-0.7,1.7-1.5,1.8c-0.6,0.1-1.1-0.3-1.4-0.8
								C-69.7,513.7-69.8,513.1-69.8,512.6z"/>
						</g>
						<path class="st15" d="M-84,500.5c0.8,2.3,2.3,4.3,4.2,5.6c0-0.2,0.1-0.3,0.1-0.5c1.8,1.8,3.4,3.7,4.8,5.8
							c1.8-0.6,3.4-1.7,4.9-3c1.4-1.2,2.7-2.6,3.9-4.1c1.8-2.3,3.3-5,3.9-7.9c0.6-2.9,0.1-6.1-1.6-8.5c-1.6,1.7-3.6,2.9-5.8,3.8
							c-0.8,0.4-1.7,0.7-2.6,0.8c-0.7,0.1-1.4,0.1-2.1,0.1c-3.7-0.1-7.4-1.1-10.4-3.4c-2.1,3.6-1.8,8.4,0.6,11.7
							C-84,500.9-84,500.7-84,500.5z"/>
					</g>
				</g>
			</g>
			<g>
				<g>
					<g>
						<path class="st14" d="M-82.4,456.7c-1.4-1.7-3-3.1-4.7-4.4c-2.5-1.9-5-3.7-7.7-5.3c-0.1,0.5-0.1,1.1-0.1,1.7
							c3.8,2.9,6.6,7.3,8.6,11.7c0.4,0.9,0.8,1.9,1.2,2.8c1.2,3.3,1.7,6.8,1.5,10.3c0,0.7-0.1,1.4-0.4,2.1c0.5,0.2,1,0.5,1.5,0.6
							c0.1-1.3,0.9-2.4,1.8-3.3c0.9-0.9,2-1.6,3-2.4C-78.1,465.5-79.3,460.5-82.4,456.7z"/>
						<path class="st16" d="M-85.2,463.1c-0.4-1-0.8-1.9-1.2-2.8c-2-4.4-4.8-8.8-8.6-11.7c0,0.9,0.1,1.8,0.2,2.7
							c0.5,5,1.7,9.9,3.5,14.5c0.8,2.2,1.8,4.3,3.2,6.2c1.1,1.4,2.4,2.6,4,3.4c0.3-0.6,0.3-1.4,0.4-2.1
							C-83.5,469.9-84,466.4-85.2,463.1z"/>
					</g>
					<g>
						<path class="st14" d="M-62.6,466c3.9-7.3,9-14,15.2-19.6c0-0.3,0-0.6-0.1-0.9c-3.3,2.1-6.7,4-9.9,6.2s-6.2,4.8-8.4,7.9
							c-1.6,2.3-2.8,4.8-3.7,7.5c-0.4,1.1-0.7,2.3-0.2,3.3c0.4,0.6,1,1,1.5,1.5c0.6,0.6,1.1,1.4,1.5,2.1c0.4-0.1,0.9-0.3,1.3-0.4
							c0.1-0.9,0.3-1.8,0.6-2.7C-64.3,469.2-63.5,467.6-62.6,466z"/>
						<path class="st16" d="M-62.6,466c-0.8,1.6-1.6,3.2-2.2,4.9c-0.3,0.9-0.5,1.8-0.6,2.7c4-1.4,7.6-3.9,10.3-7.2
							c1.5-1.9,2.8-4,3.9-6.1c0.7-1.2,1.3-2.4,1.4-3.8c-0.2-0.1-0.4-0.3-0.5-0.5c0.4,0,0.7-0.4,0.9-0.8c1.3-2.7,1.9-5.8,1.8-8.8
							C-53.6,452-58.8,458.7-62.6,466z"/>
					</g>
				</g>
				<g>
					<path class="st13" d="M-87.8,482.8c-0.2,0.2-0.4,0.4-0.5,0.7c-0.1,0.3,0,0.7,0.1,1c1.4,3.7,4.7,6.7,8.5,7.9
						c3.8,1.2,8.1,0.8,11.7-1c3.4-1.7,6.3-5,6.5-8.8c-2.2-1.5-3.2-4.1-4.2-6.6c-1-2.4-2.2-5-4.6-6.3c-0.6-0.3-1.3-0.5-2.1-0.7
						s-1.6-0.2-2.4-0.1c-3.2,0.3-5.8,2.9-7.6,5.7C-84.1,477.4-85.5,480.5-87.8,482.8z"/>
					<g>
						<g>
							<g>
								<path class="st17" d="M-75.4,487.5c0.2,0.7,0.3,1.5-0.1,2c-0.1,0.1-0.2,0.2-0.3,0.3c-0.6,0.4-1.3,0.6-2,0.3
									c-0.6-0.3-1.1-1-0.9-1.7"/>
								<path class="st17" d="M-75,487.5c-0.2,0.7-0.3,1.5,0.1,2c0.1,0.1,0.2,0.2,0.3,0.3c0.6,0.4,1.3,0.6,2,0.3
									c0.6-0.3,1.1-1,0.9-1.7"/>
							</g>
							<g>
								<g>
									<path class="st16" d="M-64.9,486c-0.1-0.2-0.4-0.4-0.6-0.5c-0.3-0.1-0.6-0.2-1-0.2c-0.4,0.1-0.8,0.4-1,0.8
										c-0.1,0.2-0.3,0.4-0.3,0.6c-0.1,0.5,0.2,0.9,0.6,1.2c0.4,0.3,1,0.3,1.4,0.2c0.5-0.2,0.8-0.6,1-1.1
										C-64.7,486.7-64.7,486.3-64.9,486z"/>
									<path class="st16" d="M-81.6,486.5c-0.1-0.2-0.4-0.4-0.6-0.5c-0.3-0.1-0.6-0.2-1-0.2c-0.4,0.1-0.8,0.4-1,0.8
										c-0.1,0.2-0.3,0.4-0.3,0.6c-0.1,0.5,0.2,0.9,0.6,1.2c0.4,0.3,1,0.3,1.4,0.2s0.8-0.6,1-1.1
										C-81.4,487.2-81.4,486.8-81.6,486.5z"/>
								</g>
								<g>
									<g>
										<path class="st18" d="M-68,482.2c-0.4,0.1-0.6,0.6-0.4,1c0.2,0.3,0.5,0.4,0.8,0.3c0.3-0.1,0.4-0.5,0.3-0.8
											C-67.3,482.3-67.7,482.1-68,482.2z"/>
										<path class="st18" d="M-81.3,482.5c-0.4,0.1-0.6,0.6-0.4,1c0.2,0.3,0.5,0.4,0.8,0.3c0.3-0.1,0.4-0.5,0.3-0.8
											C-80.6,482.6-81,482.4-81.3,482.5z"/>
									</g>
									<path class="st18" d="M-75.2,487.7c0.3,0,0.7,0,1-0.2c0.2-0.1,0.3-0.2,0.4-0.4c0.2-0.3,0.4-0.6,0.5-1s0-0.7-0.3-1
										c-0.4-0.4-1-0.5-1.5-0.4c-0.3,0-0.5,0.1-0.8,0.1c-0.4,0.1-0.8,0.2-0.9,0.6c-0.1,0.2-0.1,0.4-0.1,0.6
										C-76.9,486.9-76.1,487.6-75.2,487.7z"/>
								</g>
							</g>
						</g>
						<g>
							<g>
								<path class="st17" d="M-72.6,487.4c0.9-0.5,1.9-0.9,2.9-1"/>
								<path class="st17" d="M-72.5,488.1c1-0.2,2-0.3,2.9-0.2"/>
								<path class="st17" d="M-72.5,489.1c0.7,0.1,1.4,0.3,1.9,0.7"/>
							</g>
							<g>
								<path class="st17" d="M-77.4,487.2c-0.8-0.2-1.6-0.4-2.5-0.4"/>
								<path class="st17" d="M-77.4,488c-0.8-0.1-1.7,0-2.5,0.3"/>
								<path class="st17" d="M-77.6,488.9c-0.7,0.3-1.3,0.7-1.8,1.2"/>
							</g>
						</g>
					</g>
				</g>
			</g>
		</g>
	</g>
	<g>
		<g>
			<g>
				<path class="st19" d="M200.6,482.6c-0.6-0.9-0.8-2-0.6-3.1c0.7,1,1.7,1.9,2.8,2.3c0.1-1.4,0.3-2.7,0.7-4
					c1.2,1.5,2.8,2.8,4.7,3.5c0-1.4,0.4-2.8,1.1-4c0.8,0.8,1.7,1.4,2.8,1.8c-0.3-1-0.3-2,0-3c0.9,1.1,2,2.1,3.2,2.8
					c-0.1-1.3,0.2-2.6,0.7-3.7c0.7,1.1,1.3,2.3,1.8,3.5c0.8-1.4,1.4-2.9,1.9-4.4c0.6,3.2,0.6,6.5,0.6,9.7c0,5.9,0.2,12.3,3.7,17
					c1.1,1.5,2.6,2.8,4.4,3.3c0.4,0.8,0.9,1.5,1.3,2.2c-6.1,2.4-13,2.9-19.4,1.4c-4.5-1-9-3.2-11.9-6.9c-3.6-4.6-4.1-10.9-3.4-16.6
					c0.2-2.1,0.6-4.2,0.8-6.3C197,480,198.6,481.5,200.6,482.6z"/>
				<path class="st20" d="M193.4,462.8c2.2-1.5,4.9-2.1,7.5-2.3c5.9-0.3,12.2,1.7,15.7,6.5c1.6,2.2,2.5,4.7,3,7.3
					c-0.5,1.5-1.2,3-1.9,4.4c-0.5-1.2-1.1-2.4-1.8-3.5c-0.5,1.2-0.8,2.5-0.7,3.7c-1.2-0.7-2.3-1.6-3.2-2.8c-0.3,1-0.3,2,0,3
					c-1-0.4-2-1.1-2.8-1.8c-0.7,1.2-1.1,2.6-1.1,4c-1.8-0.7-3.5-1.9-4.7-3.5c-0.4,1.3-0.7,2.6-0.7,4c-1.1-0.5-2.1-1.3-2.8-2.3
					c-0.2,1.1,0,2.2,0.6,3.1c-1.9-1-3.6-2.6-4.8-4.4c0.1-1.5,0.1-3-0.1-4.4c-0.2-1.4-0.8-2.9-1.9-3.9c-1.1-1-2.9-1.3-4-0.4
					C189.6,466.8,191.2,464.3,193.4,462.8z"/>
			</g>
			<g>
				<g>
					<g>
						<g>
							<path class="st21" d="M229.9,508.5c-1.3-1-2.3-2.5-2.6-4.1c-0.1-0.7-0.2-1.4,0.2-2s1.2-0.8,1.9-0.7c0.7,0.1,1.4,0.4,2,0.7
								c-0.9-3.8-0.7-7.8,0.2-11.6s2.4-7.4,4.2-10.9c4.7-0.1,9.5-0.2,14.2-0.3c0.3,0,0.7,0,1,0.2c0.3,0.1,0.5,0.4,0.6,0.6
								c2,2.9,2.5,6.6,2.9,10.1c0.6,4.7,1,9.7-0.6,14.1c0.6-0.8,1.7-1.2,2.6-0.8c0.9,0.4,1.5,1.4,1.3,2.4c-0.2,1.2-1.4,2-2.1,3.1
								c0.1,0,0.3,0,0.4,0c-0.4,0.6-0.7,1.4-0.7,2.1c-1.2-0.1-2.3-0.2-3.5-0.3c-7.5-0.6-15.1-0.1-22.7,0.2c0-1-0.3-1.9-0.7-2.8
								C229.3,508.6,229.6,508.5,229.9,508.5z"/>
							<g>
								<path class="st22" d="M259.1,509.7c0.5,0.1,1.1,0.4,1.1,1s-0.8,0.9-1.5,0.9c-1,0-1.9,0-2.9,0c0-0.8,0.3-1.5,0.7-2.1
									C257.4,509.4,258.3,509.4,259.1,509.7z"/>
								<path class="st22" d="M226.1,509.3c0.9-0.4,1.9-0.6,2.8-0.7c0.4,0.9,0.7,1.8,0.7,2.8c-1.1,0-2.2,0.1-3.3,0.1
									c-0.5,0-1,0-1.3-0.4C224.6,510.4,225.4,509.6,226.1,509.3z"/>
							</g>
						</g>
						<path class="st23" d="M252.9,481.5c0.2,0.6,0.3,1.2,0.3,1.8c0.2,2.8,0.2,5.6-0.4,8.3c-0.1-0.1-0.2-0.3-0.4-0.4
							c-0.1,0.9-0.3,1.8-0.5,2.7c-0.6,2.4-1.9,4.5-3.5,6.4c-1.5,1.9-3.3,3.6-5.1,5.3c-0.1,0.1-0.2,0.1-0.3,0.2c-0.1,0-0.2,0-0.2-0.1
							c-1.3-0.7-2.3-1.8-3.1-3c-1.6-2.2-2.8-4.7-3.6-7.2c-0.1,0.7-0.1,1.3,0.1,2c-1.5-3.3-2.5-6.8-2.8-10.3c0-0.5-0.1-1,0-1.6
							c0.1-0.5,0.3-1,0.5-1.5c0.5-1.1,1-2.3,1.6-3.4c0.1-0.2,0.2-0.4,0.4-0.5c0.2-0.1,0.4-0.2,0.6-0.2c3.2-0.5,6.5-0.1,9.7-0.3
							c1.2-0.1,2.5-0.3,3.7-0.1C251.1,479.8,252.4,480.4,252.9,481.5z"/>
					</g>
					<g>
						<path class="st22" d="M246.8,499.9c0.1-2.6,0.2-5.1,0.3-7.7c0.7-0.2,1.3-0.6,1.8-1c0,6.8-0.3,13.6-0.9,20.4
							c0.5,0.1,1.1,0.2,1.4,0.6c0.4,0.4,0.4,1.1,0,1.4c-0.2,0.1-0.5,0.1-0.7,0.1c-0.7,0-1.4-0.1-2.1-0.1c0-3.9,0.1-7.9,0.3-11.8
							C246.8,501.2,246.8,500.5,246.8,499.9z"/>
						<path class="st22" d="M238.1,491.4c0.5,0.4,1.1,0.7,1.7,1c-0.3,7.1-0.4,14.1-0.4,21.2c-0.6,0.1-1.2,0.2-1.8,0.1
							c-0.3,0-0.7-0.1-1-0.3c-0.4-0.3-0.6-1-0.3-1.5c0.3-0.5,0.9-0.7,1.4-0.4C237.4,505.1,237.2,498.1,238.1,491.4z"/>
					</g>
				</g>
				<g>
					<g>
						<g>
							<path class="st21" d="M243.3,480.2c-0.6-3-2-5.7-3.9-8.1s-4.2-4.3-6.6-6.2c-1.4-1.1-2.9-2.1-4.5-2.9c0.5-0.7,1-1.3,1.5-2
								c0.2-0.3,0.4-0.5,0.5-0.8c0.1-0.4,0.2-0.8,0.2-1.1c0.1-1.4,0.3-2.7,0.6-4c0.1-0.3,0.4-0.5,0.7-0.4c1.5,0.3,2.8,1.4,4,2.5
								c0.3,0.3,0.6,0.6,1,0.7c0.4,0.1,0.8,0.1,1.2,0.1c4.7-0.2,9.4-1.2,14-0.2c0.2,0,0.3,0.1,0.5,0c0.1,0,0.2-0.1,0.2-0.2
								c0.9-1.2,1.9-2.4,2.8-3.6c0.2-0.2,0.5-0.2,0.6,0.1c1.2,3.4,2.9,6.5,4.9,9.4c0.3,0.4,0.5,0.8,0.8,1.2c-3.7,1.1-7.3,2.8-10.5,5
								C247.7,472.4,244.4,475.9,243.3,480.2z"/>
							<path class="st20" d="M222.9,472.4c1.5-3.3,3.3-6.4,5.4-9.3c1.6,0.8,3.1,1.8,4.5,2.9c2.4,1.8,4.7,3.8,6.6,6.2
								c1.9,2.4,3.3,5.1,3.9,8.1c1.1-4.4,4.4-7.9,8.2-10.4c3.2-2.2,6.8-3.9,10.5-5c2.2,3.1,4.5,6.3,5,10.1l-2.1-0.4
								c-0.1,1.2,0.2,2.4,0.9,3.4c-0.8,0.1-1.7,0-2.5-0.1l0.6,2.2c-5.1-0.7-10.4-0.4-15.5,0.9c-1.6,0.4-3.3,0.9-4.7,1.9
								c-0.1,0.1-0.3,0.2-0.5,0.2c-0.2,0-0.5,0-0.7-0.1c-5.7-2.1-11.6-4.4-17.7-4.5c0.8-0.7,1.8-1.2,2.9-1.5
								c-1.1-0.4-2.3-0.5-3.4-0.3c-0.1-1.1,0.5-2.2,1.3-2.8c-1,0-2,0.2-3,0.6C222.3,473.8,222.6,473,222.9,472.4z"/>
						</g>
						<g>
							<path class="st22" d="M232.2,456.3c-0.6,1.2-0.5,2.6-0.4,4c0.5-0.1,1-0.4,1.4-0.7c0.3-0.2,0.5-0.5,0.8-0.6
								c0.3-0.2,0.6-0.3,1-0.3C234.2,457.7,233.3,456.8,232.2,456.3z"/>
							<path class="st22" d="M257.1,459.1c-1-0.3-1.9-0.6-2.9-0.9c0-0.1,0-0.2,0.1-0.3c0.5-0.6,1.1-1.2,1.6-1.9
								C256.2,457.1,256.6,458.1,257.1,459.1z"/>
						</g>
					</g>
					<g>
						<path class="st18" d="M243.4,484.4c-0.6,0.1-1.3,0-1.8-0.5c-0.4-0.4-0.5-1-0.5-1.6c0-0.3,0-0.5,0.1-0.8c0.2-0.8,1.1-1.4,2-1.3
							c0.1,0,0.1,0,0.2,0c0.1,0,0.1,0,0.2,0.1c0.1,0,0.3,0.1,0.4,0.1c0.8,0.3,1.2,1.1,1.3,1.9c0,0.3,0.1,0.6,0,0.9
							C245.1,484,244.2,484.4,243.4,484.4z"/>
						<g>
							<g>
								<path class="st21" d="M233.6,477.8c-0.5,0.4-1.3,0.5-1.8,0.2c-0.6-0.4-0.8-1.2-0.4-1.7c0.2-0.3,0.6-0.5,1-0.5
									c0.3,0,0.7,0,1,0.2c0.3,0.2,0.4,0.5,0.5,0.8c0.1,0.2,0.1,0.3,0.1,0.5C233.9,477.4,233.8,477.6,233.6,477.8z"/>
								<path class="st21" d="M256.2,476.2c0.4-0.1,0.9-0.2,1.3,0.1c0.4,0.2,0.7,0.7,0.6,1.1c-0.1,0.4-0.4,0.7-0.7,0.9
									c-0.4,0.2-0.8,0.4-1.2,0.2c-0.3-0.1-0.5-0.4-0.6-0.7c-0.2-0.4-0.2-0.9,0.1-1.2C255.9,476.4,256,476.3,256.2,476.2z"/>
							</g>
							<g>
								<path class="st18" d="M233.9,472.4c-0.1,0.2-0.4,0.4-0.6,0.4c-0.3,0-0.5-0.2-0.5-0.5c-0.1-0.4,0.3-0.8,0.7-0.8
									C233.8,471.5,234.1,472,233.9,472.4z"/>
								<path class="st18" d="M256.7,473.3c-0.1,0.2-0.4,0.4-0.6,0.4c-0.3,0-0.5-0.2-0.5-0.5c-0.1-0.4,0.3-0.8,0.7-0.8
									S256.9,473,256.7,473.3z"/>
							</g>
						</g>
					</g>
				</g>
			</g>
		</g>
	</g>
	<g>
		<rect x="-35.1" y="294.3" class="st24" width="1.2" height="6.2"/>
		<rect x="-46.5" y="293.3" class="st24" width="1.2" height="7.2"/>
		<ellipse class="st25" cx="-22.9" cy="251.8" rx="17" ry="1.2"/>
		<ellipse class="st25" cx="-56.8" cy="251.8" rx="17" ry="1.2"/>
		<rect x="-40.5" y="252.4" class="st24" width="1.2" height="3.1"/>
		<path class="st26" d="M-46.4,259.2c0,2.6,2.1,4.6,4.6,4.6h3.2c2.6,0,4.6-2.1,4.6-4.6l0,0c0-2.6-2.1-4.6-4.6-4.6h-3.2
			C-44.3,254.6-46.4,256.6-46.4,259.2L-46.4,259.2z"/>
		<path class="st27" d="M-87.4,262.8c0.6-2.4,3-2.9,5.4-2.3l25.8,4.9c3.6-5.3,9.6-8.9,16.5-8.9c11,0,19.9,8.9,19.9,19.9
			s-8.9,19.9-19.9,19.9c-8.3,0-15.4-5.1-18.3-12.2l0,0c-3.5-8.7-13.9-13.8-19.6-15.3l-3.8-0.9l0,0l0,0l-2.6-0.6
			C-86.5,266.6-88,265.2-87.4,262.8z"/>
		<path class="st25" d="M-39.9,272.4c0-1.5,0-16,0-16c0.1,0,0.2,0,0.2,0c11,0,19.9,6.5,19.9,14.5c0,1.5-0.3,2.9-0.9,4.2
			c0,0-12.3,0-15.7,0C-39.7,275.2-39.9,273.9-39.9,272.4z"/>
		<ellipse class="st25" cx="-84.2" cy="256.9" rx="1.2" ry="6.4"/>
		<ellipse class="st25" cx="-84.2" cy="269.7" rx="1.2" ry="6.4"/>
		<circle class="st28" cx="-84.2" cy="263.3" r="1.8"/>
		<circle class="st29" cx="-39.9" cy="251.8" r="1.2"/>
		<path class="st25" d="M-65,299.9h45.6c1.6-0.2,2.8-1.5,2.8-3.1c0-0.5,0.4-0.9,0.9-0.9c0.5,0,0.9,0.4,0.9,0.9
			c0,2.8-2.3,5.1-5.1,5.1c-0.2,0-45.3-0.2-45.3-0.2c-0.5,0-0.8-0.4-0.8-0.8C-66,300.5-65.5,299.9-65,299.9z"/>
		<g id="XMLID_2_">
			<path id="XMLID_23_" class="st9" d="M-42.3,279.8c-0.9,0.1-1.2,1.2-1.2,2l0,0l0,0c0,0.1,0,0.2,0,0.3c0,0.4,0,0.7-0.1,1
				c0,0.1-0.1,0.4-0.1,0.4c-0.3,0-0.6-0.5-0.7-0.7c-0.2-0.6-0.4-1.2-0.5-1.8c-0.1-0.7-0.2-1.4-0.2-2.1c0-0.3,0-0.6,0-0.8
				c0-0.1,0-0.2,0-0.3s0-0.2,0-0.2c0.1-0.5-0.6,0-0.8,0.2c-0.8,1.3-0.5,2.9-0.5,4.4c0,0.4,0,0.8-0.1,1.2c0,0.3-0.1,0.7-0.3,1
				c-0.1,0.1-0.4,0-0.5,0c-0.2-0.1-0.3-0.3-0.3-0.5c0-0.2-0.3-0.1-0.4,0c-0.2,0.2-0.3,0.5-0.3,0.7c0.1,0.5,0.6,1,1.1,0.8
				c0.9-0.3,1.2-1.3,1.4-2.1c0.1-0.4,0.1-0.8,0.2-1.2c0.1,0.6,0.3,1.1,0.6,1.6c0.2,0.4,0.5,0.8,1,0.7c0.4-0.1,0.6-0.4,0.8-0.9
				c0.2,0.4,0.4,0.7,0.9,0.6c0.5,0,0.9-0.6,1-0.9c0.2-0.5,0.3-1,0.3-1.5C-41.1,281.1-41.3,279.7-42.3,279.8z M-42,283.1
				c0,0.1,0,0.2-0.1,0.3c-0.2,0-0.3-0.3-0.4-0.4c-0.1-0.3-0.2-0.7-0.3-1c0-0.4,0-0.7,0-1.1c0-0.1,0-0.2,0.1-0.3
				c0.5,0.3,0.6,0.9,0.6,1.4C-42,282.4-42,282.7-42,283.1z"/>
			<path id="XMLID_20_" class="st9" d="M-30.9,281.1c-1-0.4-1.6,1-1.8,1.8c-0.2,0.7-0.4,2,0.5,2.4c0.4,0.2,0.9-0.1,1.2-0.4
				c0.3-0.3,0.5-0.8,0.6-1.3C-30.1,282.8-29.9,281.5-30.9,281.1z M-31.5,284.5c0,0.1-0.1,0.2-0.1,0.2c-0.1-0.1-0.2-0.4-0.2-0.6
				c-0.1-0.4,0-0.7,0-1.1c0.1-0.3,0.2-0.7,0.3-1c0-0.1,0.1-0.1,0.1-0.2c0.4,0.4,0.3,1.1,0.2,1.6C-31.2,283.8-31.3,284.1-31.5,284.5z
				"/>
			<path id="XMLID_15_" class="st9" d="M-33.7,281.3c0.2-0.3,0.4-0.5,0.6-0.8c0.4-0.6,0.7-1.3,0.7-1.9c0-0.7-0.9-0.7-1.4-0.5
				c-0.7,0.3-1,1-1.2,1.7c-0.3,0.9-0.4,1.8-0.4,2.7l0,0c-0.3,0.4-1,1.2-1.5,0.9c-0.1-0.1-0.2-0.3-0.3-0.4c0.4-0.4,0.8-0.9,1.1-1.4
				c0.3-0.5,0.5-1.3-0.1-1.6c-0.5-0.3-1.1,0-1.5,0.4c-0.3,0.4-0.5,0.9-0.5,1.5c0,0.3-0.1,0.7,0,1.2c-0.3,0.2-0.7,0.3-1,0.2
				c-0.4-0.1-0.5-0.5-0.6-0.8c-0.1-0.5-0.1-1,0-1.5c0-0.1,0.1-0.3,0.1-0.4v-0.1c0.2,0.1,0.3,0.5,0.4,0.7c0.1,0.3,1-0.2,0.9-0.5
				c-0.1-0.3-0.2-0.7-0.6-0.9c-0.4-0.2-0.9,0.1-1.1,0.3c-0.6,0.6-0.7,1.6-0.6,2.4c0,0.5,0.1,1.2,0.6,1.5c0.6,0.4,1.5,0,2.1-0.3
				c0.1,0.4,0.4,0.7,0.9,0.6c0.6-0.1,1.2-0.4,1.6-0.9c0,0.5,0.1,1,0.5,1.2c0.5,0.3,1.2,0,1.6-0.5c0.5-0.6,0.7-1.4,0.5-2.2
				C-33.1,281.5-33.4,281.3-33.7,281.3z M-37.1,280.9c0-0.1,0.1-0.3,0.2-0.4l0,0c0.3,0.1,0.3,0.4,0.3,0.6c0,0.4-0.3,0.8-0.6,1.1
				c0-0.1,0-0.1,0-0.2C-37.3,281.7-37.3,281.3-37.1,280.9z M-33.8,279c0.1-0.1,0.1-0.3,0.3-0.4l0,0c0.4,0.4,0,1.1-0.2,1.5
				c-0.2,0.4-0.5,0.8-0.7,1.2c0.1-0.4,0.1-0.8,0.2-1.2C-34.1,279.7-34,279.4-33.8,279z M-34,283.7c0,0-0.1,0.1-0.1,0.2h-0.1
				c-0.3-0.1-0.3-0.7-0.3-0.9c0-0.2,0-0.4,0-0.6c0.1-0.1,0.2-0.2,0.3-0.4c0.2-0.1,0.4,0.1,0.4,0.4C-33.7,282.8-33.8,283.4-34,283.7z
				"/>
		</g>
	</g>
</g>
</svg>
