<?xml version="1.0" encoding="utf-8"?>
<!-- Generator: Adobe Illustrator 19.0.0, SVG Export Plug-In . SVG Version: 6.00 Build 0)  -->
<svg version="1.1" id="Layer_1" xmlns="http://www.w3.org/2000/svg" xmlns:xlink="http://www.w3.org/1999/xlink" x="0px" y="0px"
	 viewBox="120 -173 380 380" style="enable-background:new 120 -173 380 380;" xml:space="preserve">
<rect x="120" y="-173" style="fill:none;" width="380" height="380"/>
<rect x="120" y="-173" style="fill:#183C50;" width="380" height="380"/>
<rect x="120" y="-173" style="fill:none;" width="380" height="380"/>
<rect x="119.5" y="123.6" style="fill:#FFFFFF;" width="380.5" height="83.4"/>
<rect x="120" y="-173" style="fill:none;" width="380" height="380"/>
<g>
	<path style="fill:#FFFFFF;" d="M123.4,123.6h37C160.4,123.6,139.9,109.4,123.4,123.6z"/>
	<path style="fill:#FFFFFF;" d="M463.8,124.7h37C501,124.7,480.3,110.6,463.8,124.7z"/>
	<path style="fill:#FFFFFF;" d="M172.4,123.6h13.9C186.2,123.6,179.2,115,172.4,123.6z"/>
	<path style="fill:#FFFFFF;" d="M210.7,124.1H245C245,124.1,228,114.5,210.7,124.1z"/>
	<path style="fill:#FFFFFF;" d="M329.6,123.5h25.2C354.9,123.5,342.2,114.9,329.6,123.5z"/>
	<path style="fill:#FFFFFF;" d="M383.4,123.9h13.9C397.1,123.9,390.2,115.4,383.4,123.9z"/>
</g>
<rect x="120" y="-173" style="fill:none;" width="380" height="380"/>
<g style="opacity:0.6;">
	<circle style="fill:#FFFFFF;" cx="160.1" cy="-130.2" r="2.1"/>
	<circle style="fill:#FFFFFF;" cx="253" cy="-100.9" r="2.1"/>
	<circle style="fill:#FFFFFF;" cx="220" cy="-144.8" r="2.1"/>
	<circle style="fill:#FFFFFF;" cx="263.7" cy="-115.1" r="2.1"/>
	<circle style="fill:#FFFFFF;" cx="197.6" cy="-148.1" r="2.1"/>
	<circle style="fill:#FFFFFF;" cx="154.6" cy="-159.1" r="2.1"/>
	<circle style="fill:#FFFFFF;" cx="160.1" cy="-150.6" r="2.1"/>
	<circle style="fill:#FFFFFF;" cx="357.5" cy="-148.6" r="2.1"/>
	<circle style="fill:#FFFFFF;" cx="130.4" cy="-158.6" r="2.1"/>
	<circle style="fill:#FFFFFF;" cx="339.9" cy="-124.6" r="2.1"/>
	<circle style="fill:#FFFFFF;" cx="329.1" cy="-47.1" r="2.1"/>
	<circle style="opacity:0.1;fill:#FFFFFF;enable-background:new    ;" cx="340.6" cy="-92.5" r="2.1"/>
	<circle style="fill:#FFFFFF;" cx="362.1" cy="-158" r="2.1"/>
	<circle style="fill:#FFFFFF;" cx="295.4" cy="-136.9" r="2.1"/>
	<circle style="fill:#FFFFFF;" cx="131.1" cy="-103" r="2.1"/>
	<circle style="fill:#FFFFFF;" cx="324.2" cy="-139.1" r="3"/>
	<circle style="fill:#FFFFFF;" cx="316.6" cy="-124.6" r="3"/>
	<circle style="opacity:0.5;fill:#FFFFFF;enable-background:new    ;" cx="289.5" cy="-121.6" r="3"/>
	<circle style="opacity:0.5;fill:#FFFFFF;enable-background:new    ;" cx="327.8" cy="-155.3" r="3"/>
	<circle style="opacity:0.1;fill:#FFFFFF;enable-background:new    ;" cx="348.5" cy="-77.9" r="3"/>
	<circle style="opacity:0.1;fill:#FFFFFF;enable-background:new    ;" cx="310.4" cy="-95.2" r="3"/>
	<circle style="opacity:0.5;fill:#FFFFFF;enable-background:new    ;" cx="351.5" cy="-109.2" r="3"/>
	<circle style="opacity:0.5;fill:#FFFFFF;enable-background:new    ;" cx="216.1" cy="-106.2" r="3"/>
	<circle style="opacity:0.1;fill:#FFFFFF;enable-background:new    ;" cx="373.2" cy="-85.9" r="3"/>
	<circle style="opacity:0.5;fill:#FFFFFF;enable-background:new    ;" cx="280.1" cy="-142" r="3"/>
	<circle style="opacity:0.5;fill:#FFFFFF;enable-background:new    ;" cx="209.5" cy="-128.9" r="3"/>
	<circle style="opacity:0.5;fill:#FFFFFF;enable-background:new    ;" cx="181.1" cy="-131.9" r="3"/>
	<circle style="opacity:0.5;fill:#FFFFFF;enable-background:new    ;" cx="185.4" cy="-104.5" r="3"/>
	<circle style="opacity:0.5;fill:#FFFFFF;enable-background:new    ;" cx="170.9" cy="-79.8" r="3"/>
	<circle style="opacity:0.5;fill:#FFFFFF;enable-background:new    ;" cx="177.7" cy="-161" r="3"/>
	<circle style="opacity:0.5;fill:#FFFFFF;enable-background:new    ;" cx="139.6" cy="-124.6" r="3"/>
	<circle style="opacity:0.5;fill:#FFFFFF;enable-background:new    ;" cx="150.4" cy="-76.7" r="3"/>
	<circle style="opacity:0.1;fill:#FFFFFF;enable-background:new    ;" cx="273.6" cy="-83.3" r="3"/>
	<circle style="fill:#FFFFFF;" cx="223.1" cy="-122.5" r="3"/>
	<circle style="fill:#FFFFFF;" cx="237.5" cy="-139" r="3"/>
	<circle style="fill:#FFFFFF;" cx="188.6" cy="-82.8" r="3"/>
	<circle style="fill:#FFFFFF;" cx="340.6" cy="-150.6" r="3"/>
	<circle style="fill:#FFFFFF;" cx="134.9" cy="-143" r="3"/>
	<circle style="fill:#FFFFFF;" cx="261.7" cy="-136" r="3"/>
	<circle style="fill:#FFFFFF;" cx="167.9" cy="-100.9" r="3"/>
	<circle style="fill:#FFFFFF;" cx="183.2" cy="-150.2" r="2.1"/>
	<circle style="opacity:0.3;fill:#FFFFFF;enable-background:new    ;" cx="195.4" cy="-123.4" r="2.1"/>
	<circle style="opacity:0.3;fill:#FFFFFF;enable-background:new    ;" cx="148.6" cy="-152.3" r="2.1"/>
	<circle style="opacity:0.3;fill:#FFFFFF;enable-background:new    ;" cx="148.6" cy="-112.3" r="2.1"/>
	<circle style="opacity:0.3;fill:#FFFFFF;enable-background:new    ;" cx="273.6" cy="-114.4" r="2.1"/>
	<circle style="opacity:0.3;fill:#FFFFFF;enable-background:new    ;" cx="230.2" cy="-100.9" r="2.1"/>
	<circle style="opacity:0.3;fill:#FFFFFF;enable-background:new    ;" cx="205.4" cy="-97.9" r="2.1"/>
	<circle style="opacity:0.3;fill:#FFFFFF;enable-background:new    ;" cx="286.4" cy="-154.4" r="2.1"/>
	<circle style="opacity:0.3;fill:#FFFFFF;enable-background:new    ;" cx="205.4" cy="-167.8" r="2.1"/>
	<circle style="opacity:0.3;fill:#FFFFFF;enable-background:new    ;" cx="170.9" cy="-167" r="2.1"/>
	<circle style="opacity:0.1;fill:#FFFFFF;enable-background:new    ;" cx="301.1" cy="-98.7" r="2.1"/>
	<circle style="opacity:0.3;fill:#FFFFFF;enable-background:new    ;" cx="270.1" cy="-63.1" r="2.1"/>
	<circle style="opacity:0.1;fill:#FFFFFF;enable-background:new    ;" cx="231.1" cy="-74.6" r="2.1"/>
	<circle style="opacity:0.3;fill:#FFFFFF;enable-background:new    ;" cx="181.1" cy="-65.4" r="2.1"/>
	<circle style="opacity:0.3;fill:#FFFFFF;enable-background:new    ;" cx="148.6" cy="-79.8" r="2.1"/>
	<circle style="opacity:0.1;fill:#FFFFFF;enable-background:new    ;" cx="364.2" cy="-72.9" r="2.1"/>
	<circle style="opacity:0.3;fill:#FFFFFF;enable-background:new    ;" cx="362.2" cy="-130.2" r="2.1"/>
	<circle style="opacity:0.3;fill:#FFFFFF;enable-background:new    ;" cx="310.4" cy="-147.5" r="2.1"/>
	<circle style="opacity:0.3;fill:#FFFFFF;enable-background:new    ;" cx="248.5" cy="-70.3" r="2.1"/>
	<circle style="opacity:0.3;fill:#FFFFFF;enable-background:new    ;" cx="240" cy="-126.7" r="2.1"/>
	<circle style="fill:#FFFFFF;" cx="395.8" cy="-117.1" r="2.1"/>
	<circle style="fill:#FFFFFF;" cx="489.5" cy="-150.7" r="2.1"/>
	<circle style="fill:#FFFFFF;" cx="471.8" cy="-126.6" r="2.1"/>
	<circle style="fill:#FFFFFF;" cx="472.5" cy="-94.5" r="2.1"/>
	<circle style="fill:#FFFFFF;" cx="494" cy="-160" r="2.1"/>
	<circle style="fill:#FFFFFF;" cx="427.4" cy="-138.9" r="2.1"/>
	<circle style="fill:#FFFFFF;" cx="456.1" cy="-141.1" r="3"/>
	<circle style="fill:#FFFFFF;" cx="448.6" cy="-126.6" r="3"/>
	<circle style="opacity:0.5;fill:#FFFFFF;enable-background:new    ;" cx="421.5" cy="-123.6" r="3"/>
	<circle style="opacity:0.5;fill:#FFFFFF;enable-background:new    ;" cx="459.8" cy="-157.3" r="3"/>
	<circle style="opacity:0.5;fill:#FFFFFF;enable-background:new    ;" cx="442.4" cy="-97.2" r="3"/>
	<circle style="opacity:0.5;fill:#FFFFFF;enable-background:new    ;" cx="483.5" cy="-111.2" r="3"/>
	<circle style="opacity:0.5;fill:#FFFFFF;enable-background:new    ;" cx="484.5" cy="-51.2" r="3"/>
	<circle style="opacity:0.5;fill:#FFFFFF;enable-background:new    ;" cx="412" cy="-144.1" r="3"/>
	<circle style="opacity:0.1;fill:#FFFFFF;enable-background:new    ;" cx="405.6" cy="-85.3" r="3"/>
	<circle style="fill:#FFFFFF;" cx="472.5" cy="-152.6" r="3"/>
	<circle style="fill:#FFFFFF;" cx="478.5" cy="-72.7" r="3"/>
	<circle style="fill:#FFFFFF;" cx="393.8" cy="-138.1" r="3"/>
	<circle style="opacity:0.3;fill:#FFFFFF;enable-background:new    ;" cx="405.6" cy="-116.4" r="2.1"/>
	<circle style="opacity:0.3;fill:#FFFFFF;enable-background:new    ;" cx="418.4" cy="-156.4" r="2.1"/>
	<circle style="opacity:0.3;fill:#FFFFFF;enable-background:new    ;" cx="433" cy="-100.7" r="2.1"/>
	<circle style="opacity:0.3;fill:#FFFFFF;enable-background:new    ;" cx="265.9" cy="-155.3" r="2.1"/>
	<path style="opacity:0.3;fill:#FFFFFF;enable-background:new    ;" d="M494.2-134.3c-1.2,0-2.1,0.9-2.1,2.1s0.9,2.1,2.1,2.1
		c0.9,0,1.6-0.5,2-1.3v-1.6C495.8-133.8,495.2-134.3,494.2-134.3z"/>
	<circle style="opacity:0.3;fill:#FFFFFF;enable-background:new    ;" cx="442.4" cy="-149.5" r="2.1"/>
	<circle style="opacity:0.1;fill:#FFFFFF;enable-background:new    ;" cx="380.4" cy="-72.3" r="2.1"/>
	<circle style="opacity:0.3;fill:#FFFFFF;enable-background:new    ;" cx="371.9" cy="-128.7" r="2.1"/>
	<circle style="fill:#FFFFFF;" cx="159.8" cy="-66.9" r="2.1"/>
	<circle style="fill:#FFFFFF;" cx="252.5" cy="-37.6" r="2.1"/>
	<circle style="fill:#FFFFFF;" cx="250.9" cy="-55.3" r="2.1"/>
	<circle style="fill:#FFFFFF;" cx="340.2" cy="-29.2" r="2.1"/>
	<circle style="fill:#FFFFFF;" cx="130.6" cy="-39.7" r="2.1"/>
	<circle style="opacity:0.1;fill:#FFFFFF;enable-background:new    ;" cx="311.6" cy="-72.4" r="3"/>
	<circle style="opacity:0.5;fill:#FFFFFF;enable-background:new    ;" cx="286" cy="-63.3" r="3"/>
	<circle style="opacity:0.5;fill:#FFFFFF;enable-background:new    ;" cx="348" cy="-14.7" r="3"/>
	<circle style="opacity:0.5;fill:#FFFFFF;enable-background:new    ;" cx="310" cy="-31.9" r="3"/>
	<circle style="opacity:0.5;fill:#FFFFFF;enable-background:new    ;" cx="351" cy="-45.9" r="3"/>
	<circle style="opacity:0.5;fill:#FFFFFF;enable-background:new    ;" cx="215.7" cy="-42.9" r="3"/>
	<circle style="opacity:0.5;fill:#FFFFFF;enable-background:new    ;" cx="372.9" cy="-22.6" r="3"/>
	<circle style="opacity:0.5;fill:#FFFFFF;enable-background:new    ;" cx="209.1" cy="-65.6" r="3"/>
	<circle style="opacity:0.5;fill:#FFFFFF;enable-background:new    ;" cx="180.7" cy="-68.6" r="3"/>
	<circle style="opacity:0.5;fill:#FFFFFF;enable-background:new    ;" cx="184.9" cy="-41.3" r="3"/>
	<circle style="opacity:0.5;fill:#FFFFFF;enable-background:new    ;" cx="165.4" cy="-6.4" r="3"/>
	<circle style="opacity:0.5;fill:#FFFFFF;enable-background:new    ;" cx="139.2" cy="-61.3" r="3"/>
	<circle style="opacity:0.5;fill:#FFFFFF;enable-background:new    ;" cx="150.4" cy="-3.3" r="3"/>
	<circle style="fill:#FFFFFF;" cx="273.2" cy="-20" r="3"/>
	<circle style="fill:#FFFFFF;" cx="222.9" cy="-59.2" r="3"/>
	<circle style="fill:#FFFFFF;" cx="188.2" cy="-19.6" r="3"/>
	<circle style="fill:#FFFFFF;" cx="366.9" cy="-44" r="3"/>
	<circle style="fill:#FFFFFF;" cx="167.5" cy="-37.6" r="3"/>
	<circle style="opacity:0.3;fill:#FFFFFF;enable-background:new    ;" cx="195.1" cy="-60.1" r="2.1"/>
	<circle style="opacity:0.3;fill:#FFFFFF;enable-background:new    ;" cx="148.2" cy="-49" r="2.1"/>
	<circle style="opacity:0.3;fill:#FFFFFF;enable-background:new    ;" cx="273.2" cy="-51.1" r="2.1"/>
	<circle style="opacity:0.3;fill:#FFFFFF;enable-background:new    ;" cx="230" cy="-37.6" r="2.1"/>
	<circle style="opacity:0.3;fill:#FFFFFF;enable-background:new    ;" cx="205" cy="-34.6" r="2.1"/>
	<circle style="opacity:0.3;fill:#FFFFFF;enable-background:new    ;" cx="300.8" cy="-35.4" r="2.1"/>
	<circle style="opacity:0.3;fill:#FFFFFF;enable-background:new    ;" cx="230.7" cy="-11.3" r="2.1"/>
	<circle style="opacity:0.3;fill:#FFFFFF;enable-background:new    ;" cx="180.7" cy="-2.2" r="2.1"/>
	<circle style="opacity:0.3;fill:#FFFFFF;enable-background:new    ;" cx="148.2" cy="-16.5" r="2.1"/>
	<circle style="opacity:0.3;fill:#FFFFFF;enable-background:new    ;" cx="363.9" cy="-9.6" r="2.1"/>
	<circle style="opacity:0.3;fill:#FFFFFF;enable-background:new    ;" cx="248" cy="-7" r="2.1"/>
	<circle style="opacity:0.3;fill:#FFFFFF;enable-background:new    ;" cx="239.5" cy="-63.4" r="2.1"/>
	<circle style="fill:#FFFFFF;" cx="384.5" cy="-39.7" r="2.1"/>
	<circle style="fill:#FFFFFF;" cx="406.4" cy="-92.5" r="2.1"/>
	<circle style="fill:#FFFFFF;" cx="395.4" cy="-53.9" r="2.1"/>
	<circle style="fill:#FFFFFF;" cx="471.5" cy="-63.3" r="2.1"/>
	<circle style="fill:#FFFFFF;" cx="397.5" cy="-1.2" r="2.1"/>
	<circle style="fill:#FFFFFF;" cx="472.2" cy="-31.2" r="2.1"/>
	<circle style="fill:#FFFFFF;" cx="448.2" cy="-63.3" r="3"/>
	<circle style="opacity:0.5;fill:#FFFFFF;enable-background:new    ;" cx="421" cy="-60.3" r="3"/>
	<circle style="opacity:0.5;fill:#FFFFFF;enable-background:new    ;" cx="415.1" cy="-76.8" r="3"/>
	<circle style="opacity:0.5;fill:#FFFFFF;enable-background:new    ;" cx="487.5" cy="-32.5" r="3"/>
	<circle style="opacity:0.5;fill:#FFFFFF;enable-background:new    ;" cx="442" cy="-33.9" r="3"/>
	<circle style="fill:#FFFFFF;" cx="405.2" cy="-22" r="3"/>
	<circle style="fill:#FFFFFF;" cx="478.2" cy="-9.4" r="3"/>
	<circle style="opacity:0.3;fill:#FFFFFF;enable-background:new    ;" cx="405.2" cy="-53.1" r="2.1"/>
	<circle style="opacity:0.3;fill:#FFFFFF;enable-background:new    ;" cx="432.8" cy="-37.4" r="2.1"/>
	<circle style="opacity:0.3;fill:#FFFFFF;enable-background:new    ;" cx="242" cy="-157" r="2.1"/>
	<circle style="opacity:0.3;fill:#FFFFFF;enable-background:new    ;" cx="380" cy="-9" r="2.1"/>
	<circle style="opacity:0.3;fill:#FFFFFF;enable-background:new    ;" cx="371.5" cy="-65.5" r="2.1"/>
	<circle style="fill:#FFFFFF;" cx="290.4" cy="31.1" r="2.1"/>
	<circle style="fill:#FFFFFF;" cx="278.9" cy="-14.3" r="2.1"/>
	<circle style="opacity:0.5;fill:#FFFFFF;enable-background:new    ;" cx="271" cy="0.3" r="3"/>
	<circle style="opacity:0.5;fill:#FFFFFF;enable-background:new    ;" cx="309.1" cy="-17" r="3"/>
	<circle style="opacity:0.5;fill:#FFFFFF;enable-background:new    ;" cx="246.2" cy="-7.7" r="3"/>
	<circle style="opacity:0.5;fill:#FFFFFF;enable-background:new    ;" cx="448.5" cy="-1.6" r="3"/>
	<circle style="opacity:0.5;fill:#FFFFFF;enable-background:new    ;" cx="469" cy="1.5" r="3"/>
	<circle style="fill:#FFFFFF;" cx="345.9" cy="-5.1" r="3"/>
	<circle style="fill:#FFFFFF;" cx="430.9" cy="-4.6" r="3"/>
	<circle style="opacity:0.3;fill:#FFFFFF;enable-background:new    ;" cx="349.4" cy="15.1" r="2.1"/>
	<circle style="opacity:0.3;fill:#FFFFFF;enable-background:new    ;" cx="388.4" cy="3.6" r="2.1"/>
	<circle style="opacity:0.3;fill:#FFFFFF;enable-background:new    ;" cx="435.8" cy="19.9" r="2.1"/>
	<circle style="opacity:0.3;fill:#FFFFFF;enable-background:new    ;" cx="462.8" cy="-14" r="2.1"/>
	<circle style="opacity:0.3;fill:#FFFFFF;enable-background:new    ;" cx="255.2" cy="5.3" r="2.1"/>
	<circle style="opacity:0.3;fill:#FFFFFF;enable-background:new    ;" cx="371" cy="7.9" r="2.1"/>
	<circle style="fill:#FFFFFF;" cx="221.6" cy="13.8" r="2.1"/>
	<circle style="fill:#FFFFFF;" cx="146.9" cy="-16.3" r="2.1"/>
	<circle style="opacity:0.5;fill:#FFFFFF;enable-background:new    ;" cx="177.2" cy="-19" r="3"/>
	<circle style="opacity:0.5;fill:#FFFFFF;enable-background:new    ;" cx="134.9" cy="27" r="3"/>
	<circle style="fill:#FFFFFF;" cx="213.9" cy="-7.1" r="3"/>
	<circle style="fill:#FFFFFF;" cx="140.9" cy="5.5" r="3"/>
	<circle style="opacity:0.3;fill:#FFFFFF;enable-background:new    ;" cx="217.5" cy="13" r="2.1"/>
	<circle style="opacity:0.3;fill:#FFFFFF;enable-background:new    ;" cx="239.1" cy="5.9" r="2.1"/>
	<circle style="fill:#FFFFFF;" cx="459.8" cy="11.3" r="2.1"/>
	<circle style="fill:#FFFFFF;" cx="367" cy="40.6" r="2.1"/>
	<circle style="fill:#FFFFFF;" cx="368.8" cy="22.9" r="2.1"/>
	<circle style="fill:#FFFFFF;" cx="280" cy="16.9" r="2.1"/>
	<circle style="fill:#FFFFFF;" cx="279.2" cy="49" r="2.1"/>
	<circle style="fill:#FFFFFF;" cx="488.8" cy="38.4" r="2.1"/>
	<circle style="fill:#FFFFFF;" cx="303.2" cy="16.9" r="3"/>
	<circle style="opacity:0.5;fill:#FFFFFF;enable-background:new    ;" cx="330.5" cy="19.9" r="3"/>
	<circle style="opacity:0.5;fill:#FFFFFF;enable-background:new    ;" cx="271.5" cy="63.5" r="3"/>
	<circle style="opacity:0.5;fill:#FFFFFF;enable-background:new    ;" cx="309.5" cy="46.3" r="3"/>
	<circle style="opacity:0.5;fill:#FFFFFF;enable-background:new    ;" cx="268.5" cy="32.3" r="3"/>
	<circle style="opacity:0.5;fill:#FFFFFF;enable-background:new    ;" cx="403.8" cy="35.3" r="3"/>
	<circle style="opacity:0.5;fill:#FFFFFF;enable-background:new    ;" cx="246.6" cy="55.6" r="3"/>
	<circle style="opacity:0.5;fill:#FFFFFF;enable-background:new    ;" cx="410.4" cy="12.6" r="3"/>
	<circle style="opacity:0.5;fill:#FFFFFF;enable-background:new    ;" cx="438.8" cy="9.6" r="3"/>
	<circle style="opacity:0.5;fill:#FFFFFF;enable-background:new    ;" cx="434.5" cy="36.9" r="3"/>
	<circle style="opacity:0.5;fill:#FFFFFF;enable-background:new    ;" cx="449" cy="61.7" r="3"/>
	<circle style="opacity:0.5;fill:#FFFFFF;enable-background:new    ;" cx="480.2" cy="16.9" r="3"/>
	<circle style="opacity:0.5;fill:#FFFFFF;enable-background:new    ;" cx="469.5" cy="64.8" r="3"/>
	<circle style="fill:#FFFFFF;" cx="346.2" cy="58.2" r="3"/>
	<circle style="fill:#FFFFFF;" cx="396.6" cy="19" r="3"/>
	<circle style="fill:#FFFFFF;" cx="431.2" cy="58.6" r="3"/>
	<circle style="fill:#FFFFFF;" cx="252.6" cy="34.2" r="3"/>
	<circle style="fill:#FFFFFF;" cx="452" cy="40.6" r="3"/>
	<circle style="opacity:0.3;fill:#FFFFFF;enable-background:new    ;" cx="424.5" cy="18.1" r="2.1"/>
	<circle style="opacity:0.3;fill:#FFFFFF;enable-background:new    ;" cx="471.3" cy="29.2" r="2.1"/>
	<circle style="opacity:0.3;fill:#FFFFFF;enable-background:new    ;" cx="346.2" cy="27.1" r="2.1"/>
	<circle style="opacity:0.3;fill:#FFFFFF;enable-background:new    ;" cx="389.5" cy="40.6" r="2.1"/>
	<circle style="opacity:0.3;fill:#FFFFFF;enable-background:new    ;" cx="414.5" cy="43.6" r="2.1"/>
	<circle style="opacity:0.3;fill:#FFFFFF;enable-background:new    ;" cx="318.8" cy="42.8" r="2.1"/>
	<circle style="opacity:0.3;fill:#FFFFFF;enable-background:new    ;" cx="388.8" cy="66.9" r="2.1"/>
	<circle style="opacity:0.3;fill:#FFFFFF;enable-background:new    ;" cx="438.8" cy="76" r="2.1"/>
	<circle style="opacity:0.3;fill:#FFFFFF;enable-background:new    ;" cx="471.2" cy="61.7" r="2.1"/>
	<circle style="opacity:0.3;fill:#FFFFFF;enable-background:new    ;" cx="255.6" cy="68.6" r="2.1"/>
	<circle style="opacity:0.3;fill:#FFFFFF;enable-background:new    ;" cx="257.6" cy="11.3" r="2.1"/>
	<circle style="opacity:0.3;fill:#FFFFFF;enable-background:new    ;" cx="371.5" cy="71.2" r="2.1"/>
	<circle style="opacity:0.3;fill:#FFFFFF;enable-background:new    ;" cx="380" cy="14.7" r="2.1"/>
	<circle style="fill:#FFFFFF;" cx="235" cy="38.5" r="2.1"/>
	<circle style="fill:#FFFFFF;" cx="224.1" cy="24.3" r="2.1"/>
	<circle style="fill:#FFFFFF;" cx="148.1" cy="14.9" r="2.1"/>
	<circle style="fill:#FFFFFF;" cx="222" cy="77" r="2.1"/>
	<circle style="fill:#FFFFFF;" cx="147.2" cy="47" r="2.1"/>
	<circle style="fill:#FFFFFF;" cx="171.2" cy="14.9" r="3"/>
	<circle style="opacity:0.5;fill:#FFFFFF;enable-background:new    ;" cx="198.4" cy="17.9" r="3"/>
	<circle style="opacity:0.5;fill:#FFFFFF;enable-background:new    ;" cx="131.9" cy="45.7" r="3"/>
	<circle style="opacity:0.5;fill:#FFFFFF;enable-background:new    ;" cx="177.5" cy="44.3" r="3"/>
	<circle style="fill:#FFFFFF;" cx="214.2" cy="56.2" r="3"/>
	<circle style="fill:#FFFFFF;" cx="141.4" cy="68.8" r="3"/>
	<circle style="opacity:0.3;fill:#FFFFFF;enable-background:new    ;" cx="214.2" cy="25.1" r="2.1"/>
	<circle style="opacity:0.3;fill:#FFFFFF;enable-background:new    ;" cx="186.9" cy="40.8" r="2.1"/>
	<circle style="opacity:0.3;fill:#FFFFFF;enable-background:new    ;" cx="239.5" cy="69.1" r="2.1"/>
	<circle style="opacity:0.3;fill:#FFFFFF;enable-background:new    ;" cx="248" cy="12.7" r="2.1"/>
	<circle style="opacity:0.5;fill:#FFFFFF;enable-background:new    ;" cx="347.6" cy="84.3" r="3"/>
	<circle style="opacity:0.5;fill:#FFFFFF;enable-background:new    ;" cx="165" cy="92.6" r="3"/>
	<circle style="opacity:0.5;fill:#FFFFFF;enable-background:new    ;" cx="150.1" cy="95.6" r="3"/>
	<circle style="opacity:0.3;fill:#FFFFFF;enable-background:new    ;" cx="230.4" cy="87.6" r="2.1"/>
	<circle style="opacity:0.3;fill:#FFFFFF;enable-background:new    ;" cx="180.4" cy="96.8" r="2.1"/>
	<circle style="opacity:0.3;fill:#FFFFFF;enable-background:new    ;" cx="147.9" cy="82.4" r="2.1"/>
	<circle style="opacity:0.3;fill:#FFFFFF;enable-background:new    ;" cx="363.5" cy="89.3" r="2.1"/>
	<circle style="opacity:0.3;fill:#FFFFFF;enable-background:new    ;" cx="247.6" cy="91.9" r="2.1"/>
	<circle style="fill:#FFFFFF;" cx="397" cy="97.8" r="2.1"/>
	<circle style="fill:#FFFFFF;" cx="477.8" cy="89.5" r="3"/>
	<circle style="opacity:0.3;fill:#FFFFFF;enable-background:new    ;" cx="379.6" cy="89.9" r="2.1"/>
	<circle style="fill:#FFFFFF;" cx="290" cy="130.1" r="2.1"/>
	<circle style="fill:#FFFFFF;" cx="278.5" cy="84.7" r="2.1"/>
	<circle style="opacity:0.5;fill:#FFFFFF;enable-background:new    ;" cx="270.6" cy="99.2" r="3"/>
	<circle style="opacity:0.5;fill:#FFFFFF;enable-background:new    ;" cx="308.8" cy="82" r="3"/>
	<circle style="opacity:0.5;fill:#FFFFFF;enable-background:new    ;" cx="245.9" cy="91.3" r="3"/>
	<circle style="opacity:0.5;fill:#FFFFFF;enable-background:new    ;" cx="448.1" cy="97.3" r="3"/>
	<circle style="opacity:0.5;fill:#FFFFFF;enable-background:new    ;" cx="468.7" cy="100.4" r="3"/>
	<circle style="fill:#FFFFFF;" cx="345.5" cy="93.9" r="3"/>
	<circle style="fill:#FFFFFF;" cx="430.5" cy="94.3" r="3"/>
	<circle style="opacity:0.3;fill:#FFFFFF;enable-background:new    ;" cx="349" cy="114" r="2.1"/>
	<circle style="opacity:0.3;fill:#FFFFFF;enable-background:new    ;" cx="388" cy="102.6" r="2.1"/>
	<circle style="opacity:0.3;fill:#FFFFFF;enable-background:new    ;" cx="435.4" cy="118.9" r="2.1"/>
	<circle style="opacity:0.3;fill:#FFFFFF;enable-background:new    ;" cx="462.5" cy="85" r="2.1"/>
	<circle style="opacity:0.3;fill:#FFFFFF;enable-background:new    ;" cx="254.9" cy="104.3" r="2.1"/>
	<circle style="opacity:0.3;fill:#FFFFFF;enable-background:new    ;" cx="370.6" cy="106.8" r="2.1"/>
	<circle style="fill:#FFFFFF;" cx="221.2" cy="112.7" r="2.1"/>
	<circle style="fill:#FFFFFF;" cx="146.6" cy="82.7" r="2.1"/>
	<circle style="opacity:0.5;fill:#FFFFFF;enable-background:new    ;" cx="134.6" cy="125.9" r="3"/>
	<circle style="fill:#FFFFFF;" cx="213.5" cy="91.8" r="3"/>
	<circle style="fill:#FFFFFF;" cx="140.6" cy="104.5" r="3"/>
	<circle style="opacity:0.3;fill:#FFFFFF;enable-background:new    ;" cx="217" cy="112" r="2.1"/>
	<circle style="opacity:0.3;fill:#FFFFFF;enable-background:new    ;" cx="238.7" cy="104.8" r="2.1"/>
	<circle style="fill:#FFFFFF;" cx="459.3" cy="110.2" r="2.1"/>
	<circle style="fill:#FFFFFF;" cx="366.5" cy="139.5" r="2.1"/>
	<circle style="fill:#FFFFFF;" cx="368.4" cy="121.9" r="2.1"/>
	<circle style="fill:#FFFFFF;" cx="279.5" cy="115.8" r="2.1"/>
	<circle style="fill:#FFFFFF;" cx="278.9" cy="147.9" r="2.1"/>
	<circle style="fill:#FFFFFF;" cx="488.5" cy="137.4" r="2.1"/>
	<circle style="fill:#FFFFFF;" cx="302.9" cy="115.8" r="3"/>
	<circle style="opacity:0.5;fill:#FFFFFF;enable-background:new    ;" cx="330" cy="118.9" r="3"/>
	<circle style="opacity:0.5;fill:#FFFFFF;enable-background:new    ;" cx="271" cy="162.5" r="3"/>
	<circle style="opacity:0.5;fill:#FFFFFF;enable-background:new    ;" cx="309.1" cy="145.2" r="3"/>
	<circle style="opacity:0.5;fill:#FFFFFF;enable-background:new    ;" cx="268" cy="131.2" r="3"/>
	<circle style="opacity:0.5;fill:#FFFFFF;enable-background:new    ;" cx="403.4" cy="134.2" r="3"/>
	<circle style="opacity:0.5;fill:#FFFFFF;enable-background:new    ;" cx="246.2" cy="154.5" r="3"/>
	<circle style="opacity:0.5;fill:#FFFFFF;enable-background:new    ;" cx="410" cy="111.5" r="3"/>
	<circle style="opacity:0.5;fill:#FFFFFF;enable-background:new    ;" cx="438.4" cy="108.5" r="3"/>
	<circle style="opacity:0.5;fill:#FFFFFF;enable-background:new    ;" cx="434.1" cy="135.9" r="3"/>
	<circle style="opacity:0.5;fill:#FFFFFF;enable-background:new    ;" cx="448.5" cy="160.6" r="3"/>
	<circle style="opacity:0.5;fill:#FFFFFF;enable-background:new    ;" cx="479.8" cy="115.8" r="3"/>
	<circle style="opacity:0.5;fill:#FFFFFF;enable-background:new    ;" cx="469" cy="163.7" r="3"/>
	<circle style="fill:#FFFFFF;" cx="345.9" cy="157.1" r="3"/>
	<circle style="fill:#FFFFFF;" cx="396.2" cy="117.9" r="3"/>
	<circle style="fill:#FFFFFF;" cx="430.9" cy="157.6" r="3"/>
	<circle style="fill:#FFFFFF;" cx="252.2" cy="133.1" r="3"/>
	<circle style="fill:#FFFFFF;" cx="451.5" cy="139.5" r="3"/>
	<circle style="opacity:0.3;fill:#FFFFFF;enable-background:new    ;" cx="424" cy="117" r="2.1"/>
	<circle style="opacity:0.3;fill:#FFFFFF;enable-background:new    ;" cx="470.8" cy="128.1" r="2.1"/>
	<circle style="opacity:0.3;fill:#FFFFFF;enable-background:new    ;" cx="345.9" cy="126" r="2.1"/>
	<circle style="opacity:0.3;fill:#FFFFFF;enable-background:new    ;" cx="389.1" cy="139.5" r="2.1"/>
	<circle style="opacity:0.3;fill:#FFFFFF;enable-background:new    ;" cx="414.1" cy="142.5" r="2.1"/>
	<circle style="opacity:0.3;fill:#FFFFFF;enable-background:new    ;" cx="318.4" cy="141.7" r="2.1"/>
	<circle style="opacity:0.3;fill:#FFFFFF;enable-background:new    ;" cx="388.4" cy="165.8" r="2.1"/>
	<circle style="opacity:0.3;fill:#FFFFFF;enable-background:new    ;" cx="438.4" cy="175" r="2.1"/>
	<circle style="opacity:0.3;fill:#FFFFFF;enable-background:new    ;" cx="470.8" cy="160.6" r="2.1"/>
	<circle style="opacity:0.3;fill:#FFFFFF;enable-background:new    ;" cx="255.2" cy="167.5" r="2.1"/>
	<circle style="opacity:0.3;fill:#FFFFFF;enable-background:new    ;" cx="257.2" cy="110.2" r="2.1"/>
	<circle style="opacity:0.3;fill:#FFFFFF;enable-background:new    ;" cx="371" cy="170.1" r="2.1"/>
	<circle style="opacity:0.3;fill:#FFFFFF;enable-background:new    ;" cx="379.5" cy="113.7" r="2.1"/>
	<circle style="fill:#FFFFFF;" cx="234.5" cy="137.5" r="2.1"/>
	<circle style="fill:#FFFFFF;" cx="223.7" cy="123.3" r="2.1"/>
	<circle style="fill:#FFFFFF;" cx="147.6" cy="113.8" r="2.1"/>
	<circle style="fill:#FFFFFF;" cx="221.6" cy="176" r="2.1"/>
	<circle style="fill:#FFFFFF;" cx="146.9" cy="145.9" r="2.1"/>
	<circle style="fill:#FFFFFF;" cx="170.9" cy="113.8" r="3"/>
	<circle style="opacity:0.5;fill:#FFFFFF;enable-background:new    ;" cx="198.1" cy="116.8" r="3"/>
	<circle style="opacity:0.5;fill:#FFFFFF;enable-background:new    ;" cx="131.6" cy="144.6" r="3"/>
	<circle style="opacity:0.5;fill:#FFFFFF;enable-background:new    ;" cx="177.1" cy="143.2" r="3"/>
	<circle style="fill:#FFFFFF;" cx="213.9" cy="155.1" r="3"/>
	<circle style="fill:#FFFFFF;" cx="140.9" cy="167.7" r="3"/>
	<circle style="opacity:0.3;fill:#FFFFFF;enable-background:new    ;" cx="213.9" cy="124" r="2.1"/>
	<circle style="opacity:0.3;fill:#FFFFFF;enable-background:new    ;" cx="186.4" cy="139.7" r="2.1"/>
	<circle style="opacity:0.3;fill:#FFFFFF;enable-background:new    ;" cx="239" cy="168.1" r="2.1"/>
	<circle style="opacity:0.3;fill:#FFFFFF;enable-background:new    ;" cx="247.5" cy="111.7" r="2.1"/>
</g>
<rect x="120" y="-173" style="fill:none;" width="380" height="380"/>
<g>
	<g>
		<g>
			<path style="fill:#2D2C2C;" d="M180.9-133.1c-2.4-4.4-10.8-18.2-31.2-14.8c-9,1.5-19.6,3.6-29.8,6.7v84.5
				c0.7-0.1,1.5-0.2,2.2-0.3c18.5-3.6,40.8-25.7,54.8-41.7C190.6-114.4,183.7-128.1,180.9-133.1z"/>
			<path style="fill:#2D2C2C;" d="M151.9-74.5c0,0,14.8,8.6,20.7,3.1c5.9-5.5-8.3-14.6-8.3-14.6L151.9-74.5z"/>
			<path style="fill:#2D2C2C;" d="M127.8-157.7c-3.4,0.3-6.1,3.6-7.9,7.2v9.9l13.1-1.2C133-141.8,135.8-158.4,127.8-157.7z"/>
		</g>
		<path style="fill:#3CC0D6;" d="M194.5-121.3c3-7.9,8.5-19.3,6.6-23.2l0,0c0,0,0-0.1-0.1-0.1c0,0,0-0.1-0.1-0.1l0,0
			c-2.3-3.7-14.8-5-23.2-6.7c-8.5-1.6-12.4,2-12.4,2l12.9,17.4l7.9,20.1C186.4-111.8,191.4-113.2,194.5-121.3z"/>
		<path style="fill:#2B90A1;" d="M200.9-138.1l-1.1-0.6c0,0-4,6.7-6.7,11.7c-2.8,4.9-5.4,6.2-5.4,6.2l-1.8,7.8l0.5,1.2
			c0,0,5.1-1.4,8.2-9.5C196.6-126.4,199.6-133,200.9-138.1z"/>
		<g>
			<circle style="fill:#F4F4F4;" cx="200.6" cy="-144.1" r="9.3"/>
			<path style="fill:#E0DCDC;" d="M205.1-135.9c4.5-2.5,6.1-8.2,3.6-12.7c-1-1.9-2.6-3.2-4.4-4c7.3,14-6.6,17.5-6.6,17.5
				C200.1-134.4,202.7-134.6,205.1-135.9z"/>
		</g>
		<g>
			<path style="fill:#F4F4F4;" d="M159.8-151.2c0,0-2.4-3-4.1,0.3c-1.8,3.3,2.4,5.5,3.5,5c0,0-0.6,3.7,3.2,5.6c0,0,3.4,7.5,6.8,6.9
				c0,0-0.8,7.3,5.4,10.1c0,0-1.2,5.5,3.1,9.9c0,0-0.9,5.3,3.5,6.4c0,0,2.3,5.3,5.5,1.4c0,0,4.7-1,4.2-4.4s-4.6-4.5-4.6-4.5
				s2.6-4,1-7c-1.7-3-4.9-3.7-4.9-3.7s2.4-5.2,0-8.3c-2.4-3.1-6.4-4-6.4-4s1.9-3.8-0.7-7.1c-2.5-3.2-7.1-0.7-7.1-0.7s0.8-5-2.1-7.1
				C163.2-154.4,159.8-151.2,159.8-151.2z"/>
			<path style="fill:#E0DCDC;" d="M181.2-107.1c0,0,2.3,5.3,5.5,1.4c0,0,4.7-1,4.2-4.4s-4.6-4.5-4.6-4.5s2.2-3.4,1.3-6.2l0,0
				c-5.4,8.1-12.7,2.8-12.7,2.8c0.5,1.5,1.3,3.1,2.7,4.5C177.7-113.4,176.7-108.1,181.2-107.1z"/>
		</g>
		<g>
			<path style="fill:#F5F5F5;" d="M172-115c-0.7-6.9-7.8-8.9-7.8-8.9s2-7-3.5-11.3c-5.4-4.3-14.3,0.9-23.7,2.2
				c-5,0.7-10.9,0.1-17.1,0.4v67.1c5.2,0.2,10.4-1,15.3-3.8c12.4-6.9,16.4-19.5,22.4-26.8S172.8-108.2,172-115z"/>
			<path style="fill:#E0DCDC;" d="M172-115c-0.2-1.4-0.6-2.6-1.2-3.7c1,9.4-14.1,13.8-18.9,18c-4.8,4.2-9.8,17.6-25.4,23.9
				c-2.2,0.9-4.4,1.3-6.6,1.4v9.8c5.2,0.2,10.4-1,15.3-3.8c12.4-6.9,16.4-19.5,22.4-26.8S172.8-108.2,172-115z"/>
			<g>
				<g>
					<circle style="fill:#58483B;" cx="153.4" cy="-126.8" r="1.6"/>
					<circle style="fill:#58483B;" cx="160.9" cy="-113.2" r="1.6"/>
				</g>
				<g>
					<path style="fill:#FCB259;" d="M150.4-115.5c0,0-2.7-4.4-5.7-5c0,0-5,6.6-3.1,9.9c1.9,3.4,10.1,2.6,10.1,2.6
						C152.8-110.9,150.4-115.5,150.4-115.5z"/>
					<path style="fill:#F2A149;" d="M141.6-114.6c-0.5,1.5-0.6,2.9,0,4.1c1.9,3.4,10.1,2.6,10.1,2.6c0.3-0.7,0.3-1.6,0.3-2.4
						C145.8-109.2,141.6-114.6,141.6-114.6L141.6-114.6z"/>
				</g>
			</g>
		</g>
		<g>
			<path style="fill:#3CC0D6;" d="M130.9-94.7c-2.4,2.9-6.5,5.8-11,8.5v26.8c12.8-6.5,23.2-20.2,23.2-20.2L130.9-94.7z"/>
		</g>
		<g>
			<path style="fill:#2B90A1;" d="M135.8-71.4c1.2-1.2,2.4-2.4,3.3-3.5c-5.9-3.4-12-12.1-13.8-14.8c-1.1,0.8-2.3,1.6-3.6,2.4
				C125.4-80,132.8-73.8,135.8-71.4z"/>
			<path style="fill:#2B90A1;" d="M119.9-82.4v11.2c2.4,3.1,4.9,5.8,6.7,7.7c2-1.4,3.8-2.9,5.5-4.5
				C126.9-71.8,122.6-78.1,119.9-82.4z"/>
			<path style="fill:#2B90A1;" d="M119.9-59.4c1.3-0.7,2.5-1.4,3.7-2.2c-1.3-1-2.5-2.3-3.7-3.7V-59.4z"/>
		</g>
		<path style="fill:#3CC0D6;" d="M160.3-83.8c0,0-11.5-12-19.9-26.5c-7.9-14.8-12-30.9-12-30.9c0.6-5.7-3.4-1.1-8.5-4.2v46.1
			c0.1,0.1,0.2,0.3,0.2,0.4c5.6,11,15.2,22.3,31.3,31.2c0-0.1,8.5,5.2,8-5.9C159.1-80.3,165.6-81.2,160.3-83.8z"/>
		<g>
			<path style="fill:#2B90A1;" d="M128.6-140.8c-1.1-0.6-5.3,0.7-8.7-0.4v4.7c1.6,0.5,3.3,0.8,5.1,0.3c1.8-0.4,3.6-0.3,4.9-0.1
				C129.2-138.5,128.8-140.1,128.6-140.8z"/>
			<path style="fill:#2B90A1;" d="M130.8-133.5c-3.7,1.2-7.2,1.9-10.9,0.9v5c0.6,0.1,1.1,0.2,1.7,0.3c3.1,0.5,8.2-1.2,10.6-2.1
				C131.6-130.9,131.1-132.3,130.8-133.5z"/>
			<path style="fill:#2B90A1;" d="M133.4-126c-4,3.2-9.8,3.6-13.5,2.8v4.6c1.2,0,2.5,0.1,3.8,0.4c5.6,1.1,11.5-3.3,11.5-3.3
				C134.6-123,134-124.6,133.4-126z"/>
			<path style="fill:#2B90A1;" d="M137.1-117c-2.5,2.2-11.5,4.4-14.9,3.7c-0.7-0.1-1.5-0.2-2.3-0.2v6.9c2.2,0,4.9,0,7.5,0
				c5.3-0.1,12.5-4.9,12.5-4.9C138.9-113.2,138.1-115.1,137.1-117z"/>
			<path style="fill:#2B90A1;" d="M142.3-107.3c0,0-7.1,6-13.5,6c-5.2,0.1-8,0.8-8.9,1.2v0.8c0.1,0.1,0.1,0.2,0.1,0.3
				c0.9,1.7,1.8,3.5,2.9,5.2c0,0,5.2-1.3,10.7-1.8c5.3-0.5,11.7-7.1,11.7-7.1C144.3-104.2,143.3-105.7,142.3-107.3z"/>
			<path style="fill:#2B90A1;" d="M143.9-86.1c5-1.6,8.8-6.5,8.8-6.5l0,0c-1.2-1.5-2.6-3.2-3.9-5.1c-2.8,3-9.5,7.1-13.7,7.6
				c-4.1,0.5-7.2,3.1-7.2,3.2c1.5,1.8,3.1,3.6,4.9,5.4C135.6-84,138.9-84.5,143.9-86.1z"/>
			<path style="fill:#2B90A1;" d="M148.4-81.7c-6.4,2.9-9.8,5.4-9.8,5.5c2.2,1.8,4.6,3.5,7.2,5.2c0,0,4.7-5.9,8.2-7.5
				s6.3-5.2,6.3-5.2s-1.7-1.8-4.3-4.8C156.1-88.6,154.9-84.7,148.4-81.7z"/>
			<path style="fill:#2B90A1;" d="M159.4-73.6c-0.2-4.9,3.2-6.7,3-8.3c-1.5,1.6-5.3,6.1-6.3,8.2s-4.1,4.8-5.3,5.7
				c0.2,0.1,0.3,0.2,0.5,0.3C151.4-67.8,159.9-62.5,159.4-73.6z"/>
		</g>
	</g>
	<path id="XMLID_52_" style="fill:#F4F4F4;" d="M161.9-52c0,0,14.4-7.9,22.3-12.3c7.9-4.4,9.1-9.2,9.1-9.2c5.3-1.8,5.5-5,5.5-5
		l1.8-1l-4.1-7.4l-1.8,1l0,0c0,0-2.8-1.5-7.1,2c0,0-4.8-1.6-12.7,2.7c-7.9,4.3-22.3,12.3-22.3,12.3s-4.9,2.3-3,5.8
		c0.5,1,1,1.8,1.3,2.4c1,1.8,1.4,2.6,1.4,2.6l0.3,0.5L154-55c0.4,0.7,0.8,1.5,1.3,2.4C157.1-49,161.9-52,161.9-52z"/>
	<path id="XMLID_51_" style="fill:#D6D6D6;" d="M203.2-81.5l-1.8-3.2l-0.2-0.3l-1.8-3.2c0,0-0.4-0.9-1.1-0.6
		c-0.6,0.3-2.5,1.4-2.5,1.4l2.2,4.1l0.2,0.3l2.2,4.1c0,0,1.9-1,2.5-1.4C203.9-80.6,203.2-81.5,203.2-81.5z"/>
	<path id="XMLID_50_" style="fill:#EAEAEA;" d="M161.9-52c0,0,14.4-7.9,22.3-12.3c7.9-4.4,9.1-9.2,9.1-9.2c5.3-1.8,5.5-5,5.5-5
		l1.8-1l-2-3.7l-46.1,25.3l0.1,0.2l1.4,2.6c0.4,0.7,0.8,1.5,1.3,2.4C157.1-49,161.9-52,161.9-52z"/>
	<path id="XMLID_49_" style="fill:#FFFFFF;" d="M178.9-79.8c0-0.1,0-0.1-0.1-0.1c-0.2-0.6,0-1.2,0.6-1.4c3.4-1.3,6.3-0.9,6.4-0.9
		c0.5,0.1,0.9,0.6,0.9,1.3c-0.1,0.5-0.6,0.9-1.3,0.9c0,0-2.3-0.4-5.2,0.7C179.7-79.1,179.1-79.3,178.9-79.8z"/>
	<circle id="XMLID_88_" style="fill:#DA1B51;" cx="173.5" cy="-69.4" r="5.4"/>
	<circle id="XMLID_87_" style="fill:#62BA47;" cx="167.2" cy="-70.8" r="1.7"/>
	<path id="XMLID_39_" style="fill:#DA1B51;" d="M178.1-74.7c-0.3,0.2-0.8,0-0.9-0.3c-0.2-0.3,0-0.8,0.3-0.9c0.3-0.2,0.8,0,0.9,0.3
		S178.4-74.9,178.1-74.7L178.1-74.7z"/>
	<path id="XMLID_38_" style="fill:#62BA47;" d="M176.1-73.6c-0.4,0.2-0.9,0-1.2-0.3c-0.2-0.4,0-0.9,0.3-1.2c0.4-0.2,0.9,0,1.2,0.3
		C176.6-74.4,176.5-73.8,176.1-73.6L176.1-73.6z"/>
	<path id="XMLID_37_" style="fill:#62BA47;" d="M176.1-76.3c-0.2,0.1-0.6,0-0.7-0.2c-0.1-0.2,0-0.6,0.2-0.7c0.2-0.1,0.6,0,0.7,0.2
		C176.4-76.8,176.4-76.5,176.1-76.3L176.1-76.3z"/>
	<circle id="XMLID_36_" style="fill:#62BA47;" cx="180" cy="-67.6" r="3"/>
</g>
<rect x="120" y="-173" style="fill:none;" width="380" height="380"/>
<g>
	<g>
		<g>
			<g>
				<g>
					<g>
						<polygon style="fill:#C4996C;" points="500.1,52.1 498.8,51.5 495.8,58.5 500.1,60.5 						"/>
					</g>
					<g>
						<path style="fill:#2D2C2C;" d="M439,66c0,0-5.9-0.7-7.4-2.9c-1.5-2.1,0.1-6.5,2.3-6.4c2.2,0.2,2.5,0.4,1.9-1.7
							c0,0,0.8-2.1,3.4,0.3c1.9,1.8,3,3.4,3,3.4L439,66z"/>
						<polygon style="fill:#C4996C;" points="461.3,74.8 439,66 442,58.6 464.2,67.7 						"/>
					</g>
				</g>
				<g>
					<g>
						<path style="fill:#2D2C2C;" d="M480,124.8c0,0-3.3,1.8-4.7,5.1h3.5l2-1.5v1.5h5.6c0,0,0.5-2.7-0.2-5L480,124.8z"/>
						<g>
							<path style="fill:#C4996C;" d="M492.7,113.8l-0.4,0.1l-24-3.9c0,0,0.8,15,13.4,15h4.7c0,0,4.6-11.1,6-11.1
								c0.1,0,0.2,0.1,0.4,0.2C492.5,114,492.7,113.9,492.7,113.8z"/>
							<path style="fill:#BA8C63;" d="M475.5,111.7c0.6,7.2,5.7,12.8,6.8,13.3h-0.7c-11.8,0-13.2-13.2-13.4-14.8L475.5,111.7z"/>
						</g>
					</g>
					<g>
						<g>
							<g>
								<path style="fill:#AF805A;" d="M500.1,52.4c-0.4-0.4-0.7-0.7-1-1.1c-9.3-9.9-23.4-5-24.2-4.7c-0.8,0.4-14.6,5.9-15.1,19.5
									c-0.5,14-1.9,35.1,6.1,44.5c7.9,9,22.6,5.2,33,1.4c0.1-0.1,0.3-0.1,0.4-0.2c0.1-0.1,0.3-0.1,0.4-0.2
									c0.1-0.1,0.3-0.1,0.4-0.2V52.4z"/>
								<path style="fill:#9E704D;" d="M500.1,109.1c-5.2,1.1-10.8,1.3-14.1-1c-7.7-5.4-15-41.3-11.1-53.2c1.4-4.4-1.5-5.4-5.7-5
									c-4.2,3-9,8.3-9.2,16.3c-0.5,14-2,35.1,6.1,44.4c7.9,9,22.6,5.2,33,1.4c0.1-0.1,0.3-0.1,0.4-0.2c0.1-0.1,0.3-0.1,0.4-0.2
									c0.1,0,0.2-0.1,0.2-0.1V109.1z"/>
							</g>
							<g>
								<path style="fill:#D1B29D;" d="M500.1,64.8c-0.3-0.3-0.6-0.7-0.9-1c-7.3-7.8-19.1-3.7-19.1-3.7c-0.6,0.2-11.5,4.6-11.9,15.3
									c-0.4,11.1-3,24,3.4,31.2c6.2,7.1,17.8,4.1,26,1.1c0.1,0,0.2-0.1,0.3-0.1s0.2-0.1,0.3-0.1c0.6-0.2,1.3-0.5,1.9-0.8V64.8z"/>
								<path style="fill:#BFA28E;" d="M480.5,99.4c2.2,7.4,6.4,9.9,9.9,10.6c-6.9,1.7-14.4,1.9-18.9-3.3
									c-6.4-7.3-3.8-20.2-3.4-31.2c0.2-5.4,3.1-9.2,6-11.7C473.8,79,476.8,86.8,480.5,99.4z"/>
							</g>
						</g>
						<g>
							<g>
								<g>
									<path style="fill:#885520;" d="M459.5,10.8c0,0-7.8-4.5-7.9-6.3c-0.2-1.9,0.1-13.5-3-14.6s-2.8,2.6-2.8,6
										c0,3.5-1.8,6.4-2.9,3.3c-1.1-3.1-3.6-10.8-6.2-13.6c-2.7-2.8-5.2,0.1-3.7,3.4s2.7,6.6,1.4,7.4c-2.1,1.3-4.6-1.2-5.4-4.4
										c-0.8-3.1-1.5-9.6-3.7-12s-7.3-2-6.9,5.4c0.4,7.3,4.7,10.4,7.2,12.4c2.4,2,2.5,3.4,0.7,3.7c-1.9,0.3-7.6,1.4-6.3,4.9
										c1.1,2.9,4,2.5,7.3,1.2c3.4-1.3,7.7-2.4,8.5-1s-4.1,4-5.6,5.5s-1.4,4.5,2.1,4.4s7.1-4.6,9.5-4.4s5.3-0.4,13.1,4.9
										L459.5,10.8z"/>
									<path style="fill:#724318;" d="M430.2,12.1c0.3-0.3,0.8-0.7,1.4-1.2l0,0c-0.1,2,0.9,4,3.1,2.6c2.2-1.3,7-4.2,9.8-4.4
										c2.8-0.2,11,4.8,11,4.8l-0.8,2.9c-7.6-5.2-10.6-4.6-12.9-4.8c-2.4-0.2-6,4.3-9.5,4.4C428.9,16.6,428.8,13.6,430.2,12.1z"/>
								</g>
								<g>
									<path style="fill:#885520;" d="M463.7,9.3c0,0,2.9-8.5,1.8-10c-1.1-1.5-8.9-10.1-7.3-13c1.7-2.9,3.8,0.1,6.1,2.7
										c2.3,2.6,5.6,3.7,4.4,0.6s-4.4-10.5-4.2-14.3c0.2-3.9,4-3.3,5.1,0.2c1,3.5,2.3,6.7,3.8,6.5c2.5-0.4,2.6-3.9,1.2-6.8
										c-1.5-2.9-5.1-8.2-5.1-11.5s4.2-6.3,8.7-0.5s3.2,10.9,2.7,14s0.3,4.2,1.9,3.2c1.6-1,6.6-3.9,8-0.4c1.1,2.9-1.4,4.5-4.8,5.7
										s-7.4,3.3-7.1,4.9c0.3,1.6,5.7,0.3,7.8,0.5c2.1,0.2,4,2.5,1.3,4.7s-8.4,1.2-10,2.9c-1.6,1.7-4.3,3.2-6.6,12.3L463.7,9.3z"
										/>
									<path style="fill:#724318;" d="M486.7-9c-0.5,0-1.1,0-1.8,0.1l0,0c1.4,1.4,1.9,3.6-0.6,4s-8.1,1.4-10.3,3.1
										C471.8-0.1,468.9,9,468.9,9l2.6,1.7c2.3-8.9,4.9-10.4,6.6-12.1c1.6-1.7,7.3-0.7,10-2.9C490.7-6.6,488.8-8.8,486.7-9z"/>
								</g>
							</g>
							<g>
								<g>
									<g>
										<path style="fill:#C4996C;" d="M474.5,10.7c0,0,8.3-21.3,18.1-13.5c9.3,7.5-12.7,17.4-12.7,17.4L474.5,10.7z"/>
										<path style="fill:#885520;" d="M476.7,11.8c0,0,7.4-12,10.6-10.2c3.1,1.8-9.8,12.1-9.8,12.1L476.7,11.8z"/>
									</g>
									<g>
										<path style="fill:#C4996C;" d="M451,19.5c0,0-20.3-10.6-22.5,1.7c-2.1,11.7,21,4.7,21,4.7L451,19.5z"/>
										<path style="fill:#885520;" d="M450.2,21.7c0,0-13.5-4.2-14.7-0.8s15.4,2.7,15.4,2.7L450.2,21.7z"/>
									</g>
								</g>
								<g>
									<g>
										<path style="fill:#C4996C;" d="M500.1,39.2c-3.4-9.1-11.4-18.8-17.8-25.7c-8.1-8.7-20.5-4.4-21.2-4.1
											c-0.7,0.3-12.9,5.2-13.3,17.1c-0.4,12.3,0.2,30.1,7.3,38.1c6.9,7.9,17.8,5.4,26.9,2c0.2,0,0.3-0.1,0.4-0.1
											c0.2,0,0.3-0.1,0.4-0.1c6.8-2.6,14.1-6.2,17.3-12.3V39.2z"/>
										<path style="fill:#BA8C63;" d="M455.2,64.7c-7.1-8.1-7.8-25.9-7.4-38.2c0.3-9.8,8.6-14.8,12-16.5
											c-12.8,8.5-8.9,27.2-8.4,34.1c0.5,7,5.7,20.9,19.1,20.9c13.4,0,29.2-10,29.2-10l0,0c-3.4,5.5-10.3,8.9-16.8,11.4l0,0
											c-0.1,0-0.2,0.1-0.4,0.1c-0.1,0-0.2,0.1-0.4,0.1l0,0C473,70.1,462.2,72.6,455.2,64.7z"/>
									</g>
									<g>
										<g>
											<g>
												<circle style="fill:#58483B;" cx="475.2" cy="27.3" r="1.4"/>
												<circle style="fill:#58483B;" cx="462.2" cy="32.1" r="1.4"/>
											</g>
											
												<ellipse transform="matrix(0.9365 -0.3507 0.3507 0.9365 13.4907 169.7436)" style="fill:#E02D43;" cx="475.4" cy="47.6" rx="16.4" ry="10.3"/>
										</g>
										<path style="fill:#C61836;" d="M460.2,53.4c-1.5-4,1.1-8.9,6.1-12.5c-3.5,4.3-1.5,11.1,6.8,11.5c9.3,0.5,18-6.7,18-6.7
											c-0.8,4.5-5.4,9.2-12,11.6C470.5,60.5,462.2,58.7,460.2,53.4z"/>
									</g>
								</g>
							</g>
						</g>
					</g>
				</g>
			</g>
		</g>
		<g>
			<path style="fill:#724318;" d="M419.9,6.5c-0.4-1.1-0.1-1.9,0.5-2.6c1.5,5.3,10.8,1.1,13,0.5s2.4,2.2,2.4,2.2
				c-0.8-1.4-5.2-0.3-8.5,1C423.9,9,421,9.4,419.9,6.5z"/>
			<path style="fill:#724318;" d="M418.4-14.4c-0.4-6.1,3.2-7.4,5.6-6.3c-3.3,0.5-3.8,3.8-3.7,6.9c0.1,3.1,2,7,4.1,9.1
				c2.1,2.1,2.9,4.5,2.9,4.5l0,0c-0.3-0.5-0.9-1.2-1.7-1.9C423-4.1,418.8-7.1,418.4-14.4z"/>
		</g>
	</g>
	<g>
		<path style="fill:#724318;" d="M490.8-20c-0.4-1.1-1.2-1.5-2-1.6c2.3,5-7.4,8-9.5,8.9c-2.1,1-0.4,3.3-0.4,3.3
			c-0.3-1.6,3.7-3.6,7.1-4.9C489.3-15.6,491.8-17.1,490.8-20z"/>
		<path style="fill:#724318;" d="M478.2-36.8c-3.7-4.8-7.3-3.5-8.4-1.1c2.9-1.8,5.4,0.4,7.3,2.8s3.1,6.6,2.9,9.6
			c-0.2,2.9,0.8,5.3,0.8,5.3l0,0c-0.1-0.6-0.1-1.5,0.1-2.6C481.3-25.9,482.7-31,478.2-36.8z"/>
	</g>
</g>
</svg>
