<?xml version="1.0" encoding="utf-8"?>
<!-- Generator: Adobe Illustrator 19.0.0, SVG Export Plug-In . SVG Version: 6.00 Build 0)  -->
<svg version="1.1" id="Layer_1" xmlns="http://www.w3.org/2000/svg" xmlns:xlink="http://www.w3.org/1999/xlink" x="0px" y="0px"
	 viewBox="-44 -8 50 50" style="enable-background:new -44 -8 50 50;" xml:space="preserve">
<circle style="fill:#183C50;" cx="-19" cy="17" r="25"/>
<circle style="fill:none;" cx="-19" cy="17" r="25"/>
<g>
	<path style="fill:#2D2C2C;" d="M-27.4,31.3c-0.3,0.2-0.6,0.3-1,0.5c-0.1,0-0.1,0-0.2,0.1c-0.2,0.1-0.3,0.3-0.5,0.4
		c-0.4,0.3-0.8,0.7-1.3,1c0,0,0,0,0,0c-0.6,0.5-1.3,0.9-2,1.2c-0.1,0-0.1,0.1-0.2,0.1c-0.8,0.4-1.7,0.8-2.6,0.9
		c1,0.2,2.1,0.2,3.4-0.1c2.7-0.6,5.5-2.2,8.3-4.4c-0.7-0.4-1.3-0.9-1.9-1.3C-25.9,30.4-26.6,30.9-27.4,31.3z"/>
	<path style="fill:#2D2C2C;" d="M-38.5,11.4c0.9-0.5,1.8-0.8,2.7-1.1c0-0.7-0.1-1.4,0-2.1c-3.1,1.2-5.9,2.6-7.8,4.4
		c-0.3,1.4-0.4,2.9-0.4,4.4c0,1.5,0.1,3.1,0.4,4.5C-44.1,17.4-42.3,13.5-38.5,11.4z"/>
	<path style="fill:#2D2C2C;" d="M-39.6,30.8c-0.1,0-0.1,0.1-0.2,0.1c0.1,0.1,0.2,0.3,0.3,0.4c0.1-0.1,0.2-0.2,0.3-0.2
		C-39.4,31-39.5,30.9-39.6,30.8z"/>
	<path style="fill:#2D2C2C;" d="M-40.1,30.4c0,0,0.1,0.1,0.1,0.1c0,0,0,0,0,0C-40,30.5-40.1,30.5-40.1,30.4z"/>
	<path style="fill:#2D2C2C;" d="M-38.8,31.3c-0.2,0.1-0.3,0.3-0.4,0.4c0.1,0.1,0.2,0.2,0.2,0.3c0.2-0.2,0.4-0.3,0.5-0.4
		C-38.6,31.5-38.7,31.4-38.8,31.3z"/>
	<path style="fill:#2D2C2C;" d="M-29.6,7.2C-29.6,7.2-29.6,7.2-29.6,7.2c0,0.1,0.3,1.1,0.8,2.8c0.7,0,1.3,0,1.9-0.1
		c3.2-0.4,6.2-2.1,8-0.7c1.9,1.4,1.2,3.8,1.2,3.8s2.4,0.7,2.6,3c0.3,2.3-2.8,3.9-4.8,6.4c-0.4,0.5-0.8,1.1-1.2,1.7
		c0.3,0.3,0.5,0.6,0.8,0.9c0,0,0,0,0,0c0.4,0.5,0.7,0.9,1,1.2c0,0,0,0,0,0c0.1,0.1,0.1,0.1,0.1,0.1c0.2,0.2,0.3,0.3,0.3,0.3
		c0.1,0,0.2,0.1,0.3,0.1l1-0.9c0,0,0.1,0,0.2,0.1c1.5-1.5,2.9-3,4.1-4.4c0.7-0.8,1.2-1.6,1.6-2.3c-0.1-0.2-0.2-0.4-0.2-0.4
		c-0.7-0.2-1-0.6-1.1-1.1c-0.2-0.6-0.1-1.2-0.2-1.2c-0.5-0.5-0.7-1-0.9-1.5c0,0,0,0,0.1,0.1c-0.3-1-0.1-1.8-0.1-1.8
		c-2.1-0.9-1.8-3.4-1.8-3.4c-1.2,0.2-2.3-2.3-2.3-2.3c-1.3-0.7-1.1-1.9-1.1-1.9c-0.3,0.1-1.1-0.3-1.3-0.9c-0.6,0-1.2,0-1.9,0.2
		C-24.2,5.2-26.1,5.6-28,6c-0.1,0.6-0.1,1-0.1,1L-29.6,7.2z"/>
	<path style="fill:#2D2C2C;" d="M-38.2,31.8c-0.2,0.2-0.4,0.3-0.6,0.5c0.1,0.1,0.2,0.2,0.3,0.4c0.2-0.2,0.5-0.4,0.6-0.5
		C-38,32-38.1,31.9-38.2,31.8z"/>
	<path style="fill:#2D2C2C;" d="M-39.8,29.4c-0.8-0.8-1.6-1.8-2.2-2.9c-0.2-0.2-0.3-0.5-0.4-0.7c0,0,0.1,0,0.1,0.1
		c-0.2-0.5-0.5-1-0.7-1.5c0.6,1.9,1.4,3.8,2.5,5.5c0,0,0.1,0,0.1,0C-40.3,29.7-40.1,29.5-39.8,29.4z"/>
	<path style="fill:#2D2C2C;" d="M-37.3,33.3v-0.1c-0.2,0.1-0.3,0.3-0.4,0.4c0.1,0.1,0.1,0.1,0.2,0.2c0.1-0.1,0.2-0.2,0.3-0.3
		C-37.2,33.5-37.3,33.4-37.3,33.3z"/>
	<path style="fill:#2D2C2C;" d="M-37.7,32.5c-0.2,0.2-0.4,0.3-0.5,0.5c0.1,0.1,0.1,0.2,0.2,0.2c0.2-0.2,0.4-0.3,0.5-0.4
		C-37.6,32.7-37.6,32.6-37.7,32.5z"/>
	<path style="fill:#2D2C2C;" d="M-16.3,5.9c0,0,0,0,0.1-0.1l-0.1-0.1C-16.3,5.9-16.3,5.9-16.3,5.9z"/>
	<path style="fill:#2D2C2C;" d="M-36.6,34.6C-36.6,34.7-36.7,34.7-36.6,34.6c0,0.2,0.1,0.3,0.2,0.4c0,0,0-0.1,0.1-0.1
		C-36.4,34.9-36.5,34.7-36.6,34.6z"/>
	<path style="fill:#2D2C2C;" d="M-37,33.9c-0.1,0.1-0.1,0.1-0.2,0.2c0.1,0.1,0.2,0.2,0.3,0.3c0,0,0.1-0.1,0.1-0.1
		C-36.9,34.2-36.9,34.1-37,33.9z"/>
	<path style="fill:#2D2C2C;" d="M-18.6,26.7c0.4,0.2,0.5,0.4,0.4,0.6c-0.1,0.4-0.6,0.8-0.9,1.6c0,0,0,0,0,0c0,0.1-0.1,0.2-0.1,0.3
		c0,0.1,0,0.1,0,0.2c0,0.1,0,0.3,0,0.5c0,0.1,0,0.1,0,0.2c1.2-0.7,2.8-1.5,4.1-2.2c-0.8-0.9-1.9-1.8-2.3-2c-0.1-0.1-0.2-0.1-0.2-0.1
		L-18.6,26.7z"/>
	<path style="fill:#2D2C2C;" d="M-29.6,7.2l1.5-0.1c0,0,0.1-0.4,0.1-1c0.1-1.6,0.1-4.4-1.8-4.3c-1.6,0.1-2.7,2.1-3.3,3.8
		c0.1,0.1,0.2,0.1,0.4,0.2C-30.8,6.9-29.4,5.3-29.6,7.2z"/>
	<path style="fill:#3CC0D6;" d="M-7.4,13.8c-0.6,1.5-1.4,2.3-2,2.7c0,0,0,0,0,0C-8.8,16.2-8,15.4-7.4,13.8c0.5-1.3,1.3-3,1.8-4.5
		c0,0,0,0,0,0C-6.1,10.8-6.9,12.5-7.4,13.8z"/>
	<path style="fill:#3CC0D6;" d="M-16.3,5.8l0.1,0.1c0.4-0.2,1.6-0.7,2.3,0.3c0.8,1.1,0.2,2.4,0.2,2.4s1.4,0.3,2.2,1.3
		c0.8,1.1,0,2.8,0,2.8s1,0.2,1.6,1.2c0,0.1,0.1,0.1,0.1,0.2c0,0,0,0,0,0c0,0,0.9-0.5,1.8-2.1c0.5-0.9,1.1-1.9,1.6-2.7c0,0,0,0,0,0
		c0,0,0,0,0,0c0,0,0,0,0-0.1c-1.2-0.4-2.1-1.6-2.1-2.9c0-0.5,0.1-1,0.4-1.4c-1.5-0.4-3.4-0.7-4.9-1c-1.7-0.3-2.9,0-3.5,0.3
		C-16.2,4.7-16.2,5.5-16.3,5.8z"/>
	<path style="fill:#2B90A1;" d="M-6.4,9.2C-6.4,9.2-6.4,9.2-6.4,9.2C-6.4,9.2-6.3,9.2-6.4,9.2C-6.3,9.2-6.3,9.2-6.4,9.2z"/>
	<path style="fill:#2B90A1;" d="M-10.1,16.2c0.1,0,0.4,0.2,0.8,0.4c0.6-0.4,1.4-1.2,2-2.7c0.5-1.3,1.3-3,1.8-4.5
		c-0.2,0-0.5,0-0.8-0.1C-6.9,10-7.5,11.1-8,11.9C-8.9,13.5-9.8,14-9.8,14c0,0,0,0.1,0,0.1C-9.5,15-10,15.9-10.1,16.2z"/>
	<path style="fill:#F4F4F4;" d="M-2.5,7.3c0,0.1,0,0.1-0.1,0.2C-2.6,7.5-2.5,7.4-2.5,7.3z"/>
	<path style="fill:#F4F4F4;" d="M-2.4,6.8C-2.4,6.9-2.4,6.9-2.4,6.8C-2.4,6.9-2.4,6.9-2.4,6.8z"/>
	<path style="fill:#F4F4F4;" d="M-2.7,7.8C-2.8,7.9-2.8,8-2.9,8.1C-2.8,8-2.8,7.9-2.7,7.8z"/>
	<path style="fill:#F4F4F4;" d="M-3.9,9C-4.1,9-4.2,9.1-4.3,9.1C-4.2,9.1-4.1,9-3.9,9z"/>
	<path style="fill:#F4F4F4;" d="M-3.1,8.3c-0.1,0.1-0.2,0.2-0.3,0.3C-3.2,8.4-3.1,8.4-3.1,8.3z"/>
	<path style="fill:#F4F4F4;" d="M-3.5,8.6c-0.1,0.1-0.3,0.2-0.4,0.3C-3.7,8.8-3.6,8.8-3.5,8.6z"/>
	<path style="fill:#F4F4F4;" d="M-6.4,9.2C-6.3,9.2-6.3,9.2-6.4,9.2C-5.6,9-2,7.6-4.2,3.4C-4.6,3.2-5,3.1-5.4,3.1
		c-1.2,0-2.2,0.7-2.7,1.7c-0.2,0.4-0.4,0.9-0.4,1.4C-8.5,7.6-7.6,8.8-6.4,9.2z"/>
	<path style="fill:#E0DCDC;" d="M-6.3,9.2c-0.1,0-0.1,0-0.1,0c0,0,0,0,0,0c0,0,0,0,0,0c0.3,0.1,0.5,0.1,0.8,0.1c0,0,0,0,0,0
		c0.5,0,0.9,0,1.3-0.2C-4.2,9.1-4.1,9-3.9,9c0,0,0,0,0,0c0,0,0,0,0,0c0.1-0.1,0.3-0.2,0.4-0.3c0,0,0.1-0.1,0.1-0.1
		c0.1-0.1,0.2-0.2,0.3-0.3C-3,8.2-3,8.1-2.9,8.1C-2.8,8-2.8,7.9-2.7,7.8c0.1-0.1,0.1-0.2,0.1-0.3c0-0.1,0.1-0.1,0.1-0.2
		C-2.4,7.2-2.4,7-2.4,6.9c0,0,0,0,0,0c0.2-0.7,0.1-1.5-0.3-2.2C-3,4-3.6,3.5-4.2,3.3c0,0,0,0,0,0.1C-2,7.6-5.6,9-6.3,9.2z"/>
	<path style="fill:#F4F4F4;" d="M-10.1,19.1c-1,1.3-1.8-0.5-1.8-0.5c-0.7-0.1-1-0.6-1.1-1c0.1,0.5,0.4,0.9,1.1,1.1
		c0,0,0.1,0.2,0.2,0.4c0.3,0.4,0.9,1,1.6,0.1c0,0,1.6-0.3,1.4-1.5c0,0,0,0,0,0C-8.6,18.9-10.1,19.1-10.1,19.1z"/>
	<path style="fill:#F4F4F4;" d="M-19.3,5.6c0,0-0.2,1.2,1.1,1.9c0,0,1.1,2.5,2.3,2.3c0,0-0.3,2.5,1.8,3.4c0,0-0.2,0.8,0.1,1.8
		c0.5,0.3,2.6,1.3,4.2-1c0-0.1,0-0.1-0.1-0.2c-0.6-1-1.6-1.2-1.6-1.2s0.8-1.7,0-2.8c-0.8-1-2.2-1.3-2.2-1.3s0.6-1.3-0.2-2.4
		c-0.7-0.9-1.9-0.4-2.3-0.3c-0.1,0-0.1,0.1-0.1,0.1s0-0.1,0-0.2c0-0.3,0.1-1-0.2-1.6c-0.1-0.2-0.3-0.4-0.5-0.6
		c-0.9-0.8-2.1,0.3-2.1,0.3s-0.8-1-1.4,0.1c-0.2,0.3-0.2,0.6-0.1,0.8C-20.4,5.4-19.6,5.7-19.3,5.6z"/>
	<path style="fill:#F4F4F4;" d="M-9.8,14.2c0.2,1-0.4,2-0.4,2s0,0,0.1,0C-10,15.9-9.5,15-9.8,14.2z"/>
	<path style="fill:#E0DCDC;" d="M-10.1,16.2C-10.2,16.2-10.2,16.1-10.1,16.2c-0.1,0,0.6-1,0.4-2c0,0,0-0.1,0-0.1c0,0,0,0,0,0
		c-1.6,2.3-3.6,1.3-4.2,1c-0.1,0-0.1-0.1-0.1-0.1c0.2,0.5,0.4,1,0.9,1.5c0.1,0.1,0,0.6,0.2,1.2c0.2,0.4,0.5,0.9,1.1,1
		c0,0,0.8,1.8,1.8,0.5c0,0,1.5-0.3,1.4-1.4c0,0,0-0.1,0-0.1c-0.1-0.5-0.4-0.8-0.7-1c0,0,0,0,0,0C-9.7,16.3-10,16.2-10.1,16.2z"/>
	<path style="fill:#F5F5F5;" d="M-37.8,28.3c2.1-1,5-2.4,7.1-3.9c-0.7-0.9-1.2-1.9-1.7-2.8c-1.1-1.8-2.1-4-2.7-6.4c0,0,0,0,0,0
		c-0.1-0.7-0.3-1.3-0.4-2c0,0,0,0,0,0c-0.1-0.9-0.2-1.8-0.3-2.8c-0.9,0.2-1.8,0.6-2.7,1.1c-3.8,2.1-5.6,6-5.1,10.1
		c0.2,1,0.4,1.9,0.7,2.8c0.2,0.5,0.4,1,0.7,1.5C-41.8,26.2-40,27.4-37.8,28.3z"/>
	<path style="fill:#F5F5F5;" d="M-22.8,21.9c0.3-0.4,0.6-0.8,0.9-1c1.7-1.5,6.7-2.9,6.4-6.1c0.2,0.3,0.3,0.7,0.4,1.2
		c-0.2-2.3-2.6-3-2.6-3s0.7-2.4-1.2-3.8c-1.8-1.4-4.8,0.3-8,0.7c-0.6,0.1-1.2,0.1-1.9,0.1c0,0.1,0.1,0.3,0.1,0.4
		c0.1,0.3,0.2,0.5,0.3,0.8c0,0,0,0,0,0c0.4,1.3,1,2.7,1.7,4.2c0,0,0,0,0,0c0.3,0.6,0.6,1.3,0.9,1.8c0,0,0,0,0,0
		c0.1,0.2,0.2,0.3,0.2,0.5c0.2,0.3,0.4,0.7,0.6,1c0,0,0,0,0,0c0.3,0.5,0.7,1,1,1.5c0,0,0,0,0,0C-23.6,20.8-23.2,21.3-22.8,21.9
		C-22.8,21.9-22.8,21.8-22.8,21.9C-22.8,21.9-22.8,21.9-22.8,21.9z M-18.7,16.1c0.3,0,0.5,0.2,0.5,0.5c0,0.3-0.2,0.5-0.5,0.5
		c-0.3,0-0.5-0.2-0.5-0.5C-19.2,16.4-19,16.1-18.7,16.1z M-21.3,11.5c0.3,0,0.5,0.2,0.5,0.5c0,0.3-0.2,0.5-0.5,0.5s-0.5-0.2-0.5-0.5
		C-21.8,11.8-21.6,11.5-21.3,11.5z M-25.2,17.5c-0.1-0.1-0.1-0.3-0.1-0.5c-0.2-1.2,1.1-2.9,1.1-2.9c1,0.2,1.9,1.7,1.9,1.7
		s0.5,0.9,0.6,1.8c0,0,0,0,0,0c0,0.3,0,0.6-0.1,0.8C-21.8,18.4-24.6,18.6-25.2,17.5z"/>
	<path style="fill:#E0DCDC;" d="M-42.4,25.7c0.1,0.2,0.2,0.5,0.4,0.7c0.6,1.1,1.4,2.1,2.2,2.9c0.5-0.3,1.2-0.6,2-1
		c-2.2-0.9-4-2.1-4.5-2.5C-42.3,25.8-42.4,25.8-42.4,25.7z"/>
	<path style="fill:#E0DCDC;" d="M-27.4,31.3c0.8-0.4,1.5-0.9,2.1-1.5c-0.2-0.2-0.4-0.3-0.7-0.5c-0.7,0.7-1.5,1.6-2.6,2.6
		c0.1,0,0.1,0,0.2-0.1C-28,31.7-27.7,31.5-27.4,31.3z"/>
	<path style="fill:#E0DCDC;" d="M-21.9,20.8c-0.3,0.2-0.6,0.6-0.9,1c0.4,0.6,0.9,1.2,1.3,1.7c0,0,0,0,0,0c0.1,0.2,0.3,0.3,0.4,0.5
		c0.4-0.6,0.8-1.2,1.2-1.7c2-2.5,5.1-4.1,4.8-6.4c-0.1-0.5-0.2-0.9-0.4-1.2C-15.2,17.9-20.2,19.3-21.9,20.8z"/>
	<circle style="fill:#58483B;" cx="-21.3" cy="12" r="0.5"/>
	<circle style="fill:#58483B;" cx="-18.7" cy="16.6" r="0.5"/>
	<path style="fill:#FCB259;" d="M-25.2,16.1c0,0,1.4,1.8,3.5,1.5c-0.1-0.9-0.6-1.8-0.6-1.8s-0.9-1.5-1.9-1.7c0,0-1.4,1.8-1.1,2.9
		C-25.4,16.8-25.3,16.5-25.2,16.1z"/>
	<path style="fill:#F2A149;" d="M-21.8,18.4c0.1-0.2,0.1-0.5,0.1-0.8c0,0,0,0,0,0c-2.1,0.3-3.5-1.5-3.5-1.5
		c-0.1,0.3-0.2,0.6-0.1,0.9c0,0.2,0.1,0.3,0.1,0.5C-24.6,18.6-21.8,18.4-21.8,18.4z"/>
	<path style="fill:#3CC0D6;" d="M-32.5,34.7c-0.4,0.2-0.7,0.4-1.1,0.5c-1.1-1.6-3.2-4.5-4-6.9c0.5-0.3,1.2-0.6,1.8-0.9
		c0.8,1.8,2.6,5.2,4.5,6.6c-0.3,0.2-0.7,0.4-1,0.6c0.7-0.4,1.4-0.8,2-1.2c-1.3-1.4-3.5-3.8-4.5-6.4c0.6-0.3,1.2-0.6,1.7-0.9
		c0.7,1.2,2.5,4.2,4.6,5.8c-0.2,0.2-0.3,0.3-0.5,0.5c0.2-0.1,0.3-0.3,0.5-0.4c1-0.9,1.9-1.8,2.6-2.6c-0.8-0.6-1.6-1.3-2.2-2
		c0,0,0,0,0,0c-0.6-0.6-1.1-1.2-1.6-1.8c0,0,0,0,0,0c-0.3-0.4-0.6-0.8-0.9-1.1c-2.1,1.5-5,2.9-7.1,3.9c-0.8,0.4-1.5,0.8-2,1
		c-0.3,0.2-0.5,0.4-0.6,0.5c0,0,0,0-0.1,0c0.1,0.2,0.2,0.4,0.4,0.6c0,0,0.1,0.1,0.1,0.1c0,0,0,0,0,0c0.1,0.1,0.2,0.3,0.3,0.4
		c0.1,0,0.1-0.1,0.2-0.1c0.1,0.1,0.2,0.2,0.4,0.3c-0.1,0.1-0.2,0.1-0.3,0.2c0.1,0.1,0.2,0.2,0.3,0.4c0.1-0.1,0.3-0.3,0.4-0.4
		c0.1,0.1,0.2,0.2,0.3,0.3c-0.1,0.1-0.3,0.2-0.5,0.4c0.1,0.1,0.2,0.2,0.2,0.3c0.2-0.2,0.4-0.3,0.6-0.5c0.1,0.1,0.2,0.2,0.3,0.4
		c-0.1,0.1-0.3,0.2-0.6,0.5c0.1,0.1,0.2,0.2,0.3,0.3c0.2-0.2,0.3-0.3,0.5-0.5c0.1,0.1,0.1,0.2,0.2,0.3c-0.1,0.1-0.3,0.2-0.5,0.4
		c0.1,0.1,0.2,0.2,0.3,0.4c0.1-0.1,0.3-0.2,0.4-0.4v0.1c0,0.1,0.1,0.2,0.1,0.2c-0.1,0.1-0.2,0.2-0.3,0.3c0.1,0.1,0.2,0.2,0.3,0.3
		c0.1-0.1,0.1-0.1,0.2-0.2c0.1,0.2,0.1,0.3,0.2,0.4c0,0-0.1,0.1-0.1,0.1c0.1,0.1,0.2,0.2,0.3,0.3c0,0,0.1,0,0.1-0.1
		c0.1,0.1,0.2,0.3,0.3,0.3c0,0,0,0.1-0.1,0.1c0.2,0.2,0.5,0.5,0.7,0.7c0.2,0,0.4-0.1,0.6-0.1C-34.2,35.4-33.3,35.1-32.5,34.7z
		 M-30.7,24.4c0.6,0.9,2.6,3.9,4.6,5c-0.3,0.4-0.7,0.8-1.1,1.2c-1-0.8-3.5-2.9-4.7-5.4C-31.5,24.9-31.1,24.7-30.7,24.4z"/>
	<path style="fill:#2B90A1;" d="M-27.2,30.6c0.4-0.4,0.8-0.8,1.1-1.2c-2-1.1-4-4.1-4.6-5c-0.4,0.3-0.8,0.5-1.2,0.8
		C-30.7,27.7-28.2,29.8-27.2,30.6z"/>
	<path style="fill:#2B90A1;" d="M-29,32.3c0.2-0.2,0.4-0.3,0.5-0.5c-2.1-1.6-3.9-4.6-4.6-5.8c-0.5,0.3-1.1,0.6-1.7,0.9
		c1,2.6,3.2,5,4.5,6.4c0,0,0,0,0,0C-29.8,33-29.4,32.7-29,32.3z"/>
	<path style="fill:#2B90A1;" d="M-31.3,33.9c-1.9-1.4-3.7-4.8-4.5-6.6c-0.6,0.3-1.3,0.6-1.8,0.9c0.8,2.4,2.9,5.3,4,6.9
		c0.4-0.1,0.7-0.3,1.1-0.5c0.1,0,0.1-0.1,0.2-0.1C-32,34.4-31.6,34.2-31.3,33.9z"/>
	<path style="fill:#3CC0D6;" d="M-20.3,29.9c0.3-0.7,1.6-2.3,2.1-2.8c0,0.1,0,0.1,0,0.2c0.1-0.2,0-0.4-0.4-0.6
		c-0.1,0-0.2-0.1-0.3-0.1c0,0-0.9,1.2-2.1,1.7s-2.8,2.5-2.8,2.5c-0.9-0.5-1.7-1.1-2.4-1.7c0,0,1.1-0.8,3.3-1.8
		c2-0.9,2.4-2.2,2.6-2.3c-0.2-0.3-0.5-0.6-0.8-0.9c-0.1-0.2-0.3-0.3-0.4-0.5c0,0-1.3,1.7-3,2.2c-1.7,0.5-2.7,0.7-3.7,1.6
		c0.7,0.7,1.4,1.4,2.2,2c0.2,0.2,0.4,0.3,0.7,0.5c0.6,0.4,1.2,0.9,1.9,1.3c0.4,0.2,0.8,0.5,1.2,0.7c0.3-0.2,0.5-0.4,0.6-0.4
		C-21.1,31-20.5,30.4-20.3,29.9z"/>
	<path style="fill:#3CC0D6;" d="M-19.3,26.1C-19.3,26.1-19.3,26.1-19.3,26.1C-19.3,26.1-19.3,26.1-19.3,26.1z"/>
	<path style="fill:#3CC0D6;" d="M-35.8,10.4c0.1,1,0.2,1.9,0.3,2.8c0.7-0.2,1.7-0.4,2.3-0.1c1.1,0.5,3.6,0.6,5.2-0.7
		c0.2,0.5,0.4,1,0.6,1.5c0,0-2,1.4-3.9,1.1c-1.8-0.3-3.6,0.1-3.8,0.2c0.6,2.5,1.5,4.6,2.7,6.4c0.5,0.9,1.1,1.9,1.7,2.8
		c0.3,0.4,0.6,0.8,0.9,1.1c0-0.1,1-0.9,2.4-1.1c1.4-0.2,3.7-1.6,4.6-2.6c-0.4-0.5-0.8-1.1-1.2-1.7c-0.1,0.1-2.1,2.2-3.9,2.4
		c-1.8,0.2-3.6,0.6-3.5,0.6c-0.4-0.5-0.7-1.1-1-1.7c-0.1-0.1-0.1-0.2-0.2-0.3c0-0.1,1-0.5,3.1-0.5c2.1,0,4.5-2,4.5-2
		c-0.2-0.3-0.4-0.7-0.6-1c-0.1-0.2-0.2-0.3-0.2-0.5c-0.2,0.2-2.5,1.6-4.2,1.6c-1.8,0-3.8,0-3.8,0c-0.3-0.7-0.6-1.4-0.8-2.1
		c0.8-0.1,2.1-0.3,2.9-0.1c1.1,0.3,4.1-0.5,5-1.2c-0.7-1.5-1.2-3-1.7-4.2c-0.8,0.3-2.6,0.9-3.6,0.7c-1.4-0.2-2.3-0.8-3.7-0.4
		c0-0.6-0.1-1.2-0.1-1.8c0,0,1.3-0.4,2.7,0.2c1.4,0.6,2.8,0.4,4.2-0.1c0.1,0.2,0.1,0.4,0.2,0.6c0-0.1-0.1-0.3-0.1-0.4
		c-0.5-1.6-0.8-2.7-0.8-2.7c0,0,0,0,0-0.1c0.2-1.9-1.2-0.2-3.1-1.4c-0.1-0.1-0.3-0.2-0.4-0.2c-2.4-1.4-2.7,0.9-2.7,1.4
		c0,0,1.3-1.1,2.5-0.1c1.2,1,3.3,0.2,3.7,0.5c0,0.2,0.2,0.8,0.4,1.5c-0.4-0.1-1-0.1-1.6,0C-32,9.1-32.9,8.5-34,8.2
		c-1.1-0.3-1.8,0-1.8,0c0-0.4,0-0.7,0-1.2c0,0.4,0,0.8,0,1.2C-35.8,9-35.8,9.7-35.8,10.4z"/>
	<path style="fill:#3CC0D6;" d="M-19.2,26.3c0.2,0.2,0.3,0.3,0.3,0.3S-19,26.4-19.2,26.3z"/>
	<path style="fill:#3CC0D6;" d="M-19.2,29.3c0,0.1,0,0.1,0,0.2C-19.2,29.4-19.2,29.3-19.2,29.3z"/>
	<path style="fill:#3CC0D6;" d="M-19.1,28.9C-19.1,28.9-19.1,28.9-19.1,28.9C-19.1,28.9-19.1,28.9-19.1,28.9z"/>
	<path style="fill:#2B90A1;" d="M-34,8.2c1.1,0.3,2,0.9,3.2,0.6c0.6-0.1,1.2-0.1,1.6,0c-0.2-0.7-0.4-1.3-0.4-1.5
		C-30,7-32.1,7.8-33.3,6.8c-1.2-1-2.5,0.1-2.5,0.1c0,0,0,0,0,0c0,0,0,0.1,0,0.1c0,0.5,0,0.8,0,1.2C-35.8,8.2-35.1,7.9-34,8.2z"/>
	<path style="fill:#2B90A1;" d="M-28.7,10.3c-0.1-0.2-0.1-0.4-0.2-0.6c-1.4,0.5-2.8,0.7-4.2,0.1c-1.4-0.6-2.7-0.2-2.7-0.2
		c0,0.6,0.1,1.2,0.1,1.8c1.4-0.4,2.3,0.2,3.7,0.4c1,0.2,2.8-0.4,3.6-0.7c0,0,0,0,0,0C-28.5,10.9-28.6,10.6-28.7,10.3z"/>
	<path style="fill:#2B90A1;" d="M-31.3,14.9c1.9,0.3,3.9-1.1,3.9-1.1c-0.2-0.5-0.4-1-0.6-1.5c-1.6,1.3-4.1,1.2-5.2,0.7
		c-0.6-0.3-1.6-0.1-2.3,0.1c0,0,0,0,0,0c0.1,0.7,0.3,1.3,0.4,2c0,0,0,0,0,0C-34.9,15.1-33.1,14.7-31.3,14.9z"/>
	<path style="fill:#2B90A1;" d="M-26.7,15.3C-26.7,15.4-26.7,15.4-26.7,15.3c-0.9,0.7-3.9,1.5-5,1.2c-0.8-0.2-2.1,0-2.9,0.1
		c0.2,0.7,0.5,1.4,0.8,2.1c0,0,2,0,3.8,0c1.7,0,3.9-1.4,4.2-1.6c0,0,0,0,0,0C-26.1,16.6-26.4,15.9-26.7,15.3z"/>
	<path style="fill:#2B90A1;" d="M-25,18.6C-25,18.6-25,18.6-25,18.6c0,0-2.4,2-4.5,2c-2.1,0-3.1,0.4-3.1,0.5
		c0.1,0.1,0.1,0.2,0.2,0.3c0.3,0.6,0.6,1.2,1,1.7c-0.1,0,1.7-0.4,3.5-0.6c1.7-0.2,3.8-2.3,3.9-2.4c0,0,0,0,0,0
		C-24.3,19.6-24.7,19.1-25,18.6z"/>
	<path style="fill:#2B90A1;" d="M-24.5,25.7c1.7-0.5,3-2.1,3-2.2c0,0,0,0,0,0c-0.4-0.5-0.9-1.1-1.3-1.7c0,0,0,0,0,0c0,0,0,0,0,0
		c-0.9,1-3.2,2.4-4.6,2.6c-1.4,0.2-2.4,1-2.4,1.1c0,0,0,0,0,0c0.5,0.6,1,1.2,1.6,1.8c0,0,0,0,0,0C-27.2,26.4-26.2,26.2-24.5,25.7z"
		/>
	<path style="fill:#2B90A1;" d="M-22.9,27.2c-2.2,1-3.3,1.8-3.3,1.8c0.7,0.6,1.5,1.2,2.4,1.7c0,0,1.6-2,2.8-2.5s2.1-1.7,2.1-1.7
		s-0.1-0.1-0.3-0.3c0,0-0.1-0.1-0.1-0.1c0,0,0,0,0,0c-0.2-0.3-0.6-0.7-1-1.2c0,0,0,0,0,0C-20.5,25.1-20.9,26.3-22.9,27.2z"/>
	<path style="fill:#2B90A1;" d="M-20.3,29.9c-0.2,0.5-0.8,1.1-1.3,1.5c0,0,0,0,0,0s1-0.6,2.4-1.3c0-0.1,0-0.1,0-0.2
		c0-0.2,0-0.3,0-0.5c0-0.1,0-0.1,0-0.2c0-0.1,0-0.2,0.1-0.3c0,0,0,0,0,0c0.3-0.8,0.8-1.2,0.9-1.6c0-0.1,0-0.1,0-0.2
		C-18.7,27.6-20,29.2-20.3,29.9z"/>
	<path style="fill:#F4F4F4;" d="M-21.6,31.4C-21.6,31.4-21.6,31.5-21.6,31.4c0,0-0.3,0.2-0.6,0.4c-0.4,0.3-0.7,0.9-0.4,1.5
		c0.2,0.3,0.3,0.6,0.4,0.8c0.3,0.6,0.5,0.9,0.5,0.9l0.1,0.2l5.5-3c-0.1-0.3-0.2-0.5-0.2-0.9c-0.1,0.1-0.2,0.1-0.3,0.1
		c-0.3,0-0.6-0.3-0.6-0.6s0.3-0.6,0.6-0.6c0.2,0,0.4,0.1,0.5,0.3c0.3-0.6,0.9-1,1.6-1c0.2,0,0.3,0,0.5,0.1c0-0.1,0.1-0.1,0.1-0.2
		c0.1-0.1,0.3,0,0.4,0.1c0.1,0.1,0,0.2,0,0.3c0.2,0.2,0.5,0.4,0.6,0.7l6.7-3.7l0,0l-0.1-0.1l-0.6-1.2l-0.5,0.3c0,0-0.9-0.5-2.4,0.7
		c0,0-1.6-0.5-4.3,0.9c-0.3,0.2-0.7,0.3-1,0.5c-1.3,0.7-2.8,1.5-4.1,2.2C-20.6,30.9-21.6,31.4-21.6,31.4z M-12.5,27.3
		c1.1-0.4,2.1-0.3,2.2-0.3c0.2,0,0.3,0.2,0.3,0.4s-0.2,0.3-0.4,0.3c0,0-0.8-0.1-1.7,0.2c-0.3,0.1-0.5,0.1-0.6-0.1
		C-12.8,27.6-12.7,27.4-12.5,27.3z M-13.1,29.1c0.1-0.1,0.3,0,0.3,0.1c0,0.1,0,0.2-0.1,0.3c-0.1,0.1-0.3,0-0.3-0.1
		C-13.3,29.3-13.2,29.1-13.1,29.1z M-13.7,28.7c0.1,0,0.2,0,0.2,0.1c0,0.1,0,0.1-0.1,0.2c-0.1,0-0.2,0-0.2-0.1
		C-13.8,28.8-13.8,28.7-13.7,28.7z"/>
	<path style="fill:#D6D6D6;" d="M-6.2,26.7L-6.2,26.7h0.1l0.7,1.2L-5.6,28l0.1,0.1c0,0,0.6-0.3,0.8-0.5c0.4-0.1,0.2-0.4,0.2-0.4
		l-0.6-1.1L-5.2,26l-0.6-1.1c0,0-0.1-0.3-0.4-0.2C-6.4,24.8-7,25.2-7,25.2l0.1,0.2L-6.2,26.7L-6.2,26.7z"/>
	<path style="fill:#EAEAEA;" d="M-6.1,26.7L-6.1,26.7l-6.8,3.7c0.1,0.2,0.2,0.4,0.2,0.6c0.1-0.1,0.3-0.1,0.4-0.1c0.6,0,1,0.4,1,1
		c0,0.6-0.4,1-1,1c-0.3,0-0.6-0.2-0.8-0.5c-0.3,0.4-0.8,0.7-1.4,0.7c-0.7,0-1.3-0.4-1.6-0.9l-5.5,3v0.1l0.5,0.9
		c0.1,0.2,0.3,0.5,0.4,0.8c0.7,1.2,2.3,0.1,2.3,0.1s4.8-2.7,7.5-4.1c2.7-1.5,3.1-3.1,3.1-3.1C-6,29.3-6,28.2-6,28.2l0.4-0.2l0.2-0.1
		L-6.1,26.7z"/>
	<path style="fill:#FFFFFF;" d="M-12.1,27.9c0.9-0.3,1.7-0.2,1.7-0.2c0.2,0,0.4-0.1,0.4-0.3s-0.1-0.4-0.3-0.4
		c-0.1,0-1.1-0.1-2.2,0.3c-0.2,0.1-0.3,0.3-0.2,0.5C-12.6,28-12.4,28-12.1,27.9z"/>
	<path style="fill:#DA1B51;" d="M-14.5,33.1c0.6,0,1.1-0.3,1.4-0.7c-0.1-0.2-0.2-0.3-0.2-0.5c0-0.4,0.2-0.7,0.6-0.9
		c0-0.2-0.1-0.4-0.2-0.6c-0.1-0.3-0.3-0.5-0.6-0.7c0,0-0.1,0.1-0.1,0.1c-0.1,0.1-0.3,0-0.4-0.1c-0.1-0.1,0-0.1,0-0.2
		c-0.2,0-0.3-0.1-0.5-0.1c-0.7,0-1.3,0.4-1.6,1c0.1,0.1,0.1,0.2,0.1,0.3c0,0.2-0.1,0.4-0.3,0.5c0,0.3,0.1,0.6,0.2,0.9
		C-15.8,32.8-15.2,33.1-14.5,33.1z"/>
	<path style="fill:#62BA47;" d="M-16,30.8c0-0.1,0-0.2-0.1-0.3c-0.1-0.2-0.3-0.3-0.5-0.3c-0.3,0-0.6,0.3-0.6,0.6s0.3,0.6,0.6,0.6
		c0.1,0,0.2,0,0.3-0.1C-16.1,31.2-16,31.1-16,30.8z"/>
	<path style="fill:#DA1B51;" d="M-12.9,29.5c0.1-0.1,0.1-0.2,0.1-0.3c0-0.1-0.2-0.2-0.3-0.1c-0.1,0-0.2,0.2-0.1,0.3
		C-13.2,29.5-13,29.6-12.9,29.5z"/>
	<path style="fill:#62BA47;" d="M-14,29.8c0.1,0.1,0.3,0.2,0.4,0.1c0,0,0.1-0.1,0.1-0.1c0.1-0.1,0.1-0.2,0-0.3
		c-0.1-0.1-0.3-0.2-0.4-0.1c0,0-0.1,0.1-0.1,0.2C-14,29.7-14.1,29.8-14,29.8z"/>
	<path style="fill:#62BA47;" d="M-13.6,29c0.1-0.1,0.1-0.1,0.1-0.2c0-0.1-0.1-0.1-0.2-0.1c-0.1,0-0.1,0.1-0.1,0.2
		C-13.8,29-13.7,29-13.6,29z"/>
	<path style="fill:#62BA47;" d="M-13.3,31.9c0,0.2,0.1,0.4,0.2,0.5c0.2,0.3,0.5,0.5,0.8,0.5c0.6,0,1-0.4,1-1c0-0.6-0.4-1-1-1
		c-0.2,0-0.3,0-0.4,0.1C-13.1,31.2-13.3,31.5-13.3,31.9z"/>
</g>
</svg>
