<?xml version="1.0" encoding="utf-8"?>
<!-- Generator: Adobe Illustrator 19.0.0, SVG Export Plug-In . SVG Version: 6.00 Build 0)  -->
<svg version="1.1" id="Layer_1" xmlns="http://www.w3.org/2000/svg" xmlns:xlink="http://www.w3.org/1999/xlink" x="0px" y="0px"
	 viewBox="120 -173 380 380" style="enable-background:new 120 -173 380 380;" xml:space="preserve">
<g>
	<rect x="120" y="-172.4" style="fill:none;" width="380" height="380"/>
	<rect x="120" y="-172.9" style="fill:#FFFFFF;" width="380" height="341.2"/>
</g>
<rect x="120" y="-172.4" style="fill:none;" width="380" height="380"/>
<rect x="120" y="-173.7" style="fill:#408EA0;" width="380" height="235"/>
<rect x="120" y="-172.4" style="fill:none;" width="380" height="380"/>
<g>
	<rect x="187" y="-62.9" style="fill:#FFD5BB;" width="6" height="22"/>
	<polygon style="fill:#FF7543;" points="220,-36.6 202,-64.1 184,-36.6 184,42.1 220,42.1 	"/>
	<rect x="184" y="14.1" style="fill:#FFD5BB;" width="36" height="28"/>
	<path style="fill:#DF3300;" d="M194.6,42V24.8c0-2-1.6-3.6-3.6-3.6s-3.6,1.6-3.6,3.6V42H194.6z"/>
	<g>
		<rect x="184" y="8.1" style="fill:#FFD5BB;" width="36" height="3"/>
		<g>
			<g>
				<path style="fill:#DF3300;" d="M197.9,9.3V-3.1c0-2-1.6-3.6-3.6-3.6s-3.6,1.6-3.6,3.6V9.3H197.9z"/>
				<path style="fill:#FFD5BB;" d="M199.3,10.7h-10V-3.2c0-2.8,2.3-5,5-5c2.8,0,5,2.3,5,5V10.7z M192.1,7.8h4.3v-11
					c0-1.2-1-2.2-2.2-2.2s-2.2,1-2.2,2.2L192.1,7.8L192.1,7.8z"/>
			</g>
			<g>
				<path style="fill:#DF3300;" d="M213.7,9.3V-3.1c0-2-1.6-3.6-3.6-3.6s-3.6,1.6-3.6,3.6V9.3H213.7z"/>
				<path style="fill:#FFD5BB;" d="M215.1,10.7h-10V-3.2c0-2.8,2.3-5,5-5c2.8,0,5,2.3,5,5V10.7z M207.9,7.8h4.3v-11
					c0-1.2-1-2.2-2.2-2.2s-2.2,1-2.2,2.2L207.9,7.8L207.9,7.8z"/>
			</g>
		</g>
	</g>
	<g>
		<rect x="184" y="-13.9" style="fill:#FFD5BB;" width="36" height="3"/>
		<g>
			<g>
				<path style="fill:#DF3300;" d="M197.9-13.1v-12.4c0-2-1.6-3.6-3.6-3.6s-3.6,1.6-3.6,3.6v12.4C190.7-13.1,197.9-13.1,197.9-13.1z
					"/>
				<path style="fill:#FFD5BB;" d="M199.3-11.7h-10v-13.9c0-2.8,2.3-5,5-5c2.8,0,5,2.3,5,5V-11.7z M192.1-14.6h4.3v-11
					c0-1.2-1-2.2-2.2-2.2s-2.2,1-2.2,2.2L192.1-14.6L192.1-14.6z"/>
			</g>
			<g>
				<path style="fill:#DF3300;" d="M213.7-13.1v-12.4c0-2-1.6-3.6-3.6-3.6s-3.6,1.6-3.6,3.6v12.4C206.5-13.1,213.7-13.1,213.7-13.1z
					"/>
				<path style="fill:#FFD5BB;" d="M215.1-11.7h-10v-13.9c0-2.8,2.3-5,5-5c2.8,0,5,2.3,5,5V-11.7z M207.9-14.6h4.3v-11
					c0-1.2-1-2.2-2.2-2.2s-2.2,1-2.2,2.2L207.9-14.6C207.8-14.6,207.9-14.6,207.9-14.6z"/>
			</g>
		</g>
	</g>
	<g>
		<rect x="184" y="-36.9" style="fill:#FFD5BB;" width="36" height="3"/>
		<g>
			<g>
				<path style="fill:#DF3300;" d="M205.8-36v-12.4c0-2-1.6-3.6-3.6-3.6s-3.6,1.6-3.6,3.6V-36H205.8z"/>
				<path style="fill:#FFD5BB;" d="M207.2-34.6h-10v-13.9c0-2.8,2.3-5,5-5c2.8,0,5,2.3,5,5V-34.6z M200-37.4h4.3v-11
					c0-1.2-1-2.2-2.2-2.2s-2.2,1-2.2,2.2L200-37.4L200-37.4z"/>
			</g>
		</g>
	</g>
	<path style="fill:#DF3300;" d="M217.1,42V24.8c0-2-1.6-3.6-3.6-3.6s-3.6,1.6-3.6,3.6V42H217.1z"/>
	<path style="fill:#454C53;" d="M206.5,42V21.5c0-2.4-1.9-4.3-4.3-4.3c-2.4,0-4.3,1.9-4.3,4.3V42C197.9,42,206.5,42,206.5,42z"/>
	<path style="fill:#454C53;" d="M222.2-38.9l-18.5-28.3c-0.3-0.5-0.9-0.8-1.5-0.7c-0.6,0-1.2,0.2-1.5,0.7l-18.5,28.3
		c-0.5,0.8-0.3,1.8,0.5,2.3s1.8,0.3,2.3-0.5l17.3-26.3l17.3,26.3c0.5,0.8,1.5,1,2.3,0.5C222.5-37.1,222.7-38.1,222.2-38.9z"/>
</g>
<g>
	<rect x="272" y="-39.9" style="fill:#454C53;" width="5" height="22"/>
	<polygon style="fill:#DF3300;" points="281,-14.2 262.5,-41.7 244,-14.2 244,42.1 281,42.1 	"/>
	<rect x="244" y="14.1" style="fill:#454C53;" width="37" height="28"/>
	<path style="fill:#FFD5BB;" d="M254.5,42V24.8c0-2-1.6-3.6-3.6-3.6s-3.6,1.6-3.6,3.6V42H254.5z"/>
	<path style="fill:#FFD5BB;" d="M257-3.2c0-1.2-1.3-2.2-2.5-2.2s-2.5,1-2.5,2.2V7.1h5V-3.2z"/>
	<path style="fill:#FFD5BB;" d="M273-3.2c0-1.2-1.3-2.2-2.5-2.2s-2.5,1-2.5,2.2V7.1h5V-3.2z"/>
	<path style="fill:#454C53;" d="M276-3.2c0-2.8-2.7-5-5.5-5s-5.5,2.3-5.5,5V8.1h-5V-3.2c0-2.8-2.2-5-5-5c-2.8,0-5,2.3-5,5V8.1h-6v3
		h37v-3h-5V-3.2z M268-3.2c0-1.2,1.3-2.2,2.5-2.2s2.5,1,2.5,2.2V7.1h-5V-3.2z M252-3.2c0-1.2,1.3-2.2,2.5-2.2s2.5,1,2.5,2.2V7.1h-5
		V-3.2z"/>
	<path style="fill:#454C53;" d="M268-13.9V-26c0-2.8-2.7-5-5.5-5s-5.5,2.3-5.5,5v12.1h-13v3h37v-3H268z M260-26
		c0-1.2,1.3-2.2,2.5-2.2s2.5,1,2.5,2.2v11.1h-5V-26z"/>
	<path style="fill:#FFD5BB;" d="M265-26c0-1.2-1.3-2.2-2.5-2.2s-2.5,1-2.5,2.2v11.1h5V-26z"/>
	<path style="fill:#FFD5BB;" d="M277,42V24.8c0-2-1.6-3.6-3.6-3.6s-3.6,1.6-3.6,3.6V42H277z"/>
	<path style="fill:#FF7543;" d="M266.3,42V21.5c0-2.4-1.9-4.3-4.3-4.3s-4.3,1.9-4.3,4.3V42C257.7,42,266.3,42,266.3,42z"/>
	<path style="fill:#FF7543;" d="M282.1-16.5l-18.5-28.3c-0.3-0.5-0.9-0.8-1.5-0.7c-0.6,0-1.2,0.2-1.5,0.7L242-16.5
		c-0.5,0.8-0.3,1.8,0.5,2.3s1.8,0.3,2.3-0.5L262.1-41l17.3,26.3c0.5,0.8,1.5,1,2.3,0.5C282.4-14.7,282.6-15.7,282.1-16.5z"/>
</g>
<g>
	<path style="fill:#785105;" d="M233,40.2c0,1.1-1.1,1.9-2.2,1.9h-0.2c-1,0-1.6-0.9-1.6-1.9V24c0-1.1,0.6-1.9,1.6-1.9h0.2
		c1,0,2.2,0.9,2.2,1.9V40.2L233,40.2z"/>
	<polygon style="fill:#92CCDB;" points="242.6,32.1 220.2,32.1 231.4,-19.3 	"/>
	<polygon style="fill:#FFFFFF;" points="238.8,14.3 231.4,-19 223.5,14.3 	"/>
</g>
<g>
	<rect x="290" y="-48.9" style="fill:#6DAAC5;" width="7" height="28"/>
	<polygon style="fill:#92CCDB;" points="330,-20 308,-54.9 286,-20 286,42.1 330,42.1 	"/>
	<rect x="286" y="6.1" style="fill:#FFFFFF;" width="44" height="4"/>
	<rect x="285" y="23.1" style="fill:#FFFFFF;" width="46" height="19"/>
	<path style="fill:#FF7543;" d="M298.4,42V20.1c0-2.5-2-4.6-4.6-4.6c-2.5,0-4.6,2.1-4.6,4.6V42H298.4z"/>
	<path style="fill:#FF7543;" d="M327,42V20.1c0-2.5-2-4.6-4.6-4.6c-2.5,0-4.6,2.1-4.6,4.6V42H327z"/>
	<rect x="286" y="-25.9" style="fill:#FFFFFF;" width="44" height="3"/>
	<path style="fill:#454C53;" d="M313.4,42V18.8c0-3-2.4-5.5-5.4-5.5s-5.4,2.4-5.4,5.5V42H313.4z"/>
	<path style="fill:#DF3300;" d="M333.5-22.9l-23.6-36c-0.4-0.7-1.2-1-1.9-0.9c-0.7-0.1-1.5,0.3-1.9,0.9l-23.6,36
		c-0.6,1-0.4,2.3,0.6,2.9s2.3,0.4,2.9-0.6l22-33.5l22,33.5c0.6,1,2,1.3,2.9,0.6C333.9-20.6,334.1-21.9,333.5-22.9z"/>
	<rect x="286" y="-2.9" style="fill:#FFFFFF;" width="44" height="3"/>
	<g>
		<path style="fill:#DF3300;" d="M297.4-1.2v-12.4c0-2-1.6-3.6-3.6-3.6s-3.6,1.6-3.6,3.6v12.4C290.2-1.2,297.4-1.2,297.4-1.2z"/>
		<path style="fill:#FFFFFF;" d="M298.8,0.2h-10v-13.9c0-2.8,2.3-5,5-5s5,2.3,5,5V0.2z M291.6-2.6h4.3v-11c0-1.2-1-2.2-2.2-2.2
			s-2.2,1-2.2,2.2v11C291.5-2.6,291.6-2.6,291.6-2.6z"/>
	</g>
	<g>
		<path style="fill:#DF3300;" d="M326.4-1.2v-12.4c0-2-1.6-3.6-3.6-3.6s-3.6,1.6-3.6,3.6v12.4C319.2-1.2,326.4-1.2,326.4-1.2z"/>
		<path style="fill:#FFFFFF;" d="M327.8,0.2h-10v-13.9c0-2.8,2.3-5,5-5c2.8,0,5,2.3,5,5V0.2z M320.6-2.6h4.3v-11
			c0-1.2-1-2.2-2.2-2.2s-2.2,1-2.2,2.2v11C320.5-2.6,320.6-2.6,320.6-2.6z"/>
	</g>
	<g>
		<path style="fill:#DF3300;" d="M311.6-1.2v-12.4c0-2-1.6-3.6-3.6-3.6s-3.6,1.6-3.6,3.6v12.4C304.4-1.2,311.6-1.2,311.6-1.2z"/>
		<path style="fill:#FFFFFF;" d="M313,0.2h-10v-13.9c0-2.8,2.3-5,5-5c2.8,0,5,2.3,5,5V0.2z M305.8-2.6h4.3v-11c0-1.2-1-2.2-2.2-2.2
			s-2.2,1-2.2,2.2L305.8-2.6L305.8-2.6z"/>
	</g>
	<g>
		<path style="fill:#DF3300;" d="M311.6-25.7v-12.4c0-2-1.6-3.6-3.6-3.6s-3.6,1.6-3.6,3.6v12.4C304.4-25.7,311.6-25.7,311.6-25.7z"
			/>
		<path style="fill:#FFFFFF;" d="M313-24.3h-10v-13.9c0-2.8,2.3-5,5-5c2.8,0,5,2.3,5,5V-24.3z M305.8-27.2h4.3v-11
			c0-1.2-1-2.2-2.2-2.2s-2.2,1-2.2,2.2L305.8-27.2L305.8-27.2z"/>
	</g>
</g>
<g>
	<rect x="378" y="-28.9" style="fill:#DF3300;" width="7" height="22"/>
	<polygon style="fill:#454C53;" points="343,-5.7 366.5,-31.1 390,-5.7 390,42.1 343,42.1 	"/>
	<rect x="343" y="23.1" style="fill:#FFD5BB;" width="47" height="19"/>
	<path style="fill:#454C53;" d="M385.5,42v-9.9c0-2.5-2-4.6-4.6-4.6c-2.5,0-4.6,2.1-4.6,4.6V42H385.5z"/>
	<path style="fill:#454C53;" d="M356.8,42v-9.9c0-2.5-2-4.6-4.6-4.6c-2.5,0-4.6,2.1-4.6,4.6V42H356.8z"/>
	<rect x="343" y="-6.9" style="fill:#FFD5BB;" width="47" height="3"/>
	<path style="fill:#454C53;" d="M372.2,42V30.8c0-3-2.4-5.5-5.4-5.5s-5.4,2.4-5.4,5.5V42H372.2z"/>
	<path style="fill:#FF7543;" d="M341.2-8.6l23.6-26.5c0.4-0.7,1.2-1,1.9-0.9c0.7-0.1,1.5,0.3,1.9,0.9l23.6,26.5
		c0.6,1,0.4,2.3-0.6,2.9s-2.3,0.4-2.9-0.6l-22-24l-22,24c-0.6,1-2,1.3-2.9,0.6C340.8-6.3,340.6-7.6,341.2-8.6z"/>
	<rect x="343" y="16.1" style="fill:#FFD5BB;" width="47" height="4"/>
	<g>
		<path style="fill:#DF3300;" d="M377.3,17.8V5.4c0-2,1.6-3.6,3.6-3.6s3.6,1.6,3.6,3.6v12.4H377.3z"/>
		<path style="fill:#FFD5BB;" d="M385.9,19.3h-10V5.4c0-2.8,2.3-5,5-5s5,2.3,5,5V19.3z M378.7,16.4h4.3v-11c0-1.2-1-2.2-2.2-2.2
			s-2.2,1-2.2,2.2L378.7,16.4L378.7,16.4z"/>
	</g>
	<g>
		<path style="fill:#DF3300;" d="M348.3,17.8V5.4c0-2,1.6-3.6,3.6-3.6s3.6,1.6,3.6,3.6v12.4H348.3z"/>
		<path style="fill:#FFD5BB;" d="M356.9,19.3h-10V5.4c0-2.8,2.3-5,5-5c2.8,0,5,2.3,5,5V19.3z M349.8,16.4h4.3v-11
			c0-1.2-1-2.2-2.2-2.2s-2.2,1-2.2,2.2L349.8,16.4L349.8,16.4z"/>
	</g>
	<g>
		<path style="fill:#DF3300;" d="M363.1,17.8V5.4c0-2,1.6-3.6,3.6-3.6s3.6,1.6,3.6,3.6v12.4H363.1z"/>
		<path style="fill:#FFD5BB;" d="M371.7,19.3h-10V5.4c0-2.8,2.3-5,5-5c2.8,0,5,2.3,5,5V19.3z M364.6,16.4h4.3v-11
			c0-1.2-1-2.2-2.2-2.2s-2.2,1-2.2,2.2v11H364.6z"/>
	</g>
	<g>
		<path style="fill:#DF3300;" d="M363.1-6.7v-12.4c0-2,1.6-3.6,3.6-3.6s3.6,1.6,3.6,3.6v12.4C370.3-6.7,363.1-6.7,363.1-6.7z"/>
		<path style="fill:#FFD5BB;" d="M371.7-5.3h-10v-13.9c0-2.8,2.3-5,5-5c2.8,0,5,2.3,5,5V-5.3z M364.6-8.1h4.3v-11
			c0-1.2-1-2.2-2.2-2.2s-2.2,1-2.2,2.2v11C364.5-8.1,364.6-8.1,364.6-8.1z"/>
	</g>
</g>
<g>
	<path style="fill:#785105;" d="M342,40.6c0,0.8-0.2,1.5-1.1,1.5l0,0c-0.8,0-1.9-0.7-1.9-1.5v-14c0-0.8,1.1-1.5,1.9-1.5l0,0
		c0.8,0,1.1,0.7,1.1,1.5V40.6z"/>
	<polygon style="fill:#6DAAC5;" points="350.9,34.1 331.8,34.1 341.4,2.5 	"/>
	<polygon style="fill:#FFFFFF;" points="346.5,18.4 341.4,2.2 336.3,18.4 	"/>
</g>
<g>
	<g>
		<path style="fill:#785105;" d="M172,40.2c0,1.1-1,1.9-2,1.9h-0.2c-1,0-1.8-0.9-1.8-1.9V24c0-1.1,0.7-1.9,1.8-1.9h0.2
			c1,0,2,0.9,2,1.9V40.2z"/>
		<polygon style="fill:#6DAAC5;" points="181.3,32.1 158.9,32.1 170.1,-5 		"/>
		<polygon style="fill:#FFFFFF;" points="176.1,14.3 170.1,-4.7 164.1,14.3 		"/>
	</g>
	<g>
		<path style="fill:#785105;" d="M161,40.2c0,1.1-1,1.9-2,1.9h-0.2c-1,0-1.8-0.9-1.8-1.9V24c0-1.1,0.8-1.9,1.8-1.9h0.2
			c1,0,2,0.9,2,1.9V40.2z"/>
		<g>
			<polygon style="fill:#92CCDB;" points="166.1,36.1 151.3,36.1 158.7,11.5 			"/>
			<polygon style="fill:#FFFFFF;" points="162.7,24.2 158.7,11.6 154.8,24.2 			"/>
		</g>
	</g>
	<g>
		<path style="fill:#785105;" d="M452,24c0-1.1-0.7-1.9-1.8-1.9H450c-1,0-2,0.9-2,1.9v16.2c0,1.1,1,1.9,2,1.9h0.2
			c1,0,1.8-0.9,1.8-1.9V24z"/>
		<polygon style="fill:#6DAAC5;" points="439.2,32.1 461.6,32.1 450.4,-5 		"/>
		<polygon style="fill:#FFFFFF;" points="444.4,14.3 450.4,-4.7 456.4,14.3 		"/>
	</g>
	<g>
		<path style="fill:#785105;" d="M464,24c0-1.1-0.8-1.9-1.8-1.9H462c-1,0-2,0.9-2,1.9v16.2c0,1.1,1,1.9,2,1.9h0.2
			c1,0,1.8-0.9,1.8-1.9V24z"/>
		<g>
			<polygon style="fill:#92CCDB;" points="454.4,36.1 469.2,36.1 461.8,11.5 			"/>
			<polygon style="fill:#FFFFFF;" points="457.9,24.2 461.8,11.6 465.8,24.2 			"/>
		</g>
	</g>
</g>
<g>
	<path style="fill:#785105;" d="M394,40.2c0,1.1-0.6,1.9-1.6,1.9h-0.2c-1,0-2.2-0.9-2.2-1.9V24c0-1.1,1.1-1.9,2.2-1.9h0.2
		c1,0,1.6,0.9,1.6,1.9V40.2z"/>
	<g>
		<polygon style="fill:#92CCDB;" points="399.9,36.1 385.1,36.1 392.5,11.5 		"/>
		<polygon style="fill:#FFFFFF;" points="396.4,24.2 392.5,11.6 388.5,24.2 		"/>
	</g>
</g>
<g>
	<polygon style="fill:#785105;" points="437,-36.6 419,-64.1 401,-36.6 401,42.1 437,42.1 	"/>
	<g>
		<g>
			<rect id="XMLID_1_" x="401" y="14.1" style="fill:#E0EAE2;" width="36" height="28"/>
		</g>
		<g>
			<g>
				<g>
					<g>
						<rect x="401" y="14.1" style="fill:none;" width="36" height="28"/>
						<g>
							<path style="fill:#FF7543;" d="M424.8,49V22.8c0-3-2.4-5.5-5.5-5.5s-5.5,2.5-5.5,5.5V49H424.8z"/>
							<path style="fill:#E0EAE2;" d="M426.2,50.4h-13.8V22.8c0-3.8,3.1-6.9,6.9-6.9s6.9,3.1,6.9,6.9V50.4L426.2,50.4z M415.3,47.5
								h8.1V22.8c0-2.2-1.8-4-4-4s-4,1.8-4,4L415.3,47.5L415.3,47.5z"/>
						</g>
					</g>
				</g>
			</g>
		</g>
		<rect x="401" y="-36.9" style="fill:#E0EAE2;" width="36" height="3"/>
		<g>
			<g>
				<path style="fill:#FF7543;" d="M422.9-11.6V-24c0-2-1.6-3.6-3.6-3.6s-3.6,1.6-3.6,3.6v12.4C415.7-11.6,422.9-11.6,422.9-11.6z"
					/>
				<path style="fill:#E0EAE2;" d="M424.3-10.1h-10V-24c0-2.8,2.3-5,5-5s5,2.3,5,5V-10.1z M417.1-13h4.3v-11c0-1.2-1-2.2-2.2-2.2
					s-2.2,1-2.2,2.2L417.1-13C417-13,417.1-13,417.1-13z"/>
			</g>
		</g>
		<g>
			<g>
				<path style="fill:#FF7543;" d="M422.9,13.3V0.4c0-2-1.6-3.6-3.6-3.6s-3.6,1.6-3.6,3.6v12.9H422.9z"/>
				<path style="fill:#E0EAE2;" d="M424.3,14.8h-10V0.5c0-2.8,2.3-5,5-5s5,2.3,5,5V14.8z M417.1,11.9h4.3V0.4c0-1.2-1-2.2-2.2-2.2
					s-2.2,1-2.2,2.2L417.1,11.9L417.1,11.9z"/>
			</g>
		</g>
		<path style="fill:#92CCDB;" d="M433.8,42V28c0-1.6-1.3-2.9-2.9-2.9S428,26.4,428,28v14H433.8z"/>
		<path style="fill:#92CCDB;" d="M411,42V28c0-1.6-1.3-2.9-2.9-2.9s-2.9,1.3-2.9,2.9v14H411z"/>
		<path style="fill:#FF7543;" d="M439.3-38.9l-18.5-28.3c-0.3-0.5-0.9-0.8-1.5-0.7c-0.6,0-1.2,0.2-1.5,0.7l-18.5,28.3
			c-0.5,0.8-0.3,1.8,0.5,2.3s1.8,0.3,2.3-0.5l17.3-26.3l17.3,26.3c0.5,0.8,1.5,1,2.3,0.5C439.6-37.1,439.8-38.1,439.3-38.9z"/>
		<g>
			<ellipse style="fill:#FF7543;" cx="419.3" cy="-46.1" rx="4.8" ry="4.8"/>
			<path style="fill:#E0EAE2;" d="M419.3-40c-3.4,0-6.2-2.8-6.2-6.2s2.8-6.2,6.2-6.2c3.4,0,6.2,2.8,6.2,6.2S422.7-40,419.3-40z
				 M419.3-49.5c-1.8,0-3.3,1.5-3.3,3.3s1.5,3.3,3.3,3.3s3.3-1.5,3.3-3.3S421.1-49.5,419.3-49.5z"/>
		</g>
	</g>
</g>
<rect x="120" y="-172.4" style="fill:none;" width="380" height="380"/>
<g>
	<rect id="XMLID_2_" x="120" y="68.1" style="fill:#92CCDB;" width="380" height="139"/>
</g>
<g>
	<g>
		<rect x="120" y="68.1" style="fill:none;" width="380" height="139"/>
		<rect x="120" y="66.4" style="fill:#528094;" width="380" height="5.1"/>
	</g>
</g>
<rect x="120" y="68.1" style="fill:none;" width="380" height="139"/>
<polygon style="opacity:0.7;fill:#FFFFFF;enable-background:new    ;" points="415.7,145.4 346.8,207.6 407.3,207.6 464,132.9 
	252.1,130.1 309,84 161.1,100.3 233.1,107.9 188.9,171.2 "/>
<rect x="120" y="-172.4" style="fill:none;" width="380" height="380"/>
<g style="opacity:0.7;">
	<path style="fill:#FFFFFF;" d="M184-145.7c-3,0-3,4.5,0,4.5S187-145.7,184-145.7z"/>
	<path style="fill:#FFFFFF;" d="M167.1-108.8c-0.4-0.7-0.9-1.2-1.6-1.6c-0.1-0.1-0.2-0.1-0.4-0.2c-0.7-0.4-1.5-0.6-2.4-0.6
		s-1.7,0.2-2.4,0.6c-1.4,0.8-2.4,2.4-2.4,4.1s0.9,3.3,2.4,4.1c0.7,0.4,1.5,0.6,2.4,0.6s1.7-0.2,2.4-0.6c0.1-0.1,0.2-0.1,0.4-0.2
		c0.7-0.4,1.2-0.9,1.6-1.6c0.4-0.7,0.6-1.5,0.6-2.3S167.5-108.1,167.1-108.8z"/>
	<path style="fill:#FFFFFF;" d="M196-122.3c-3,0-3,3.8,0,3.8C198-118.5,198-122.3,196-122.3z"/>
	<path style="fill:#FFFFFF;" d="M168-71.1c-2,0-2,3.1,0,3.1S170-71.1,168-71.1z"/>
	<path style="fill:#FFFFFF;" d="M146-95.5c-2,0-2,2.9,0,2.9S148-95.5,146-95.5z"/>
	<path style="fill:#FFFFFF;" d="M141.4-64.9c0,0,0-0.1-0.1-0.1c-0.1-0.1-0.1-0.1-0.2-0.2c-0.3-0.3-0.6-0.4-1-0.4
		c-0.5,0-0.8,0.4-0.8,0.8s0.3,0.7,0.7,0.8l0.1,0.1c0.3,0.3,0.7,0.3,1.1,0.2C141.8-63.7,141.9-64.5,141.4-64.9z"/>
	<path style="fill:#FFFFFF;" d="M188-85.7c-2,0-2,2.6,0,2.6S190-85.7,188-85.7z"/>
	<path style="fill:#FFFFFF;" d="M189-62.3c-1,0-1,1.9,0,1.9S190-62.3,189-62.3z"/>
	<path style="fill:#FFFFFF;" d="M206.4-93.3c-1.9,0-3.6,1.6-3.6,3.6s1.6,3.6,3.6,3.6s3.6-1.6,3.6-3.6S208.3-93.3,206.4-93.3z"/>
	<path style="fill:#FFFFFF;" d="M160-51.1c-4,0-4,7.4,0,7.4C165-43.8,165-51.1,160-51.1z"/>
	<path style="fill:#FFFFFF;" d="M181-39.1c-4,0-4,6.3,0,6.3S185-39.1,181-39.1z"/>
	<path style="fill:#FFFFFF;" d="M141-29.6c-4,0-4,5.6,0,5.6S145-29.6,141-29.6z"/>
	<path style="fill:#FFFFFF;" d="M139-83c-3,0-3,3.9,0,3.9C141-79.1,141-83,139-83z"/>
	<path style="fill:#FFFFFF;" d="M127-65c-2,0-2,3.4,0,3.4S129-65,127-65z"/>
	<path style="fill:#FFFFFF;" d="M125-48.4c-2,0-2,2.9,0,2.9S127-48.4,125-48.4z"/>
	<path style="fill:#FFFFFF;" d="M127.7-110.4c-0.3-0.3-0.6-0.4-1-0.4c-0.6,0-0.9,0.3-1.2,0.7c-0.4,0.5-0.6,1-0.5,1.6s0.4,1.1,1,1.3
		c0.3,0.1,0.7,0,1-0.1c0.3-0.2,0.5-0.5,0.6-0.8c0.1-0.1,0.2-0.1,0,0l0,0c0.3-0.2,0.5-0.4,0.6-0.8C128.2-109.5,128.1-110,127.7-110.4
		z"/>
	<path style="fill:#FFFFFF;" d="M169-128.9c-1,0-1,1.5,0,1.5S170-128.9,169-128.9z"/>
	<path style="fill:#FFFFFF;" d="M184-113.7c-1,0-1,2,0,2S185-113.7,184-113.7z"/>
	<path style="fill:#FFFFFF;" d="M220-113.9c-2,0-2,3.2,0,3.2S222-113.9,220-113.9z"/>
	<path style="fill:#FFFFFF;" d="M230-154.1c-1,0-1,2,0,2C232-152.1,232-154.1,230-154.1z"/>
	<path style="fill:#FFFFFF;" d="M197.5-162.8c-0.3-0.5-1-0.9-1.5-0.6l0,0c-0.2,0.1-0.4,0.2-0.6,0.3c-0.2,0.2-0.4,0.6-0.4,0.9
		c0,0.2,0.1,0.5,0.2,0.7c0.2,0.3,0.4,0.5,0.8,0.6l0,0c0.5,0.2,1.2-0.1,1.5-0.6C197.8-161.9,197.8-162.5,197.5-162.8z"/>
	<path style="fill:#FFFFFF;" d="M171-167.1c-3,0-3,5.1,0,5.1S174-167.1,171-167.1z"/>
	<path style="fill:#FFFFFF;" d="M127-153.1c-1,0-1,2,0,2S128-153.1,127-153.1z"/>
	<path style="fill:#FFFFFF;" d="M233-51.4c-3,0-3,4.1,0,4.1C235-47.3,235-51.4,233-51.4z"/>
	<path style="fill:#FFFFFF;" d="M231-99.9c-2,0-2,4.1,0,4.1C234-95.8,234-99.9,231-99.9z"/>
	<path style="fill:#FFFFFF;" d="M246-115.1c-2,0-2,2.8,0,2.8S248-115.1,246-115.1z"/>
	<path style="fill:#FFFFFF;" d="M252.8-154.2c-0.5-0.4-1-0.7-1.7-0.7c-0.8,0-1.6,0.5-2,1.2s-0.4,1.7,0,2.4c0.3,0.6,1,1.1,1.7,1.2
		c0,0,0.1,0,0.1,0.1h-0.1c0.2,0.1,0.4,0.1,0.6,0.1c0.4,0,0.7-0.1,1-0.3c0.7-0.4,1.1-1.2,1.1-1.9C253.7-153,253.3-153.8,252.8-154.2z
		"/>
	<path style="fill:#FFFFFF;" d="M226.4-55.1c-0.4-1.5-1.8-2.5-3.3-2.5s-2.9,1-3.3,2.5c-0.2,0.6-0.2,1.2,0,1.8
		c0.1,0.3,0.2,0.5,0.3,0.8c0.3,0.5,0.7,0.9,1.2,1.2c0.1,0,0.1,0.1,0.2,0.1c0.8,0.6,2.2,0.6,3,0c0.1,0,0.1-0.1,0.2-0.1
		c0.5-0.3,0.9-0.7,1.2-1.2C226.6-53.2,226.7-54.2,226.4-55.1z"/>
	<path style="fill:#FFFFFF;" d="M279-145.2c-7,0-7,11.2,0,11.2C287-134,287-145.2,279-145.2z"/>
	<path style="fill:#FFFFFF;" d="M313-145.7c-3,0-3,4.5,0,4.5S316-145.7,313-145.7z"/>
	<path style="fill:#FFFFFF;" d="M325-122.3c-3,0-3,3.8,0,3.8C327-118.5,327-122.3,325-122.3z"/>
	<path style="fill:#FFFFFF;" d="M297-71.1c-2,0-2,3.1,0,3.1S299-71.1,297-71.1z"/>
	<path style="fill:#FFFFFF;" d="M275-95.5c-2,0-2,2.9,0,2.9S277-95.5,275-95.5z"/>
	<path style="fill:#FFFFFF;" d="M270.6-64.9c0,0,0-0.1-0.1-0.1c-0.1-0.1-0.1-0.1-0.2-0.2c-0.3-0.3-0.6-0.4-1-0.4
		c-0.5,0-0.8,0.4-0.8,0.8s0.3,0.7,0.7,0.8l0.1,0.1c0.3,0.3,0.7,0.3,1.1,0.2C271-63.7,271.1-64.5,270.6-64.9z"/>
	<path style="fill:#FFFFFF;" d="M268-83c-3,0-3,3.9,0,3.9C270-79.1,270-83,268-83z"/>
	<path style="fill:#FFFFFF;" d="M256-65c-2,0-2,3.4,0,3.4S258-65,256-65z"/>
	<path style="fill:#FFFFFF;" d="M256.8-110.4c-0.3-0.3-0.6-0.4-1-0.4c-0.6,0-0.9,0.3-1.2,0.7c-0.4,0.5-0.6,1-0.5,1.6s0.4,1.1,1,1.3
		c0.3,0.1,0.7,0,1-0.1c0.3-0.2,0.5-0.5,0.6-0.8c0.1-0.1,0.2-0.1,0,0l0,0c0.3-0.2,0.5-0.4,0.6-0.8C257.4-109.5,257.2-110,256.8-110.4
		z"/>
	<path style="fill:#FFFFFF;" d="M299-128.9c-1,0-1,1.5,0,1.5S300-128.9,299-128.9z"/>
	<path style="fill:#FFFFFF;" d="M313-113.7c-1,0-1,2,0,2S314-113.7,313-113.7z"/>
	<path style="fill:#FFFFFF;" d="M349-113.9c-2,0-2,3.2,0,3.2C352-110.7,352-113.9,349-113.9z"/>
	<path style="fill:#FFFFFF;" d="M360-154.1c-2,0-2,2,0,2C361-152.1,361-154.1,360-154.1z"/>
	<path style="fill:#FFFFFF;" d="M326.6-162.8c-0.3-0.5-1-0.9-1.5-0.6l0,0c-0.2,0.1-0.4,0.2-0.6,0.3c-0.2,0.2-0.4,0.6-0.4,0.9
		c0,0.2,0.1,0.5,0.2,0.7c0.2,0.3,0.4,0.5,0.8,0.6l0,0c0.5,0.2,1.2-0.1,1.5-0.6C326.9-161.9,326.9-162.5,326.6-162.8z"/>
	<path style="fill:#FFFFFF;" d="M300-167.1c-3,0-3,5.1,0,5.1S303-167.1,300-167.1z"/>
	<path style="fill:#FFFFFF;" d="M256-153.1c-1,0-1,2,0,2C258-151.1,258-153.1,256-153.1z"/>
	<path style="fill:#FFFFFF;" d="M360-99.9c-2,0-2,4.1,0,4.1C363-95.8,363-99.9,360-99.9z"/>
	<path style="fill:#FFFFFF;" d="M375-115.1c-2,0-2,2.8,0,2.8S377-115.1,375-115.1z"/>
	<path style="fill:#FFFFFF;" d="M382-154.2c-0.5-0.4-1-0.7-1.7-0.7c-0.8,0-1.6,0.5-2,1.2s-0.4,1.7,0,2.4c0.3,0.6,1,1.1,1.7,1.2
		c0,0,0.1,0,0.1,0.1H380c0.2,0.1,0.4,0.1,0.6,0.1c0.4,0,0.7-0.1,1-0.3c0.7-0.4,1.1-1.2,1.1-1.9C382.8-153,382.5-153.8,382-154.2z"/>
	<path style="fill:#FFFFFF;" d="M442-145.7c-3,0-3,4.5,0,4.5S445-145.7,442-145.7z"/>
	<path style="fill:#FFFFFF;" d="M454-122.3c-2,0-2,3.8,0,3.8C457-118.5,457-122.3,454-122.3z"/>
	<path style="fill:#FFFFFF;" d="M426-71.1c-2,0-2,3.1,0,3.1S428-71.1,426-71.1z"/>
	<path style="fill:#FFFFFF;" d="M404-95.5c-2,0-2,2.9,0,2.9S406-95.5,404-95.5z"/>
	<path style="fill:#FFFFFF;" d="M399.7-64.9c0,0,0-0.1-0.1-0.1c-0.1-0.1-0.1-0.1-0.2-0.2c-0.3-0.3-0.6-0.4-1-0.4
		c-0.5,0-0.8,0.4-0.8,0.8s0.3,0.7,0.7,0.8l0.1,0.1c0.3,0.3,0.7,0.3,1.1,0.2C400.1-63.7,400.2-64.5,399.7-64.9z"/>
	<path style="fill:#FFFFFF;" d="M446-85.7c-1,0-1,2.6,0,2.6C448-83.1,448-85.7,446-85.7z"/>
	<path style="fill:#FFFFFF;" d="M447-62.3c-1,0-1,1.9,0,1.9C449-60.4,449-62.3,447-62.3z"/>
	<path style="fill:#FFFFFF;" d="M464.7-93.3c-1.9,0-3.6,1.6-3.6,3.6s1.6,3.6,3.6,3.6s3.6-1.6,3.6-3.6S466.6-93.3,464.7-93.3z"/>
	<path style="fill:#FFFFFF;" d="M419-51.1c-5,0-5,7.4,0,7.4C423-43.8,423-51.1,419-51.1z"/>
	<path style="fill:#FFFFFF;" d="M440-39.1c-4,0-4,6.3,0,6.3S444-39.1,440-39.1z"/>
	<path style="fill:#FFFFFF;" d="M399-29.6c-3,0-3,5.6,0,5.6C403-24,403-29.6,399-29.6z"/>
	<path style="fill:#FFFFFF;" d="M397-83c-3,0-3,3.9,0,3.9C399-79.1,399-83,397-83z"/>
	<path style="fill:#FFFFFF;" d="M385-65c-2,0-2,3.4,0,3.4C388-61.6,388-65,385-65z"/>
	<path style="fill:#FFFFFF;" d="M383-48.4c-2,0-2,2.9,0,2.9S385-48.4,383-48.4z"/>
	<path style="fill:#FFFFFF;" d="M386-110.4c-0.3-0.3-0.6-0.4-1-0.4c-0.6,0-0.9,0.3-1.2,0.7c-0.4,0.5-0.6,1-0.5,1.6s0.4,1.1,1,1.3
		c0.3,0.1,0.7,0,1-0.1c0.3-0.2,0.5-0.5,0.6-0.8c0.1-0.1,0.2-0.1,0,0l0,0c0.3-0.2,0.5-0.4,0.6-0.8C386.5-109.5,386.4-110,386-110.4z"
		/>
	<path style="fill:#FFFFFF;" d="M428-128.9c-1,0-1,1.5,0,1.5S429-128.9,428-128.9z"/>
	<path style="fill:#FFFFFF;" d="M442-113.7c-1,0-1,2,0,2S443-113.7,442-113.7z"/>
	<path style="fill:#FFFFFF;" d="M479-113.9c-2,0-2,3.2,0,3.2S481-113.9,479-113.9z"/>
	<path style="fill:#FFFFFF;" d="M489-154.1c-2,0-2,2,0,2C490-152.1,490-154.1,489-154.1z"/>
	<path style="fill:#FFFFFF;" d="M455.8-162.8c-0.3-0.5-1-0.9-1.5-0.6l0,0c-0.2,0.1-0.4,0.2-0.6,0.3c-0.2,0.2-0.4,0.6-0.4,0.9
		c0,0.2,0.1,0.5,0.2,0.7c0.2,0.3,0.4,0.5,0.8,0.6l0,0c0.5,0.2,1.2-0.1,1.5-0.6C456.1-161.9,456.1-162.5,455.8-162.8z"/>
	<path style="fill:#FFFFFF;" d="M429-167.1c-3,0-3,5.1,0,5.1S432-167.1,429-167.1z"/>
	<path style="fill:#FFFFFF;" d="M385-153.1c-1,0-1,2,0,2C387-151.1,387-153.1,385-153.1z"/>
	<path style="fill:#FFFFFF;" d="M491-51.4c-3,0-3,4.1,0,4.1S494-51.4,491-51.4z"/>
	<path style="fill:#FFFFFF;" d="M490-99.9c-3,0-3,4.1,0,4.1C492-95.8,492-99.9,490-99.9z"/>
	<path style="fill:#FFFFFF;" d="M484.7-55.1c-0.4-1.5-1.8-2.5-3.3-2.5s-2.9,1-3.3,2.5c-0.2,0.6-0.2,1.2,0,1.8
		c0.1,0.3,0.2,0.5,0.3,0.8c0.3,0.5,0.7,0.9,1.2,1.2c0.1,0,0.1,0.1,0.2,0.1c0.8,0.6,2.2,0.6,3,0c0.1,0,0.1-0.1,0.2-0.1
		c0.5-0.3,0.9-0.7,1.2-1.2C484.8-53.2,485-54.2,484.7-55.1z"/>
	<path style="fill:#FFFFFF;" d="M184,8.9c-3,0-3,4.5,0,4.5S187,8.9,184,8.9z"/>
	<path style="fill:#FFFFFF;" d="M196,32.2c-3,0-3,3.8,0,3.8C198,36.1,198,32.2,196,32.2z"/>
	<path style="fill:#FFFFFF;" d="M168,83.5c-2,0-2,3.1,0,3.1S170,83.5,168,83.5z"/>
	<path style="fill:#FFFFFF;" d="M146,59.1c-2,0-2,2.9,0,2.9S148,59.1,146,59.1z"/>
	<path style="fill:#FFFFFF;" d="M141.4,89.7c0,0,0-0.1-0.1-0.1c-0.1-0.1-0.1-0.1-0.2-0.2c-0.3-0.3-0.6-0.4-1-0.4
		c-0.5,0-0.8,0.4-0.8,0.8s0.3,0.7,0.7,0.8l0.1,0.1c0.3,0.3,0.7,0.3,1.1,0.2C141.8,90.9,141.9,90,141.4,89.7z"/>
	<path style="fill:#FFFFFF;" d="M189,92.2c-1,0-1,1.9,0,1.9S190,92.2,189,92.2z"/>
	<path style="fill:#FFFFFF;" d="M160,103.5c-4,0-4,7.4,0,7.4C165,110.8,165,103.5,160,103.5z"/>
	<path style="fill:#FFFFFF;" d="M141,125c-4,0-4,5.6,0,5.6S145,125,141,125z"/>
	<path style="fill:#FFFFFF;" d="M139,71.6c-3,0-3,3.9,0,3.9C141,75.5,141,71.6,139,71.6z"/>
	<path style="fill:#FFFFFF;" d="M127,89.6c-2,0-2,3.4,0,3.4S129,89.6,127,89.6z"/>
	<path style="fill:#FFFFFF;" d="M125,106.2c-2,0-2,2.9,0,2.9S127,106.2,125,106.2z"/>
	<path style="fill:#FFFFFF;" d="M127.7,44.2c-0.3-0.3-0.6-0.4-1-0.4c-0.6,0-0.9,0.3-1.2,0.7c-0.4,0.5-0.6,1-0.5,1.6s0.4,1.1,1,1.3
		c0.3,0.1,0.7,0,1-0.1c0.3-0.2,0.5-0.5,0.6-0.8c0.1-0.1,0.2-0.1,0,0l0,0c0.3-0.2,0.5-0.4,0.6-0.8C128.2,45.1,128.1,44.5,127.7,44.2z
		"/>
	<path style="fill:#FFFFFF;" d="M169,25.7c-1,0-1,1.5,0,1.5S170,25.7,169,25.7z"/>
	<path style="fill:#FFFFFF;" d="M184,40.8c-1,0-1,2,0,2S185,40.8,184,40.8z"/>
	<path style="fill:#FFFFFF;" d="M220,40.7c-2,0-2,3.2,0,3.2S222,40.7,220,40.7z"/>
	<path style="fill:#FFFFFF;" d="M230,0.5c-1,0-1,2,0,2C232,2.5,232,0.5,230,0.5z"/>
	<path style="fill:#FFFFFF;" d="M197.5-8.2c-0.3-0.5-1-0.9-1.5-0.6l0,0c-0.2,0.1-0.4,0.2-0.6,0.3c-0.2,0.2-0.4,0.6-0.4,0.9
		c0,0.2,0.1,0.5,0.2,0.7c0.2,0.3,0.4,0.5,0.8,0.6l0,0c0.5,0.2,1.2-0.1,1.5-0.6C197.8-7.3,197.8-7.9,197.5-8.2z"/>
	<path style="fill:#FFFFFF;" d="M171-12.6c-3,0-3,5.1,0,5.1S174-12.6,171-12.6z"/>
	<path style="fill:#FFFFFF;" d="M127,1.5c-1,0-1,2,0,2S128,1.5,127,1.5z"/>
	<path style="fill:#FFFFFF;" d="M231,54.6c-2,0-2,4.1,0,4.1C234,58.8,234,54.6,231,54.6z"/>
	<path style="fill:#FFFFFF;" d="M246,39.5c-2,0-2,2.8,0,2.8S248,39.5,246,39.5z"/>
	<path style="fill:#FFFFFF;" d="M252.8,0.4c-0.5-0.4-1-0.7-1.7-0.7c-0.8,0-1.6,0.5-2,1.2s-0.4,1.7,0,2.4c0.3,0.6,1,1.1,1.7,1.2
		c0,0,0.1,0,0.1,0.1h-0.1c0.2,0.1,0.4,0.1,0.6,0.1c0.4,0,0.7-0.1,1-0.3c0.7-0.4,1.1-1.2,1.1-1.9C253.7,1.6,253.3,0.8,252.8,0.4z"/>
	<path style="fill:#FFFFFF;" d="M313,8.9c-3,0-3,4.5,0,4.5S316,8.9,313,8.9z"/>
	<path style="fill:#FFFFFF;" d="M325,32.2c-3,0-3,3.8,0,3.8C327,36.1,327,32.2,325,32.2z"/>
	<path style="fill:#FFFFFF;" d="M297,83.5c-2,0-2,3.1,0,3.1S299,83.5,297,83.5z"/>
	<path style="fill:#FFFFFF;" d="M270.6,89.7c0,0,0-0.1-0.1-0.1c-0.1-0.1-0.1-0.1-0.2-0.2c-0.3-0.3-0.6-0.4-1-0.4
		c-0.5,0-0.8,0.4-0.8,0.8s0.3,0.7,0.7,0.8l0.1,0.1c0.3,0.3,0.7,0.3,1.1,0.2C271,90.9,271.1,90,270.6,89.7z"/>
	<path style="fill:#FFFFFF;" d="M317,68.9c-1,0-1,2.6,0,2.6C319,71.5,319,68.9,317,68.9z"/>
	<path style="fill:#FFFFFF;" d="M318,92.2c-1,0-1,1.9,0,1.9S319,92.2,318,92.2z"/>
	<path style="fill:#FFFFFF;" d="M335.5,61.3c-1.9,0-3.6,1.6-3.6,3.6c0,2,1.6,3.6,3.6,3.6s3.6-1.6,3.6-3.6S337.5,61.3,335.5,61.3z"/>
	<path style="fill:#FFFFFF;" d="M311,115.5c-5,0-5,6.3,0,6.3C315,121.8,315,115.5,311,115.5z"/>
	<path style="fill:#FFFFFF;" d="M256,89.6c-2,0-2,3.4,0,3.4S258,89.6,256,89.6z"/>
	<path style="fill:#FFFFFF;" d="M254,106.2c-2,0-2,2.9,0,2.9S256,106.2,254,106.2z"/>
	<path style="fill:#FFFFFF;" d="M256.8,44.2c-0.3-0.3-0.6-0.4-1-0.4c-0.6,0-0.9,0.3-1.2,0.7c-0.4,0.5-0.6,1-0.5,1.6s0.4,1.1,1,1.3
		c0.3,0.1,0.7,0,1-0.1c0.3-0.2,0.5-0.5,0.6-0.8c0.1-0.1,0.2-0.1,0,0l0,0c0.3-0.2,0.5-0.4,0.6-0.8C257.4,45.1,257.2,44.5,256.8,44.2z
		"/>
	<path style="fill:#FFFFFF;" d="M299,25.7c-1,0-1,1.5,0,1.5S300,25.7,299,25.7z"/>
	<path style="fill:#FFFFFF;" d="M313,40.8c-1,0-1,2,0,2S314,40.8,313,40.8z"/>
	<path style="fill:#FFFFFF;" d="M349,40.7c-2,0-2,3.2,0,3.2C352,43.9,352,40.7,349,40.7z"/>
	<path style="fill:#FFFFFF;" d="M360,0.5c-2,0-2,2,0,2C361,2.5,361,0.5,360,0.5z"/>
	<path style="fill:#FFFFFF;" d="M326.6-8.2c-0.3-0.5-1-0.9-1.5-0.6l0,0c-0.2,0.1-0.4,0.2-0.6,0.3c-0.2,0.2-0.4,0.6-0.4,0.9
		c0,0.2,0.1,0.5,0.2,0.7c0.2,0.3,0.4,0.5,0.8,0.6l0,0c0.5,0.2,1.2-0.1,1.5-0.6C326.9-7.3,326.9-7.9,326.6-8.2z"/>
	<path style="fill:#FFFFFF;" d="M300-12.6c-3,0-3,5.1,0,5.1S303-12.6,300-12.6z"/>
	<path style="fill:#FFFFFF;" d="M336.3-21.1c-0.4,0.1-0.8,0.4-1.1,0.7c-0.7,0.6-0.7,2,0,2.5c0.3,0.3,0.7,0.6,1.1,0.7
		c1.3,0.3,2.5-0.6,2.5-1.9C338.8-20.4,337.6-21.4,336.3-21.1z"/>
	<path style="fill:#FFFFFF;" d="M256,1.5c-1,0-1,2,0,2C258,3.5,258,1.5,256,1.5z"/>
	<path style="fill:#FFFFFF;" d="M362,103.2c-3,0-3,4.1,0,4.1S365,103.2,362,103.2z"/>
	<path style="fill:#FFFFFF;" d="M360,54.6c-2,0-2,4.1,0,4.1C363,58.8,363,54.6,360,54.6z"/>
	<path style="fill:#FFFFFF;" d="M375,39.5c-2,0-2,2.8,0,2.8S377,39.5,375,39.5z"/>
	<path style="fill:#FFFFFF;" d="M382,0.4c-0.5-0.4-1-0.7-1.7-0.7c-0.8,0-1.6,0.5-2,1.2s-0.4,1.7,0,2.4c0.3,0.6,1,1.1,1.7,1.2
		c0,0,0.1,0,0.1,0.1H380c0.2,0.1,0.4,0.1,0.6,0.1c0.4,0,0.7-0.1,1-0.3c0.7-0.4,1.1-1.2,1.1-1.9C382.8,1.6,382.5,0.8,382,0.4z"/>
	<path style="fill:#FFFFFF;" d="M355.6,99.5c-0.4-1.5-1.8-2.5-3.3-2.5s-2.9,1-3.3,2.5c-0.2,0.6-0.2,1.2,0,1.8
		c0.1,0.3,0.2,0.5,0.3,0.8c0.3,0.5,0.7,0.9,1.2,1.2c0.1,0,0.1,0.1,0.2,0.1c0.8,0.6,2.2,0.6,3,0c0.1,0,0.1-0.1,0.2-0.1
		c0.5-0.3,0.9-0.7,1.2-1.2C355.7,101.3,355.8,100.4,355.6,99.5z"/>
	<path style="fill:#FFFFFF;" d="M442,8.9c-3,0-3,4.5,0,4.5S445,8.9,442,8.9z"/>
	<path style="fill:#FFFFFF;" d="M454,32.2c-2,0-2,3.8,0,3.8C457,36.1,457,32.2,454,32.2z"/>
	<path style="fill:#FFFFFF;" d="M426,83.5c-2,0-2,3.1,0,3.1S428,83.5,426,83.5z"/>
	<path style="fill:#FFFFFF;" d="M399.7,89.7c0,0,0-0.1-0.1-0.1c-0.1-0.1-0.1-0.1-0.2-0.2c-0.3-0.3-0.6-0.4-1-0.4
		c-0.5,0-0.8,0.4-0.8,0.8s0.3,0.7,0.7,0.8l0.1,0.1c0.3,0.3,0.7,0.3,1.1,0.2C400.1,90.9,400.2,90,399.7,89.7z"/>
	<path style="fill:#FFFFFF;" d="M446,68.9c-1,0-1,2.6,0,2.6C448,71.5,448,68.9,446,68.9z"/>
	<path style="fill:#FFFFFF;" d="M447,92.2c-1,0-1,1.9,0,1.9C449,94.2,449,92.2,447,92.2z"/>
	<path style="fill:#FFFFFF;" d="M464.7,61.3c-1.9,0-3.6,1.6-3.6,3.6c0,2,1.6,3.6,3.6,3.6s3.6-1.6,3.6-3.6S466.6,61.3,464.7,61.3z"/>
	<path style="fill:#FFFFFF;" d="M399,125c-3,0-3,5.6,0,5.6C403,130.6,403,125,399,125z"/>
	<path style="fill:#FFFFFF;" d="M385,89.6c-2,0-2,3.4,0,3.4C388,93,388,89.6,385,89.6z"/>
	<path style="fill:#FFFFFF;" d="M383,106.2c-2,0-2,2.9,0,2.9S385,106.2,383,106.2z"/>
	<path style="fill:#FFFFFF;" d="M442,40.8c-1,0-1,2,0,2S443,40.8,442,40.8z"/>
	<path style="fill:#FFFFFF;" d="M479,40.7c-2,0-2,3.2,0,3.2S481,40.7,479,40.7z"/>
	<path style="fill:#FFFFFF;" d="M489,0.5c-2,0-2,2,0,2C490,2.5,490,0.5,489,0.5z"/>
	<path style="fill:#FFFFFF;" d="M455.8-8.2c-0.3-0.5-1-0.9-1.5-0.6l0,0c-0.2,0.1-0.4,0.2-0.6,0.3c-0.2,0.2-0.4,0.6-0.4,0.9
		c0,0.2,0.1,0.5,0.2,0.7c0.2,0.3,0.4,0.5,0.8,0.6l0,0c0.5,0.2,1.2-0.1,1.5-0.6C456.1-7.3,456.1-7.9,455.8-8.2z"/>
	<path style="fill:#FFFFFF;" d="M429-12.6c-3,0-3,5.1,0,5.1S432-12.6,429-12.6z"/>
	<path style="fill:#FFFFFF;" d="M465.5-21.1c-0.4,0.1-0.8,0.4-1.1,0.7c-0.7,0.6-0.7,2,0,2.5c0.3,0.3,0.7,0.6,1.1,0.7
		c1.3,0.3,2.5-0.6,2.5-1.9C468-20.4,466.7-21.4,465.5-21.1z"/>
	<path style="fill:#FFFFFF;" d="M385,1.5c-1,0-1,2,0,2C387,3.5,387,1.5,385,1.5z"/>
	<path style="fill:#FFFFFF;" d="M490,54.6c-3,0-3,4.1,0,4.1C492,58.8,492,54.6,490,54.6z"/>
	<path style="fill:#FFFFFF;" d="M141,141.8c-4,0-4,5.6,0,5.6S145,141.8,141,141.8z"/>
	<path style="fill:#FFFFFF;" d="M270,141.8c-3,0-3,5.6,0,5.6C274,147.4,274,141.8,270,141.8z"/>
	<path style="fill:#FFFFFF;" d="M184,180.2c-3,0-3,4.5,0,4.5S187,180.2,184,180.2z"/>
	<path style="fill:#FFFFFF;" d="M169,197.1c-1,0-1,1.5,0,1.5S170,197.1,169,197.1z"/>
	<path style="fill:#FFFFFF;" d="M230,171.9c-1,0-1,2,0,2C232,173.9,232,171.9,230,171.9z"/>
	<path style="fill:#FFFFFF;" d="M197.5,163.2c-0.3-0.5-1-0.9-1.5-0.6l0,0c-0.2,0.1-0.4,0.2-0.6,0.3c-0.2,0.2-0.4,0.6-0.4,0.9
		c0,0.2,0.1,0.5,0.2,0.7c0.2,0.3,0.4,0.5,0.8,0.6l0,0c0.5,0.2,1.2-0.1,1.5-0.6C197.8,164.1,197.8,163.5,197.5,163.2z"/>
	<path style="fill:#FFFFFF;" d="M171,158.8c-3,0-3,5.1,0,5.1S174,158.8,171,158.8z"/>
	<path style="fill:#FFFFFF;" d="M207.2,150.3c-0.4,0.1-0.8,0.4-1.1,0.7c-0.7,0.6-0.7,2,0,2.5c0.3,0.3,0.7,0.6,1.1,0.7
		c1.3,0.3,2.5-0.6,2.5-1.9S208.4,150,207.2,150.3z"/>
	<path style="fill:#FFFFFF;" d="M127,172.9c-1,0-1,2,0,2S128,172.9,127,172.9z"/>
	<path style="fill:#FFFFFF;" d="M252.8,171.8c-0.5-0.4-1-0.7-1.7-0.7c-0.8,0-1.6,0.5-2,1.2s-0.4,1.7,0,2.4c0.3,0.6,1,1.1,1.7,1.2
		c0,0,0.1,0,0.1,0.1h-0.1c0.2,0.1,0.4,0.1,0.6,0.1c0.4,0,0.7-0.1,1-0.3c0.7-0.4,1.1-1.2,1.1-1.9C253.7,173,253.3,172.2,252.8,171.8z
		"/>
	<path style="fill:#FFFFFF;" d="M313,180.2c-3,0-3,4.5,0,4.5S316,180.2,313,180.2z"/>
	<path style="fill:#FFFFFF;" d="M299,197.1c-1,0-1,1.5,0,1.5S300,197.1,299,197.1z"/>
	<path style="fill:#FFFFFF;" d="M360,171.9c-2,0-2,2,0,2C361,173.9,361,171.9,360,171.9z"/>
	<path style="fill:#FFFFFF;" d="M326.6,163.2c-0.3-0.5-1-0.9-1.5-0.6l0,0c-0.2,0.1-0.4,0.2-0.6,0.3c-0.2,0.2-0.4,0.6-0.4,0.9
		c0,0.2,0.1,0.5,0.2,0.7c0.2,0.3,0.4,0.5,0.8,0.6l0,0c0.5,0.2,1.2-0.1,1.5-0.6C326.9,164.1,326.9,163.5,326.6,163.2z"/>
	<path style="fill:#FFFFFF;" d="M300,158.8c-3,0-3,5.1,0,5.1S303,158.8,300,158.8z"/>
	<path style="fill:#FFFFFF;" d="M336.3,150.3c-0.4,0.1-0.8,0.4-1.1,0.7c-0.7,0.6-0.7,2,0,2.5c0.3,0.3,0.7,0.6,1.1,0.7
		c1.3,0.3,2.5-0.6,2.5-1.9S337.6,150,336.3,150.3z"/>
	<path style="fill:#FFFFFF;" d="M382,171.8c-0.5-0.4-1-0.7-1.7-0.7c-0.8,0-1.6,0.5-2,1.2s-0.4,1.7,0,2.4c0.3,0.6,1,1.1,1.7,1.2
		c0,0,0.1,0,0.1,0.1H380c0.2,0.1,0.4,0.1,0.6,0.1c0.4,0,0.7-0.1,1-0.3c0.7-0.4,1.1-1.2,1.1-1.9C382.8,173,382.5,172.2,382,171.8z"/>
	<path style="fill:#FFFFFF;" d="M442,180.2c-3,0-3,4.5,0,4.5S445,180.2,442,180.2z"/>
	<path style="fill:#FFFFFF;" d="M428,197.1c-1,0-1,1.5,0,1.5S429,197.1,428,197.1z"/>
	<path style="fill:#FFFFFF;" d="M489,171.9c-2,0-2,2,0,2C490,173.9,490,171.9,489,171.9z"/>
	<path style="fill:#FFFFFF;" d="M455.8,163.2c-0.3-0.5-1-0.9-1.5-0.6l0,0c-0.2,0.1-0.4,0.2-0.6,0.3c-0.2,0.2-0.4,0.6-0.4,0.9
		c0,0.2,0.1,0.5,0.2,0.7c0.2,0.3,0.4,0.5,0.8,0.6l0,0c0.5,0.2,1.2-0.1,1.5-0.6C456.1,164.1,456.1,163.5,455.8,163.2z"/>
	<path style="fill:#FFFFFF;" d="M429,158.8c-3,0-3,5.1,0,5.1S432,158.8,429,158.8z"/>
	<path style="fill:#FFFFFF;" d="M465.5,150.3c-0.4,0.1-0.8,0.4-1.1,0.7c-0.7,0.6-0.7,2,0,2.5c0.3,0.3,0.7,0.6,1.1,0.7
		c1.3,0.3,2.5-0.6,2.5-1.9S466.7,150,465.5,150.3z"/>
	<path style="fill:#FFFFFF;" d="M484.7,99.5c-0.4-1.5-1.8-2.5-3.3-2.5s-2.9,1-3.3,2.5c-0.2,0.6-0.2,1.2,0,1.8
		c0.1,0.3,0.2,0.5,0.3,0.8c0.3,0.5,0.7,0.9,1.2,1.2c0.1,0,0.1,0.1,0.2,0.1c0.8,0.6,2.2,0.6,3,0c0.1,0,0.1-0.1,0.2-0.1
		c0.5-0.3,0.9-0.7,1.2-1.2C484.8,101.3,485,100.4,484.7,99.5z"/>
</g>
<g>
	<rect x="120" y="-172.4" style="fill:none;" width="380" height="380"/>
	<rect x="120.1" y="40.4" style="fill:#E0EAE2;" width="380" height="28.1"/>
</g>
<rect x="120" y="-172.4" style="fill:none;" width="380" height="380"/>
<g>
	<path style="opacity:0.36;fill:#80A3AD;enable-background:new    ;" d="M176.9,56.6c-1.3,1.1-5,1.1-7,1c-0.3-0.8-0.6-1.4-0.9-1.8
		c2.9-0.3,5.6-1.2,6.4-2.4c0.5-0.7,0.5-1.3,0.3-1.8c0.1-0.1,0.2-0.2,0.3-0.3l0,0l0,0c0-0.1,0.1-0.1,0.1-0.2c0-0.4-0.6-0.7-1.4-0.8
		c-0.3-0.2-0.6-0.4-0.6-0.4s-0.3-0.1-0.7-0.4c0.1,0,0.2-0.1,0.2-0.2c0-0.2-0.3-0.3-0.6-0.3h-0.1c-0.5-0.4-1-1-1.4-1.8
		c-0.2-0.4-0.5-0.7-0.8-0.9l0.9-0.7c0.3-0.3,0.3-0.8-0.1-1.1l-1.2-0.7c-0.1,0-0.1,0-0.2-0.1l0,0c0,0,0,0-0.1,0h-0.1
		c-0.1,0-0.1,0-0.2,0h-0.1c-0.1,0-0.1,0.1-0.1,0.1s0,0-0.1,0.1s-0.1,0.1-0.1,0.2l-0.4,1.1c-0.4-0.3-0.9-0.5-1.4-0.6l0,0
		c0,0-4.4-2.8-8.2-1.6c-3.8,1.3-2.9,4.6-3.6,5.7c-0.4,0.6-1.4,1.1-2.2,1.5c-0.1-0.2-0.2-0.4-0.4-0.5c-0.3-0.2-0.6-0.3-0.9-0.2l0,0
		c0,0,0,0-0.1,0s-0.1,0-0.2,0h-0.1c-0.1,0-0.1,0-0.2,0.1h-0.1c-0.1,0-0.1,0.1-0.2,0.1c0,0-0.1,0-0.1,0.1c-0.1,0.1-0.1,0.1-0.2,0.2
		c-0.2,0.2-0.2,0.5-0.2,0.7l0,0c0,0.4,0.2,0.9,0.6,1.1c0.1,0.1,0.2,0.1,0.3,0.1h0.1c0.1,0,0.2,0,0.2,0h0.1c0.1,0,0.2,0,0.3,0l0,0
		c0.1,0,0.2-0.1,0.3-0.1l0,0l0,0c0.2-0.1,0.4-0.3,0.6-0.5c0.1-0.1,0.1-0.2,0.2-0.4c0.4,0,0.8,0,1.2,0l0,0l0,0c0.2,0,0.4,0,0.5-0.1
		h0.1c0.2,0,0.4-0.1,0.5-0.2c0.7-0.3,1.2-0.7,1.8-0.7c0.4,0,0.8,0.4,1.2,1.4l0,0l0,0c0.2,0.5,0.4,0.9,0.7,1.3c0,0.1,0,0.1,0,0.1
		c0.1,0.1,0.1,0.3,0.2,0.4l0.1,0.1c0.1,0.1,0.1,0.2,0.2,0.2l0.1,0.1c0.1,0.1,0.1,0.1,0.2,0.2l0.1,0.1c0.1,0.1,0.1,0.1,0.2,0.2
		c0.1,0,0.1,0.1,0.2,0.1l0.1,0.1c-0.1,0.1-0.2,0.3-0.4,0.5c-0.2,0-0.4,0-0.5,0c-5.7-0.2-9.5,2.5-9.9,5.3c0,0.1,0,0.2,0,0.3l0,0
		c-0.3,0.2-0.2,0.5,0,0.5l0,0c0,0.4,0.1,0.8,0.3,1.1l0,0c-0.2,0.3,0.2,0.6,0.3,0.4l0,0c0,0,0,0,0.1,0.1l0,0l0,0
		c0.1,0.1,0.3,0.3,0.4,0.4l0,0c0.1,0.1,0.2,0.1,0.3,0.2l0,0c0,0.2,0.4,0.3,0.4,0.1l0,0c0.3,0.1,0.6,0.1,0.9,0h0.1
		c0.1,0,0.3-0.1,0.4-0.1h0.1c0.2-0.1,0.3-0.1,0.5-0.2c0,0,0.1,0,0.1-0.1c0.1-0.1,0.2-0.2,0.3-0.3l0.1-0.1c0.1-0.1,0.2-0.3,0.3-0.5
		c0.2-0.5,0.8-1.1,1.6-1.5c0.4-0.2,0.7-0.5,1.1-0.7c-0.1,0.1-0.1,0.2-0.2,0.3c0,0,0,0.1-0.1,0.1c-0.1,0.2-0.1,0.3-0.2,0.5
		c0,0.1,0,0.1-0.1,0.2c-0.1,0.2-0.2,0.4-0.2,0.6v0.1c-0.1,0.2-0.1,0.3-0.2,0.5c0,0.1,0,0.1-0.1,0.2c-0.1,0.2-0.1,0.4-0.2,0.5
		c0,0,0,0,0,0.1c-0.1,0.2-0.1,0.4-0.2,0.6c0,0.1,0,0.1,0,0.2s0,0.1,0,0.2h-0.1c-0.1,0-0.1,0-0.2,0l0,0l0,0c-0.1,0-0.2,0-0.2,0
		c-0.9,0-1.7,0.7-1.7,1.6c0,0.7,0.6,1.4,1.3,1.5c-0.2,0.1-0.4,0.2-0.7,0.2c-0.5,0.1-1,0.2-1.6,0.3c0-0.1-0.1-0.1-0.2-0.2h0.3
		c0-0.2-0.2-0.4-0.5-0.4l-1.4,0.1c-0.2,0-0.4,0.2-0.4,0.5c0,0-0.3,0-0.8-0.1c-0.2,0-0.3,0-0.5,0s-0.4,0-0.6,0s-0.4,0-0.6,0
		c-0.3,0-0.6,0-0.9,0.1c-0.1,0-0.2,0-0.3,0c-1.1,0.2-1.8,1.2-2.2,2.7l-1.1-0.4l-0.2-0.1c0.1-1.7,0.3-2.5,0.3-2.5
		c0.1-0.3-0.1-0.5-0.4-0.6c-0.1,0-0.1,0-0.2,0l0,0l0,0c0,0,0,0-0.1,0h-0.1c0,0,0,0-0.1,0c0,0-0.1,0-0.1,0.1l0,0
		c0,0.1-0.1,0.1-0.1,0.2l0,0c0,0.1-0.6,2.9-0.4,8.2c0.1,1.9,0.6,3.3,1.7,4c1.5,1.1,3.3,0.5,3.3,0.5c0.1,0,0.1-0.1,0.2-0.1l0,0
		l0.1-0.1l0,0l0,0c0.1-0.1,0.1-0.2,0-0.4c-0.1-0.3-0.4-0.4-0.6-0.3c0,0-1.4,0.4-2.5-0.4c-0.5-0.4-0.8-0.9-1.1-1.7l1.6-0.5l0,0
		c0,0.1,0.1,0.2,0.1,0.3l0.1,0.1c0.1,0.1,0.1,0.1,0.2,0.2l0.1,0.1c0.1,0,0.1,0.1,0.2,0.1c0,0,0.1,0,0.1,0.1c0.1,0,0.1,0,0.2,0.1h0.1
		c0.1,0,0.2,0,0.3,0l0,0c1-0.1,2.1-1.3,2.2-2c0.2-1.2,2.3-1,2.3-1l0,0c0,0.2,0.2,0.4,0.4,0.4l0,0l0,0v-0.2c0.2,0.1,0.4,0.2,0.7,0.2
		c0.5,0,1-0.4,1.1-1c2.2-0.2,3.9-1.6,5.1-2.9c0.1,0,0.1,0.1,0.2,0.1c0.1,0.1,0.2,0.1,0.3,0.2c0.1,0,0.1,0.1,0.2,0.1l0,0
		c2.1,1.2,4.2,1.7,6,1.6c0.1,0.8,0.2,1.6,0.3,2.4c-0.1,0.1-0.2,0.2-0.3,0.3l-0.1-0.3c-0.2,0.1-0.3,0.3-0.3,0.5l0.3,1.4
		c0.1,0.2,0.3,0.4,0.5,0.3c0,0,0.2,2.4,0.7,3.8c0.4,1,1.4,1.5,2.9,1.6l-0.1,1.1l0,0l0,0v0.4c-1.7,0.2-2.5,0.2-2.6,0.2
		c-0.3,0-0.5,0.2-0.5,0.5c0,0.1,0,0.1,0,0.2l0,0l0,0c0,0,0,0,0,0.1c0,0,0,0.1,0.1,0.1c0,0,0,0,0.1,0c0,0,0.1,0,0.1,0.1
		c0,0,0,0,0.1,0s0.1,0,0.2,0l0,0c0.1,0,3,0,8.1-1.3c1.9-0.5,3.1-1.3,3.6-2.5c0.7-1.6-0.1-3.3-0.2-3.4c0-0.1-0.1-0.1-0.1-0.2l0,0
		l-0.1-0.1l0,0l0,0c-0.1,0-0.2,0-0.4,0c-0.2,0.1-0.3,0.4-0.2,0.7c0,0,0.7,1.3,0.1,2.5c-0.3,0.6-0.7,1-1.5,1.4l-0.7-1.4
		c0,0,0.1,0,0.1-0.1c0,0,0,0,0.1,0c0.1-0.1,0.2-0.2,0.3-0.2l0,0c0.1-0.1,0.2-0.2,0.2-0.3l0,0c0.1-0.1,0.1-0.2,0.2-0.3l0,0
		c0-0.1,0.1-0.2,0.1-0.3l0,0c0-0.1,0-0.2,0-0.3l0,0c0-0.1,0-0.2-0.1-0.3l0,0l0,0c-0.3-1-1.7-1.8-2.4-1.8c-1.2,0-1.5-2.1-1.5-2.1l0,0
		c0.2-0.1,0.3-0.3,0.3-0.5l0,0l0,0h-0.2c0.1-0.2,0.1-0.5,0.1-0.7c-0.1-0.5-0.6-0.9-1.1-0.9c-0.6-1.3-1.4-2.6-1.9-3.6
		c1.1-3.3,1.5-5.9,1.5-8c0.2,0.1,0.4,0.2,0.6,0.2c0.1,0,0.2,0.1,0.3,0.1c0.2,0.1,0.4,0.1,0.6,0.2c0.1,0,0.2,0,0.3,0.1
		c0.2,0,0.4,0.1,0.6,0.1c0.1,0,0.2,0,0.3,0c0.2,0,0.4,0.1,0.6,0.1c0.1,0,0.2,0,0.2,0c0.2,0,0.4,0,0.6,0c0.1,0,0.1,0,0.2,0
		c0.2,0,0.4,0,0.6,0c0.1,0,0.1,0,0.2,0c0.2,0,0.4,0,0.6-0.1l0,0l0,0c1.9-0.3,3.4-1.1,4.1-2.4C182.4,56.9,178.7,55,176.9,56.6z
		 M174.8,82.6l0.1,0.1c-0.2,0-0.3,0.1-0.5,0.1c-1.7,0.4-3.1,0.7-4.3,0.9l0.1-1.4c0,0,0,0,0-0.1c0.7,0,1.5-0.2,2.4-0.4
		c0.5-0.1,1-0.3,1.5-0.5l0,0l0.5,1.1l0,0L174.8,82.6z M144.6,71.8c0,0.2,0,0.4,0,0.7c0,0.7,0.1,1.4,0.2,2.3l0,0
		c0,0.1,0.1,0.3,0.1,0.4l-1.5,0.4c0-0.2,0-0.3,0-0.5c-0.1-1.7,0-3.2,0-4.4l1.2,0.4C144.6,71.3,144.6,71.5,144.6,71.8z"/>
	<g>
		<g>
			<g>
				<circle style="fill:#E3FFFE;" cx="151" cy="51.6" r="1.4"/>
				<path style="fill:#C8EDEA;" d="M151.6,52.8c-0.3,0-0.6-0.1-0.9-0.2c-0.6-0.4-0.8-1.3-0.3-1.9c0.1-0.2,0.3-0.4,0.6-0.5
					c-0.4,0-0.8,0.2-1,0.6c-0.4,0.6-0.3,1.5,0.3,1.9C150.7,52.9,151.2,53,151.6,52.8z"/>
			</g>
			<g>
				<path style="fill:#D62E36;" d="M166.3,45.4c0,0-4.4-2.8-8.2-1.6c-3.8,1.3-2.9,4.6-3.6,5.7s-3.1,1.8-3.1,1.8
					c-1.1,0.4,1.8,1.1,3.4,0.4c1.2-0.5,2-1.6,3,0.7C158.3,53.8,166.3,45.4,166.3,45.4z"/>
				<path style="fill:#A5272E;" d="M166.2,45.5l-3.4-0.4c0,0-4.2,1.2-5.4,2.7c-0.8,1-1.3,3.1-3.9,4.2c0.4,0,0.8-0.1,1.2-0.3
					c1.2-0.5,2-1.6,3,0.7C158.3,53.7,165.4,46.3,166.2,45.5z"/>
			</g>
			<g>
				<ellipse style="fill:#E3FFFE;" cx="163.9" cy="50.6" rx="6.5" ry="5.6"/>
				<path style="fill:#C8EDEA;" d="M170.3,50.6c0-0.9-0.3-1.8-0.7-2.5c-1.2-1.5-3.1-2.4-5.4-2.4c-3.6,0-6.5,2.5-6.5,5.5
					c0,1.1,0.4,2.1,1,2.9c1.2,1.3,3,2.2,5.1,2.2C167.4,56.2,170.3,53.7,170.3,50.6z"/>
			</g>
		</g>
		<g>
			<g>
				<path style="fill:#FFFFFF;" d="M166.8,68.6c0,0,4.4,6.8,4.4,9.6s-3.7,2.3-4.8,2c-2.7-0.9-2.6-8.9-3-10.4
					C163,68,165.7,66.8,166.8,68.6z"/>
				<path style="fill:#F2F1DA;" d="M164.5,70.4c-0.3-1.2,1-2.2,2.2-2c-1.2-1.5-3.7-0.3-3.2,1.3c0.4,1.5,0.3,9.5,3,10.4
					c0.1,0,0.1,0,0.2,0.1C164.8,78.1,164.8,71.7,164.5,70.4z"/>
			</g>
			<g>
				<path style="fill:#60281B;" d="M174.3,84.2c-0.2,0-0.4-0.1-0.5-0.3l-1.1-2c-0.1-0.2,0-0.6,0.2-0.7s0.6,0,0.7,0.2l1.1,2
					c0.1,0.2,0,0.6-0.2,0.7C174.5,84.2,174.4,84.2,174.3,84.2z"/>
				<path style="fill:#60281B;" d="M168.2,85.5L168.2,85.5c-0.3,0-0.5-0.3-0.5-0.6l0.2-2c0-0.3,0.3-0.5,0.6-0.5s0.5,0.3,0.5,0.6
					l-0.2,2C168.7,85.4,168.5,85.5,168.2,85.5z"/>
				<path style="fill:#60281B;" d="M165.2,85.9c-0.3,0-0.5-0.2-0.5-0.5s0.2-0.5,0.5-0.5c0,0,2.9,0,7.9-1.3c1.5-0.4,2.5-1,2.9-1.9
					c0.5-1.2-0.1-2.5-0.1-2.5c-0.1-0.2,0-0.6,0.2-0.7s0.6,0,0.7,0.2c0,0.1,0.9,1.7,0.2,3.4c-0.5,1.2-1.7,2-3.6,2.5
					C168.2,85.8,165.3,85.9,165.2,85.9L165.2,85.9z"/>
				<path style="fill:#491C13;" d="M176.7,78.7c-0.1-0.1-0.2-0.2-0.3-0.3c0.2,0.3,0.8,1.8,0.1,3.3c-0.5,1.2-1.7,2-3.6,2.5
					c-5.1,1.3-8,1.3-8.1,1.3l0,0h-0.1c0.1,0.2,0.3,0.3,0.5,0.3l0,0c0.1,0,3,0,8.1-1.3c1.9-0.5,3.1-1.3,3.6-2.5
					C177.6,80.4,176.8,78.8,176.7,78.7z"/>
				<polygon style="fill:#491C13;" points="167.8,84.6 168.5,84.5 167.8,84.2 				"/>
				<path style="fill:#491C13;" d="M173.6,83.4c0,0,0.4-0.1,0.5-0.2l-0.8-0.2L173.6,83.4z"/>
			</g>
			<g>
				<g>
					<path style="fill:#D62E36;" d="M170.9,76c0,0,0.3,2.2,1.5,2.1c1.2,0,4.6,2.5,0.4,4s-7.1,1.1-7.8-0.7c-0.5-1.3-0.7-3.8-0.7-3.8
						L170.9,76z"/>
					<path style="fill:#A5272E;" d="M173,81.1c-4.2,1.5-7.1,1.1-7.8-0.7c-0.3-0.8-0.5-1.9-0.6-2.8l-0.3,0.1c0,0,0.2,2.4,0.7,3.8
						c0.7,1.8,3.6,2.2,7.8,0.7c1.8-0.6,2.2-1.5,1.9-2.2C174.5,80.3,173.9,80.7,173,81.1z"/>
				</g>
				<g>
					<path style="fill:#E3FFFE;" d="M170.1,76.2l-5.1,1.2c-0.6,0.2-1.2-0.2-1.4-0.9l0,0c-0.2-0.6,0.2-1.2,0.9-1.4l5.1-1.2
						c0.6-0.2,1.2,0.2,1.4,0.9l0,0C171.1,75.4,170.7,76.1,170.1,76.2z"/>
					<path style="fill:#C8EDEA;" d="M171.1,75.5L171.1,75.5l-6.5,1.6c-0.2,0.1-0.5-0.1-0.5-0.3l-0.3-1.4c-0.2,0.1-0.3,0.3-0.3,0.5
						l0.3,1.4c0.1,0.2,0.3,0.4,0.5,0.3l6.5-1.6C171,76,171.2,75.8,171.1,75.5L171.1,75.5z"/>
				</g>
			</g>
		</g>
		<g>
			<path style="fill:#FFFFFF;" d="M167.3,58.2c0,0,6.6,0.7,8.4-0.9c1.7-1.6,5.5,0.3,3.6,3.5c-1.5,2.5-6,3.5-11.2,1
				S166.1,57.7,167.3,58.2z"/>
			<path style="fill:#F2F1DA;" d="M168.9,58.3c-0.9,0-1.6-0.1-1.6-0.1c-1.2-0.4-4.4,1.2,0.8,3.6c2.6,1.3,5.1,1.6,7.1,1.3
				c-1.5,0-3.3-0.3-4.3-0.8C169.7,61.8,169.1,59.4,168.9,58.3z"/>
			<g>
				<g>
					<circle style="fill:#60281B;" cx="177.3" cy="59.5" r="1.2"/>
					<path style="fill:#491C13;" d="M177.4,60.5c-0.6,0-1.1-0.5-1.1-1.1c0-0.4,0.3-0.8,0.6-1c-0.5,0.2-0.8,0.6-0.8,1.1
						c0,0.7,0.5,1.2,1.2,1.2s1.2-0.5,1.2-1.2c0,0,0,0,0-0.1C178.4,60,178,60.5,177.4,60.5z"/>
				</g>
				<g>
					<circle style="fill:#60281B;" cx="176.6" cy="57.6" r="0.5"/>
					<path style="fill:#491C13;" d="M176.6,58c-0.3,0-0.5-0.2-0.5-0.5c0-0.2,0.1-0.4,0.3-0.4c-0.2,0.1-0.4,0.3-0.4,0.5
						C176,57.9,176.2,58.1,176.6,58c0.2,0.1,0.4-0.1,0.4-0.4l0,0C177.1,57.8,176.9,58,176.6,58z"/>
				</g>
				<g>
					<circle style="fill:#60281B;" cx="178.1" cy="57.8" r="0.5"/>
					<path style="fill:#491C13;" d="M178.2,58.2c-0.3,0-0.5-0.2-0.5-0.5c0-0.2,0.1-0.4,0.3-0.4c-0.2,0.1-0.4,0.3-0.4,0.5
						C177.6,58.1,177.8,58.3,178.2,58.2c0.2,0.1,0.4-0.1,0.4-0.4l0,0C178.6,58,178.4,58.2,178.2,58.2z"/>
				</g>
				<g>
					<circle style="fill:#60281B;" cx="179.1" cy="59" r="0.5"/>
					<path style="fill:#491C13;" d="M179.1,59.4c-0.3,0-0.5-0.2-0.5-0.5c0-0.2,0.1-0.4,0.3-0.4c-0.2,0.1-0.4,0.3-0.4,0.5
						C178.5,59.3,178.7,59.5,179.1,59.4c0.2,0.1,0.4-0.1,0.4-0.4l0,0C179.6,59.2,179.4,59.4,179.1,59.4z"/>
				</g>
				<g>
					<circle style="fill:#60281B;" cx="178.8" cy="60.4" r="0.5"/>
					<path style="fill:#491C13;" d="M178.9,60.8c-0.3,0-0.5-0.2-0.5-0.5c0-0.2,0.1-0.4,0.3-0.4c-0.2,0.1-0.4,0.3-0.4,0.5
						C178.3,60.7,178.5,60.9,178.9,60.8c0.2,0.1,0.4-0.1,0.4-0.4l0,0C179.3,60.6,179.1,60.8,178.9,60.8z"/>
				</g>
			</g>
			<path style="fill:#F2F1DA;" d="M176.2,61.6L176.2,61.6c-1.3-0.3-1.5-1.5-1.5-2.1c0-0.1,0.1-0.2,0.2-0.2c0.1,0,0.2,0.1,0.2,0.2
				s-0.1,1.3,1.1,1.6c0.1,0,0.2,0.1,0.2,0.3C176.4,61.5,176.3,61.6,176.2,61.6z"/>
		</g>
		<g>
			<g>
				<path style="fill:#FFFFFF;" d="M168.6,47.7l1.7-1.4c0.3-0.3,0.3-0.8-0.1-1.1l-1.2-0.7c-0.4-0.2-0.8-0.1-1,0.3l-0.7,2
					c-0.1,0.3,0.1,0.7,0.4,0.8l0.2,0.1C168.1,47.9,168.4,47.9,168.6,47.7z"/>
				<path style="fill:#F2F1DA;" d="M168.4,47.7l-0.2-0.1c-0.3-0.1-0.5-0.5-0.4-0.8l0.7-2c0.1-0.1,0.2-0.3,0.3-0.3
					c-0.3-0.1-0.7,0.1-0.8,0.4l-0.7,2c-0.1,0.3,0.1,0.7,0.4,0.8l0.2,0.1C168.1,47.9,168.3,47.9,168.4,47.7
					C168.5,47.8,168.5,47.8,168.4,47.7z"/>
				<path style="fill:#DBBBA2;" d="M169.1,47.1l0.7-0.6c0.2-0.2,0.2-0.5,0-0.7l-0.4-0.3c-0.2-0.1-0.5,0-0.6,0.2l-0.3,0.9
					c-0.1,0.2,0,0.4,0.2,0.5l0,0C168.8,47.2,169,47.2,169.1,47.1z"/>
			</g>
			<g>
				<path style="fill:#FFFFFF;" d="M158.5,53.8c0,0-1.9-5.1,2.3-6.9s8.2-1.1,9.4,1.1c1.1,1.9,2.7,2.6,2.7,2.6s2.7,1.3,1.3,3.4
					C172.3,56.8,160.3,58.1,158.5,53.8z"/>
				<path style="fill:#F2F1DA;" d="M159.1,53.7c0,0-1.7-4.8,1.8-6.9h-0.1c-4.2,1.8-2.3,6.9-2.3,6.9c0.8,2,3.7,2.8,6.9,2.8
					C162.4,56.5,159.8,55.6,159.1,53.7z"/>
			</g>
			<ellipse style="fill:#F2F1DA;" cx="173.1" cy="52" rx="1.3" ry="0.7"/>
			<g>
				<path style="fill:#FFFFFF;" d="M161.1,47.1l-1-2.4c-0.2-0.5-0.8-0.6-1.2-0.3l-1.2,1.1c-0.4,0.3-0.4,0.9,0,1.2l2,1.5
					c0.3,0.3,0.8,0.2,1.1-0.1l0.2-0.2C161.2,47.7,161.2,47.4,161.1,47.1z"/>
				<path style="fill:#F2F1DA;" d="M160.1,48.2l-2-1.5c-0.4-0.3-0.4-0.9,0-1.2l1.2-1.1c0.1-0.1,0.2-0.1,0.3-0.2
					c-0.2-0.1-0.5,0-0.7,0.2l-1.2,1.1c-0.4,0.3-0.4,0.9,0,1.2l2,1.5c0.2,0.1,0.4,0.2,0.6,0.1C160.3,48.4,160.2,48.3,160.1,48.2z"/>
				<path style="fill:#DBBBA2;" d="M160.6,46.5l-0.4-1.1c-0.1-0.3-0.5-0.4-0.8-0.2l-0.4,0.4c-0.2,0.2-0.2,0.6,0,0.7l0.9,0.7
					c0.2,0.2,0.5,0.1,0.7-0.1l0,0C160.6,46.9,160.6,46.7,160.6,46.5z"/>
			</g>
			<g>
				<ellipse style="fill:#60281B;" cx="173.4" cy="51.7" rx="1.4" ry="0.8"/>
				<path style="fill:#491C13;" d="M173.7,52.2c-0.7,0-1.3-0.3-1.3-0.7c0-0.2,0.1-0.3,0.3-0.4c-0.4,0.1-0.7,0.4-0.7,0.7
					c0,0.4,0.6,0.8,1.4,0.8c0.6,0,1.2-0.2,1.4-0.6C174.5,52.1,174.1,52.2,173.7,52.2z"/>
			</g>
			<circle style="fill:#60281B;" cx="167.3" cy="50.3" r="0.4"/>
			<circle style="fill:#60281B;" cx="170.7" cy="49.5" r="0.3"/>
			<path style="fill:#60281B;" d="M172.3,54c-0.6,0-1.4-0.1-2.3-0.6c-0.1,0-0.2-0.2-0.1-0.3c0-0.1,0.2-0.2,0.3-0.1
				c2,0.9,3.1,0.4,3.1,0.4c0.1-0.1,0.2,0,0.3,0.1s0,0.2-0.1,0.3C173.4,53.8,173,54,172.3,54z"/>
			<ellipse style="fill:#F59D8A;" cx="166.9" cy="51.4" rx="1.1" ry="0.4"/>
			<ellipse style="fill:#F59D8A;" cx="171.7" cy="50" rx="0.6" ry="0.3"/>
		</g>
		<g>
			<g>
				<ellipse style="fill:#FEFEF0;" cx="154.4" cy="66.1" rx="1.7" ry="1.6"/>
				<path style="fill:#F2F1DA;" d="M154.5,67.7c0.9,0,1.6-0.7,1.6-1.6c0-0.8-0.6-1.4-1.4-1.5C154.4,65.7,154.3,66.7,154.5,67.7z"/>
			</g>
			<g>
				<path style="fill:#FFFFFF;" d="M167.1,55.6c0,0,4.7,4.2,0.6,15.3c-1.2,2.6-6.6,3-11-0.3c-5.9-4.4,3.6-16,3.6-16
					S162,52.6,167.1,55.6z"/>
				<path style="fill:#F2F1DA;" d="M154.9,67.9c0.2,1.1,0.8,2,1.8,2.8c0.4,0.3,0.8,0.5,1.2,0.8c1-1.9,1.3-3.7,1.3-3.7
					C159.2,65.7,156.3,66.7,154.9,67.9z"/>
				<path style="fill:#F2F1DA;" d="M157.2,69.9c-3.9-2.9-1.1-8.8,1.2-12.6c-2.4,3.7-5.9,10.3-1.7,13.4c4.5,3.3,9.8,2.9,11,0.3V71
					C165.9,72.8,161.2,72.8,157.2,69.9z"/>
				<path style="fill:#F2F1DA;" d="M165.3,71.6c1,0.1,3.8-3.8,3.2-9.3c-0.6-5.4-2.2-4.9-2.6-4.5C165.3,58.5,159.8,72.4,165.3,71.6z"
					/>
			</g>
			<g>
				
					<ellipse transform="matrix(0.8851 0.4654 -0.4654 0.8851 46.6749 -66.0234)" style="fill:#F2F1DA;" cx="157.1" cy="61.5" rx="0.2" ry="0.7"/>
				
					<ellipse transform="matrix(0.8851 0.4654 -0.4654 0.8851 46.3146 -66.8923)" style="fill:#F2F1DA;" cx="158.6" cy="60.4" rx="0.2" ry="0.7"/>
				
					<ellipse transform="matrix(0.8851 0.4654 -0.4654 0.8851 47.1656 -66.7212)" style="fill:#F2F1DA;" cx="158.7" cy="62.2" rx="0.2" ry="0.7"/>
				
					<ellipse transform="matrix(0.8851 0.4654 -0.4654 0.8851 47.4876 -65.8124)" style="fill:#F2F1DA;" cx="157" cy="63.3" rx="0.2" ry="0.7"/>
				
					<ellipse transform="matrix(0.8851 0.4654 -0.4654 0.8851 48.1964 -65.8173)" style="fill:#F2F1DA;" cx="157.4" cy="64.7" rx="0.2" ry="0.7"/>
				
					<ellipse transform="matrix(0.8851 0.4654 -0.4654 0.8851 48.9524 -65.6425)" style="fill:#F2F1DA;" cx="157.4" cy="66.3" rx="0.2" ry="0.7"/>
				
					<ellipse transform="matrix(0.8851 0.4654 -0.4654 0.8851 48.31 -64.7494)" style="fill:#F2F1DA;" cx="155.3" cy="65.5" rx="0.2" ry="0.7"/>
				
					<ellipse transform="matrix(0.8851 0.4654 -0.4654 0.8851 46.3105 -67.785)" style="fill:#F2F1DA;" cx="160.4" cy="59.9" rx="0.2" ry="0.7"/>
			</g>
		</g>
		<g>
			<path style="fill:#FFFFFF;" d="M161.1,58.8c0,0-6.3,1.9-7.3,4.1c-1,2.2-5.2,1.9-4.7-1.8c0.4-2.9,4.1-5.6,9.9-5.3
				C164.7,56,162.3,58.7,161.1,58.8z"/>
			<path style="fill:#F2F1DA;" d="M161.9,56.3c0.7,0.9-0.6,2-1.4,2c0,0-6.3,1.9-7.3,4.1c-0.6,1.3-2.4,1.7-3.6,1
				c1.1,1.2,3.4,0.9,4.1-0.6c1-2.2,7.3-4.1,7.3-4.1C162,58.7,163.5,57.2,161.9,56.3z"/>
			<path style="fill:#F2F1DA;" d="M153.5,60.8c-0.1,0-0.2-0.1-0.2-0.1l0,0c0-0.1-0.4-1.3-1.6-1c-0.1,0-0.2-0.1-0.3-0.2
				c0-0.1,0.1-0.2,0.2-0.3c1.3-0.2,1.9,0.8,2.1,1.3C153.7,60.6,153.7,60.7,153.5,60.8L153.5,60.8z"/>
			<path style="fill:#60281B;" d="M151.2,62.6c0,0-0.6,0.6-0.8,1.4c0,0.2,0.4,0.3,0.4,0.1c0.1-0.8,0.6-1.2,0.6-1.2
				c0.1-0.1,0.1-0.2,0-0.3C151.4,62.5,151.3,62.5,151.2,62.6z"/>
			<path style="fill:#60281B;" d="M150.4,62.3c0.1-0.1,0.1-0.2,0.1-0.3c-0.1-0.1-0.2-0.1-0.3-0.1c0,0-0.6,0.4-0.9,1
				c-0.2,0.3,0.2,0.6,0.3,0.4C149.8,62.7,150.4,62.3,150.4,62.3z"/>
			<path style="fill:#60281B;" d="M149.9,61.5c0.1,0,0.2-0.1,0.2-0.2s-0.1-0.2-0.2-0.2c0,0-0.4,0.1-0.9,0.3c-0.3,0.2-0.2,0.5,0,0.5
				C149.4,61.6,149.9,61.5,149.9,61.5L149.9,61.5z"/>
		</g>
		<g>
			<g>
				<path style="fill:#FFFFFF;" d="M159.3,67.9c0,0-2.9,6.4-8.1,6.1c-5.2-0.3-5.1-2.3-4.5-4.2c0.5-1.9,6.5-1.3,7.8-2.4
					C155.9,66.3,160,65.6,159.3,67.9z"/>
				<path style="fill:#F2F1DA;" d="M147.8,71.5c0.1-2,6-2.8,7.1-4.1c0.1-0.2,0.3-0.3,0.5-0.5c-0.3,0.1-0.6,0.3-0.8,0.5
					c-1.4,1.1-7.3,0.5-7.8,2.4c-0.4,1.4-0.6,2.8,1.3,3.6C147.8,72.9,147.7,72.2,147.8,71.5z"/>
			</g>
			<g>
				<path style="fill:#60281B;" d="M141.2,76.8c0-0.2,0.2-0.3,0.4-0.4l2.2-0.6c0.3-0.1,0.6,0.1,0.6,0.3c0.1,0.3-0.1,0.6-0.3,0.6
					l-2.2,0.6c-0.3,0.1-0.6-0.1-0.6-0.3C141.2,76.9,141.2,76.9,141.2,76.8z"/>
				<path style="fill:#60281B;" d="M141.2,70.6C141.2,70.6,141.2,70.5,141.2,70.6c0.1-0.3,0.4-0.5,0.7-0.4l1.9,0.6
					c0.3,0.1,0.4,0.4,0.3,0.6c-0.1,0.3-0.4,0.4-0.6,0.3l-1.9-0.6C141.3,71.1,141.2,70.8,141.2,70.6z"/>
				<path style="fill:#60281B;" d="M141.5,67.6c0.1-0.3,0.3-0.5,0.6-0.4s0.5,0.3,0.4,0.6c0,0-0.6,2.8-0.4,8c0.1,1.6,0.5,2.7,1.3,3.2
					c1,0.8,2.4,0.4,2.5,0.4c0.3-0.1,0.6,0.1,0.6,0.3c0.1,0.3-0.1,0.6-0.3,0.6c-0.1,0-1.9,0.5-3.3-0.5c-1.1-0.8-1.6-2.1-1.7-4
					C140.9,70.5,141.5,67.7,141.5,67.6L141.5,67.6z"/>
				<path style="fill:#491C13;" d="M146.1,80.3c0.1,0,0.3-0.1,0.3-0.3c-0.4,0.1-1.9,0.4-3.3-0.5c-1.1-0.8-1.6-2.1-1.7-4
					c-0.2-5.3,0.4-8.1,0.4-8.2l0,0v-0.1c-0.2,0-0.4,0.2-0.4,0.4l0,0c0,0.1-0.6,2.9-0.4,8.2c0.1,1.9,0.6,3.3,1.7,4
					C144.3,80.8,146.1,80.3,146.1,80.3z"/>
				<polygon style="fill:#491C13;" points="142.2,70.3 142.2,71.1 142.6,70.4 				"/>
				<path style="fill:#491C13;" d="M142.2,76.2c0,0,0.1,0.4,0.1,0.6l0.4-0.7L142.2,76.2z"/>
			</g>
			<g>
				<g>
					<path style="fill:#D62E36;" d="M149.9,74.7c0,0-2.2-0.2-2.3,1c-0.2,1.2-3.3,4-4-0.3c-0.6-4.3,0.3-7.1,2.2-7.4
						c1.4-0.2,3.8,0.1,3.8,0.1L149.9,74.7z"/>
					<path style="fill:#A5272E;" d="M144.6,75.8c-0.6-4.3,0.3-7.1,2.2-7.4c0.8-0.1,2-0.1,2.8,0v-0.3c0,0-2.4-0.3-3.8-0.1
						c-1.9,0.3-2.9,3.1-2.2,7.4c0.3,1.9,1,2.4,1.8,2.3C145,77.4,144.7,76.8,144.6,75.8z"/>
				</g>
				<g>
					<path style="fill:#E3FFFE;" d="M149.8,73.9l-0.2-5.1c0-0.6,0.5-1.2,1.1-1.2l0,0c0.6,0,1.2,0.5,1.2,1.1l0.2,5.1
						c0,0.6-0.5,1.2-1.1,1.2l0,0C150.4,75,149.8,74.5,149.8,73.9z"/>
					<path style="fill:#C8EDEA;" d="M150.3,75L150.3,75l-0.3-6.6c0-0.2,0.2-0.4,0.4-0.5l1.4-0.1c0-0.2-0.2-0.4-0.5-0.4l-1.4,0.1
						c-0.2,0-0.4,0.2-0.4,0.5l0.3,6.6C149.9,74.8,150.1,75,150.3,75L150.3,75z"/>
				</g>
			</g>
		</g>
	</g>
</g>
<rect x="120" y="-172.4" style="fill:none;" width="380" height="380"/>
<g>
	<path style="opacity:0.36;fill:#80A3AD;enable-background:new    ;" d="M499.9,89.3c-0.4,0-0.8,0-1.3,0h-1.4c-0.5,0-0.9,0-1.4,0.1
		c-0.4,0-0.8,0.1-1.2,0.1c-1.1,0.1-1.9,0.2-1.9,0.2c0-0.5-0.4-1-0.9-1l-3.2-0.1c-0.5,0-0.9,0.3-1,0.8h0.6c-0.1,0.1-0.3,0.3-0.4,0.5
		c-1.3-0.2-2.5-0.3-3.6-0.6c-0.6-0.1-1.1-0.3-1.6-0.5c1.7-0.4,2.9-1.7,2.9-3.4c0-1.9-1.7-3.5-3.8-3.5c-0.2,0-0.4,0-0.5,0.1h-0.1
		c-0.1,0-0.3,0.1-0.4,0.1s-0.1,0-0.2,0c0-0.1-0.1-0.3-0.1-0.4s-0.1-0.2-0.1-0.4c-0.1-0.4-0.2-0.9-0.4-1.3c0-0.1,0-0.1-0.1-0.2
		c-0.1-0.4-0.3-0.8-0.4-1.2c0-0.1-0.1-0.3-0.1-0.4c-0.1-0.4-0.3-0.8-0.4-1.2c0-0.1,0-0.1-0.1-0.2c-0.2-0.4-0.4-0.9-0.5-1.3
		c-0.1-0.1-0.1-0.2-0.2-0.4c-0.2-0.3-0.3-0.7-0.5-1c0-0.1-0.1-0.2-0.1-0.3c-0.1-0.3-0.2-0.5-0.4-0.8c0.9,0.5,1.8,1,2.6,1.5
		c1.6,1.1,2.9,2.3,3.5,3.5c0.2,0.4,0.4,0.7,0.7,1c0.1,0.1,0.1,0.2,0.2,0.2c0.2,0.2,0.5,0.4,0.7,0.6c0.1,0,0.1,0.1,0.2,0.1
		c0.3,0.2,0.7,0.4,1.1,0.5c0.1,0,0.2,0.1,0.2,0.1c0.3,0.1,0.6,0.2,1,0.2h0.3c0.7,0.1,1.4,0.1,2-0.1c0.1,0.4,1,0.2,1-0.3
		c0.3-0.1,0.5-0.2,0.7-0.4c0,0,0.1,0,0.1-0.1c0.4-0.2,0.7-0.5,1-0.8c0,0,0,0,0.1,0l0.1-0.1c0.3,0.4,1.1-0.3,0.7-1
		c0.3-0.7,0.6-1.5,0.6-2.4c0.5,0,0.7-0.7,0-1.2v-0.6c-0.9-6.5-9.3-12.5-22.2-12c-0.4,0-0.8,0-1.2,0.1c-0.3-0.4-0.6-0.8-0.8-1.1
		c0.1-0.1,0.2-0.1,0.3-0.2c0.1-0.1,0.2-0.2,0.4-0.3c0.2-0.1,0.3-0.2,0.4-0.4c0.1-0.1,0.2-0.2,0.3-0.3c0.1-0.1,0.3-0.3,0.4-0.4
		c0.1-0.1,0.2-0.2,0.2-0.3c0.1-0.2,0.2-0.3,0.4-0.5c0.1-0.1,0.1-0.2,0.2-0.3c0.2-0.3,0.3-0.5,0.4-0.8c0,0,0-0.1,0.1-0.2
		c0.7-0.9,1.2-1.9,1.6-2.9c0.9-2.2,1.8-3,2.7-3.1c1.2-0.1,2.4,0.9,4,1.5c0.4,0.1,0.7,0.2,1.1,0.3c0.1,0,0.1,0,0.2,0
		c0.4,0.1,0.8,0.1,1.2,0.2c0,0,0,0,0.1,0c1,0.1,1.9,0.1,2.8,0c0.1,0.3,0.2,0.6,0.4,0.8c0.3,0.5,0.8,0.8,1.3,1
		c0.2,0.1,0.5,0.2,0.7,0.2h0.7c0.1,0,0.1,0,0.2,0c0.2,0,0.3-0.1,0.5-0.1c0.1,0,0.1,0,0.2-0.1c0.2-0.1,0.4-0.2,0.6-0.3
		c0.9-0.6,1.3-1.6,1.3-2.5c0,0,0,0,0-0.1c0-0.6-0.2-1.1-0.5-1.6c-0.1-0.2-0.3-0.3-0.4-0.5c-0.1,0-0.1-0.1-0.2-0.1
		c-0.1-0.1-0.2-0.2-0.3-0.2s-0.1-0.1-0.2-0.1c-0.1-0.1-0.2-0.1-0.4-0.2c-0.1,0-0.2,0-0.2-0.1c-0.1,0-0.2-0.1-0.4-0.1h-0.1
		c-0.7-0.1-1.4,0.1-2,0.5c-0.4,0.3-0.8,0.7-1,1.2c-1.7-0.7-4-1.8-4.9-3.3c-1.6-2.5,0.4-9.9-8.2-12.7s-18.5,3.5-18.5,3.5
		c-1.1,0.4-2.1,0.9-3,1.5l-0.9-2.6c-0.1-0.2-0.2-0.4-0.3-0.5c0,0-0.1-0.1-0.2-0.1c-0.1-0.1-0.2-0.2-0.3-0.2c-0.1,0-0.1,0-0.2-0.1
		h-0.3c-0.1,0-0.2,0-0.2,0h-0.1c-0.1,0-0.3,0.1-0.4,0.1l-2.6,1.6c-0.9,0.5-1,1.7-0.2,2.4l1.9,1.6c-0.7,0.6-1.4,1.3-1.8,2.1
		c-1,1.8-2.2,3.1-3.2,4c-0.1,0-0.1,0-0.2,0c-0.8,0-1.4,0.3-1.4,0.6c0,0.2,0.1,0.3,0.3,0.4c-0.9,0.6-1.5,0.8-1.5,0.8
		s-0.6,0.3-1.3,0.8c-1.7,0-3.1,0.8-3.1,1.7c0,0.2,0.1,0.3,0.1,0.5c0.1,0.2,0.4,0.5,0.7,0.6c-0.4,1.1-0.3,2.5,0.7,4
		c1.8,2.7,7.8,4.7,14.3,5.5c-0.6,1-1.4,2.3-2.1,4.1c-4.5,0.3-12.9,0.3-15.7-2.2c-4.1-2.5-12.6,1.9-8.3,9c1.7,2.7,5,4.7,9.3,5.3
		c0,0,0,0,0.1,0c0.4,0.1,0.8,0.1,1.3,0.1h2.2c0.4,0,0.9,0,1.4-0.1h0.5c0.5,0,0.9-0.1,1.4-0.2c0.2,0,0.4,0,0.6-0.1
		c0.5-0.1,0.9-0.2,1.4-0.3c0.2,0,0.4-0.1,0.6-0.1c0.5-0.1,0.9-0.3,1.4-0.4c0.2-0.1,0.4-0.1,0.7-0.2c0.5-0.2,1-0.3,1.4-0.5
		c-0.1,4.7,0.7,10.6,3.3,17.9c-1.3,2.2-3,5.1-4.4,8c-1.2,0-2.2,0.8-2.5,2c-0.1,0.6-0.1,1.1,0.2,1.6l-0.4-0.1h-0.1
		c-0.1,0.5,0.2,1,0.6,1.1h-0.1c0,0-0.6,4.9-3.3,4.8c-1.6-0.1-4.7,1.8-5.3,4c-0.1,0.2-0.1,0.4-0.1,0.6v0.7c0,0.2,0.1,0.4,0.2,0.6v0.1
		c0.1,0.2,0.2,0.4,0.4,0.6c0.1,0.2,0.3,0.4,0.5,0.6c0,0,0,0,0.1,0.1c0.2,0.2,0.5,0.4,0.7,0.5c0.1,0,0.1,0.1,0.2,0.1s0.1,0.1,0.2,0.1
		l-1.6,3c-1.6-0.8-2.7-1.8-3.3-3.1c-1.2-2.6,0.3-5.5,0.3-5.6c0.3-0.6,0.1-1.2-0.5-1.5c-0.3-0.1-0.5-0.2-0.8-0.1
		c-0.1,0-0.2,0.1-0.3,0.2H432c-0.1,0.1-0.2,0.2-0.3,0.4c-0.1,0.2-2,3.9-0.4,7.5c1.2,2.7,3.9,4.5,8,5.6c11.5,2.8,17.9,2.9,18.2,2.9
		c0.1,0,0.3,0,0.4-0.1c0,0,0.1,0,0.1-0.1c0.1,0,0.1-0.1,0.2-0.1l0.1-0.1c0.1-0.1,0.1-0.1,0.1-0.2l0.1-0.1c0-0.1,0.1-0.3,0.1-0.4
		c0-0.6-0.5-1.1-1.1-1.1c0,0-2,0-5.7-0.5l-0.1-0.9v-0.1l-0.3-2.6c3.4-0.2,5.7-1.5,6.5-3.7c1.2-3,1.5-8.5,1.5-8.5
		c0.5,0.1,1.1-0.2,1.2-0.7l0.8-3.1c0.1-0.5-0.2-1-0.6-1.2l-0.2,0.6c-0.2-0.2-0.4-0.4-0.6-0.6c0.3-1.8,0.5-3.6,0.7-5.3
		c4,0.2,8.8-0.9,13.4-3.6c0.1-0.1,0.2-0.2,0.4-0.2c0.2-0.1,0.4-0.2,0.6-0.4c0.1-0.1,0.2-0.1,0.3-0.2c2.7,3.1,6.6,6.2,11.5,6.6
		c0.2,1.2,1.2,2.1,2.4,2.2c0.6,0,1.1-0.2,1.6-0.5v0.5c0.5,0,0.9-0.3,1-0.8v0.1c0,0,4.8-0.3,5.3,2.3c0.1,1,1.3,2.5,2.7,3.5
		L499.9,89.3L499.9,89.3z M439.6,124.7c-0.4-0.1-0.8-0.2-1.1-0.3l0.1-0.3l0.4-0.5l1.1-2.1h0.1c1.2,0.4,2.3,0.8,3.4,1.1
		c1.9,0.5,3.7,0.8,5.3,0.9v0.1l0.3,3.1C446.6,126.3,443.4,125.7,439.6,124.7z"/>
	<g>
		<g>
			<g>
				<circle style="fill:#E3FFFE;" cx="491.9" cy="54.6" r="3"/>
				<path style="fill:#C8EDEA;" d="M490.6,57.4c0.7,0.1,1.4-0.1,2-0.5c1.4-1,1.7-2.8,0.8-4.2c-0.3-0.5-0.8-0.8-1.3-1
					c0.9,0.1,1.7,0.5,2.2,1.3c1,1.4,0.6,3.3-0.8,4.2C492.7,57.7,491.6,57.8,490.6,57.4z"/>
			</g>
			<g>
				<path style="fill:#D62E36;" d="M457.7,40.8c0,0,9.9-6.4,18.5-3.5c8.5,2.9,6.6,10.3,8.2,12.7c1.5,2.4,7,4,7,4
					c2.6,0.9-4,2.4-7.7,0.9c-2.7-1.1-4.6-3.5-6.7,1.5C475.6,59.6,457.7,40.8,457.7,40.8z"/>
				<path style="fill:#A5272E;" d="M457.8,40.9l7.5-0.9c0,0,9.3,2.8,12.1,6.1c1.9,2.2,2.9,7,8.7,9.4c-0.9-0.1-1.8-0.3-2.6-0.6
					c-2.7-1.1-4.6-3.5-6.7,1.5C475.6,59.4,459.6,42.8,457.8,40.9z"/>
			</g>
			<g>
				<ellipse style="fill:#E3FFFE;" cx="463.1" cy="52.4" rx="14.5" ry="12.6"/>
				<path style="fill:#C8EDEA;" d="M448.6,52.4c0-2,0.6-4,1.6-5.7c2.6-3.3,7-5.5,12.1-5.5c8,0,14.5,5.5,14.5,12.4
					c0,2.4-0.8,4.6-2.2,6.5c-2.7,3-6.8,4.9-11.5,4.9C455.1,65,448.6,59.4,448.6,52.4z"/>
			</g>
		</g>
		<g>
			<g>
				<path style="fill:#FFFFFF;" d="M456.5,92.8c0,0-9.9,15.3-9.9,21.5c0.1,6.2,8.3,5.2,10.8,4.4c6-2,5.7-19.9,6.6-23.4
					C465,91.5,459,88.7,456.5,92.8z"/>
				<path style="fill:#F2F1DA;" d="M461.7,96.7c0.7-2.7-2.3-4.9-4.9-4.4c2.7-3.4,8.2-0.6,7.3,2.9c-0.9,3.4-0.6,21.4-6.6,23.4
					c-0.1,0-0.3,0.1-0.5,0.1C461.1,114.1,461,99.8,461.7,96.7z"/>
			</g>
			<g>
				<path style="fill:#60281B;" d="M439.7,127.9c0.4,0,0.8-0.2,1-0.6l2.4-4.5c0.3-0.6,0.1-1.2-0.5-1.5s-1.2-0.1-1.5,0.5l-2.4,4.5
					c-0.3,0.6-0.1,1.2,0.5,1.5C439.4,127.8,439.5,127.9,439.7,127.9z"/>
				<path style="fill:#60281B;" d="M453.3,130.8L453.3,130.8c0.7-0.1,1.2-0.6,1.1-1.3l-0.5-4.5c-0.1-0.6-0.6-1.1-1.3-1
					c-0.6,0.1-1.1,0.6-1,1.3l0.5,4.5C452.2,130.3,452.7,130.8,453.3,130.8z"/>
				<path style="fill:#60281B;" d="M460.1,131.5c0.6,0,1.1-0.5,1.1-1.1s-0.5-1.1-1.1-1.1c-0.1,0-6.4-0.1-17.6-2.8
					c-3.4-0.8-5.6-2.3-6.5-4.3c-1.2-2.6,0.3-5.5,0.3-5.6c0.3-0.6,0.1-1.2-0.5-1.5s-1.2-0.1-1.5,0.5c-0.1,0.2-2,3.9-0.4,7.5
					c1.2,2.7,3.9,4.5,8,5.6C453.4,131.5,459.8,131.5,460.1,131.5L460.1,131.5z"/>
				<path style="fill:#491C13;" d="M434.3,115.5c0.2-0.3,0.4-0.5,0.7-0.6c-0.4,0.8-1.8,4.1-0.3,7.4c1.2,2.7,3.9,4.5,8,5.6
					c11.5,2.8,17.9,2.9,18.2,2.9l0,0c0.1,0,0.2,0,0.3,0c-0.2,0.4-0.6,0.8-1.1,0.8l0,0c-0.3,0-6.6-0.1-18.2-2.9c-4.2-1-6.9-2.9-8-5.6
					C432.2,119.4,434.2,115.6,434.3,115.5z"/>
				<polygon style="fill:#491C13;" points="454.4,128.8 452.7,128.5 454.3,127.7 				"/>
				<path style="fill:#491C13;" d="M441.3,126.1c0,0-1-0.3-1.2-0.4l1.7-0.5L441.3,126.1z"/>
			</g>
			<g>
				<g>
					<path style="fill:#D62E36;" d="M447.3,109.4c0,0-0.6,4.9-3.3,4.8c-2.7-0.1-10.3,5.6-1,9c9.3,3.3,15.9,2.4,17.5-1.7
						c1.2-3,1.5-8.5,1.5-8.5L447.3,109.4z"/>
					<path style="fill:#A5272E;" d="M442.7,120.8c9.3,3.3,15.9,2.4,17.5-1.7c0.7-1.8,1.1-4.4,1.3-6.2l0.6,0.1c0,0-0.4,5.5-1.5,8.5
						c-1.6,4.1-8.2,5-17.5,1.7c-4-1.4-4.9-3.3-4.4-5C439.3,119.1,440.5,120,442.7,120.8z"/>
				</g>
				<g>
					<path style="fill:#E3FFFE;" d="M448.1,109.6l13.4,3.2c0.8,0.2,1.7-0.3,1.9-1.2l0.5-2c0.2-0.8-0.3-1.7-1.2-1.9l-13.4-3.2
						c-0.8-0.2-1.7,0.3-1.9,1.2l-0.5,2C446.8,108.6,447.3,109.4,448.1,109.6z"/>
					<path style="fill:#C8EDEA;" d="M446.8,108.3C446.9,108.3,446.9,108.3,446.8,108.3l14.6,3.6c0.5,0.1,1.1-0.2,1.2-0.7l0.7-3.1
						c0.5,0.2,0.8,0.7,0.6,1.2l-0.8,3.1c-0.1,0.5-0.7,0.9-1.2,0.7l-14.5-3.5C447,109.4,446.7,108.8,446.8,108.3L446.8,108.3z"/>
				</g>
			</g>
		</g>
		<g>
			<path style="fill:#FFFFFF;" d="M455.4,69.5c0,0-14.8,1.6-18.7-2c-3.9-3.6-12.4,0.8-8.1,7.9c3.4,5.6,13.5,7.8,25.1,2.3
				C465.3,72.1,458.1,68.5,455.4,69.5z"/>
			<path style="fill:#F2F1DA;" d="M451.9,69.7c2.1-0.1,3.5-0.3,3.5-0.3c2.7-1,9.9,2.6-1.7,8.2c-5.9,2.8-11.4,3.6-15.8,3
				c3.5-0.1,7.5-0.6,9.7-1.8C450.1,77.5,451.4,72.3,451.9,69.7z"/>
			<g>
				<g>
					<circle style="fill:#60281B;" cx="433" cy="72.4" r="2.7"/>
					<path style="fill:#491C13;" d="M432.8,74.6c1.4,0,2.5-1.1,2.5-2.5c0-1-0.6-1.8-1.4-2.2c1.1,0.4,1.8,1.4,1.8,2.6
						c0,1.5-1.2,2.7-2.7,2.7s-2.7-1.2-2.7-2.7c0-0.1,0-0.1,0-0.2C430.4,73.6,431.5,74.6,432.8,74.6z"/>
				</g>
				<g>
					<circle style="fill:#60281B;" cx="434.6" cy="68.1" r="1.2"/>
					<path style="fill:#491C13;" d="M434.5,69.1c0.6,0,1.1-0.5,1.1-1.1c0-0.4-0.2-0.8-0.6-1c0.5,0.2,0.8,0.6,0.8,1.1
						c0,0.6-0.5,1.2-1.2,1.2c-0.6,0-1.2-0.5-1.2-1.2c0,0,0,0,0-0.1C433.5,68.6,434,69.1,434.5,69.1z"/>
				</g>
				<g>
					<circle style="fill:#60281B;" cx="431.2" cy="68.6" r="1.2"/>
					<path style="fill:#491C13;" d="M431.1,69.5c0.6,0,1.1-0.5,1.1-1.1c0-0.4-0.2-0.8-0.6-1c0.5,0.2,0.8,0.6,0.8,1.1
						c0,0.6-0.5,1.2-1.2,1.2s-1.2-0.5-1.2-1.2c0,0,0,0,0-0.1C430,69,430.5,69.5,431.1,69.5z"/>
				</g>
				<g>
					<circle style="fill:#60281B;" cx="428.9" cy="71.3" r="1.2"/>
					<path style="fill:#491C13;" d="M428.8,72.2c0.6,0,1.1-0.5,1.1-1.1c0-0.4-0.2-0.8-0.6-1c0.5,0.2,0.8,0.6,0.8,1.1
						c0,0.6-0.5,1.2-1.2,1.2c-0.6,0-1.2-0.5-1.2-1.2c0,0,0,0,0-0.1C427.8,71.8,428.3,72.2,428.8,72.2z"/>
				</g>
				<g>
					<circle style="fill:#60281B;" cx="429.5" cy="74.3" r="1.2"/>
					<path style="fill:#491C13;" d="M429.4,75.3c0.6,0,1.1-0.5,1.1-1.1c0-0.4-0.2-0.8-0.6-1c0.5,0.2,0.8,0.6,0.8,1.1
						c0,0.6-0.5,1.2-1.2,1.2c-0.6,0-1.2-0.5-1.2-1.2c0,0,0,0,0-0.1C428.4,74.8,428.9,75.3,429.4,75.3z"/>
				</g>
			</g>
			<path style="fill:#F2F1DA;" d="M435.5,77h0.1c2.8-0.7,3.3-3.3,3.2-4.6c0-0.3-0.3-0.5-0.5-0.4c-0.3,0-0.5,0.3-0.4,0.5
				c0,0.1,0.2,3-2.4,3.6c-0.3,0.1-0.4,0.3-0.4,0.6C435,76.9,435.2,77,435.5,77z"/>
		</g>
		<g>
			<g>
				<path style="fill:#FFFFFF;" d="M452.5,46l-3.7-3.1c-0.8-0.6-0.7-1.9,0.2-2.4l2.6-1.6c0.8-0.5,1.8-0.1,2.1,0.8l1.6,4.5
					c0.3,0.8-0.1,1.6-0.9,1.9l-0.5,0.2C453.5,46.4,452.9,46.3,452.5,46z"/>
				<path style="fill:#F2F1DA;" d="M452.8,46.1l0.5-0.2c0.7-0.3,1.1-1.1,0.9-1.9l-1.6-4.5c-0.1-0.3-0.3-0.6-0.6-0.8
					c0.7-0.2,1.5,0.2,1.8,0.9l1.6,4.5c0.3,0.8-0.1,1.6-0.9,1.9l-0.5,0.2C453.6,46.4,453.1,46.3,452.8,46.1L452.8,46.1z"/>
				<path style="fill:#DBBBA2;" d="M451.3,44.5l-1.7-1.4c-0.5-0.4-0.4-1.1,0.1-1.5l1-0.6c0.5-0.3,1.1-0.1,1.3,0.5l0.7,1.9
					c0.2,0.5-0.1,1-0.5,1.2l0,0C451.9,44.8,451.6,44.7,451.3,44.5z"/>
			</g>
			<g>
				<path style="fill:#FFFFFF;" d="M475.2,59.6c0,0,4.3-11.4-5.2-15.5c-9.5-4-18.3-2.5-21,2.5c-2.4,4.4-6,5.8-6,5.8s-6,2.9-2.8,7.7
					C444.2,66.3,471.2,69.3,475.2,59.6z"/>
				<path style="fill:#F2F1DA;" d="M473.8,59.4c0,0,3.9-10.8-4.1-15.4c0.1,0,0.2,0.1,0.3,0.1c9.5,4,5.2,15.5,5.2,15.5
					c-1.8,4.4-8.4,6.2-15.4,6.3C466.3,65.6,472.1,63.7,473.8,59.4z"/>
			</g>
			<ellipse style="fill:#F2F1DA;" cx="442.4" cy="55.6" rx="3" ry="1.6"/>
			<g>
				<path style="fill:#FFFFFF;" d="M469.2,44.7l2.2-5.4c0.5-1.1,1.9-1.5,2.8-0.7l2.7,2.4c0.8,0.7,0.8,2-0.1,2.7l-4.5,3.5
					c-0.8,0.6-1.8,0.4-2.4-0.3l-0.4-0.5C469.1,45.9,469,45.3,469.2,44.7z"/>
				<path style="fill:#F2F1DA;" d="M471.5,47.2l4.5-3.5c0.9-0.7,0.9-2,0.1-2.7l-2.7-2.4c-0.2-0.2-0.5-0.3-0.8-0.4
					c0.5-0.1,1.1,0,1.5,0.4l2.7,2.4c0.8,0.7,0.8,2-0.1,2.7l-4.5,3.5c-0.4,0.3-0.9,0.4-1.4,0.3C471.1,47.4,471.3,47.3,471.5,47.2z"/>
				<path style="fill:#DBBBA2;" d="M470.5,43.3l1-2.4c0.3-0.7,1.2-0.9,1.7-0.4l1,0.9c0.5,0.5,0.5,1.3-0.1,1.7l-2,1.5
					c-0.5,0.4-1.1,0.3-1.5-0.2l0,0C470.4,44.1,470.4,43.6,470.5,43.3z"/>
			</g>
			<g>
				<ellipse style="fill:#60281B;" cx="441.8" cy="54.9" rx="3.2" ry="1.7"/>
				<path style="fill:#491C13;" d="M441,56c1.6,0,2.9-0.7,2.9-1.6c0-0.4-0.2-0.7-0.6-1c1,0.3,1.6,0.9,1.6,1.5c0,0.9-1.4,1.7-3.2,1.7
					c-1.5,0-2.7-0.5-3.1-1.2C439.2,55.8,440.1,56,441,56z"/>
			</g>
			<circle style="fill:#60281B;" cx="455.4" cy="51.8" r="0.9"/>
			<circle style="fill:#60281B;" cx="447.8" cy="50" r="0.7"/>
			<path style="fill:#60281B;" d="M444.1,60.1c1.3,0,3.1-0.3,5.2-1.2c0.2-0.1,0.4-0.4,0.2-0.6c-0.1-0.2-0.4-0.4-0.6-0.2
				c-4.4,2-6.9,0.8-6.9,0.8c-0.2-0.1-0.5,0-0.7,0.2c-0.1,0.2,0,0.5,0.2,0.7C441.7,59.7,442.5,60.1,444.1,60.1z"/>
			<ellipse style="fill:#F59D8A;" cx="456.3" cy="54.2" rx="2.4" ry="0.8"/>
			<ellipse style="fill:#F59D8A;" cx="445.5" cy="51.2" rx="1.4" ry="0.6"/>
		</g>
		<g>
			<g>
				<ellipse style="fill:#FEFEF0;" cx="484.3" cy="87.3" rx="3.8" ry="3.5"/>
				<path style="fill:#F2F1DA;" d="M484.1,90.8c-2-0.1-3.5-1.6-3.5-3.5c0-1.8,1.4-3.2,3.2-3.5C484.3,86.2,484.5,88.6,484.1,90.8z"/>
			</g>
			<g>
				<path style="fill:#FFFFFF;" d="M455.9,63.8c0,0-10.6,9.4-1.4,34.3c2.7,5.9,14.7,6.8,24.7-0.6c13.3-9.8-8.1-35.8-8.1-35.8
					S467.2,57,455.9,63.8z"/>
				<path style="fill:#F2F1DA;" d="M483.3,91.3c-0.5,2.4-1.8,4.5-4,6.2c-0.9,0.6-1.7,1.2-2.6,1.7c-2.2-4.2-2.9-8.2-2.9-8.2
					C473.6,86.2,480.1,88.5,483.3,91.3z"/>
				<path style="fill:#F2F1DA;" d="M478.1,95.6c8.7-6.4,2.6-19.7-2.7-28.2c5.4,8.2,13.2,23.1,3.9,30c-10,7.4-22,6.5-24.7,0.6
					c0-0.1-0.1-0.1-0.1-0.2C458.5,102.2,469.1,102.3,478.1,95.6z"/>
				<path style="fill:#F2F1DA;" d="M460,99.6c-2.1,0.2-8.5-8.5-7.2-20.8c1.3-12.1,5-11,5.8-10C459.8,70.2,472.3,101.2,460,99.6z"/>
			</g>
			<g>
				
					<ellipse transform="matrix(-0.8851 0.4654 -0.4654 -0.8851 937.9341 -77.8093)" style="fill:#F2F1DA;" cx="478.6" cy="76.9" rx="0.4" ry="1.7"/>
				
					<ellipse transform="matrix(-0.8851 0.4654 -0.4654 -0.8851 929.9455 -81.2503)" style="fill:#F2F1DA;" cx="475" cy="74.2" rx="0.4" ry="1.7"/>
				
					<ellipse transform="matrix(-0.8851 0.4654 -0.4654 -0.8851 931.1592 -73.1088)" style="fill:#F2F1DA;" cx="474.6" cy="78.4" rx="0.4" ry="1.7"/>
				
					<ellipse transform="matrix(-0.8851 0.4654 -0.4654 -0.8851 939.827 -70.3519)" style="fill:#F2F1DA;" cx="478.6" cy="80.8" rx="0.4" ry="1.7"/>
				
					<ellipse transform="matrix(-0.8851 0.4654 -0.4654 -0.8851 939.5471 -64.0925)" style="fill:#F2F1DA;" cx="477.7" cy="83.9" rx="0.4" ry="1.7"/>
				
					<ellipse transform="matrix(-0.8851 0.4654 -0.4654 -0.8851 941.0997 -56.9833)" style="fill:#F2F1DA;" cx="477.6" cy="87.7" rx="0.4" ry="1.7"/>
				
					<ellipse transform="matrix(-0.8851 0.4654 -0.4654 -0.8851 948.9882 -62.5929)" style="fill:#F2F1DA;" cx="482.2" cy="85.8" rx="0.4" ry="1.7"/>
				
					<ellipse transform="matrix(-0.8851 0.4654 -0.4654 -0.8851 921.4475 -81.4131)" style="fill:#F2F1DA;" cx="470.8" cy="73" rx="0.4" ry="1.7"/>
			</g>
		</g>
		<g>
			<path style="fill:#FFFFFF;" d="M469.4,70.8c0,0,14.2,4.4,16.4,9.2c2.2,4.8,11.7,4.2,10.5-4c-0.9-6.5-9.3-12.5-22.2-12
				C461.2,64.5,466.5,70.6,469.4,70.8z"/>
			<path style="fill:#F2F1DA;" d="M467.6,65.3c-1.5,1.9,1.3,4.4,3.1,4.5c0,0,14.2,4.4,16.4,9.2c1.3,2.9,5.3,3.8,8,2.3
				c-2.5,2.8-7.7,2.1-9.2-1.3c-2.2-4.8-16.4-9.2-16.4-9.2C467.3,70.7,463.8,67.3,467.6,65.3z"/>
			<path style="fill:#F2F1DA;" d="M486.3,75.3c0.2,0,0.4-0.1,0.5-0.3l0,0c0-0.1,1-2.8,3.7-2.3c0.3,0,0.5-0.1,0.6-0.4
				c0-0.3-0.1-0.5-0.4-0.6c-2.8-0.5-4.3,1.7-4.8,3C485.8,75,486,75.2,486.3,75.3C486.2,75.3,486.3,75.3,486.3,75.3z"/>
			<path style="fill:#60281B;" d="M491.5,79.4c0.1,0.1,1.4,1.3,1.7,3.2c0.1,0.5-0.8,0.7-1,0.3c-0.2-1.7-1.3-2.7-1.4-2.8
				c-0.2-0.2-0.2-0.5,0-0.7C491,79.2,491.3,79.2,491.5,79.4z"/>
			<path style="fill:#60281B;" d="M493.3,78.7c-0.2-0.1-0.3-0.4-0.2-0.7c0.1-0.2,0.4-0.3,0.7-0.2c0.1,0,1.3,0.8,2,2.3
				c0.5,0.7-0.4,1.4-0.7,1C494.6,79.6,493.3,78.8,493.3,78.7z"/>
			<path style="fill:#60281B;" d="M494.3,76.9c-0.3,0-0.4-0.3-0.4-0.6c0-0.3,0.3-0.5,0.6-0.4c0.1,0,1,0.1,1.9,0.7
				c0.7,0.5,0.5,1.2,0,1.2C495.4,77,494.4,76.9,494.3,76.9C494.4,76.9,494.3,76.9,494.3,76.9z"/>
		</g>
		<g>
			<g>
				<path style="fill:#FFFFFF;" d="M499.9,93.6c-4-2-13.3-1.6-15.8-3.5c-3.1-2.4-12.3-4-10.8,1.2c0,0,6.4,14.4,18.2,13.7
					c4.1-0.2,6.8-1,8.4-2L499.9,93.6L499.9,93.6z"/>
				<path style="fill:#F2F1DA;" d="M499.9,103v-9.4c-4-2-13.3-1.6-15.8-3.5c-0.5-0.4-1.2-0.8-1.9-1.1c0.4,0.4,0.8,0.7,1.1,1.1
					c2.5,3.1,15.7,4.9,15.9,9.3c0,1.5,0,3-0.5,4.2C499.1,103.4,499.5,103.2,499.9,103z"/>
			</g>
			<g>
				<g>
					<path style="fill:#D62E36;" d="M499.9,91.2c-2.4,0-4.6,0.3-4.6,0.3l-0.8,15c0,0,4.8-0.3,5.3,2.3c0,0.1,0,0.2,0.1,0.3V91.2z"/>
					<path style="fill:#A5272E;" d="M499.9,91.3c-2.4,0-4.7,0.3-4.7,0.3v0.6c1.4-0.1,3.1-0.1,4.7-0.1V91.3z"/>
				</g>
				<g>
					<path style="fill:#E3FFFE;" d="M494.5,105.7l0.6-13.6c0-0.9-0.6-1.6-1.5-1.6l-2-0.1c-0.8,0-1.6,0.6-1.6,1.5l-0.6,13.6
						c0,0.8,0.6,1.6,1.5,1.6l2,0.1C493.8,107.2,494.5,106.5,494.5,105.7z"/>
					<path style="fill:#C8EDEA;" d="M493.5,107.2L493.5,107.2l0.6-14.8c0-0.5-0.4-1-0.9-1l-3.1-0.1c0.1-0.5,0.5-0.9,1-0.8l3.2,0.1
						c0.5,0,1,0.5,0.9,1l-0.6,14.7C494.5,106.8,494,107.2,493.5,107.2L493.5,107.2z"/>
				</g>
			</g>
		</g>
	</g>
</g>
<rect x="120" y="-172.4" style="fill:none;" width="380" height="380"/>
<g>
	<path style="fill:#62BA47;" d="M168.9-106.4c0,0.5,0.4,1,1,1h19.3c0.5,0,1-0.4,1-1v-8.4c0-0.5-0.4-1-1-1h-19.3c-0.5,0-1,0.4-1,1
		V-106.4z"/>
	<path style="fill:#428C2A;" d="M177.1-108.1c0,0.5,0.4,1,1,1h3c0.5,0,1-0.4,1-1v-4.9c0-0.5-0.4-1-1-1h-3c-0.5,0-1,0.4-1,1V-108.1z"
		/>
	<path style="fill:#428C2A;" d="M183.6-108.1c0,0.5,0.4,1,1,1h3c0.5,0,1-0.4,1-1v-4.9c0-0.5-0.4-1-1-1h-3c-0.5,0-1,0.4-1,1V-108.1z"
		/>
	<path style="fill:#428C2A;" d="M175.5-108.1c0,0.5-0.4,1-1,1h-3c-0.5,0-1-0.4-1-1v-4.9c0-0.5,0.4-1,1-1h3c0.5,0,1,0.4,1,1V-108.1z"
		/>
	<polygon style="fill:#62BA47;" points="142.4,-139.1 150.7,-132.1 150.7,-144.5 142.4,-144.5 	"/>
	<polygon style="fill:#428C2A;" points="160.2,-132.1 150.7,-144.5 150.7,-132.1 	"/>
	<polygon style="fill:#62BA47;" points="142.4,-125 150.7,-132.1 150.7,-119.6 142.4,-119.6 	"/>
	<polygon style="fill:#428C2A;" points="160.2,-132.1 150.7,-119.6 150.7,-132.1 	"/>
	<ellipse style="fill:#FFFFFF;" cx="183.3" cy="-132.1" rx="31" ry="20.4"/>
	<ellipse style="fill:#A8A8A8;" cx="183.3" cy="-132.1" rx="31" ry="13.8"/>
	<ellipse style="fill:#FFFFFF;" cx="183.3" cy="-132.1" rx="31" ry="5.1"/>
	<path style="fill:#62BA47;" d="M208.5-143.9c3.6,3.3,5.8,7.4,5.8,11.9c0,4.4-2.1,8.5-5.8,11.9c0,0-1.9-0.9-1.9-11.9
		C206.5-143,208.5-143.9,208.5-143.9z"/>
	<g id="XMLID_3_">
		<path id="XMLID_9_" style="fill:#62BA47;" d="M193.5-133.2c0,6.4-5.2,11.6-11.6,11.6c-6.4,0-11.5-5.2-11.5-11.6
			c0-6.4,5.2-11.6,11.6-11.6S193.5-139.7,193.5-133.2z"/>
		<g id="XMLID_4_">
			<path id="XMLID_23_" style="fill:#FFFFFF;" d="M179.1-135c-0.9,0.1-1.2,1.2-1.2,2l0,0l0,0c0,0.1,0,0.2,0,0.3c0,0.4,0,0.7-0.1,1
				c0,0.1-0.1,0.4-0.1,0.4c-0.3,0-0.6-0.5-0.7-0.7c-0.2-0.6-0.4-1.2-0.5-1.8c-0.1-0.7-0.2-1.4-0.2-2.1c0-0.3,0-0.6,0-0.8
				c0-0.1,0-0.2,0-0.3s0-0.2,0-0.2c0.1-0.5-0.6,0-0.8,0.2c-0.8,1.3-0.5,2.9-0.5,4.4c0,0.4,0,0.8-0.1,1.2c0,0.3-0.1,0.7-0.3,1
				c-0.1,0.1-0.4,0-0.5,0c-0.2-0.1-0.3-0.3-0.3-0.5s-0.3-0.1-0.4,0c-0.2,0.2-0.3,0.5-0.3,0.7c0.1,0.5,0.6,1,1.1,0.8
				c0.9-0.3,1.2-1.3,1.4-2.1c0.1-0.4,0.1-0.8,0.2-1.2c0.1,0.6,0.3,1.1,0.6,1.6c0.2,0.4,0.5,0.8,1,0.7c0.4-0.1,0.6-0.4,0.8-0.9
				c0.2,0.4,0.4,0.7,0.9,0.6c0.5,0,0.9-0.6,1-0.9c0.2-0.5,0.3-1,0.3-1.5C180.3-133.6,180.1-135.1,179.1-135z M179.4-131.6
				c0,0.1,0,0.2-0.1,0.3c-0.2,0-0.3-0.3-0.4-0.4c-0.1-0.3-0.2-0.7-0.3-1c0-0.4,0-0.7,0-1.1c0-0.1,0-0.2,0.1-0.3
				c0.5,0.3,0.6,0.9,0.6,1.4C179.5-132.2,179.5-132,179.4-131.6z"/>
			<path id="XMLID_20_" style="fill:#FFFFFF;" d="M190.6-133.6c-1-0.4-1.6,1-1.8,1.8c-0.2,0.7-0.4,2,0.5,2.4
				c0.4,0.2,0.9-0.1,1.2-0.4s0.5-0.8,0.6-1.3C191.3-131.9,191.5-133.2,190.6-133.6z M190-130.2c0,0.1-0.1,0.2-0.1,0.2
				c-0.1-0.1-0.2-0.4-0.2-0.6c-0.1-0.4,0-0.7,0-1.1c0.1-0.3,0.2-0.7,0.3-1c0-0.1,0.1-0.1,0.1-0.2c0.4,0.4,0.3,1.1,0.2,1.6
				S190.1-130.6,190-130.2z"/>
			<path id="XMLID_15_" style="fill:#FFFFFF;" d="M187.8-133.4c0.2-0.3,0.4-0.5,0.6-0.8c0.4-0.6,0.7-1.3,0.7-1.9
				c0-0.7-0.9-0.7-1.4-0.5c-0.7,0.3-1,1-1.2,1.7c-0.3,0.9-0.4,1.8-0.4,2.7l0,0c-0.3,0.4-1,1.2-1.5,0.9c-0.1-0.1-0.2-0.3-0.3-0.4
				c0.4-0.4,0.8-0.9,1.1-1.4s0.5-1.3-0.1-1.6c-0.5-0.3-1.1,0-1.5,0.4c-0.3,0.4-0.5,0.9-0.5,1.5c0,0.3-0.1,0.7,0,1.2
				c-0.3,0.2-0.7,0.3-1,0.2c-0.4-0.1-0.5-0.5-0.6-0.8c-0.1-0.5-0.1-1,0-1.5c0-0.1,0.1-0.3,0.1-0.4v-0.1c0.2,0.1,0.3,0.5,0.4,0.7
				c0.1,0.3,1-0.2,0.9-0.5s-0.2-0.7-0.6-0.9c-0.4-0.2-0.9,0.1-1.1,0.3c-0.6,0.6-0.7,1.6-0.6,2.4c0,0.5,0.1,1.2,0.6,1.5
				c0.6,0.4,1.5,0,2.1-0.3c0.1,0.4,0.4,0.7,0.9,0.6c0.6-0.1,1.2-0.4,1.6-0.9c0,0.5,0.1,1,0.5,1.2c0.5,0.3,1.2,0,1.6-0.5
				c0.5-0.6,0.7-1.4,0.5-2.2C188.4-133.2,188.1-133.4,187.8-133.4z M184.3-133.8c0-0.1,0.1-0.3,0.2-0.4l0,0c0.3,0.1,0.3,0.4,0.3,0.6
				c0,0.4-0.3,0.8-0.6,1.1c0-0.1,0-0.1,0-0.2C184.1-133,184.2-133.4,184.3-133.8z M187.6-135.7c0.1-0.1,0.1-0.3,0.3-0.4l0,0
				c0.4,0.4,0,1.1-0.2,1.5s-0.5,0.8-0.7,1.2c0.1-0.4,0.1-0.8,0.2-1.2S187.4-135.2,187.6-135.7z M187.4-131c0,0-0.1,0.1-0.1,0.2h-0.1
				c-0.3-0.1-0.3-0.7-0.3-0.9s0-0.4,0-0.6c0.1-0.1,0.2-0.2,0.3-0.4c0.2-0.1,0.4,0.1,0.4,0.4C187.8-131.9,187.6-131.2,187.4-131z"/>
		</g>
	</g>
</g>
</svg>
