<?xml version="1.0" encoding="utf-8"?>
<!-- Generator: Adobe Illustrator 19.0.0, SVG Export Plug-In . SVG Version: 6.00 Build 0)  -->
<svg version="1.1" id="Layer_1" xmlns="http://www.w3.org/2000/svg" xmlns:xlink="http://www.w3.org/1999/xlink" x="0px" y="0px"
	 viewBox="0 0 41.3 53.4" style="enable-background:new 0 0 41.3 53.4;" xml:space="preserve">
<path id="XMLID_238_" style="opacity:0.4;fill:#7A7A7A;enable-background:new    ;" d="M41.3,32.8c-0.1-2.3-0.6-4.6-1.4-6.7
	c-0.3-0.6-0.5-1.2-0.9-1.8c-1.5-2.9-3.7-5.4-6.4-7.3c-1.9-1.3-4-2.3-6.3-2.9c-0.1,0-0.2,0-0.3-0.1c0.1-0.2,0.1-0.4,0.1-0.7
	c0-0.9-0.5-1.7-1.3-2c0.5-0.7,0.8-1.6,0.8-2.5c0-2.4-1.9-4.3-4.3-4.3c-2.4,0-4.3,1.9-4.3,4.3c0,0.9,0.3,1.8,0.8,2.5
	c-0.8,0.3-1.3,1.1-1.3,2c0,0.2,0,0.5,0.1,0.7c-0.2,0.1-0.4,0.1-0.6,0.1c-1.8,0.5-3.5,1.2-5.1,2.2c-3.3,2-6,4.9-7.7,8.5
	c-0.2,0.4-0.4,0.8-0.6,1.3c-0.8,2.1-1.3,4.3-1.4,6.7c0,0.2,0,0.4,0,0.7c0,2.1,0.3,4.1,0.9,6c0.1,0.5,0.3,0.9,0.5,1.3
	c0.8,1.9,1.8,3.7,3.1,5.3c1,1.2,2.2,2.3,3.4,3.3c0.6,0.5,1.2,0.9,1.9,1.2c2.3,1.4,4.9,2.3,7.7,2.6c0.8,0.1,1.6,0.2,2.4,0.2
	c0.7,0,1.4-0.1,2.1-0.1c2.7-0.3,5.3-1.1,7.6-2.4c0.6-0.4,1.3-0.7,1.9-1.2c1.4-1,2.7-2.2,3.8-3.5c1.4-1.7,2.5-3.6,3.3-5.7
	c0.1-0.3,0.2-0.7,0.3-1c0.6-1.9,0.9-3.9,0.9-6C41.3,33.3,41.3,33.1,41.3,32.8z M21.4,6.5c1.3,0,2.4,1.1,2.4,2.4
	c0,1.2-0.9,2.2-2.1,2.3h-0.6c-1.2-0.1-2.1-1.1-2.1-2.3C19,7.6,20.1,6.5,21.4,6.5z"/>
<g id="XMLID_263_">
	<path id="XMLID_267_" style="fill:#EDEDED;" d="M22.6,15.1h-5.1c-1.2,0-2.2-1-2.2-2.2l0,0c0-1.2,1-2.2,2.2-2.2h5.1
		c1.2,0,2.2,1,2.2,2.2l0,0C24.8,14.1,23.8,15.1,22.6,15.1z"/>
	<path id="XMLID_264_" style="fill:#EDEDED;" d="M20,12.6c-2.4,0-4.3-1.9-4.3-4.3C15.8,5.9,17.7,4,20,4c2.4,0,4.3,1.9,4.3,4.3
		C24.3,10.6,22.4,12.6,20,12.6z M20,5.9c-1.3,0-2.4,1.1-2.4,2.4c0,1.3,1.1,2.4,2.4,2.4s2.4-1.1,2.4-2.4C22.4,7,21.3,5.9,20,5.9z"/>
</g>
<path id="XMLID_206_" style="fill:#FFFFFF;" d="M3.3,43.8c0.8,1.3,1.8,2.5,2.9,3.5l27.5,0.1c0.1-0.1,0.2-0.2,0.3-0.3
	c1.6-1.5,2.9-3.3,3.9-5.3L2.1,41.7C2.4,42.4,2.8,43.1,3.3,43.8z"/>
<path id="XMLID_205_" style="fill:#AF0032;" d="M17.9,52.7c6,0.7,11.7-1.5,15.8-5.3L6.2,47.3C9.3,50.2,13.3,52.2,17.9,52.7z"/>
<path id="XMLID_204_" style="fill:#AF0032;" d="M0.2,30c0,0.2-0.1,0.4-0.1,0.6c-0.2,2.1-0.1,4.1,0.3,6.1c0.3,1.7,0.9,3.4,1.7,4.9
	l35.8,0.1c0.2-0.3,0.3-0.6,0.5-1c0.8-1.8,1.3-3.8,1.6-5.9c0-0.2,0-0.4,0.1-0.7c0.2-2.3-0.1-4.6-0.7-6.8c-0.2-0.7-0.4-1.3-0.7-2
	L1.4,25.4C0.9,26.9,0.4,28.4,0.2,30z"/>
<path id="XMLID_203_" style="fill:#FFFFFF;" d="M4.8,19.8c-1,1.1-1.8,2.4-2.5,3.7c-0.3,0.6-0.6,1.2-0.8,1.9l37.2,0.1
	c-0.8-2-1.9-3.9-3.3-5.6L4.8,19.8z"/>
<path id="XMLID_202_" style="fill:#AF0032;" d="M22.1,12.9C15.3,12.2,9,15,4.8,19.8l30.5,0.1C32.1,16.1,27.5,13.5,22.1,12.9z"/>
<g id="XMLID_194_">
	<g id="XMLID_198_">
		<circle id="XMLID_200_" style="fill:#FFDC7B;" cx="29.8" cy="33" r="1.6"/>
		<circle id="XMLID_199_" style="fill:#FFDC7B;" cx="34.7" cy="33" r="1"/>
	</g>
	<g id="XMLID_195_">
		<circle id="XMLID_197_" style="fill:#FFDC7B;" cx="10.2" cy="33" r="1.6"/>
		<circle id="XMLID_196_" style="fill:#FFDC7B;" cx="5.3" cy="32.9" r="1"/>
	</g>
</g>
<g id="XMLID_185_">
	<path id="XMLID_208_" style="fill:#FFDC7B;" d="M26,32.2c0.4-0.4,0.3-0.8-0.3-0.8L23.1,31c-0.5-0.1-1.2-0.6-1.4-1l-1.2-2.4
		c-0.2-0.5-0.6-0.5-0.9,0l-1.2,2.4c-0.2,0.5-0.9,1-1.4,1l-2.7,0.4c-0.5,0.1-0.7,0.5-0.3,0.8l1.9,1.9c0.4,0.4,0.6,1.1,0.5,1.7
		L16,38.4c-0.1,0.5,0.2,0.8,0.7,0.5l2.4-1.2c0.5-0.3,1.3-0.3,1.8,0l2.4,1.3c0.5,0.3,0.8,0,0.7-0.5l-0.4-2.6
		c-0.1-0.5,0.2-1.3,0.6-1.7L26,32.2z"/>
</g>
<g id="XMLID_281_">
	<path id="XMLID_299_" style="fill:#AF0032;" d="M11.2,3.9c1.2,0.7,2.6,0.7,3.7,0.6l0.1,0c-0.9,0.4-1.7,0.8-2.5,1.4
		c-1.4,1-2.9,2.8-2,4.6c1.9,3.6,8.7-5.1,10-6.2c0.3-0.3,0.3-0.6,0.1-0.9c0,0,0,0,0,0c0-0.1,0-0.1,0-0.2c0-0.1,0.1-0.1,0.1-0.2
		c0.1-0.4-0.2-0.8-0.5-0.9c-1.2-0.3-2.3-0.6-3.4-1.1c-0.2-0.1-0.3-0.1-0.5-0.2c-0.6-0.3-1.3-0.5-2-0.7C13.8,0.1,13.4,0,13,0
		c-0.6,0-1.1,0.1-1.6,0.3c-0.7,0.3-1.2,0.9-1.3,1.5C9.9,2.6,10.4,3.4,11.2,3.9z M16.2,6.7c-0.6,0.7-3.3,3.5-4.2,2.8
		c-1.3-1.1,2.4-3.1,3.2-3.5c0.8-0.4,1.7-0.7,2.5-1C17.3,5.6,16.7,6.1,16.2,6.7z M12,1.6c0.7-0.3,1.4-0.2,2-0.1
		c0.6,0.1,1.1,0.4,1.7,0.6c0.2,0.1,0.3,0.1,0.5,0.2c0.5,0.2,1,0.4,1.5,0.6l-2.7,0.1c-1.2,0-2.2,0-2.9-0.4c-0.3-0.2-0.5-0.4-0.5-0.6
		C11.5,1.9,11.7,1.8,12,1.6z"/>
	<path id="XMLID_282_" style="fill:#AF0032;" d="M30,1.8c-0.1-0.6-0.6-1.2-1.3-1.5c-0.5-0.2-1-0.3-1.6-0.3c-0.4,0-0.9,0.1-1.3,0.2
		c-0.7,0.2-1.3,0.4-2,0.7c-0.2,0.1-0.3,0.1-0.5,0.2c-1.1,0.5-2.2,0.8-3.4,1.1c-0.4,0.1-0.6,0.5-0.5,0.9c0,0.1,0,0.1,0.1,0.2
		c0,0,0,0.1,0,0.2c0,0,0,0,0,0c-0.2,0.3-0.2,0.6,0.1,0.9c1.2,1.1,8.1,9.7,10,6.2c1-1.8-0.6-3.6-2-4.6c-0.8-0.6-1.6-1-2.5-1.4l0.1,0
		c1.1,0,2.5,0.1,3.7-0.6C29.7,3.4,30.1,2.6,30,1.8z M22.3,5c0.9,0.3,1.7,0.6,2.5,1c0.8,0.4,4.6,2.4,3.2,3.5
		c-0.9,0.7-3.6-2.2-4.2-2.8C23.3,6.1,22.8,5.6,22.3,5z M28.6,2c0,0.2-0.2,0.4-0.5,0.6c-0.8,0.4-1.7,0.5-2.9,0.4L22.4,3
		c0.5-0.2,1-0.4,1.5-0.6c0.2-0.1,0.3-0.1,0.5-0.2C25,2,25.6,1.7,26.2,1.6c0.5-0.1,1.3-0.2,2,0.1C28.4,1.8,28.6,1.9,28.6,2z"/>
</g>
<ellipse id="XMLID_334_" style="opacity:0.2;fill:#FFFFFF;" cx="20" cy="23.7" rx="12.3" ry="7"/>
</svg>
