<?xml version="1.0" encoding="utf-8"?>
<!-- Generator: Adobe Illustrator 19.0.0, SVG Export Plug-In . SVG Version: 6.00 Build 0)  -->
<svg version="1.1" id="Layer_1" xmlns="http://www.w3.org/2000/svg" xmlns:xlink="http://www.w3.org/1999/xlink" x="0px" y="0px"
	 viewBox="0 0 41.1 56.8" style="enable-background:new 0 0 41.1 56.8;" xml:space="preserve">
<path id="XMLID_64_" style="opacity:0.4;fill:#7A7A7A;enable-background:new    ;" d="M41.1,36.2c-0.1-2.3-0.6-4.6-1.4-6.7
	c-0.3-0.6-0.5-1.2-0.9-1.8c-0.6-1.1-1.2-2.1-2-3.1c-1.1-1.4-2.3-2.6-3.7-3.6c-0.3-0.2-0.5-0.4-0.8-0.6c-1.1-0.8-2.3-1.4-3.6-2
	c-1-0.4-2-0.7-3.1-1c0.1-0.2,0.1-0.5,0.1-0.7c0-0.9-0.5-1.7-1.3-2c0.5-0.7,0.8-1.6,0.8-2.5c0-0.3-0.1-0.7-0.1-1
	c0.5,0.2,1.1,0.4,1.6,0.6c0.5,0.1,0.9,0.2,1.3,0.2c0.6,0,1.1-0.1,1.6-0.3c0.7-0.3,1.2-0.9,1.3-1.5c0.1-0.8-0.3-1.6-1.2-2.1
	c-1.2-0.7-2.6-0.7-3.7-0.6l-0.1,0c0.9-0.4,1.7-0.8,2.5-1.4c1.4-1,2.9-2.8,2-4.6c-1.7-3.2-7.5,3.6-9.5,5.7c-2-2.1-7.8-8.9-9.5-5.7
	c-1,1.8,0.6,3.6,2,4.6c0.8,0.6,1.6,1,2.5,1.4l-0.1,0c-1.1,0-2.5-0.1-3.7,0.6c-0.8,0.5-1.3,1.3-1.2,2.1c0.1,0.6,0.6,1.2,1.3,1.5
	c0.5,0.2,1,0.3,1.6,0.3c0.4,0,0.9-0.1,1.3-0.2c0.6-0.1,1.1-0.4,1.6-0.6c-0.1,0.3-0.1,0.7-0.1,1c0,0.9,0.3,1.8,0.8,2.5
	c-0.8,0.3-1.3,1.1-1.3,2c0,0.2,0,0.5,0.1,0.7c-1,0.2-2,0.5-2.9,0.9c-1,0.4-1.9,0.9-2.8,1.4c-0.6,0.3-1.1,0.7-1.7,1.1
	c-1.4,1-2.6,2.2-3.7,3.6c-0.9,1.1-1.7,2.4-2.3,3.7c-0.2,0.4-0.4,0.8-0.6,1.3c-0.8,2.1-1.3,4.3-1.4,6.7c0,0.2,0,0.4,0,0.7
	c0,0.8,0.1,1.6,0.2,2.4c0.2,1.2,0.4,2.4,0.8,3.6c0.1,0.5,0.3,0.9,0.5,1.3c0.2,0.5,0.4,1,0.6,1.5c0.7,1.4,1.5,2.7,2.5,3.9
	c1,1.2,2.2,2.3,3.4,3.3c1.4,1,2.9,1.9,4.4,2.5c1.7,0.7,3.5,1.2,5.4,1.4c0.7,0.1,1.4,0.1,2.1,0.1c0.8,0,1.5-0.1,2.2-0.1
	c1.9-0.2,3.7-0.7,5.4-1.4c1.4-0.6,2.7-1.3,4-2.2c1.4-1,2.7-2.2,3.8-3.5c1-1.2,1.9-2.6,2.5-4c0.3-0.5,0.5-1.1,0.7-1.7
	c0.1-0.3,0.2-0.7,0.3-1c0.4-1.2,0.6-2.5,0.8-3.7c0.1-0.7,0.1-1.5,0.1-2.3C41.1,36.7,41.1,36.5,41.1,36.2z M18.8,12.3
	c0-0.9,0.6-1.7,1.4-2.1c0.2-0.1,0.5-0.1,0.7-0.2c0.1,0,0.2,0,0.3,0s0.2,0,0.3,0c0.3,0.1,0.5,0.1,0.7,0.2c0.8,0.4,1.4,1.2,1.4,2.1
	c0,1.2-0.9,2.2-2.1,2.3h-0.6C19.8,14.5,18.8,13.5,18.8,12.3z M26.3,9c1.2,0,2.2,0,2.9,0.4c0.3,0.2,0.5,0.4,0.5,0.6
	c0,0.1-0.2,0.3-0.4,0.4c-0.7,0.3-1.4,0.2-2,0.1c-0.6-0.1-1.1-0.4-1.7-0.6c-0.2-0.1-0.3-0.1-0.5-0.2c-0.3-0.1-0.6-0.2-0.9-0.3
	c-0.1-0.1-0.2-0.2-0.3-0.2L26.3,9z M25,5.3c0.6-0.7,3.3-3.5,4.2-2.8C30.6,3.6,26.8,5.6,26,6c-0.8,0.4-1.7,0.7-2.5,1
	C24,6.5,24.5,5.9,25,5.3z M13.2,2.5c0.9-0.7,3.6,2.2,4.2,2.8c0.5,0.6,1,1.1,1.6,1.7c-0.9-0.3-1.7-0.6-2.5-1
	C15.6,5.6,11.9,3.6,13.2,2.5z M17.3,9.6c-0.2,0.1-0.3,0.1-0.5,0.2c-0.6,0.3-1.2,0.5-1.7,0.6c-0.5,0.1-1.3,0.2-2-0.1
	c-0.2-0.1-0.4-0.3-0.4-0.4c0-0.2,0.2-0.4,0.5-0.6c0.8-0.4,1.7-0.5,2.9-0.4l2.4,0.1c-0.1,0.1-0.2,0.2-0.3,0.2
	C17.9,9.4,17.6,9.5,17.3,9.6z"/>
<path id="XMLID_13_" style="fill:#EDEDED;" d="M22.5,18.4h-5.1c-1.2,0-2.2-1-2.2-2.2l0,0c0-1.2,1-2.2,2.2-2.2h5.1
	c1.2,0,2.2,1,2.2,2.2l0,0C24.7,17.4,23.7,18.4,22.5,18.4z"/>
<path id="XMLID_36_" style="fill:#EDEDED;" d="M20,15.9c-2.3,0-4.3-1.9-4.3-4.3c0-2.3,1.9-4.3,4.3-4.3c2.3,0,4.3,1.9,4.3,4.3
	C24.2,13.9,22.3,15.9,20,15.9z M20,9.2c-1.3,0-2.4,1.1-2.4,2.4c0,1.3,1.1,2.4,2.4,2.4s2.4-1.1,2.4-2.4C22.3,10.3,21.3,9.2,20,9.2z"
	/>
<path id="XMLID_9_" style="fill:#C33960;" d="M20,22.4l2.7-4.1l1.1-1.7c-1.2-0.2-2.5-0.4-3.9-0.4c-1.3,0-2.5,0.1-3.7,0.4l1.1,1.7
	L20,22.4z"/>
<path id="XMLID_8_" style="fill:#C33960;" d="M12.1,18.4l0.4-0.6c-1,0.4-1.9,0.9-2.8,1.4c-0.6,0.3-1.1,0.7-1.7,1.1l1.4,2.1
	L12.1,18.4z"/>
<path id="XMLID_7_" style="fill:#C33960;" d="M30.7,22.4l1.3-2.1c-0.3-0.2-0.5-0.4-0.8-0.6c-1.1-0.8-2.3-1.4-3.6-2l0.3,0.5
	L30.7,22.4z"/>
<path id="XMLID_6_" style="fill:#FCEFCD;" d="M36,32.7l-2.7,4.1l-2.7,4.1L28,36.8l-2.7-4.1l-2.7,4.1L20,40.9l-2.7-4.1l-2.7-4.1
	l-2.7,4.1l-2.7,4.1l-2.7-4.1l-2.7-4.1l-2.7,4.1l-1.2,1.8c0.2,1.2,0.4,2.4,0.8,3.6c0.1,0.5,0.3,0.9,0.5,1.3c0.2,0.5,0.4,1,0.6,1.5
	l2-3L6.7,46l2.7,4.1l2.7-4.1l2.7-4.1l2.7,4.1l2.7,4.1l2.7-4.1l2.7-4.1L28,46l2.7,4.1l2.7-4.1L36,42l1.9,2.9c0.3-0.5,0.5-1.1,0.7-1.7
	c0.1-0.3,0.2-0.7,0.3-1c0.4-1.2,0.6-2.5,0.8-3.7l-1.1-1.7L36,32.7z"/>
<path id="XMLID_5_" style="fill:#FCEFCD;" d="M32,20.4l-1.3,2.1L28,18.4l-0.3-0.5c-1.2-0.5-2.5-0.9-3.9-1.2l-1.1,1.7L20,22.4
	l-2.7-4.1l-1.1-1.7c-1.3,0.3-2.6,0.6-3.8,1.1l-0.4,0.6l-2.7,4.1L8,20.3c-1.4,1-2.6,2.2-3.7,3.6l2.4,3.7l2.7,4.1l2.7-4.1l2.7-4.1
	l2.7,4.1l2.7,4.1l2.7-4.1l2.7-4.1l2.7,4.1l2.7,4.1l2.7-4.1l2.4-3.6C34.7,22.6,33.4,21.4,32,20.4z"/>
<path id="XMLID_4_" style="fill:#C33960;" d="M30.7,31.6L28,27.6l-2.7-4.1l-2.7,4.1L20,31.6l-2.7-4.1l-2.7-4.1l-2.7,4.1l-2.7,4.1
	l-2.7-4.1l-2.4-3.7C3.4,25,2.6,26.3,2,27.6c-0.2,0.4-0.4,0.8-0.6,1.3c-0.8,2.1-1.3,4.3-1.4,6.7c0,0.2,0,0.4,0,0.7
	c0,0.8,0.1,1.6,0.2,2.4l1.2-1.8l2.7-4.1l2.7,4.1l2.7,4.1l2.7-4.1l2.7-4.1l2.7,4.1l2.7,4.1l2.7-4.1l2.7-4.1l2.7,4.1l2.7,4.1l2.7-4.1
	l2.7-4.1l2.7,4.1l1.1,1.7c0.1-0.7,0.1-1.5,0.1-2.3c0-0.2,0-0.4,0-0.7c-0.1-2.3-0.6-4.6-1.4-6.7c-0.3-0.6-0.5-1.2-0.9-1.8
	c-0.6-1.1-1.2-2.1-2-3.1l-2.4,3.6L30.7,31.6z"/>
<path id="XMLID_3_" style="fill:#FCEFCD;" d="M14.7,51.2l-2.3,3.5c1.7,0.7,3.5,1.2,5.4,1.4l-0.5-0.8L14.7,51.2z"/>
<path id="XMLID_2_" style="fill:#C33960;" d="M33.4,46l-2.7,4.1L28,46L25.4,42L22.7,46L20,50.1L17.4,46L14.7,42L12.1,46l-2.7,4.1
	L6.7,46L4.1,42l-2,3c0.7,1.4,1.5,2.7,2.5,3.9c1,1.2,2.2,2.3,3.4,3.3c1.4,1,2.9,1.9,4.4,2.5l2.3-3.5l2.7,4.1l0.5,0.8
	c0.7,0.1,1.4,0.1,2.1,0.1c0.8,0,1.5-0.1,2.2-0.1l0.5-0.7l2.7-4.1l2.2,3.4c1.4-0.6,2.7-1.3,4-2.2c1.4-1,2.7-2.2,3.8-3.5
	c1-1.2,1.9-2.6,2.5-4L36,42L33.4,46z"/>
<path id="XMLID_1_" style="fill:#FCEFCD;" d="M22.7,55.2L22.2,56c1.9-0.2,3.7-0.7,5.4-1.4l-2.2-3.4L22.7,55.2z"/>
<g id="XMLID_40_">
	<path id="XMLID_45_" style="fill:#C33960;" d="M28.8,7.4c-1.2-0.7-2.6-0.7-3.7-0.6l-0.1,0c0.9-0.4,1.7-0.8,2.5-1.4
		c1.4-1,2.9-2.8,2-4.6c-1.9-3.6-8.7,5.1-10,6.2c-0.3,0.3-0.3,0.6-0.1,0.9c0,0,0,0,0,0c0,0.1,0,0.1,0,0.2c0,0.1-0.1,0.1-0.1,0.2
		c-0.1,0.4,0.2,0.8,0.5,0.9c1.2,0.3,2.3,0.6,3.4,1.1c0.2,0.1,0.3,0.1,0.5,0.2c0.6,0.3,1.3,0.5,2,0.7c0.5,0.1,0.9,0.2,1.3,0.2
		c0.6,0,1.1-0.1,1.6-0.3c0.7-0.3,1.2-0.9,1.3-1.5C30.1,8.7,29.6,7.9,28.8,7.4z M23.8,4.6C24.4,4,27.1,1.1,28,1.8
		c1.3,1.1-2.4,3.1-3.2,3.5c-0.8,0.4-1.7,0.7-2.5,1C22.8,5.8,23.3,5.2,23.8,4.6z M28.1,9.7c-0.7,0.3-1.4,0.2-2,0.1
		c-0.6-0.1-1.1-0.4-1.7-0.6C24.2,9,24,9,23.9,8.9c-0.5-0.2-1-0.4-1.5-0.6l2.7-0.1c1.2,0,2.2,0,2.9,0.4c0.3,0.2,0.5,0.4,0.5,0.6
		C28.5,9.4,28.3,9.6,28.1,9.7z"/>
	<path id="XMLID_41_" style="fill:#C33960;" d="M10,9.5c0.1,0.6,0.6,1.2,1.3,1.5c0.5,0.2,1,0.3,1.6,0.3c0.4,0,0.9-0.1,1.3-0.2
		c0.7-0.2,1.3-0.4,2-0.7c0.2-0.1,0.3-0.1,0.5-0.2c1.1-0.5,2.2-0.8,3.4-1.1c0.4-0.1,0.6-0.5,0.5-0.9c0-0.1,0-0.1-0.1-0.2
		c0,0,0-0.1,0-0.2c0,0,0,0,0,0c0.2-0.3,0.2-0.6-0.1-0.9c-1.2-1.1-8.1-9.7-10-6.2c-1,1.8,0.6,3.6,2,4.6c0.8,0.6,1.6,1,2.5,1.4l-0.1,0
		c-1.1,0-2.5-0.1-3.7,0.6C10.3,7.9,9.9,8.7,10,9.5z M17.7,6.3c-0.9-0.3-1.7-0.6-2.5-1c-0.8-0.4-4.6-2.4-3.2-3.5
		c0.9-0.7,3.6,2.2,4.2,2.8C16.7,5.2,17.2,5.8,17.7,6.3z M11.4,9.3c0-0.2,0.2-0.4,0.5-0.6c0.8-0.4,1.7-0.5,2.9-0.4l2.7,0.1
		c-0.5,0.2-1,0.4-1.5,0.6C15.9,9,15.8,9,15.6,9.1c-0.6,0.3-1.2,0.5-1.7,0.6c-0.5,0.1-1.3,0.2-2-0.1C11.6,9.6,11.5,9.4,11.4,9.3z"/>
</g>
<ellipse id="XMLID_490_" style="opacity:0.2;fill:#FFFFFF;" cx="20" cy="27.1" rx="12.3" ry="7"/>
</svg>
