<?xml version="1.0" encoding="utf-8"?>
<!-- Generator: Adobe Illustrator 19.0.0, SVG Export Plug-In . SVG Version: 6.00 Build 0)  -->
<svg version="1.1" id="Layer_1" xmlns="http://www.w3.org/2000/svg" xmlns:xlink="http://www.w3.org/1999/xlink" x="0px" y="0px"
	 viewBox="0 0 41.3 49.4" style="enable-background:new 0 0 41.3 49.4;" xml:space="preserve">
<path id="XMLID_310_" style="opacity:0.4;fill:#7A7A7A;enable-background:new    ;" d="M41.3,28.8c-0.1-2.3-0.6-4.6-1.4-6.7
	c-0.3-0.6-0.5-1.2-0.9-1.8c-1.5-2.9-3.7-5.4-6.4-7.3c-1.9-1.3-4-2.3-6.3-2.9c-0.1,0-0.2,0-0.3-0.1c0.1-0.2,0.1-0.4,0.1-0.7
	c0-0.9-0.5-1.7-1.3-2c0.5-0.7,0.8-1.6,0.8-2.5c0-2.4-1.9-4.3-4.3-4.3c-2.4,0-4.3,1.9-4.3,4.3c0,0.9,0.3,1.8,0.8,2.5
	c-0.8,0.3-1.3,1.1-1.3,2c0,0.2,0,0.5,0.1,0.7c-0.2,0.1-0.4,0.1-0.6,0.1c-1.8,0.5-3.5,1.2-5.1,2.2c-3.3,2-6,4.9-7.7,8.5
	c-0.2,0.4-0.4,0.8-0.6,1.3c-0.8,2.1-1.3,4.3-1.4,6.7c0,0.2,0,0.4,0,0.7c0,2.1,0.3,4.1,0.9,6c0.1,0.5,0.3,0.9,0.5,1.3
	c0.8,1.9,1.8,3.7,3.1,5.3c1,1.2,2.2,2.3,3.4,3.3c0.6,0.5,1.2,0.9,1.9,1.2c2.3,1.4,4.9,2.3,7.7,2.6c0.8,0.1,1.6,0.2,2.4,0.2
	c0.7,0,1.4-0.1,2.1-0.1c2.7-0.3,5.3-1.1,7.6-2.4c0.6-0.4,1.3-0.7,1.9-1.2c1.4-1,2.7-2.2,3.8-3.5c1.4-1.7,2.5-3.6,3.3-5.7
	c0.1-0.3,0.2-0.7,0.3-1c0.6-1.9,0.9-3.9,0.9-6C41.3,29.3,41.3,29,41.3,28.8z M21.3,2.5c1.3,0,2.4,1.1,2.4,2.4c0,1.2-0.9,2.2-2.1,2.3
	H21C19.9,7,19,6.1,19,4.8C19,3.5,20,2.5,21.3,2.5z"/>
<g id="XMLID_474_">
	<path id="XMLID_478_" style="fill:#EDEDED;" d="M22.6,11h-5.1c-1.2,0-2.2-1-2.2-2.2l0,0c0-1.2,1-2.2,2.2-2.2h5.1
		c1.2,0,2.2,1,2.2,2.2l0,0C24.9,10,23.9,11,22.6,11z"/>
	<path id="XMLID_475_" style="fill:#EDEDED;" d="M20.1,8.5c-2.4,0-4.3-1.9-4.3-4.3c0-2.4,1.9-4.3,4.3-4.3c2.4,0,4.3,1.9,4.3,4.3
		C24.4,6.6,22.5,8.5,20.1,8.5z M20.1,1.9c-1.3,0-2.4,1.1-2.4,2.4c0,1.3,1.1,2.4,2.4,2.4s2.4-1.1,2.4-2.4C22.5,3,21.4,1.9,20.1,1.9z"
		/>
</g>
<path id="XMLID_412_" style="fill:#FFE6A6;" d="M38.8,22c-0.6-1.5-1.3-3-2.1-4.3c-0.7-1-1.5-2-2.4-2.9c-1.2-1.2-2.6-2.3-4.1-3.2
	c-0.3-0.2-0.6-0.3-0.9-0.5c-7.8,1.8-14.8,0.9-18.6,0.1c-1.5,0.8-2.9,1.8-4.1,2.9c-1.3,1.2-2.4,2.5-3.3,4c-0.8,1.2-1.4,2.6-1.9,3.9
	C6.3,23.6,20,26.9,38.8,22z"/>
<path id="XMLID_411_" style="fill:#FFDC7B;" d="M40,29.6c0.1-1.7-0.1-3.4-0.4-5.1c0,0,0-0.1,0-0.1c0-0.2-0.1-0.4-0.1-0.5
	c-0.2-0.7-0.4-1.3-0.6-2c-18.8,5-32.5,1.7-37.5,0c-0.4,1.1-0.7,2.3-0.9,3.5c-0.2,1.1-0.3,2.1-0.3,3.2c0,1.2,0.1,2.4,0.3,3.6
	c0,0.2,0.1,0.4,0.1,0.6c0.1,0.3,0.2,0.6,0.2,0.9c0.2,0.8,0.5,1.6,0.8,2.4c18.3-4.8,31.7-1.8,37-0.2c0.7-1.7,1.1-3.6,1.3-5.5
	C40,30.3,40,30,40,29.6z"/>
<path id="XMLID_410_" style="fill:#FFE6A6;" d="M1.6,36.3c0.3,0.8,0.7,1.6,1.1,2.4c1,1.7,2.2,3.3,3.6,4.6c0.4,0.4,0.8,0.8,1.3,1.1
	c0.9,0.7,1.9,1.4,2.9,1.9c0.3,0.2,0.7,0.4,1,0.5c6.9-1.3,13-0.6,16.6,0.1c1.8-0.8,3.5-1.9,5-3.2c1.3-1.2,2.5-2.5,3.4-3.9
	c0.4-0.6,0.8-1.3,1.1-1.9c0.3-0.6,0.6-1.2,0.8-1.8C33.3,34.4,19.9,31.4,1.6,36.3z"/>
<g id="XMLID_406_">
	<path id="XMLID_408_" style="fill:#D3A94A;" d="M29.4,11.1c-2.6-1.4-5.6-2.2-8.6-2.3c-1.6,0-3.2,0.1-4.8,0.4
		c-0.1,0-0.3,0.1-0.4,0.1c-1.7,0.4-3.3,1-4.8,1.8C14.6,12,21.6,12.9,29.4,11.1z"/>
	<path id="XMLID_407_" style="fill:#D3A94A;" d="M11.7,46.8c2.5,1.2,5.3,1.8,8.1,1.9c1.5,0,3-0.1,4.5-0.5c0.2,0,0.4-0.1,0.6-0.2
		c1.2-0.3,2.3-0.7,3.3-1.1C24.7,46.2,18.6,45.5,11.7,46.8z"/>
</g>
<g id="XMLID_380_">
	<g id="XMLID_403_">
		<path id="XMLID_405_" style="fill:#FF3939;" d="M11,13.9c-2.5,1.5-4.8,3.8-5.3,6.7c0,0.2,0,0.3,0,0.5c0.1,0.3,0.4,0.5,0.7,0.5
			C7,21.6,7.6,21.3,8,20.9c0.4-0.4,0.6-1,0.9-1.5c0.6-1.3,1.2-2.6,1.7-3.9L11,13.9z"/>
		<path id="XMLID_404_" style="fill:#FF3939;" d="M10.9,13.6c-1.9,1.2-3.6,2.6-4.7,4.6c-0.5,0.9-1.6,3-0.2,3.7
			c1.5,0.7,2.7-1.2,3.2-2.3c0.9-1.8,1.7-3.6,2.1-5.5c0.1-0.4-0.5-0.6-0.6-0.2c-0.5,2.1-1.4,4-2.3,5.9c-0.3,1-1.1,1.3-2.3,0.9
			c0.1-0.5,0.2-0.9,0.4-1.3c0.3-0.7,0.7-1.4,1.1-2c1-1.3,2.3-2.3,3.6-3.1C11.5,13.9,11.2,13.3,10.9,13.6z"/>
	</g>
	<g id="XMLID_400_">
		<path id="XMLID_402_" style="fill:#FF3939;" d="M17.6,13.3c-1.9,2.3-3.4,5.2-2.9,8.1c0,0.2,0.1,0.3,0.1,0.4
			c0.2,0.3,0.5,0.3,0.8,0.3c0.6-0.1,1-0.6,1.3-1.1c0.2-0.5,0.3-1.1,0.4-1.7c0.1-1.4,0.3-2.8,0.4-4.2L17.6,13.3z"/>
		<path id="XMLID_401_" style="fill:#FF3939;" d="M17.3,13.1c-1.4,1.8-2.7,3.8-3,6.1c-0.1,1.1-0.3,3.5,1.4,3.2c1.9-0.3,1.9-3,2-4.3
			c0.2-1.7,0.3-3.2,0.1-4.8c0-0.4-0.7-0.3-0.6,0.1c0.2,2,0,4.1-0.3,6.1c0,0.6-0.2,1.1-0.5,1.6c-1.3,0.2-1.8-0.3-1.5-1.4
			c0-0.8,0.2-1.6,0.5-2.3c0.5-1.5,1.4-2.8,2.4-4C18.1,13.2,17.6,12.8,17.3,13.1z"/>
	</g>
	<g id="XMLID_397_">
		<path id="XMLID_399_" style="fill:#FF3939;" d="M29.2,13.9c2.5,1.5,4.8,3.8,5.3,6.8c0,0.2,0,0.3,0,0.5c-0.1,0.3-0.4,0.5-0.7,0.5
			c-0.6,0.1-1.2-0.2-1.6-0.7c-0.4-0.4-0.6-1-0.9-1.5c-0.6-1.3-1.2-2.6-1.7-3.9L29.2,13.9z"/>
		<path id="XMLID_398_" style="fill:#FF3939;" d="M29,14.2c1.2,0.7,2.3,1.6,3.2,2.6c0.5,0.6,1,1.3,1.3,2c0.1,0.3,0.4,0.7,0.4,1.1
			c0,0.1,0.1,0.3,0.1,0.4c-0.7,0.9-1.3,1-1.7,0.2c-1.1-1.1-1.5-3-2.1-4.4c-0.3-0.8-0.5-1.5-0.7-2.3c-0.1-0.4-0.7-0.3-0.6,0.1
			c0.4,1.7,1,3.1,1.7,4.7c0.5,1.2,1.6,4.1,3.6,3.2c1.4-0.6,0.2-3-0.3-3.9c-1.1-1.8-2.7-3.2-4.5-4.4C29,13.4,28.6,13.9,29,14.2z"/>
	</g>
	<g id="XMLID_381_">
		<path id="XMLID_396_" style="fill:#FF3939;" d="M22.6,13.3c1.9,2.3,3.4,5.2,2.8,8.1c0,0.2-0.1,0.3-0.1,0.4
			c-0.2,0.3-0.5,0.3-0.8,0.3c-0.6-0.1-1-0.6-1.3-1.1c-0.2-0.5-0.3-1.1-0.3-1.7c-0.1-1.4-0.3-2.8-0.4-4.2L22.6,13.3z"/>
		<path id="XMLID_395_" style="fill:#FF3939;" d="M22.3,13.6c1,1.2,1.8,2.5,2.4,4c0.2,0.6,0.4,1.3,0.5,1.9c0.1,0.5,0.1,1,0,1.4
			c-1.4,0.5-2,0.2-2-1.1c-0.4-2.1-0.5-4.3-0.3-6.4c0-0.4-0.6-0.5-0.7-0.1c-0.1,1.7,0,3.1,0.1,4.8c0.1,1.3,0.2,4.4,2.2,4.3
			c1.6-0.1,1.3-2.3,1.1-3.4c-0.3-2.2-1.5-4.2-2.9-5.9C22.6,12.8,22.1,13.2,22.3,13.6z"/>
	</g>
</g>
<g id="XMLID_367_">
	<g id="XMLID_377_">
		<path id="XMLID_379_" style="fill:#FF3939;" d="M29.1,44.3c2.5-1.5,4.8-3.8,5.3-6.7c0-0.2,0-0.3,0-0.5c-0.1-0.3-0.4-0.5-0.7-0.5
			c-0.6-0.1-1.2,0.2-1.6,0.7c-0.4,0.4-0.6,1-0.9,1.5c-0.6,1.3-1.2,2.6-1.7,3.9L29.1,44.3z"/>
		<path id="XMLID_378_" style="fill:#FF3939;" d="M29.2,44.6c1.9-1.2,3.6-2.6,4.7-4.6c0.5-0.9,1.6-3,0.2-3.7
			c-1.5-0.7-2.7,1.2-3.2,2.3c-0.9,1.8-1.7,3.6-2.1,5.5c-0.1,0.4,0.5,0.6,0.6,0.2c0.5-2.1,1.4-4,2.3-5.9c0.3-1,1.1-1.3,2.3-0.9
			c-0.1,0.5-0.2,0.9-0.4,1.3c-0.3,0.7-0.7,1.4-1.1,2c-1,1.3-2.3,2.3-3.6,3.1C28.6,44.2,28.9,44.8,29.2,44.6z"/>
	</g>
	<g id="XMLID_374_">
		<path id="XMLID_376_" style="fill:#FF3939;" d="M22.5,44.8c1.9-2.3,3.4-5.2,2.9-8.1c0-0.2-0.1-0.3-0.1-0.4
			c-0.2-0.3-0.5-0.3-0.8-0.3c-0.6,0.1-1,0.6-1.3,1.1c-0.2,0.5-0.3,1.1-0.4,1.7c-0.1,1.4-0.3,2.8-0.4,4.2L22.5,44.8z"/>
		<path id="XMLID_375_" style="fill:#FF3939;" d="M22.8,45c1.4-1.8,2.7-3.8,3-6.1c0.1-1.1,0.3-3.5-1.4-3.2c-1.9,0.3-1.9,3-2,4.3
			c-0.2,1.7-0.3,3.2-0.1,4.8c0,0.4,0.7,0.3,0.6-0.1c-0.2-2,0-4.1,0.3-6.1c0-0.6,0.2-1.1,0.5-1.6c1.3-0.2,1.8,0.3,1.5,1.4
			c0,0.8-0.2,1.6-0.5,2.3c-0.5,1.5-1.4,2.8-2.4,4C22,44.9,22.5,45.3,22.8,45z"/>
	</g>
	<g id="XMLID_371_">
		<path id="XMLID_373_" style="fill:#FF3939;" d="M11,44.3c-2.5-1.5-4.8-3.8-5.3-6.8c0-0.2,0-0.3,0-0.5c0.1-0.3,0.4-0.5,0.7-0.5
			C7,36.5,7.6,36.8,8,37.2c0.4,0.4,0.6,1,0.9,1.5c0.6,1.3,1.2,2.6,1.7,3.9L11,44.3z"/>
		<path id="XMLID_372_" style="fill:#FF3939;" d="M11.2,44c-1.2-0.7-2.3-1.6-3.2-2.6c-0.5-0.6-1-1.3-1.3-2c-0.1-0.3-0.4-0.7-0.4-1.1
			c0-0.1-0.1-0.3-0.1-0.4c0.7-0.9,1.3-1,1.7-0.2c1.1,1.1,1.5,3,2.1,4.4c0.3,0.8,0.5,1.5,0.7,2.3c0.1,0.4,0.7,0.3,0.6-0.1
			c-0.4-1.7-1-3.1-1.7-4.7C9,38.3,8,35.4,6,36.3c-1.4,0.6-0.2,3,0.3,3.9c1.1,1.8,2.7,3.2,4.5,4.4C11.1,44.7,11.5,44.2,11.2,44z"/>
	</g>
	<g id="XMLID_368_">
		<path id="XMLID_370_" style="fill:#FF3939;" d="M17.5,44.8c-1.9-2.3-3.4-5.2-2.8-8.1c0-0.2,0.1-0.3,0.1-0.4C15,36,15.4,36,15.7,36
			c0.6,0.1,1,0.6,1.3,1.1c0.2,0.5,0.3,1.1,0.3,1.7c0.1,1.4,0.3,2.8,0.4,4.2L17.5,44.8z"/>
		<path id="XMLID_369_" style="fill:#FF3939;" d="M17.8,44.6c-1-1.2-1.8-2.5-2.4-4C15.2,40,15,39.4,15,38.7c-0.1-0.5-0.1-1,0-1.4
			c1.4-0.5,2-0.2,2,1.1c0.4,2.1,0.5,4.3,0.3,6.4c0,0.4,0.6,0.5,0.7,0.1c0.1-1.7,0-3.1-0.1-4.8c-0.1-1.3-0.2-4.4-2.2-4.3
			c-1.6,0.1-1.3,2.3-1.1,3.4c0.3,2.2,1.5,4.2,2.9,5.9C17.5,45.3,18.1,44.9,17.8,44.6z"/>
	</g>
</g>
<g id="XMLID_360_">
	<circle id="XMLID_366_" style="fill:#FF3939;" cx="3.8" cy="29.6" r="1.1"/>
	<circle id="XMLID_365_" style="fill:#FF3939;" cx="16.6" cy="29.6" r="1.1"/>
	<circle id="XMLID_364_" style="fill:#FF3939;" cx="29.4" cy="29.6" r="1.1"/>
	<circle id="XMLID_363_" style="fill:#FF3939;" cx="10.2" cy="29" r="1.6"/>
	<circle id="XMLID_362_" style="fill:#FF3939;" cx="23" cy="29" r="1.6"/>
	<circle id="XMLID_361_" style="fill:#FF3939;" cx="35.8" cy="29.1" r="1.6"/>
</g>
<path id="XMLID_357_" style="fill:#D3A94A;" d="M13.4,25.1c-7.6-0.7-12.2-2.5-12.3-2.5c-0.3-0.1-0.5-0.5-0.4-0.9
	c0.1-0.3,0.5-0.5,0.9-0.4c0.2,0.1,15.6,6.1,37.1-0.1c0.3-0.1,0.7,0.1,0.8,0.4c0.1,0.3-0.1,0.7-0.4,0.8C28.8,25.5,20,25.7,13.4,25.1z
	"/>
<path id="XMLID_356_" style="fill:#D3A94A;" d="M1.5,36.9c-0.3,0-0.5-0.2-0.6-0.5c-0.1-0.3,0.1-0.7,0.4-0.8
	c0.2-0.1,18.4-5.8,37.4-0.2c0.3,0.1,0.5,0.5,0.4,0.8c-0.1,0.3-0.5,0.5-0.8,0.4C19.8,31.2,2,36.8,1.8,36.9
	C1.7,36.9,1.6,36.9,1.5,36.9z"/>
<ellipse id="XMLID_389_" style="opacity:0.2;fill:#FFFFFF;" cx="20.1" cy="19.7" rx="12.3" ry="7"/>
</svg>
