<?xml version="1.0" encoding="utf-8"?>
<!-- Generator: Adobe Illustrator 19.0.0, SVG Export Plug-In . SVG Version: 6.00 Build 0)  -->
<svg version="1.1" id="Layer_1" xmlns="http://www.w3.org/2000/svg" xmlns:xlink="http://www.w3.org/1999/xlink" x="0px" y="0px"
	 viewBox="0 0 41.1 49.4" style="enable-background:new 0 0 41.1 49.4;" xml:space="preserve">
<path id="XMLID_132_" style="opacity:0.4;fill:#7A7A7A;enable-background:new    ;" d="M41.1,28.8c-0.1-2.3-0.6-4.6-1.4-6.7
	c-0.3-0.6-0.5-1.2-0.9-1.8c-1.5-2.9-3.7-5.4-6.4-7.3c-1.9-1.3-4-2.3-6.3-2.9c-0.1,0-0.2,0-0.3-0.1c0.1-0.2,0.1-0.4,0.1-0.7
	c0-0.9-0.5-1.7-1.3-2c0.5-0.7,0.8-1.6,0.8-2.5c0-2.4-1.9-4.3-4.3-4.3c-2.4,0-4.3,1.9-4.3,4.3c0,0.9,0.3,1.8,0.8,2.5
	c-0.8,0.3-1.3,1.1-1.3,2c0,0.2,0,0.5,0.1,0.7c-0.2,0.1-0.4,0.1-0.6,0.1c-1.8,0.5-3.5,1.2-5.1,2.2c-3.3,2-6,4.9-7.7,8.5
	c-0.2,0.4-0.4,0.8-0.6,1.3c-0.8,2.1-1.3,4.3-1.4,6.7c0,0.2,0,0.4,0,0.7c0,2.1,0.3,4.1,0.9,6c0.1,0.5,0.3,0.9,0.5,1.3
	c0.8,1.9,1.8,3.7,3.1,5.3c1,1.2,2.2,2.3,3.4,3.3c0.6,0.5,1.2,0.9,1.9,1.2c2.3,1.4,4.9,2.3,7.7,2.6c0.8,0.1,1.6,0.2,2.4,0.2
	c0.7,0,1.4-0.1,2.1-0.1c2.7-0.3,5.3-1.1,7.6-2.4c0.6-0.4,1.3-0.7,1.9-1.2c1.4-1,2.7-2.2,3.8-3.5c1.4-1.7,2.5-3.6,3.3-5.7
	c0.1-0.3,0.2-0.7,0.3-1c0.6-1.9,0.9-3.9,0.9-6C41.1,29.3,41.1,29,41.1,28.8z M21.2,2.5c1.3,0,2.4,1.1,2.4,2.4c0,1.2-0.9,2.2-2.1,2.3
	h-0.6c-1.2-0.1-2.1-1.1-2.1-2.3C18.8,3.5,19.9,2.5,21.2,2.5z"/>
<g id="XMLID_79_">
	<path id="XMLID_80_" style="fill:#EDEDED;" d="M22.5,11h-5.1c-1.2,0-2.2-1-2.2-2.2l0,0c0-1.2,1-2.2,2.2-2.2h5.1
		c1.2,0,2.2,1,2.2,2.2l0,0C24.7,10,23.7,11,22.5,11z"/>
	<path id="XMLID_81_" style="fill:#EDEDED;" d="M20,8.5c-2.4,0-4.3-1.9-4.3-4.3C15.7,1.9,17.6,0,20,0c2.4,0,4.3,1.9,4.3,4.3
		C24.2,6.6,22.3,8.5,20,8.5z M20,1.9c-1.3,0-2.4,1.1-2.4,2.4c0,1.3,1.1,2.4,2.4,2.4c1.3,0,2.4-1.1,2.4-2.4C22.3,3,21.3,1.9,20,1.9z"
		/>
</g>
<path id="XMLID_84_" style="fill:#AF0032;" d="M14.7,9.7c-1.8,0.5-3.5,1.2-5.1,2.2c-3.3,2-6,4.9-7.7,8.5c-0.2,0.4-0.4,0.8-0.6,1.3
	c-0.8,2.1-1.3,4.3-1.4,6.7c0,0.2,0,0.4,0,0.7c0,2.1,0.3,4.1,0.9,6c0.1,0.5,0.3,0.9,0.5,1.3c0.8,1.9,1.8,3.7,3.1,5.3
	c1,1.2,2.2,2.3,3.4,3.3c0.6,0.5,1.2,0.9,1.9,1.2C1.5,28.3,11.5,13.6,14.7,9.7z"/>
<path id="XMLID_85_" style="fill:#FFFFFF;" d="M17.9,9.1c-1.1,0.1-2.2,0.3-3.2,0.6c-3.2,4-13.2,18.6-4.8,36.4
	c2.3,1.4,4.9,2.3,7.7,2.6C12,36.3,16.4,15.2,17.9,9.1z"/>
<path id="XMLID_86_" style="fill:#AF0032;" d="M39.9,28.2c-0.1-2.3-0.6-4.6-1.4-6.7c-0.3-0.6-0.5-1.2-0.9-1.8
	c-1.5-2.9-3.7-5.4-6.4-7.3c-1.9-1.3-4-2.3-6.3-2.9c3.1,3.9,13.4,18.7,4.8,36.7c0.6-0.4,1.3-0.7,1.9-1.2c1.4-1,2.7-2.2,3.8-3.5
	c1.4-1.7,2.5-3.6,3.3-5.7c0.1-0.3,0.2-0.7,0.3-1c0.6-1.9,0.9-3.9,0.9-6C39.9,28.7,39.9,28.5,39.9,28.2z"/>
<path id="XMLID_87_" style="fill:#FFFFFF;" d="M25,9.6c-1-0.3-2.1-0.5-3.2-0.6c1.5,6.1,5.9,27.2,0.3,39.7c2.7-0.3,5.3-1.1,7.6-2.4
	C38.3,28.3,28.1,13.4,25,9.6z"/>
<path id="XMLID_88_" style="fill:#AF0032;" d="M21.8,9C21.2,9,20.6,8.9,20,8.9c-0.7,0-1.4,0-2,0.1c-1.5,6.2-5.9,27.2-0.4,39.6
	c0.8,0.1,1.6,0.2,2.4,0.2c0.7,0,1.4-0.1,2.1-0.1C27.7,36.3,23.3,15.2,21.8,9z"/>
<ellipse id="XMLID_319_" style="opacity:0.2;fill:#FFFFFF;" cx="19.9" cy="19.7" rx="12.3" ry="7"/>
</svg>
