<?xml version="1.0" encoding="utf-8"?>
<!-- Generator: Adobe Illustrator 19.0.0, SVG Export Plug-In . SVG Version: 6.00 Build 0)  -->
<svg version="1.1" id="Layer_1" xmlns="http://www.w3.org/2000/svg" xmlns:xlink="http://www.w3.org/1999/xlink" x="0px" y="0px"
	 viewBox="-146.1 99.5 53.6 53.6" style="enable-background:new -146.1 99.5 53.6 53.6;" xml:space="preserve">
<g>
	<path style="fill:#FFFFFF;" d="M-97.382,151.129c-0.685,0-2.055,0-2.74-0.685l-43.151-43.151c-1.37-1.37-1.37-3.425,0-4.794
		s3.425-1.37,4.794,0l43.151,43.151c1.37,1.37,1.37,3.425,0,4.795C-95.327,150.444-96.012,151.129-97.382,151.129z"/>
	<path style="fill:#FFFFFF;" d="M-140.533,151.129c-0.685,0-2.055,0-2.74-0.685c-1.37-1.37-1.37-3.425,0-4.795l43.151-43.151
		c1.37-1.37,3.425-1.37,4.795,0s1.37,3.425,0,4.794l-42.466,42.466C-138.478,150.444-139.848,151.129-140.533,151.129z"/>
</g>
</svg>
