<?xml version="1.0" encoding="utf-8"?>
<!-- Generator: Adobe Illustrator 19.0.0, SVG Export Plug-In . SVG Version: 6.00 Build 0)  -->
<svg version="1.1" id="Layer_1" xmlns="http://www.w3.org/2000/svg" xmlns:xlink="http://www.w3.org/1999/xlink" x="0px" y="0px"
	 viewBox="170 -170 380 380" style="enable-background:new 170 -170 380 380;" xml:space="preserve">
<rect x="170.1" y="-170" style="fill:#F2F2F2;" width="379.9" height="380"/>
<g style="opacity:0.42;">
	<g>
		<polygon style="fill:#E6E6E6;" points="174.7,-170 170.6,-165.7 170.6,-165 175.4,-170 		"/>
	</g>
	<g>
		<polygon style="fill:#E6E6E6;" points="178.7,-170 170.6,-161.5 170.6,-160.8 179.4,-170 		"/>
	</g>
	<g>
		<polygon style="fill:#E6E6E6;" points="182.8,-170 170.6,-157.3 170.6,-156.6 183.4,-170 		"/>
	</g>
	<g>
		<polygon style="fill:#E6E6E6;" points="186.8,-170 170.6,-153.1 170.6,-152.4 187.5,-170 		"/>
	</g>
	<g>
		<polygon style="fill:#E6E6E6;" points="190.8,-170 170.6,-148.9 170.6,-148.2 191.5,-170 		"/>
	</g>
	<g>
		<polygon style="fill:#E6E6E6;" points="194.8,-170 170.6,-144.7 170.6,-144 195.5,-170 		"/>
	</g>
	<g>
		<polygon style="fill:#E6E6E6;" points="198.8,-170 170.6,-140.5 170.6,-139.8 199.5,-170 		"/>
	</g>
	<g>
		<polygon style="fill:#E6E6E6;" points="202.8,-170 170.6,-136.3 170.6,-135.6 203.5,-170 		"/>
	</g>
	<g>
		<polygon style="fill:#E6E6E6;" points="206.9,-170 170.6,-132.1 170.6,-131.4 207.5,-170 		"/>
	</g>
	<g>
		<polygon style="fill:#E6E6E6;" points="210.9,-170 170.6,-128 170.6,-127.2 211.5,-170 		"/>
	</g>
	<g>
		<polygon style="fill:#E6E6E6;" points="214.9,-170 170.6,-123.8 170.6,-123.1 215.6,-170 		"/>
	</g>
	<g>
		<polygon style="fill:#E6E6E6;" points="218.9,-170 170.6,-119.6 170.6,-118.9 219.6,-170 		"/>
	</g>
	<g>
		<polygon style="fill:#E6E6E6;" points="222.9,-170 170.6,-115.4 170.6,-114.7 223.6,-170 		"/>
	</g>
	<g>
		<polygon style="fill:#E6E6E6;" points="226.9,-170 170.6,-111.2 170.6,-110.5 227.6,-170 		"/>
	</g>
	<g>
		<polygon style="fill:#E6E6E6;" points="231,-170 170.6,-107 170.6,-106.3 231.6,-170 		"/>
	</g>
	<g>
		<polygon style="fill:#E6E6E6;" points="235,-170 170.6,-102.8 170.6,-102.1 235.6,-170 		"/>
	</g>
	<g>
		<polygon style="fill:#E6E6E6;" points="239,-170 170.6,-98.6 170.6,-97.9 239.7,-170 		"/>
	</g>
	<g>
		<polygon style="fill:#E6E6E6;" points="243,-170 170.6,-94.4 170.6,-93.7 243.7,-170 		"/>
	</g>
	<g>
		<polygon style="fill:#E6E6E6;" points="247,-170 170.6,-90.2 170.6,-89.5 247.7,-170 		"/>
	</g>
	<g>
		<polygon style="fill:#E6E6E6;" points="251,-170 170.6,-86 170.6,-85.3 251.7,-170 		"/>
	</g>
	<g>
		<polygon style="fill:#E6E6E6;" points="255.1,-170 170.6,-81.9 170.6,-81.2 255.7,-170 		"/>
	</g>
	<g>
		<polygon style="fill:#E6E6E6;" points="259.1,-170 170.6,-77.7 170.6,-77 259.7,-170 		"/>
	</g>
	<g>
		<polygon style="fill:#E6E6E6;" points="263.1,-170 170.6,-73.5 170.6,-72.8 263.8,-170 		"/>
	</g>
	<g>
		<polygon style="fill:#E6E6E6;" points="267.1,-170 170.6,-69.3 170.6,-68.6 267.8,-170 		"/>
	</g>
	<g>
		<polygon style="fill:#E6E6E6;" points="271.1,-170 170.6,-65.1 170.6,-64.4 271.8,-170 		"/>
	</g>
	<g>
		<polygon style="fill:#E6E6E6;" points="275.1,-170 170.6,-60.9 170.6,-60.2 275.8,-170 		"/>
	</g>
	<g>
		<polygon style="fill:#E6E6E6;" points="279.2,-170 170.6,-56.7 170.6,-56 279.8,-170 		"/>
	</g>
	<g>
		<polygon style="fill:#E6E6E6;" points="283.2,-170 170.6,-52.5 170.6,-51.8 283.8,-170 		"/>
	</g>
	<g>
		<polygon style="fill:#E6E6E6;" points="287.2,-170 170.6,-48.3 170.6,-47.6 287.9,-170 		"/>
	</g>
	<g>
		<polygon style="fill:#E6E6E6;" points="291.2,-170 170.6,-44.1 170.6,-43.4 291.9,-170 		"/>
	</g>
	<g>
		<polygon style="fill:#E6E6E6;" points="295.2,-170 170.6,-40 170.6,-39.3 295.9,-170 		"/>
	</g>
	<g>
		<polygon style="fill:#E6E6E6;" points="299.2,-170 170.6,-35.8 170.6,-35.1 299.9,-170 		"/>
	</g>
	<g>
		<polygon style="fill:#E6E6E6;" points="303.2,-170 170.6,-31.6 170.6,-30.9 303.9,-170 		"/>
	</g>
	<g>
		<polygon style="fill:#E6E6E6;" points="307.3,-170 170.6,-27.4 170.6,-26.7 307.9,-170 		"/>
	</g>
	<g>
		<polygon style="fill:#E6E6E6;" points="311.3,-170 170.6,-23.2 170.6,-22.5 312,-170 		"/>
	</g>
	<g>
		<polygon style="fill:#E6E6E6;" points="315.3,-170 170.6,-19 170.6,-18.3 316,-170 		"/>
	</g>
	<g>
		<polygon style="fill:#E6E6E6;" points="319.3,-170 170.6,-14.8 170.6,-14.1 320,-170 		"/>
	</g>
	<g>
		<polygon style="fill:#E6E6E6;" points="323.3,-170 170.6,-10.6 170.6,-9.9 324,-170 		"/>
	</g>
	<g>
		<polygon style="fill:#E6E6E6;" points="327.3,-170 170.6,-6.4 170.6,-5.7 328,-170 		"/>
	</g>
	<g>
		<polygon style="fill:#E6E6E6;" points="331.4,-170 170.6,-2.2 170.6,-1.5 332,-170 		"/>
	</g>
	<g>
		<polygon style="fill:#E6E6E6;" points="335.4,-170 170.6,2 170.6,2.7 336,-170 		"/>
	</g>
	<g>
		<polygon style="fill:#E6E6E6;" points="339.4,-170 170.6,6.1 170.6,6.8 340.1,-170 		"/>
	</g>
	<g>
		<polygon style="fill:#E6E6E6;" points="343.4,-170 170.6,10.3 170.6,11 344.1,-170 		"/>
	</g>
	<g>
		<polygon style="fill:#E6E6E6;" points="347.4,-170 170.6,14.5 170.6,15.2 348.1,-170 		"/>
	</g>
	<g>
		<polygon style="fill:#E6E6E6;" points="351.4,-170 170.6,18.7 170.6,19.4 352.1,-170 		"/>
	</g>
	<g>
		<polygon style="fill:#E6E6E6;" points="355.5,-170 170.6,22.9 170.6,23.6 356.1,-170 		"/>
	</g>
	<g>
		<polygon style="fill:#E6E6E6;" points="359.5,-170 170.6,27.1 170.6,27.8 360.1,-170 		"/>
	</g>
	<g>
		<polygon style="fill:#E6E6E6;" points="363.5,-170 170.6,31.3 170.6,32 364.2,-170 		"/>
	</g>
	<g>
		<polygon style="fill:#E6E6E6;" points="367.5,-170 170.6,35.5 170.6,36.2 368.2,-170 		"/>
	</g>
	<g>
		<polygon style="fill:#E6E6E6;" points="371.5,-170 170.6,39.7 170.6,40.4 372.2,-170 		"/>
	</g>
	<g>
		<polygon style="fill:#E6E6E6;" points="375.5,-170 170.6,43.9 170.6,44.6 376.2,-170 		"/>
	</g>
	<g>
		<polygon style="fill:#E6E6E6;" points="379.6,-170 170.6,48 170.6,48.7 380.2,-170 		"/>
	</g>
	<g>
		<polygon style="fill:#E6E6E6;" points="383.6,-170 170.6,52.2 170.6,52.9 384.2,-170 		"/>
	</g>
	<g>
		<polygon style="fill:#E6E6E6;" points="387.6,-170 170.6,56.4 170.6,57.1 388.3,-170 		"/>
	</g>
	<g>
		<polygon style="fill:#E6E6E6;" points="391.6,-170 170.6,60.6 170.6,61.3 392.3,-170 		"/>
	</g>
	<g>
		<polygon style="fill:#E6E6E6;" points="395.6,-170 170.6,64.8 170.6,65.5 396.3,-170 		"/>
	</g>
	<g>
		<polygon style="fill:#E6E6E6;" points="399.6,-170 170.6,69 170.6,69.7 400.3,-170 		"/>
	</g>
	<g>
		<polygon style="fill:#E6E6E6;" points="403.7,-170 170.6,73.2 170.6,73.9 404.3,-170 		"/>
	</g>
	<g>
		<polygon style="fill:#E6E6E6;" points="407.7,-170 170.6,77.4 170.6,78.1 408.3,-170 		"/>
	</g>
	<g>
		<polygon style="fill:#E6E6E6;" points="411.7,-170 170.6,81.6 170.6,82.3 412.4,-170 		"/>
	</g>
	<g>
		<polygon style="fill:#E6E6E6;" points="415.7,-170 170.6,85.8 170.6,86.5 416.4,-170 		"/>
	</g>
	<g>
		<polygon style="fill:#E6E6E6;" points="419.7,-170 170.6,89.9 170.6,90.7 420.4,-170 		"/>
	</g>
	<g>
		<polygon style="fill:#E6E6E6;" points="423.7,-170 170.6,94.1 170.6,94.8 424.4,-170 		"/>
	</g>
	<g>
		<polygon style="fill:#E6E6E6;" points="427.7,-170 170.6,98.3 170.6,99 428.4,-170 		"/>
	</g>
	<g>
		<polygon style="fill:#E6E6E6;" points="431.8,-170 170.6,102.5 170.6,103.2 432.4,-170 		"/>
	</g>
	<g>
		<polygon style="fill:#E6E6E6;" points="435.8,-170 170.6,106.7 170.6,107.4 436.5,-170 		"/>
	</g>
	<g>
		<polygon style="fill:#E6E6E6;" points="439.8,-170 170.6,110.9 170.6,111.6 440.5,-170 		"/>
	</g>
	<g>
		<polygon style="fill:#E6E6E6;" points="443.8,-170 170.6,115.1 170.6,115.8 444.5,-170 		"/>
	</g>
	<g>
		<polygon style="fill:#E6E6E6;" points="447.8,-170 170.6,119.3 170.6,120 448.5,-170 		"/>
	</g>
	<g>
		<polygon style="fill:#E6E6E6;" points="451.8,-170 170.6,123.5 170.6,124.2 452.5,-170 		"/>
	</g>
	<g>
		<polygon style="fill:#E6E6E6;" points="455.9,-170 170.6,127.7 170.6,128.4 456.5,-170 		"/>
	</g>
	<g>
		<polygon style="fill:#E6E6E6;" points="459.9,-170 170.6,131.9 170.6,132.6 460.6,-170 		"/>
	</g>
	<g>
		<polygon style="fill:#E6E6E6;" points="463.9,-170 170.6,136 170.6,136.7 464.6,-170 		"/>
	</g>
	<g>
		<polygon style="fill:#E6E6E6;" points="467.9,-170 170.6,140.2 170.6,140.9 468.6,-170 		"/>
	</g>
	<g>
		<polygon style="fill:#E6E6E6;" points="471.9,-170 170.6,144.4 170.6,145.1 472.6,-170 		"/>
	</g>
	<g>
		<polygon style="fill:#E6E6E6;" points="475.9,-170 170.6,148.6 170.6,149.3 476.6,-170 		"/>
	</g>
	<g>
		<polygon style="fill:#E6E6E6;" points="480,-170 170.6,152.8 170.6,153.5 480.6,-170 		"/>
	</g>
	<g>
		<polygon style="fill:#E6E6E6;" points="484,-170 170.6,157 170.6,157.7 484.6,-170 		"/>
	</g>
	<g>
		<polygon style="fill:#E6E6E6;" points="488,-170 170.6,161.2 170.6,161.9 488.7,-170 		"/>
	</g>
	<g>
		<polygon style="fill:#E6E6E6;" points="492,-170 170.6,165.4 170.6,166.1 492.7,-170 		"/>
	</g>
	<g>
		<polygon style="fill:#E6E6E6;" points="496,-170 170.6,169.6 170.6,170.3 496.7,-170 		"/>
	</g>
	<g>
		<polygon style="fill:#E6E6E6;" points="500,-170 170.6,173.8 170.6,174.5 500.7,-170 		"/>
	</g>
	<g>
		<polygon style="fill:#E6E6E6;" points="504.1,-170 170.6,177.9 170.6,178.6 504.7,-170 		"/>
	</g>
	<g>
		<polygon style="fill:#E6E6E6;" points="508.1,-170 170.6,182.1 170.6,182.8 508.7,-170 		"/>
	</g>
	<g>
		<polygon style="fill:#E6E6E6;" points="512.1,-170 170.6,186.3 170.6,187 512.8,-170 		"/>
	</g>
	<g>
		<polygon style="fill:#E6E6E6;" points="516.1,-170 170.6,190.5 170.6,191.2 516.8,-170 		"/>
	</g>
	<g>
		<polygon style="fill:#E6E6E6;" points="520.1,-170 170.6,194.7 170.6,195.4 520.8,-170 		"/>
	</g>
	<g>
		<polygon style="fill:#E6E6E6;" points="524.1,-170 170.6,198.9 170.6,199.6 524.8,-170 		"/>
	</g>
	<g>
		<polygon style="fill:#E6E6E6;" points="528.2,-170 170.6,203.1 170.6,203.8 528.8,-170 		"/>
	</g>
	<g>
		<polygon style="fill:#E6E6E6;" points="532.2,-170 170.6,207.3 170.6,208 532.8,-170 		"/>
	</g>
	<g>
		<polygon style="fill:#E6E6E6;" points="173.3,209.4 536.9,-170 536.2,-170 172.6,209.4 		"/>
	</g>
	<g>
		<polygon style="fill:#E6E6E6;" points="177.3,209.4 540.9,-170 540.2,-170 176.6,209.4 		"/>
	</g>
	<g>
		<polygon style="fill:#E6E6E6;" points="181.3,209.4 544.9,-170 544.2,-170 180.6,209.4 		"/>
	</g>
	<g>
		<polygon style="fill:#E6E6E6;" points="185.3,209.4 548.9,-170 548.2,-170 184.6,209.4 		"/>
	</g>
	<g>
		<polygon style="fill:#E6E6E6;" points="189.3,209.4 549.8,-166.8 549.8,-167.5 188.7,209.4 		"/>
	</g>
	<g>
		<polygon style="fill:#E6E6E6;" points="193.4,209.4 549.8,-162.6 549.8,-163.3 192.7,209.4 		"/>
	</g>
	<g>
		<polygon style="fill:#E6E6E6;" points="197.4,209.4 549.8,-158.4 549.8,-159.1 196.7,209.4 		"/>
	</g>
	<g>
		<polygon style="fill:#E6E6E6;" points="201.4,209.4 549.8,-154.2 549.8,-154.9 200.7,209.4 		"/>
	</g>
	<g>
		<polygon style="fill:#E6E6E6;" points="205.4,209.4 549.8,-150 549.8,-150.7 204.7,209.4 		"/>
	</g>
	<g>
		<polygon style="fill:#E6E6E6;" points="209.4,209.4 549.8,-145.8 549.8,-146.5 208.7,209.4 		"/>
	</g>
	<g>
		<polygon style="fill:#E6E6E6;" points="213.4,209.4 549.8,-141.6 549.8,-142.4 212.8,209.4 		"/>
	</g>
	<g>
		<polygon style="fill:#E6E6E6;" points="217.4,209.4 549.8,-137.5 549.8,-138.2 216.8,209.4 		"/>
	</g>
	<g>
		<polygon style="fill:#E6E6E6;" points="221.5,209.4 549.8,-133.3 549.8,-134 220.8,209.4 		"/>
	</g>
	<g>
		<polygon style="fill:#E6E6E6;" points="225.5,209.4 549.8,-129.1 549.8,-129.8 224.8,209.4 		"/>
	</g>
	<g>
		<polygon style="fill:#E6E6E6;" points="229.5,209.4 549.8,-124.9 549.8,-125.6 228.8,209.4 		"/>
	</g>
	<g>
		<polygon style="fill:#E6E6E6;" points="233.5,209.4 549.8,-120.7 549.8,-121.4 232.8,209.4 		"/>
	</g>
	<g>
		<polygon style="fill:#E6E6E6;" points="237.5,209.4 549.8,-116.5 549.8,-117.2 236.9,209.4 		"/>
	</g>
	<g>
		<polygon style="fill:#E6E6E6;" points="241.5,209.4 549.8,-112.3 549.8,-113 240.9,209.4 		"/>
	</g>
	<g>
		<polygon style="fill:#E6E6E6;" points="245.6,209.4 549.8,-108.1 549.8,-108.8 244.9,209.4 		"/>
	</g>
	<g>
		<polygon style="fill:#E6E6E6;" points="249.6,209.4 549.8,-103.9 549.8,-104.6 248.9,209.4 		"/>
	</g>
	<g>
		<polygon style="fill:#E6E6E6;" points="253.6,209.4 549.8,-99.7 549.8,-100.4 252.9,209.4 		"/>
	</g>
	<g>
		<polygon style="fill:#E6E6E6;" points="257.6,209.4 549.8,-95.6 549.8,-96.3 256.9,209.4 		"/>
	</g>
	<g>
		<polygon style="fill:#E6E6E6;" points="261.6,209.4 549.8,-91.4 549.8,-92.1 261,209.4 		"/>
	</g>
	<g>
		<polygon style="fill:#E6E6E6;" points="265.6,209.4 549.8,-87.2 549.8,-87.9 265,209.4 		"/>
	</g>
	<g>
		<polygon style="fill:#E6E6E6;" points="269.7,209.4 549.8,-83 549.8,-83.7 269,209.4 		"/>
	</g>
	<g>
		<polygon style="fill:#E6E6E6;" points="273.7,209.4 549.8,-78.8 549.8,-79.5 273,209.4 		"/>
	</g>
	<g>
		<polygon style="fill:#E6E6E6;" points="277.7,209.4 549.8,-74.6 549.8,-75.3 277,209.4 		"/>
	</g>
	<g>
		<polygon style="fill:#E6E6E6;" points="281.7,209.4 549.8,-70.4 549.8,-71.1 281,209.4 		"/>
	</g>
	<g>
		<polygon style="fill:#E6E6E6;" points="285.7,209.4 549.8,-66.2 549.8,-66.9 285.1,209.4 		"/>
	</g>
	<g>
		<polygon style="fill:#E6E6E6;" points="289.7,209.4 549.8,-62 549.8,-62.7 289.1,209.4 		"/>
	</g>
	<g>
		<polygon style="fill:#E6E6E6;" points="293.8,209.4 549.8,-57.8 549.8,-58.5 293.1,209.4 		"/>
	</g>
	<g>
		<polygon style="fill:#E6E6E6;" points="297.8,209.4 549.8,-53.6 549.8,-54.4 297.1,209.4 		"/>
	</g>
	<g>
		<polygon style="fill:#E6E6E6;" points="301.8,209.4 549.8,-49.5 549.8,-50.2 301.1,209.4 		"/>
	</g>
	<g>
		<polygon style="fill:#E6E6E6;" points="305.8,209.4 549.8,-45.3 549.8,-46 305.1,209.4 		"/>
	</g>
	<g>
		<polygon style="fill:#E6E6E6;" points="309.8,209.4 549.8,-41.1 549.8,-41.8 309.1,209.4 		"/>
	</g>
	<g>
		<polygon style="fill:#E6E6E6;" points="313.8,209.4 549.8,-36.9 549.8,-37.6 313.2,209.4 		"/>
	</g>
	<g>
		<polygon style="fill:#E6E6E6;" points="317.9,209.4 549.8,-32.7 549.8,-33.4 317.2,209.4 		"/>
	</g>
	<g>
		<polygon style="fill:#E6E6E6;" points="321.9,209.4 549.8,-28.5 549.8,-29.2 321.2,209.4 		"/>
	</g>
	<g>
		<polygon style="fill:#E6E6E6;" points="325.9,209.4 549.8,-24.3 549.8,-25 325.2,209.4 		"/>
	</g>
	<g>
		<polygon style="fill:#E6E6E6;" points="329.9,209.4 549.8,-20.1 549.8,-20.8 329.2,209.4 		"/>
	</g>
	<g>
		<polygon style="fill:#E6E6E6;" points="333.9,209.4 549.8,-15.9 549.8,-16.6 333.2,209.4 		"/>
	</g>
	<g>
		<polygon style="fill:#E6E6E6;" points="337.9,209.4 549.8,-11.7 549.8,-12.4 337.3,209.4 		"/>
	</g>
	<g>
		<polygon style="fill:#E6E6E6;" points="341.9,209.4 549.8,-7.6 549.8,-8.3 341.3,209.4 		"/>
	</g>
	<g>
		<polygon style="fill:#E6E6E6;" points="346,209.4 549.8,-3.4 549.8,-4.1 345.3,209.4 		"/>
	</g>
	<g>
		<polygon style="fill:#E6E6E6;" points="350,209.4 549.8,0.8 549.8,0.1 349.3,209.4 		"/>
	</g>
	<g>
		<polygon style="fill:#E6E6E6;" points="354,209.4 549.8,5 549.8,4.3 353.3,209.4 		"/>
	</g>
	<g>
		<polygon style="fill:#E6E6E6;" points="358,209.4 549.8,9.2 549.8,8.5 357.3,209.4 		"/>
	</g>
	<g>
		<polygon style="fill:#E6E6E6;" points="362,209.4 549.8,13.4 549.8,12.7 361.4,209.4 		"/>
	</g>
	<g>
		<polygon style="fill:#E6E6E6;" points="366,209.4 549.8,17.6 549.8,16.9 365.4,209.4 		"/>
	</g>
	<g>
		<polygon style="fill:#E6E6E6;" points="370.1,209.4 549.8,21.8 549.8,21.1 369.4,209.4 		"/>
	</g>
	<g>
		<polygon style="fill:#E6E6E6;" points="374.1,209.4 549.8,26 549.8,25.3 373.4,209.4 		"/>
	</g>
	<g>
		<polygon style="fill:#E6E6E6;" points="378.1,209.4 549.8,30.2 549.8,29.5 377.4,209.4 		"/>
	</g>
	<g>
		<polygon style="fill:#E6E6E6;" points="382.1,209.4 549.8,34.3 549.8,33.6 381.4,209.4 		"/>
	</g>
	<g>
		<polygon style="fill:#E6E6E6;" points="386.1,209.4 549.8,38.5 549.8,37.8 385.5,209.4 		"/>
	</g>
	<g>
		<polygon style="fill:#E6E6E6;" points="390.1,209.4 549.8,42.7 549.8,42 389.5,209.4 		"/>
	</g>
	<g>
		<polygon style="fill:#E6E6E6;" points="394.2,209.4 549.8,46.9 549.8,46.2 393.5,209.4 		"/>
	</g>
	<g>
		<polygon style="fill:#E6E6E6;" points="398.2,209.4 549.8,51.1 549.8,50.4 397.5,209.4 		"/>
	</g>
	<g>
		<polygon style="fill:#E6E6E6;" points="402.2,209.4 549.8,55.3 549.8,54.6 401.5,209.4 		"/>
	</g>
	<g>
		<polygon style="fill:#E6E6E6;" points="406.2,209.4 549.8,59.5 549.8,58.8 405.5,209.4 		"/>
	</g>
	<g>
		<polygon style="fill:#E6E6E6;" points="410.2,209.4 549.8,63.7 549.8,63 409.6,209.4 		"/>
	</g>
	<g>
		<polygon style="fill:#E6E6E6;" points="414.2,209.4 549.8,67.9 549.8,67.2 413.6,209.4 		"/>
	</g>
	<g>
		<polygon style="fill:#E6E6E6;" points="418.3,209.4 549.8,72.1 549.8,71.4 417.6,209.4 		"/>
	</g>
	<g>
		<polygon style="fill:#E6E6E6;" points="422.3,209.4 549.8,76.3 549.8,75.5 421.6,209.4 		"/>
	</g>
	<g>
		<polygon style="fill:#E6E6E6;" points="426.3,209.4 549.8,80.4 549.8,79.7 425.6,209.4 		"/>
	</g>
	<g>
		<polygon style="fill:#E6E6E6;" points="430.3,209.4 549.8,84.6 549.8,83.9 429.6,209.4 		"/>
	</g>
	<g>
		<polygon style="fill:#E6E6E6;" points="434.3,209.4 549.8,88.8 549.8,88.1 433.6,209.4 		"/>
	</g>
	<g>
		<polygon style="fill:#E6E6E6;" points="438.3,209.4 549.8,93 549.8,92.3 437.7,209.4 		"/>
	</g>
	<g>
		<polygon style="fill:#E6E6E6;" points="442.4,209.4 549.8,97.2 549.8,96.5 441.7,209.4 		"/>
	</g>
	<g>
		<polygon style="fill:#E6E6E6;" points="446.4,209.4 549.8,101.4 549.8,100.7 445.7,209.4 		"/>
	</g>
	<g>
		<polygon style="fill:#E6E6E6;" points="450.4,209.4 549.8,105.6 549.8,104.9 449.7,209.4 		"/>
	</g>
	<g>
		<polygon style="fill:#E6E6E6;" points="454.4,209.4 549.8,109.8 549.8,109.1 453.7,209.4 		"/>
	</g>
	<g>
		<polygon style="fill:#E6E6E6;" points="458.4,209.4 549.8,114 549.8,113.3 457.7,209.4 		"/>
	</g>
	<g>
		<polygon style="fill:#E6E6E6;" points="462.4,209.4 549.8,118.2 549.8,117.5 461.8,209.4 		"/>
	</g>
	<g>
		<polygon style="fill:#E6E6E6;" points="466.4,209.4 549.8,122.3 549.8,121.6 465.8,209.4 		"/>
	</g>
	<g>
		<polygon style="fill:#E6E6E6;" points="470.5,209.4 549.8,126.5 549.8,125.8 469.8,209.4 		"/>
	</g>
	<g>
		<polygon style="fill:#E6E6E6;" points="474.5,209.4 549.8,130.7 549.8,130 473.8,209.4 		"/>
	</g>
	<g>
		<polygon style="fill:#E6E6E6;" points="478.5,209.4 549.8,134.9 549.8,134.2 477.8,209.4 		"/>
	</g>
	<g>
		<polygon style="fill:#E6E6E6;" points="482.5,209.4 549.8,139.1 549.8,138.4 481.8,209.4 		"/>
	</g>
	<g>
		<polygon style="fill:#E6E6E6;" points="486.5,209.4 549.8,143.3 549.8,142.6 485.9,209.4 		"/>
	</g>
	<g>
		<polygon style="fill:#E6E6E6;" points="490.5,209.4 549.8,147.5 549.8,146.8 489.9,209.4 		"/>
	</g>
	<g>
		<polygon style="fill:#E6E6E6;" points="494.6,209.4 549.8,151.7 549.8,151 493.9,209.4 		"/>
	</g>
	<g>
		<polygon style="fill:#E6E6E6;" points="498.6,209.4 549.8,155.9 549.8,155.2 497.9,209.4 		"/>
	</g>
	<g>
		<polygon style="fill:#E6E6E6;" points="502.6,209.4 549.8,160.1 549.8,159.4 501.9,209.4 		"/>
	</g>
	<g>
		<polygon style="fill:#E6E6E6;" points="506.6,209.4 549.8,164.2 549.8,163.5 505.9,209.4 		"/>
	</g>
	<g>
		<polygon style="fill:#E6E6E6;" points="510.6,209.4 549.8,168.4 549.8,167.7 510,209.4 		"/>
	</g>
	<g>
		<polygon style="fill:#E6E6E6;" points="514.6,209.4 549.8,172.6 549.8,171.9 514,209.4 		"/>
	</g>
	<g>
		<polygon style="fill:#E6E6E6;" points="518.7,209.4 549.8,176.8 549.8,176.1 518,209.4 		"/>
	</g>
	<g>
		<polygon style="fill:#E6E6E6;" points="522.7,209.4 549.8,181 549.8,180.3 522,209.4 		"/>
	</g>
	<g>
		<polygon style="fill:#E6E6E6;" points="526.7,209.4 549.8,185.2 549.8,184.5 526,209.4 		"/>
	</g>
	<g>
		<polygon style="fill:#E6E6E6;" points="530.7,209.4 549.8,189.4 549.8,188.7 530,209.4 		"/>
	</g>
	<g>
		<polygon style="fill:#E6E6E6;" points="534.7,209.4 549.8,193.6 549.8,192.9 534.1,209.4 		"/>
	</g>
	<g>
		<polygon style="fill:#E6E6E6;" points="538.7,209.4 549.8,197.8 549.8,197.1 538.1,209.4 		"/>
	</g>
	<g>
		<polygon style="fill:#E6E6E6;" points="542.8,209.4 549.8,202 549.8,201.3 542.1,209.4 		"/>
	</g>
	<g>
		<polygon style="fill:#E6E6E6;" points="546.8,209.4 549.8,206.2 549.8,205.5 546.1,209.4 		"/>
	</g>
</g>
<rect x="170.1" y="-170.2" style="fill:none;" width="379.9" height="380.2"/>
<g>
	<g>
		<path style="fill:#334D5C;" d="M381-47.7c2.1-1.7,5.8-1.5,6.5,1.5c0.8,3.7-3.8,7.4-5.6,10.2c-1.6,2.5-3.2,5.8-2.4,8.9
			c1.9,7.3,9.5,3.8,13.2,0.5c2-1.8,0.4-3.4-1.6-1.6c-5.5,4.9-9.9-0.9-7.4-6.3c2-4.2,6.3-7,7.1-11.8c1.3-7.1-6.5-7.3-10.6-3.9
			C378.8-48.7,378.7-45.7,381-47.7L381-47.7z"/>
		<path style="fill:#334D5C;" d="M287.9-47.7c0.1,8.7,0.4,17.5-0.4,26.2c-0.2,2,3.3-0.7,3.6-1.9c1-5.8,2.6-8.5,6.2-12.6
			c3.2-3.6,4.8-8.1,6.1-12.8c0.7-2.5-2.9-0.1-3.4,1.1c-2.4,6.3-2.7,13.9-2.2,20.6c0.1,1.5,0.1,4.4,1.4,5.5c2,1.7,5.3-0.7,6.8-1.9
			c1.6-1.3,1.7-4.3-0.7-2.4c-5.1,4.2-4.2-6.8-4.1-9.4c0.2-4.5,0.5-9.2,2.1-13.4c-1.1,0.4-2.3,0.8-3.4,1.1c-1.6,5.9-3.9,9.1-7.7,13.5
			c-3.1,3.6-4.1,8-4.8,12.6c1.2-0.6,2.4-1.3,3.6-1.9c0.8-8.7,0.5-17.5,0.4-26.2C291.4-51.7,287.9-49.1,287.9-47.7L287.9-47.7z"/>
		<path style="fill:#334D5C;" d="M276.7-44.5c-0.9-4.7-4.6-7.8-9-4.4c-3.7,2.9-4.9,8.3-5.3,12.7c-0.4,4.2-0.5,10.7,2.9,13.9
			c3.8,3.6,9.6-0.5,11.7-4.1c1.5-2.5-2.2-1.2-3,0.2c-1.2,2-4,2-5.5,0.7c-0.8-0.7-1.2-1.7-1.6-2.7c-1-2.7-1.1-5.7-1-8.5
			c0.1-2.7,0.4-6,1.8-8.3c2.3-4.1,5,0.2,5.6,3.2C273.5-40.3,277-42.9,276.7-44.5L276.7-44.5z"/>
		<path style="fill:#334D5C;" d="M324.4-33.5c2-2.3,3.2,6.6,1.9,7.6c-2,1.6-2.5-3.1-2.6-4.1c-0.8-4.3-0.7-8.9-0.1-13.2
			c0.1-0.9,0.5-6.7,2.4-5.5c0.7,0.4-0.4,4.9-0.4,5.1c-1,4.3-2.9,8.3-5,12.1c-1.4,2.5,2.2,1.2,3-0.2c1.7-3,10.8-20.1,3.9-21.6
			c-7.7-1.6-8,16.9-7.8,20.4c0.1,2.8-0.1,9.7,3.1,11.2c2.5,1.1,5.3-1.7,6.3-3.6c1.4-2.6,2.6-8.9,0.1-11.2c-2.5-2.4-5.5,0.6-7.1,2.5
			C320.1-31.9,323.1-31.9,324.4-33.5L324.4-33.5z"/>
		<path style="fill:#334D5C;" d="M351-26.3c0.2,2.2,1.1,5.3,4,4.5c1.8-0.5,3.2-2.6,3.9-4.2c1-2.4,1.3-5.1,1.7-7.6
			c0.3-2,0.2-5,1.3-6.8c-1.1,0.2-2.1,0.5-3.2,0.7c-1.8,5.2,0.6,11.9,1,17.2c0.2,2.1,3.5-0.6,3.6-1.9c0.2-4.9,1.7-10.8,3.7-15.3
			c-1.1,0.2-2.1,0.5-3.2,0.7c-0.9,3.2-2.1,20.7,5,16.7c1.4-0.8,2.8-4.4,0.2-3c-1.5,0.9-2.3-6-2.3-6.6c-0.2-2.6-0.3-5.7,0.5-8.3
			c0.7-2.4-2.7-0.4-3.2,0.7c-2.3,5-4.1,11.5-4.3,17c1.2-0.6,2.4-1.3,3.6-1.9c-0.2-2.8-0.6-5.5-1-8.3c-0.4-2.6-1.1-5.6-0.2-8.1
			c0.9-2.5-2.7-0.1-3.2,0.7c-1.5,2.4-1.5,5.8-1.9,8.5c-0.3,1.9-1,3.9-1.1,5.7c-0.1,0.4-0.3,0.7-0.4,1.1c0.9-0.3,0.9-0.6-0.1-0.9
			c-0.4-1.1-0.7-1.9-0.9-3.2C354.3-30.4,350.8-27.9,351-26.3L351-26.3z"/>
		<path style="fill:#334D5C;" d="M432.2-27.6c0.2,2.2,1.1,5.3,4,4.5c1.8-0.5,3.2-2.6,3.9-4.2c1-2.4,1.3-5.1,1.7-7.6
			c0.3-2,0.2-5,1.3-6.8c-1.1,0.2-2.1,0.5-3.2,0.7c-1.8,5.2,0.6,11.9,1,17.2c0.2,2.1,3.5-0.6,3.6-1.9c0.2-4.9,1.7-10.8,3.7-15.3
			c-1.1,0.2-2.1,0.5-3.2,0.7c-0.9,3.2-2.1,20.7,5,16.7c1.4-0.8,2.8-4.4,0.2-3c-1.5,0.9-2.3-6-2.3-6.6c-0.2-2.6-0.3-5.7,0.5-8.3
			c0.7-2.4-2.7-0.4-3.2,0.7c-2.3,5-4.1,11.5-4.3,17c1.2-0.6,2.4-1.3,3.6-1.9c-0.2-2.8-0.6-5.5-1-8.3c-0.4-2.6-1.1-5.6-0.2-8.1
			c0.9-2.5-2.7-0.1-3.2,0.7c-1.5,2.4-1.5,5.8-1.9,8.5c-0.3,1.9-1,3.9-1.1,5.7c-0.1,0.4-0.3,0.7-0.4,1.1c0.9-0.3,0.9-0.6-0.1-0.9
			c-0.4-1.1-0.7-1.9-0.9-3.2C435.5-31.7,432-29.1,432.2-27.6L432.2-27.6z"/>
		<path style="fill:#334D5C;" d="M312.9-41.2c-4.5,0.4-6.1,6.2-6.4,9.9c-0.2,3.1-0.1,10.2,4.3,10.5c4.5,0.2,6.3-5.8,6.6-9.3
			c0.3-3,0.1-10.7-4.2-11.1c-1.5-0.1-4.1,3.4-2.6,3.5c2.4,0.2,2.9,3.6,3.2,5.5c0.2,1.5,0.2,3.1,0,4.6c-0.1,0.8-0.4,1.6-0.5,2.4
			c-0.1,0.9-0.4,0.8-0.2,0.8c-2.4,0.1-2.9-4.3-3-5.9c-0.1-1.5-0.1-3,0.2-4.5c0.1-0.7,0.3-1.4,0.5-2.1c0.2-0.8,0.7-0.8,0.2-0.8
			C312.4-37.7,314.9-41.3,312.9-41.2z"/>
		<path style="fill:#334D5C;" d="M399.1-43.1c-4.5,0.4-6.1,6.2-6.4,9.9c-0.2,3.1-0.1,10.2,4.3,10.5c4.5,0.2,6.3-5.8,6.6-9.3
			c0.3-3,0.1-10.7-4.2-11.1c-1.5-0.1-4.1,3.4-2.6,3.5c2.4,0.2,2.9,3.6,3.2,5.5c0.2,1.5,0.2,3.1,0,4.6c-0.1,0.8-0.4,1.6-0.5,2.4
			c-0.1,0.9-0.4,0.8-0.2,0.8c-2.4,0.1-2.9-4.3-3-5.9c-0.1-1.5-0.1-3,0.2-4.5c0.1-0.7,0.3-1.4,0.5-2.1c0.2-0.8,0.7-0.8,0.2-0.8
			C398.5-39.7,401.1-43.3,399.1-43.1z"/>
		<path style="fill:#334D5C;" d="M426.2-43.2c-4.5,0.4-6.1,6.2-6.4,9.9c-0.2,3.1-0.1,10.2,4.3,10.5c4.5,0.2,6.3-5.8,6.6-9.3
			c0.3-3,0.1-10.7-4.2-11.1c-1.5-0.1-4.1,3.4-2.6,3.5c2.4,0.2,2.9,3.6,3.2,5.5c0.2,1.5,0.2,3.1,0,4.6c-0.1,0.8-0.4,1.6-0.5,2.4
			c-0.1,0.9-0.4,0.8-0.2,0.8c-2.4,0.1-2.9-4.3-3-5.9c-0.1-1.5-0.1-3,0.2-4.5c0.1-0.7,0.3-1.4,0.5-2.1c0.2-0.8,0.7-0.8,0.2-0.8
			C425.6-39.8,428.1-43.4,426.2-43.2z"/>
		<g>
			<path style="fill:#334D5C;" d="M412.2-43.2c-4.5,0.4-6.1,6.2-6.4,9.9c-0.2,3.1-0.1,10.2,4.3,10.5c4.5,0.2,6.3-5.8,6.6-9.3
				c0.3-3,0.1-10.7-4.2-11.1c-1.5-0.1-4.1,3.4-2.6,3.5c2.4,0.2,2.9,3.6,3.2,5.5c0.2,1.5,0.2,3.1,0,4.6c-0.1,0.8-0.4,1.6-0.5,2.4
				c-0.1,0.9-0.4,0.8-0.2,0.8c-2.4,0.1-2.9-4.3-3-5.9c-0.1-1.5-0.1-3,0.2-4.5c0.1-0.7,0.3-1.4,0.5-2.1c0.2-0.8,0.7-0.8,0.2-0.8
				C411.6-39.8,414.1-43.4,412.2-43.2z"/>
			<path style="fill:#334D5C;" d="M413.2-40.5c0,7.2,0.4,14.4,0.3,21.6c0,1.2,0,9.2-2.3,7.8c-4.2-2.6,2.8-11.1,4.4-13
				c1.9-2.3-1-2.3-2.4-0.7c-2.6,3.1-9.1,11.1-6.1,15.8c1.2,1.9,3.3,1.8,5.2,0.7c3.7-2,4.5-6.7,4.7-10.5c0.5-7.8-0.3-15.9-0.3-23.7
				C416.7-44.5,413.2-41.9,413.2-40.5L413.2-40.5z"/>
		</g>
		<g>
			<path style="fill:#334D5C;" d="M345.8-39.6c-1.4,4.3-1.5,9.5-0.9,14c0.1,1.1,0.2,3.2,1.3,3.8c1.7,1.1,4.2-1,5.3-2.1
				c2-1.9,0.4-3.5-1.6-1.6c-1.6,1.5-1.7-5.7-1.7-6.4c0-2.9,0-6.1,1-8.9C349.9-43.1,346.2-41,345.8-39.6L345.8-39.6z"/>
			<path style="fill:#334D5C;" d="M333.4-26.9c1.7-0.7,4.9-2.1,5.7,0.5c0.6,1.9-1.6,1.1-2.4,0c-2.5-3.6-1.1-10.7-0.1-14.6
				c0.7-2.6-3.1-0.3-3.5,1.2c-1,3.8-3.7,21.2,4.9,17.9c2.5-1,5-3.9,4.7-6.7c-0.4-4.3-5.7-2.8-8.2-1.8c-0.9,0.4-2.2,1.3-2.3,2.3
				C332.1-27.3,332.3-26.4,333.4-26.9L333.4-26.9z"/>
		</g>
		<g>
			<path style="fill:#334D5C;" d="M459.7-23.4c0.5-0.8,0.8-1.8,0.9-2.7c0.1-1-1.1-0.8-1.7-0.5c-0.9,0.5-1.8,1.4-1.9,2.5
				c0,0.3,0,0.3-0.1,0.5c0,0-0.2,0.5-0.1,0.3c0.1-0.2-0.1,0.2-0.1,0.2c-0.4,0.6-0.5,1.7,0.5,1.7C458.3-21.6,459.2-22.6,459.7-23.4
				L459.7-23.4z"/>
			<path style="fill:#334D5C;" d="M459.3-50.3c1.1,7.1-0.3,14.2-1.1,21.2c-0.2,1.9,3.4-0.5,3.6-1.9c0.8-7.3,2.1-14.6,1-21.9
				C462.5-54.4,459-51.8,459.3-50.3L459.3-50.3z"/>
		</g>
		<path style="fill:#334D5C;" d="M319.8-28.9c0,0-3.8,4.5-4.5,5.4c-0.7,0.9-2.1,0.4-2.1,0.4l2.2-4.6l4.3-5.2l1.7-0.9L319.8-28.9z"/>
		<path style="fill:#334D5C;" d="M417.2-24.2c0,0,2.1-2.6,3.8-2.2s0-2.5,0-2.5l-1.2-0.9c0,0-6.8,3.3-7.9,6.7s3.8,0.2,4.1,0
			C416.3-23.4,417.2-24.2,417.2-24.2z"/>
		<path style="fill:#334D5C;" d="M400-23.7c0,0,5.6-3.3,7.3-6.7c1.7-3.5-0.6-3.5-0.6-3.5l-5.1,5.4L400-23.7z"/>
	</g>
</g>
<g id="XMLID_1_">
	<path id="XMLID_9_" style="fill:#62BA47;" d="M393.6-90.5c0,17.6-14.3,31.9-31.9,31.9s-31.9-14.3-31.9-31.9s14.3-31.9,31.9-31.9
		S393.6-108.1,393.6-90.5z"/>
	<g id="XMLID_2_">
		<path id="XMLID_23_" style="fill:#FFFFFF;" d="M353.7-95c-2.6,0.3-3.4,3.4-3.4,5.6l0,0l0,0c0,0.4,0,0.7,0,0.9c0,1-0.1,1.8-0.2,2.8
			c-0.1,0.4-0.2,1.2-0.3,1.2c-0.9,0.1-1.7-1.4-2-2c-0.7-1.7-1.1-3.3-1.4-5c-0.3-1.8-0.5-3.8-0.6-5.7c-0.1-0.8-0.1-1.5-0.1-2.3
			c0-0.3,0-0.6,0.1-0.9c0-0.2,0.1-0.5,0.1-0.5c0.2-1.4-1.7-0.1-2.1,0.5c-2.1,3.7-1.5,8.1-1.4,12.1c0,1.1-0.1,2.2-0.2,3.3
			c-0.1,0.8-0.2,2.1-0.9,2.7c-0.4,0.4-1.1,0.1-1.4-0.1c-0.5-0.3-0.8-0.8-0.9-1.4c-0.1-0.6-0.8-0.3-1.1,0.1c-0.5,0.5-0.9,1.3-0.8,1.9
			c0.2,1.4,1.5,2.7,3,2.2c2.4-0.7,3.4-3.5,4-5.7c0.3-1.1,0.4-2.1,0.5-3.3c0.4,1.6,0.8,3.1,1.5,4.6c0.5,1.1,1.5,2.1,2.8,1.9
			c1-0.2,1.7-1.2,2.2-2.5c0.5,1.1,1.2,1.8,2.4,1.7c1.3-0.1,2.4-1.5,2.9-2.6c0.6-1.3,0.8-2.7,0.7-4C357.1-91.3,356.5-95.3,353.7-95z
			 M354.6-85.8c-0.1,0.2-0.1,0.5-0.2,0.8c-0.5-0.1-0.9-0.8-1.1-1.2c-0.4-0.9-0.6-1.8-0.7-2.8c-0.1-1-0.1-2,0.1-3
			c0.1-0.2,0.1-0.5,0.2-0.8c1.4,0.9,1.6,2.5,1.7,4C354.8-87.8,354.8-86.8,354.6-85.8z"/>
		<path id="XMLID_20_" style="fill:#FFFFFF;" d="M385.5-91.2c-2.8-1.1-4.5,2.8-5,4.9c-0.5,2-1.1,5.6,1.4,6.6
			c1.2,0.5,2.6-0.4,3.3-1.2c0.9-0.9,1.4-2.2,1.8-3.5C387.5-86.5,388.1-90.3,385.5-91.2z M383.8-82.1c-0.1,0.2-0.2,0.5-0.4,0.7
			c-0.4-0.3-0.6-1.2-0.6-1.6c-0.2-1-0.1-2,0.1-3c0.2-0.9,0.5-2,0.9-2.8c0.1-0.2,0.2-0.4,0.4-0.7c1.1,1.2,0.8,3,0.5,4.5
			C384.5-84,384.2-83,383.8-82.1z"/>
		<path id="XMLID_15_" style="fill:#FFFFFF;" d="M377.7-90.8c0.5-0.7,1.1-1.5,1.5-2.2c1.1-1.6,2.1-3.5,2-5.4c-0.1-1.8-2.6-2-3.8-1.3
			c-1.8,0.9-2.9,2.8-3.4,4.7c-0.7,2.5-1.1,5-1.2,7.4c0,0,0,0,0,0.1c-0.9,1.1-2.8,3.3-4.2,2.4c-0.4-0.2-0.5-0.7-0.7-1.2
			c1.2-1.2,2.2-2.5,3.1-4c0.8-1.3,1.4-3.5-0.2-4.4c-1.4-0.8-3.1,0.1-4.1,1.2s-1.4,2.6-1.5,4c-0.1,0.8-0.2,2.1,0,3.3
			c-0.8,0.5-1.9,0.8-2.8,0.7c-1.1-0.2-1.5-1.4-1.7-2.2c-0.3-1.3-0.2-2.7,0-4c0.1-0.4,0.2-0.8,0.3-1.2c0.1-0.1,0.1-0.2,0.1-0.3
			c0.6,0.3,0.9,1.3,1.1,1.8c0.3,0.9,2.7-0.6,2.5-1.5c-0.3-0.9-0.6-1.9-1.7-2.4c-1-0.5-2.4,0.4-3,0.9c-1.7,1.7-1.9,4.3-1.8,6.6
			c0.1,1.5,0.4,3.3,1.7,4.1c1.7,1.1,4.1,0.1,5.8-0.9c0.4,1.1,1.2,1.8,2.6,1.7c1.7-0.2,3.3-1.2,4.5-2.4c0.1,1.3,0.4,2.7,1.3,3.3
			c1.5,0.9,3.4-0.1,4.4-1.4c1.3-1.7,2-4,1.3-6C379.4-90.4,378.6-90.7,377.7-90.8z M368.1-91.8c0.1-0.4,0.2-0.7,0.5-1.1l0,0
			c0.7,0.2,0.8,1.1,0.7,1.6c-0.1,1.1-0.8,2.1-1.7,3.1c0-0.2,0-0.4,0-0.5C367.6-89.8,367.8-90.8,368.1-91.8z M377.3-97.1
			c0.2-0.4,0.4-0.8,0.7-1.1c0,0,0,0,0.1-0.1c1.1,1.2,0.1,3-0.5,4.1c-0.6,1.1-1.3,2.3-2.1,3.4c0.2-1.1,0.4-2.2,0.6-3.3
			C376.4-95,376.8-96.1,377.3-97.1z M376.7-84c-0.1,0.1-0.2,0.4-0.3,0.5c-0.1,0-0.2,0-0.2-0.1c-0.7-0.4-0.8-1.9-0.8-2.5
			c-0.1-0.5-0.1-1.1-0.1-1.7c0.3-0.4,0.6-0.7,0.9-1c0.7-0.4,1.1,0.4,1.2,1.1C377.7-86.5,377.2-85,376.7-84z"/>
	</g>
</g>
<g>
	<defs>
		<rect id="SVGID_1_" x="170.1" y="-170.2" width="379.9" height="380.2"/>
	</defs>
	<clipPath id="SVGID_2_">
		<use xlink:href="#SVGID_1_"  style="overflow:visible;"/>
	</clipPath>
	<path style="clip-path:url(#SVGID_2_);fill:#828282;" d="M534.4,127.2c-3.4-5.6-8.4-10.1-11.2-16c-3-6.3-1.5-13.1,1.7-18.9
		c3-5.4,6.3-9.9,6.2-16.3c-0.1-6.2-2.4-12.1-2-18.4c0.4-7.1,2.2-13.6,1.1-20.8c-1-6.5-4.4-12.1-6.9-18.1c-5.3-12.7,2.6-25,5.8-37.1
		c1.7-6.2,2.8-12.7,3.1-19.1c0.1-3-0.2-5.9-0.7-8.8c-0.8-4.3,0-7.6,1.3-11.7c1.5-4.6,1.4-9.4-1.4-13.4c-2.4-3.3-5.9-5.4-8.6-8.4
		c-7.5-8.3-0.7-19.2,3.6-27.2c2.4-4.4,4.6-8.9,5.2-13.9c0.7-5.8-2-10.8-5.2-15.5c-0.7-1.1-1.4-2.1-2-3.2c3.1-0.6,6.2-1.8,8.3-4.1
		c2.8-3.2,2.3-8.8-0.9-11.5c-1.3-1.1-2.9-1.8-4.5-2c-0.1-0.1-6-1.2-8.6,1.2c0,0-1.8,1.3,0.3,7.9c0.5,2.6,1.4,5,2.5,7.2
		c-6.8,1.1-14.3,0-20.6-1.9c-12.5-3.9-23.5-11.4-36.9-12.2c-12.9-0.8-23.9,5.7-34.8,11.7c-4.4,2.4-10.4,5.2-14.9,1.5
		c-3.5-2.8-3.3-8.3-7.1-10.7c-5.5-3.4-10.4-0.3-15.4,2.1c-6.8,3.3-14.3,3.2-21.6,1.8c-6.8-1.3-13.5-3.5-20.2-5.2
		c-6.1-1.5-12.4-3.2-18.7-1.8c-5.5,1.2-10.3,5.6-14.7,8.9c-5,3.8-10.2,6.7-16.6,7c-11.9,0.5-17-11.4-26.9-15.5
		c-5.2-2.1-10.8-2.8-16.4-2.9c-5.1-0.1-10.9-0.1-15.5,2.6c-2.1,1.2-3.8,3-5.6,4.7c-2.9,2.6-6,4.6-9.6,6.1
		c-5.1,2.1-11.1,2.9-16.6,3.3c-2.8,0.2-5.6,0.1-8.3-0.4c2.2-3.4,4.2-7.7,3.7-11.8c-0.6-4.4-4.7-8.2-9.1-8.6
		c-4.1-0.4-6.9,2.4-7.7,6.3c-0.9,4.5,1.3,9,4.5,12c1.6,1.5,3.5,2.6,5.5,3.3c-0.4,0.6-0.8,1.2-1.2,1.7c-7,10.3-8.5,23.7-8.8,35.8
		c-0.4,13.3,2.2,26.1,6.1,38.8c1.7,5.5,4,13.5-0.4,18.3c-3.2,3.5-8,4.2-9.5,9.2c-1.4,4.9,1.4,10.7,4,14.6c3.4,5.2,8.6,8.8,8.8,15.6
		c0.1,5.5-4.6,9.8-6.5,14.7c-2.1,5.3-2.1,10.8-1,16.4c1.2,5.5,3.4,10.8,4.4,16.4c1.3,7-0.4,13.4-3.2,19.8
		c-2.5,5.8-5.2,11.4-5.7,17.8c-0.4,6.1,2.7,11.4,4.3,17.1c0.7,2.5,0.2,4.8-0.2,7.3c-0.6,3.6-0.8,7.2-0.8,10.8c0,7.7,0.7,15.4-0.6,23
		c-0.6,3.3-1.4,6.5-1.9,9.8c-0.2,1.8-0.6,3.8,0.2,5.5c0.6,1.3,2.3,2.1,3.4,2.9c1.9,1.2,4.1,2.4,5.5,4.2c1.5,2,1.4,5,1.4,7.4
		c0.1,3.7-0.5,7.3-1.2,11c-4.8-0.7-9.4,0.2-12.7,4.7c-2.8,3.8-1.7,9.3,1,12.8c3.3,4.2,8.6,0,10.6-3.2c1.4-2.1,1.6-4.8,1.8-7.3
		c0.1-1.7,0.4-3.3,0.7-4.9c2.6,0.6,5.2,1.7,7.5,2.7c4.7,2.3,9.2,5.1,14.3,6.6c4.9,1.4,9.7,0.5,14.4-1.3c9.9-4,17.6-12.1,27.6-15.8
		c6-2.2,11.8-1.9,17.7,0.3c6,2.2,11.6,4.7,18.1,3.6c5.9-1,11-4.8,16.7-6.6c2.4-0.8,4.4-1,6.2,0.9c2,2.1,3.5,4.5,5.6,6.5
		c7.5,7.3,20.2,8.2,29.6,4.7c5.7-2.1,10.8-5.8,16-8.8c3-1.7,6.3-3.1,9.8-3.2c3.6-0.1,6.9,2.4,9.8,4.3c5.3,3.6,10.6,5.9,17.1,6
		c6.1,0.1,13.4-2.3,18.6,1.9c2.1,1.7,4,3.4,6.5,4.6c2.6,1.2,5.5,1.6,8.4,1.8c3,0.2,6,0,9-0.1c3.6-0.1,7.1-0.1,10.6-0.6
		c6.5-0.9,12.8-2.9,18.5-6.1c2.8-1.5,5.5-3.2,8.6-4.1c3.7-1.1,7.6,0.2,11.1,1.4c3.1,1,6.1,1.8,9.3,2c1.5,0.1,3,0,4.5,0
		c-0.7,1.3-1.2,2.7-1.6,4.1c-1.1,4.5,0.5,9.2,4,12.2c6,5.1,19.7,2.5,18.1-7.2c-0.7-4.1-4.5-7.4-8-9.3c-2.9-1.5-5.9-1.9-9-1.9
		c2-2.7,4.6-5.1,6.9-7.3c3.8-3.6,7.9-7,11.1-11.2c3.6-4.7,5.9-10.5,6-16.4C539.6,137.4,537.3,132,534.4,127.2z M520.5-150.3
		c-0.2-1.4-1.3-2.9-0.1-4.4c1.2-1.5,9-1.4,11.4,2.3c2.8,4.3-0.7,8.5-4.6,10c-1.2,0.5-2.4,0.8-3.7,1.1C522-144.1,521-147,520.5-150.3
		z M194.6-144.5c-4.2-2.8-7.2-9.8-3.8-14.3c1.8-2.3,4.7-1.9,7-0.8c2.9,1.4,4.7,3.9,4.8,7.1c0.1,3.6-1.8,6.9-3.8,9.9
		C197.4-142.9,195.9-143.6,194.6-144.5z M187.4,194.6c-3.4,1-4.9-4.9-4.9-7.2c-0.1-3.1,2-5.6,4.5-7c2.3-1.3,5-1.6,7.6-1.2
		C193.8,184.9,193.9,192.7,187.4,194.6z M518.2,180c5.1,0.4,10.8,4.1,12.3,9.2c1.8,6.2-6.7,8.7-11.2,7.6c-5.8-1.5-8.4-7.7-6.8-13.2
		c0.4-1.3,0.9-2.5,1.6-3.6C515.5,179.9,516.8,179.9,518.2,180z M518,172.2c-1.8,1.8-3.5,3.7-4.9,5.9c-2.2,0.1-4.4,0.2-6.5,0.1
		c-6.7-0.3-12.6-4.7-19.4-3.4c-2.8,0.5-5.4,2-7.8,3.4c-3.2,1.8-6.4,3.4-9.9,4.6c-6.9,2.4-13.8,2.7-21,2.9
		c-6.6,0.2-13.2,0.6-18.9-3.4c-2-1.4-3.6-3.3-5.8-4.4c-2.6-1.3-5.8-0.9-8.6-0.8c-6.9,0.3-13.5,0.9-19.9-2.5
		c-5.3-2.8-9.6-7.6-16.1-7.5c-6.1,0.1-11.7,4.4-16.7,7.4c-5.5,3.3-11.1,6.1-17.7,6.4c-5.5,0.3-11.7-0.8-16.4-3.9
		c-2.2-1.5-4.1-3.5-5.8-5.6c-1.4-1.7-2.6-3.7-4.7-4.7c-1.6-0.8-3.5-0.3-5.1,0.1c-2.9,0.8-5.7,2.1-8.4,3.4c-2.7,1.3-5.4,2.5-8.3,3.2
		c-3.7,0.9-7.4,0.3-11-0.9c-6.1-1.9-11.5-4.9-18-4.5c-10.5,0.6-19.1,8-27.7,13.4c-4.5,2.9-9.6,5.5-15,6c-5.6,0.5-10.9-2.4-15.7-4.9
		c-3.5-1.8-7.8-4-12.2-4.9c0.2-1.2,0.5-2.5,0.7-3.7c0.8-4.8,1.6-11.2-0.9-15.6c-1.9-3.4-6.4-4.4-9-7.1c-1.3-1.3,0-5.7,0.2-7.1
		c0.6-3.6,1.5-7.1,1.9-10.7c0.8-7.5,0-15,0.2-22.5c0.1-5.5,2.3-11.1,0.8-16.6c-0.8-3-2.1-5.8-3.1-8.7c-1.1-3.4-1.2-6.8-0.6-10.3
		c1.1-6.5,4.7-12.2,7-18.3c2.1-5.6,2.5-11.5,1.4-17.4c-1-5.6-3.3-10.8-4.4-16.3c-1.3-6.3-0.4-12.4,2.8-18c2.6-4.5,5.4-8.5,4.7-14
		c-0.8-5.9-5.3-9.5-8.6-14c-3.1-4.3-6.7-12.1-2.4-16.7c1.6-1.7,3.9-2.6,5.7-4c1.9-1.4,3.1-3.2,3.8-5.4c1.8-5.4-0.2-11.6-1.7-16.8
		c-4-13.1-6.2-26.1-5.7-39.9c0.2-6.6,1-13.2,2.8-19.6c1.5-5.6,4.1-10.3,7.2-15.1c6.2,1.5,13.4,0.3,19.1-0.8c6.2-1.2,12-3.5,16.8-7.7
		c2.1-1.8,4-3.8,6.3-5.3c2.7-1.8,6-2,9.2-2.2c5.8-0.4,11.8-0.1,17.5,1.4c5.9,1.6,10,5.2,14.4,9.3c3.5,3.2,7.2,6.1,11.9,7.2
		c5.3,1.2,10.9,0,15.7-2.4c5.1-2.6,9.3-6.6,14.1-9.8c2.8-1.9,5.7-3.3,9.1-3.7c3.7-0.5,7.4,0.3,11,1c6.8,1.5,13.4,3.5,20.1,5.2
		c6.1,1.6,12.5,2.7,18.8,1.8c3.2-0.5,6.1-1.4,9.1-2.7c3.6-1.6,6.6-4,10.7-3.2c2.5,0.5,4.1,1.7,5,4c0.9,2.4,2,4.6,3.7,6.6
		c7.3,8.4,19.9-1.5,26.9-5.2c5.9-3.1,12.1-5.6,18.7-6.4c6.9-0.8,13.7,0.5,20.2,2.8c10.8,3.8,20.7,10.1,32.3,11.1
		c4,0.4,8.1,0.3,12.2-0.3c0.7,1.3,1.5,2.6,2.4,3.8c3.3,4.9,5.8,9.8,4.7,15.9c-1.7,9.6-9.3,17-11.4,26.5c-0.9,4.2-0.4,8.6,1.8,12.3
		c2.1,3.5,5.7,5.8,8.5,8.6c4.4,4.4,4,9.5,2.1,15.1c-1.1,3.1-1.5,6-1.1,9.2c0.4,3.5,1,6.7,0.9,10.2c-0.2,6.8-1.6,13.6-3.4,20.1
		c-1.7,6.2-4.3,12-6.1,18.2c-1.6,5.6-1.7,11.3,0.1,16.9c2,6.3,5.8,11.7,7.2,18.2c1.6,7.3-0.3,14.4-0.9,21.7
		c-0.5,6.3,1.7,12.2,2,18.4c0.3,6.9-4.4,12-7.2,17.8c-2.5,5.1-2.8,10.5-1.3,16c1.7,6.1,6.8,10.9,10.4,15.9c3.7,5.2,6.5,11,6.5,17.5
		C537.6,156.2,526.2,163.9,518,172.2z"/>
	<path style="clip-path:url(#SVGID_2_);fill:#333333;" d="M192.5,135.4c0.5-0.7,1.2-1.1,1.8-1.2c-0.1-0.1-0.1-0.1-0.2-0.2l-1.9-1.6
		c-0.9-0.7-2.2-0.6-2.9,0.3c-0.7,0.9-0.6,2.2,0.3,3l1.9,1.6c0.1,0,0.1,0.1,0.2,0.1C191.7,136.7,192,136,192.5,135.4z"/>
	<path style="clip-path:url(#SVGID_2_);fill:#1A1A1A;" d="M189.3,132.7c-0.1,0.2-0.2,0.4-0.3,0.6c0.7-0.8,2-1.2,3.1-0.3l1.7,1.3
		c0.2-0.1,0.4-0.2,0.6-0.2c-0.1-0.1-0.1-0.1-0.2-0.2l-1.9-1.6C191.3,131.7,190,131.8,189.3,132.7z"/>
	<path style="clip-path:url(#SVGID_2_);fill:#DF5A49;" d="M201,135.8c3.4,2.7,4.5,8.3,3.7,9.4c-0.8,1.1-6.5,1.2-9.9-1.6
		c-3.4-2.7-4.1-6.2-2.4-8.4C194.1,133.1,197.6,133.1,201,135.8z"/>
	<path style="opacity:0.3;clip-path:url(#SVGID_2_);fill:#DF5A49;" d="M196.7,135.6c1.7,1.4,2.3,4.2,1.8,4.7s-3.2,0.6-4.9-0.8
		c-1.7-1.4-2.1-3.1-1.2-4.2C193.3,134.2,195,134.2,196.7,135.6z"/>
	<g style="opacity:0.5;clip-path:url(#SVGID_2_);">
		<path style="fill:#FFFFFF;" d="M195,142.3C195,142.3,195,142.3,195,142.3c-0.2,0.2-0.5,0.2-0.7,0.1c-3.7-3-1.8-6.3-1.8-6.3
			c0.1-0.2,0.4-0.3,0.6-0.2c0.2,0.1,0.3,0.4,0.2,0.7c-0.1,0.1-1.4,2.6,1.6,5.1C195.1,141.8,195.1,142.1,195,142.3z"/>
	</g>
	<path style="clip-path:url(#SVGID_2_);fill:#333333;" d="M201.6-7.2c-0.1-0.9,0.1-1.6,0.5-2.1c-0.1,0-0.2,0-0.2,0l-2.5,0.2
		c-1.1,0.1-2,1.1-1.9,2.3c0.1,1.2,1.1,2,2.2,2l2.5-0.2c0.1,0,0.1,0,0.2,0C202-5.6,201.7-6.3,201.6-7.2z"/>
	<path style="clip-path:url(#SVGID_2_);fill:#1A1A1A;" d="M197.5-6.9c0,0.2,0.1,0.4,0.2,0.6c0-1.1,0.7-2.2,2.1-2.3l2.1-0.1
		c0.1-0.2,0.2-0.4,0.3-0.6c-0.1,0-0.2,0-0.2,0l-2.5,0.2C198.3-9.1,197.4-8.1,197.5-6.9z"/>
	<path style="clip-path:url(#SVGID_2_);fill:#45B29D;" d="M208.2-12.7c4.3-0.3,8.9,3,9,4.4c0.1,1.4-4,5.3-8.3,5.6
		c-4.3,0.3-7.2-1.7-7.4-4.5C201.3-9.9,203.9-12.4,208.2-12.7z"/>
	<path style="opacity:0.3;clip-path:url(#SVGID_2_);fill:#45B29D;" d="M204.9-9.9c2.2-0.2,4.5,1.5,4.5,2.2c0,0.7-2,2.6-4.2,2.8
		c-2.2,0.2-3.6-0.9-3.7-2.2S202.7-9.8,204.9-9.9z"/>
	<g style="opacity:0.5;clip-path:url(#SVGID_2_);">
		<path style="fill:#FFFFFF;" d="M208.1-3.8C208.1-3.8,208.1-3.8,208.1-3.8c0,0.3-0.2,0.5-0.5,0.5c-4.7,0.3-5.6-3.4-5.6-3.4
			c-0.1-0.3,0.1-0.5,0.4-0.6c0.3-0.1,0.5,0.1,0.6,0.4c0,0.1,0.7,2.9,4.6,2.7C207.9-4.2,208.1-4,208.1-3.8z"/>
	</g>
	<path style="clip-path:url(#SVGID_2_);fill:#333333;" d="M281.6-141.6c0.6,0.6,1,1.2,1.1,1.9c0.1-0.1,0.1-0.1,0.2-0.2l1.6-1.9
		c0.8-0.9,0.7-2.2-0.2-3c-0.9-0.8-2.2-0.7-3,0.2l-1.6,1.9c-0.1,0.1-0.1,0.1-0.1,0.2C280.3-142.4,281-142.1,281.6-141.6z"/>
	<path style="clip-path:url(#SVGID_2_);fill:#1A1A1A;" d="M284.3-144.7c-0.2-0.1-0.4-0.3-0.6-0.3c0.8,0.8,1.1,2,0.2,3.1l-1.4,1.6
		c0.1,0.2,0.2,0.4,0.2,0.6c0.1-0.1,0.1-0.1,0.2-0.2l1.6-1.9C285.3-142.6,285.2-144,284.3-144.7z"/>
	<path style="clip-path:url(#SVGID_2_);fill:#45B29D;" d="M280.8-133c-2.9,3.3-8.4,4.2-9.4,3.3c-1-0.9-0.9-6.6,2-9.9
		c2.9-3.3,6.3-3.9,8.4-2.1C283.8-139.8,283.7-136.3,280.8-133z"/>
	<path style="opacity:0.3;clip-path:url(#SVGID_2_);fill:#45B29D;" d="M281.2-137.3c-1.4,1.7-4.2,2.1-4.7,1.7
		c-0.5-0.4-0.4-3.3,1-4.9c1.4-1.7,3.2-2,4.2-1C282.7-140.8,282.7-139,281.2-137.3z"/>
	<g style="opacity:0.5;clip-path:url(#SVGID_2_);">
		<path style="fill:#FFFFFF;" d="M274.6-139.4C274.6-139.4,274.6-139.4,274.6-139.4c-0.2-0.2-0.2-0.5,0-0.7c3.2-3.6,6.3-1.6,6.3-1.6
			c0.2,0.1,0.3,0.4,0.1,0.7c-0.1,0.2-0.4,0.3-0.7,0.1c-0.1-0.1-2.5-1.6-5.1,1.4C275.1-139.2,274.8-139.2,274.6-139.4z"/>
	</g>
	<path style="clip-path:url(#SVGID_2_);fill:#333333;" d="M363.2-145.7c0.9-0.1,1.6,0.1,2.1,0.5c0-0.1,0-0.2,0-0.2l-0.2-2.5
		c-0.1-1.2-1.1-2-2.2-2c-1.1,0.1-2,1.1-1.9,2.3l0.2,2.5c0,0.1,0,0.1,0,0.2C361.7-145.3,362.4-145.6,363.2-145.7z"/>
	<path style="clip-path:url(#SVGID_2_);fill:#1A1A1A;" d="M363-149.8c-0.2,0-0.4,0.1-0.6,0.2c1.1,0,2.2,0.7,2.3,2.1l0.1,2.1
		c0.2,0.1,0.4,0.2,0.6,0.3c0-0.1,0-0.2,0-0.2l-0.2-2.5C365.1-149,364.1-149.9,363-149.8z"/>
	<path style="clip-path:url(#SVGID_2_);fill:#EFC94C;" d="M368.7-139c0.3,4.4-3,9-4.3,9.1c-1.3,0.1-5.2-4-5.5-8.4
		c-0.3-4.4,1.7-7.3,4.5-7.5S368.4-143.4,368.7-139z"/>
	<path style="opacity:0.3;clip-path:url(#SVGID_2_);fill:#EFC94C;" d="M366-142.4c0.2,2.2-1.5,4.5-2.2,4.5c-0.7,0-2.6-2-2.8-4.2
		c-0.2-2.2,0.9-3.6,2.2-3.7C364.6-145.9,365.8-144.6,366-142.4z"/>
	<g style="opacity:0.5;clip-path:url(#SVGID_2_);">
		<path style="fill:#FFFFFF;" d="M359.9-139.1C359.9-139.1,359.9-139.1,359.9-139.1c-0.3,0-0.5-0.2-0.5-0.5
			c-0.3-4.8,3.3-5.6,3.4-5.6c0.3-0.1,0.5,0.1,0.6,0.4c0.1,0.3-0.1,0.5-0.4,0.6c-0.1,0-2.9,0.7-2.6,4.6
			C360.3-139.4,360.1-139.1,359.9-139.1z"/>
	</g>
	<path style="clip-path:url(#SVGID_2_);fill:#333333;" d="M441.3-144c0.6-0.7,1.2-1,1.9-1.1c-0.1-0.1-0.1-0.1-0.2-0.2l-1.9-1.6
		c-0.9-0.8-2.2-0.7-3,0.2c-0.8,0.9-0.7,2.2,0.2,3l1.9,1.6c0.1,0.1,0.1,0.1,0.2,0.1C440.5-142.7,440.8-143.4,441.3-144z"/>
	<path style="clip-path:url(#SVGID_2_);fill:#1A1A1A;" d="M438.2-146.8c-0.1,0.2-0.3,0.4-0.3,0.6c0.8-0.8,2-1.1,3.1-0.2l1.6,1.4
		c0.2-0.1,0.4-0.2,0.6-0.2c-0.1-0.1-0.1-0.1-0.2-0.2l-1.9-1.6C440.3-147.8,439-147.7,438.2-146.8z"/>
	<path style="clip-path:url(#SVGID_2_);fill:#334D5C;" d="M449.9-143.2c3.3,2.9,4.2,8.5,3.3,9.5c-0.9,1-6.5,0.9-9.8-2
		c-3.3-2.9-3.9-6.4-2.1-8.5C443.1-146.2,446.6-146.1,449.9-143.2z"/>
	<path style="opacity:0.3;clip-path:url(#SVGID_2_);fill:#334D5C;" d="M445.6-143.7c1.6,1.4,2.1,4.3,1.6,4.8c-0.4,0.5-3.3,0.5-4.9-1
		c-1.6-1.4-1.9-3.2-1-4.2C442.2-145.2,443.9-145.1,445.6-143.7z"/>
	<g style="opacity:0.5;clip-path:url(#SVGID_2_);">
		<path style="fill:#FFFFFF;" d="M443.6-137C443.6-137,443.6-137,443.6-137c-0.2,0.2-0.5,0.2-0.7,0c-3.5-3.2-1.6-6.3-1.5-6.4
			c0.1-0.2,0.4-0.3,0.7-0.1c0.2,0.1,0.3,0.4,0.1,0.7c-0.1,0.1-1.5,2.5,1.4,5.1C443.7-137.5,443.7-137.2,443.6-137z"/>
	</g>
	<path style="clip-path:url(#SVGID_2_);fill:#333333;" d="M521.4-74.4c0.6,0.6,1,1.2,1.1,1.9c0.1-0.1,0.1-0.1,0.2-0.2l1.6-1.9
		c0.8-0.9,0.7-2.2-0.2-3c-0.9-0.8-2.2-0.7-3,0.2l-1.6,1.9c-0.1,0.1-0.1,0.1-0.1,0.2C520.1-75.2,520.8-74.9,521.4-74.4z"/>
	<path style="clip-path:url(#SVGID_2_);fill:#1A1A1A;" d="M524.1-77.5c-0.2-0.1-0.4-0.3-0.6-0.3c0.8,0.8,1.1,2,0.2,3.1l-1.4,1.6
		c0.1,0.2,0.2,0.4,0.2,0.6c0.1-0.1,0.1-0.1,0.2-0.2l1.6-1.9C525.1-75.4,525-76.8,524.1-77.5z"/>
	<path style="clip-path:url(#SVGID_2_);fill:#EFC94C;" d="M520.6-65.8c-2.9,3.3-8.4,4.2-9.4,3.3c-1-0.9-0.9-6.6,2-9.9
		c2.9-3.3,6.3-3.9,8.4-2.1C523.6-72.6,523.4-69.1,520.6-65.8z"/>
	<path style="opacity:0.3;clip-path:url(#SVGID_2_);fill:#EFC94C;" d="M521-70.1c-1.4,1.7-4.2,2.1-4.7,1.7c-0.5-0.4-0.4-3.3,1-4.9
		c1.4-1.7,3.2-2,4.2-1S522.5-71.8,521-70.1z"/>
	<g style="opacity:0.5;clip-path:url(#SVGID_2_);">
		<path style="fill:#FFFFFF;" d="M514.4-72.2C514.4-72.2,514.4-72.2,514.4-72.2c-0.2-0.2-0.2-0.5,0-0.7c3.2-3.6,6.3-1.6,6.3-1.6
			c0.2,0.1,0.3,0.4,0.1,0.7c-0.1,0.2-0.4,0.3-0.7,0.1c-0.1-0.1-2.5-1.6-5.1,1.4C514.9-72,514.6-72,514.4-72.2z"/>
	</g>
	<path style="clip-path:url(#SVGID_2_);fill:#333333;" d="M516.8,11.1c0.1,0.9-0.1,1.6-0.5,2.1c0.1,0,0.2,0,0.2,0l2.5-0.2
		c1.1-0.1,2-1.1,1.9-2.3c-0.1-1.2-1.1-2-2.2-2L516.3,9c-0.1,0-0.1,0-0.2,0C516.5,9.6,516.8,10.3,516.8,11.1z"/>
	<path style="clip-path:url(#SVGID_2_);fill:#1A1A1A;" d="M521,10.8c0-0.2-0.1-0.4-0.2-0.6c0,1.1-0.7,2.2-2.1,2.3l-2.1,0.1
		c-0.1,0.2-0.2,0.4-0.3,0.6c0.1,0,0.2,0,0.2,0l2.5-0.2C520.2,13,521,12,521,10.8z"/>
	<path style="clip-path:url(#SVGID_2_);fill:#334D5C;" d="M510.2,16.6c-4.3,0.3-8.9-3-9-4.4c-0.1-1.4,4-5.3,8.3-5.6
		c4.3-0.3,7.2,1.7,7.4,4.5C517.1,13.9,514.6,16.3,510.2,16.6z"/>
	<path style="opacity:0.3;clip-path:url(#SVGID_2_);fill:#334D5C;" d="M513.6,13.8c-2.2,0.2-4.5-1.5-4.5-2.2c0-0.7,2-2.6,4.2-2.8
		c2.2-0.2,3.6,0.9,3.7,2.2C517,12.5,515.8,13.7,513.6,13.8z"/>
	<g style="opacity:0.5;clip-path:url(#SVGID_2_);">
		<path style="fill:#FFFFFF;" d="M510.3,7.7C510.3,7.7,510.3,7.7,510.3,7.7c0-0.3,0.2-0.5,0.5-0.5c4.7-0.3,5.6,3.4,5.6,3.4
			c0.1,0.3-0.1,0.5-0.4,0.6c-0.3,0.1-0.5-0.1-0.6-0.4c0-0.1-0.7-2.9-4.6-2.7C510.6,8.2,510.4,8,510.3,7.7z"/>
	</g>
	<path style="clip-path:url(#SVGID_2_);fill:#333333;" d="M518,95.2c-0.6,0.7-1.2,1-1.9,1.1c0.1,0.1,0.1,0.1,0.2,0.2l1.9,1.6
		c0.9,0.8,2.2,0.7,3-0.2c0.8-0.9,0.7-2.2-0.2-3l-1.9-1.6c-0.1-0.1-0.1-0.1-0.2-0.1C518.8,93.9,518.6,94.6,518,95.2z"/>
	<path style="clip-path:url(#SVGID_2_);fill:#1A1A1A;" d="M521.1,98c0.1-0.2,0.3-0.4,0.3-0.6c-0.8,0.8-2,1.1-3.1,0.2l-1.6-1.4
		c-0.2,0.1-0.4,0.2-0.6,0.2c0.1,0.1,0.1,0.1,0.2,0.2l1.9,1.6C519,98.9,520.4,98.8,521.1,98z"/>
	<path style="clip-path:url(#SVGID_2_);fill:#DF5A49;" d="M509.5,94.4c-3.3-2.9-4.2-8.5-3.3-9.5c0.9-1,6.5-0.9,9.8,2
		c3.3,2.9,3.9,6.4,2.1,8.5C516.3,97.4,512.8,97.3,509.5,94.4z"/>
	<path style="opacity:0.3;clip-path:url(#SVGID_2_);fill:#DF5A49;" d="M513.8,94.9c-1.6-1.4-2.1-4.3-1.6-4.8c0.4-0.5,3.3-0.5,4.9,1
		c1.6,1.4,1.9,3.2,1,4.2C517.2,96.3,515.4,96.3,513.8,94.9z"/>
	<g style="opacity:0.5;clip-path:url(#SVGID_2_);">
		<path style="fill:#FFFFFF;" d="M515.8,88.2C515.8,88.2,515.8,88.2,515.8,88.2c0.2-0.2,0.5-0.2,0.7,0c3.5,3.2,1.6,6.3,1.5,6.4
			c-0.1,0.2-0.4,0.3-0.7,0.1c-0.2-0.1-0.3-0.4-0.1-0.7c0.1-0.1,1.5-2.5-1.4-5.1C515.6,88.7,515.6,88.4,515.8,88.2z"/>
	</g>
	<path style="clip-path:url(#SVGID_2_);fill:#333333;" d="M491.4,172.2c-0.6-0.6-1-1.2-1.1-1.9c-0.1,0.1-0.1,0.1-0.2,0.2l-1.6,1.9
		c-0.8,0.9-0.7,2.2,0.2,3c0.9,0.8,2.2,0.7,3-0.2l1.6-1.9c0.1-0.1,0.1-0.1,0.1-0.2C492.7,173,492,172.8,491.4,172.2z"/>
	<path style="clip-path:url(#SVGID_2_);fill:#1A1A1A;" d="M488.7,175.3c0.2,0.1,0.4,0.3,0.6,0.3c-0.8-0.8-1.1-2-0.2-3.1l1.4-1.6
		c-0.1-0.2-0.2-0.4-0.2-0.6c-0.1,0.1-0.1,0.1-0.2,0.2l-1.6,1.9C487.7,173.2,487.8,174.6,488.7,175.3z"/>
	<path style="clip-path:url(#SVGID_2_);fill:#EFC94C;" d="M492.2,163.6c2.9-3.3,8.4-4.2,9.4-3.3c1,0.9,0.9,6.6-2,9.9
		c-2.9,3.3-6.3,3.9-8.4,2.1S489.4,166.9,492.2,163.6z"/>
	<path style="opacity:0.3;clip-path:url(#SVGID_2_);fill:#EFC94C;" d="M491.8,168c1.4-1.7,4.2-2.1,4.7-1.7c0.5,0.4,0.4,3.3-1,4.9
		c-1.4,1.7-3.2,2-4.2,1C490.3,171.4,490.4,169.6,491.8,168z"/>
	<g style="opacity:0.5;clip-path:url(#SVGID_2_);">
		<path style="fill:#FFFFFF;" d="M498.4,170C498.4,170,498.4,170,498.4,170c0.2,0.2,0.2,0.5,0,0.7c-3.2,3.6-6.3,1.6-6.3,1.6
			c-0.2-0.1-0.3-0.4-0.1-0.7c0.1-0.2,0.4-0.3,0.7-0.1c0.1,0.1,2.5,1.6,5.1-1.4C497.9,169.8,498.2,169.8,498.4,170z"/>
	</g>
	<path style="clip-path:url(#SVGID_2_);fill:#333333;" d="M363.4,169.8c-0.8,0.2-1.6,0.2-2.2,0c0,0.1,0,0.2,0,0.2l0.7,2.4
		c0.3,1.1,1.5,1.8,2.6,1.4c1.1-0.3,1.7-1.5,1.4-2.6l-0.7-2.4c0-0.1-0.1-0.1-0.1-0.2C364.8,169.1,364.2,169.5,363.4,169.8z"/>
	<path style="clip-path:url(#SVGID_2_);fill:#1A1A1A;" d="M364.6,173.8c0.2-0.1,0.4-0.2,0.6-0.3c-1.1,0.2-2.3-0.2-2.7-1.5l-0.6-2.1
		c-0.2,0-0.5-0.1-0.7-0.2c0,0.1,0,0.2,0,0.2l0.7,2.4C362.3,173.4,363.5,174.1,364.6,173.8z"/>
	<path style="clip-path:url(#SVGID_2_);fill:#DF5A49;" d="M356.7,164.4c-1.2-4.2,1-9.4,2.3-9.8c1.3-0.4,6,2.8,7.2,7
		c1.2,4.2-0.1,7.5-2.7,8.3C360.8,170.7,357.9,168.7,356.7,164.4z"/>
	<path style="opacity:0.3;clip-path:url(#SVGID_2_);fill:#DF5A49;" d="M360,167.2c-0.6-2.1,0.5-4.7,1.1-4.9c0.6-0.2,3,1.4,3.6,3.5
		c0.6,2.1-0.1,3.7-1.4,4.1C362.1,170.3,360.7,169.3,360,167.2z"/>
	<g style="opacity:0.5;clip-path:url(#SVGID_2_);">
		<path style="fill:#FFFFFF;" d="M365.3,162.6C365.3,162.6,365.3,162.6,365.3,162.6c0.3-0.1,0.5,0.1,0.6,0.3
			c1.3,4.6-2.1,6.2-2.1,6.2c-0.2,0.1-0.5,0-0.6-0.2c-0.1-0.2,0-0.5,0.2-0.6c0.1-0.1,2.6-1.3,1.6-5.1
			C364.9,163,365,162.7,365.3,162.6z"/>
	</g>
	<path style="clip-path:url(#SVGID_2_);fill:#333333;" d="M285.3,170.1c-0.9,0.1-1.6-0.1-2.1-0.5c0,0.1,0,0.2,0,0.2l0.2,2.5
		c0.1,1.2,1.1,2,2.2,2c1.1-0.1,2-1.1,1.9-2.3l-0.2-2.5c0-0.1,0-0.1,0-0.2C286.8,169.7,286.2,170,285.3,170.1z"/>
	<path style="clip-path:url(#SVGID_2_);fill:#1A1A1A;" d="M285.6,174.2c0.2,0,0.4-0.1,0.6-0.2c-1.1,0-2.2-0.7-2.3-2.1l-0.1-2.1
		c-0.2-0.1-0.4-0.2-0.6-0.3c0,0.1,0,0.2,0,0.2l0.2,2.5C283.4,173.4,284.4,174.3,285.6,174.2z"/>
	<path style="clip-path:url(#SVGID_2_);fill:#EFC94C;" d="M279.9,163.4c-0.3-4.4,3-9,4.3-9.1c1.3-0.1,5.2,4,5.5,8.4
		s-1.7,7.3-4.5,7.5C282.6,170.4,280.2,167.8,279.9,163.4z"/>
	<path style="opacity:0.3;clip-path:url(#SVGID_2_);fill:#EFC94C;" d="M282.6,166.8c-0.2-2.2,1.5-4.5,2.2-4.5c0.7,0,2.6,2,2.8,4.2
		c0.2,2.2-0.9,3.6-2.2,3.7C283.9,170.3,282.7,169,282.6,166.8z"/>
	<g style="opacity:0.5;clip-path:url(#SVGID_2_);">
		<path style="fill:#FFFFFF;" d="M288.7,163.5C288.7,163.5,288.7,163.5,288.7,163.5c0.3,0,0.5,0.2,0.5,0.5c0.3,4.8-3.3,5.6-3.4,5.6
			c-0.3,0.1-0.5-0.1-0.6-0.4c-0.1-0.3,0.1-0.5,0.4-0.6c0.1,0,2.9-0.7,2.6-4.6C288.2,163.8,288.4,163.5,288.7,163.5z"/>
	</g>
	<path style="clip-path:url(#SVGID_2_);fill:#333333;" d="M190.2,83.5c-0.6-0.6-1-1.2-1.1-1.9c-0.1,0.1-0.1,0.1-0.2,0.2l-1.6,1.9
		c-0.8,0.9-0.7,2.2,0.2,3c0.9,0.8,2.2,0.7,3-0.2l1.6-1.9c0.1-0.1,0.1-0.1,0.1-0.2C191.6,84.3,190.9,84.1,190.2,83.5z"/>
	<path style="clip-path:url(#SVGID_2_);fill:#1A1A1A;" d="M187.5,86.6c0.2,0.1,0.4,0.3,0.6,0.3c-0.8-0.8-1.1-2-0.2-3.1l1.4-1.6
		c-0.1-0.2-0.2-0.4-0.2-0.6c-0.1,0.1-0.1,0.1-0.2,0.2l-1.6,1.9C186.5,84.5,186.6,85.9,187.5,86.6z"/>
	<path style="clip-path:url(#SVGID_2_);fill:#E27A3F;" d="M191.1,74.9c2.9-3.3,8.4-4.2,9.4-3.3c1,0.9,0.9,6.6-2,9.9
		c-2.9,3.3-6.3,3.9-8.4,2.1C188.1,81.8,188.2,78.2,191.1,74.9z"/>
	<path style="opacity:0.3;clip-path:url(#SVGID_2_);fill:#E27A3F;" d="M190.6,79.2c1.4-1.7,4.2-2.1,4.7-1.7c0.5,0.4,0.4,3.3-1,4.9
		c-1.4,1.7-3.2,2-4.2,1C189.1,82.7,189.2,80.9,190.6,79.2z"/>
	<g style="opacity:0.5;clip-path:url(#SVGID_2_);">
		<path style="fill:#FFFFFF;" d="M197.2,81.3C197.2,81.3,197.2,81.3,197.2,81.3c0.2,0.2,0.2,0.5,0,0.7c-3.2,3.6-6.3,1.6-6.3,1.6
			c-0.2-0.1-0.3-0.4-0.1-0.7c0.1-0.2,0.4-0.3,0.7-0.1c0.1,0.1,2.5,1.6,5.1-1.4C196.7,81.1,197,81.1,197.2,81.3z"/>
	</g>
	<path style="clip-path:url(#SVGID_2_);fill:#333333;" d="M192.5-89.7c0.6-0.7,1.2-1,1.9-1.1c-0.1-0.1-0.1-0.1-0.2-0.2l-1.9-1.6
		c-0.9-0.8-2.2-0.7-3,0.2c-0.8,0.9-0.7,2.2,0.2,3l1.9,1.6c0.1,0.1,0.1,0.1,0.2,0.1C191.7-88.4,192-89.1,192.5-89.7z"/>
	<path style="clip-path:url(#SVGID_2_);fill:#1A1A1A;" d="M189.4-92.5c-0.1,0.2-0.3,0.4-0.3,0.6c0.8-0.8,2-1.1,3.1-0.2l1.6,1.4
		c0.2-0.1,0.4-0.2,0.6-0.2c-0.1-0.1-0.1-0.1-0.2-0.2l-1.9-1.6C191.5-93.4,190.2-93.4,189.4-92.5z"/>
	<path style="clip-path:url(#SVGID_2_);fill:#DF5A49;" d="M201-88.9c3.3,2.9,4.2,8.5,3.3,9.5c-0.9,1-6.5,0.9-9.8-2
		c-3.3-2.9-3.9-6.4-2.1-8.5C194.2-91.9,197.7-91.8,201-88.9z"/>
	<path style="opacity:0.3;clip-path:url(#SVGID_2_);fill:#DF5A49;" d="M196.7-89.4c1.6,1.4,2.1,4.3,1.6,4.8c-0.4,0.5-3.3,0.5-4.9-1
		c-1.6-1.4-1.9-3.2-1-4.2C193.3-90.9,195.1-90.8,196.7-89.4z"/>
	<g style="opacity:0.5;clip-path:url(#SVGID_2_);">
		<path style="fill:#FFFFFF;" d="M194.7-82.7C194.7-82.7,194.7-82.7,194.7-82.7c-0.2,0.2-0.5,0.2-0.7,0c-3.5-3.2-1.6-6.3-1.5-6.4
			c0.1-0.2,0.4-0.3,0.7-0.1c0.2,0.1,0.3,0.4,0.1,0.7c-0.1,0.1-1.5,2.5,1.4,5.1C194.9-83.2,194.9-82.9,194.7-82.7z"/>
	</g>
	<path style="clip-path:url(#SVGID_2_);fill:#333333;" d="M184.6-44c-0.6,0.7-1.2,1-1.9,1.1c0.1,0.1,0.1,0.1,0.2,0.2l1.9,1.6
		c0.9,0.8,2.2,0.7,3-0.2c0.8-0.9,0.7-2.2-0.2-3l-1.9-1.6c-0.1-0.1-0.1-0.1-0.2-0.1C185.4-45.4,185.1-44.7,184.6-44z"/>
	<path style="clip-path:url(#SVGID_2_);fill:#1A1A1A;" d="M187.7-41.3c0.1-0.2,0.3-0.4,0.3-0.6c-0.8,0.8-2,1.1-3.1,0.2l-1.6-1.4
		c-0.2,0.1-0.4,0.2-0.6,0.2c0.1,0.1,0.1,0.1,0.2,0.2l1.9,1.6C185.6-40.3,186.9-40.4,187.7-41.3z"/>
	<path style="clip-path:url(#SVGID_2_);fill:#334D5C;" d="M176.1-44.9c-3.3-2.9-4.2-8.5-3.3-9.5c0.9-1,6.5-0.9,9.8,2
		c3.3,2.9,3.9,6.4,2.1,8.5C182.9-41.9,179.4-42,176.1-44.9z"/>
	<path style="opacity:0.3;clip-path:url(#SVGID_2_);fill:#334D5C;" d="M180.4-44.4c-1.6-1.4-2.1-4.3-1.6-4.8c0.4-0.5,3.3-0.5,4.9,1
		c1.6,1.4,1.9,3.2,1,4.2C183.8-42.9,182-43,180.4-44.4z"/>
	<g style="opacity:0.5;clip-path:url(#SVGID_2_);">
		<path style="fill:#FFFFFF;" d="M182.4-51.1C182.4-51.1,182.4-51.1,182.4-51.1c0.2-0.2,0.5-0.2,0.7,0c3.5,3.2,1.6,6.3,1.5,6.4
			c-0.1,0.2-0.4,0.3-0.7,0.1c-0.2-0.1-0.3-0.4-0.1-0.7c0.1-0.1,1.5-2.5-1.4-5.1C182.2-50.6,182.2-50.9,182.4-51.1z"/>
	</g>
	<path style="clip-path:url(#SVGID_2_);fill:#333333;" d="M185.7,20.5c0.1,0.9-0.1,1.6-0.5,2.1c0.1,0,0.2,0,0.2,0l2.5-0.2
		c1.1-0.1,2-1.1,1.9-2.3c-0.1-1.2-1.1-2-2.2-2l-2.5,0.2c-0.1,0-0.1,0-0.2,0C185.4,19,185.7,19.7,185.7,20.5z"/>
	<path style="clip-path:url(#SVGID_2_);fill:#1A1A1A;" d="M189.8,20.3c0-0.2-0.1-0.4-0.2-0.6c0,1.1-0.7,2.2-2.1,2.3l-2.1,0.1
		c-0.1,0.2-0.2,0.4-0.3,0.6c0.1,0,0.2,0,0.2,0l2.5-0.2C189.1,22.4,189.9,21.4,189.8,20.3z"/>
	<path style="clip-path:url(#SVGID_2_);fill:#EFC94C;" d="M179.1,26c-4.3,0.3-8.9-3-9-4.4c-0.1-1.4,4-5.3,8.3-5.6
		c4.3-0.3,7.2,1.7,7.4,4.5C186,23.3,183.5,25.7,179.1,26z"/>
	<path style="opacity:0.3;clip-path:url(#SVGID_2_);fill:#EFC94C;" d="M182.5,23.3c-2.2,0.2-4.5-1.5-4.5-2.2c0-0.7,2-2.6,4.2-2.8
		c2.2-0.2,3.6,0.9,3.7,2.2C185.9,21.9,184.6,23.1,182.5,23.3z"/>
	<g style="opacity:0.5;clip-path:url(#SVGID_2_);">
		<path style="fill:#FFFFFF;" d="M179.2,17.1C179.2,17.1,179.2,17.1,179.2,17.1c0-0.3,0.2-0.5,0.5-0.5c4.7-0.3,5.6,3.4,5.6,3.4
			c0.1,0.3-0.1,0.5-0.4,0.6c-0.3,0.1-0.5-0.1-0.6-0.4c0-0.1-0.7-2.9-4.6-2.7C179.5,17.6,179.2,17.4,179.2,17.1z"/>
	</g>
	<path style="clip-path:url(#SVGID_2_);fill:#333333;" d="M217.1,191.6c0.6,0.6,1,1.2,1.1,1.9c0.1-0.1,0.1-0.1,0.2-0.2l1.6-1.9
		c0.8-0.9,0.7-2.2-0.2-3c-0.9-0.8-2.2-0.7-3,0.2l-1.6,1.9c-0.1,0.1-0.1,0.1-0.1,0.2C215.8,190.8,216.5,191.1,217.1,191.6z"/>
	<path style="clip-path:url(#SVGID_2_);fill:#1A1A1A;" d="M219.9,188.5c-0.2-0.1-0.4-0.3-0.6-0.3c0.8,0.8,1.1,2,0.2,3.1l-1.4,1.6
		c0.1,0.2,0.2,0.4,0.2,0.6c0.1-0.1,0.1-0.1,0.2-0.2l1.6-1.9C220.8,190.6,220.7,189.3,219.9,188.5z"/>
	<path style="clip-path:url(#SVGID_2_);fill:#334D5C;" d="M216.3,200.2c-2.9,3.3-8.4,4.2-9.4,3.3c-1-0.9-0.9-6.6,2-9.9
		c2.9-3.3,6.3-3.9,8.4-2.1S219.2,196.9,216.3,200.2z"/>
	<path style="opacity:0.3;clip-path:url(#SVGID_2_);fill:#334D5C;" d="M216.8,195.9c-1.4,1.7-4.2,2.1-4.7,1.7
		c-0.5-0.4-0.4-3.3,1-4.9c1.4-1.7,3.2-2,4.2-1C218.2,192.5,218.2,194.2,216.8,195.9z"/>
	<g style="opacity:0.5;clip-path:url(#SVGID_2_);">
		<path style="fill:#FFFFFF;" d="M210.2,193.9C210.2,193.9,210.1,193.9,210.2,193.9c-0.2-0.2-0.2-0.5,0-0.7c3.2-3.6,6.3-1.6,6.3-1.6
			c0.2,0.1,0.3,0.4,0.1,0.7c-0.1,0.2-0.4,0.3-0.7,0.1c-0.1-0.1-2.5-1.6-5.1,1.4C210.6,194,210.3,194,210.2,193.9z"/>
	</g>
	<path style="clip-path:url(#SVGID_2_);fill:#333333;" d="M322.9,178.8c0.6,0.6,1,1.2,1.1,1.9c0.1-0.1,0.1-0.1,0.2-0.2l1.6-1.9
		c0.8-0.9,0.7-2.2-0.2-3c-0.9-0.8-2.2-0.7-3,0.2l-1.6,1.9c-0.1,0.1-0.1,0.1-0.1,0.2C321.6,177.9,322.3,178.2,322.9,178.8z"/>
	<path style="clip-path:url(#SVGID_2_);fill:#1A1A1A;" d="M325.6,175.6c-0.2-0.1-0.4-0.3-0.6-0.3c0.8,0.8,1.1,2,0.2,3.1l-1.4,1.6
		c0.1,0.2,0.2,0.4,0.2,0.6c0.1-0.1,0.1-0.1,0.2-0.2l1.6-1.9C326.6,177.7,326.5,176.4,325.6,175.6z"/>
	<path style="clip-path:url(#SVGID_2_);fill:#E27A3F;" d="M322.1,187.4c-2.9,3.3-8.4,4.2-9.4,3.3c-1-0.9-0.9-6.6,2-9.9
		c2.9-3.3,6.3-3.9,8.4-2.1C325,180.5,324.9,184.1,322.1,187.4z"/>
	<path style="opacity:0.3;clip-path:url(#SVGID_2_);fill:#E27A3F;" d="M322.5,183c-1.4,1.7-4.2,2.1-4.7,1.7c-0.5-0.4-0.4-3.3,1-4.9
		c1.4-1.7,3.2-2,4.2-1C324,179.6,324,181.4,322.5,183z"/>
	<g style="opacity:0.5;clip-path:url(#SVGID_2_);">
		<path style="fill:#FFFFFF;" d="M315.9,181C315.9,181,315.9,181,315.9,181c-0.2-0.2-0.2-0.5,0-0.7c3.2-3.6,6.3-1.6,6.3-1.6
			c0.2,0.1,0.3,0.4,0.1,0.7c-0.1,0.2-0.4,0.3-0.7,0.1c-0.1-0.1-2.5-1.6-5.1,1.4C316.4,181.2,316.1,181.2,315.9,181z"/>
	</g>
	<path style="clip-path:url(#SVGID_2_);fill:#333333;" d="M406.3,175c-0.6-0.6-1-1.2-1.1-1.9c-0.1,0.1-0.1,0.1-0.2,0.2l-1.6,1.9
		c-0.8,0.9-0.7,2.2,0.2,3c0.9,0.8,2.2,0.7,3-0.2l1.6-1.9c0.1-0.1,0.1-0.1,0.1-0.2C407.6,175.8,406.9,175.5,406.3,175z"/>
	<path style="clip-path:url(#SVGID_2_);fill:#1A1A1A;" d="M403.5,178.1c0.2,0.1,0.4,0.3,0.6,0.3c-0.8-0.8-1.1-2-0.2-3.1l1.4-1.6
		c-0.1-0.2-0.2-0.4-0.2-0.6c-0.1,0.1-0.1,0.1-0.2,0.2l-1.6,1.9C402.6,176,402.7,177.3,403.5,178.1z"/>
	<path style="clip-path:url(#SVGID_2_);fill:#334D5C;" d="M407.1,166.4c2.9-3.3,8.4-4.2,9.4-3.3c1,0.9,0.9,6.6-2,9.9
		c-2.9,3.3-6.3,3.9-8.4,2.1C404.1,173.2,404.2,169.7,407.1,166.4z"/>
	<path style="opacity:0.3;clip-path:url(#SVGID_2_);fill:#334D5C;" d="M406.6,170.7c1.4-1.7,4.2-2.1,4.7-1.7c0.5,0.4,0.4,3.3-1,4.9
		c-1.4,1.7-3.2,2-4.2,1C405.2,174.1,405.2,172.4,406.6,170.7z"/>
	<g style="opacity:0.5;clip-path:url(#SVGID_2_);">
		<path style="fill:#FFFFFF;" d="M413.2,172.7C413.2,172.7,413.3,172.7,413.2,172.7c0.2,0.2,0.2,0.5,0,0.7c-3.2,3.6-6.3,1.6-6.3,1.6
			c-0.2-0.1-0.3-0.4-0.1-0.7c0.1-0.2,0.4-0.3,0.7-0.1c0.1,0.1,2.5,1.6,5.1-1.4C412.8,172.6,413.1,172.6,413.2,172.7z"/>
	</g>
	<path style="clip-path:url(#SVGID_2_);fill:#333333;" d="M458.5,189.9c0.9-0.1,1.6,0.1,2.1,0.5c0-0.1,0-0.2,0-0.2l-0.2-2.5
		c-0.1-1.2-1.1-2-2.2-2c-1.1,0.1-2,1.1-1.9,2.3l0.2,2.5c0,0.1,0,0.1,0,0.2C457,190.3,457.7,190,458.5,189.9z"/>
	<path style="clip-path:url(#SVGID_2_);fill:#1A1A1A;" d="M458.2,185.8c-0.2,0-0.4,0.1-0.6,0.2c1.1,0,2.2,0.7,2.3,2.1l0.1,2.1
		c0.2,0.1,0.4,0.2,0.6,0.3c0-0.1,0-0.2,0-0.2l-0.2-2.5C460.4,186.6,459.4,185.7,458.2,185.8z"/>
	<path style="clip-path:url(#SVGID_2_);fill:#45B29D;" d="M463.9,196.6c0.3,4.4-3,9-4.3,9.1c-1.3,0.1-5.2-4-5.5-8.4
		c-0.3-4.4,1.7-7.3,4.5-7.5C461.2,189.6,463.6,192.2,463.9,196.6z"/>
	<path style="opacity:0.3;clip-path:url(#SVGID_2_);fill:#45B29D;" d="M461.2,193.2c0.2,2.2-1.5,4.5-2.2,4.5c-0.7,0-2.6-2-2.8-4.2
		c-0.2-2.2,0.9-3.6,2.2-3.7C459.9,189.7,461.1,191,461.2,193.2z"/>
	<g style="opacity:0.5;clip-path:url(#SVGID_2_);">
		<path style="fill:#FFFFFF;" d="M455.1,196.5C455.1,196.5,455.1,196.5,455.1,196.5c-0.3,0-0.5-0.2-0.5-0.5
			c-0.3-4.8,3.3-5.6,3.4-5.6c0.3-0.1,0.5,0.1,0.6,0.4c0.1,0.3-0.1,0.5-0.4,0.6c-0.1,0-2.9,0.7-2.6,4.6
			C455.6,196.2,455.4,196.5,455.1,196.5z"/>
	</g>
	<path style="clip-path:url(#SVGID_2_);fill:#333333;" d="M534.4,121c-0.6-0.6-1-1.2-1.1-1.9c-0.1,0.1-0.1,0.1-0.2,0.2l-1.6,1.9
		c-0.8,0.9-0.7,2.2,0.2,3c0.9,0.8,2.2,0.7,3-0.2l1.6-1.9c0.1-0.1,0.1-0.1,0.1-0.2C535.7,121.8,535,121.5,534.4,121z"/>
	<path style="clip-path:url(#SVGID_2_);fill:#1A1A1A;" d="M531.7,124.1c0.2,0.1,0.4,0.3,0.6,0.3c-0.8-0.8-1.1-2-0.2-3.1l1.4-1.6
		c-0.1-0.2-0.2-0.4-0.2-0.6c-0.1,0.1-0.1,0.1-0.2,0.2l-1.6,1.9C530.7,122,530.8,123.4,531.7,124.1z"/>
	<path style="clip-path:url(#SVGID_2_);fill:#E27A3F;" d="M535.2,112.4c2.9-3.3,8.4-4.2,9.4-3.3s0.9,6.6-2,9.9
		c-2.9,3.3-6.3,3.9-8.4,2.1C532.2,119.2,532.3,115.7,535.2,112.4z"/>
	<path style="opacity:0.3;clip-path:url(#SVGID_2_);fill:#E27A3F;" d="M534.8,116.7c1.4-1.7,4.2-2.1,4.7-1.7c0.5,0.4,0.4,3.3-1,4.9
		c-1.4,1.7-3.2,2-4.2,1C533.3,120.2,533.3,118.4,534.8,116.7z"/>
	<g style="opacity:0.5;clip-path:url(#SVGID_2_);">
		<path style="fill:#FFFFFF;" d="M541.4,118.8C541.4,118.8,541.4,118.8,541.4,118.8c0.2,0.2,0.2,0.5,0,0.7c-3.2,3.6-6.3,1.6-6.3,1.6
			c-0.2-0.1-0.3-0.4-0.1-0.7c0.1-0.2,0.4-0.3,0.7-0.1c0.1,0.1,2.5,1.6,5.1-1.4C540.9,118.6,541.2,118.6,541.4,118.8z"/>
	</g>
	<path style="clip-path:url(#SVGID_2_);fill:#333333;" d="M529.4-13.8c0.6-0.6,1.2-1,1.9-1.1c-0.1-0.1-0.1-0.1-0.2-0.2l-1.8-1.7
		c-0.8-0.8-2.2-0.8-3,0.1c-0.8,0.8-0.8,2.2,0.1,3l1.8,1.7c0.1,0.1,0.1,0.1,0.2,0.1C528.5-12.5,528.8-13.2,529.4-13.8z"/>
	<path style="clip-path:url(#SVGID_2_);fill:#1A1A1A;" d="M526.4-16.7c-0.2,0.2-0.3,0.4-0.4,0.5c0.8-0.8,2-1,3.1,0l1.6,1.5
		c0.2-0.1,0.4-0.2,0.6-0.2c-0.1-0.1-0.1-0.1-0.2-0.2l-1.8-1.7C528.5-17.6,527.2-17.5,526.4-16.7z"/>
	<path style="clip-path:url(#SVGID_2_);fill:#45B29D;" d="M537.9-12.6c3.2,3,3.8,8.7,2.9,9.7s-6.6,0.6-9.7-2.4s-3.6-6.5-1.7-8.5
		C531.2-15.9,534.7-15.7,537.9-12.6z"/>
	<path style="opacity:0.3;clip-path:url(#SVGID_2_);fill:#45B29D;" d="M533.6-13.3c1.6,1.5,1.9,4.3,1.5,4.8
		c-0.5,0.5-3.3,0.3-4.9-1.2s-1.8-3.3-0.9-4.3C530.3-14.9,532-14.8,533.6-13.3z"/>
	<g style="opacity:0.5;clip-path:url(#SVGID_2_);">
		<path style="fill:#FFFFFF;" d="M531.4-6.7C531.4-6.7,531.4-6.7,531.4-6.7c-0.2,0.2-0.5,0.2-0.7,0c-3.4-3.3-1.3-6.4-1.3-6.4
			c0.1-0.2,0.4-0.3,0.7-0.1c0.2,0.2,0.3,0.5,0.1,0.7c-0.1,0.1-1.6,2.5,1.2,5.2C531.5-7.2,531.5-6.9,531.4-6.7z"/>
	</g>
	<path style="clip-path:url(#SVGID_2_);fill:#333333;" d="M530.4-110.3c0.6-0.6,1.2-1,1.9-1.1c-0.1-0.1-0.1-0.1-0.2-0.2l-1.8-1.7
		c-0.8-0.8-2.2-0.8-3,0.1c-0.8,0.8-0.8,2.2,0.1,3l1.8,1.7c0.1,0.1,0.1,0.1,0.2,0.1C529.6-109,529.8-109.7,530.4-110.3z"/>
	<path style="clip-path:url(#SVGID_2_);fill:#1A1A1A;" d="M527.4-113.2c-0.2,0.2-0.3,0.4-0.4,0.5c0.8-0.8,2-1,3.1,0l1.6,1.5
		c0.2-0.1,0.4-0.2,0.6-0.2c-0.1-0.1-0.1-0.1-0.2-0.2l-1.8-1.7C529.6-114.1,528.2-114.1,527.4-113.2z"/>
	<path style="clip-path:url(#SVGID_2_);fill:#E27A3F;" d="M538.9-109.2c3.2,3,3.8,8.7,2.9,9.7c-0.9,1-6.6,0.6-9.7-2.4
		c-3.2-3-3.6-6.5-1.7-8.5C532.2-112.4,535.7-112.2,538.9-109.2z"/>
	<path style="opacity:0.3;clip-path:url(#SVGID_2_);fill:#E27A3F;" d="M534.6-109.8c1.6,1.5,1.9,4.3,1.5,4.8
		c-0.5,0.5-3.3,0.3-4.9-1.2c-1.6-1.5-1.8-3.3-0.9-4.3C531.3-111.4,533.1-111.3,534.6-109.8z"/>
	<g style="opacity:0.5;clip-path:url(#SVGID_2_);">
		<path style="fill:#FFFFFF;" d="M532.4-103.2C532.4-103.2,532.4-103.2,532.4-103.2c-0.2,0.2-0.5,0.2-0.7,0
			c-3.4-3.3-1.3-6.4-1.3-6.4c0.1-0.2,0.4-0.3,0.7-0.1c0.2,0.2,0.3,0.5,0.1,0.7c-0.1,0.1-1.6,2.5,1.2,5.2
			C532.5-103.7,532.5-103.4,532.4-103.2z"/>
	</g>
	<path style="clip-path:url(#SVGID_2_);fill:#333333;" d="M497.4-146.9c-0.6-0.6-1-1.3-1.1-1.9c-0.1,0.1-0.1,0.1-0.2,0.2l-1.7,1.8
		c-0.8,0.8-0.8,2.2,0.1,3c0.8,0.8,2.2,0.8,3-0.1l1.7-1.8c0.1-0.1,0.1-0.1,0.1-0.2C498.7-146,498-146.3,497.4-146.9z"/>
	<path style="clip-path:url(#SVGID_2_);fill:#1A1A1A;" d="M494.5-143.9c0.2,0.2,0.3,0.3,0.5,0.4c-0.7-0.8-1-2.1,0-3.1l1.5-1.6
		c-0.1-0.2-0.2-0.4-0.2-0.7c-0.1,0.1-0.1,0.1-0.2,0.2l-1.7,1.8C493.7-146,493.7-144.7,494.5-143.9z"/>
	<path style="clip-path:url(#SVGID_2_);fill:#DF5A49;" d="M498.5-155.4c3-3.2,8.6-3.9,9.6-2.9c1,0.9,0.6,6.6-2.4,9.8
		c-3,3.2-6.5,3.7-8.5,1.8C495.3-148.7,495.5-152.2,498.5-155.4z"/>
	<path style="opacity:0.3;clip-path:url(#SVGID_2_);fill:#DF5A49;" d="M497.9-151.1c1.5-1.6,4.3-1.9,4.8-1.5s0.3,3.3-1.2,4.9
		c-1.5,1.6-3.2,1.8-4.2,0.9C496.3-147.8,496.4-149.5,497.9-151.1z"/>
	<g style="opacity:0.5;clip-path:url(#SVGID_2_);">
		<path style="fill:#FFFFFF;" d="M504.4-148.8C504.4-148.8,504.4-148.8,504.4-148.8c0.2,0.2,0.2,0.5,0,0.7c-3.3,3.4-6.4,1.3-6.4,1.3
			c-0.2-0.1-0.3-0.4-0.1-0.7c0.2-0.2,0.4-0.3,0.7-0.1c0.1,0.1,2.4,1.6,5.2-1.2C504-149,504.3-149,504.4-148.8z"/>
	</g>
	<path style="clip-path:url(#SVGID_2_);fill:#333333;" d="M315.1-148.9c-0.6,0.6-1.2,1-1.9,1.1c0.1,0.1,0.1,0.1,0.2,0.2l1.8,1.7
		c0.8,0.8,2.2,0.8,3-0.1c0.8-0.8,0.8-2.2-0.1-3l-1.8-1.7c-0.1-0.1-0.1-0.1-0.2-0.1C316-150.2,315.7-149.5,315.1-148.9z"/>
	<path style="clip-path:url(#SVGID_2_);fill:#1A1A1A;" d="M318.1-146c0.2-0.2,0.3-0.4,0.4-0.5c-0.8,0.8-2,1-3.1,0l-1.6-1.5
		c-0.2,0.1-0.4,0.2-0.6,0.2c0.1,0.1,0.1,0.1,0.2,0.2l1.8,1.7C316-145.1,317.3-145.2,318.1-146z"/>
	<path style="clip-path:url(#SVGID_2_);fill:#E27A3F;" d="M306.6-150.1c-3.2-3-3.8-8.7-2.9-9.7s6.6-0.6,9.7,2.4
		c3.2,3,3.6,6.5,1.7,8.5C313.3-146.8,309.8-147.1,306.6-150.1z"/>
	<path style="opacity:0.3;clip-path:url(#SVGID_2_);fill:#E27A3F;" d="M310.9-149.4c-1.6-1.5-1.9-4.3-1.5-4.8s3.3-0.3,4.9,1.2
		c1.6,1.5,1.8,3.3,0.9,4.3C314.3-147.8,312.5-147.9,310.9-149.4z"/>
	<g style="opacity:0.5;clip-path:url(#SVGID_2_);">
		<path style="fill:#FFFFFF;" d="M313.2-156C313.2-156,313.2-156,313.2-156c0.2-0.2,0.5-0.2,0.7,0c3.4,3.3,1.3,6.4,1.3,6.4
			c-0.1,0.2-0.4,0.3-0.7,0.1c-0.2-0.2-0.3-0.5-0.1-0.7c0.1-0.1,1.6-2.5-1.2-5.2C313-155.5,313-155.8,313.2-156z"/>
	</g>
	<path style="clip-path:url(#SVGID_2_);fill:#333333;" d="M218-145.4c-0.9,0-1.6-0.2-2.1-0.6c0,0.1,0,0.2,0,0.2l0.1,2.5
		c0,1.2,1,2.1,2.2,2s2.1-1,2-2.2l-0.1-2.5c0-0.1,0-0.1,0-0.2C219.5-145.7,218.8-145.4,218-145.4z"/>
	<path style="clip-path:url(#SVGID_2_);fill:#1A1A1A;" d="M218.1-141.2c0.2,0,0.4-0.1,0.6-0.1c-1.1,0-2.2-0.7-2.2-2.2l-0.1-2.2
		c-0.2-0.1-0.4-0.2-0.6-0.3c0,0.1,0,0.2,0,0.2l0.1,2.5C216-142.1,216.9-141.2,218.1-141.2z"/>
	<path style="clip-path:url(#SVGID_2_);fill:#EFC94C;" d="M212.8-152.3c-0.1-4.4,3.4-8.9,4.7-8.9c1.3,0,5.1,4.2,5.2,8.6
		c0.1,4.4-2,7.2-4.7,7.3C215.2-145.2,212.9-147.9,212.8-152.3z"/>
	<path style="opacity:0.3;clip-path:url(#SVGID_2_);fill:#EFC94C;" d="M215.4-148.8c-0.1-2.2,1.7-4.4,2.4-4.5c0.7,0,2.5,2.1,2.6,4.3
		c0.1,2.2-1,3.6-2.4,3.6C216.6-145.2,215.4-146.6,215.4-148.8z"/>
	<g style="opacity:0.5;clip-path:url(#SVGID_2_);">
		<path style="fill:#FFFFFF;" d="M221.6-151.8C221.6-151.8,221.6-151.8,221.6-151.8c0.3,0,0.5,0.2,0.5,0.5c0.1,4.8-3.6,5.5-3.6,5.5
			c-0.3,0-0.5-0.1-0.5-0.4c0-0.3,0.1-0.5,0.4-0.6c0.1,0,2.9-0.6,2.8-4.5C221.1-151.6,221.3-151.8,221.6-151.8z"/>
	</g>
	<path style="clip-path:url(#SVGID_2_);fill:#333333;" d="M408.2-154.3c-0.6-0.6-1-1.3-1.1-1.9c-0.1,0.1-0.1,0.1-0.2,0.2l-1.7,1.8
		c-0.8,0.8-0.8,2.2,0.1,3c0.8,0.8,2.2,0.8,3-0.1l1.7-1.8c0.1-0.1,0.1-0.1,0.1-0.2C409.5-153.4,408.8-153.7,408.2-154.3z"/>
	<path style="clip-path:url(#SVGID_2_);fill:#1A1A1A;" d="M405.4-151.3c0.2,0.2,0.3,0.3,0.5,0.4c-0.7-0.8-1-2.1,0-3.1l1.5-1.6
		c-0.1-0.2-0.2-0.4-0.2-0.7c-0.1,0.1-0.1,0.1-0.2,0.2l-1.7,1.8C404.5-153.4,404.5-152.1,405.4-151.3z"/>
	<path style="clip-path:url(#SVGID_2_);fill:#45B29D;" d="M409.4-162.9c3-3.2,8.6-3.9,9.6-2.9s0.6,6.6-2.4,9.8
		c-3,3.2-6.5,3.7-8.5,1.8C406.1-156.1,406.4-159.7,409.4-162.9z"/>
	<path style="opacity:0.3;clip-path:url(#SVGID_2_);fill:#45B29D;" d="M408.8-158.6c1.5-1.6,4.3-1.9,4.8-1.5s0.3,3.3-1.2,4.9
		c-1.5,1.6-3.2,1.8-4.2,0.9C407.1-155.2,407.3-157,408.8-158.6z"/>
	<g style="opacity:0.5;clip-path:url(#SVGID_2_);">
		<path style="fill:#FFFFFF;" d="M415.3-156.3C415.3-156.3,415.3-156.3,415.3-156.3c0.2,0.2,0.2,0.5,0,0.7c-3.3,3.4-6.4,1.3-6.4,1.3
			c-0.2-0.1-0.3-0.4-0.1-0.7c0.2-0.2,0.4-0.3,0.7-0.1c0.1,0.1,2.4,1.6,5.2-1.2C414.8-156.4,415.1-156.5,415.3-156.3z"/>
	</g>
	<path style="clip-path:url(#SVGID_2_);fill:#333333;" d="M244,175.6c-0.6,0.6-1.2,1-1.9,1.1c0.1,0.1,0.1,0.1,0.2,0.2l1.8,1.7
		c0.8,0.8,2.2,0.8,3-0.1c0.8-0.8,0.8-2.2-0.1-3l-1.8-1.7c-0.1-0.1-0.1-0.1-0.2-0.1C244.8,174.3,244.5,174.9,244,175.6z"/>
	<path style="clip-path:url(#SVGID_2_);fill:#1A1A1A;" d="M247,178.4c0.2-0.2,0.3-0.4,0.4-0.5c-0.8,0.8-2,1-3.1,0l-1.6-1.5
		c-0.2,0.1-0.4,0.2-0.6,0.2c0.1,0.1,0.1,0.1,0.2,0.2l1.8,1.7C244.8,179.3,246.2,179.3,247,178.4z"/>
	<path style="clip-path:url(#SVGID_2_);fill:#45B29D;" d="M235.5,174.4c-3.2-3-3.8-8.7-2.9-9.7c0.9-1,6.6-0.6,9.7,2.4
		c3.2,3,3.6,6.5,1.7,8.5C242.2,177.7,238.7,177.4,235.5,174.4z"/>
	<path style="opacity:0.3;clip-path:url(#SVGID_2_);fill:#45B29D;" d="M239.8,175c-1.6-1.5-1.9-4.3-1.5-4.8c0.5-0.5,3.3-0.3,4.9,1.2
		c1.6,1.5,1.8,3.3,0.9,4.3C243.1,176.6,241.3,176.5,239.8,175z"/>
	<g style="opacity:0.5;clip-path:url(#SVGID_2_);">
		<path style="fill:#FFFFFF;" d="M242,168.4C242,168.4,242,168.4,242,168.4c0.2-0.2,0.5-0.2,0.7,0c3.4,3.3,1.3,6.4,1.3,6.4
			c-0.1,0.2-0.4,0.3-0.7,0.1c-0.2-0.2-0.3-0.5-0.1-0.7c0.1-0.1,1.6-2.5-1.2-5.2C241.9,168.9,241.9,168.6,242,168.4z"/>
	</g>
	<path style="clip-path:url(#SVGID_2_);fill:#333333;" d="M189.2-130.6c-0.6,0.6-1.2,1-1.9,1.1c0.1,0.1,0.1,0.1,0.2,0.2l1.8,1.7
		c0.8,0.8,2.2,0.8,3-0.1c0.8-0.8,0.8-2.2-0.1-3l-1.8-1.7c-0.1-0.1-0.1-0.1-0.2-0.1C190.1-131.9,189.8-131.3,189.2-130.6z"/>
	<path style="clip-path:url(#SVGID_2_);fill:#1A1A1A;" d="M192.2-127.8c0.2-0.2,0.3-0.4,0.4-0.5c-0.8,0.8-2,1-3.1,0l-1.6-1.5
		c-0.2,0.1-0.4,0.2-0.6,0.2c0.1,0.1,0.1,0.1,0.2,0.2l1.8,1.7C190.1-126.9,191.4-126.9,192.2-127.8z"/>
	<path style="clip-path:url(#SVGID_2_);fill:#E27A3F;" d="M180.7-131.8c-3.2-3-3.8-8.7-2.9-9.7c0.9-1,6.6-0.6,9.7,2.4
		c3.2,3,3.6,6.5,1.7,8.5C187.4-128.5,183.9-128.8,180.7-131.8z"/>
	<path style="opacity:0.3;clip-path:url(#SVGID_2_);fill:#E27A3F;" d="M185-131.2c-1.6-1.5-1.9-4.3-1.5-4.8c0.5-0.5,3.3-0.3,4.9,1.2
		c1.6,1.5,1.8,3.3,0.9,4.3C188.3-129.5,186.6-129.7,185-131.2z"/>
	<g style="opacity:0.5;clip-path:url(#SVGID_2_);">
		<path style="fill:#FFFFFF;" d="M187.3-137.8C187.3-137.8,187.3-137.8,187.3-137.8c0.2-0.2,0.5-0.2,0.7,0c3.4,3.3,1.3,6.4,1.3,6.4
			c-0.1,0.2-0.4,0.3-0.7,0.1c-0.2-0.2-0.3-0.5-0.1-0.7c0.1-0.1,1.6-2.5-1.2-5.2C187.1-137.3,187.1-137.6,187.3-137.8z"/>
	</g>
</g>
<g>
	<path style="fill:#62BA47;" d="M307.6,141.8h-1.3l-0.5,2.8h-1.3l0.5-2.8h-1.6v-1.2h1.8l0.3-2h-1.6v-1.2h1.8l0.5-2.8h1.3l-0.5,2.8
		h1.3l0.5-2.8h1.3l-0.5,2.8h1.5v1.2h-1.7l-0.3,2h1.5v1.2h-1.7l-0.5,2.8h-1.3L307.6,141.8z M306.4,140.6h1.3l0.3-2h-1.3L306.4,140.6z
		"/>
	<path style="fill:#62BA47;" d="M312.3,144.6v-7.4h3.1c1,0,1.8,0.2,2.3,0.5c0.5,0.3,0.8,0.9,0.8,1.5c0,0.3-0.1,0.7-0.3,0.9
		c-0.2,0.3-0.6,0.5-1,0.6c0.6,0.1,1,0.3,1.3,0.6c0.3,0.3,0.4,0.7,0.4,1.1c0,0.7-0.3,1.2-0.8,1.6c-0.5,0.4-1.3,0.5-2.2,0.5H312.3z
		 M314.3,140.2h1.1c0.4,0,0.6-0.1,0.8-0.2c0.2-0.1,0.3-0.3,0.3-0.5c0-0.3-0.1-0.5-0.3-0.6c-0.2-0.1-0.5-0.2-0.9-0.2h-1.1V140.2z
		 M314.3,141.5v1.6h1.6c0.4,0,0.6-0.1,0.8-0.2c0.2-0.1,0.3-0.3,0.3-0.6s-0.1-0.5-0.2-0.6c-0.2-0.1-0.4-0.2-0.8-0.2H314.3z"/>
	<path style="fill:#62BA47;" d="M324.6,142.3L324.6,142.3l1.9-5.1h2.5v7.4h-2v-4.4l0,0l-1.7,4.4h-1.3l-1.7-4.3l0,0v4.3h-2v-7.4h2.5
		L324.6,142.3z"/>
	<path style="fill:#62BA47;" d="M334,144.8c-1.1,0-2-0.3-2.6-1c-0.6-0.7-0.9-1.5-0.9-2.6v-0.3c0-1.1,0.3-2,0.9-2.7s1.4-1.1,2.5-1.1
		c1,0,1.8,0.3,2.3,0.9c0.5,0.6,0.8,1.4,0.8,2.5v1h-4.4l0,0c0,0.5,0.2,0.9,0.5,1.2c0.3,0.3,0.7,0.5,1.2,0.5c0.4,0,0.8,0,1.1-0.1
		c0.3-0.1,0.6-0.2,1-0.4l0.5,1.2c-0.3,0.2-0.7,0.4-1.2,0.6S334.6,144.8,334,144.8z M333.8,138.6c-0.4,0-0.7,0.1-0.9,0.4
		c-0.2,0.3-0.3,0.6-0.4,1.1l0,0h2.4V140c0-0.4-0.1-0.8-0.3-1C334.5,138.7,334.2,138.6,333.8,138.6z"/>
	<path style="fill:#62BA47;" d="M341.2,143.2c0.3,0,0.6-0.1,0.8-0.3c0.2-0.2,0.3-0.5,0.3-0.8h1.8l0,0c0,0.7-0.3,1.4-0.8,1.9
		c-0.6,0.5-1.3,0.8-2.1,0.8c-1.1,0-1.9-0.3-2.5-1c-0.6-0.7-0.9-1.6-0.9-2.7v-0.2c0-1.1,0.3-2,0.9-2.7c0.6-0.7,1.4-1.1,2.5-1.1
		c0.9,0,1.6,0.3,2.2,0.8s0.8,1.2,0.8,2.1l0,0h-1.8c0-0.4-0.1-0.7-0.3-1c-0.2-0.3-0.5-0.4-0.8-0.4c-0.5,0-0.9,0.2-1.1,0.6
		c-0.2,0.4-0.3,0.9-0.3,1.6v0.2c0,0.7,0.1,1.2,0.3,1.6C340.3,143,340.6,143.2,341.2,143.2z"/>
	<path style="fill:#62BA47;" d="M351.6,138.7h-2.4v5.9h-2v-5.9h-2.3v-1.5h6.7V138.7z"/>
	<path style="fill:#62BA47;" d="M355.7,144.8c-1.1,0-2-0.3-2.6-1c-0.6-0.7-0.9-1.5-0.9-2.6v-0.3c0-1.1,0.3-2,0.9-2.7
		s1.4-1.1,2.5-1.1c1,0,1.8,0.3,2.3,0.9c0.5,0.6,0.8,1.4,0.8,2.5v1h-4.4l0,0c0,0.5,0.2,0.9,0.5,1.2c0.3,0.3,0.7,0.5,1.2,0.5
		c0.4,0,0.8,0,1.1-0.1c0.3-0.1,0.6-0.2,1-0.4l0.5,1.2c-0.3,0.2-0.7,0.4-1.2,0.6S356.3,144.8,355.7,144.8z M355.6,138.6
		c-0.4,0-0.7,0.1-0.9,0.4c-0.2,0.3-0.3,0.6-0.4,1.1l0,0h2.4V140c0-0.4-0.1-0.8-0.3-1C356.2,138.7,356,138.6,355.6,138.6z"/>
	<path style="fill:#62BA47;" d="M362.9,143.2c0.3,0,0.6-0.1,0.8-0.3c0.2-0.2,0.3-0.5,0.3-0.8h1.8l0,0c0,0.7-0.3,1.4-0.8,1.9
		c-0.6,0.5-1.3,0.8-2.1,0.8c-1.1,0-1.9-0.3-2.5-1c-0.6-0.7-0.9-1.6-0.9-2.7v-0.2c0-1.1,0.3-2,0.9-2.7c0.6-0.7,1.4-1.1,2.5-1.1
		c0.9,0,1.6,0.3,2.2,0.8s0.8,1.2,0.8,2.1l0,0H364c0-0.4-0.1-0.7-0.3-1c-0.2-0.3-0.5-0.4-0.8-0.4c-0.5,0-0.9,0.2-1.1,0.6
		c-0.2,0.4-0.3,0.9-0.3,1.6v0.2c0,0.7,0.1,1.2,0.3,1.6C362,143,362.4,143.2,362.9,143.2z"/>
	<path style="fill:#62BA47;" d="M375.2,134.7v10h-2v-8.4h-2.8v3c0,1.9-0.3,3.3-0.9,4.2c-0.6,0.8-1.5,1.3-2.7,1.3h-0.3v-1.5h0.3
		c0.6,0,1-0.3,1.3-0.8s0.3-1.6,0.3-3.1v-4.5H375.2z"/>
	<path style="fill:#62BA47;" d="M376.6,140.8c0-1.1,0.3-2,0.9-2.7c0.6-0.7,1.5-1.1,2.6-1.1c1.1,0,2,0.4,2.6,1.1s0.9,1.6,0.9,2.7v0.1
		c0,1.1-0.3,2-0.9,2.7c-0.6,0.7-1.5,1-2.6,1c-1.1,0-1.9-0.3-2.6-1c-0.6-0.7-0.9-1.6-0.9-2.7V140.8z M378.6,141
		c0,0.7,0.1,1.2,0.4,1.6c0.2,0.4,0.6,0.6,1.1,0.6c0.5,0,0.9-0.2,1.1-0.6c0.2-0.4,0.4-1,0.4-1.6v-0.1c0-0.7-0.1-1.2-0.4-1.6
		s-0.6-0.6-1.1-0.6c-0.5,0-0.9,0.2-1.1,0.6c-0.2,0.4-0.4,1-0.4,1.6V141z"/>
	<path style="fill:#62BA47;" d="M387.9,143.2c0.3,0,0.6-0.1,0.8-0.3c0.2-0.2,0.3-0.5,0.3-0.8h1.8l0,0c0,0.7-0.3,1.4-0.8,1.9
		c-0.6,0.5-1.3,0.8-2.1,0.8c-1.1,0-1.9-0.3-2.5-1c-0.6-0.7-0.9-1.6-0.9-2.7v-0.2c0-1.1,0.3-2,0.9-2.7c0.6-0.7,1.4-1.1,2.5-1.1
		c0.9,0,1.6,0.3,2.2,0.8s0.8,1.2,0.8,2.1l0,0H389c0-0.4-0.1-0.7-0.3-1c-0.2-0.3-0.5-0.4-0.8-0.4c-0.5,0-0.9,0.2-1.1,0.6
		c-0.2,0.4-0.3,0.9-0.3,1.6v0.2c0,0.7,0.1,1.2,0.3,1.6C387,143,387.4,143.2,387.9,143.2z"/>
	<path style="fill:#62BA47;" d="M395.2,144.8c-1.1,0-2-0.3-2.6-1c-0.6-0.7-0.9-1.5-0.9-2.6v-0.3c0-1.1,0.3-2,0.9-2.7
		s1.4-1.1,2.5-1.1c1,0,1.8,0.3,2.3,0.9c0.5,0.6,0.8,1.4,0.8,2.5v1h-4.4l0,0c0,0.5,0.2,0.9,0.5,1.2c0.3,0.3,0.7,0.5,1.2,0.5
		c0.4,0,0.8,0,1.1-0.1c0.3-0.1,0.6-0.2,1-0.4l0.5,1.2c-0.3,0.2-0.7,0.4-1.2,0.6S395.8,144.8,395.2,144.8z M395.1,138.6
		c-0.4,0-0.7,0.1-0.9,0.4c-0.2,0.3-0.3,0.6-0.4,1.1l0,0h2.4V140c0-0.4-0.1-0.8-0.3-1C395.8,138.7,395.5,138.6,395.1,138.6z"/>
	<path style="fill:#62BA47;" d="M399.4,144.6v-7.4h3.1c1,0,1.8,0.2,2.3,0.5c0.5,0.3,0.8,0.9,0.8,1.5c0,0.3-0.1,0.7-0.3,0.9
		c-0.2,0.3-0.6,0.5-1,0.6c0.6,0.1,1,0.3,1.3,0.6c0.3,0.3,0.4,0.7,0.4,1.1c0,0.7-0.3,1.2-0.8,1.6c-0.5,0.4-1.3,0.5-2.2,0.5H399.4z
		 M401.4,140.2h1.1c0.4,0,0.6-0.1,0.8-0.2c0.2-0.1,0.3-0.3,0.3-0.5c0-0.3-0.1-0.5-0.3-0.6c-0.2-0.1-0.5-0.2-0.9-0.2h-1.1V140.2z
		 M401.4,141.5v1.6h1.6c0.4,0,0.6-0.1,0.8-0.2c0.2-0.1,0.3-0.3,0.3-0.6s-0.1-0.5-0.2-0.6c-0.2-0.1-0.4-0.2-0.8-0.2H401.4z"/>
	<path style="fill:#62BA47;" d="M406.9,140.8c0-1.1,0.3-2,0.9-2.7c0.6-0.7,1.5-1.1,2.6-1.1c1.1,0,2,0.4,2.6,1.1s0.9,1.6,0.9,2.7v0.1
		c0,1.1-0.3,2-0.9,2.7c-0.6,0.7-1.5,1-2.6,1c-1.1,0-1.9-0.3-2.6-1c-0.6-0.7-0.9-1.6-0.9-2.7V140.8z M408.9,141
		c0,0.7,0.1,1.2,0.4,1.6c0.2,0.4,0.6,0.6,1.1,0.6c0.5,0,0.9-0.2,1.1-0.6c0.2-0.4,0.4-1,0.4-1.6v-0.1c0-0.7-0.1-1.2-0.4-1.6
		s-0.6-0.6-1.1-0.6c-0.5,0-0.9,0.2-1.1,0.6c-0.2,0.4-0.4,1-0.4,1.6V141z"/>
</g>
</svg>
