<?xml version="1.0" encoding="utf-8"?>
<!-- Generator: Adobe Illustrator 19.0.0, SVG Export Plug-In . SVG Version: 6.00 Build 0)  -->
<svg version="1.1" id="Layer_1" xmlns="http://www.w3.org/2000/svg" xmlns:xlink="http://www.w3.org/1999/xlink" x="0px" y="0px"
	 viewBox="0 0 380 380" style="enable-background:new 0 0 380 380;" xml:space="preserve">
<rect id="XMLID_1_" style="fill:#1BADC3;" width="380" height="380"/>
<g id="XMLID_5_">
	<path id="XMLID_57_" style="fill:#118793;" d="M239.8,183.5C239.8,183.5,239.8,183.5,239.8,183.5c7.7,0,14.7-1.8,18.8-3.8
		c-6.3-5.8-14.8-15.8-24.1-28.5c-0.1,0-0.2,0-0.2,0c-0.3,0-0.5,0.1-0.8,0.1c-0.1,0-0.3,0-0.4,0c-0.2,0-0.5,0-0.7,0.1
		c-0.1,0-0.3,0-0.4,0c-0.3,0-0.6,0-0.9,0c-0.1,0-0.2,0-0.3,0c-0.4,0-0.7,0-1.1,0c0,0,0,0-0.1,0c0,0,0,0,0,0c-4.2,0-9.3-0.6-14-3
		c-2.1,1.8-7.4,5.6-16.7,6.5c0,0-0.1,0-0.1,0c-0.4,0-0.8,0.1-1.1,0.1c-1,0.1-2,0.1-3.1,0.1c-1.1,0-2.1,0-3.1-0.1
		c-10-0.7-15.7-4.7-17.9-6.6c-4.7,2.3-9.7,3-14,3c0,0,0,0,0,0c0,0,0,0,0,0c-0.4,0-0.8,0-1.1,0c-0.1,0-0.2,0-0.3,0
		c-0.3,0-0.6,0-0.9,0c-0.1,0-0.3,0-0.4,0c-0.3,0-0.5,0-0.8-0.1c-0.1,0-0.3,0-0.4,0c-0.3,0-0.5-0.1-0.8-0.1c-0.1,0-0.2,0-0.2,0
		c-9.3,12.8-17.8,22.8-24.1,28.5c4,2,11.1,3.8,18.8,3.8c6.8,0,12.9-1.4,17.6-4.1l1.2-0.7l0.9,1.1c0.1,0.1,8,8.6,25.5,8.6
		c17.7,0,25.4-8.5,25.5-8.6l0.9-1.1l1.2,0.7C226.9,182.1,232.9,183.5,239.8,183.5z"/>
</g>
<g id="XMLID_4_">
	<path id="XMLID_55_" style="fill:#118793;" d="M154.1,144.3c0.5,0.1,0.9,0.1,1.4,0.2c0,0,0.1,0,0.1,0c0.4,0,0.8,0.1,1.2,0.1
		c0.1,0,0.1,0,0.2,0c0.4,0,0.8,0,1.2,0.1c0.1,0,0.2,0,0.4,0c0.3,0,0.6,0,0.9,0c0.1,0,0.2,0,0.3,0c0.5,0,0.9,0,1.4,0
		c0.2,0,0.4,0,0.6,0c0.4,0,0.9-0.1,1.3-0.1c0.3,0,0.6-0.1,0.9-0.1c0.2,0,0.5-0.1,0.7-0.1c0.3,0,0.6-0.1,0.9-0.1
		c0.2,0,0.4-0.1,0.5-0.1c0.5-0.1,1-0.2,1.5-0.3c0.2-0.1,0.4-0.1,0.6-0.2c0.3-0.1,0.5-0.1,0.8-0.2c0.3-0.1,0.6-0.2,0.9-0.3
		c0.2-0.1,0.5-0.2,0.7-0.3c0.3-0.1,0.6-0.3,0.9-0.4c0.1-0.1,0.3-0.1,0.4-0.2c0.4-0.2,0.8-0.4,1.2-0.6l1.2-0.7l0.9,1.1
		c0.1,0.1,6.1,6.5,19.4,6.5c13.4,0,19.4-6.5,19.4-6.5l0,0l0.9-1l1.2,0.7c0.4,0.2,0.8,0.4,1.2,0.6c0.1,0.1,0.3,0.1,0.4,0.2
		c0.3,0.1,0.6,0.3,1,0.4c0.2,0.1,0.4,0.2,0.7,0.3c0.3,0.1,0.6,0.2,0.9,0.3c0.2,0.1,0.5,0.2,0.7,0.2c0.2,0.1,0.4,0.1,0.6,0.2
		c0.5,0.1,0.9,0.2,1.4,0.3c0.2,0,0.4,0.1,0.6,0.1c0.3,0.1,0.6,0.1,0.9,0.1c0.2,0,0.5,0.1,0.7,0.1c0.3,0,0.6,0.1,0.9,0.1
		c0.4,0,0.9,0.1,1.3,0.1c0.2,0,0.4,0,0.6,0c0.5,0,0.9,0,1.4,0c0.1,0,0.2,0,0.3,0c0.3,0,0.7,0,1,0c0.1,0,0.2,0,0.3,0
		c0.4,0,0.8,0,1.2-0.1c0,0,0.1,0,0.1,0c0.4,0,0.8-0.1,1.3-0.1c0,0,0.1,0,0.1,0c0.5,0,0.9-0.1,1.4-0.2c3.2-0.4,6.2-1.3,8.3-2.3
		c-5.9-5.4-13.9-15.3-22.4-27.5c-0.1,0-0.3,0-0.4,0c-0.2,0-0.4,0-0.6,0c-0.2,0-0.5,0-0.7,0c-0.2,0-0.4,0-0.6,0c-0.2,0-0.5,0-0.7-0.1
		c-0.2,0-0.4,0-0.6-0.1c-0.2,0-0.5-0.1-0.7-0.1c-0.2,0-0.4-0.1-0.5-0.1c-0.2,0-0.5-0.1-0.7-0.1c-0.2,0-0.3-0.1-0.5-0.1
		c-0.2-0.1-0.5-0.1-0.7-0.2c-0.1,0-0.3-0.1-0.4-0.1c-0.3-0.1-0.5-0.2-0.7-0.2c-0.1,0-0.2-0.1-0.4-0.1c-0.4-0.1-0.7-0.3-1.1-0.4l0,0
		c-0.3-0.1-0.6-0.3-0.9-0.4c-2,1.7-7.2,5.1-16.2,5.1c-9,0-14.2-3.4-16.2-5.1c-0.3,0.1-0.6,0.3-0.9,0.4v0c-0.3,0.1-0.7,0.3-1.1,0.4
		c-0.1,0-0.2,0.1-0.4,0.1c-0.2,0.1-0.5,0.2-0.7,0.2c-0.1,0-0.3,0.1-0.5,0.1c-0.2,0.1-0.5,0.1-0.7,0.2c-0.2,0-0.3,0.1-0.5,0.1
		c-0.2,0-0.4,0.1-0.7,0.1c-0.2,0-0.4,0.1-0.5,0.1c-0.2,0-0.5,0.1-0.7,0.1c-0.2,0-0.4,0-0.6,0.1c-0.2,0-0.5,0.1-0.7,0.1
		c-0.2,0-0.4,0-0.6,0c-0.2,0-0.5,0-0.7,0c-0.2,0-0.4,0-0.6,0c-0.1,0-0.3,0-0.4,0c-8.5,12.2-16.5,22.1-22.4,27.5
		C147.9,143,150.9,143.9,154.1,144.3z"/>
</g>
<g id="XMLID_3_">
	<path id="XMLID_53_" style="fill:#118793;" d="M211.8,81.3c-2.7,0.1-5.3-0.3-7.4-1.2c-0.1,0.1-0.3,0.2-0.4,0.3l0,0c0,0,0,0,0,0l0,0
		c-1,0.7-2.7,1.7-5.2,2.2v0c-1.3,0.3-2.8,0.4-4.2,0.4c-1.4,0-2.9-0.2-4.2-0.4v0c-2.5-0.6-4.2-1.5-5.2-2.2l0,0l0,0l0,0
		c-0.2-0.1-0.3-0.2-0.4-0.3c-2.1,0.9-4.6,1.3-7.4,1.2c-7.2,10.7-14.4,19.8-19.6,24.8c2.3,0.9,5.8,1.7,9.5,1.8c3.3,0,6.3-0.5,8.8-1.5
		c0,0,0.1,0,0.1-0.1c0.6-0.2,1.1-0.5,1.6-0.8l1.2-0.7l0.9,1.1c0.2,0.2,4.6,4.9,14.6,4.9c10.2,0,14.6-4.8,14.6-4.9l0.9-1.1l1.2,0.7
		c0.5,0.3,1.1,0.6,1.7,0.8l0,0l0,0l0,0c2.5,1,5.5,1.6,8.8,1.5c3.8-0.1,7.2-0.8,9.5-1.8C226.2,101.1,219,92,211.8,81.3z"/>
</g>
<g id="XMLID_2_">
	<path id="XMLID_51_" style="fill:#118793;" d="M194.5,42.1c-4.3,9.9-14.5,24.9-21,31.6c0.8,0.3,1.9,0.5,3,0.6
		c1.7,0.2,4.9,0.2,7.5-1.2l1.2-0.7l0.9,1v0c0,0,0.3,0.3,0.9,0.7v0c0.8,0.5,2.1,1.2,4,1.7c0,0,0.1,0,0.1,0c1.1,0.2,2.2,0.3,3.4,0.3
		c1.2,0,2.3-0.1,3.4-0.4c0,0,0,0,0.1,0c1.9-0.4,3.2-1.1,4-1.7v0c0.6-0.4,0.9-0.7,0.9-0.7l0.9-1L205,73c2.6,1.5,5.8,1.4,7.5,1.2
		c1.2-0.1,2.2-0.3,3-0.6C209,67,198.9,52,194.5,42.1z"/>
</g>
<circle id="XMLID_6_" style="fill:#FFFFFF;stroke:#FFFFFF;stroke-width:2;stroke-linecap:round;stroke-linejoin:round;stroke-miterlimit:10;" cx="187.8" cy="76.1" r="3.6"/>
<circle id="XMLID_14_" style="fill:#FFFFFF;stroke:#FFFFFF;stroke-width:2;stroke-linecap:round;stroke-linejoin:round;stroke-miterlimit:10;" cx="212.4" cy="168.4" r="3.6"/>
<circle id="XMLID_15_" style="fill:#FFFFFF;stroke:#FFFFFF;stroke-width:2;stroke-linecap:round;stroke-linejoin:round;stroke-miterlimit:10;" cx="195" cy="126.8" r="3.6"/>
<circle id="XMLID_18_" style="fill:#FFFFFF;stroke:#FFFFFF;stroke-width:2;stroke-linecap:round;stroke-linejoin:round;stroke-miterlimit:10;" cx="177.8" cy="94.3" r="2.3"/>
<circle id="XMLID_19_" style="fill:#FFFFFF;stroke:#FFFFFF;stroke-width:2;stroke-linecap:round;stroke-linejoin:round;stroke-miterlimit:10;" cx="204.8" cy="85.7" r="2.3"/>
<circle id="XMLID_16_" style="fill:#FFFFFF;stroke:#FFFFFF;stroke-width:2;stroke-linecap:round;stroke-linejoin:round;stroke-miterlimit:10;" cx="149.3" cy="172" r="3.6"/>
<circle id="XMLID_9_" style="fill:#FFFFFF;stroke:#FFFFFF;stroke-width:2;stroke-linecap:round;stroke-linejoin:round;stroke-miterlimit:10;" cx="212.4" cy="108" r="7.6"/>
<circle id="XMLID_17_" style="fill:#FFFFFF;stroke:#FFFFFF;stroke-width:2;stroke-linecap:round;stroke-linejoin:round;stroke-miterlimit:10;" cx="235.7" cy="157.6" r="7.6"/>
<circle id="XMLID_10_" style="fill:#FFFFFF;stroke:#FFFFFF;stroke-width:2;stroke-linecap:round;stroke-linejoin:round;stroke-miterlimit:10;" cx="175" cy="144.9" r="12.8"/>
<g id="XMLID_11_">
	<g id="XMLID_37_">
		<path id="XMLID_40_" style="fill:none;stroke:#FFFFFF;stroke-width:2;stroke-linecap:round;stroke-linejoin:round;" d="
			M221.8,107.8c0,0,135.6-4.6,126.6,185.5"/>
		<g id="XMLID_38_">
			<polygon id="XMLID_39_" style="fill:#FFFFFF;" points="342.6,288.3 343.7,287.4 348.4,292.7 353.4,287.7 354.4,288.7 
				348.3,294.8 			"/>
		</g>
	</g>
</g>
<g id="XMLID_20_">
	<path id="XMLID_24_" style="fill:#FFFFFF;" d="M63.1,236.4h-2V228H57v8.4h-2v-10h8.1V236.4z"/>
	<path id="XMLID_29_" style="fill:#FFFFFF;" d="M68,236.5c-1.1,0-2-0.3-2.6-1c-0.6-0.7-0.9-1.5-0.9-2.6v-0.3c0-1.1,0.3-2,0.9-2.7
		s1.4-1.1,2.5-1.1c1,0,1.8,0.3,2.3,0.9c0.5,0.6,0.8,1.4,0.8,2.5v1h-4.4l0,0c0,0.5,0.2,0.9,0.5,1.2s0.7,0.5,1.2,0.5
		c0.4,0,0.8,0,1.1-0.1s0.6-0.2,1-0.4l0.5,1.2c-0.3,0.2-0.7,0.4-1.2,0.6S68.6,236.5,68,236.5z M67.8,230.4c-0.4,0-0.7,0.1-0.9,0.4
		c-0.2,0.3-0.3,0.6-0.4,1.1l0,0H69v-0.2c0-0.4-0.1-0.8-0.3-1C68.5,230.5,68.2,230.4,67.8,230.4z"/>
	<path id="XMLID_33_" style="fill:#FFFFFF;" d="M78.8,232.9c0,1.1-0.3,2-0.8,2.6s-1.2,1-2.1,1c-0.4,0-0.7-0.1-1-0.2
		c-0.3-0.1-0.6-0.4-0.8-0.6v3.5h-2V229h1.8l0.1,0.9c0.2-0.3,0.5-0.6,0.8-0.7c0.3-0.2,0.7-0.3,1.1-0.3c0.9,0,1.6,0.4,2.1,1.1
		s0.8,1.7,0.8,2.8V232.9z M76.8,232.8c0-0.7-0.1-1.3-0.3-1.7s-0.6-0.6-1.1-0.6c-0.3,0-0.6,0.1-0.8,0.2s-0.4,0.3-0.5,0.5v3.2
		c0.1,0.2,0.3,0.4,0.5,0.5s0.5,0.2,0.8,0.2c0.5,0,0.8-0.2,1.1-0.6s0.3-0.9,0.3-1.5V232.8z"/>
	<path id="XMLID_41_" style="fill:#FFFFFF;" d="M83.2,236.5c-1.1,0-2-0.3-2.6-1c-0.6-0.7-0.9-1.5-0.9-2.6v-0.3c0-1.1,0.3-2,0.9-2.7
		s1.4-1.1,2.5-1.1c1,0,1.8,0.3,2.3,0.9c0.5,0.6,0.8,1.4,0.8,2.5v1h-4.4l0,0c0,0.5,0.2,0.9,0.5,1.2s0.7,0.5,1.2,0.5
		c0.4,0,0.8,0,1.1-0.1s0.6-0.2,1-0.4l0.5,1.2c-0.3,0.2-0.7,0.4-1.2,0.6S83.8,236.5,83.2,236.5z M83.1,230.4c-0.4,0-0.7,0.1-0.9,0.4
		c-0.2,0.3-0.3,0.6-0.4,1.1l0,0h2.4v-0.2c0-0.4-0.1-0.8-0.3-1C83.8,230.5,83.5,230.4,83.1,230.4z"/>
	<path id="XMLID_44_" style="fill:#FFFFFF;" d="M91.8,234.1L91.8,234.1l1.9-5.1h2.5v7.4h-2V232l0,0l-1.7,4.4h-1.3l-1.7-4.3l0,0v4.3
		h-2V229h2.5L91.8,234.1z"/>
	<path id="XMLID_50_" style="fill:#FFFFFF;" d="M101.2,236.5c-1.1,0-2-0.3-2.6-1c-0.6-0.7-0.9-1.5-0.9-2.6v-0.3c0-1.1,0.3-2,0.9-2.7
		s1.4-1.1,2.5-1.1c1,0,1.8,0.3,2.3,0.9c0.5,0.6,0.8,1.4,0.8,2.5v1h-4.4l0,0c0,0.5,0.2,0.9,0.5,1.2s0.7,0.5,1.2,0.5
		c0.4,0,0.8,0,1.1-0.1s0.6-0.2,1-0.4l0.5,1.2c-0.3,0.2-0.7,0.4-1.2,0.6S101.8,236.5,101.2,236.5z M101,230.4c-0.4,0-0.7,0.1-0.9,0.4
		c-0.2,0.3-0.3,0.6-0.4,1.1l0,0h2.4v-0.2c0-0.4-0.1-0.8-0.3-1C101.7,230.5,101.4,230.4,101,230.4z"/>
	<path id="XMLID_56_" style="fill:#FFFFFF;" d="M107.2,229v5.9h2V229h2v5.9h2V229h2v5.8h1.5v4h-2v-2.5h-9.5V229H107.2z"/>
	<path id="XMLID_59_" style="fill:#FFFFFF;" d="M122.3,236.4c-0.1-0.2-0.1-0.3-0.2-0.5s-0.1-0.4-0.1-0.6c-0.2,0.4-0.5,0.7-0.8,0.9
		s-0.7,0.4-1.2,0.4c-0.8,0-1.4-0.2-1.8-0.6c-0.4-0.4-0.6-0.9-0.6-1.6c0-0.7,0.3-1.3,0.8-1.7c0.6-0.4,1.4-0.6,2.4-0.6h1.1v-0.6
		c0-0.4-0.1-0.6-0.3-0.8s-0.5-0.3-0.8-0.3c-0.3,0-0.6,0.1-0.7,0.2c-0.2,0.2-0.3,0.4-0.3,0.6h-1.9l0,0c0-0.6,0.2-1.2,0.8-1.6
		c0.6-0.5,1.3-0.7,2.3-0.7c0.9,0,1.6,0.2,2.2,0.7s0.8,1.1,0.8,1.9v3.1c0,0.3,0,0.7,0.1,1s0.1,0.6,0.2,0.9H122.3z M120.5,235.1
		c0.3,0,0.7-0.1,0.9-0.3s0.5-0.4,0.6-0.6v-1h-1.1c-0.4,0-0.7,0.1-1,0.3s-0.3,0.5-0.3,0.8c0,0.3,0.1,0.5,0.2,0.6
		C120,235,120.2,235.1,120.5,235.1z"/>
	<path id="XMLID_62_" style="fill:#FFFFFF;" d="M129.9,229h2v7.4h-2v-4.5l0,0l-2.4,4.5h-2V229h2v4.5l0,0L129.9,229z M131,225.8
		L131,225.8c0,0.6-0.2,1.1-0.6,1.5c-0.4,0.4-1,0.5-1.7,0.5c-0.7,0-1.3-0.2-1.7-0.5c-0.4-0.4-0.6-0.8-0.6-1.4l0,0h1.5
		c0,0.2,0.1,0.4,0.2,0.6s0.4,0.2,0.7,0.2c0.3,0,0.5-0.1,0.6-0.2s0.2-0.4,0.2-0.6H131z"/>
	<path id="XMLID_65_" style="fill:#FFFFFF;" d="M139.6,230.5h-2.4v5.9h-2v-5.9h-2.3V229h6.7V230.5z"/>
	<path id="XMLID_67_" style="fill:#FFFFFF;" d="M143.8,236.5c-1.1,0-2-0.3-2.6-1c-0.6-0.7-0.9-1.5-0.9-2.6v-0.3c0-1.1,0.3-2,0.9-2.7
		s1.4-1.1,2.5-1.1c1,0,1.8,0.3,2.3,0.9c0.5,0.6,0.8,1.4,0.8,2.5v1h-4.4l0,0c0,0.5,0.2,0.9,0.5,1.2s0.7,0.5,1.2,0.5
		c0.4,0,0.8,0,1.1-0.1s0.6-0.2,1-0.4l0.5,1.2c-0.3,0.2-0.7,0.4-1.2,0.6S144.4,236.5,143.8,236.5z M143.6,230.4
		c-0.4,0-0.7,0.1-0.9,0.4c-0.2,0.3-0.3,0.6-0.4,1.1l0,0h2.4v-0.2c0-0.4-0.1-0.8-0.3-1C144.3,230.5,144,230.4,143.6,230.4z"/>
	<path id="XMLID_70_" style="fill:#FFFFFF;" d="M155.8,229h2v7.4h-2v-4.5l0,0l-2.4,4.5h-2V229h2v4.5l0,0L155.8,229z"/>
	<path id="XMLID_72_" style="fill:#FFFFFF;" d="M164.3,230.5h-3.1v5.9h-2V229h5.1V230.5z"/>
	<path id="XMLID_74_" style="fill:#FFFFFF;" d="M171.8,232.9c0,1.1-0.3,2-0.8,2.6s-1.2,1-2.1,1c-0.4,0-0.7-0.1-1-0.2
		c-0.3-0.1-0.6-0.4-0.8-0.6v3.5h-2V229h1.8l0.1,0.9c0.2-0.3,0.5-0.6,0.8-0.7c0.3-0.2,0.7-0.3,1.1-0.3c0.9,0,1.6,0.4,2.1,1.1
		s0.8,1.7,0.8,2.8V232.9z M169.8,232.8c0-0.7-0.1-1.3-0.3-1.7s-0.6-0.6-1.1-0.6c-0.3,0-0.6,0.1-0.8,0.2s-0.4,0.3-0.5,0.5v3.2
		c0.1,0.2,0.3,0.4,0.5,0.5s0.5,0.2,0.8,0.2c0.5,0,0.8-0.2,1.1-0.6s0.3-0.9,0.3-1.5V232.8z"/>
	<path id="XMLID_77_" style="fill:#FFFFFF;" d="M175.6,233.3l0.1,0.4h0l1.4-4.7h2.1l-3,8.5c-0.2,0.5-0.5,1-0.9,1.3
		c-0.4,0.4-0.9,0.5-1.6,0.5c-0.2,0-0.3,0-0.5,0s-0.3-0.1-0.5-0.1l0.2-1.5c0.1,0,0.1,0,0.2,0s0.1,0,0.2,0c0.3,0,0.6-0.1,0.8-0.2
		c0.2-0.2,0.3-0.4,0.4-0.6l0.2-0.6l-2.6-7.4h2.1L175.6,233.3z"/>
	<path id="XMLID_79_" style="fill:#FFFFFF;" d="M182.1,229v5.9h2V229h2v5.9h2V229h2v7.4h-10V229H182.1z"/>
	<path id="XMLID_81_" style="fill:#FFFFFF;" d="M194.5,233.6h-0.8v2.8h-2V229h2v2.8h0.6l1.7-2.8h2.5l-2.4,3.4l2.7,4h-2.7
		L194.5,233.6z"/>
	<path id="XMLID_83_" style="fill:#FFFFFF;" d="M204.1,229h2v7.4h-2v-4.5l0,0l-2.4,4.5h-2V229h2v4.5l0,0L204.1,229z"/>
	<path id="XMLID_85_" style="fill:#FFFFFF;" d="M217.4,236.4h-2v-5.9H213v5.9h-2V229h6.4V236.4z"/>
	<path id="XMLID_87_" style="fill:#FFFFFF;" d="M218.6,232.6c0-1.1,0.3-2,0.9-2.7c0.6-0.7,1.5-1.1,2.6-1.1c1.1,0,2,0.4,2.6,1.1
		s0.9,1.6,0.9,2.7v0.1c0,1.1-0.3,2-0.9,2.7c-0.6,0.7-1.5,1-2.6,1c-1.1,0-1.9-0.3-2.6-1c-0.6-0.7-0.9-1.6-0.9-2.7V232.6z
		 M220.6,232.8c0,0.7,0.1,1.2,0.4,1.6c0.2,0.4,0.6,0.6,1.1,0.6c0.5,0,0.9-0.2,1.1-0.6c0.2-0.4,0.4-1,0.4-1.6v-0.1
		c0-0.7-0.1-1.2-0.4-1.6s-0.6-0.6-1.1-0.6c-0.5,0-0.9,0.2-1.1,0.6c-0.2,0.4-0.4,1-0.4,1.6V232.8z"/>
	<path id="XMLID_90_" style="fill:#FFFFFF;" d="M233.5,236.5c-1.1,0-2-0.3-2.6-1c-0.6-0.7-0.9-1.5-0.9-2.6v-0.3c0-1.1,0.3-2,0.9-2.7
		s1.4-1.1,2.5-1.1c1,0,1.8,0.3,2.3,0.9c0.5,0.6,0.8,1.4,0.8,2.5v1h-4.4l0,0c0,0.5,0.2,0.9,0.5,1.2c0.3,0.3,0.7,0.5,1.2,0.5
		c0.4,0,0.8,0,1.1-0.1c0.3-0.1,0.6-0.2,1-0.4l0.5,1.2c-0.3,0.2-0.7,0.4-1.2,0.6S234.1,236.5,233.5,236.5z M232.4,227.6h-1.8v-1.4
		h1.8V227.6z M233.4,230.4c-0.4,0-0.7,0.1-0.9,0.4c-0.2,0.3-0.3,0.6-0.4,1.1l0,0h2.4v-0.2c0-0.4-0.1-0.8-0.3-1
		C234.1,230.5,233.8,230.4,233.4,230.4z M235.9,227.6H234v-1.4h1.8V227.6z"/>
	<path id="XMLID_95_" style="fill:#FFFFFF;" d="M244,229v7.4h-2v-5.9h-1.8v1.6c0,1.5-0.2,2.5-0.7,3.2c-0.4,0.7-1.2,1-2.3,1H237
		l0-1.6l0.2,0c0.5,0,0.8-0.2,0.9-0.6s0.2-1.1,0.2-2.1V229H244z"/>
	<path id="XMLID_97_" style="fill:#FFFFFF;" d="M248.4,233.6h-0.8v2.8h-2V229h2v2.8h0.6l1.7-2.8h2.5l-2.4,3.4l2.7,4H250L248.4,233.6
		z"/>
	<path id="XMLID_99_" style="fill:#FFFFFF;" d="M256.6,236.5c-1.1,0-2-0.3-2.6-1c-0.6-0.7-0.9-1.5-0.9-2.6v-0.3c0-1.1,0.3-2,0.9-2.7
		s1.4-1.1,2.5-1.1c1,0,1.8,0.3,2.3,0.9c0.5,0.6,0.8,1.4,0.8,2.5v1h-4.4l0,0c0,0.5,0.2,0.9,0.5,1.2c0.3,0.3,0.7,0.5,1.2,0.5
		c0.4,0,0.8,0,1.1-0.1c0.3-0.1,0.6-0.2,1-0.4l0.5,1.2c-0.3,0.2-0.7,0.4-1.2,0.6S257.2,236.5,256.6,236.5z M256.4,230.4
		c-0.4,0-0.7,0.1-0.9,0.4c-0.2,0.3-0.3,0.6-0.4,1.1l0,0h2.4v-0.2c0-0.4-0.1-0.8-0.3-1C257.1,230.5,256.8,230.4,256.4,230.4z"/>
	<path id="XMLID_102_" style="fill:#FFFFFF;" d="M262.8,236.3l-1.1,2.2h-1.3l0.5-2.2v-1.6h1.9V236.3z"/>
	<path id="XMLID_104_" style="fill:#FFFFFF;" d="M272.3,234.1L272.3,234.1l1.9-5.1h2.5v7.4h-2V232l0,0l-1.7,4.4h-1.3l-1.7-4.3l0,0
		v4.3h-2V229h2.5L272.3,234.1z"/>
	<path id="XMLID_106_" style="fill:#FFFFFF;" d="M281.6,236.5c-1.1,0-2-0.3-2.6-1c-0.6-0.7-0.9-1.5-0.9-2.6v-0.3
		c0-1.1,0.3-2,0.9-2.7s1.4-1.1,2.5-1.1c1,0,1.8,0.3,2.3,0.9c0.5,0.6,0.8,1.4,0.8,2.5v1h-4.4l0,0c0,0.5,0.2,0.9,0.5,1.2
		c0.3,0.3,0.7,0.5,1.2,0.5c0.4,0,0.8,0,1.1-0.1c0.3-0.1,0.6-0.2,1-0.4l0.5,1.2c-0.3,0.2-0.7,0.4-1.2,0.6S282.2,236.5,281.6,236.5z
		 M281.5,230.4c-0.4,0-0.7,0.1-0.9,0.4c-0.2,0.3-0.3,0.6-0.4,1.1l0,0h2.4v-0.2c0-0.4-0.1-0.8-0.3-1
		C282.2,230.5,281.9,230.4,281.5,230.4z"/>
	<path id="XMLID_109_" style="fill:#FFFFFF;" d="M292.1,236.4h-2v-2.9h-2.4v2.9h-2V229h2v3h2.4v-3h2V236.4z"/>
	<path id="XMLID_111_" style="fill:#FFFFFF;" d="M299.9,229v7.4h-2v-2.6h-1.2l-1.4,2.6h-2l1.6-2.9c-0.5-0.2-0.8-0.5-1-0.8
		c-0.2-0.4-0.4-0.8-0.4-1.2c0-0.7,0.3-1.3,0.9-1.8c0.6-0.5,1.3-0.7,2.3-0.7H299.9z M295.5,231.5c0,0.3,0.1,0.5,0.3,0.7
		c0.2,0.2,0.5,0.3,0.8,0.3h1.3v-1.9h-1.3c-0.4,0-0.7,0.1-0.9,0.3S295.5,231.2,295.5,231.5z"/>
	<path id="XMLID_114_" style="fill:#FFFFFF;" d="M306,229h2v7.4h-2v-4.5l0,0l-2.4,4.5h-2V229h2v4.5l0,0L306,229z M307.1,225.8
		L307.1,225.8c0,0.6-0.2,1.1-0.6,1.5c-0.4,0.4-1,0.5-1.7,0.5c-0.7,0-1.3-0.2-1.7-0.5c-0.4-0.4-0.6-0.8-0.6-1.4l0,0h1.5
		c0,0.2,0.1,0.4,0.2,0.6c0.1,0.2,0.4,0.2,0.7,0.2c0.3,0,0.5-0.1,0.6-0.2c0.1-0.2,0.2-0.4,0.2-0.6H307.1z"/>
	<path id="XMLID_117_" style="fill:#FFFFFF;" d="M315.7,230.5h-2.4v5.9h-2v-5.9H309V229h6.7V230.5z"/>
	<path id="XMLID_119_" style="fill:#FFFFFF;" d="M319.9,236.5c-1.1,0-2-0.3-2.6-1c-0.6-0.7-0.9-1.5-0.9-2.6v-0.3
		c0-1.1,0.3-2,0.9-2.7s1.4-1.1,2.5-1.1c1,0,1.8,0.3,2.3,0.9c0.5,0.6,0.8,1.4,0.8,2.5v1h-4.4l0,0c0,0.5,0.2,0.9,0.5,1.2
		c0.3,0.3,0.7,0.5,1.2,0.5c0.4,0,0.8,0,1.1-0.1c0.3-0.1,0.6-0.2,1-0.4l0.5,1.2c-0.3,0.2-0.7,0.4-1.2,0.6S320.4,236.5,319.9,236.5z
		 M319.7,230.4c-0.4,0-0.7,0.1-0.9,0.4c-0.2,0.3-0.3,0.6-0.4,1.1l0,0h2.4v-0.2c0-0.4-0.1-0.8-0.3-1
		C320.4,230.5,320.1,230.4,319.7,230.4z"/>
	<path id="XMLID_122_" style="fill:#FFFFFF;" d="M59.5,245.8h2v7.4h-2v-4.5l0,0l-2.4,4.5h-2v-7.4h2v4.5l0,0L59.5,245.8z"/>
	<path id="XMLID_124_" style="fill:#FFFFFF;" d="M65.7,248.1L65.7,248.1l1.2-2.4h2.3l-2.2,3.7l2.3,3.7H67l-1.2-2.5l-1.2,2.5h-2.3
		l2.3-3.7l-2.2-3.7h2.2L65.7,248.1z"/>
	<path id="XMLID_126_" style="fill:#FFFFFF;" d="M80.3,249.7c0,1.1-0.3,2-0.8,2.6s-1.2,1-2.1,1c-0.4,0-0.7-0.1-1-0.2
		c-0.3-0.1-0.6-0.4-0.8-0.6v3.5h-2v-10.2h1.8l0.1,0.9c0.2-0.3,0.5-0.6,0.8-0.7c0.3-0.2,0.7-0.3,1.1-0.3c0.9,0,1.6,0.4,2.1,1.1
		s0.8,1.7,0.8,2.8V249.7z M78.3,249.5c0-0.7-0.1-1.3-0.3-1.7s-0.6-0.6-1.1-0.6c-0.3,0-0.6,0.1-0.8,0.2s-0.4,0.3-0.5,0.5v3.2
		c0.1,0.2,0.3,0.4,0.5,0.5s0.5,0.2,0.8,0.2c0.5,0,0.8-0.2,1.1-0.6s0.3-0.9,0.3-1.5V249.5z"/>
	<path id="XMLID_129_" style="fill:#FFFFFF;" d="M85.9,253.2c-0.1-0.2-0.1-0.3-0.2-0.5s-0.1-0.4-0.1-0.6c-0.2,0.4-0.5,0.7-0.8,0.9
		s-0.7,0.4-1.2,0.4c-0.8,0-1.4-0.2-1.8-0.6c-0.4-0.4-0.6-0.9-0.6-1.6c0-0.7,0.3-1.3,0.8-1.7c0.6-0.4,1.4-0.6,2.4-0.6h1.1v-0.6
		c0-0.4-0.1-0.6-0.3-0.8s-0.5-0.3-0.8-0.3c-0.3,0-0.6,0.1-0.7,0.2c-0.2,0.2-0.3,0.4-0.3,0.6h-1.9l0,0c0-0.6,0.2-1.2,0.8-1.6
		c0.6-0.5,1.3-0.7,2.3-0.7c0.9,0,1.6,0.2,2.2,0.7s0.8,1.1,0.8,1.9v3.1c0,0.3,0,0.7,0.1,1s0.1,0.6,0.2,0.9H85.9z M84,251.9
		c0.3,0,0.7-0.1,0.9-0.3s0.5-0.4,0.6-0.6v-1h-1.1c-0.4,0-0.7,0.1-1,0.3s-0.3,0.5-0.3,0.8c0,0.3,0.1,0.5,0.2,0.6
		C83.5,251.8,83.7,251.9,84,251.9z"/>
	<path id="XMLID_132_" style="fill:#FFFFFF;" d="M92.1,248.8c0.4,0,0.7-0.1,0.9-0.2c0.2-0.1,0.3-0.3,0.3-0.6c0-0.2-0.1-0.4-0.3-0.6
		c-0.2-0.2-0.5-0.2-0.9-0.2c-0.4,0-0.7,0.1-0.9,0.2s-0.3,0.3-0.3,0.6H89l0,0c0-0.7,0.3-1.2,0.8-1.6c0.6-0.4,1.3-0.6,2.2-0.6
		c1,0,1.8,0.2,2.4,0.6c0.6,0.4,0.9,0.9,0.9,1.6c0,0.3-0.1,0.6-0.3,0.9c-0.2,0.3-0.5,0.5-0.9,0.7c0.4,0.2,0.8,0.4,1,0.7
		s0.4,0.6,0.4,1.1c0,0.7-0.3,1.2-1,1.6c-0.6,0.4-1.5,0.6-2.5,0.6c-0.9,0-1.6-0.2-2.3-0.6s-0.9-1-0.9-1.7l0,0h1.9
		c0,0.3,0.1,0.5,0.3,0.6c0.2,0.2,0.6,0.3,1,0.3c0.4,0,0.7-0.1,1-0.3c0.2-0.2,0.3-0.4,0.3-0.7c0-0.3-0.1-0.5-0.3-0.7s-0.6-0.2-1-0.2
		h-1.2v-1.3H92.1z"/>
	<path id="XMLID_134_" style="fill:#FFFFFF;" d="M101.3,250.9L101.3,250.9l1.9-5.1h2.5v7.4h-2v-4.4l0,0l-1.7,4.4h-1.3l-1.7-4.3l0,0
		v4.3h-2v-7.4h2.5L101.3,250.9z"/>
	<path id="XMLID_136_" style="fill:#FFFFFF;" d="M110.7,253.3c-1.1,0-2-0.3-2.6-1c-0.6-0.7-0.9-1.5-0.9-2.6v-0.3
		c0-1.1,0.3-2,0.9-2.7s1.4-1.1,2.5-1.1c1,0,1.8,0.3,2.3,0.9c0.5,0.6,0.8,1.4,0.8,2.5v1h-4.4l0,0c0,0.5,0.2,0.9,0.5,1.2
		s0.7,0.5,1.2,0.5c0.4,0,0.8,0,1.1-0.1s0.6-0.2,1-0.4l0.5,1.2c-0.3,0.2-0.7,0.4-1.2,0.6S111.3,253.3,110.7,253.3z M110.5,247.2
		c-0.4,0-0.7,0.1-0.9,0.4c-0.2,0.3-0.3,0.6-0.4,1.1l0,0h2.4v-0.2c0-0.4-0.1-0.8-0.3-1C111.2,247.3,110.9,247.2,110.5,247.2z"/>
	<path id="XMLID_139_" style="fill:#FFFFFF;" d="M121.4,249.7c0,1.1-0.3,2-0.8,2.6s-1.2,1-2.1,1c-0.4,0-0.7-0.1-1-0.2
		c-0.3-0.1-0.6-0.4-0.8-0.6v3.5h-2v-10.2h1.8l0.1,0.9c0.2-0.3,0.5-0.6,0.8-0.7c0.3-0.2,0.7-0.3,1.1-0.3c0.9,0,1.6,0.4,2.1,1.1
		s0.8,1.7,0.8,2.8V249.7z M119.5,249.5c0-0.7-0.1-1.3-0.3-1.7s-0.6-0.6-1.1-0.6c-0.3,0-0.6,0.1-0.8,0.2s-0.4,0.3-0.5,0.5v3.2
		c0.1,0.2,0.3,0.4,0.5,0.5s0.5,0.2,0.8,0.2c0.5,0,0.8-0.2,1.1-0.6s0.3-0.9,0.3-1.5V249.5z"/>
	<path id="XMLID_142_" style="fill:#FFFFFF;" d="M124.9,253.2h-2v-1.8h2V253.2z"/>
	<path id="XMLID_144_" style="fill:#FFFFFF;" d="M133.8,247.7l0.2,0.6l0,0l2.1-5h2.1l-3.6,8.1c-0.3,0.6-0.6,1.1-1,1.5
		s-1,0.5-1.7,0.5c-0.3,0-0.5,0-0.7-0.1c-0.2,0-0.5-0.1-0.7-0.2l0.2-1.4c0.2,0.1,0.4,0.1,0.5,0.1c0.2,0,0.3,0,0.5,0
		c0.4,0,0.7-0.1,0.9-0.2c0.2-0.2,0.4-0.4,0.5-0.7l0.2-0.4l-3.5-7.2h2.2L133.8,247.7z"/>
	<path id="XMLID_146_" style="fill:#FFFFFF;" d="M138.8,251.7L138.8,251.7l0.2,0c0.4,0,0.6-0.2,0.8-0.6s0.2-1.2,0.3-2.2l0.2-3h5.5
		v5.9h1v4h-2v-2.4h-4.4v2.4h-2v-4H138.8z M142.1,248.8c0,0.6-0.1,1.1-0.2,1.6c-0.1,0.5-0.2,0.9-0.4,1.2h2.2v-4.3h-1.6L142.1,248.8z"
		/>
	<path id="XMLID_149_" style="fill:#FFFFFF;" d="M152.3,253.2c-0.1-0.2-0.1-0.3-0.2-0.5s-0.1-0.4-0.1-0.6c-0.2,0.4-0.5,0.7-0.8,0.9
		s-0.7,0.4-1.2,0.4c-0.8,0-1.4-0.2-1.8-0.6c-0.4-0.4-0.6-0.9-0.6-1.6c0-0.7,0.3-1.3,0.8-1.7c0.6-0.4,1.4-0.6,2.4-0.6h1.1v-0.6
		c0-0.4-0.1-0.6-0.3-0.8s-0.5-0.3-0.8-0.3c-0.3,0-0.6,0.1-0.7,0.2c-0.2,0.2-0.3,0.4-0.3,0.6h-1.9l0,0c0-0.6,0.2-1.2,0.8-1.6
		c0.6-0.5,1.3-0.7,2.3-0.7c0.9,0,1.6,0.2,2.2,0.7s0.8,1.1,0.8,1.9v3.1c0,0.3,0,0.7,0.1,1s0.1,0.6,0.2,0.9H152.3z M150.5,251.9
		c0.3,0,0.7-0.1,0.9-0.3s0.5-0.4,0.6-0.6v-1h-1.1c-0.4,0-0.7,0.1-1,0.3s-0.3,0.5-0.3,0.8c0,0.3,0.1,0.5,0.2,0.6
		C150,251.8,150.2,251.9,150.5,251.9z"/>
	<path id="XMLID_152_" style="fill:#FFFFFF;" d="M161.9,245.8v7.4h-2v-5.9h-1.8v1.6c0,1.5-0.2,2.5-0.7,3.2c-0.4,0.7-1.2,1-2.3,1
		h-0.3l0-1.6l0.2,0c0.5,0,0.8-0.2,0.9-0.6s0.2-1.1,0.2-2.1v-3.2H161.9z"/>
	<path id="XMLID_154_" style="fill:#FFFFFF;" d="M169.6,245.8v7.4h-2v-2.6h-1.2l-1.4,2.6h-2l1.6-2.9c-0.5-0.2-0.8-0.5-1-0.8
		s-0.4-0.8-0.4-1.2c0-0.7,0.3-1.3,0.9-1.8c0.6-0.5,1.3-0.7,2.3-0.7H169.6z M165.1,248.3c0,0.3,0.1,0.5,0.3,0.7
		c0.2,0.2,0.5,0.3,0.8,0.3h1.3v-1.9h-1.3c-0.4,0-0.7,0.1-0.9,0.3S165.1,248,165.1,248.3z"/>
	<path id="XMLID_157_" style="fill:#FFFFFF;" d="M175.7,245.8h2v7.4h-2v-4.5l0,0l-2.4,4.5h-2v-7.4h2v4.5l0,0L175.7,245.8z
		 M176.7,242.6L176.7,242.6c0,0.6-0.2,1.1-0.6,1.5c-0.4,0.4-1,0.5-1.7,0.5c-0.7,0-1.3-0.2-1.7-0.5c-0.4-0.4-0.6-0.8-0.6-1.4l0,0h1.5
		c0,0.2,0.1,0.4,0.2,0.6s0.4,0.2,0.7,0.2c0.3,0,0.5-0.1,0.6-0.2s0.2-0.4,0.2-0.6H176.7z"/>
	<path id="XMLID_160_" style="fill:#FFFFFF;" d="M185.4,247.3H183v5.9h-2v-5.9h-2.3v-1.5h6.7V247.3z"/>
	<path id="XMLID_162_" style="fill:#FFFFFF;" d="M189.5,253.3c-1.1,0-2-0.3-2.6-1c-0.6-0.7-0.9-1.5-0.9-2.6v-0.3
		c0-1.1,0.3-2,0.9-2.7s1.4-1.1,2.5-1.1c1,0,1.8,0.3,2.3,0.9c0.5,0.6,0.8,1.4,0.8,2.5v1h-4.4l0,0c0,0.5,0.2,0.9,0.5,1.2
		s0.7,0.5,1.2,0.5c0.4,0,0.8,0,1.1-0.1s0.6-0.2,1-0.4l0.5,1.2c-0.3,0.2-0.7,0.4-1.2,0.6S190.1,253.3,189.5,253.3z M189.4,247.2
		c-0.4,0-0.7,0.1-0.9,0.4c-0.2,0.3-0.3,0.6-0.4,1.1l0,0h2.4v-0.2c0-0.4-0.1-0.8-0.3-1C190.1,247.3,189.8,247.2,189.4,247.2z"/>
	<path id="XMLID_165_" style="fill:#FFFFFF;" d="M195.7,253.1l-1.1,2.2h-1.3l0.5-2.2v-1.6h1.9V253.1z"/>
	<path id="XMLID_167_" style="fill:#FFFFFF;" d="M207.2,253.2h-2v-5.9h-2.4v5.9h-2v-7.4h6.4V253.2z"/>
	<path id="XMLID_169_" style="fill:#FFFFFF;" d="M215.3,249.7c0,1.1-0.3,2-0.8,2.6s-1.2,1-2.1,1c-0.4,0-0.7-0.1-1-0.2
		c-0.3-0.1-0.6-0.4-0.8-0.6v3.5h-2v-10.2h1.8l0.1,0.9c0.2-0.3,0.5-0.6,0.8-0.7c0.3-0.2,0.7-0.3,1.1-0.3c0.9,0,1.6,0.4,2.1,1.1
		s0.8,1.7,0.8,2.8V249.7z M213.3,249.5c0-0.7-0.1-1.3-0.3-1.7s-0.6-0.6-1.1-0.6c-0.3,0-0.6,0.1-0.8,0.2c-0.2,0.1-0.4,0.3-0.5,0.5
		v3.2c0.1,0.2,0.3,0.4,0.5,0.5c0.2,0.1,0.5,0.2,0.8,0.2c0.5,0,0.8-0.2,1.1-0.6c0.2-0.4,0.3-0.9,0.3-1.5V249.5z"/>
	<path id="XMLID_172_" style="fill:#FFFFFF;" d="M216.2,249.4c0-1.1,0.3-2,0.9-2.7c0.6-0.7,1.5-1.1,2.6-1.1c1.1,0,2,0.4,2.6,1.1
		s0.9,1.6,0.9,2.7v0.1c0,1.1-0.3,2-0.9,2.7c-0.6,0.7-1.5,1-2.6,1c-1.1,0-1.9-0.3-2.6-1c-0.6-0.7-0.9-1.6-0.9-2.7V249.4z
		 M218.2,249.6c0,0.7,0.1,1.2,0.4,1.6c0.2,0.4,0.6,0.6,1.1,0.6c0.5,0,0.9-0.2,1.1-0.6c0.2-0.4,0.4-1,0.4-1.6v-0.1
		c0-0.7-0.1-1.2-0.4-1.6s-0.6-0.6-1.1-0.6c-0.5,0-0.9,0.2-1.1,0.6c-0.2,0.4-0.4,1-0.4,1.6V249.6z"/>
	<path id="XMLID_175_" style="fill:#FFFFFF;" d="M227.5,251.8c0.3,0,0.6-0.1,0.8-0.3c0.2-0.2,0.3-0.5,0.3-0.8h1.8l0,0
		c0,0.7-0.3,1.4-0.8,1.9c-0.6,0.5-1.3,0.8-2.1,0.8c-1.1,0-1.9-0.3-2.5-1c-0.6-0.7-0.9-1.6-0.9-2.7v-0.2c0-1.1,0.3-2,0.9-2.7
		c0.6-0.7,1.4-1.1,2.5-1.1c0.9,0,1.6,0.3,2.2,0.8s0.8,1.2,0.8,2.1l0,0h-1.8c0-0.4-0.1-0.7-0.3-1c-0.2-0.3-0.5-0.4-0.8-0.4
		c-0.5,0-0.9,0.2-1.1,0.6c-0.2,0.4-0.3,0.9-0.3,1.6v0.2c0,0.7,0.1,1.2,0.3,1.6C226.6,251.6,227,251.8,227.5,251.8z"/>
	<path id="XMLID_177_" style="fill:#FFFFFF;" d="M237.9,247.3h-2.4v5.9h-2v-5.9h-2.3v-1.5h6.7V247.3z"/>
	<path id="XMLID_179_" style="fill:#FFFFFF;" d="M238.5,249.4c0-1.1,0.3-2,0.9-2.7c0.6-0.7,1.5-1.1,2.6-1.1c1.1,0,2,0.4,2.6,1.1
		s0.9,1.6,0.9,2.7v0.1c0,1.1-0.3,2-0.9,2.7c-0.6,0.7-1.5,1-2.6,1c-1.1,0-1.9-0.3-2.6-1c-0.6-0.7-0.9-1.6-0.9-2.7V249.4z
		 M240.5,249.6c0,0.7,0.1,1.2,0.4,1.6c0.2,0.4,0.6,0.6,1.1,0.6c0.5,0,0.9-0.2,1.1-0.6c0.2-0.4,0.4-1,0.4-1.6v-0.1
		c0-0.7-0.1-1.2-0.4-1.6s-0.6-0.6-1.1-0.6c-0.5,0-0.9,0.2-1.1,0.6c-0.2,0.4-0.4,1-0.4,1.6V249.6z"/>
	<path id="XMLID_182_" style="fill:#FFFFFF;" d="M256.6,253.2h-2v-5.9h-2.4v5.9h-2v-7.4h6.4V253.2z"/>
	<path id="XMLID_184_" style="fill:#FFFFFF;" d="M261.3,253.3c-1.1,0-2-0.3-2.6-1c-0.6-0.7-0.9-1.5-0.9-2.6v-0.3
		c0-1.1,0.3-2,0.9-2.7s1.4-1.1,2.5-1.1c1,0,1.8,0.3,2.3,0.9c0.5,0.6,0.8,1.4,0.8,2.5v1h-4.4l0,0c0,0.5,0.2,0.9,0.5,1.2
		c0.3,0.3,0.7,0.5,1.2,0.5c0.4,0,0.8,0,1.1-0.1c0.3-0.1,0.6-0.2,1-0.4l0.5,1.2c-0.3,0.2-0.7,0.4-1.2,0.6S261.9,253.3,261.3,253.3z
		 M261.2,247.2c-0.4,0-0.7,0.1-0.9,0.4c-0.2,0.3-0.3,0.6-0.4,1.1l0,0h2.4v-0.2c0-0.4-0.1-0.8-0.3-1
		C261.9,247.3,261.6,247.2,261.2,247.2z"/>
	<path id="XMLID_187_" style="fill:#FFFFFF;" d="M272.1,249.7c0,1.1-0.3,2-0.8,2.6s-1.2,1-2.1,1c-0.4,0-0.7-0.1-1-0.2
		c-0.3-0.1-0.6-0.4-0.8-0.6v3.5h-2v-10.2h1.8l0.1,0.9c0.2-0.3,0.5-0.6,0.8-0.7c0.3-0.2,0.7-0.3,1.1-0.3c0.9,0,1.6,0.4,2.1,1.1
		s0.8,1.7,0.8,2.8V249.7z M270.1,249.5c0-0.7-0.1-1.3-0.3-1.7s-0.6-0.6-1.1-0.6c-0.3,0-0.6,0.1-0.8,0.2c-0.2,0.1-0.4,0.3-0.5,0.5
		v3.2c0.1,0.2,0.3,0.4,0.5,0.5c0.2,0.1,0.5,0.2,0.8,0.2c0.5,0,0.8-0.2,1.1-0.6c0.2-0.4,0.3-0.9,0.3-1.5V249.5z"/>
	<path id="XMLID_190_" style="fill:#FFFFFF;" d="M276.6,253.3c-1.1,0-2-0.3-2.6-1c-0.6-0.7-0.9-1.5-0.9-2.6v-0.3
		c0-1.1,0.3-2,0.9-2.7s1.4-1.1,2.5-1.1c1,0,1.8,0.3,2.3,0.9c0.5,0.6,0.8,1.4,0.8,2.5v1h-4.4l0,0c0,0.5,0.2,0.9,0.5,1.2
		c0.3,0.3,0.7,0.5,1.2,0.5c0.4,0,0.8,0,1.1-0.1c0.3-0.1,0.6-0.2,1-0.4l0.5,1.2c-0.3,0.2-0.7,0.4-1.2,0.6S277.2,253.3,276.6,253.3z
		 M276.4,247.2c-0.4,0-0.7,0.1-0.9,0.4c-0.2,0.3-0.3,0.6-0.4,1.1l0,0h2.4v-0.2c0-0.4-0.1-0.8-0.3-1
		C277.1,247.3,276.8,247.2,276.4,247.2z"/>
	<path id="XMLID_193_" style="fill:#FFFFFF;" d="M286.9,247.3h-2.4v5.9h-2v-5.9h-2.3v-1.5h6.7V247.3z"/>
	<path id="XMLID_195_" style="fill:#FFFFFF;" d="M292.2,253.2c-0.1-0.2-0.1-0.3-0.2-0.5c-0.1-0.2-0.1-0.4-0.1-0.6
		c-0.2,0.4-0.5,0.7-0.8,0.9s-0.7,0.4-1.2,0.4c-0.8,0-1.4-0.2-1.8-0.6c-0.4-0.4-0.6-0.9-0.6-1.6c0-0.7,0.3-1.3,0.8-1.7
		c0.6-0.4,1.4-0.6,2.4-0.6h1.1v-0.6c0-0.4-0.1-0.6-0.3-0.8s-0.5-0.3-0.8-0.3c-0.3,0-0.6,0.1-0.7,0.2c-0.2,0.2-0.3,0.4-0.3,0.6h-1.9
		l0,0c0-0.6,0.2-1.2,0.8-1.6c0.6-0.5,1.3-0.7,2.3-0.7c0.9,0,1.6,0.2,2.2,0.7c0.5,0.4,0.8,1.1,0.8,1.9v3.1c0,0.3,0,0.7,0.1,1
		c0.1,0.3,0.1,0.6,0.2,0.9H292.2z M290.3,251.9c0.3,0,0.7-0.1,0.9-0.3s0.5-0.4,0.6-0.6v-1h-1.1c-0.4,0-0.7,0.1-1,0.3
		c-0.2,0.2-0.3,0.5-0.3,0.8c0,0.3,0.1,0.5,0.2,0.6C289.8,251.8,290.1,251.9,290.3,251.9z"/>
	<path id="XMLID_198_" style="fill:#FFFFFF;" d="M297.3,245.8v5.9h2v-5.9h2v5.9h2v-5.9h2v5.8h1.5v4h-2v-2.5h-9.5v-7.4H297.3z"/>
	<path id="XMLID_200_" style="fill:#FFFFFF;" d="M312.4,245.8h2v7.4h-2v-4.5l0,0l-2.4,4.5h-2v-7.4h2v4.5l0,0L312.4,245.8z"/>
	<path id="XMLID_202_" style="fill:#FFFFFF;" d="M316,253.2v-7.4h3.1c1,0,1.8,0.2,2.3,0.5c0.5,0.3,0.8,0.9,0.8,1.5
		c0,0.3-0.1,0.7-0.3,0.9c-0.2,0.3-0.6,0.5-1,0.6c0.6,0.1,1,0.3,1.3,0.6c0.3,0.3,0.4,0.7,0.4,1.1c0,0.7-0.3,1.2-0.8,1.6
		c-0.5,0.4-1.3,0.5-2.2,0.5H316z M318,248.8h1.1c0.4,0,0.6-0.1,0.8-0.2c0.2-0.1,0.3-0.3,0.3-0.5c0-0.3-0.1-0.5-0.3-0.6
		c-0.2-0.1-0.5-0.2-0.9-0.2H318V248.8z M318,250.1v1.6h1.6c0.4,0,0.6-0.1,0.8-0.2c0.2-0.1,0.3-0.3,0.3-0.6s-0.1-0.5-0.2-0.6
		c-0.2-0.1-0.4-0.2-0.8-0.2H318z"/>
	<path id="XMLID_206_" style="fill:#FFFFFF;" d="M150.2,262.6h2v7.4h-2v-4.5l0,0l-2.4,4.5h-2v-7.4h2v4.5l0,0L150.2,262.6z"/>
	<path id="XMLID_208_" style="fill:#FFFFFF;" d="M156.5,264.9L156.5,264.9l1.2-2.4h2.3l-2.2,3.7l2.3,3.7h-2.2l-1.2-2.5l-1.2,2.5
		h-2.3l2.3-3.7l-2.2-3.7h2.2L156.5,264.9z"/>
	<path id="XMLID_210_" style="fill:#FFFFFF;" d="M164.5,270v-7.4h3.1c1,0,1.8,0.2,2.3,0.5s0.8,0.9,0.8,1.5c0,0.3-0.1,0.7-0.3,0.9
		s-0.6,0.5-1,0.6c0.6,0.1,1,0.3,1.3,0.6c0.3,0.3,0.4,0.7,0.4,1.1c0,0.7-0.3,1.2-0.8,1.6S169,270,168,270H164.5z M166.4,265.6h1.1
		c0.4,0,0.6-0.1,0.8-0.2s0.3-0.3,0.3-0.5c0-0.3-0.1-0.5-0.3-0.6c-0.2-0.1-0.5-0.2-0.9-0.2h-1.1V265.6z M166.4,266.9v1.6h1.6
		c0.4,0,0.6-0.1,0.8-0.2c0.2-0.1,0.3-0.3,0.3-0.6s-0.1-0.5-0.2-0.6s-0.4-0.2-0.8-0.2H166.4z"/>
	<path id="XMLID_214_" style="fill:#FFFFFF;" d="M178.6,267.2h-0.8v2.8h-2v-7.4h2v2.8h0.6l1.7-2.8h2.5l-2.4,3.4l2.7,4h-2.7
		L178.6,267.2z"/>
	<path id="XMLID_216_" style="fill:#FFFFFF;" d="M183.3,266.2c0-1.1,0.3-2,0.9-2.7c0.6-0.7,1.5-1.1,2.6-1.1c1.1,0,2,0.4,2.6,1.1
		s0.9,1.6,0.9,2.7v0.1c0,1.1-0.3,2-0.9,2.7c-0.6,0.7-1.5,1-2.6,1c-1.1,0-1.9-0.3-2.6-1c-0.6-0.7-0.9-1.6-0.9-2.7V266.2z
		 M185.3,266.4c0,0.7,0.1,1.2,0.4,1.6c0.2,0.4,0.6,0.6,1.1,0.6c0.5,0,0.9-0.2,1.1-0.6s0.4-1,0.4-1.6v-0.1c0-0.7-0.1-1.2-0.4-1.6
		s-0.6-0.6-1.1-0.6c-0.5,0-0.9,0.2-1.1,0.6c-0.2,0.4-0.4,1-0.4,1.6V266.4z"/>
	<path id="XMLID_219_" style="fill:#FFFFFF;" d="M198.1,266.5c0,1.1-0.3,2-0.8,2.6s-1.2,1-2.1,1c-0.4,0-0.7-0.1-1-0.2
		c-0.3-0.1-0.6-0.4-0.8-0.6v3.5h-2v-10.2h1.8l0.1,0.9c0.2-0.3,0.5-0.6,0.8-0.7c0.3-0.2,0.7-0.3,1.1-0.3c0.9,0,1.6,0.4,2.1,1.1
		s0.8,1.7,0.8,2.8V266.5z M196.1,266.3c0-0.7-0.1-1.3-0.3-1.7s-0.6-0.6-1.1-0.6c-0.3,0-0.6,0.1-0.8,0.2c-0.2,0.1-0.4,0.3-0.5,0.5
		v3.2c0.1,0.2,0.3,0.4,0.5,0.5c0.2,0.1,0.5,0.2,0.8,0.2c0.5,0,0.8-0.2,1.1-0.6c0.2-0.4,0.3-0.9,0.3-1.5V266.3z"/>
	<path id="XMLID_222_" style="fill:#FFFFFF;" d="M202.5,265.6c0.4,0,0.7-0.1,0.9-0.2c0.2-0.1,0.3-0.3,0.3-0.6c0-0.2-0.1-0.4-0.3-0.6
		c-0.2-0.2-0.5-0.2-0.9-0.2c-0.4,0-0.7,0.1-0.9,0.2s-0.3,0.3-0.3,0.6h-1.9l0,0c0-0.7,0.3-1.2,0.8-1.6c0.6-0.4,1.3-0.6,2.2-0.6
		c1,0,1.8,0.2,2.4,0.6c0.6,0.4,0.9,0.9,0.9,1.6c0,0.3-0.1,0.6-0.3,0.9c-0.2,0.3-0.5,0.5-0.9,0.7c0.4,0.2,0.8,0.4,1,0.7
		s0.4,0.6,0.4,1.1c0,0.7-0.3,1.2-1,1.6c-0.6,0.4-1.5,0.6-2.5,0.6c-0.9,0-1.6-0.2-2.3-0.6s-0.9-1-0.9-1.7l0,0h1.9
		c0,0.3,0.1,0.5,0.3,0.6c0.2,0.2,0.6,0.3,1,0.3c0.4,0,0.7-0.1,1-0.3c0.2-0.2,0.3-0.4,0.3-0.7c0-0.3-0.1-0.5-0.3-0.7s-0.6-0.2-1-0.2
		h-1.2v-1.3H202.5z"/>
	<path id="XMLID_224_" style="fill:#FFFFFF;" d="M211.6,262.6h2v7.4h-2v-4.5l0,0l-2.4,4.5h-2v-7.4h2v4.5l0,0L211.6,262.6z"/>
	<path id="XMLID_226_" style="fill:#FFFFFF;" d="M221.5,270h-2v-2.9H217v2.9h-2v-7.4h2v3h2.4v-3h2V270z"/>
	<path id="XMLID_228_" style="fill:#FFFFFF;" d="M225.6,266.9l0.1,0.4h0l1.4-4.7h2.1l-3,8.5c-0.2,0.5-0.5,1-0.9,1.3
		c-0.4,0.4-0.9,0.5-1.6,0.5c-0.2,0-0.3,0-0.5,0c-0.1,0-0.3-0.1-0.5-0.1l0.2-1.5c0.1,0,0.1,0,0.2,0s0.1,0,0.2,0
		c0.3,0,0.6-0.1,0.8-0.2c0.2-0.2,0.3-0.4,0.4-0.6l0.2-0.6l-2.6-7.4h2.1L225.6,266.9z"/>
	<path id="XMLID_230_" style="fill:#FFFFFF;" d="M231.2,270h-2v-1.8h2V270z"/>
</g>
<rect id="XMLID_7_" x="190" y="186.2" style="fill:#118793;" width="10" height="17.4"/>
<polygon id="XMLID_13_" style="fill:#FFFFFF;" points="194.5,28.5 197.5,34.6 204.3,35.6 199.4,40.3 200.6,47 194.5,43.8 188.5,47 
	189.7,40.3 184.8,35.6 191.5,34.6 "/>
<path id="XMLID_21_" style="fill:#FFFFFF;" d="M358.1,341.3c-0.1,0.1-0.2,0.1-0.3,0.1h-1.4V355c0,0.8-0.2,1.5-0.7,2.1
	c-0.4,0.6-1,0.9-1.6,0.9h-11.8c-0.6,0-1.2-0.3-1.6-0.8c-0.4-0.6-0.7-1.2-0.7-2v-13.6h-1.4c-0.1,0-0.2,0-0.3-0.1s-0.1-0.2-0.1-0.3
	v-0.9c0-0.1,0-0.2,0.1-0.3c0.1-0.1,0.2-0.1,0.3-0.1h4.4l1-2.4c0.1-0.4,0.4-0.7,0.8-0.9c0.4-0.2,0.7-0.4,1.1-0.4h4.5
	c0.4,0,0.8,0.1,1.1,0.4c0.4,0.2,0.6,0.5,0.8,0.9l1,2.4h4.4c0.1,0,0.2,0,0.3,0.1c0.1,0.1,0.1,0.2,0.1,0.3v0.9
	C358.2,341.1,358.1,341.2,358.1,341.3z M350.7,337.9c-0.1-0.1-0.1-0.1-0.2-0.2h-4.5c-0.1,0-0.2,0.1-0.2,0.2l-0.7,1.7h6.4
	L350.7,337.9z M354.5,355v-13.6h-12.7V355c0,0.2,0,0.4,0.1,0.6c0.1,0.2,0.1,0.3,0.2,0.4c0.1,0.1,0.1,0.1,0.1,0.1h11.8
	c0,0,0.1,0,0.1-0.1c0.1-0.1,0.1-0.2,0.2-0.4C354.5,355.4,354.5,355.2,354.5,355L354.5,355z M352.3,353.3h-0.9c-0.1,0-0.2,0-0.3-0.1
	c-0.1-0.1-0.1-0.2-0.1-0.3v-8.2c0-0.1,0-0.2,0.1-0.3c0.1-0.1,0.2-0.1,0.3-0.1h0.9c0.1,0,0.2,0,0.3,0.1s0.1,0.2,0.1,0.3v8.2
	c0,0.1,0,0.2-0.1,0.3S352.4,353.3,352.3,353.3z M348.6,353.3h-0.9c-0.1,0-0.2,0-0.3-0.1c-0.1-0.1-0.1-0.2-0.1-0.3v-8.2
	c0-0.1,0-0.2,0.1-0.3c0.1-0.1,0.2-0.1,0.3-0.1h0.9c0.1,0,0.2,0,0.3,0.1c0.1,0.1,0.1,0.2,0.1,0.3v8.2c0,0.1,0,0.2-0.1,0.3
	C348.9,353.3,348.8,353.3,348.6,353.3z M345,353.3h-0.9c-0.1,0-0.2,0-0.3-0.1c-0.1-0.1-0.1-0.2-0.1-0.3v-8.2c0-0.1,0-0.2,0.1-0.3
	c0.1-0.1,0.2-0.1,0.3-0.1h0.9c0.1,0,0.2,0,0.3,0.1s0.1,0.2,0.1,0.3v8.2c0,0.1,0,0.2-0.1,0.3S345.1,353.3,345,353.3z"/>
</svg>
