<?xml version="1.0" encoding="utf-8"?>
<!-- Generator: Adobe Illustrator 19.0.0, SVG Export Plug-In . SVG Version: 6.00 Build 0)  -->
<svg version="1.1" id="Layer_1" xmlns="http://www.w3.org/2000/svg" xmlns:xlink="http://www.w3.org/1999/xlink" x="0px" y="0px"
	 viewBox="-457 456.7 108 133.3" style="enable-background:new -457 456.7 108 133.3;" xml:space="preserve">
<g id="XMLID_1_">
	<path id="XMLID_9_" style="fill:#62BA47;" d="M-349,535.4c0,29.8-24.2,54-54,54s-53.9-24.2-53.9-54c0-29.8,24.2-54,54-54
		C-373.1,481.4-349,505.6-349,535.4z"/>
	<g id="XMLID_2_">
		<path id="XMLID_23_" style="fill:#FFFFFF;" d="M-416.5,527.7c-4.4,0.5-5.7,5.8-5.8,9.5l0,0l0,0c0,0.6,0,1.1,0,1.6
			c0,1.7-0.1,3.1-0.3,4.8c-0.1,0.7-0.3,2.1-0.5,2.1c-1.6,0.2-2.9-2.3-3.3-3.4c-1.1-2.8-1.9-5.6-2.4-8.5c-0.5-3.1-0.9-6.4-1.1-9.6
			c-0.1-1.3-0.1-2.6-0.1-3.9c0-0.5,0-1,0.1-1.6c0-0.4,0.1-0.9,0.1-0.9c0.4-2.3-2.9-0.1-3.6,0.9c-3.6,6.3-2.5,13.7-2.4,20.5
			c0,1.8-0.1,3.7-0.4,5.6c-0.2,1.3-0.4,3.5-1.5,4.5c-0.7,0.7-1.9,0.1-2.4-0.2c-0.9-0.5-1.4-1.4-1.5-2.4c-0.2-1-1.3-0.5-1.9,0.1
			c-0.8,0.8-1.6,2.2-1.4,3.2c0.4,2.4,2.6,4.6,5.1,3.8c4-1.2,5.7-6,6.7-9.7c0.5-1.8,0.7-3.6,0.8-5.5c0.6,2.7,1.4,5.3,2.6,7.7
			c0.9,1.8,2.5,3.6,4.8,3.2c1.7-0.3,2.9-2.1,3.7-4.2c0.8,1.8,2,3.1,4,2.9c2.2-0.2,4.1-2.6,4.9-4.4c1-2.2,1.3-4.6,1.2-6.8
			C-410.9,534-411.8,527.2-416.5,527.7z M-415,543.3c-0.1,0.4-0.2,0.9-0.4,1.3c-0.9-0.1-1.5-1.4-1.8-2c-0.7-1.5-1-3.1-1.2-4.7
			c-0.2-1.7-0.1-3.4,0.2-5.1c0.1-0.4,0.2-0.9,0.4-1.3c2.3,1.5,2.7,4.3,2.9,6.7C-414.6,539.9-414.6,541.6-415,543.3z"/>
		<path id="XMLID_20_" style="fill:#FFFFFF;" d="M-362.8,534.1c-4.8-1.8-7.6,4.8-8.4,8.3c-0.8,3.4-1.8,9.4,2.3,11.1
			c2,0.9,4.4-0.7,5.6-2c1.5-1.6,2.4-3.8,3-6C-359.2,542.1-358.4,535.7-362.8,534.1z M-365.6,549.6c-0.2,0.4-0.4,0.8-0.7,1.1
			c-0.7-0.5-1-2-1.1-2.7c-0.3-1.7-0.1-3.4,0.2-5s0.8-3.3,1.6-4.8c0.2-0.4,0.4-0.7,0.7-1.1c1.8,2.1,1.3,5.1,0.9,7.6
			C-364.5,546.4-364.9,548.1-365.6,549.6z"/>
		<path id="XMLID_15_" style="fill:#FFFFFF;" d="M-375.9,534.9c0.9-1.2,1.8-2.5,2.6-3.7c1.8-2.7,3.5-5.9,3.4-9.1
			c-0.2-3.1-4.4-3.3-6.5-2.2c-3.1,1.5-4.9,4.8-5.8,8c-1.2,4.2-1.8,8.4-2,12.6c0,0,0,0,0,0.1c-1.5,1.8-4.7,5.6-7.1,4
			c-0.6-0.4-0.9-1.2-1.2-2c2-2.1,3.7-4.2,5.3-6.7c1.4-2.2,2.4-5.9-0.3-7.4c-2.3-1.3-5.3,0.2-6.9,2.1c-1.6,1.9-2.3,4.4-2.5,6.8
			c-0.1,1.3-0.3,3.5,0,5.6c-1.4,0.9-3.2,1.4-4.8,1.1c-1.9-0.4-2.5-2.3-2.9-3.8c-0.5-2.2-0.4-4.6,0-6.8c0.1-0.7,0.3-1.4,0.5-2.1
			c0.1-0.2,0.1-0.3,0.2-0.5c1.1,0.5,1.6,2.2,1.9,3.1c0.5,1.6,4.6-1,4.2-2.5c-0.5-1.6-1.1-3.2-2.9-4c-1.7-0.8-4,0.6-5,1.6
			c-2.9,2.9-3.2,7.3-3,11.1c0.1,2.5,0.7,5.6,2.8,6.9c2.9,1.8,6.9,0.2,9.8-1.5c0.7,1.8,2.1,3.1,4.4,2.8c2.9-0.4,5.5-2,7.6-4
			c0.1,2.2,0.6,4.6,2.2,5.5c2.5,1.5,5.7-0.2,7.4-2.3c2.2-2.8,3.4-6.7,2.2-10.1C-373,535.6-374.5,535-375.9,534.9z M-392.1,533.1
			c0.2-0.6,0.4-1.2,0.8-1.8l0,0c1.2,0.3,1.4,1.8,1.2,2.7c-0.2,1.8-1.4,3.6-2.8,5.2c0-0.3,0-0.6,0-0.9
			C-393,536.6-392.6,534.8-392.1,533.1z M-376.5,524.2c0.3-0.6,0.7-1.3,1.2-1.8c0,0,0,0,0.1-0.1c1.9,2.1,0.1,5-0.9,7
			c-1,1.9-2.2,3.9-3.5,5.7c0.3-1.9,0.6-3.7,1.1-5.5S-377.5,525.9-376.5,524.2z M-377.5,546.3c-0.1,0.2-0.3,0.6-0.5,0.8
			c-0.1,0-0.3,0-0.4-0.1c-1.2-0.6-1.3-3.2-1.4-4.2c-0.1-0.9-0.1-1.8-0.1-2.8c0.5-0.6,1-1.1,1.5-1.7c1.1-0.7,1.8,0.7,2.1,1.8
			C-376,542.1-376.8,544.6-377.5,546.3z"/>
	</g>
</g>
<path id="XMLID_6_" style="fill-rule:evenodd;clip-rule:evenodd;fill:#0095B7;" d="M-428.3,486.9c0.7-0.3,1.5-0.5,2.2-0.7
	c0.3-0.7,0.9-1.3,1.9-1.4c4.5-0.4,8.9-1.2,13.3-1.9c4.5-0.7,9-1,13.5-1.2c6.6-0.3,14,0,19.7,3.7c0.8,0.5,1.5,1.2,2,2.1
	c1.3-2.1,2.9-6.5-0.3-10.6c-3.4-4.4-6.1-4.8-6.1-4.8c0.5-5.7-29.5-22.6-44.9-12c-11.8,8.2-12.9,15.2-16.2,18.5
	c-3.3,3.3-5.3,3.6-4.7,4c0.6,0.3,3.1,0.9,8.5,0.4c5.4-0.4,7.6-2.8,7.6-2.8s-0.6,1.9-0.3,5.3c0.4,3.4,2.2,3.6,2.2,3.6s0,0,0,0
	C-429.9,488.3-429.4,487.3-428.3,486.9z"/>
<path id="XMLID_46_" style="fill-rule:evenodd;clip-rule:evenodd;fill:#048499;" d="M-449,482.5c0,0.1,0,0.1,0.1,0.1
	c0.6,0.3,3.1,0.9,8.5,0.4c5.4-0.4,7.6-2.8,7.6-2.8s-1.7,2.3-1.4,5.7c2.8-0.9,1.9-0.1,8.9-3.9c7-3.7,42.5-9.8,42.5-9.8
	s-26.3-4.4-32.1-3.2c-5.8,1.2-12.1,5.4-13.4,5.5c-1.3,0.1-0.1-5.8,0-6.2c0.1-0.4-3.6,7.2-5.4,9.9c-1.9,2.6-3,2.6-8.7,3.5
	C-444.8,482.1-447.1,482.3-449,482.5z"/>
<path id="XMLID_43_" style="fill-rule:evenodd;clip-rule:evenodd;fill:#EDEDED;" d="M-376.8,488.7c4.2-1.4,4.1-9.6-1-14.2
	c-8.3-7.5-46-4.8-55,5.7c0,0-1.7,2.4-1.4,5.7c0.4,3.4,3.3,3.2,3.3,3.2s9.1-4.3,29.3-5.7C-381.4,482.1-376.8,488.7-376.8,488.7z"/>
<path id="XMLID_22_" style="fill-rule:evenodd;clip-rule:evenodd;fill:#DFDFDE;" d="M-451.1,488.3c3,1.3,6.5-0.1,7.8-3.1
	c1.2-3-0.3-6.4-3.3-7.7s-6.5,0.1-7.8,3.1C-455.6,483.6-454.2,487-451.1,488.3z"/>
<path id="XMLID_21_" style="fill-rule:evenodd;clip-rule:evenodd;fill:#EDEDED;" d="M-446.7,477.5c1.2,0.5,2.2,1.4,2.9,2.4
	c0.1,1,0,2-0.4,3c-1.2,3-4.7,4.4-7.8,3.1c-1.2-0.5-2.2-1.4-2.9-2.4c-0.1-1,0-2,0.4-3C-453.2,477.6-449.7,476.2-446.7,477.5z"/>
<path id="XMLID_16_" style="fill-rule:evenodd;clip-rule:evenodd;fill:#DDDDDD;" d="M-430.8,489.2c0,0,9.1-4.3,29.3-5.7
	c14.8-1,21.2,2.3,23.6,4.1c0.5,0.4,0.8,0.7,1,0.9c0.1,0.2,0.2,0.2,0.2,0.2c0.3-0.1,0.6-0.2,0.8-0.4c0.3-0.2,0.5-0.4,0.7-0.6
	c0.6-0.7,1.1-1.6,1.3-2.6c-0.1-0.1-0.2-0.3-0.6-0.6c-1.1-1-4-3-10.1-4.1c-3.5-0.6-8.1-0.9-14.1-0.5c-20.1,1.4-29.3,5.7-29.3,5.7
	s-0.9,0.1-1.7-0.5c-0.2-0.1-0.5-0.3-0.7-0.6c-0.4-0.5-0.8-1.2-0.9-2.2c-0.2-1.7,0.1-3.1,0.5-4.1c-0.8,0.6-1.4,1.2-2,1.9
	c0,0-1.7,2.4-1.4,5.7C-433.7,489.4-430.8,489.2-430.8,489.2z"/>
</svg>
