<?xml version="1.0" encoding="utf-8"?>
<!-- Generator: Adobe Illustrator 19.0.0, SVG Export Plug-In . SVG Version: 6.00 Build 0)  -->
<svg version="1.1" id="Layer_1" xmlns="http://www.w3.org/2000/svg" xmlns:xlink="http://www.w3.org/1999/xlink" x="0px" y="0px"
	 viewBox="56.46 28.644 156.54 192.371" style="enable-background:new 56.46 28.644 156.54 192.371;" xml:space="preserve">
<g id="XMLID_1_">
	<path id="XMLID_9_" style="fill:#62BA47;" d="M205.461,141.033c0,39.069-31.727,70.795-70.796,70.795S64,180.101,64,141.033
		s31.727-70.796,70.796-70.796S205.461,101.965,205.461,141.033z"/>
	<g id="XMLID_2_">
		<path id="XMLID_23_" style="fill:#FFFFFF;" d="M116.966,130.938c-5.768,0.655-7.473,7.604-7.604,12.455l0,0l0,0
			c0,0.787,0,1.443,0,2.098c0,2.229-0.131,4.064-0.393,6.293c-0.131,0.918-0.394,2.753-0.655,2.753
			c-2.098,0.262-3.802-3.015-4.326-4.458c-1.442-3.671-2.491-7.342-3.146-11.144c-0.655-4.064-1.18-8.39-1.442-12.586
			c-0.131-1.704-0.131-3.408-0.131-5.113c0-0.655,0-1.311,0.131-2.097c0-0.524,0.131-1.18,0.131-1.18
			c0.524-3.015-3.802-0.131-4.72,1.18c-4.72,8.259-3.278,17.961-3.146,26.877c0,2.36-0.131,4.851-0.524,7.341
			c-0.262,1.704-0.524,4.589-1.967,5.9c-0.918,0.918-2.491,0.131-3.146-0.262c-1.18-0.655-1.835-1.836-1.967-3.147
			c-0.262-1.311-1.704-0.655-2.491,0.131c-1.049,1.049-2.097,2.884-1.835,4.195c0.524,3.146,3.409,6.031,6.686,4.982
			c5.244-1.573,7.473-7.866,8.784-12.717c0.655-2.36,0.918-4.72,1.049-7.211c0.787,3.54,1.835,6.948,3.409,10.095
			c1.18,2.36,3.278,4.72,6.293,4.195c2.229-0.393,3.802-2.753,4.851-5.506c1.049,2.36,2.622,4.064,5.244,3.802
			c2.884-0.262,5.375-3.409,6.424-5.769c1.311-2.884,1.704-6.031,1.573-8.915C124.308,139.198,123.128,130.282,116.966,130.938z
			 M118.933,151.39c-0.131,0.524-0.262,1.18-0.524,1.704c-1.18-0.131-1.967-1.836-2.36-2.622c-0.918-1.967-1.311-4.065-1.573-6.162
			c-0.262-2.229-0.131-4.458,0.262-6.686c0.131-0.524,0.262-1.18,0.524-1.704c3.016,1.967,3.54,5.637,3.802,8.784
			C119.457,146.932,119.457,149.161,118.933,151.39z"/>
		<path id="XMLID_20_" style="fill:#FFFFFF;" d="M187.368,139.328c-6.293-2.36-9.964,6.293-11.013,10.881
			c-1.049,4.458-2.36,12.324,3.016,14.552c2.622,1.18,5.769-0.918,7.341-2.622c1.967-2.097,3.147-4.982,3.934-7.866
			C192.088,149.817,193.137,141.426,187.368,139.328z M183.697,159.65c-0.262,0.524-0.524,1.049-0.918,1.442
			c-0.918-0.655-1.311-2.622-1.443-3.54c-0.393-2.228-0.131-4.457,0.262-6.555c0.393-2.097,1.049-4.326,2.097-6.293
			c0.262-0.524,0.524-0.918,0.918-1.442c2.36,2.753,1.704,6.686,1.18,9.963C185.14,155.455,184.615,157.683,183.697,159.65z"/>
		<path id="XMLID_15_" style="fill:#FFFFFF;" d="M170.194,140.377c1.18-1.573,2.36-3.278,3.409-4.851
			c2.36-3.54,4.589-7.735,4.458-11.93c-0.262-4.065-5.768-4.327-8.522-2.884c-4.064,1.967-6.423,6.293-7.604,10.488
			c-1.572,5.506-2.36,11.013-2.621,16.519c0,0,0,0,0,0.131c-1.967,2.36-6.162,7.342-9.309,5.244
			c-0.787-0.524-1.18-1.573-1.573-2.622c2.622-2.753,4.851-5.506,6.948-8.784c1.836-2.884,3.146-7.735-0.393-9.702
			c-3.016-1.704-6.948,0.262-9.046,2.753s-3.016,5.769-3.278,8.915c-0.131,1.704-0.393,4.589,0,7.341
			c-1.835,1.18-4.195,1.836-6.293,1.443c-2.491-0.524-3.278-3.016-3.802-4.982c-0.655-2.884-0.524-6.031,0-8.915
			c0.131-0.918,0.393-1.836,0.655-2.753c0.131-0.262,0.131-0.393,0.262-0.655c1.442,0.655,2.098,2.884,2.491,4.065
			c0.655,2.097,6.031-1.311,5.506-3.278c-0.655-2.098-1.442-4.195-3.802-5.244c-2.229-1.049-5.244,0.787-6.556,2.097
			c-3.802,3.802-4.195,9.571-3.933,14.553c0.131,3.278,0.918,7.341,3.671,9.046c3.802,2.36,9.046,0.262,12.848-1.967
			c0.918,2.36,2.753,4.065,5.769,3.671c3.802-0.524,7.211-2.622,9.964-5.244c0.131,2.884,0.786,6.031,2.884,7.211
			c3.278,1.967,7.473-0.262,9.701-3.016c2.884-3.671,4.458-8.784,2.884-13.242C173.995,141.295,172.029,140.509,170.194,140.377z
			 M148.955,138.017c0.262-0.786,0.524-1.573,1.049-2.36l0,0c1.573,0.394,1.836,2.36,1.573,3.54
			c-0.262,2.36-1.835,4.719-3.671,6.817c0-0.394,0-0.787,0-1.18C147.775,142.606,148.299,140.246,148.955,138.017z M169.407,126.349
			c0.393-0.786,0.918-1.704,1.573-2.36c0,0,0,0,0.131-0.131c2.491,2.753,0.131,6.555-1.18,9.177
			c-1.311,2.491-2.884,5.113-4.589,7.473c0.393-2.491,0.787-4.851,1.443-7.211C167.44,130.938,168.096,128.578,169.407,126.349z
			 M168.096,155.323c-0.131,0.262-0.393,0.786-0.655,1.049c-0.131,0-0.393,0-0.524-0.131c-1.573-0.786-1.704-4.195-1.836-5.506
			c-0.131-1.18-0.131-2.36-0.131-3.671c0.655-0.787,1.311-1.443,1.967-2.229c1.442-0.918,2.36,0.918,2.753,2.36
			C170.063,149.817,169.014,153.094,168.096,155.323z"/>
	</g>
</g>
<path id="XMLID_6_" style="fill:#F2453D;" d="M101.496,77.448c0.918-0.393,1.967-0.655,2.884-0.918
	c0.393-0.918,1.18-1.704,2.491-1.836c5.9-0.524,11.668-1.573,17.437-2.491c5.9-0.918,11.799-1.311,17.699-1.573
	c8.653-0.393,18.355,0,25.828,4.851c1.049,0.655,1.967,1.573,2.622,2.753c1.704-2.753,3.802-8.522-0.393-13.897
	c-4.458-5.769-7.997-6.293-7.997-6.293c0.655-7.473-38.676-29.629-58.866-15.732c-15.47,10.75-16.912,19.928-21.239,24.254
	c-4.327,4.326-6.949,4.719-6.162,5.244c0.787,0.394,4.064,1.18,11.144,0.524c7.08-0.524,9.964-3.671,9.964-3.671
	s-0.787,2.491-0.394,6.948c0.524,4.458,2.884,4.72,2.884,4.72l0,0C99.398,79.283,100.054,77.972,101.496,77.448z"/>
<path id="XMLID_46_" style="fill:#C23731;" d="M74.357,71.68c0,0.131,0,0.131,0.131,0.131c0.787,0.394,4.065,1.18,11.144,0.524
	c7.08-0.524,9.964-3.671,9.964-3.671s-2.229,3.016-1.836,7.473c3.671-1.18,2.491-0.131,11.668-5.113
	c9.178-4.851,55.719-12.848,55.719-12.848s-34.48-5.768-42.084-4.195c-7.604,1.573-15.863,7.08-17.568,7.211s-0.131-7.605,0-8.129
	c0.131-0.524-4.719,9.439-7.08,12.979c-2.491,3.409-3.933,3.409-11.406,4.589C79.864,71.155,76.848,71.417,74.357,71.68z"/>
<path id="XMLID_43_" style="fill:#EDEDED;" d="M169.014,79.808c5.506-1.836,5.375-12.586-1.311-18.617
	c-10.881-9.833-60.307-6.293-72.106,7.473c0,0-2.229,3.146-1.836,7.473c0.524,4.458,4.327,4.195,4.327,4.195
	s11.93-5.637,38.413-7.473C162.983,71.155,169.014,79.808,169.014,79.808z"/>
<path id="XMLID_22_" style="fill:#DFDFDE;" d="M71.604,79.283c3.933,1.704,8.522-0.131,10.226-4.065
	c1.573-3.933-0.394-8.391-4.326-10.095c-3.933-1.704-8.522,0.131-10.226,4.065C65.704,73.121,67.54,77.579,71.604,79.283z"/>
<path id="XMLID_21_" style="fill:#EDEDED;" d="M77.373,65.125c1.573,0.655,2.884,1.835,3.802,3.146c0.131,1.311,0,2.622-0.524,3.933
	c-1.573,3.933-6.162,5.768-10.226,4.064c-1.573-0.655-2.884-1.835-3.802-3.146c-0.131-1.311,0-2.622,0.524-3.933
	C68.851,65.255,73.44,63.42,77.373,65.125z"/>
<path id="XMLID_16_" style="fill:#DDDDDD;" d="M98.218,80.464c0,0,11.93-5.637,38.413-7.473c19.403-1.311,27.794,3.016,30.94,5.375
	c0.655,0.525,1.049,0.918,1.311,1.18c0.131,0.262,0.262,0.262,0.262,0.262c0.393-0.131,0.787-0.262,1.049-0.524
	c0.394-0.262,0.655-0.524,0.918-0.787c0.786-0.918,1.442-2.097,1.704-3.409c-0.131-0.131-0.262-0.393-0.787-0.786
	c-1.442-1.311-5.244-3.933-13.242-5.375c-4.589-0.787-10.62-1.18-18.485-0.655c-26.352,1.835-38.413,7.473-38.413,7.473
	s-1.18,0.131-2.229-0.655c-0.262-0.131-0.655-0.393-0.918-0.786c-0.524-0.655-1.049-1.573-1.18-2.884
	c-0.262-2.229,0.131-4.065,0.655-5.375c-1.049,0.786-1.835,1.573-2.622,2.491c0,0-2.229,3.147-1.836,7.473
	C94.416,80.725,98.218,80.464,98.218,80.464z"/>
</svg>
