<?xml version="1.0" encoding="utf-8"?>
<!-- Generator: Adobe Illustrator 19.0.0, SVG Export Plug-In . SVG Version: 6.00 Build 0)  -->
<svg version="1.1" id="Layer_1" xmlns="http://www.w3.org/2000/svg" xmlns:xlink="http://www.w3.org/1999/xlink" x="0px" y="0px"
	 viewBox="0 0 40 38" style="enable-background:new 0 0 40 38;" xml:space="preserve">
<polygon id="XMLID_500_" style="opacity:0.26;fill:#7A7A7A;enable-background:new    ;" points="27.5,21.7 39.9,19 27.5,16.2 
	34.3,5.5 23.6,12.3 20.8,-0.1 18.1,12.3 7.3,5.5 14.2,16.2 1.7,19 14.2,21.7 7.3,32.5 18.1,25.6 20.8,38 23.6,25.6 34.3,32.5 "/>
<polygon id="XMLID_794_" style="fill:#CDD3D3;" points="33.5,5.5 24.9,19 33.5,32.5 20,23.8 6.5,32.5 15.1,19 6.5,5.5 20,14.1 "/>
<polygon id="XMLID_765_" style="fill:#E2E2E2;" points="20,-0.1 23.5,15.5 39.1,19 23.5,22.4 20,38 16.5,22.4 0.9,19 16.5,15.5 "/>
<polygon id="XMLID_3_" style="fill:#F2F2F2;" points="16.5,15.5 20,18.4 20,-0.1 "/>
<polygon id="XMLID_6_" style="fill:#F2F2F2;" points="16.5,15.5 19.4,19 0.9,19 "/>
<polygon id="XMLID_4_" style="fill:#F2F2F2;" points="23.5,15.5 20.6,19 39.1,19 "/>
<polygon id="XMLID_5_" style="fill:#F2F2F2;" points="16.5,22.4 20,19.5 20,38 "/>
</svg>
