<?xml version="1.0" encoding="utf-8"?>
<!-- Generator: Adobe Illustrator 19.0.0, SVG Export Plug-In . SVG Version: 6.00 Build 0)  -->
<svg version="1.1" id="Layer_1" xmlns="http://www.w3.org/2000/svg" xmlns:xlink="http://www.w3.org/1999/xlink" x="0px" y="0px"
	 viewBox="0 0 41.1 38.7" style="enable-background:new 0 0 41.1 38.7;" xml:space="preserve">
<polygon id="XMLID_282_" style="opacity:0.26;fill:#7A7A7A;enable-background:new    ;" points="21.1,0.7 27.3,13.2 41.1,15.2 
	31.1,25 33.5,38.7 21.1,32.2 8.7,38.7 11.1,25 1.1,15.2 14.9,13.2 "/>
<polygon id="XMLID_379_" style="fill:#F7D36F;" points="20,0 26.2,12.5 40,14.5 30,24.3 32.4,38 20,31.5 7.6,38 10,24.3 0,14.5 
	13.8,12.5 "/>
<ellipse id="XMLID_378_" style="opacity:0.19;fill:#FFFFFF;" cx="20" cy="16.2" rx="6.2" ry="3.5"/>
<polygon id="XMLID_405_" style="fill:#FFFFFF;" points="15.4,25.5 14.5,27.5 15.9,29.1 13.9,28.2 12.3,29.6 13.2,27.7 11.8,26 
	13.7,26.9 "/>
<polygon id="XMLID_407_" style="fill:#FFFFFF;" points="16.8,10.8 15.4,14.1 17.8,16.9 14.4,15.4 11.6,17.8 13.1,14.5 10.7,11.7 
	14.1,13.2 "/>
<polygon id="XMLID_409_" style="fill:#FFFFFF;" points="17.3,19 16.5,20.8 17.8,22.2 16,21.5 14.5,22.7 15.3,21 14,19.5 15.8,20.3 
	"/>
<polygon id="XMLID_411_" style="fill:#FFFFFF;" points="27.5,17.2 26.8,18.9 28,20.4 26.3,19.6 24.8,20.9 25.6,19.1 24.3,17.7 
	26.1,18.4 "/>
<polygon id="XMLID_412_" style="fill:#FFFFFF;" points="26.7,10.9 25.9,12.6 27.1,14.1 25.4,13.3 23.9,14.6 24.7,12.8 23.4,11.4 
	25.2,12.1 "/>
<polygon id="XMLID_410_" style="fill:#FFFFFF;" points="9.5,16 8.7,17.8 10,19.2 8.2,18.4 6.8,19.7 7.5,17.9 6.3,16.5 8,17.3 "/>
<polygon id="XMLID_408_" style="fill:#FFFFFF;" points="20.6,7.3 19.8,9 21.1,10.5 19.3,9.7 17.9,11 18.7,9.2 17.4,7.8 19.2,8.5 "/>
</svg>
