<?xml version="1.0" encoding="utf-8"?>
<!-- Generator: Adobe Illustrator 19.0.0, SVG Export Plug-In . SVG Version: 6.00 Build 0)  -->
<svg version="1.1" id="Layer_1" xmlns="http://www.w3.org/2000/svg" xmlns:xlink="http://www.w3.org/1999/xlink" x="0px" y="0px"
	 viewBox="0 0 40.8 38.7" style="enable-background:new 0 0 40.8 38.7;" xml:space="preserve">
<polygon id="XMLID_391_" style="opacity:0.26;fill:#7A7A7A;enable-background:new    ;" points="21.1,0.7 27.3,13.2 41.1,15.2 
	31.1,25 33.4,38.7 21.1,32.2 8.7,38.7 11.1,25 1.1,15.2 14.9,13.2 "/>
<polygon id="XMLID_453_" style="fill:#C62B32;" points="20,0 26.2,12.5 40,14.5 30,24.3 32.4,38 20,31.5 7.6,38 10,24.3 0,14.5 
	13.8,12.5 "/>
<polygon id="XMLID_556_" style="fill:#F7D36F;" points="23.4,6.9 8,22.3 10,24.3 9.8,25.5 25,10.2 "/>
<polygon id="XMLID_557_" style="fill:#F7D36F;" points="27.1,12.7 8.9,30.9 7.8,37 31.5,13.3 "/>
<polygon id="XMLID_558_" style="fill:#F7D36F;" points="35.4,13.9 15.2,34 20,31.5 21.2,32.2 39,14.4 "/>
<polygon id="XMLID_559_" style="fill:#F7D36F;" points="0,14.5 1.2,15.7 2.8,14.1 "/>
<polygon id="XMLID_560_" style="fill:#F7D36F;" points="8,13.4 3.5,17.9 5.7,20.1 13.1,12.6 "/>
<polygon id="XMLID_561_" style="fill:#F7D36F;" points="31.9,35.1 30.1,36.9 32.4,38 "/>
<polygon id="XMLID_562_" style="fill:#F7D36F;" points="30.5,27.4 24.2,33.7 27.2,35.3 31.2,31.3 "/>
<polygon id="XMLID_563_" style="fill:#F7D36F;" points="14.4,11.4 21.9,3.9 20.5,0.9 18.6,2.8 "/>
<ellipse id="XMLID_452_" style="opacity:0.1;fill:#FFFFFF;" cx="20" cy="16.2" rx="6.2" ry="3.5"/>
</svg>
