<?xml version="1.0" encoding="utf-8"?>
<!-- Generator: Adobe Illustrator 19.0.0, SVG Export Plug-In . SVG Version: 6.00 Build 0)  -->
<svg version="1.1" id="Layer_1" xmlns="http://www.w3.org/2000/svg" xmlns:xlink="http://www.w3.org/1999/xlink" x="0px" y="0px"
	 viewBox="0 0 41.1 49.2" style="enable-background:new 0 0 41.1 49.2;" xml:space="preserve">
<path id="XMLID_550_" style="opacity:0.4;fill:#7A7A7A;" d="M41.1,27.1c0-7.6-5.8-13.7-12.9-13.7c0,0,0,0,0,0c0,0,0,0,0,0
	c-2.1,0-4.1,0.5-5.8,1.5c0.1-0.3,0.2-0.6,0.4-0.9c1.1-0.1,2.9-0.6,4.2-1.9c2-2.1,1.9-5.5,1.9-5.5s-2.2-0.1-4.1,1.1
	c0.4-2.2,0.5-4.3-0.3-5.5C23.9,1.3,23,0.9,21.8,1c-1.5,0.1-2.6,0.7-3.3,1.8c-0.5,0.8-0.7,1.9-0.7,3.1c-0.8-0.3-1.5-0.4-1.5-0.4
	l0,1.3c0,0,0.8,0,1.6,0.5c0.4,2.8,1.5,6,2.3,7.8c0,0,0,0,0,0c-1.9-1.1-4-1.8-6.3-1.8c-7.1,0-12.9,6.1-12.9,13.7c0,1,0.1,2,0.3,3l0,0
	c0,0,3.4,19.1,14.5,19.1c1.4,0,3.3-1.1,5.2-2.5c1.9,1.4,3.8,2.5,5.2,2.5c0,0,0,0,0,0c0,0,0,0,0,0c11.1,0,14.5-19.1,14.5-19.1l0,0
	C41,29.1,41.1,28.2,41.1,27.1z M20.4,13.5c-0.6-1.6-1.3-3.6-1.7-5.6c0.1,0.1,0.3,0.3,0.4,0.5C20,9.5,20.4,11,20.4,13
	C20.5,13.2,20.4,13.3,20.4,13.5z M19.1,2.9c0.5-0.9,1.4-1.4,2.8-1.4c0.1,0,0.1,0,0.2,0c0.9,0,1.5,0.3,1.9,0.9c0.8,1.2,0.6,3.5,0,5.8
	c-0.1,0.1-0.3,0.2-0.4,0.4c-2,2.1-1.9,5.5-1.9,5.5s0.1,0,0.2,0c-0.1,0.3-0.2,0.5-0.3,0.7c0,0,0-0.1,0-0.1c0-0.2,0-0.5,0-0.7
	c0-0.2,0-0.5,0-0.7c0-0.2,0-0.5,0-0.7c0-0.1,0-0.3,0-0.4c0,0,0,0,0,0c-0.1-1.9-0.6-3.5-1.5-4.7c-0.5-0.7-1.1-1.1-1.6-1.4
	C18.5,4.9,18.6,3.7,19.1,2.9z"/>
<path id="XMLID_286_" style="fill:#984D22;" d="M20.2,16.4c-0.1,0-0.2-0.4-0.3-0.5c-0.2-0.4-4.8-10-2.5-14c0.6-1.1,1.7-1.8,3.3-1.8
	c1.2,0,2,0.3,2.6,1.1c2.3,3.5-2.6,14.2-2.8,14.7C20.4,16,20.3,16.4,20.2,16.4C20.2,16.4,20.2,16.4,20.2,16.4z M20.9,0.6
	c-0.1,0-0.1,0-0.2,0C19.4,0.6,18.5,1.1,18,2c-1.9,3.2,1.3,10.5,2.2,12.7c1-2.3,4.4-10.4,2.6-13.2C22.4,0.9,21.8,0.6,20.9,0.6z"/>
<g id="XMLID_209_">
	<path id="XMLID_210_" style="fill:#2F3440;" d="M20.1,16.9C21,12.2,20.6,8.8,19,6.6c-1.5-2-3.6-2-3.7-2l0,1.3c0.1,0,1.6,0,2.8,1.6
		c1.4,1.8,1.6,4.9,0.8,9.1L20.1,16.9z"/>
</g>
<g id="XMLID_207_" style="opacity:0.3;">
	<path id="XMLID_208_" style="fill:#2F3440;" d="M19.3,12c0,1.4-0.1,2.9-0.4,4.7l1.2,0.3c0.4-2.1,0.5-4,0.4-5.6
		C20.2,11.6,19.8,11.8,19.3,12z"/>
</g>
<path id="XMLID_205_" style="fill:#3F5666;" d="M22.4,7.6c-2,2.1-1.9,5.5-1.9,5.5s3.3,0.1,5.2-2c2-2.1,1.9-5.5,1.9-5.5
	S24.4,5.5,22.4,7.6z"/>
<path id="XMLID_203_" style="fill:#F25440;" d="M40,26.3c0-7.6-5.8-13.7-12.9-13.7c-2.6,0-5.1,0.8-7.1,2.3c-2-1.4-4.5-2.3-7.1-2.3
	C5.8,12.5,0,18.7,0,26.3c0,1,0.1,2,0.3,3l0,0c0,0,3.4,19.1,14.5,19.1c1.4,0,3.3-1.1,5.2-2.5c1.9,1.4,3.8,2.5,5.2,2.5
	c11.1,0,14.5-19.1,14.5-19.1l0,0C39.9,28.3,40,27.3,40,26.3z"/>
<path id="XMLID_247_" style="fill:#E5483C;" d="M40,26.3c0-7.6-5.8-13.7-12.9-13.7c-2.6,0-5.1,0.8-7.1,2.3l0,0v30.9
	c1.9,1.4,3.8,2.5,5.2,2.5c11.1,0,14.5-19.1,14.5-19.1l0,0C39.9,28.3,40,27.3,40,26.3z"/>
<ellipse id="XMLID_259_" style="opacity:0.1;fill:#FFFFFF;" cx="11.8" cy="19" rx="6.2" ry="3.5"/>
<g id="ticks">
</g>
</svg>
