<?xml version="1.0" encoding="utf-8"?>
<!-- Generator: Adobe Illustrator 19.0.0, SVG Export Plug-In . SVG Version: 6.00 Build 0)  -->
<svg version="1.1" id="Layer_1" xmlns="http://www.w3.org/2000/svg" xmlns:xlink="http://www.w3.org/1999/xlink" x="0px" y="0px"
	 viewBox="0 0 41.4 57.5" style="enable-background:new 0 0 41.4 57.5;" xml:space="preserve">
<path id="XMLID_470_" style="opacity:0.4;fill:#7A7A7A;" d="M40.6,42.3c-0.7-2.4-2.2-5.9-3.7-6.7c-0.1-3.9-0.7-7.7-0.7-10.2
	c0-2.4,1.8-8.7,0.9-9.5c-0.1-0.1-0.3-0.1-0.5-0.2c-1.5-0.1-5,1.6-5.1,1.7c-0.1-0.1-3.5-2.2-8.5-2.4c1.3-3.2,3.8-10.2,2-12.8
	c-0.5-0.8-1.4-1.1-2.5-1.1C21,1.2,19.9,1.9,19.3,3c-1.8,3,0.4,9.1,1.7,12.1c-5,0.3-9.1,2.4-9.1,2.4s-4.1-1.8-5.1-1.1
	c-0.9,0.8,0.5,6.8,0.5,9c0,0.1,0,0.2,0,0.2c0,0.3,0,0.5-0.1,0.8c0,0.1,0,0.1,0,0.2c0,0.3-0.1,0.6-0.1,0.9c0,0.1,0,0.1,0,0.2
	c-0.1,0.8-0.2,1.6-0.3,2.4c0,0,0,0,0,0c-0.2,1.7-0.4,3.6-0.6,5.5c-1.6,0.6-3.2,4.2-4,6.5c-1.1,3.3-1.2,6.1-0.3,6.5
	c0.7,0.2,1.7-1,2.6-2.9c0.3,2.1,0.8,3.6,1.5,3.5c0.7-0.1,1.3-1.5,1.6-3.5c0.1,0.1,0.1,0.3,0.2,0.4c0.6,1.4,1.2,2.3,1.7,2.4
	c0.2,0.2,0.4,0.4,0.6,0.6c0,0,0,0,0,0c0,0,0.1,0,0.1,0.1c0.2,0.2,0.4,0.3,0.6,0.5c0.1,0.1,0.2,0.2,0.3,0.2c0.2,0.2,0.5,0.3,0.7,0.4
	c0.1,0.1,0.2,0.1,0.3,0.2c0.2,0.1,0.5,0.3,0.8,0.4c0.1,0.1,0.3,0.1,0.4,0.2c0.3,0.1,0.6,0.2,0.9,0.3c0.1,0.1,0.3,0.1,0.4,0.2
	c0.3,0.1,0.6,0.2,0.9,0.2c0.2,0,0.3,0.1,0.5,0.1c0.3,0.1,0.5,0.1,0.8,0.1l-0.2,2.3l-0.4,0.2c-1.2,0.7-1.9,1.4-1.8,1.6l0,0
	c0.2,0.2,1,0,2-0.5c0,1,0.1,1.7,0.4,1.7l0,0c0.3,0,0.6-0.7,0.8-1.7c0.8,0.7,1.6,1.1,1.8,1l0,0c0.3-0.2-0.3-1.1-1.2-1.9l-0.4-0.4
	l0.2-2.1c0.3,0,0.5,0.1,0.8,0.1c0.2,0,0.3,0,0.5,0c0.6,0,1.2,0.1,1.9,0c0.6,0,1.1,0,1.7-0.1c0.1,0,0.2,0,0.3,0c0.5,0,1-0.1,1.5-0.2
	c0.1,0,0.2,0,0.3,0c0.3,0,0.6-0.1,0.9-0.2l0.2,2.2l-0.5,0.4c-1,0.9-1.5,1.7-1.3,1.9l0,0c0.2,0.2,1-0.2,1.8-0.9
	c0.1,1,0.4,1.7,0.7,1.7l0,0c0.3,0,0.5-0.8,0.5-1.7c1,0.5,1.8,0.8,2,0.6l0,0c0.2-0.2-0.6-1-1.7-1.7l-0.4-0.2l-0.2-2.6
	c0.2,0,0.3-0.1,0.5-0.1c0.1,0,0.2-0.1,0.3-0.1c0.4-0.1,0.7-0.2,1.1-0.4c0.1,0,0.1-0.1,0.2-0.1c0,0,0,0,0,0c0,0,0.1,0,0.1,0
	c0.2-0.1,0.5-0.2,0.7-0.3c0.1,0,0.2-0.1,0.3-0.1c0,0,0.1,0,0.1-0.1c0,0,0,0,0,0c0.3-0.1,0.5-0.3,0.7-0.4c0.1,0,0.2-0.1,0.2-0.1
	c0,0,0.1-0.1,0.1-0.1c0.2-0.1,0.4-0.3,0.6-0.4c0.1,0,0.1-0.1,0.2-0.1c0.1-0.1,0.1-0.1,0.2-0.2c0.1-0.1,0.3-0.2,0.4-0.4
	c0.1-0.1,0.1-0.1,0.2-0.2c0,0,0.1-0.1,0.1-0.1c0.3-0.2,0.7-0.7,1-1.3c0,0,0-0.1,0.1-0.1c0,0,0.1-0.1,0.1-0.1
	c0.2-0.3,0.4-0.6,0.5-0.9c0.3,1.9,0.8,3.3,1.5,3.4c0.7,0.1,1.3-1.3,1.6-3.4c0.8,1.9,1.8,3.1,2.5,2.9C41.6,48.5,41.6,45.6,40.6,42.3z
	 M22.1,15C22.1,15,22.1,15,22.1,15C22.1,15,22.1,15,22.1,15c-0.1,0-0.2,0-0.4,0c-1.1-2.5-3.7-9.1-2-12c0.5-0.9,1.4-1.4,2.7-1.4
	c0.1,0,0.1,0,0.2,0c0.9,0,1.5,0.3,1.9,0.9C26.2,5.1,23.3,12.3,22.1,15C22.1,15,22.1,15,22.1,15z"/>
<path id="XMLID_730_" style="fill:#984D22;" d="M20.6,16.5c-0.1,0-0.2-0.5-0.3-0.6c-0.2-0.4-4.7-9.9-2.4-13.7
	c0.6-1.1,1.7-1.7,3.2-1.8c1.1,0,2,0.3,2.5,1.1c2.3,3.4-2.5,14.1-2.7,14.5C20.8,16,20.7,16.5,20.6,16.5
	C20.6,16.5,20.6,16.5,20.6,16.5z M21.3,0.8c-0.1,0-0.1,0-0.2,0c-1.3,0-2.2,0.5-2.7,1.4c-1.8,3.1,1.2,10.3,2.2,12.4
	c1-2.2,4.3-10.2,2.5-12.9C22.7,1.1,22.1,0.8,21.3,0.8z"/>
<g id="XMLID_729_">
	<path id="XMLID_690_" style="fill:#FF931E;" d="M17,54l-0.4-0.4l0.5-4.9c0.1-1.2-0.1-2.1-0.4-2.2l0,0c-0.3,0-0.7,0.9-0.8,2.1
		l-0.5,5.1L15,53.9c-1.2,0.7-1.9,1.4-1.8,1.6l0,0c0.2,0.2,1,0,2-0.5c0,1,0.1,1.7,0.4,1.7l0,0c0.3,0,0.6-0.7,0.8-1.7
		c0.8,0.7,1.6,1.1,1.8,1l0,0C18.5,55.8,18,54.9,17,54z"/>
	<path id="XMLID_689_" style="fill:#FF931E;" d="M26.5,53.8l-0.4-0.2l-0.4-5.1c-0.1-1.2-0.4-2.1-0.8-2.1l0,0c-0.3,0-0.5,0.9-0.4,2.1
		l0.4,4.9l-0.5,0.4c-1,0.9-1.5,1.7-1.3,1.9l0,0c0.2,0.2,1-0.2,1.8-0.9c0.1,1,0.4,1.7,0.7,1.7l0,0c0.3,0,0.5-0.8,0.5-1.7
		c1,0.5,1.8,0.8,2,0.6l0,0C28.4,55.2,27.6,54.5,26.5,53.8z"/>
</g>
<g id="XMLID_688_">
	<path id="XMLID_234_" style="fill:#F9A704;" d="M5.4,15.6c0.9-0.8,5.1,1.1,5.1,1.1s4.7-2.4,10.3-2.4c5.5,0,9.3,2.4,9.3,2.4
		s4.7-2.3,5.7-1.5c0.9,0.8-0.9,7.1-0.9,9.5c0,7.7,5.8,26.9-14.8,27.1C-0.7,51.8,5.6,32.2,5.9,24.6C6,22.3,4.5,16.3,5.4,15.6z"/>
</g>
<path id="XMLID_711_" style="fill:#ED9B0A;" d="M35.8,15.1c-0.9-0.8-5.7,1.5-5.7,1.5s-3.8-2.4-9.3-2.4c-0.1,0-0.2,0-0.4,0v37.5
	c20.2-0.4,14.5-19.4,14.4-27.1C34.8,22.2,36.7,15.9,35.8,15.1z"/>
<path id="XMLID_687_" style="fill:#FCD2AC;" d="M34.8,24.6c0-0.1,0-0.1,0-0.2c-1.3-2.6-3.9-4.3-6.9-4.3c-3.6,0-6.6,2.5-7.5,5.8
	c-0.9-3.3-3.9-5.8-7.5-5.8c-3.2,0-5.9,1.9-7.1,4.6c-0.1,1.3-0.3,2.8-0.5,4.6c0.7,3.5,3.8,6.2,7.6,6.2c3.6,0,6.6-2.5,7.5-5.8
	c0.9,3.3,3.9,5.8,7.5,5.8c3.4,0,6.3-2.3,7.3-5.4C35,28,34.8,26.1,34.8,24.6z"/>
<path id="XMLID_686_" style="fill:#FCD2AC;" d="M20.7,36.7c-6.5,0-11.9,5.2-11.9,11.6c0,0.1,0,0.1,0,0.2c2.3,2,5.8,3.3,11.2,3.3
	c6.3,0,10.2-1.9,12.5-4.7C31.8,41.2,26.8,36.7,20.7,36.7z"/>
<path id="XMLID_685_" style="fill:#984D22;" d="M22.3,30.5c-1.4-1.6-3.5-0.6-3.7,0c-0.1,0.6,2,3.6,2,3.6S22.3,31.1,22.3,30.5z"/>
<path id="XMLID_684_" style="fill:#984D22;" d="M12.6,29.9c-2.3,0-4.1-1.7-4.4-3.9c0,0.2,0,0.3,0,0.5c0,2.4,2,4.4,4.4,4.4
	c2.4,0,4.4-2,4.4-4.4c0-0.2,0-0.3,0-0.5C16.7,28.2,14.9,29.9,12.6,29.9z"/>
<path id="XMLID_683_" style="fill:#984D22;" d="M27.9,29.9c-2.3,0-4.1-1.7-4.4-3.9c0,0.2,0,0.3,0,0.5c0,2.4,2,4.4,4.4,4.4
	c2.4,0,4.4-2,4.4-4.4c0-0.2,0-0.3,0-0.5C32,28.2,30.2,29.9,27.9,29.9z"/>
<path id="XMLID_682_" style="fill:#EF8935;" d="M31.4,40.5c0.8-3.5,2.1-5.1,3.1-5.6c1.8-1,3.9,3.7,4.7,6.7c0.9,3.3,1,6.2,0.1,6.5
	c-0.7,0.2-1.6-1-2.5-2.9c-0.3,2.1-0.9,3.5-1.6,3.4c-0.7-0.1-1.2-1.6-1.5-3.6c-0.8,1.9-1.6,3.1-2.2,2.8C30.6,47.2,30.6,44,31.4,40.5z
	"/>
<path id="XMLID_681_" style="fill:#EF8935;" d="M8.8,40.7c-0.7-3.6-1.9-5.1-2.9-5.7c-1.8-1-4,3.6-5,6.5c-1.1,3.3-1.2,6.1-0.3,6.5
	c0.7,0.2,1.7-1,2.6-2.9c0.3,2.1,0.8,3.6,1.5,3.5C5.4,48.4,6,47,6.3,44.9c0.7,1.9,1.5,3.1,2.1,2.9C9.3,47.4,9.5,44.2,8.8,40.7z"/>
<ellipse id="XMLID_185_" style="opacity:0.19;fill:#FFFFFF;" cx="20.6" cy="18.4" rx="4.2" ry="2.4"/>
<ellipse id="XMLID_186_" style="opacity:0.22;fill:#FFFFFF;" cx="27.9" cy="23.7" rx="4.2" ry="2.4"/>
<ellipse id="XMLID_187_" style="opacity:0.22;fill:#FFFFFF;" cx="12.6" cy="23.7" rx="4.2" ry="2.4"/>
<ellipse id="XMLID_188_" style="opacity:0.28;fill:#FFFFFF;" cx="20.6" cy="41.6" rx="6.2" ry="3.5"/>
<g id="ticks">
</g>
</svg>
