<?xml version="1.0" encoding="utf-8"?>
<!-- Generator: Adobe Illustrator 19.0.0, SVG Export Plug-In . SVG Version: 6.00 Build 0)  -->
<svg version="1.1" id="Layer_1" xmlns="http://www.w3.org/2000/svg" xmlns:xlink="http://www.w3.org/1999/xlink" x="0px" y="0px"
	 viewBox="-491 467.7 40 66.3" style="enable-background:new -491 467.7 40 66.3;" xml:space="preserve">
<path id="XMLID_666_" style="opacity:0.4;fill:#7A7A7A;enable-background:new    ;" d="M-450.8,498.8c0-0.8-0.1-1.6-0.2-2.4
	c-0.2-1-0.5-2-0.8-2.9c-0.1-0.3-0.2-0.6-0.4-0.8c-0.5-1.1-1.2-2.2-2-3.2c-0.2-0.2-0.4-0.5-0.6-0.7c-0.8-0.9-1.7-1.7-2.7-2.4
	c-0.2-0.2-0.5-0.3-0.7-0.5c-1.5-1-3.1-1.8-4.8-2.3c-0.4-0.1-0.7-0.2-1.1-0.3c-1.1-0.3-2.2-0.5-3.3-0.6c1.5-4.7,2.8-10.6,1.1-13.2
	c-0.7-1.1-1.9-1.5-3.4-1.4c-2,0.1-3.5,1.1-4.4,2.6c-1.7,2.9-0.7,8,0.7,12.2c-0.8,0.1-1.6,0.3-2.4,0.5c-0.4,0.1-0.7,0.2-1.1,0.3
	c-1.7,0.6-3.4,1.4-4.8,2.3c-0.2,0.2-0.5,0.3-0.7,0.5c-1,0.7-1.9,1.5-2.7,2.4c-0.2,0.2-0.4,0.5-0.6,0.7c-0.8,1-1.5,2.1-2,3.2
	c-0.1,0.3-0.2,0.5-0.4,0.8c-0.4,0.9-0.7,1.9-0.8,2.9c-0.1,0.8-0.2,1.6-0.2,2.4v0.1c-0.1,0.8,0.1,1.7,0.2,2.7c0,0,0,0.4,1,0.8
	c0.2,0.1,0.6,0.2,0.9,0.3c0,1.1,0,2.2,0,3.4c0,0.1,0,0.3,0,0.4c0,0.3,0,0.6,0,0.9c0,0.9,0.1,1.7,0.1,2.5c0,0.4,0.1,0.8,0.1,1.3
	c0.1,0.7,0.2,1.3,0.3,2c0,0.2,0.1,0.4,0.1,0.6s0.1,0.4,0.1,0.7c0,0.2,0.1,0.5,0.2,0.7c0.1,0.3,0.1,0.7,0.2,1c0,0.2,0.1,0.4,0.1,0.6
	c0.1,0.5,0.3,1.1,0.4,1.6c0.1,0.3,0.2,0.5,0.2,0.8c0.3,0.9,0.6,1.7,0.9,2.5c0.2,0,0.3,0.2,0.3,0.4c0.2,0.5,0.5,1.1,0.7,1.6
	c0.1,0.3,0.3,0.5,0.4,0.8c0.5,0.9,1,1.7,1.5,2.5c0.1,0.1,0.2,0.3,0.3,0.4c0.3,0.5,0.7,0.9,1.1,1.4c0.2,0.2,0.3,0.4,0.5,0.6
	c0.4,0.5,0.9,0.9,1.4,1.4c0.3,0.2,0.5,0.4,0.8,0.7c0.1,0.1,0.2,0.1,0.2,0.2c0.7,0.5,1.4,0.9,2.1,1.3h0.1c0.2,0.1,0.4,0.2,0.7,0.3
	c0.9,0.4,1.9,0.6,2.8,0.8c0.2,0,0.5,0.1,0.7,0.1c0.3,0,0.5,0,0.8,0c0.3,0,0.5,0,0.8,0c0.2,0,0.5,0,0.7-0.1c1-0.1,1.9-0.4,2.8-0.8
	c0.2-0.1,0.4-0.2,0.7-0.3c0,0,0,0,0.1,0c0.7-0.4,1.4-0.8,2.1-1.3c0.1-0.1,0.1-0.1,0.2-0.2c0.3-0.2,0.5-0.4,0.8-0.6
	c0.5-0.4,1-0.9,1.4-1.4c0.2-0.2,0.3-0.4,0.5-0.6c0.4-0.4,0.7-0.9,1.1-1.4c0.1-0.1,0.2-0.3,0.3-0.4c0.5-0.8,1-1.6,1.5-2.5
	c0.1-0.2,0.3-0.5,0.4-0.7c0.3-0.5,0.5-1.1,0.7-1.6c0.1-0.2,0.1-0.3,0.2-0.5c0.3-0.8,0.6-1.7,0.9-2.5c0.1-0.2,0.2-0.5,0.2-0.8
	c0.2-0.5,0.3-1.1,0.4-1.6c0-0.2,0.1-0.4,0.1-0.6c0.1-0.3,0.1-0.6,0.2-1c0.1-0.2,0.1-0.5,0.2-0.7c0-0.2,0.1-0.5,0.1-0.7
	s0.1-0.4,0.1-0.6c0.1-0.7,0.2-1.3,0.3-2c0-0.4,0.1-0.8,0.1-1.3c0.1-0.8,0.1-1.7,0.1-2.5c0-0.3,0-0.6,0-0.9c0-0.1,0-0.3,0-0.4
	c0-1.2-0.1-2.3-0.1-3.4c0.4-0.1,0.7-0.2,0.9-0.3c1.1-0.4,1-0.8,1-0.8C-450.9,500.7-450.8,499.8-450.8,498.8L-450.8,498.8z
	 M-468.5,482.5c-0.2,0-0.3,0-0.5,0c-0.1,0-0.2,0-0.2,0c-1.8-7.3,1.7-10.3,2.9-11C-465.9,474.3-467.2,478.8-468.5,482.5z
	 M-473.5,470.4c0.7-1.2,1.9-1.8,3.7-1.9c0.1,0,0.1,0,0.2,0c1.1,0,1.8,0.3,2.4,1c-1.1,0.7-6.1,4.2-4.2,12.9c-0.4,0-0.7,0-1.1,0.1
	C-473.8,478.5-475.1,473.2-473.5,470.4z"/>
<path id="XMLID_416_" style="fill:#984D22;" d="M-471.8,490.4c-0.2,0-0.3-1.1-0.4-1.2c-0.3-0.5-6.5-13.7-3.3-19
	c0.9-1.5,2.3-2.5,4.4-2.6c1.6-0.1,2.7,0.3,3.4,1.4c3.1,4.7-3.5,19.6-3.8,20.1C-471.5,489.4-471.6,490.4-471.8,490.4L-471.8,490.4z
	 M-470.8,468.2c-0.1,0-0.1,0-0.2,0c-1.8,0.1-3,0.7-3.7,1.9c-2.5,4.2,1.7,14.1,3,16.9c1.3-3,5.9-13.9,3.5-17.7
	C-468.8,468.6-469.7,468.2-470.8,468.2z"/>
<g id="XMLID_418_">
	<path id="XMLID_394_" style="fill:#5B4035;" d="M-472.3,483.7c-3.2-11,3.9-14.5,4-14.6l0.9,1.8c-0.2,0.1-5.7,2.9-3,12.2
		L-472.3,483.7z"/>
</g>
<path id="XMLID_392_" style="fill:#E5B580;" d="M-454.5,501.3h-0.7h-0.6c0,0.1-0.1,0.1-0.1,0.2c-0.1,0-0.2,0-0.3,0
	c-0.1,0-0.2,0-0.3,0c0-0.1-0.1-0.1-0.1-0.2h-0.6h-2.9h-0.6c0,0.1-0.1,0.1-0.1,0.2c-0.1,0-0.2,0-0.3,0c-0.1,0-0.2,0-0.3,0
	c0-0.1-0.1-0.1-0.1-0.2h-0.6h-2.9h-0.6c0,0.1-0.1,0.1-0.1,0.2c-0.1,0-0.2,0-0.3,0s-0.2,0-0.3,0c0-0.1-0.1-0.1-0.1-0.2h-0.6h-2.9
	h-0.6c0,0.1-0.1,0.1-0.1,0.2c-0.1,0-0.2,0-0.3,0s-0.2,0-0.3,0c0-0.1-0.1-0.1-0.1-0.2h-0.6h-2.9h-0.6c0,0.1-0.1,0.1-0.1,0.2
	c-0.1,0-0.2,0-0.3,0s-0.2,0-0.3,0c0-0.1-0.1-0.1-0.1-0.2h-0.6h-2.9h-0.6c0,0.1-0.1,0.1-0.1,0.2c-0.1,0-0.2,0-0.3,0
	c-0.1,0-0.2,0-0.3,0c0-0.1-0.1-0.1-0.1-0.2h-1.2h-2.9h-0.7c0,0.1-0.1,0.1-0.1,0.2c-0.1,0-0.2,0-0.3,0c-0.1,0-0.2,0-0.3,0
	c0-0.1-0.1-0.1-0.1-0.2h-0.6h-0.8c-0.2,1.5-0.2,3.1-0.2,4.6c0,0.1,0,0.3,0,0.4c0,0.3,0,0.6,0,0.9c0,0.9,0.1,1.7,0.1,2.5
	c0,0.4,0.1,0.8,0.1,1.3c0.1,0.7,0.2,1.3,0.3,2c0,0.2,0.1,0.4,0.1,0.6c0,0.2,0.1,0.4,0.1,0.7c0,0.2,0.1,0.5,0.2,0.7
	c0.1,0.3,0.1,0.7,0.2,1c0,0.2,0.1,0.4,0.1,0.6c0.1,0.5,0.3,1.1,0.4,1.6c0.1,0.3,0.2,0.5,0.2,0.8c0.3,0.9,0.6,1.7,0.9,2.5
	c0.1,0.2,0.1,0.3,0.2,0.5c0.2,0.5,0.5,1.1,0.7,1.6c0.1,0.3,0.3,0.5,0.4,0.8c0.5,0.9,1,1.7,1.5,2.5c0.1,0.1,0.2,0.3,0.3,0.4
	c0.3,0.5,0.7,0.9,1.1,1.4c0.2,0.2,0.3,0.4,0.5,0.6c0.4,0.5,0.9,0.9,1.4,1.4c0.3,0.2,0.5,0.4,0.8,0.7c0.1,0.1,0.2,0.1,0.2,0.2
	c0.7,0.5,1.4,0.9,2.1,1.3h0.1c0.2,0.1,0.4,0.2,0.7,0.3c0.9,0.4,1.9,0.6,2.8,0.8c0.2,0,0.5,0.1,0.7,0.1c0.3,0,0.5,0,0.8,0
	c0.3,0,0.5,0,0.8,0c0.2,0,0.5,0,0.7-0.1c1-0.1,1.9-0.4,2.8-0.8c0.2-0.1,0.4-0.2,0.7-0.3c0,0,0,0,0.1,0c0.7-0.4,1.4-0.8,2.1-1.3
	c0.1-0.1,0.1-0.1,0.2-0.2c0.3-0.2,0.5-0.4,0.8-0.6c0.5-0.4,1-0.9,1.4-1.4c0.2-0.2,0.3-0.4,0.5-0.6c0.4-0.4,0.7-0.9,1.1-1.4
	c0.1-0.1,0.2-0.3,0.3-0.4c0.5-0.8,1-1.6,1.5-2.5c0.1-0.2,0.3-0.5,0.4-0.7c0.3-0.5,0.5-1.1,0.7-1.6c0.1-0.2,0.1-0.3,0.2-0.5
	c0.3-0.8,0.6-1.7,0.9-2.5c0.1-0.2,0.2-0.5,0.2-0.8c0.2-0.5,0.3-1.1,0.4-1.6c0-0.2,0.1-0.4,0.1-0.6c0.1-0.3,0.1-0.6,0.2-1
	c0.1-0.2,0.1-0.5,0.2-0.7c0-0.2,0.1-0.5,0.1-0.7c0-0.2,0.1-0.4,0.1-0.6c0.1-0.7,0.2-1.3,0.3-2c0-0.4,0.1-0.8,0.1-1.3
	c0.1-0.8,0.1-1.7,0.1-2.5c0-0.3,0-0.6,0-0.9c0-0.1,0-0.3,0-0.4C-454.3,504.4-454.3,502.8-454.5,501.3z"/>
<path id="XMLID_389_" style="fill:#5B4035;" d="M-452.1,498.6L-452.1,498.6c0-0.9-0.1-1.7-0.2-2.5c-0.2-1-0.5-2-0.8-2.9
	c-0.1-0.3-0.2-0.6-0.4-0.8c-0.5-1.1-1.2-2.2-2-3.2c-0.2-0.2-0.4-0.5-0.6-0.7c-0.8-0.9-1.7-1.7-2.7-2.4c-0.2-0.2-0.5-0.3-0.7-0.5
	c-1.5-1-3.1-1.8-4.8-2.3c-0.4-0.1-0.7-0.2-1.1-0.3c-1.5-0.4-3.2-0.7-4.9-0.8c-0.3,0-0.6,0-1,0c-0.3,0-0.6,0-1,0
	c-1.7,0.1-3.3,0.3-4.9,0.8c-0.4,0.1-0.7,0.2-1.1,0.3c-1.7,0.6-3.4,1.4-4.8,2.3c-0.2,0.2-0.5,0.3-0.7,0.5c-1,0.7-1.9,1.5-2.7,2.4
	c-0.2,0.2-0.4,0.5-0.6,0.7c-0.8,1-1.5,2.1-2,3.2c-0.1,0.3-0.2,0.5-0.4,0.8c-0.4,0.9-0.7,1.9-0.8,2.9c-0.1,0.8-0.2,1.6-0.2,2.4v0.1
	c0,0.9,0.1,1.9,0.3,2.8c0,0,0,0.4,1,0.8c0.3,0.1,0.6,0.2,1,0.3c0.6,0.2,1.3,0.3,2.2,0.5c0.8,0.1,1.7,0.2,2.8,0.3
	c1.4,0.1,3,0.2,4.9,0.3c0.3,0,0.7,0,1,0c1.6,0.1,3.4,0.1,5.3,0.1c0.2,0,0.4,0,0.5,0c0.2,0,0.4,0,0.5,0c2,0,3.8,0,5.3-0.1
	c0.4,0,0.7,0,1,0c1.9-0.1,3.6-0.2,4.9-0.3c1.1-0.1,2-0.2,2.8-0.3c0.9-0.1,1.6-0.3,2.2-0.5c0.4-0.1,0.7-0.2,1-0.3
	c1.1-0.4,1-0.8,1-0.8C-452.2,500.5-452.1,499.6-452.1,498.6z"/>
<g id="ticks">
</g>
</svg>
