<?xml version="1.0" encoding="utf-8"?>
<!-- Generator: Adobe Illustrator 19.0.0, SVG Export Plug-In . SVG Version: 6.00 Build 0)  -->
<svg version="1.1" id="Layer_1" xmlns="http://www.w3.org/2000/svg" xmlns:xlink="http://www.w3.org/1999/xlink" x="0px" y="0px"
	 viewBox="0 0 40 64.2" style="enable-background:new 0 0 40 64.2;" xml:space="preserve">
<path id="XMLID_534_" style="opacity:0.4;fill:#7A7A7A;" d="M35.4,61.2c0-0.6-0.3-1.2-0.7-1.6c-0.9-1.4-2.9-3.6-7.4-6.3
	c4.1-1.6,7-5.6,7-10.3v-2.2v-8.4V20.5c0-0.9,0.2-0.4,0-1.2l-0.1,0c-0.3-2.7-1.6-5.2-3.5-6.9l0,0l0,0c-0.2-0.2-0.5-0.4-0.8-0.7
	c0,0,0,0,0,0c-0.3-0.2-0.5-0.4-0.8-0.6c0,0,0,0,0,0c-0.3-0.2-0.5-0.3-0.8-0.5c0,0-0.1,0-0.1-0.1c-0.1-0.1-0.2-0.1-0.4-0.2
	c2.5-1.7,5.6-4,6.9-5.9C35,4.3,35.1,4,35.2,3.8c0.2-0.4,0.3-0.7,0.2-1c0-1.5-1.2-2.7-2.7-2.7C31.2,0,30,1.2,30,2.7
	C30,1.2,28.7,0,27.2,0c-1.5,0-2.7,1.2-2.7,2.7c0-1.5-1.2-2.7-2.7-2.7C20.2,0,19,1.2,19,2.7C19,1.2,17.7,0,16.2,0
	c-1.5,0-2.7,1.2-2.7,2.7c0-1.5-1.2-2.7-2.7-2.7C9.2,0,8,1.2,8,2.7c0,0,0,0.1,0,0.2c0,0.6,0.3,1.2,0.7,1.6c0.8,1.3,2.6,3.4,6.6,5.8
	c-3.9,1.7-6.7,5.6-6.7,10.1v3.6V33v10.1c0,0.5,0,0.9,0.1,1.4c0,0.1,0,0.1,0,0.2c0.5,3.3,2.4,6.2,5.1,7.9c0,0,0.1,0,0.1,0
	c0.2,0.1,0.5,0.3,0.7,0.4c0,0,0,0,0,0c0.4,0.2,0.9,0.4,1.3,0.6c-2.6,1.7-5.9,4.2-7.3,6.2c-0.2,0.2-0.3,0.5-0.5,0.8
	c-0.2,0.4-0.3,0.7-0.2,1c0,1.5,1.2,2.7,2.7,2.7s2.7-1.2,2.7-2.7c0,1.5,1.2,2.7,2.7,2.7S19,63,19,61.4c0,1.5,1.2,2.7,2.7,2.7
	s2.7-1.2,2.7-2.7c0,1.5,1.2,2.7,2.7,2.7S30,63,30,61.4c0,1.5,1.2,2.7,2.7,2.7c1.5,0,2.7-1.2,2.7-2.7C35.5,61.4,35.5,61.4,35.4,61.2z
	"/>
<g id="XMLID_351_">
	<path id="XMLID_314_" style="fill:#E55C8D;" d="M21.7,54.2h-3.6C12,54.2,7,49.2,7,43.1V20.5c0-6.1,5-11.1,11.1-11.1h3.6
		c6.1,0,11.1,5,11.1,11.1v22.6C32.8,49.2,27.8,54.2,21.7,54.2z"/>
	<path id="XMLID_191_" style="fill:#E55C8D;" d="M33.8,61.2c0-0.6-0.3-1.2-0.7-1.6c-1.1-1.8-3.9-4.7-11.2-8.2c-12-5.7-4.3,0-4.3,0
		s-8.2,5-10.6,8.3c-0.2,0.2-0.3,0.5-0.5,0.8c-0.2,0.4-0.3,0.7-0.2,1c0,1.5,1.2,2.7,2.7,2.7s2.7-1.2,2.7-2.7c0,1.5,1.2,2.7,2.7,2.7
		s2.7-1.2,2.7-2.7c0,1.5,1.2,2.7,2.7,2.7s2.7-1.2,2.7-2.7c0,1.5,1.2,2.7,2.7,2.7s2.7-1.2,2.7-2.7c0,1.5,1.2,2.7,2.7,2.7
		s2.7-1.2,2.7-2.7C33.8,61.4,33.8,61.4,33.8,61.2z"/>
	<path id="XMLID_332_" style="fill:#E55C8D;" d="M33.2,4.5c0.2-0.2,0.3-0.5,0.5-0.8c0.2-0.4,0.3-0.7,0.2-1c0-1.5-1.2-2.7-2.7-2.7
		c-1.5,0-2.7,1.2-2.7,2.7c0-1.5-1.2-2.7-2.7-2.7c-1.5,0-2.7,1.2-2.7,2.7c0-1.5-1.2-2.7-2.7-2.7c-1.5,0-2.7,1.2-2.7,2.7
		c0-1.5-1.2-2.7-2.7-2.7c-1.5,0-2.7,1.2-2.7,2.7c0-1.5-1.2-2.7-2.7-2.7C7.6,0,6.4,1.2,6.4,2.7c0,0,0,0.1,0,0.2
		c0,0.6,0.3,1.2,0.7,1.6c1.1,1.8,3.9,4.7,11.2,8.2c12,5.7,4.3,0,4.3,0S30.7,7.8,33.2,4.5z"/>
	<path id="XMLID_298_" style="fill:#FFB6D4;" d="M21.7,9.4h-3.6C12,9.4,7,14.4,7,20.5v3.6l22.2-11.7C27.2,10.5,24.6,9.4,21.7,9.4z"
		/>
	<path id="XMLID_301_" style="fill:#FFB6D4;" d="M32.8,20.5c0-0.9,0.2-0.4,0-1.2L7,33v10.1c0,1,0.1,1.9,0.4,2.8l25.4-13.4V20.5z"/>
	<path id="XMLID_328_" style="fill:#FFB6D4;" d="M21.7,54.2c6.1,0,11.1-5,11.1-11.1v-2.2L11.6,52c1.8,1.3,4.1,2.1,6.5,2.1H21.7z"/>
	<ellipse id="XMLID_192_" style="opacity:0.1;fill:#FFFFFF;" cx="19.6" cy="16.7" rx="8.8" ry="5"/>
</g>
<g id="ticks">
</g>
</svg>
