<?xml version="1.0" encoding="utf-8"?>
<!-- Generator: Adobe Illustrator 19.0.0, SVG Export Plug-In . SVG Version: 6.00 Build 0)  -->
<svg version="1.1" id="Layer_1" xmlns="http://www.w3.org/2000/svg" xmlns:xlink="http://www.w3.org/1999/xlink" x="0px" y="0px"
	 viewBox="0 0 41.2 46.6" style="enable-background:new 0 0 41.2 46.6;" xml:space="preserve">
<path id="XMLID_592_" style="opacity:0.26;fill:#7A7A7A;" d="M36,12.4c-2.3-1.3-4.3-1.8-6-1.8c-3.7,0-6.1,2.4-7.4,4.3
	C24,11.4,26,5.2,24.4,2.7c-0.5-0.8-1.4-1.2-2.6-1.1c-1.5,0.1-2.6,0.7-3.3,1.8c-1.6,2.8,0.1,8.2,1.4,11.5c-2-2.8-6.2-6.5-13.4-2.4
	C-4,18.5,4.1,34,10.1,38.8c6,4.8,11.2,7.7,11.2,7.7l0,0h0l0,0c0,0,1.6-0.9,4.2-2.6c0.6-0.4,1.2-0.8,1.8-1.2c1.3-0.9,2.7-1.9,4.1-3
	c0.4-0.3,0.7-0.6,1.1-0.9c2.4-1.9,5.2-5.7,7-9.8c0.4-1,0.7-1.9,1-2.9c0.1-0.3,0.2-0.7,0.2-1C41.9,20.2,41,15.3,36,12.4z M19.1,3.5
	c0.5-0.9,1.4-1.4,2.8-1.4c0.1,0,0.1,0,0.2,0c0.9,0,1.5,0.3,1.9,0.9c1.8,2.8-1.6,10.9-2.6,13.2C20.3,14,17.2,6.6,19.1,3.5z"/>
<path id="XMLID_433_" style="fill:#984D22;" d="M19.9,16.6c-0.1,0-0.2-0.4-0.3-0.5c-0.2-0.4-4.8-10-2.5-14c0.6-1.1,1.7-1.8,3.3-1.8
	c1.2,0,2,0.3,2.6,1.1c2.3,3.5-2.6,14.2-2.8,14.7C20.1,16.2,20,16.6,19.9,16.6C19.9,16.6,19.9,16.6,19.9,16.6z M20.6,0.8
	c-0.1,0-0.1,0-0.2,0c-1.3,0.1-2.2,0.5-2.8,1.4c-1.9,3.2,1.3,10.5,2.2,12.7c1-2.3,4.4-10.4,2.6-13.2C22,1.1,21.4,0.8,20.6,0.8z"/>
<path id="XMLID_435_" style="fill:#F1573B;" d="M34.6,11.2C24,5.1,19.9,16,19.9,16S15.7,5.1,5.1,11.2c-10.6,6-2.5,21.6,3.5,26.4
	c6,4.8,11.2,7.7,11.2,7.7s5.2-2.9,11.2-7.7C37.1,32.8,45.2,17.2,34.6,11.2z"/>
<path id="XMLID_664_" style="fill:#E04834;" d="M34.6,11.2C24,5.1,19.9,16,19.9,16v29.3c0,0,5.2-2.9,11.2-7.7
	C37.1,32.8,45.2,17.2,34.6,11.2z"/>
<ellipse id="XMLID_182_" style="opacity:0.1;fill:#FFFFFF;" cx="10.3" cy="15.2" rx="6.2" ry="3.5"/>
<ellipse id="XMLID_183_" style="opacity:0.1;fill:#FFFFFF;" cx="29.1" cy="15.2" rx="6.2" ry="3.5"/>
<g id="ticks">
</g>
</svg>
