<?xml version="1.0" encoding="utf-8"?>
<!-- Generator: Adobe Illustrator 19.0.0, SVG Export Plug-In . SVG Version: 6.00 Build 0)  -->
<svg version="1.1" id="Layer_1" xmlns="http://www.w3.org/2000/svg" xmlns:xlink="http://www.w3.org/1999/xlink" x="0px" y="0px"
	 viewBox="0 0 41.4 62.4" style="enable-background:new 0 0 41.4 62.4;" xml:space="preserve">
<g id="XMLID_353_" style="opacity:0.4;">
	<path id="XMLID_369_" style="opacity:0.26;fill:#5E5E5E;" d="M39.8,32.4c-0.4,0-0.8,0.2-1.2,0.4c-0.2,0.1-0.4,0.2-0.6,0.3
		c-0.1,0.1-0.2,0.1-0.3,0.2c-0.4,0.4,0,1.3,0.3,1.6c0,0,0.1,0,0.1,0c0,0,0,0,0,0c0,0,0,0,0.1,0c0,0,0,0,0.1,0c0,0,0,0,0,0l0,0
		c0.6-0.3,1.2-0.7,1.7-1.1c0.3-0.2,0.7-0.5,0.7-0.9C40.8,32.3,40.3,32.3,39.8,32.4z"/>
	<path id="XMLID_370_" style="opacity:0.26;fill:#5E5E5E;" d="M38.7,26.8c0,0,0.1,0,0.1,0c0,0,0,0,0.1,0c0,0,0,0,0,0
		c0,0,0.1-0.1,0.1-0.1c0.2-0.3,0.5-0.6,0.7-0.8c0.3-0.4,0.6-0.9,0.8-1.4c0.2-0.5,0-0.9-0.5-0.7c-0.3,0.1-0.7,0.5-0.9,0.7
		c-0.4,0.3-0.7,0.7-1.1,1C37.5,25.8,38.5,26.6,38.7,26.8z"/>
	<path id="XMLID_377_" style="opacity:0.26;fill:#5E5E5E;" d="M37.2,34c0.1-0.1,0-0.2-0.1-0.2c-0.1-0.1-0.1-0.2-0.1-0.3
		c0-0.1-0.1-0.1-0.1-0.1c-0.4,0.1-0.9,0.2-1.3,0.4c-0.2,0.1-0.4,0.1-0.7,0.2c-0.1,0-0.3,0.2-0.4,0c0-0.1-0.1-0.2-0.1-0.4
		c-0.2-0.5-0.4-1-0.6-1.5c-0.1-0.5-0.4-0.9-0.8-1.3c0.2-0.1,0.4-0.1,0.6-0.2c0.3-0.1,0.5-0.3,0.7-0.4c0.5-0.4,1.1-0.7,1.6-1.1
		c0.5-0.4,1.1-0.7,1.6-1.2c0.2-0.2,0.7-0.4,0.8-0.7c0-0.1-0.1-0.1-0.1-0.1c-0.1-0.1-0.1-0.2-0.2-0.3c0-0.1,0-0.2-0.1-0.2
		c-0.1,0-0.2,0-0.3,0c-0.1-0.1,0-0.3,0-0.4c0-0.1,0-0.1-0.1-0.1c-0.4-0.1-0.4-0.1-0.8,0.1c-0.5,0.3-1,0.7-1.5,1.1
		c-1,0.6-2,1.4-3,1.9c-0.1,0-0.1,0.1-0.1,0.2c0.3,0.4,0,0.8-0.5,0.8c0,0,0,0,0,0c-0.1-0.1-0.2,0-0.2,0.1c0,0.3-0.1,0.6-0.4,0.9
		c-0.2,0.1-0.4,0-0.6,0c-0.1,0-0.1,0.1-0.1,0.2c0.1,0.4-0.2,0.6-0.5,0.8c-0.3,0.1-0.6,0-0.9,0c-0.1,0-0.1,0-0.1,0.1
		c0,0.1,0,0.4,0,0.5c0,0-0.1,0.2-0.2,0.3c-0.1,0-0.1,0-0.2,0c0,0-0.1,0.1,0,0.1c0,0,0,0,0.1,0c0,0,0,0,0,0c0,0,0,0,0.1,0
		c0.3,0.1,0.7,0.1,1,0.1c0.3,0,0.6,0.1,0.9,0.1c-0.2,0.4-0.6,0.7-0.9,1c-0.3,0.2-0.6,0.4-1,0.6c0.1-0.1,0.2-0.1,0.3-0.2
		c0.5-0.3,0.9-0.7,1.3-1.1c0,0,0.1-0.1,0.1-0.1c0.1,0,0-0.2,0-0.2c-0.1,0-0.2,0-0.3,0c-0.1,0-0.3,0-0.4,0c0,0,0,0,0,0
		c-0.1,0-0.2,0-0.3,0c-0.3-0.1-0.5-0.1-0.8-0.2c-0.2,0-0.5-0.1-0.7-0.2c0,0-0.1,0-0.1-0.1c-0.3-0.1-0.6-0.3-0.9-0.5
		c0.2,0.1,0.3,0.1,0.5,0.2c0,0,0,0.1,0.1,0.1c0.6,0,1.3-0.4,1.8-0.8c0.1-0.1,0.1-0.1,0.2-0.2c0.4-0.2,0.8-0.5,1.1-0.8
		c1-0.8,1.8-1.8,2.2-3c0.3-0.8,0.5-1.8,0.6-2.6c0-0.1,0-0.3,0-0.4c0-0.1,0.1-0.2,0.1-0.2c0,0.4,0,0.8,0,1.3c0,0.3-0.1,0.6-0.1,0.8
		c0,0,0,0.1,0.1,0.1c0.3,0.1,0.7,0,0.9-0.1c0.4-0.1,0.9-0.4,1.3-0.7c0.4-0.3,0.7-0.7,0.9-1.1c0.2-0.3,0.5-0.6,0.6-1
		c0-0.1-0.1-0.1-0.1-0.1c-0.2,0-0.4,0.1-0.6,0.1c-0.1,0-0.3,0-0.4-0.1c-0.4-0.2-0.8-0.4-1.2-0.7c-0.1,0-0.1-0.1-0.2-0.1c0,0,0,0,0,0
		c-0.3-0.4-0.7-1-1.1-1.3c0,0,0,0-0.1,0c-0.1-0.1-0.1-0.2-0.2-0.3c0,0,0,0,0,0c0-0.1,0-0.1-0.1-0.2c0.2,0.2,0.4,0.4,0.6,0.7
		c0,0,0,0,0,0c0,0,0,0,0.1,0c0,0,0,0,0,0c0,0,0,0,0,0c0.9-0.4,1.3-1.7,1.3-2.6c0-0.7-0.3-1.3-0.9-1.7c0.2-0.2,0.3-0.6,0.4-0.8
		c0.2-0.4,0.2-0.9,0-1.3c-0.2-0.5-0.5-1-0.8-1.4c-0.2-0.3-0.6-0.6-0.9-0.7c0.1-0.2,0.1-0.5,0.1-0.7c0-0.5-0.1-0.9-0.3-1.2
		c-0.5-0.8-1.4-1.5-2.3-1.5c0-0.8-0.4-1.6-0.9-2.2c-0.5-0.5-1.4-1-2.2-0.8c-0.3-0.5-0.8-0.9-1.4-1.1c-0.6-0.2-1.4-0.6-2-0.5
		c0,0,0,0,0,0c-0.4-0.1-0.9-0.1-1.2,0.2c-0.2,0.2-0.2,0.3-0.1,0.6c0.2,0.4,0.4,0.8,0.5,1.2c0,0,0,0,0,0.1c0.1,0.5,0.4,1,0.6,1.5
		c0.2,0.6,0.3,1.3,0.6,1.9c0,0,0.1,0.1,0.1,0.1c0,0.1,0,0.2,0.1,0.3c0.1,0.5,0.3,0.9,0.4,1.4c0,0.1,0.1,0.2,0.1,0.4
		c0.1,0.4,0.2,0.7,0.3,1.1c0,0.1,0,0.2,0.1,0.3c0,0,0,0.1,0,0.1c0,0.3,0.1,0.6,0.1,0.9c0,0.1,0,0.2,0.1,0.3c0,0.1,0.1,0.2,0.1,0.3
		c0,0.1,0,0.1,0,0.2c0,0,0,0.1,0,0.1c0,0,0.1,0.1,0.1,0c0.5,0.1,1,0.1,1.5,0.3c0.6,0.3,1.1,0.6,1.5,1.1c0,0-0.1,0-0.1,0c0,0,0,0,0,0
		c-0.1-0.1-0.2-0.2-0.2-0.3c-0.7-0.8-1.6-1-2.6-1.1c-0.9-0.1-2.2-0.1-3.1,0.2c-0.5,0.1-0.7,0.1-1.1,0.4c-0.4,0.3-0.9,0.5-1.3,0.8
		c0.3-3.6,0.9-12.9-2.1-15.3C17.3,1.7,16.3,1.6,15,2c-1.6,0.6-2.5,1.7-2.9,3c-1,4.3,4.7,11.2,6.7,13.4c-0.4,0.3-0.8,0.7-1.2,1
		c-0.4,0.4-0.9,0.8-1.3,1.2c-0.4,0.4-0.6,0.9-0.9,1.3c-0.5,1-0.9,2.1-1.1,3.2c-0.1,0.6,0,1.2-0.1,1.7c0,0.4,0,0.8,0.1,1.2
		c0,0,0,0,0,0.1c0.1,0.6,0.4,1.2,0.6,1.7c0.2,0.6,0.6,1.2,0.9,1.8c0.2,0.3,0.4,0.5,0.6,0.8c0-0.1-0.1,0-0.2,0
		c-0.2,0-0.5,0.1-0.7,0.1c-0.4,0-0.9,0.1-1.3,0.1c-0.5,0.1-1.1,0.1-1.6,0.2c0,0-0.1,0-0.1,0c-0.4,0.1-0.9,0-1.3,0.1
		c-0.4,0-0.8,0.1-1.2,0.1c-0.2,0-0.4,0-0.7,0c-0.1,0-0.3,0-0.4,0c-0.4,0-0.7,0-1.1,0c-0.5,0-1-0.1-1.4-0.1c-0.2,0-0.4-0.1-0.7-0.1
		c-0.4,0-0.7-0.1-1.1-0.2c-0.4-0.1-0.8,0-1.2-0.1c-0.3-0.1-0.7-0.1-1-0.1c-0.1,0-0.2,0-0.3-0.1C2,32.3,1,31.8,0.8,32.6
		c-0.2,0.8,0.2,1.5,0.6,2.2c0.2,0.4,0.5,0.9,0.9,1.3c0.2,0.3,0.6,0.3,0.9,0.4C3,37.1,3.4,37.6,3.9,38c0.4,0.3,0.7,0.6,1.2,0.8
		c0.4,0.2,1,0.2,1.4,0.2c0.3,0,0.4,0.4,0.5,0.6c0.1,0.2,0.3,0.3,0.5,0.5c0.4,0.3,0.8,0.6,1.3,0.8c0.6,0.2,1.3,0.2,2-0.1c0,0,0,0,0,0
		c0.5,0.8,1.5,1.1,2.4,1.1c0.2,0,0.5,0,0.7,0L2.4,48C6,64.1,31,62.2,31,62.2l2.6-15.3c0.2-0.7,0.3-1.4,0.4-2.2l0.7-4.3
		c0.1-0.3,0.1-0.5,0.1-0.8c0.1-0.7,0.1-1.3,0.2-2c0-0.4,0.1-0.9-0.1-1.3c0.3-0.1,0.6-0.2,0.8-0.3c0.5-0.2,0.9-0.4,1.4-0.6
		c0.1,0,0.1-0.2,0-0.2c-0.2-0.1,0-0.4,0.1-0.5c0.1-0.1,0-0.2,0-0.2C37.1,34.3,37.1,34.1,37.2,34z M22.3,37.3c0.3,0,0.5-0.1,0.8-0.3
		c0.3-0.2,0.6-0.4,0.9-0.6c-0.3,0.3-0.7,0.5-1,0.7c-0.1,0.1-0.5,0.1-0.6,0.3C22.3,37.4,22.3,37.3,22.3,37.3z M25,35.9
		c0.1,0,0.2,0,0.3,0c0.2,0,0.3,0,0.5,0c0,0,0,0,0,0c0,0,0.1,0,0.1,0c0.1,0,0.3,0,0.4-0.1c-0.5,0.2-1.1,0.2-1.6,0.3
		c0-0.1-0.2-0.1-0.2,0c0,0-0.1,0.1-0.1,0.1c0,0,0,0,0,0c0-0.1,0-0.1-0.1-0.2C24.5,36,24.8,36,25,35.9C25,35.9,25,35.9,25,35.9z
		 M22.9,35.9C23,35.9,23,35.9,22.9,35.9c0.1-0.1,0.1-0.1,0.1-0.1c0.1,0,0.2,0.1,0.3,0.1c0,0,0,0,0.1,0
		C23.2,35.9,23.1,35.9,22.9,35.9z M22.1,38.4c0-0.1,0.1-0.1,0.1-0.2C22.2,38.2,22.1,38.3,22.1,38.4z M17.3,33.3
		c0.2,0.2,0.4,0.3,0.6,0.5c0,0,0,0,0,0c-0.5-0.3-1-0.7-1.4-1.2C16.8,32.9,17.1,33.1,17.3,33.3z M28.2,35.1c-0.1,0-0.2,0.1-0.2,0.1
		c-0.1,0-0.1,0-0.2,0.1c0,0,0,0,0,0C27.9,35.2,28,35.2,28.2,35.1z M29.1,18.8C29.1,18.8,29.1,18.7,29.1,18.8c0.1,0,0.2,0,0.3,0.1
		C29.3,18.8,29.3,18.8,29.1,18.8C29.2,18.8,29.1,18.8,29.1,18.8z M33,23.8c0-0.1-0.1-0.2-0.1-0.3c0-0.3-0.2-0.6-0.3-0.9
		c-0.2-0.5-0.4-0.8-0.7-1.2c-0.4-0.5-0.7-1-1.2-1.4c0,0,0,0,0,0c-0.2-0.2-0.4-0.5-0.7-0.7c0,0-0.1-0.1-0.1-0.1
		c-0.1-0.1-0.1-0.1-0.2-0.1c0.1,0.1,0.3,0.2,0.4,0.2c0,0,0,0,0.1,0c0,0,0.1,0,0.1,0.1c0,0,0,0,0,0c0.6,0.5,1.1,1.1,1.5,1.7
		c0.3,0.3,0.5,0.7,0.7,1.1c0,0,0,0.1,0,0.1C32.7,22.8,32.9,23.3,33,23.8z M29.9,18.1C29.9,18.1,29.9,18.1,29.9,18.1
		C29.9,18.1,29.9,18.1,29.9,18.1C29.9,18.1,29.9,18.1,29.9,18.1z M28.8,17.7c0.1,0,0.1,0.1,0.2,0.1C28.9,17.7,28.9,17.7,28.8,17.7
		C28.8,17.7,28.8,17.7,28.8,17.7z M27.7,22.2c-0.1,0.2-0.3,0.5-0.5,0.7c-0.1,0.1-0.1,0.2-0.2,0.2c0.1-0.1,0.2-0.2,0.2-0.3
		C27.5,22.6,27.6,22.4,27.7,22.2z M26.5,23.6c0.1,0,0.1-0.1,0.2-0.1c-0.1,0.1-0.2,0.2-0.3,0.3C26.4,23.7,26.4,23.7,26.5,23.6
		C26.5,23.6,26.5,23.6,26.5,23.6z M25,20.4c0.3,0.2,0.6,0.6,0.8,0.9c0.3,0.4,0.4,0.9,0.5,1.3c0,0.1,0,0.3,0,0.4
		c-0.1-0.5-0.2-0.9-0.5-1.4c0,0,0,0,0,0c-0.1-0.2-0.2-0.4-0.3-0.6C25.4,20.8,25.2,20.6,25,20.4c0,0-0.1,0-0.1,0
		c-0.1-0.1-0.1-0.1-0.2-0.2C24.8,20.3,24.9,20.3,25,20.4z M24.4,20C24.4,20,24.3,20,24.4,20C24.3,20,24.3,20,24.4,20
		C24.3,20,24.4,20,24.4,20z M23.8,22.5c0.2-0.5,0.3-1,0.4-1.5c0-0.1,0-0.2,0.1-0.3c-0.1,1-0.5,2-0.7,3c-0.1,0.3-0.1,0.5-0.2,0.8
		c0,0,0,0,0,0C23.5,23.8,23.6,23.2,23.8,22.5z M22.9,27c0-0.3,0-0.6,0.1-0.9c0,0,0,0,0,0c0.1-0.2,0.1-0.4,0.1-0.6
		c-0.1,0.6-0.1,1.2-0.1,1.8c0,0.1,0,0.2,0,0.3c0,0.3,0,0.6,0.1,0.9c0,0.1,0.1,0.2,0.1,0.4c0,0.2,0.1,0.4,0.1,0.6c0,0,0,0.1,0.1,0.1
		c0,0,0,0.1,0,0.1c0.2,0.5,0.6,1,1,1.4c0.1,0.1,0.2,0.3,0.4,0.4c-0.2-0.1-0.3-0.2-0.5-0.4c0,0-0.1-0.1-0.1-0.1
		c-0.1-0.1-0.1-0.1-0.2-0.2c-0.2-0.2-0.4-0.4-0.5-0.7c-0.1-0.2-0.2-0.5-0.3-0.7c-0.1-0.3-0.2-0.5-0.2-0.8c0,0,0,0,0,0
		c0-0.4,0-0.8-0.1-1.2C22.9,27.2,22.9,27.1,22.9,27z M22.8,35.9c-0.1,0-0.3,0-0.4,0c-0.7-0.1-1.4-0.3-2-0.6c0,0,0,0,0,0
		c0.4,0.1,0.8,0.3,1.2,0.4c0,0,0,0.1,0.1,0.1c0.1,0,0.2,0,0.3,0C22.3,35.8,22.6,35.9,22.8,35.9z M12.8,5C13,3.8,13.8,3,15.2,2.5
		c0.1,0,0.1,0,0.2-0.1c0.9-0.3,1.7-0.2,2.3,0.3c2.9,2.3,2,12.2,1.6,14.9C17.6,15.8,11.8,9,12.8,5z M15.1,41.3
		C15.1,41.3,15.1,41.3,15.1,41.3C15.1,41.3,15.1,41.3,15.1,41.3C15.1,41.3,15.1,41.3,15.1,41.3z"/>
</g>
<path id="XMLID_336_" style="fill:#984D22;" d="M19.1,18.4c-0.1,0-0.4-0.5-0.5-0.6c-0.3-0.4-8.5-9.1-7.3-14.1c0.3-1.4,1.3-2.5,2.9-3
	c1.2-0.4,2.3-0.4,3.1,0.3c3.6,2.9,2,16.2,1.9,16.7C19.2,17.8,19.3,18.4,19.1,18.4C19.2,18.4,19.2,18.4,19.1,18.4z M14.6,1.1
	c-0.1,0-0.1,0-0.2,0.1c-1.4,0.5-2.2,1.3-2.5,2.4c-0.9,4,4.8,10.8,6.6,12.7c0.3-2.7,1.2-12.5-1.6-14.9C16.3,0.9,15.6,0.8,14.6,1.1z"
	/>
<path id="XMLID_245_" style="fill:#F1D5C9;" d="M39,31.1c-0.4,0-0.8,0.2-1.2,0.4c-0.2,0.1-0.4,0.2-0.6,0.3c-0.1,0.1-0.2,0.1-0.3,0.2
	c-0.4,0.4,0,1.3,0.3,1.6c0,0,0.1,0,0.1,0c0,0,0,0,0,0c0,0,0,0,0.1,0c0,0,0,0,0.1,0c0,0,0,0,0,0l0,0c0.6-0.3,1.2-0.7,1.7-1.1
	c0.3-0.2,0.7-0.5,0.7-0.9C40,30.9,39.5,30.9,39,31.1z"/>
<path id="XMLID_244_" style="fill:#F1D5C9;" d="M39.2,22.4c-0.3,0.1-0.7,0.5-0.9,0.7c-0.4,0.3-0.7,0.7-1.1,1
	c-0.4,0.3,0.6,1.2,0.8,1.3c0,0,0.1,0,0.1,0c0,0,0,0,0.1,0c0,0,0,0,0,0c0,0,0.1-0.1,0.1-0.1c0.2-0.3,0.5-0.6,0.7-0.8
	c0.3-0.4,0.6-0.9,0.8-1.4C40,22.6,39.8,22.2,39.2,22.4z"/>
<path id="XMLID_243_" style="fill:#F1D5C9;" d="M30,18.6c-0.2-0.2-0.4-0.5-0.7-0.7c0,0-0.1-0.1-0.1-0.1c-0.2-0.2-0.4-0.3-0.7-0.4
	c-0.1,0-0.2,0-0.2,0.1c-0.1,0.9-0.4,1.8-0.9,2.6c-0.3,0.5-0.5,1-0.9,1.4c-0.1,0.2-0.3,0.3-0.5,0.5c-0.1,0.1-0.2,0.3-0.4,0.4
	c0-0.2,0-0.4-0.1-0.7c-0.1-0.5-0.2-1-0.5-1.4c0,0,0,0,0,0c-0.1-0.2-0.2-0.4-0.3-0.6c-0.1-0.2-0.4-0.5-0.6-0.6c0,0,0,0-0.1,0
	c-0.1-0.2-0.3-0.3-0.5-0.4c-0.1,0-0.2,0-0.2,0.1c0.1,1.3-0.4,2.4-0.7,3.6c-0.3,1.2-0.5,2.3-0.4,3.5c0,0.1,0,0.2,0,0.3
	c0,0.3,0,0.6,0.1,0.9c0,0.1,0.1,0.2,0.1,0.4c0,0.2,0.1,0.4,0.1,0.6c0,0,0,0.1,0.1,0.1c0,0,0,0.1,0,0.1c0.2,0.5,0.6,1,1,1.4
	c0.7,0.8,1.5,1.4,2.6,1.7c0,0,0,0.1,0.1,0.1c0.6,0,1.3-0.4,1.8-0.8c0.1-0.1,0.1-0.1,0.2-0.2c0.4-0.2,0.8-0.5,1.1-0.8
	c1-0.8,1.8-1.8,2.2-3c0.3-0.8,0.5-1.8,0.6-2.6c0-0.1,0-0.3,0-0.4c0.2-0.4,0-0.9-0.1-1.4c0-0.3-0.2-0.6-0.3-0.9
	c-0.2-0.5-0.4-0.8-0.7-1.2C30.8,19.5,30.4,19,30,18.6C30,18.6,30,18.6,30,18.6z"/>
<path id="XMLID_241_" style="fill:#FFCF83;" d="M26.3,5.7C26,5.2,25.5,4.8,25,4.6c-0.6-0.2-1.4-0.6-2-0.5c0,0,0,0,0,0
	c-0.4-0.1-0.9-0.1-1.2,0.2c-0.2,0.2-0.2,0.3-0.1,0.6C21.8,5.2,22,5.6,22.2,6c0,0,0,0,0,0.1c0.1,0.5,0.4,1,0.6,1.5
	c0.2,0.6,0.3,1.3,0.6,1.9c0,0,0.1,0.1,0.1,0.1c0,0.1,0,0.2,0.1,0.3c0.1,0.5,0.3,0.9,0.4,1.4c0,0.1,0.1,0.2,0.1,0.4
	c0.1,0.4,0.2,0.7,0.3,1.1c0,0.1,0,0.2,0.1,0.3c0,0,0,0.1,0,0.1c0,0.3,0.1,0.6,0.1,0.9c0,0.1,0,0.2,0.1,0.3c0,0.1,0.1,0.2,0.1,0.3
	c0,0.1,0,0.1,0,0.2c0,0,0,0.1,0,0.1c0,0,0.1,0.1,0.1,0c0.5,0.1,1,0.1,1.5,0.3c0.6,0.3,1.1,0.6,1.5,1.1c0,0.1,0.1,0.1,0.2,0
	c0.3,0.2,0.7,0.3,1.1,0.5c0.6,0.3,1.1,0.8,1.5,1.2c0.4,0.4,0.7,0.9,1.1,1.3c0.3,0.4,0.7,0.8,1,1.2c0,0,0,0,0,0c0,0,0,0,0.1,0
	c0,0,0,0,0,0c0,0,0,0,0,0c0.9-0.4,1.3-1.7,1.3-2.6c0-0.7-0.3-1.3-0.9-1.7c0.2-0.2,0.3-0.6,0.4-0.8c0.2-0.4,0.2-0.9,0-1.3
	c-0.2-0.5-0.5-1-0.8-1.4c-0.2-0.3-0.6-0.6-0.9-0.7c0.1-0.2,0.1-0.5,0.1-0.7c0-0.5-0.1-0.9-0.3-1.2c-0.5-0.8-1.4-1.5-2.3-1.5
	c0-0.8-0.4-1.6-0.9-2.2C28,5.9,27.1,5.5,26.3,5.7z"/>
<path id="XMLID_206_" style="fill:#D3A567;" d="M27.8,16.2C27.8,16.2,27.8,16.2,27.8,16.2c-0.1-0.1-0.2-0.2-0.3-0.3
	c-0.7-0.8-1.6-1-2.6-1.1c-0.9-0.1-2.2-0.1-3.1,0.2c-0.5,0.1-0.7,0.1-1.1,0.4c-0.5,0.3-0.9,0.6-1.4,0.9c-0.9,0.5-1.7,1.1-2.4,1.8
	c-0.4,0.4-0.9,0.8-1.3,1.2c-0.4,0.4-0.6,0.9-0.9,1.3c-0.5,1-0.9,2.1-1.1,3.2c-0.1,0.6,0,1.2-0.1,1.7c0,0.4,0,0.8,0.1,1.2
	c0,0,0,0,0,0.1c0.1,0.6,0.4,1.2,0.6,1.7c0.2,0.6,0.6,1.2,0.9,1.8c0.3,0.6,0.8,1.1,1.4,1.5c0.2,0.2,0.4,0.3,0.6,0.5c0,0,0,0,0.1,0.1
	c0.1,0.1,0.1,0.1,0.2,0.2c0,0,0,0,0,0c0.2,0.2,0.3,0.3,0.6,0.4c0,0,0,0,0,0c0.3,0.2,0.5,0.3,0.8,0.4c0.2,0.1,0.5,0.3,0.8,0.3
	c0.4,0.1,0.8,0.3,1.2,0.4c0,0,0,0.1,0.1,0.1c0.1,0,0.2,0,0.3,0c0.3,0.1,0.6,0.1,0.9,0.2c0.1,0,0.1,0,0.1-0.1c0,0,0,0,0,0
	c0.1,0,0.2,0.1,0.3,0.1c0,0,0.1,0.1,0.1,0.1c0.1,0,0.2,0,0.3,0c0.5,0.1,0.9,0.1,1.4-0.1c0,0,0,0,0,0c0.1,0,0.2,0,0.3,0
	c0.2,0,0.3,0,0.5,0c0,0,0,0,0,0c0,0,0.1,0,0.1,0c0.6-0.1,1.2-0.2,1.7-0.4c0.1,0,0.1-0.1,0.1-0.1c0.4-0.1,0.7-0.3,1-0.5
	c0.5-0.3,0.9-0.7,1.3-1.1c0,0,0.1-0.1,0.1-0.1c0.1,0,0-0.2,0-0.2c-0.1,0-0.2,0-0.3,0c-0.1,0-0.3,0-0.4,0c0,0,0,0,0,0
	c-0.1,0-0.2,0-0.3,0c-0.3-0.1-0.5-0.1-0.8-0.2c-0.2,0-0.5-0.1-0.7-0.2c0,0-0.1,0-0.1-0.1c-0.8-0.4-1.4-0.9-2.1-1.3c0,0,0,0,0,0
	c0,0,0,0,0,0c-0.3-0.2-0.6-0.5-0.9-0.7c0,0-0.1-0.1-0.1-0.1c-0.1-0.1-0.1-0.1-0.2-0.2c-0.2-0.2-0.4-0.4-0.5-0.7
	c-0.1-0.2-0.2-0.5-0.3-0.7c-0.1-0.3-0.2-0.5-0.2-0.8c0,0,0,0,0,0c0-0.4,0-0.8-0.1-1.2c0-0.1,0-0.2,0-0.2c0-0.3,0-0.6,0.1-0.9
	c0,0,0,0,0,0c0.1-0.5,0.2-1.1,0.3-1.6c0.2-0.7,0.3-1.3,0.5-1.9c0.2-0.5,0.3-1,0.4-1.5c0.1-0.3,0.2-0.7,0.1-1.1
	c0.2,0.2,0.5,0.3,0.7,0.4c0.3,0.2,0.6,0.6,0.8,0.9c0.3,0.4,0.4,0.9,0.5,1.3c0.1,0.3,0,0.6,0.1,0.9c0,0.1,0.1,0.1,0.1,0.1
	c0.3-0.1,0.6-0.5,0.8-0.8c0.4-0.5,0.7-0.9,0.9-1.4c0.3-0.6,0.7-1.2,0.8-1.9c0.2-0.3,0.2-0.6,0.2-0.8c0.3,0.2,0.6,0.5,1,0.6
	c0,0,0,0,0.1,0c0,0,0.1,0,0.1,0.1c0,0,0,0,0,0c0.6,0.5,1.1,1.1,1.5,1.7c0.3,0.3,0.5,0.7,0.7,1.1c0,0,0,0.1,0,0.1
	c0.4,0.7,0.5,1.5,0.6,2.3c0,0.4,0.1,0.9,0,1.3c0,0.3-0.1,0.6-0.1,0.8c0,0,0,0.1,0.1,0.1c0.3,0.1,0.7,0,0.9-0.1
	c0.4-0.1,0.9-0.4,1.3-0.7c0.4-0.3,0.7-0.7,0.9-1.1c0.2-0.3,0.5-0.6,0.6-1c0-0.1-0.1-0.1-0.1-0.1c-0.2,0-0.4,0.1-0.6,0.1
	c-0.1,0-0.3,0-0.4-0.1c-0.4-0.2-0.8-0.4-1.2-0.7c-0.1,0-0.1-0.1-0.2-0.1c0,0,0,0,0,0c-0.3-0.4-0.7-1-1.1-1.3c0,0,0,0-0.1,0
	c-0.1-0.1-0.1-0.2-0.2-0.3c0,0,0,0,0,0c0-0.1-0.1-0.3-0.2-0.4c-0.2-0.2-0.3-0.5-0.5-0.8c-0.4-0.6-0.8-1-1.3-1.4c0,0,0,0,0,0
	C29.5,16.8,28.4,16.4,27.8,16.2z"/>
<path id="XMLID_180_" style="fill:#FFFFFF;" d="M15.3,46.6c-0.2-0.1-0.4,0-0.4,0.2c0,0.2,0.2,0.3,0.4,0.3c0,0,0.1,0,0.1,0
	c0.1,0,0.2,0,0.2-0.1C15.6,46.8,15.5,46.6,15.3,46.6z"/>
<path id="XMLID_169_" style="fill:#FFFFFF;" d="M30.4,45.1c-0.2-0.1-0.3,0-0.4,0.2c0,0,0,0,0,0c0,0.1,0,0.2,0,0.2
	c0.1,0.1,0.3,0.2,0.4,0C30.6,45.5,30.6,45.2,30.4,45.1z"/>
<path id="XMLID_181_" style="fill:#FFFFFF;" d="M32.6,42.3c-0.1,0-0.3,0.1-0.4,0.2c-0.3,0.2-0.6,0.4-1,0.5c-0.6,0.3-1.3,0.6-1.9,0.9
	c-0.7,0.3-1.4,0.5-2.1,0.6c-0.4,0.1-1,0.1-1.4,0.3c0,0,0,0-0.1,0c-0.1,0-0.2,0-0.3,0.1c-0.5,0-1,0.1-1.5,0c-0.5,0-1.1-0.2-1.6-0.1
	c-0.2,0-0.4-0.1-0.7-0.1c-0.4-0.1-0.7-0.2-1.1-0.3c-0.4-0.1-0.8-0.2-1.2-0.3c-0.1,0-0.1,0-0.2,0c-0.3-0.1-0.6-0.3-0.9-0.5
	c-0.5-0.3-1-0.5-1.5-0.8c-0.2-0.1-0.5-0.3-0.8-0.4c-0.8-0.6-1.8-1.1-2.4-1.9c0-0.1-0.1-0.1-0.2,0c-0.5,0.4,0,0.8,0.4,1.1
	c0.1,0.1,0.2,0.2,0.3,0.2c0,0,0.1,0.1,0.1,0.1c0,0,0,0,0,0c0.1,0,0.1,0.1,0.2,0.1c0,0,0.1,0.1,0.1,0.1c0,0,0,0,0,0
	c0.2,0.1,0.3,0.2,0.5,0.4c0,0,0,0,0.1,0c0.2,0.2,0.5,0.4,0.7,0.5c0.1,0,0.1,0.1,0.2,0.1c0,0,0,0.1,0.1,0.1c0.6,0.3,1.2,0.6,1.9,0.8
	c0.1,0.1,0.2,0.1,0.3,0.2c0,0,0,0,0,0.1c0.3,0.3,0.9,0.3,1.2,0.5c0,0,0,0,0.1,0c0.2,0.1,0.5,0.2,0.8,0.2c0,0,0,0,0,0
	c0,0,0,0.1,0.1,0.1c0.6,0.1,1.2,0.3,1.8,0.3c0.3,0,0.6,0.1,0.9,0.1c0.5,0.1,1.1,0,1.6,0c0.3,0,0.6,0,0.9,0c0.3,0,0.6,0,0.8-0.1
	c0.1,0,0.2,0,0.2-0.1c0,0,0,0,0,0c0,0,0,0,0,0c0,0,0,0,0,0c0,0,0,0,0,0c0.1,0,0.1,0,0.2,0c0.2,0,0.4,0,0.6-0.1
	c0.2-0.1,0.4-0.2,0.6-0.2c0.3,0,0.7-0.1,1-0.2c0.3-0.1,0.6-0.3,0.9-0.5c0.2-0.1,0.4-0.2,0.5-0.2c0.4-0.2,0.8-0.4,1.1-0.7
	c0.4-0.3,0.9-0.5,1.2-0.8C32.8,42.5,32.7,42.3,32.6,42.3z"/>
<ellipse id="XMLID_184_" transform="matrix(0.6284 -0.7779 0.7779 0.6284 -9.6869 22.5728)" style="opacity:0.1;fill:#FFFFFF;" cx="18.8" cy="21.4" rx="4" ry="2.2"/>
<path id="XMLID_202_" style="fill:#CCCECE;" d="M37.4,25.7c-0.1-0.1-0.1-0.2-0.2-0.3c0-0.1,0-0.2-0.1-0.2c-0.1,0-0.2,0-0.3,0
	c-0.1-0.1,0-0.3,0-0.4c0-0.1,0-0.1-0.1-0.1c-0.4-0.1-0.4-0.1-0.8,0.1c-0.5,0.3-1,0.7-1.5,1.1c-1,0.6-2,1.4-3,1.9
	c-0.1,0-0.1,0.1-0.1,0.2c0.3,0.4,0,0.8-0.5,0.8c0,0,0,0,0,0c-0.1-0.1-0.2,0-0.2,0.1c0,0.3-0.1,0.6-0.4,0.9c-0.2,0.1-0.4,0-0.6,0
	c-0.1,0-0.1,0.1-0.1,0.2c0.1,0.4-0.2,0.6-0.5,0.8c-0.3,0.1-0.6,0-0.9,0c-0.1,0-0.1,0-0.1,0.1c0,0.1,0,0.4,0,0.5c0,0-0.1,0.2-0.2,0.3
	c-0.1,0-0.1,0-0.2,0c0,0-0.1,0.1,0,0.1c0,0,0,0,0.1,0c0,0,0,0,0,0c0,0,0,0,0.1,0c0.3,0.1,0.7,0.1,1,0.1c0.3,0,0.6,0.1,0.9,0.1
	c-0.2,0.4-0.6,0.7-0.9,1c-0.4,0.4-1,0.7-1.5,0.9c-0.5,0.2-1,0.3-1.5,0.5c-0.5,0.2-1.1,0.2-1.7,0.3c0-0.1-0.2-0.1-0.2,0
	c-0.4,0.5-0.9,0.9-1.5,1.1c-0.2,0.1-0.7,0.1-0.7,0.4c0.1,0.6-0.5,1.3-1,1.7c-0.5,0.4-1.2,0.7-1.8,0.4c-0.1,0-0.2,0-0.2,0.1
	c-0.3,0.7-1.1,1.4-1.8,1.7c-0.2,0.1-0.5,0.1-0.8,0.2l-1.6-0.3c0,0-0.1,0-0.1,0c0,0,0,0.1-0.1,0.1L1.6,46.6
	c3.6,16.1,28.7,14.2,28.7,14.2l2.6-15.3c0.2-0.7,0.3-1.4,0.4-2.2l0.7-4.3c0.1-0.3,0.1-0.5,0.1-0.8c0.1-0.7,0.1-1.3,0.2-2
	c0-0.4,0.1-0.9-0.1-1.3c0.3-0.1,0.6-0.2,0.8-0.3c0.5-0.2,0.9-0.4,1.4-0.6c0.1,0,0.1-0.2,0-0.2c-0.2-0.1,0-0.4,0.1-0.5
	c0.1-0.1,0-0.2,0-0.2c-0.2-0.2-0.2-0.4,0-0.5c0.1-0.1,0-0.2-0.1-0.2c-0.1-0.1-0.1-0.2-0.1-0.3c0-0.1-0.1-0.1-0.1-0.1
	c-0.4,0.1-0.9,0.2-1.3,0.4c-0.2,0.1-0.4,0.1-0.7,0.2c-0.1,0-0.3,0.2-0.4,0c0-0.1-0.1-0.2-0.1-0.4c-0.2-0.5-0.4-1-0.6-1.5
	c-0.1-0.5-0.4-0.9-0.8-1.3c0.2-0.1,0.4-0.1,0.6-0.2c0.3-0.1,0.5-0.3,0.7-0.4c0.5-0.4,1.1-0.7,1.6-1.1c0.5-0.4,1.1-0.7,1.6-1.2
	c0.2-0.2,0.7-0.4,0.8-0.7C37.6,25.8,37.5,25.7,37.4,25.7z"/>
<path id="XMLID_242_" style="fill:#FFCF83;" d="M21.6,34.5c-0.7-0.1-1.4-0.4-2.1-0.7c-0.7-0.3-1.4-0.7-2-1.2
	c-0.6-0.4-1.3-0.8-1.7-1.4c0-0.1-0.1,0-0.2,0c-0.2,0-0.5,0.1-0.7,0.1c-0.4,0-0.9,0.1-1.3,0.1c-0.5,0.1-1.1,0.1-1.6,0.2
	c0,0-0.1,0-0.1,0c-0.4,0.1-0.9,0-1.3,0.1c-0.4,0-0.8,0.1-1.2,0.1c-0.2,0-0.4,0-0.7,0c-0.1,0-0.3,0-0.4,0c-0.4,0-0.7,0-1.1,0
	c-0.5,0-1-0.1-1.4-0.1c-0.2,0-0.4-0.1-0.7-0.1c-0.4,0-0.7-0.1-1.1-0.2c-0.4-0.1-0.8,0-1.2-0.1c-0.3-0.1-0.7-0.1-1-0.1
	c-0.1,0-0.2,0-0.3-0.1c-0.5-0.1-1.5-0.6-1.6,0.2c-0.2,0.8,0.2,1.5,0.6,2.2c0.2,0.4,0.5,0.9,0.9,1.3C1.7,34.9,2,35,2.4,35.1
	c-0.2,0.6,0.3,1.2,0.8,1.6c0.4,0.3,0.7,0.6,1.2,0.8c0.4,0.2,1,0.2,1.4,0.2c0.3,0,0.4,0.4,0.5,0.6c0.1,0.2,0.3,0.3,0.5,0.5
	c0.4,0.3,0.8,0.6,1.3,0.8c0.6,0.2,1.3,0.2,2-0.1c0,0,0,0,0,0c0.5,0.8,1.5,1.1,2.4,1.1c0.4,0,0.9,0,1.2-0.2c0.2-0.1,0.5-0.3,0.7-0.5
	c0.2,0.3,0.6,0.4,1,0.4c0.6,0,1.1,0,1.7-0.2c0.6-0.2,1.4-1,1.5-1.7c0.6,0.5,1.6,0,2.1-0.5c0.4-0.3,0.7-0.7,0.8-1.2
	c0.1-0.2,0.1-0.5,0.1-0.7c0.3,0,0.5-0.1,0.8-0.3c0.4-0.2,0.7-0.4,1-0.6c0,0,0.1,0,0.1-0.1c0,0,0,0,0,0c0,0,0,0,0,0
	c0,0,0.1-0.1,0.1-0.1c0-0.1,0-0.2-0.1-0.2C22.9,34.5,22.3,34.6,21.6,34.5z"/>
<ellipse id="XMLID_189_" transform="matrix(0.8022 -0.597 0.597 0.8022 -25.3703 16.9714)" style="opacity:0.26;fill:#FFFFFF;" cx="12.9" cy="46.8" rx="6.4" ry="3.6"/>
<g id="ticks">
</g>
</svg>
