<?xml version="1.0" encoding="utf-8"?>
<!-- Generator: Adobe Illustrator 19.0.0, SVG Export Plug-In . SVG Version: 6.00 Build 0)  -->
<svg version="1.1" id="Layer_1" xmlns="http://www.w3.org/2000/svg" xmlns:xlink="http://www.w3.org/1999/xlink" x="0px" y="0px"
	 viewBox="10 -80 380 380" style="enable-background:new 10 -80 380 380;" xml:space="preserve">
<path style="opacity:0.35;fill:#4F4F4F;enable-background:new    ;" d="M376.2,231.7c-24.5-9-47.4-22.3-66.7-39.8
	c11.5,1.2,22.9,2,34.4,0.4c1-0.1,1.2-1.9,0.3-2.3c-10.1-4.7-20-9.9-29.7-15.6c6.2,0.8,12.4,1,18.8,0.5c1.4-0.1,1.7-2,0.3-2.5
	c-16.4-6.1-31.2-15.4-43.2-28c18.3,6.2,37.8,7.3,56.8,3.5c1.3-0.3,1.1-2,0-2.4c-20.1-7.3-38.6-18.2-54.5-32.4
	c9.2,0.9,18.3,1.6,27.5,0.3c1.1-0.1,1.9-1.7,0.6-2.3c-21.7-10.2-42-22.8-60.6-37.9c0.6,0,1.3-0.1,1.9-0.1
	c13.4,5.7,27.4,9.8,42.2,8.6c1.4-0.1,1.7-2,0.3-2.5c-0.3-0.1-0.7-0.3-1-0.4l0,0l0,0c-5.6-2.1-10.9-4.8-15.9-7.9
	c0.2-0.6,0-1.4-0.8-1.7c-1.1-0.3-2.2-0.7-3.3-1.1c-4-2.8-7.7-6-11.1-9.5c13.8,4.4,28.3,5.1,42.5,2.3c1.3-0.3,1.1-2,0-2.4
	c-15.1-5.5-29-13.6-41-24.1c6.7,0.6,13.4,1.1,20.2,0.1c1.1-0.1,1.9-1.7,0.6-2.3C278.4,24.5,263.1,15,249,3.7
	c6.5-0.4,13-0.8,19.5-1.1c1.4-0.1,1.7-2,0.3-2.5c-0.3-0.1-0.5-0.2-0.8-0.3l0,0h-0.1C256-4,244.5-9.1,234.1-15.9
	c-5.4-3.5-10.6-7.5-15.3-11.8c-3.1-2.8-5.9-6.7-10.6-5.9c-3.2,0.6-5.3,3.2-7.6,5.3c-4.8,4.4-9.9,8.3-15.3,11.9
	c-10.7,7.1-22.5,12.5-34.8,16.3c-0.1,0-0.3,0-0.4,0c0,0.1,0,0.1,0,0.2H150c-1.4,0.4-1.1,2.4,0.3,2.5c6.5,0.3,13,0.7,19.5,1.1
	c-13.8,11.2-29,20.5-45.1,28.1c-0.1,0-0.2,0-0.3,0v0.1c-0.2,0.1-0.4,0.2-0.5,0.3c-1.3,0.6-0.4,2.2,0.6,2.3
	c6.8,0.8,13.5,0.5,20.2-0.2c-12,10.6-25.9,18.7-41,24.2c-1.1,0.4-1.3,2.1,0,2.4c14.2,2.9,28.7,2.1,42.5-2.3c-3.4,3.4-7.1,6.5-11,9.3
	c-1.1,0.4-2.2,0.7-3.4,1.1c-0.9,0.2-1.1,1.1-0.8,1.7c-5.1,3.2-10.5,5.9-16.2,8.1c-0.1,0-0.3,0-0.4,0c0,0.1,0,0.1,0,0.2
	c-0.1,0-0.2,0.1-0.3,0.1c-1.3,0.5-1.1,2.3,0.3,2.5c14.9,1.2,29-2.9,42.5-8.7c0.6,0,1.1,0.1,1.7,0.1c-18.6,15.1-39,27.7-60.6,37.9
	c-1.3,0.6-0.4,2.2,0.6,2.3c9.2,1.2,18.3,0.6,27.5-0.3c-15.9,14.2-34.4,25-54.5,32.4c-1.1,0.4-1.3,2.1,0,2.4
	c19,3.9,38.5,2.7,56.8-3.5c-11.9,12.4-26.5,21.7-42.7,27.8c-0.1,0-0.1,0-0.2,0v0.1c-0.1,0-0.2,0.1-0.3,0.1c-1.3,0.5-1.1,2.3,0.3,2.5
	c6.5,0.6,12.9,0.3,19.2-0.5c-9.7,5.7-19.7,10.9-29.9,15.7c-0.9,0.4-0.8,2.1,0.3,2.3c11.5,1.5,22.9,0.8,34.4-0.4
	c-19.4,17.5-42.1,30.8-66.7,39.8c-1.1,0.4-1.3,2.1,0,2.4c23.3,4.8,47.3,3.2,69.6-4.6c-14.7,15.6-33,27.3-53.2,34.8
	c-1.3,0.5-1.1,2.3,0.3,2.5c32.6,2.8,62.8-10.9,91.3-25.1c-2.3,9.6-6.3,18.6-11.8,26.8c-0.7,1,0.4,2,1.4,1.8
	c19.2-4,37.2-12.2,52.5-24.6c0.5,1.1,1.1,2.2,1.6,3.3c1.1,11.3,2.1,22.5,3.2,33.8c0.3,2.8,0.5,5.6,1.7,7.9c1.2,2.2,0.8,2,5.2,2.2
	h9.3c4.5,0.2,4,0.1,5.2-2.2s1.4-5.1,1.7-7.9c1.1-11.3,2.1-22.6,3.2-33.9c0.7-1.1,1.3-2.2,2-3.3c15.3,12.5,33.3,20.8,52.6,24.8
	c1,0.2,2.1-0.9,1.4-1.8c-5.5-8.3-9.6-17.2-11.8-26.8c28.4,14.2,58.7,27.9,91.3,25.1c1.4-0.1,1.7-2,0.3-2.5
	c-20.2-7.4-38.5-19.1-53.2-34.8c22.3,7.8,46.4,9.2,69.6,4.6C377.5,233.8,377.3,232.1,376.2,231.7z"/>
<g id="XMLID_285_">
	<path id="XMLID_162_" style="fill:#7C3C33;" d="M218,243.7c-1.2,12.7-2.4,25.4-3.6,38.1c-0.3,2.8-0.5,5.6-1.7,7.9s-0.7,2.4-5.2,2.2
		h-9.3c-4.4-0.2-4,0-5.2-2.2c-1.2-2.3-1.4-5.1-1.7-7.9c-1.2-12.7-2.4-25.4-3.6-38.1l-1.7-25.9h34.2L218,243.7z"/>
</g>
<g id="XMLID_230_">
	<g id="XMLID_247_">
		<path id="XMLID_248_" style="fill:#39A48A;" d="M219.3,242.7c14.7,12.6,33.4,21.4,53.3,25.4c-6.2-9.1-10.5-19.2-12.5-29.7
			c28.9,14.4,60.2,29.3,93,26.1c-22.5-8.1-42.4-21.7-57.2-38.9c22.9,9.2,49.2,11.4,73.7,6.3c-26.4-9.5-50.5-24.1-70-42.6
			c12.5,1.3,25.2,2.7,37.7,0.8c-27.8-13-53.6-29.3-76.6-48.4c12-0.7,24-1.4,36-2c-32.6-9.8-62.6-27-85.6-49.9
			c-8.2-8.2-15.6,0-15.6,0c-23.2,22.7-53,40.1-85.6,49.9c12,0.7,24,1.4,36,2c-22.9,19.1-48.8,35.4-76.6,48.4
			c12.4,1.8,25.2,0.5,37.7-0.8c-19.5,18.5-43.6,33.1-70,42.6c24.4,5.2,50.8,2.9,73.7-6.3c-14.8,17.2-34.8,30.8-57.2,38.9
			c32.9,3.2,64.2-11.7,93-26.1c-2,10.5-6.3,20.7-12.5,29.7c19.9-3.9,38.5-12.8,53.3-25.4l14.8,29.9L219.3,242.7z"/>
		<g id="XMLID_242_">
			<path id="XMLID_246_" style="fill:#39A48A;" d="M218.4,243.6c15.5,13,34,21.6,53.8,25.7c1,0.2,2.1-0.9,1.4-1.8
				c-6-9-10.3-18.8-12.4-29.4c-0.6,0.5-1.2,0.9-1.8,1.4c29.1,14.6,60.2,29.2,93.7,26.3c1.4-0.1,1.7-2,0.3-2.5
				c-21.8-8-41.4-21-56.7-38.6c-0.4,0.7-0.8,1.4-1.2,2.1c23.6,9.3,49.5,11.3,74.3,6.3c1.3-0.3,1.1-2,0-2.4
				c-25.7-9.4-49.5-23.5-69.4-42.3c-0.3,0.7-0.6,1.4-0.9,2.1c12.7,1.4,25.3,2.5,38,0.8c1-0.1,1.2-1.9,0.3-2.3
				c-27.4-12.8-53-28.9-76.3-48.2c-0.3,0.7-0.6,1.4-0.9,2.1c12-0.7,24-1.4,36-2c1.4-0.1,1.7-2,0.3-2.5c-29.9-9.1-58-24.3-81-45.6
				c-4-3.7-7.8-8.5-13.8-7.9c-3,0.3-5.5,1.9-7.7,3.9c-11.4,10.3-23,19.9-36.2,27.9c-15.3,9.3-31.8,16.4-48.9,21.7
				c-1.4,0.4-1.1,2.4,0.3,2.5c12,0.7,24,1.4,36,2c-0.3-0.7-0.6-1.4-0.9-2.1c-23.3,19.3-49,35.4-76.3,48.2c-0.9,0.4-0.8,2.1,0.3,2.3
				c12.7,1.7,25.3,0.6,38-0.8c-0.3-0.7-0.6-1.4-0.9-2.1c-20,18.7-43.7,32.9-69.4,42.3c-1.1,0.4-1.3,2.1,0,2.4
				c24.9,5.1,50.7,3,74.3-6.3c-0.4-0.7-0.8-1.4-1.2-2.1c-15.3,17.5-34.9,30.5-56.7,38.6c-1.3,0.5-1.1,2.3,0.3,2.5
				c33.5,2.9,64.5-11.7,93.7-26.3c-0.6-0.5-1.2-0.9-1.8-1.4c-2.2,10.6-6.4,20.5-12.4,29.4c-0.7,1,0.4,2,1.4,1.8
				c19.8-4.1,38.3-12.7,53.8-25.7c-0.7-0.1-1.3-0.2-2-0.3c4.9,10,9.8,20,14.8,29.9c0.4,0.9,1.7,0.8,2.2,0c5.8-10,11.7-20,17.5-29.9
				c0.8-1.4-1.3-2.7-2.2-1.3c-5.8,10-11.7,20-17.5,29.9c0.7,0,1.4,0,2.2,0c-4.9-10-9.8-20-14.8-29.9c-0.4-0.8-1.4-0.7-2-0.3
				c-15.2,12.7-33.3,21.1-52.7,25.1c0.5,0.6,0.9,1.2,1.4,1.8c6.2-9.2,10.5-19.2,12.7-30c0.2-1.1-0.8-1.9-1.8-1.4
				c-28.8,14.4-59.4,28.8-92.4,26c0.1,0.8,0.2,1.6,0.3,2.5c22.2-8.2,42.2-21.4,57.8-39.2c0.7-0.8,0-2.6-1.2-2.1
				c-23.2,9.1-48.6,11.2-73,6.3c0,0.8,0,1.6,0,2.4c26.1-9.5,50.2-23.9,70.5-42.9c0.7-0.7,0.2-2.3-0.9-2.1
				c-12.4,1.3-24.9,2.6-37.3,0.9c0.1,0.8,0.2,1.5,0.3,2.3c27.6-12.9,53.4-29.2,76.8-48.6c0.9-0.7,0.1-2.1-0.9-2.1
				c-12-0.7-24-1.4-36-2c0.1,0.8,0.2,1.6,0.3,2.5c27.4-8.4,53.3-21.9,75.3-40.3c4.1-3.4,7.7-7.5,11.9-10.8c7.7-6,13.9,2.2,19.3,7.1
				c10.5,9.5,22.1,17.7,34.4,24.7c14.3,8.1,29.5,14.5,45.3,19.3c0.1-0.8,0.2-1.6,0.3-2.5c-12,0.7-24,1.4-36,2
				c-1,0.1-1.8,1.4-0.9,2.1c23.4,19.4,49.3,35.7,76.8,48.6c0.1-0.8,0.2-1.5,0.3-2.3c-12.4,1.7-24.9,0.4-37.3-0.9
				c-1.1-0.1-1.6,1.4-0.9,2.1c20.3,19.1,44.4,33.4,70.5,42.9c0-0.8,0-1.6,0-2.4c-24.4,5-49.8,2.8-73-6.3c-1.3-0.5-2,1.2-1.2,2.1
				c15.6,17.9,35.6,31,57.8,39.2c0.1-0.8,0.2-1.6,0.3-2.5c-33,2.9-63.6-11.6-92.4-26c-1-0.5-2.1,0.3-1.8,1.4
				c2.2,10.8,6.5,20.9,12.7,30c0.5-0.6,0.9-1.2,1.4-1.8c-19.4-4-37.5-12.3-52.7-25.1C219,240.8,217.2,242.6,218.4,243.6z"/>
		</g>
	</g>
	<g id="XMLID_239_">
		<path id="XMLID_263_" style="fill:#44B299;" d="M216.5,154.7c12.2,10.4,27.5,17.7,44,20.9c-5.2-7.5-8.7-15.9-10.4-24.6
			c23.8,11.9,49.7,24.2,76.8,21.6c-18.6-6.7-35-17.9-47.2-32.1c18.9,7.6,40.6,9.4,60.8,5.2c-21.8-7.8-41.7-19.9-57.8-35.2
			c10.3,1.1,20.8,2.2,31.1,0.7c-22.9-10.7-44.3-24.2-63.2-40c9.9-0.6,19.8-1.1,29.7-1.7c-26.9-8.1-51.6-22.3-70.7-41.2
			c-6.8-6.7-12.9,0-12.9,0C177.5,47.1,153,61.4,126,69.5c9.9,0.6,19.8,1.1,29.7,1.7c-18.9,15.8-40.3,29.3-63.2,40
			c10.3,1.5,20.8,0.4,31.1-0.7c-16.1,15.3-36,27.4-57.8,35.2c20.2,4.3,41.9,2.4,60.8-5.2c-12.2,14.2-28.7,25.4-47.2,32.1
			c27.1,2.6,53-9.7,76.8-21.6c-1.7,8.7-5.2,17.1-10.4,24.6c16.4-3.2,31.8-10.6,44-20.9l12.2,24.7L216.5,154.7z"/>
		<g id="XMLID_258_">
			<path id="XMLID_262_" style="fill:#44B299;" d="M215.6,155.6c12.9,10.8,28.1,17.9,44.5,21.3c1,0.2,2.1-0.9,1.4-1.8
				c-5-7.4-8.4-15.5-10.2-24.3c-0.6,0.5-1.2,0.9-1.8,1.4c24.1,12,49.7,24.1,77.4,21.7c1.4-0.1,1.7-2,0.3-2.5
				c-18-6.7-34.1-17.3-46.7-31.8c-0.4,0.7-0.8,1.4-1.2,2.1c19.6,7.7,40.9,9.3,61.5,5.2c1.3-0.3,1.1-2,0-2.4
				c-21.2-7.7-40.7-19.4-57.2-34.9c-0.3,0.7-0.6,1.4-0.9,2.1c10.4,1.1,20.7,2.1,31.1,0.7c1.1-0.1,1.9-1.7,0.6-2.3
				c-22.6-10.6-43.7-23.9-63-39.8c-0.3,0.7-0.6,1.4-0.9,2.1c9.9-0.6,19.8-1.1,29.7-1.7c1.4-0.1,1.7-2,0.3-2.5
				c-15.9-4.9-31.1-11.7-45-20.7c-7.2-4.7-14.1-9.9-20.4-15.7c-4-3.6-7.8-8.9-13.9-7.6c-4.2,0.9-7.1,4.8-10.2,7.5
				c-6.2,5.6-12.8,10.6-19.8,15.2c-14.1,9.3-29.5,16.3-45.7,21.2c-1.4,0.4-1.1,2.4,0.3,2.5c9.9,0.6,19.8,1.1,29.7,1.7
				c-0.3-0.7-0.6-1.4-0.9-2.1c-19.2,15.9-40.4,29.2-63,39.8c-1.3,0.6-0.4,2.2,0.6,2.3c10.4,1.4,20.7,0.4,31.1-0.7
				c-0.3-0.7-0.6-1.4-0.9-2.1c-16.5,15.4-36,27.1-57.2,34.9c-1.1,0.4-1.3,2.1,0,2.4c20.6,4.2,41.9,2.5,61.5-5.2
				c-0.4-0.7-0.8-1.4-1.2-2.1c-12.6,14.4-28.7,25.1-46.7,31.8c-1.3,0.5-1.1,2.3,0.3,2.5c27.7,2.4,53.3-9.7,77.4-21.7
				c-0.6-0.5-1.2-0.9-1.8-1.4c-1.8,8.8-5.2,16.8-10.2,24.3c-0.7,1,0.4,2,1.4,1.8c16.4-3.4,31.6-10.5,44.5-21.3
				c-0.7-0.1-1.3-0.2-2-0.3c4.1,8.2,8.1,16.5,12.2,24.7c0.4,0.9,1.7,0.8,2.2,0c4.8-8.2,9.6-16.5,14.5-24.7c0.8-1.4-1.3-2.7-2.2-1.3
				c-4.8,8.2-9.6,16.5-14.5,24.7c0.7,0,1.4,0,2.2,0c-4.1-8.2-8.1-16.5-12.2-24.7c-0.4-0.8-1.4-0.7-2-0.3
				c-12.5,10.5-27.4,17.3-43.4,20.6c0.5,0.6,0.9,1.2,1.4,1.8c5.1-7.6,8.6-15.9,10.5-24.9c0.2-1.1-0.8-1.9-1.8-1.4
				c-23.8,11.9-48.9,23.7-76.2,21.4c0.1,0.8,0.2,1.6,0.3,2.5c18.4-6.8,34.9-17.7,47.8-32.4c0.7-0.8,0-2.6-1.2-2.1
				c-19.2,7.5-40,9.3-60.2,5.2c0,0.8,0,1.6,0,2.4c21.6-7.9,41.5-19.8,58.3-35.5c0.7-0.7,0.2-2.3-0.9-2.1
				c-10.4,1.1-20.7,2.1-31.1,0.7c0.2,0.8,0.4,1.6,0.6,2.3c22.8-10.7,44.1-24.1,63.5-40.2c0.9-0.7,0.1-2.1-0.9-2.1
				c-9.9-0.6-19.8-1.1-29.7-1.7c0.1,0.8,0.2,1.6,0.3,2.5c14.5-4.4,28.4-10.5,41.4-18.4c6.2-3.7,12.1-7.9,17.7-12.4
				c3-2.4,5.8-4.8,8.6-7.4c1.7-1.6,3.4-3.6,5.5-4.8c6.9-4,15.6,7.7,20.6,11.8c5.6,4.5,11.5,8.7,17.6,12.5
				c13.2,8.1,27.4,14.3,42.1,18.8c0.1-0.8,0.2-1.6,0.3-2.5c-9.9,0.6-19.8,1.1-29.7,1.7c-1,0.1-1.8,1.4-0.9,2.1
				c19.4,16,40.7,29.4,63.5,40.2c0.2-0.8,0.4-1.6,0.6-2.3c-10.4,1.4-20.7,0.4-31.1-0.7c-1.1-0.1-1.6,1.4-0.9,2.1
				c16.8,15.7,36.7,27.6,58.3,35.5c0-0.8,0-1.6,0-2.4c-20.2,4.1-41,2.3-60.2-5.2c-1.3-0.5-2,1.2-1.2,2.1
				c12.9,14.8,29.4,25.6,47.8,32.4c0.1-0.8,0.2-1.6,0.3-2.5c-27.3,2.3-52.4-9.5-76.2-21.4c-1-0.5-2.1,0.3-1.8,1.4
				c1.8,9,5.4,17.3,10.5,24.9c0.5-0.6,0.9-1.2,1.4-1.8c-16-3.3-30.9-10.1-43.4-20.6C216.1,152.8,214.4,154.6,215.6,155.6z"/>
		</g>
	</g>
	<g id="XMLID_231_">
		<path id="XMLID_270_" style="fill:#55C1A9;" d="M213.4,65.6c9.3,7.9,21.1,13.6,33.7,16c-3.9-5.7-6.7-12.2-7.9-18.8
			c18.2,9.1,38,18.5,58.8,16.5c-14.2-5.1-26.8-13.7-36.2-24.6c14.5,5.8,31.1,7.2,46.6,4c-16.7-6-31.9-15.3-44.2-26.9
			c7.9,0.8,16,1.7,23.8,0.5c-17.6-8.2-33.9-18.5-48.4-30.6c7.6-0.4,15.2-0.9,22.8-1.3c-20.6-6.2-39.6-17.1-54.1-31.5
			c-5.2-5.2-9.9,0-9.9,0c-14.7,14.4-33.5,25.3-54.1,31.5c7.6,0.4,15.2,0.9,22.8,1.3c-14.5,12.1-30.8,22.4-48.4,30.6
			c7.9,1.2,15.9,0.3,23.8-0.5c-12.3,11.7-27.6,20.9-44.2,26.9c15.5,3.3,32.1,1.8,46.6-4c-9.3,10.9-22,19.4-36.2,24.6
			c20.8,2,40.6-7.4,58.8-16.5c-1.3,6.6-4,13.1-7.9,18.8c12.6-2.5,24.3-8.1,33.7-16l9.3,18.9L213.4,65.6z"/>
		<g id="XMLID_265_">
			<path id="XMLID_269_" style="fill:#55C1A9;" d="M212.5,66.5c9.9,8.3,21.6,13.7,34.2,16.4c1,0.2,2.1-0.9,1.4-1.8
				c-3.8-5.7-6.4-11.8-7.8-18.5c-0.6,0.5-1.2,0.9-1.8,1.4c18.6,9.3,38.2,18.4,59.4,16.7c1.4-0.1,1.7-2,0.3-2.5
				c-13.7-5.1-25.9-13.2-35.6-24.3c-0.4,0.7-0.8,1.4-1.2,2.1c15.1,5.9,31.4,7.1,47.2,4c1.3-0.3,1.1-2,0-2.4
				c-16.2-5.9-31.1-14.8-43.7-26.6c-0.3,0.7-0.6,1.4-0.9,2.1c8,0.8,15.8,1.6,23.8,0.5c1.1-0.1,1.9-1.7,0.6-2.3
				C271.1,23.2,255,13,240.2,0.9c-0.3,0.7-0.6,1.4-0.9,2.1c7.6-0.4,15.2-0.9,22.8-1.3c1.4-0.1,1.7-2,0.3-2.5c-12.2-3.8-24-9-34.7-16
				c-5.4-3.5-10.6-7.5-15.3-11.8c-3.1-2.8-5.9-6.7-10.6-5.9c-3.2,0.6-5.3,3.2-7.6,5.3c-4.8,4.4-9.9,8.3-15.3,11.9
				C168-10.1,156.1-4.6,143.6-0.8c-1.4,0.4-1.1,2.4,0.3,2.5c7.6,0.4,15.2,0.9,22.8,1.3c-0.3-0.7-0.6-1.4-0.9-2.1
				c-14.7,12.2-30.9,22.3-48.2,30.4c-1.3,0.6-0.4,2.2,0.6,2.3c8,1,15.9,0.3,23.8-0.5c-0.3-0.7-0.6-1.4-0.9-2.1
				c-12.6,11.8-27.5,20.7-43.7,26.6c-1.1,0.4-1.3,2.1,0,2.4c15.9,3.2,32.1,1.9,47.2-4c-0.4-0.7-0.8-1.4-1.2-2.1
				c-9.7,11-21.9,19.2-35.6,24.3c-1.3,0.5-1.1,2.3,0.3,2.5c21.3,1.7,40.9-7.4,59.4-16.7c-0.6-0.5-1.2-0.9-1.8-1.4
				c-1.4,6.7-4,12.8-7.8,18.5c-0.6,1,0.4,2,1.4,1.8c12.6-2.6,24.3-8.1,34.2-16.4c-0.7-0.1-1.3-0.2-2-0.3c3.1,6.3,6.2,12.6,9.3,18.9
				c0.4,0.9,1.7,0.8,2.2,0c3.7-6.3,7.4-12.6,11.1-18.9c0.8-1.4-1.3-2.7-2.2-1.3c-3.7,6.3-7.4,12.6-11.1,18.9c0.7,0,1.4,0,2.2,0
				c-3.1-6.3-6.2-12.6-9.3-18.9c-0.4-0.8-1.4-0.7-2-0.3c-9.6,8-20.9,13.2-33.1,15.7c0.5,0.6,0.9,1.2,1.4,1.8
				c3.9-5.9,6.6-12.2,8.1-19.1c0.2-1.1-0.8-1.9-1.8-1.4c-18.2,9.1-37.3,18.1-58.2,16.3c0.1,0.8,0.2,1.6,0.3,2.5
				c14.1-5.3,26.8-13.6,36.7-24.9c0.7-0.8,0-2.6-1.2-2.1c-14.7,5.7-30.5,7-45.9,4c0,0.8,0,1.6,0,2.4c16.6-6.1,31.8-15.2,44.8-27.3
				c0.7-0.7,0.2-2.3-0.9-2.1c-8,0.8-15.8,1.6-23.8,0.5c0.2,0.8,0.4,1.6,0.6,2.3c17.5-8.2,33.8-18.5,48.7-30.8
				c0.9-0.7,0.1-2.1-0.9-2.1c-7.6-0.4-15.2-0.9-22.8-1.3c0.1,0.8,0.2,1.6,0.3,2.5c10.8-3.3,21.3-7.8,31-13.7
				c4.8-2.9,9.4-6.1,13.8-9.6c3.7-2.9,6.9-6.8,10.7-9.4c5.3-3.5,13,6.3,16.9,9.4c4.2,3.3,8.6,6.4,13.1,9.1c10,6,20.7,10.7,31.8,14.1
				c0.1-0.8,0.2-1.6,0.3-2.5c-7.6,0.4-15.2,0.9-22.8,1.3c-1,0.1-1.8,1.4-0.9,2.1c14.9,12.3,31.2,22.6,48.7,30.8
				c0.2-0.8,0.4-1.6,0.6-2.3c-8,1-15.9,0.3-23.8-0.5c-1.1-0.1-1.6,1.4-0.9,2.1c13,12.1,28.2,21.2,44.8,27.3c0-0.8,0-1.6,0-2.4
				c-15.4,3.1-31.2,1.7-45.9-4c-1.3-0.5-2,1.2-1.2,2.1c10,11.4,22.6,19.6,36.7,24.9c0.1-0.8,0.2-1.6,0.3-2.5
				c-20.9,1.7-40-7.3-58.2-16.3c-1-0.5-2.1,0.3-1.8,1.4c1.5,6.9,4.2,13.2,8.1,19.1c0.5-0.6,0.9-1.2,1.4-1.8
				c-12.2-2.6-23.5-7.7-33.1-15.7C213,63.7,211.2,65.4,212.5,66.5z"/>
		</g>
	</g>
</g>
<g id="XMLID_412_">
	<g id="XMLID_422_">
		<path style="fill:#FFFFFF;" d="M158.9,13.9c-0.6,0-1.3-0.3-1.7-0.9c-0.1-0.1-0.1-0.1-0.1-0.2c-0.7-0.8-0.7-2,0.1-2.8
			c0.8-0.8,2-0.8,2.8,0c0.2,0.2,0.3,0.4,0.6,0.7c0.6,0.9,0.4,2.2-0.6,2.8C159.7,13.8,159.3,13.9,158.9,13.9z"/>
		<path style="fill:#FFFFFF;" d="M209.1,34.3C209.1,34.3,209.1,34.3,209.1,34.3c-0.4,0-0.7,0-1.1,0c-1.1,0-2-0.9-2-2
			c0-1.1,0.9-2,2-2c0.3,0,0.7,0,1,0c1.1,0,2,0.9,2,2C211.1,33.4,210.2,34.3,209.1,34.3z M219.2,33.7c-1,0-1.9-0.8-2-1.8
			c-0.1-1.1,0.7-2.1,1.8-2.2c0.3,0,0.7-0.1,1-0.1c1.1-0.1,2.1,0.6,2.2,1.7c0.1,1.1-0.6,2.1-1.7,2.2c-0.3,0-0.7,0.1-1,0.1
			C219.3,33.7,219.3,33.7,219.2,33.7z M198,33.4c-0.1,0-0.2,0-0.3,0c-0.3-0.1-0.7-0.1-1-0.2c-1.1-0.2-1.8-1.2-1.6-2.3
			c0.2-1.1,1.2-1.8,2.3-1.6c0.3,0.1,0.6,0.1,1,0.2c1.1,0.2,1.8,1.2,1.7,2.3C199.8,32.7,199,33.4,198,33.4z M230.1,31.9
			c-0.9,0-1.7-0.6-1.9-1.5c-0.2-1.1,0.4-2.2,1.5-2.4c0.3-0.1,0.6-0.1,1-0.2c1.1-0.3,2.2,0.4,2.4,1.5c0.3,1.1-0.4,2.2-1.5,2.4
			c-0.3,0.1-0.7,0.2-1,0.2C230.4,31.8,230.3,31.9,230.1,31.9z M187.2,30.9c-0.2,0-0.4,0-0.6-0.1c-0.3-0.1-0.7-0.2-1-0.3
			c-1-0.3-1.6-1.5-1.3-2.5c0.3-1.1,1.5-1.6,2.5-1.3c0.3,0.1,0.6,0.2,0.9,0.3c1.1,0.3,1.6,1.5,1.3,2.5
			C188.8,30.3,188,30.9,187.2,30.9z M240.8,28.8c-0.8,0-1.6-0.5-1.9-1.4c-0.4-1,0.2-2.2,1.2-2.5l0.9-0.3c1-0.4,2.2,0.2,2.6,1.2
			c0.4,1-0.2,2.2-1.2,2.6l-1,0.3C241.3,28.7,241,28.8,240.8,28.8z M176.9,26.7c-0.3,0-0.6-0.1-0.9-0.2c-0.3-0.2-0.6-0.3-0.9-0.5
			c-1-0.5-1.4-1.7-0.9-2.7c0.5-1,1.7-1.4,2.7-0.9c0.3,0.1,0.6,0.3,0.9,0.4c1,0.5,1.4,1.7,0.9,2.7C178.3,26.3,177.6,26.7,176.9,26.7z
			 M167.3,21.1c-0.4,0-0.8-0.1-1.2-0.4c-0.3-0.2-0.6-0.4-0.8-0.6c-0.9-0.7-1.1-1.9-0.4-2.8c0.7-0.9,1.9-1.1,2.8-0.4
			c0.3,0.2,0.5,0.4,0.8,0.6c0.9,0.6,1.1,1.9,0.5,2.8C168.6,20.8,167.9,21.1,167.3,21.1z"/>
		<path style="fill:#FFFFFF;" d="M251.2,24.7c-0.7,0-1.4-0.4-1.8-1.1c-0.5-1-0.1-2.2,0.9-2.7c0.2-0.1,0.4-0.2,0.5-0.2
			c1-0.5,2.2-0.1,2.7,0.9c0.5,1,0.1,2.2-0.9,2.7c-0.2,0.1-0.4,0.2-0.5,0.2C251.8,24.6,251.5,24.7,251.2,24.7z"/>
	</g>
</g>
<path style="fill:#FFFFFF;" d="M179.7,140.6h-0.1c-1.1,0-2-0.9-2-2s0.9-2,2-2l1,0c0,0,0,0,0,0c1.1,0,2,0.9,2,2c0,1.1-0.9,2-2,2
	L179.7,140.6z M169.5,140.3c0,0-0.1,0-0.1,0l-1-0.1c-1.1-0.1-1.9-1-1.9-2.1c0.1-1.1,1-1.9,2.1-1.9l1,0.1c1.1,0.1,1.9,1,1.9,2.1
	C171.5,139.5,170.6,140.3,169.5,140.3z M190.5,140.2c-1,0-1.9-0.8-2-1.9c-0.1-1.1,0.8-2.1,1.9-2.1l1-0.1c1.1-0.1,2.1,0.7,2.1,1.8
	c0.1,1.1-0.7,2.1-1.8,2.1l-1,0.1C190.6,140.2,190.6,140.2,190.5,140.2z M158.6,139.2c-0.1,0-0.2,0-0.2,0l-1-0.1
	c-1.1-0.1-1.9-1.2-1.7-2.2c0.1-1.1,1.2-1.9,2.2-1.7l1,0.1c1.1,0.1,1.9,1.1,1.7,2.2C160.4,138.5,159.6,139.2,158.6,139.2z
	 M201.4,139.1c-1,0-1.8-0.7-2-1.7c-0.2-1.1,0.6-2.1,1.7-2.3l1-0.1c1.1-0.2,2.1,0.6,2.3,1.7c0.2,1.1-0.6,2.1-1.7,2.3l-1,0.1
	C201.6,139,201.5,139.1,201.4,139.1z M147.7,137.6c-0.1,0-0.2,0-0.4,0l-1-0.2c-1.1-0.2-1.8-1.3-1.6-2.3c0.2-1.1,1.3-1.8,2.3-1.6
	l1,0.2c1.1,0.2,1.8,1.2,1.6,2.3C149.5,136.9,148.7,137.6,147.7,137.6z M212.3,137.1c-0.9,0-1.7-0.6-2-1.6c-0.2-1.1,0.4-2.1,1.5-2.4
	l1-0.2c1.1-0.2,2.1,0.4,2.4,1.5c0.2,1.1-0.4,2.1-1.5,2.4l-1,0.2C212.6,137.1,212.4,137.1,212.3,137.1z M137,135.2
	c-0.2,0-0.3,0-0.5-0.1l-1-0.2c-1.1-0.3-1.7-1.3-1.5-2.4s1.3-1.7,2.4-1.5l1,0.2c1.1,0.3,1.7,1.3,1.5,2.4
	C138.7,134.6,137.9,135.2,137,135.2z M222.9,134.3c-0.9,0-1.7-0.6-1.9-1.4c-0.3-1.1,0.3-2.2,1.3-2.5l0.9-0.3
	c1.1-0.3,2.2,0.3,2.5,1.3c0.3,1.1-0.3,2.2-1.3,2.5l-1,0.3C223.3,134.3,223.1,134.3,222.9,134.3z M126.4,132.4c-0.2,0-0.4,0-0.6-0.1
	l-1-0.3c-1.1-0.3-1.7-1.4-1.3-2.5c0.3-1.1,1.4-1.7,2.5-1.3l1,0.3c1.1,0.3,1.7,1.4,1.3,2.5C128,131.8,127.2,132.4,126.4,132.4z
	 M233.3,130.8c-0.8,0-1.6-0.5-1.9-1.3c-0.4-1,0.1-2.2,1.1-2.6l0.9-0.4c1-0.4,2.2,0.1,2.6,1.1s-0.1,2.2-1.1,2.6l-0.9,0.4
	C233.8,130.7,233.6,130.8,233.3,130.8z M115.9,128.9c-0.2,0-0.4,0-0.7-0.1l-1-0.3c-1-0.4-1.6-1.5-1.2-2.6c0.4-1,1.5-1.6,2.6-1.2
	l0.9,0.3c1,0.4,1.6,1.5,1.2,2.6C117.5,128.4,116.7,128.9,115.9,128.9z M243.4,126.4c-0.7,0-1.5-0.4-1.8-1.1c-0.5-1-0.1-2.2,0.9-2.7
	l0.9-0.4c1-0.5,2.2-0.1,2.7,0.9c0.5,1,0.1,2.2-0.9,2.7l-0.9,0.4C244,126.3,243.7,126.4,243.4,126.4z M253.1,121.2
	c-0.7,0-1.4-0.4-1.7-1c-0.6-1-0.2-2.2,0.7-2.7l0.9-0.5c1-0.6,2.2-0.2,2.7,0.7s0.2,2.2-0.7,2.7l-0.9,0.5
	C253.8,121.1,253.5,121.2,253.1,121.2z M262.4,115.3c-0.6,0-1.2-0.3-1.6-0.9c-0.6-0.9-0.4-2.2,0.5-2.8l0.8-0.6
	c0.9-0.6,2.1-0.4,2.8,0.5c0.6,0.9,0.4,2.1-0.5,2.8l-0.8,0.6C263.2,115.1,262.8,115.3,262.4,115.3z M271.1,108.6
	c-0.6,0-1.1-0.2-1.5-0.7c-0.7-0.8-0.6-2.1,0.2-2.8l0.7-0.6c0.8-0.7,2.1-0.6,2.8,0.2s0.6,2.1-0.2,2.8c-0.3,0.2-0.5,0.4-0.8,0.7
	C272,108.4,271.6,108.6,271.1,108.6z M279.1,101c-0.5,0-1-0.2-1.4-0.5c-0.8-0.7-0.9-2-0.1-2.8c0.4-0.4,0.6-0.7,0.6-0.7
	c0.7-0.8,2-0.9,2.8-0.2c0.8,0.7,0.9,2,0.2,2.8c0,0-0.2,0.3-0.7,0.8C280.2,100.8,279.7,101,279.1,101z"/>
<path style="fill:#FFFFFF;" d="M210.3,222.6C210.3,222.6,210.3,222.6,210.3,222.6l-1.1,0c-1.1,0-2-1-1.9-2.1c0-1.1,1-2,2.1-1.9l1,0
	c1.1,0,2,0.9,2,2C212.3,221.7,211.4,222.6,210.3,222.6z M220.3,222.6c-1.1,0-2-0.9-2-1.9c0-1.1,0.8-2,1.9-2.1l1,0
	c1.1-0.1,2,0.8,2.1,1.9c0,1.1-0.8,2-1.9,2.1L220.3,222.6C220.4,222.6,220.3,222.6,220.3,222.6z M199.4,222c-0.1,0-0.1,0-0.2,0
	l-1-0.1c-1.1-0.1-1.9-1.1-1.8-2.2s1.1-1.9,2.2-1.8l1,0.1c1.1,0.1,1.9,1.1,1.8,2.2C201.3,221.2,200.4,222,199.4,222z M231.3,222
	c-1,0-1.9-0.8-2-1.8c-0.1-1.1,0.7-2.1,1.8-2.2l1-0.1c1.1-0.1,2.1,0.7,2.2,1.8c0.1,1.1-0.7,2.1-1.8,2.2l-1,0.1
	C231.4,222,231.4,222,231.3,222z M188.4,220.9c-0.1,0-0.2,0-0.3,0l-1-0.1c-1.1-0.2-1.9-1.2-1.7-2.3s1.2-1.8,2.3-1.7l1,0.1
	c1.1,0.1,1.9,1.2,1.7,2.2C190.3,220.1,189.4,220.9,188.4,220.9z M242.3,220.8c-1,0-1.8-0.7-2-1.7c-0.1-1.1,0.6-2.1,1.7-2.2l1-0.1
	c1.1-0.1,2.1,0.6,2.2,1.7s-0.6,2.1-1.7,2.3l-1,0.1C242.4,220.8,242.3,220.8,242.3,220.8z M253.1,219.2c-1,0-1.8-0.7-2-1.6
	c-0.2-1.1,0.5-2.1,1.6-2.3l1-0.2c1.1-0.2,2.1,0.5,2.3,1.6c0.2,1.1-0.5,2.1-1.6,2.3l-1,0.2C253.4,219.1,253.2,219.2,253.1,219.2z
	 M177.6,219.1c-0.1,0-0.3,0-0.4,0l-1-0.2c-1.1-0.2-1.8-1.3-1.6-2.4c0.2-1.1,1.3-1.8,2.4-1.6l1,0.2c1.1,0.2,1.8,1.3,1.6,2.4
	C179.3,218.4,178.5,219.1,177.6,219.1z M263.9,217c-0.9,0-1.7-0.6-1.9-1.6c-0.2-1.1,0.4-2.1,1.5-2.4l1-0.2c1.1-0.2,2.2,0.4,2.4,1.5
	c0.2,1.1-0.4,2.2-1.5,2.4l-1,0.2C264.2,216.9,264,217,263.9,217z M166.8,216.6c-0.2,0-0.3,0-0.5-0.1l-1-0.3
	c-1.1-0.3-1.7-1.4-1.4-2.4c0.3-1.1,1.4-1.7,2.4-1.4l1,0.2c1.1,0.3,1.7,1.4,1.4,2.4C168.5,216,167.7,216.6,166.8,216.6z M274.6,214.3
	c-0.9,0-1.7-0.6-1.9-1.5c-0.3-1.1,0.3-2.2,1.4-2.5l1-0.3c1.1-0.3,2.2,0.3,2.5,1.4c0.3,1.1-0.3,2.2-1.4,2.5l-1,0.3
	C274.9,214.2,274.7,214.3,274.6,214.3z M156.3,213.6c-0.2,0-0.4,0-0.6-0.1l-1-0.3c-1-0.3-1.6-1.5-1.3-2.5c0.3-1,1.5-1.6,2.5-1.3
	l0.9,0.3c1.1,0.3,1.6,1.5,1.3,2.5C157.9,213,157.1,213.6,156.3,213.6z M285.1,211.1c-0.8,0-1.6-0.5-1.9-1.4
	c-0.3-1.1,0.2-2.2,1.3-2.5l0.9-0.3c1.1-0.3,2.2,0.2,2.5,1.3c0.3,1-0.2,2.2-1.3,2.5l-1,0.3C285.5,211.1,285.3,211.1,285.1,211.1z
	 M145.9,209.9c-0.2,0-0.5,0-0.7-0.1l-0.9-0.4c-1-0.4-1.5-1.6-1.1-2.6s1.6-1.5,2.6-1.1l0.9,0.4c1,0.4,1.5,1.6,1.1,2.6
	C147.5,209.4,146.7,209.9,145.9,209.9z M295.5,207.5c-0.8,0-1.6-0.5-1.9-1.3c-0.4-1,0.2-2.2,1.2-2.6l0.9-0.3c1-0.4,2.2,0.2,2.6,1.2
	c0.4,1-0.2,2.2-1.2,2.6l-0.9,0.3C296,207.5,295.7,207.5,295.5,207.5z M135.8,205.6c-0.3,0-0.6-0.1-0.8-0.2L134,205
	c-1-0.5-1.4-1.7-1-2.7c0.5-1,1.7-1.4,2.7-1l0.9,0.4c1,0.5,1.4,1.6,1,2.7C137.3,205.1,136.5,205.6,135.8,205.6z M125.9,200.7
	c-0.3,0-0.6-0.1-0.9-0.2l-0.9-0.5c-1-0.5-1.3-1.7-0.8-2.7c0.5-1,1.7-1.3,2.7-0.8l0.9,0.5c1,0.5,1.3,1.7,0.8,2.7
	C127.3,200.3,126.7,200.7,125.9,200.7z M115.4,194.8l-0.9-0.5c-0.9-0.6-1.2-1.8-0.6-2.8c0.6-0.9,1.8-1.2,2.8-0.6l0.8,0.5l-1,1.7
	L115.4,194.8z M107.3,189c-0.4,0-0.8-0.1-1.2-0.4l-0.8-0.6c-0.9-0.7-1.1-1.9-0.4-2.8c0.7-0.9,1.9-1.1,2.8-0.4l0.8,0.6
	c0.9,0.7,1.1,1.9,0.4,2.8C108.5,188.7,107.9,189,107.3,189z M98.7,182c-0.5,0-1-0.2-1.3-0.5c-0.5-0.5-0.8-0.7-0.8-0.7
	c-0.8-0.8-0.8-2,0-2.8c0.8-0.8,2-0.8,2.8,0c0,0,0.2,0.2,0.7,0.6c0.8,0.7,0.9,2,0.1,2.8C99.8,181.8,99.3,182,98.7,182z"/>
</svg>
