<?xml version="1.0" encoding="utf-8"?>
<!-- Generator: Adobe Illustrator 19.0.0, SVG Export Plug-In . SVG Version: 6.00 Build 0)  -->
<svg version="1.1" id="Layer_1" xmlns="http://www.w3.org/2000/svg" xmlns:xlink="http://www.w3.org/1999/xlink" x="0px" y="0px"
	 viewBox="10 -80 380 380" style="enable-background:new 10 -80 380 380;" xml:space="preserve">
<path style="opacity:0.35;fill:#4F4F4F;enable-background:new    ;" d="M348.2,255.5c-0.1-0.1-0.2-0.3-0.4-0.3
	c-15.7-14.5-28-31.6-36.9-50.3c4.6,0.9,9.2,1,14.1,0.3c1.3-0.2,1.4-1.7,0.7-2.4c-14.4-14.3-25.8-30.7-34.5-48.4
	c2.1,0.4,4.2,0.8,6.4,1.2c1.2,0.2,2.6-1,1.8-2.1c-11.1-14.4-21.1-29.5-30.1-45.1c2.8,0.3,5.4,0.1,8.3-0.8c1.1-0.3,1.6-1.6,0.7-2.4
	c-15-14-27-30.4-36-48.2c4,2.5,8.3,4.3,13.4,3.8c1.3-0.1,2.1-1.5,1.1-2.5c-12.8-12.9-23-27.7-31-43.5c-4.3-8.5-7.2-17.3-11-25.9
	c-1.1-2.5-3.3-6.9-7-5.1c-2.5,1.2-3.3,4.4-4.1,6.7c-2.9,8.3-6.1,16.5-10.1,24.4c-8,15.8-18.5,30.5-31.3,43.4c-1,1-0.2,2.3,1.1,2.5
	c5.1,0.5,9.4-1.3,13.4-3.8c-9,17.7-21,34.1-36,48.2c-0.9,0.8-0.4,2.1,0.7,2.4c2.9,0.9,5.6,1.1,8.3,0.8c-9,15.6-19,30.6-30.1,45.1
	c-0.9,1.1,0.6,2.3,1.8,2.1c2.1-0.4,4.2-0.8,6.4-1.2c-8.7,17.7-20.1,34.1-34.5,48.4c-0.7,0.7-0.6,2.2,0.7,2.4
	c4.8,0.7,9.4,0.6,14.1-0.3c-9,18.7-21.4,36-37.2,50.5c-0.6,0.6-0.6,1.9,0.3,2.3c16.6,6.5,34.5,10.7,52.1,14.1
	c24.4,4.7,49.4,7.4,74.4,8.1c0.3,2.8,0.7,5.5,1.1,8.2c0.4,2.2,0.9,5.3,3.1,6.4c1.8,0.9,5.6,0.2,7.5,0.2c6,0,9.2,0.9,10.5-5.9
	c0.6-2.9,0.9-5.9,1.1-8.9c11.1-0.3,22.2-1,33.3-2.1c31.8-3.2,63-10,93.1-19.9c0.4-0.1,0.6-0.3,0.8-0.6
	C348.6,256.8,348.7,256.1,348.2,255.5z"/>
<path id="XMLID_4_" style="fill:#C99A73;" d="M213.6,245.6h-26c-0.1-0.8-1.3-0.8-1.2,0c1.2,12.4,1.5,25.2,3.6,37.5
	c0.4,2.2,0.9,5.3,3.1,6.4c1.8,0.9,5.6,0.2,7.5,0.2c6,0,9.2,0.9,10.5-5.9c1.1-5.6,1.2-11.6,1.7-17.2c0.7-7,1.3-14,2-21
	C214.9,244.8,213.7,244.8,213.6,245.6z"/>
<path id="XMLID_3_" style="fill:#45AF81;stroke:#44B299;stroke-width:0.5;stroke-miterlimit:10;" d="M339.3,250.5
	c-0.1-0.1-0.2-0.3-0.4-0.3c-15.7-14.5-28-31.6-36.9-50.3c4.6,0.9,9.2,1,14.1,0.3c1.3-0.2,1.4-1.7,0.7-2.4
	c-14.4-14.3-25.8-30.7-34.5-48.4c2.1,0.4,4.2,0.8,6.4,1.2c1.2,0.2,2.6-1,1.8-2.1c-11.1-14.4-21.1-29.5-30.1-45.1
	c2.8,0.3,5.4,0.1,8.3-0.8c1.1-0.3,1.6-1.6,0.7-2.4c-15-14-27-30.4-36-48.2c4,2.5,8.3,4.3,13.4,3.8c1.3-0.1,2.1-1.5,1.1-2.5
	c-12.8-12.9-23-27.7-31-43.5c-4.3-8.5-7.2-17.3-11-25.9c-1.1-2.5-3.3-6.9-7-5.1c-2.5,1.2-3.3,4.4-4.1,6.7
	c-2.9,8.3-6.1,16.5-10.1,24.4c-8,15.8-18.5,30.5-31.3,43.4c-1,1-0.2,2.3,1.1,2.5c5.1,0.5,9.4-1.3,13.4-3.8c-9,17.7-21,34.1-36,48.2
	c-0.9,0.8-0.4,2.1,0.7,2.4c2.9,0.9,5.6,1.1,8.3,0.8c-9,15.6-19,30.6-30.1,45.1c-0.9,1.1,0.6,2.3,1.8,2.1c2.1-0.4,4.2-0.8,6.4-1.2
	c-8.7,17.7-20.1,34.1-34.5,48.4c-0.7,0.7-0.6,2.2,0.7,2.4c4.8,0.7,9.4,0.6,14.1-0.3c-9,18.7-21.4,36-37.2,50.5
	c-0.6,0.6-0.6,1.9,0.3,2.3c16.6,6.5,34.5,10.7,52.1,14.1c42.9,8.3,87.4,10.4,131,6c31.8-3.2,63-10,93.1-19.9
	c0.4-0.1,0.6-0.3,0.8-0.6C339.7,251.8,339.8,251.1,339.3,250.5z"/>
<g id="XMLID_2_">
	<path id="XMLID_19_" style="fill:#FFFFFF;" d="M176.2,36.9c-0.7,0-1.4-0.3-1.8-0.9l-0.1-0.2c-0.6-0.9-0.3-2.1,0.7-2.6
		s2.3-0.2,2.9,0.7l0.1,0.2c0.6,0.9,0.3,2.1-0.7,2.6C176.9,36.9,176.5,36.9,176.2,36.9z"/>
	<path id="XMLID_18_" style="fill:#FFFFFF;" d="M226.2,66L226.2,66h-0.6c-1.2,0-2.1-0.9-2-2s1.1-1.9,2.2-1.8h0.5c1.2,0,2.1,0.9,2,2
		C228.3,65.2,227.3,66,226.2,66z M220.6,65.5c-0.1,0-0.2,0-0.3,0l-0.5-0.1c-1.2-0.2-1.9-1.2-1.8-2.2c0.2-1.1,1.3-1.8,2.4-1.6
		l0.5,0.1c1.2,0.2,2,1.1,1.8,2.2C222.6,64.8,221.7,65.5,220.6,65.5z M215.1,64.5c-0.2,0-0.3,0-0.5-0.1l-0.5-0.1
		c-1.1-0.3-1.8-1.3-1.5-2.4c0.3-1,1.5-1.6,2.6-1.4l0.5,0.1c1.1,0.3,1.8,1.3,1.5,2.3S216.1,64.5,215.1,64.5z M209.8,63
		c-0.2,0-0.5,0-0.7-0.1l-0.5-0.2c-1.1-0.4-1.6-1.5-1.2-2.5s1.6-1.5,2.7-1.1l0.5,0.2c1.1,0.4,1.7,1.5,1.3,2.5
		C211.4,62.5,210.6,63,209.8,63z M204.6,61c-0.3,0-0.6-0.1-0.9-0.2l-0.5-0.2c-1-0.5-1.5-1.6-1-2.6s1.8-1.4,2.8-0.9l0.4,0.2
		c1.1,0.5,1.5,1.6,1,2.6C206.1,60.6,205.4,61,204.6,61z M199.6,58.6c-0.4,0-0.7-0.1-1.1-0.3l-0.5-0.2c-1-0.6-1.3-1.7-0.7-2.6
		c0.6-0.9,1.9-1.2,2.9-0.7l0.4,0.2c1,0.5,1.3,1.7,0.7,2.6C201.1,58.2,200.4,58.6,199.6,58.6z M194.9,55.8c-0.4,0-0.9-0.1-1.2-0.4
		l-0.4-0.3c-0.9-0.6-1.1-1.8-0.5-2.7c0.7-0.9,2-1,2.9-0.4l0.4,0.3c0.9,0.6,1.2,1.8,0.5,2.7C196.2,55.5,195.6,55.8,194.9,55.8z
		 M190.5,52.6c-0.5,0-1-0.2-1.4-0.5l-0.4-0.3c-0.9-0.7-1-1.9-0.2-2.7s2.1-0.9,3-0.2l0.4,0.3c0.9,0.7,1,1.9,0.2,2.7
		C191.7,52.4,191.1,52.6,190.5,52.6z M186.4,49.1c-0.5,0-1.1-0.2-1.5-0.6l-0.4-0.3c-0.8-0.8-0.8-2,0-2.7s2.2-0.7,3,0l0.3,0.3
		c0.8,0.8,0.8,2,0,2.7C187.5,48.9,187,49.1,186.4,49.1z M182.7,45.3c-0.6,0-1.2-0.2-1.6-0.7l-0.3-0.4c-0.7-0.8-0.6-2,0.3-2.7
		s2.2-0.6,3,0.3l0.3,0.3c0.7,0.8,0.6,2-0.3,2.7C183.6,45.1,183.1,45.3,182.7,45.3z M179.2,41.2c-0.7,0-1.3-0.3-1.7-0.8l-0.3-0.4
		c-0.7-0.9-0.4-2.1,0.5-2.7c1-0.6,2.3-0.4,2.9,0.5l0.3,0.4c0.7,0.9,0.5,2.1-0.5,2.7C180.1,41.1,179.7,41.2,179.2,41.2z"/>
	<path id="XMLID_148_" style="fill:#FFFFFF;" d="M231.3,65.9c-1.1,0-2-0.8-2.1-1.8c-0.1-1.1,0.8-2,2-2.1h0.3
		c1.2-0.1,2.2,0.7,2.3,1.8c0.1,1.1-0.8,2-2,2.1h-0.3C231.4,65.9,231.3,65.9,231.3,65.9z"/>
</g>
<g id="XMLID_6_">
	<path id="XMLID_16_" style="fill:#FFFFFF;" d="M133.1,187.9L133.1,187.9h-0.6c-1.2,0-2.1-0.9-2.1-2c0-1.1,1-1.9,2.2-1.9h0.5
		c1.2,0,2.1,0.9,2.1,2S134.3,187.9,133.1,187.9z"/>
	<path id="XMLID_56_" style="fill:#FFFFFF;" d="M138.4,187.9c-1.1,0-2.1-0.8-2.1-1.9s0.9-2,2-2h0.5c1.1-0.1,2.1,0.8,2.2,1.9
		c0,1.1-0.9,2-2,2H138.4L138.4,187.9z"/>
	<path id="XMLID_119_" style="fill:#FFFFFF;" d="M127.3,187.7c-0.1,0-0.1,0-0.2,0h-0.5c-1.2-0.1-2-1-1.9-2.1s1.1-1.9,2.3-1.8h0.5
		c1.2,0.1,2,1,1.9,2.1C129.3,186.9,128.4,187.7,127.3,187.7z"/>
	<path id="XMLID_120_" style="fill:#FFFFFF;" d="M144.2,187.6c-1.1,0-2-0.8-2.1-1.8c-0.1-1.1,0.8-2,1.9-2.1h0.5
		c1.2-0.1,2.2,0.7,2.3,1.7c0.1,1.1-0.7,2-1.9,2.1h-0.5C144.3,187.6,144.2,187.6,144.2,187.6z"/>
	<path id="XMLID_121_" style="fill:#FFFFFF;" d="M121.6,187.1c-0.1,0-0.2,0-0.3,0l-0.5-0.1c-1.2-0.1-2-1.1-1.8-2.2
		c0.2-1.1,1.2-1.8,2.4-1.6l0.5,0.1c1.2,0.1,2,1.1,1.8,2.2C123.5,186.4,122.6,187.1,121.6,187.1z"/>
	<path id="XMLID_122_" style="fill:#FFFFFF;" d="M149.9,187c-1,0-1.9-0.7-2.1-1.6c-0.2-1.1,0.6-2,1.8-2.2l0.5-0.1
		c1.2-0.2,2.2,0.6,2.4,1.6c0.2,1.1-0.6,2-1.8,2.2l-0.5,0.1C150.2,187,150,187,149.9,187z"/>
	<path id="XMLID_123_" style="fill:#FFFFFF;" d="M115.8,186.2c-0.1,0-0.3,0-0.4,0l-0.5-0.1c-1.1-0.2-1.9-1.2-1.7-2.3
		c0.2-1,1.3-1.7,2.5-1.5l0.5,0.1c1.1,0.2,1.9,1.2,1.7,2.3C117.7,185.6,116.8,186.2,115.8,186.2z"/>
	<path id="XMLID_124_" style="fill:#FFFFFF;" d="M155.7,186.1c-1,0-1.9-0.6-2.1-1.5c-0.2-1,0.5-2.1,1.6-2.3l0.5-0.1
		c1.1-0.2,2.3,0.4,2.5,1.5c0.2,1-0.5,2.1-1.6,2.3l-0.5,0.1C155.9,186,155.8,186.1,155.7,186.1z"/>
	<path id="XMLID_125_" style="fill:#FFFFFF;" d="M161.3,184.8c-0.9,0-1.8-0.6-2-1.4c-0.3-1,0.4-2.1,1.5-2.4l0.5-0.1
		c1.1-0.3,2.3,0.3,2.6,1.4c0.3,1-0.4,2.1-1.5,2.4l-0.5,0.1C161.7,184.8,161.5,184.8,161.3,184.8z"/>
	<path id="XMLID_126_" style="fill:#FFFFFF;" d="M166.9,183.3c-0.9,0-1.7-0.5-2-1.3c-0.4-1,0.2-2.1,1.4-2.4l0.5-0.1
		c1.1-0.3,2.3,0.2,2.7,1.2s-0.3,2.1-1.4,2.4l-0.5,0.1C167.3,183.3,167.1,183.3,166.9,183.3z"/>
	<path id="XMLID_127_" style="fill:#FFFFFF;" d="M172.4,181.7c-0.9,0-1.7-0.5-2-1.3c-0.4-1,0.2-2.1,1.3-2.4l0.5-0.2
		c1.1-0.3,2.3,0.2,2.7,1.2c0.4,1-0.2,2.1-1.3,2.4l-0.5,0.2C172.8,181.6,172.6,181.7,172.4,181.7z"/>
	<path id="XMLID_128_" style="fill:#FFFFFF;" d="M177.8,179.9c-0.9,0-1.7-0.5-2-1.3c-0.4-1,0.2-2.1,1.3-2.5l0.5-0.2
		c1.1-0.4,2.3,0.2,2.7,1.2c0.4,1-0.2,2.1-1.3,2.5l-0.5,0.2C178.3,179.9,178.1,179.9,177.8,179.9z"/>
	<path id="XMLID_129_" style="fill:#FFFFFF;" d="M183.3,178.1c-0.8,0-1.6-0.5-2-1.2c-0.4-1,0.1-2.1,1.2-2.5l0.5-0.2
		c1.1-0.4,2.3,0.1,2.7,1.1c0.4,1-0.1,2.1-1.2,2.5L184,178C183.8,178.1,183.5,178.1,183.3,178.1z"/>
	<path id="XMLID_130_" style="fill:#FFFFFF;" d="M188.7,176.1c-0.8,0-1.6-0.4-1.9-1.2c-0.5-1,0-2.1,1.1-2.5l0.5-0.2
		c1.1-0.4,2.3,0,2.8,1s0,2.1-1.1,2.5l-0.5,0.2C189.2,176.1,188.9,176.1,188.7,176.1z"/>
	<path id="XMLID_131_" style="fill:#FFFFFF;" d="M194,173.9c-0.8,0-1.5-0.4-1.9-1.1c-0.5-1-0.1-2.1,1-2.6l0.5-0.2
		c1-0.5,2.3-0.1,2.8,0.9s0.1,2.1-1,2.6l-0.5,0.2C194.6,173.9,194.3,173.9,194,173.9z"/>
	<path id="XMLID_132_" style="fill:#FFFFFF;" d="M199.1,171.5c-0.8,0-1.5-0.4-1.9-1c-0.5-0.9-0.2-2.1,0.9-2.6l0.5-0.2
		c1-0.5,2.3-0.2,2.9,0.8c0.6,0.9,0.2,2.1-0.9,2.6l-0.5,0.2C199.8,171.5,199.5,171.5,199.1,171.5z"/>
	<path id="XMLID_133_" style="fill:#FFFFFF;" d="M204.2,168.9c-0.7,0-1.4-0.3-1.8-0.9c-0.6-0.9-0.3-2.1,0.7-2.6l0.4-0.2
		c1-0.5,2.3-0.3,2.9,0.7c0.6,0.9,0.3,2.1-0.7,2.6l-0.5,0.3C204.9,168.9,204.6,168.9,204.2,168.9z"/>
	<path id="XMLID_134_" style="fill:#FFFFFF;" d="M209.1,166.1c-0.7,0-1.4-0.3-1.8-0.9c-0.6-0.9-0.4-2.1,0.6-2.7l0.4-0.3
		c1-0.6,2.3-0.4,2.9,0.5c0.7,0.9,0.4,2.1-0.6,2.7l-0.5,0.3C209.9,166,209.5,166.1,209.1,166.1z"/>
	<path id="XMLID_135_" style="fill:#FFFFFF;" d="M213.7,162.9c-0.6,0-1.2-0.2-1.6-0.7c-0.8-0.8-0.7-2,0.2-2.7l0.4-0.3
		c0.9-0.7,2.2-0.6,3,0.2c0.8,0.8,0.7,2-0.2,2.7l-0.4,0.3C214.7,162.8,214.2,162.9,213.7,162.9z"/>
	<path id="XMLID_136_" style="fill:#FFFFFF;" d="M218,159.3c-0.5,0-1.1-0.2-1.5-0.6c-0.8-0.8-0.8-2,0-2.7l0.4-0.3
		c0.8-0.7,2.2-0.7,3,0c0.8,0.8,0.8,2,0,2.7l-0.4,0.3C219,159.1,218.5,159.3,218,159.3z"/>
	<path id="XMLID_137_" style="fill:#FFFFFF;" d="M222.1,155.5c-0.5,0-1.1-0.2-1.5-0.5c-0.8-0.7-0.9-2-0.1-2.7l0.4-0.3
		c0.8-0.8,2.1-0.8,3-0.1c0.8,0.7,0.9,2,0.1,2.7l-0.4,0.4C223.2,155.3,222.6,155.5,222.1,155.5z"/>
	<path id="XMLID_138_" style="fill:#FFFFFF;" d="M226,151.7c-0.5,0-1-0.2-1.4-0.5c-0.8-0.7-0.9-1.9-0.1-2.7l0.4-0.3
		c0.8-0.8,2.1-0.8,3-0.1s0.9,1.9,0.1,2.7l-0.4,0.4C227.2,151.5,226.6,151.7,226,151.7z"/>
	<path id="XMLID_139_" style="fill:#FFFFFF;" d="M230,147.8c-0.5,0-1-0.2-1.4-0.5c-0.8-0.7-0.9-2-0.1-2.7l0.4-0.3
		c0.8-0.8,2.1-0.8,3-0.1c0.8,0.7,0.9,1.9,0.1,2.7l-0.4,0.4C231.1,147.6,230.6,147.8,230,147.8z"/>
	<path id="XMLID_140_" style="fill:#FFFFFF;" d="M233.8,143.8c-0.5,0-0.9-0.1-1.3-0.4c-0.9-0.7-1-1.9-0.3-2.7l0.3-0.4
		c0.7-0.8,2.1-1,3-0.3s1,1.9,0.3,2.7l-0.3,0.4C235.1,143.6,234.5,143.8,233.8,143.8z"/>
	<path id="XMLID_141_" style="fill:#FFFFFF;" d="M237.4,139.6c-0.4,0-0.9-0.1-1.2-0.4c-0.9-0.6-1.2-1.8-0.5-2.7l0.3-0.4
		c0.7-0.9,2-1.1,2.9-0.4c0.9,0.6,1.2,1.8,0.5,2.7l-0.3,0.4C238.7,139.4,238,139.6,237.4,139.6z"/>
	<path id="XMLID_142_" style="fill:#FFFFFF;" d="M240.7,135.3c-0.4,0-0.8-0.1-1.2-0.3c-1-0.6-1.2-1.8-0.6-2.7l0.3-0.4
		c0.6-0.9,1.9-1.1,2.9-0.6c1,0.6,1.3,1.8,0.6,2.7l-0.3,0.4C242,135,241.4,135.3,240.7,135.3z"/>
	<path id="XMLID_7_" style="fill:#FFFFFF;" d="M243.6,130.4c-0.4,0-0.8-0.1-1.2-0.3c-1-0.6-1.2-1.8-0.6-2.7l0.3-0.4
		c0.6-0.9,1.9-1.1,2.9-0.6c1,0.6,1.3,1.8,0.6,2.7l-0.3,0.4C245,130.1,244.3,130.4,243.6,130.4z"/>
	<path id="XMLID_144_" style="fill:#FFFFFF;" d="M246.6,126.2c-0.3,0-0.7-0.1-1-0.2c-1-0.5-1.4-1.7-0.8-2.6l0.3-0.4
		c0.6-0.9,1.8-1.3,2.9-0.7c1,0.5,1.4,1.7,0.8,2.6l-0.3,0.4C248.1,125.8,247.4,126.2,246.6,126.2z"/>
	<path id="XMLID_145_" style="fill:#FFFFFF;" d="M249.4,121.5c-0.3,0-0.7-0.1-1-0.2c-1-0.5-1.4-1.7-0.9-2.6l0.3-0.4
		c0.5-0.9,1.8-1.3,2.9-0.8c1,0.5,1.4,1.7,0.9,2.6l-0.2,0.4C250.9,121.1,250.1,121.5,249.4,121.5z"/>
	<path id="XMLID_146_" style="fill:#FFFFFF;" d="M252.1,116.8c-0.3,0-0.6-0.1-1-0.2c-1-0.5-1.5-1.6-0.9-2.6l0.2-0.4
		c0.5-0.9,1.8-1.3,2.8-0.8s1.4,1.6,0.9,2.6l-0.2,0.4C253.6,116.4,252.8,116.8,252.1,116.8z"/>
	<path id="XMLID_147_" style="fill:#FFFFFF;" d="M254.7,112.1c-0.3,0-0.6-0.1-0.9-0.2c-1-0.5-1.5-1.6-0.9-2.6l0.2-0.4
		c0.5-0.9,1.8-1.3,2.8-0.8c1,0.5,1.5,1.6,0.9,2.6l-0.2,0.4C256.2,111.7,255.5,112.1,254.7,112.1z"/>
</g>
<g id="XMLID_1_">
	<path id="XMLID_8_" style="fill:#FFFFFF;" d="M216.5,253.3c-1.2,0-2.1-0.9-2.1-1.9c0-1.1,0.9-1.9,2.1-1.9h0.5l0,0
		c1.2,0,2.1,0.8,2.1,1.9s-0.9,1.9-2.1,1.9H216.5L216.5,253.3z"/>
	<path id="XMLID_5_" style="fill:#FFFFFF;" d="M210.6,253.3c-1.2,0-2.1-0.9-2.1-1.9c0-1.1,0.9-1.9,2.1-1.9h0.5l0,0
		c1.2,0,2.1,0.8,2.1,1.9s-0.9,1.9-2.1,1.9H210.6L210.6,253.3z"/>
	<path id="XMLID_20_" style="fill:#FFFFFF;" d="M222.3,253.1c-1.1,0-2.1-0.8-2.1-1.8c0-1.1,0.9-2,2-2h0.5c1.2-0.1,2.1,0.8,2.2,1.8
		c0,1.1-0.9,2-2,2H222.3C222.4,253.1,222.4,253.1,222.3,253.1z"/>
	<path id="XMLID_47_" style="fill:#FFFFFF;" d="M205.5,253h-0.1h-0.5c-1.2-0.1-2.1-1-2-2c0.1-1.1,1.1-1.9,2.2-1.8h0.5
		c1.2,0.1,2.1,1,2,2S206.6,253,205.5,253z"/>
	<path id="XMLID_48_" style="fill:#FFFFFF;" d="M228.1,252.8c-1.1,0-2-0.8-2.1-1.8c-0.1-1.1,0.8-2,2-2.1h0.5
		c1.2-0.1,2.2,0.7,2.3,1.8c0.1,1.1-0.8,2-1.9,2.1h-0.5C228.2,252.8,228.2,252.8,228.1,252.8z"/>
	<path id="XMLID_61_" style="fill:#FFFFFF;" d="M199.7,252.6c-0.1,0-0.1,0-0.2,0H199c-1.2-0.1-2-1-1.9-2.1s1.1-1.8,2.3-1.7h0.5
		c1.2,0.1,2,1,1.9,2.1C201.7,251.9,200.8,252.6,199.7,252.6z"/>
	<path id="XMLID_74_" style="fill:#FFFFFF;" d="M233.9,252.4c-1.1,0-2-0.7-2.1-1.7c-0.1-1.1,0.7-2,1.9-2.1h0.5
		c1.2-0.1,2.2,0.7,2.3,1.7c0.1,1.1-0.7,2-1.9,2.1l-0.5,0.1C234.1,252.4,234,252.4,233.9,252.4z"/>
	<path id="XMLID_75_" style="fill:#FFFFFF;" d="M193.9,252.1c-0.1,0-0.2,0-0.3,0l-0.5-0.1c-1.2-0.1-2-1.1-1.8-2.1
		c0.1-1.1,1.2-1.8,2.4-1.7l0.5,0.1c1.2,0.1,2,1.1,1.8,2.1C195.9,251.3,195,252.1,193.9,252.1z"/>
	<path id="XMLID_76_" style="fill:#FFFFFF;" d="M239.7,251.8c-1,0-1.9-0.7-2.1-1.7c-0.2-1.1,0.7-2,1.8-2.2l0.5-0.1
		c1.2-0.1,2.2,0.6,2.4,1.6c0.2,1.1-0.6,2-1.8,2.2l-0.5,0.1C239.9,251.8,239.8,251.8,239.7,251.8z"/>
	<path id="XMLID_77_" style="fill:#FFFFFF;" d="M188.2,251.3c-0.1,0-0.2,0-0.3,0l-0.5-0.1c-1.2-0.2-1.9-1.2-1.7-2.2
		c0.2-1.1,1.3-1.8,2.4-1.6l0.5,0.1c1.2,0.2,1.9,1.1,1.8,2.2C190.1,250.6,189.2,251.3,188.2,251.3z"/>
	<path id="XMLID_78_" style="fill:#FFFFFF;" d="M245.4,251c-1,0-1.9-0.7-2.1-1.6c-0.2-1.1,0.6-2,1.7-2.2l0.5-0.1
		c1.1-0.2,2.2,0.5,2.4,1.6c0.2,1-0.6,2-1.7,2.2l-0.5,0.1C245.6,251,245.5,251,245.4,251z"/>
	<path id="XMLID_82_" style="fill:#FFFFFF;" d="M182.4,250.4c-0.1,0-0.3,0-0.4,0l-0.5-0.1c-1.1-0.2-1.9-1.2-1.7-2.3
		c0.2-1,1.3-1.7,2.5-1.5l0.5,0.1c1.1,0.2,1.9,1.2,1.7,2.2S183.4,250.4,182.4,250.4z"/>
	<path id="XMLID_83_" style="fill:#FFFFFF;" d="M251.1,250c-1,0-1.9-0.6-2.1-1.5c-0.2-1,0.5-2.1,1.6-2.3l0.5-0.1
		c1.1-0.2,2.3,0.5,2.5,1.5s-0.5,2.1-1.6,2.3l-0.5,0.1C251.4,250,251.2,250,251.1,250z"/>
	<path id="XMLID_91_" style="fill:#FFFFFF;" d="M176.8,249.4c-0.2,0-0.3,0-0.5,0l-0.5-0.1c-1.1-0.2-1.9-1.3-1.6-2.3s1.4-1.7,2.5-1.5
		l0.5,0.1c1.1,0.2,1.9,1.3,1.6,2.3C178.6,248.7,177.7,249.4,176.8,249.4z"/>
	<path id="XMLID_92_" style="fill:#FFFFFF;" d="M256.8,248.9c-1,0-1.8-0.6-2.1-1.5c-0.3-1,0.4-2.1,1.6-2.3l0.5-0.1
		c1.1-0.2,2.3,0.4,2.5,1.4c0.3,1-0.4,2.1-1.6,2.3l-0.5,0.1C257.1,248.9,256.9,248.9,256.8,248.9z"/>
	<path id="XMLID_93_" style="fill:#FFFFFF;" d="M171.1,248.1c-0.2,0-0.3,0-0.5-0.1l-0.5-0.1c-1.1-0.3-1.8-1.3-1.5-2.3
		s1.4-1.6,2.6-1.4l0.5,0.1c1.1,0.3,1.8,1.3,1.5,2.3S172.1,248.1,171.1,248.1z"/>
	<path id="XMLID_94_" style="fill:#FFFFFF;" d="M262.4,247.6c-0.9,0-1.8-0.6-2-1.4c-0.3-1,0.4-2.1,1.5-2.4l0.5-0.1
		c1.1-0.3,2.3,0.3,2.6,1.3c0.3,1-0.4,2.1-1.5,2.4l-0.5,0.1C262.8,247.6,262.6,247.6,262.4,247.6z"/>
	<path id="XMLID_96_" style="fill:#FFFFFF;" d="M165.5,246.7c-0.2,0-0.4,0-0.6-0.1l-0.5-0.1c-1.1-0.3-1.8-1.4-1.4-2.4
		c0.3-1,1.5-1.6,2.6-1.3l0.5,0.1c1.1,0.3,1.8,1.4,1.4,2.4C167.3,246.2,166.4,246.7,165.5,246.7z"/>
	<path id="XMLID_97_" style="fill:#FFFFFF;" d="M268,246.2c-0.9,0-1.7-0.5-2-1.4c-0.3-1,0.3-2.1,1.4-2.4l0.5-0.1
		c1.1-0.3,2.3,0.3,2.6,1.3c0.3,1-0.3,2.1-1.4,2.4l-0.5,0.1C268.4,246.1,268.2,246.2,268,246.2z"/>
	<path id="XMLID_98_" style="fill:#FFFFFF;" d="M160,245.2c-0.2,0-0.4,0-0.6-0.1l-0.5-0.2c-1.1-0.3-1.7-1.4-1.4-2.4
		c0.4-1,1.6-1.6,2.7-1.2l0.5,0.1c1.1,0.3,1.7,1.4,1.4,2.4C161.7,244.7,160.9,245.2,160,245.2z"/>
	<path id="XMLID_99_" style="fill:#FFFFFF;" d="M273.5,244.6c-0.9,0-1.7-0.5-2-1.3c-0.4-1,0.2-2.1,1.3-2.4l0.5-0.1
		c1.1-0.3,2.3,0.2,2.7,1.2c0.4,1-0.2,2.1-1.3,2.4l-0.5,0.2C274,244.5,273.7,244.6,273.5,244.6z"/>
	<path id="XMLID_100_" style="fill:#FFFFFF;" d="M154.5,243.5c-0.2,0-0.5,0-0.7-0.1l-0.5-0.2c-1.1-0.4-1.7-1.5-1.3-2.5
		s1.6-1.5,2.7-1.2l0.5,0.2c1.1,0.4,1.7,1.5,1.3,2.5C156.1,243,155.3,243.5,154.5,243.5z"/>
	<path id="XMLID_101_" style="fill:#FFFFFF;" d="M279,242.8c-0.9,0-1.7-0.5-2-1.3c-0.4-1,0.2-2.1,1.2-2.5l0.5-0.2
		c1.1-0.4,2.3,0.1,2.7,1.1c0.4,1-0.2,2.1-1.2,2.5l-0.5,0.2C279.5,242.8,279.2,242.8,279,242.8z"/>
	<path id="XMLID_103_" style="fill:#FFFFFF;" d="M149,241.7c-0.3,0-0.5,0-0.8-0.1l-0.5-0.2c-1.1-0.4-1.6-1.5-1.2-2.5
		s1.7-1.5,2.7-1.1l0.5,0.2c1.1,0.4,1.6,1.5,1.2,2.5C150.7,241.2,149.9,241.7,149,241.7z"/>
	<path id="XMLID_104_" style="fill:#FFFFFF;" d="M284.4,240.9c-0.8,0-1.6-0.5-2-1.2c-0.4-1,0.1-2.1,1.2-2.5l0.5-0.2
		c1.1-0.4,2.3,0.1,2.7,1.1s-0.1,2.1-1.2,2.5l-0.5,0.2C284.9,240.8,284.7,240.9,284.4,240.9z"/>
	<path id="XMLID_105_" style="fill:#FFFFFF;" d="M143.6,239.7c-0.3,0-0.6,0-0.8-0.2l-0.5-0.2c-1.1-0.4-1.6-1.6-1.1-2.5
		c0.5-1,1.7-1.4,2.8-1l0.5,0.2c1.1,0.4,1.6,1.6,1.1,2.5C145.2,239.2,144.5,239.7,143.6,239.7z"/>
	<path id="XMLID_106_" style="fill:#FFFFFF;" d="M289.7,238.8c-0.8,0-1.6-0.4-1.9-1.2c-0.5-1,0-2.1,1.1-2.5l0.5-0.2
		c1.1-0.4,2.3,0,2.8,1s0,2.1-1.1,2.5l-0.5,0.2C290.3,238.8,290,238.8,289.7,238.8z"/>
	<path id="XMLID_107_" style="fill:#FFFFFF;" d="M138.3,237.5c-0.3,0-0.6-0.1-0.9-0.2l-0.5-0.2c-1.1-0.4-1.5-1.6-1-2.6
		s1.7-1.4,2.8-0.9l0.5,0.2c1.1,0.4,1.5,1.6,1,2.6C139.9,237.1,139.1,237.5,138.3,237.5z"/>
	<path id="XMLID_108_" style="fill:#FFFFFF;" d="M295,236.6c-0.8,0-1.5-0.4-1.9-1.1c-0.5-1,0-2.1,1-2.6l0.5-0.2
		c1-0.5,2.3-0.1,2.8,0.9s0.1,2.1-1,2.6l-0.5,0.2C295.6,236.6,295.3,236.6,295,236.6z"/>
	<path id="XMLID_110_" style="fill:#FFFFFF;" d="M133.1,235.2c-0.3,0-0.6-0.1-0.9-0.2l-0.5-0.2c-1-0.5-1.5-1.6-1-2.6
		s1.8-1.3,2.8-0.9l0.5,0.2c1,0.5,1.5,1.6,1,2.6C134.6,234.8,133.9,235.2,133.1,235.2z"/>
	<path id="XMLID_111_" style="fill:#FFFFFF;" d="M300.2,234.3c-0.8,0-1.5-0.4-1.9-1.1c-0.5-0.9-0.1-2.1,0.9-2.6l0.5-0.2
		c1-0.5,2.3-0.1,2.8,0.8s0.1,2.1-0.9,2.6l-0.5,0.2C300.9,234.2,300.5,234.3,300.2,234.3z"/>
	<path id="XMLID_112_" style="fill:#FFFFFF;" d="M127.9,232.8c-0.3,0-0.7-0.1-1-0.2l-0.5-0.2c-1-0.5-1.4-1.7-0.9-2.6
		s1.8-1.3,2.9-0.8l0.5,0.2c1,0.5,1.4,1.7,0.9,2.6C129.4,232.4,128.7,232.8,127.9,232.8z"/>
	<path id="XMLID_113_" style="fill:#FFFFFF;" d="M305.3,231.8c-0.7,0-1.5-0.4-1.9-1c-0.6-0.9-0.2-2.1,0.8-2.6l0.5-0.2
		c1-0.5,2.3-0.2,2.9,0.8c0.6,0.9,0.2,2.1-0.8,2.6l-0.5,0.2C306,231.8,305.7,231.8,305.3,231.8z"/>
	<path id="XMLID_114_" style="fill:#FFFFFF;" d="M122.9,230.2c-0.4,0-0.7-0.1-1-0.3l-0.5-0.2c-1-0.5-1.4-1.7-0.8-2.6
		s1.9-1.2,2.9-0.7l0.5,0.2c1,0.5,1.4,1.7,0.8,2.6C124.3,229.9,123.6,230.2,122.9,230.2z"/>
	<path id="XMLID_115_" style="fill:#FFFFFF;" d="M117.9,227.5c-0.4,0-0.8-0.1-1.1-0.3l-0.5-0.3c-1-0.6-1.3-1.7-0.7-2.6
		s1.9-1.2,2.9-0.6l0.4,0.3c1,0.6,1.3,1.7,0.7,2.6C119.3,227.2,118.6,227.5,117.9,227.5z"/>
	<path id="XMLID_116_" style="fill:#FFFFFF;" d="M112.9,224.7c-0.4,0-0.8-0.1-1.1-0.3l-0.4-0.3c-1-0.6-1.3-1.8-0.6-2.7
		c0.6-0.9,1.9-1.1,2.9-0.6l0.4,0.3c1,0.6,1.3,1.8,0.6,2.7C114.3,224.4,113.6,224.7,112.9,224.7z"/>
	<path id="XMLID_117_" style="fill:#FFFFFF;" d="M108.1,221.8c-0.4,0-0.8-0.1-1.2-0.3l-0.4-0.3c-1-0.6-1.2-1.8-0.5-2.7
		s2-1.1,2.9-0.5l0.4,0.3c1,0.6,1.2,1.8,0.5,2.7C109.4,221.5,108.8,221.8,108.1,221.8z"/>
	<path id="XMLID_118_" style="fill:#FFFFFF;" d="M103.4,218.7c-0.4,0-0.9-0.1-1.2-0.4l-0.4-0.3c-0.9-0.6-1.1-1.8-0.5-2.7
		c0.7-0.9,2-1,2.9-0.4l0.4,0.3c0.9,0.6,1.1,1.8,0.5,2.7C104.7,218.4,104,218.7,103.4,218.7z"/>
</g>
</svg>
