<svg xmlns="http://www.w3.org/2000/svg" viewBox="170 -170 380 380"><path fill="#0D5C74" d="M170-170h379.8v380H170z"/><path d="M253.5 64.6c-.9-1.2-2.3-1.8-3.7-1.5-.5.1-1 .3-1.4.6-1.7-3.4-5.3-5.4-8.8-4.7-1.3.3-2.4.9-3.4 1.7-4.1-6.8-12.1-10.6-20.3-8.9-5.6 1.2-10.2 4.8-12.8 9.4-1.5-.2-3.1-.2-4.7.1-4.7 1-8.2 4.3-9.8 8.5-.7-.1-1.4-.1-2.1.1-3.5.7-5.7 4.2-5 7.8.1.6.3 1.2.6 1.7l71.4-14.8zM380.9-105.1c.6-1.2 1.6-2 2.7-1.9.4 0 .8.2 1.1.4 1-3.4 3.5-5.7 6.3-5.6 1 .1 1.9.5 2.7 1.1 2.4-6.8 8.2-11.5 14.6-11 4.4.3 8.2 2.9 10.6 6.9 1.1-.4 2.4-.6 3.6-.5 3.6.2 6.7 2.8 8.3 6.4.5-.2 1.1-.3 1.6-.2 2.7.2 4.8 3.1 4.5 6.5 0 .6-.1 1.1-.3 1.6l-55.7-3.7z" opacity=".32" fill="#FFF"/><path d="M483.3 45.2c0-.2 0-.4.1-.6.4-2 2.3-3.3 4.1-2.9.6.1 1.1.4 1.6.8 1.4-2.3 3.8-3.6 6.2-3.1.5.1 1 .3 1.4.5 3-4.9 8.5-7.6 13.9-6.4 5.9 1.3 9.9 6.7 10.2 13 .4 0 .8 0 1.2.1 2.9.6 4.6 3.8 3.9 7.2 0 .2-.1.4-.2.6l-42.4-9.2z" opacity=".22" fill="#FFF"/><path d="M330.1 136.2s-1 6.8-2.7 11.1l1 10.4-5.3.6-1-10.2s-2.3-4-5.2-10.4l4.1-.4s1 7.4 4 8.3c0 0 2.4-3.1 1.3-8l3.8-1.4z" fill="#726658"/><g opacity=".1"><path d="M326.1 137.5l3.9-1.2s-.3 1.3-.5 2.8c-1.2.6-1.7.9-3.1 1.2 0-.9 0-1.8-.3-2.8zM320.9 137.2s.2 1.7.8 3.6c-1.6 0-2.1.1-3.5-.2-.4-.8-1.1-2-1.4-2.9l4.1-.5z"/></g><g opacity=".2"><path d="M326.6 137.4c1.1 4.9-1.3 8-1.3 8-.2.1-.4.1-.5.1.6-.8 2.2-3.8 1.3-8l3.9-1.2v.1l-3.4 1zM316.8 137.7l.5-.1c3 6.4 5.2 10.4 5.2 10.4l1 10.2-.5.1-1-10.2s-2.3-4-5.2-10.4z"/></g><path d="M302.4 119.1c1.3 12.4 7.5 21.8 21.1 20.4 12.1-1.3 17.7-12 16.3-24.4-1.3-12.4-11.3-26.4-21.7-25.3-12.6 1.4-17 16.9-15.7 29.3z" fill="#FFF"/><path d="M310.9 92.7c-5 5.9-6.6 15.6-5.8 23.8 1.3 12.4 7.5 21.8 21.1 20.4 3.6-.4 6.6-1.6 9-3.4-2.8 3.3-6.7 5.5-11.8 6.1-13.6 1.5-19.8-8-21.1-20.4-1-9.7 1.5-21.2 8.6-26.5z" opacity=".1"/><path fill="#594A42" d="M527.935 131.82l1.776.294-1.033 6.215-1.775-.296z"/><path opacity=".2" d="M528.07 138.175l1.035-6.215.59.1-1.032 6.214z"/><path d="M527.8 132.9l-.2 1s.7.6 1.7.3l.2-1.1-1.7-.2z" opacity=".2"/><path d="M537 122.7l3 .5c-2-2-3.3-5.2-4.1-8.7l2.9.5c-1.9-1.9-2.9-5.3-3.5-8.7l2.3.4c-2.8-3-2.6-11.8-2.6-11.8s-2.2 8.3-6.3 10.3l2.5.4c-1.6 2.9-3.7 5.8-6.3 7l3.3.5c-1.9 2.9-4.3 5.5-7.1 6.8l3.5.6c-2.6 3.7-5.7 6.8-9.2 8.5 0 0 5.7 3.2 13.3 4.4 8.4 1.4 14 .1 14 .1-2.7-2.5-4.4-6.5-5.7-10.8z" fill="#FFF"/><path d="M537 122.7l3 .5c-2-2-3.3-5.2-4.1-8.7l2.9.5c-1.9-1.9-2.9-5.3-3.5-8.7l2.3.4c-2.8-3-2.6-11.8-2.6-11.8-.9 41.4-10.7 35.2-16.7 32.4-.9.7-1.9 1.3-2.9 1.8 0 0 5.7 3.2 13.3 4.4 8.4 1.4 14 .1 14 .1-2.7-2.6-4.4-6.6-5.7-10.9z" opacity=".07"/><path fill="#594A42" d="M372.848 142.73l-3.45.59-1.966-11.535 3.45-.588z"/><path opacity=".2" d="M369.34 143.368l-1.966-11.534 1.183-.2 1.965 11.532z"/><path d="M371.2 133.3l.3 1.8s-1.5 1.1-3.5.7l-.3-2 3.5-.5z" opacity=".2"/><path d="M352.8 114.6l-6 1c4-3.8 6.6-9.9 8.4-16.3l-5.9 1c3.7-3.6 5.9-10 7.1-16.3l-4.5.8c5.7-5.8 5.4-22.1 5.4-22.1s4.3 15.4 12.4 19l-5 .9c3.1 5.4 7.3 10.7 12.5 12.9l-6.5 1.1c3.8 5.4 8.4 10.2 14 12.5l-6.9 1.2c5.1 6.7 11.2 12.5 18.3 15.5 0 0-11.5 6.1-26.5 8.6-16.8 2.9-27.9.6-27.9.6 5-4.8 8.6-12.3 11.1-20.4z" fill="#FFF"/><path d="M352.8 114.6l-6 1c4-3.8 6.6-9.9 8.4-16.3l-5.9 1c3.7-3.6 5.9-10 7.1-16.3l-4.5.8c5.7-5.8 5.4-22.1 5.4-22.1 1.1 77.1 20.9 65.2 32.9 60 1.9 1.3 3.8 2.4 5.8 3.2 0 0-11.5 6.1-26.5 8.6-16.8 2.9-27.9.6-27.9.6 5.1-4.9 8.7-12.4 11.2-20.5z" opacity=".07"/><path fill="#726351" d="M230.19 186.986l-2.098.072-.522-15.09 2.1-.073z"/><path opacity=".15" d="M228.11 187.133l-.52-15.09.7-.025.52 15.09z"/><path d="M229.8 175.1v.6s-.4.4-2.1.2v-.7l2.1-.1z" opacity=".2"/><path d="M223.9 150.1c-1.9-.1-3.8-.2-5.8-.5 7-4.6 9.2-19.6 9.2-19.6.1.4 2.4 14.6 10.5 18.9 0 0-2.5.6-6.3 1 2.6 8.5 6.5 17.5 12.2 21.9 0 0-5.4 3.2-14.8 3.5-9.6.3-15-2.5-15-2.5 4.7-4.5 7.9-13.9 10-22.7z" fill="#B3FFF7"/><path d="M223.9 150.1c-1.9-.1-3.8-.2-5.8-.5 7-4.6 9.2-19.6 9.2-19.6s0 .2.1.3c-.9 10.2-8.3 45.7 14.9 40.2.5.5 1 .9 1.5 1.3 0 0-5.4 3.2-14.8 3.5-9.6.3-15-2.5-15-2.5 4.6-4.5 7.8-13.9 9.9-22.7z" opacity=".04"/><path d="M492.5 136.5l1.8.1v-2.8-2.1H493s0 1.5-.1 2.1c-.1.7-.4 2.7-.4 2.7z" fill="#BDBDBD"/><path d="M492.9 133.7c0-.5.1-2.1.1-2.1h.4s0 1.5-.1 2.1c-.1.8-.4 2.8-.4 2.8l1.3.1-1.8-.1c.1 0 .4-2 .5-2.8z" opacity=".2"/><path d="M494.3 132v.3s-.7.6-1.4.1v-.4h1.4z" opacity=".1"/><path d="M491 129c0 1.6 1 3.2 2.5 3.2 1.4 0 3-1.6 3.1-3.2 0-1.6-1-3-2.5-3.1-1.5 0-3.1 1.5-3.1 3.1z" fill="#FFF"/><path d="M492 126.8c-.4.5-.6 1.1-.6 1.7 0 1.6 1 3.2 2.5 3.2.7 0 1.4-.3 1.9-.9-.6.8-1.5 1.4-2.4 1.4-1.4 0-2.5-1.6-2.5-3.2.1-.9.5-1.7 1.1-2.2z" opacity=".1"/><path fill="#BDBDBD" d="M204.38 187.826l-1.2-.033.128-4.598 1.2.033z"/><path opacity=".2" d="M203.126 187.76l.133-4.6.4.012-.135 4.598z"/><path d="M204.5 184.1v.7s-.6.3-1.2 0v-.8l1.2.1z" opacity=".2"/><path d="M199.7 175.6l-2-.1c1.6-1.2 2.8-3.3 3.8-5.6l-2-.1c1.5-1.1 2.6-3.4 3.4-5.7h-1.5c2.2-1.8 3.2-8 3.2-8s.4 6.2 2.8 8.2h-1.7c.7 2.3 1.7 4.6 3.2 5.9l-2.2-.1c.9 2.3 2.1 4.5 3.7 5.8l-2.3-.1c1.2 3 2.8 5.6 4.9 7.3 0 0-4.2 1.5-9.3 1.3-5.7-.2-9.2-1.8-9.2-1.8 2.1-1.5 3.8-4.1 5.2-7z" fill="#FFF"/><path d="M199.7 175.6l-2-.1c1.6-1.2 2.8-3.3 3.8-5.6l-2-.1c1.5-1.1 2.6-3.4 3.4-5.7h-1.5c2.2-1.8 3.2-8 3.2-8-4.8 29.5 2.5 26.5 6.7 25.4.5.6 1.1 1.2 1.7 1.7 0 0-4.2 1.5-9.3 1.3-5.7-.2-9.2-1.8-9.2-1.8 2.1-1.6 3.8-4.2 5.2-7.1z" opacity=".1"/><path fill="#BDBDBD" d="M187.395 191.808l-1-.027.128-4.598 1 .028z"/><path opacity=".2" d="M186.45 191.775l.133-4.598.3.008-.134 4.6z"/><path d="M187.5 188.1v.7s-.5.3-1 0v-.8l1 .1z" opacity=".2"/><path d="M183.5 179.6h-1.7c1.3-1.2 2.4-3.3 3.3-5.6h-1.7c1.2-1.1 2.2-3.4 2.9-5.7H185c1.9-1.8 2.8-8 2.8-8s.3 6.2 2.3 8.2h-1.4c.5 2.3 1.4 4.6 2.7 5.9l-1.9-.1c.7 2.3 1.7 4.5 3.1 5.8l-2-.1c1 2.9 2.4 5.6 4.1 7.3 0 0-3.5 1.5-7.8 1.4-4.8-.1-7.7-1.8-7.7-1.8 1.7-1.8 3.2-4.4 4.3-7.3z" fill="#FFF"/><path d="M183.5 179.6h-1.7c1.3-1.2 2.4-3.3 3.3-5.6h-1.7c1.2-1.1 2.2-3.4 2.9-5.7H185c1.9-1.8 2.8-8 2.8-8-4.2 29.6 2 26.5 5.6 25.3.4.6.9 1.2 1.4 1.7 0 0-3.5 1.5-7.8 1.4-4.8-.1-7.7-1.8-7.7-1.8 1.6-1.8 3.1-4.4 4.2-7.3z" opacity=".1"/><path d="M249.6 177.3c-.9-1-1.5-2.2-1.9-3.5-1.4-4.7.9-9.5 5.2-10.8.8-.2 1.5-.3 2.3-.3.4-7.4 4.7-13.7 11.2-15.7 4.7-1.4 9.6-.2 13.7 2.7 1-1 2.3-1.7 3.7-2.1 3.6-1.1 7.3.1 10.1 2.8 1-1.2 2.2-2.2 3.8-2.6 4.4-1.3 9.3 1.8 10.8 6.9.5 1.7.6 3.5.3 5.1l-59.2 17.5z" fill="#EBEBEB"/><path d="M252.9 162.9c.8-.2 1.5-.3 2.3-.3.4-7.4 4.7-13.7 11.2-15.7.7-.2 1.3-.3 2-.4-4.7 6.3-8.3 15.6-1 25.5l-17.8 5.3c-.9-1-1.5-2.2-1.9-3.5-1.4-4.8.9-9.6 5.2-10.9z" opacity=".1"/><path d="M409.6 118.1l.5-1.7c2.7.3 5 1.9 6.1 2.8l.6-15.9h4.5l1.3 35.8h-7.1l.6-16.6c-1.9-2.9-6.5-4.4-6.5-4.4z" fill="#968A7D"/><g opacity=".2"><path d="M409.6 118.1l.5-1.7c.2 0 .3.1.5.1l-.3 1.2s4.6 1.4 6.5 4.3l-.6 16.6h6.5v.5h-7.1l.6-16.6c-2-2.9-6.6-4.4-6.6-4.4zM416.9 119.6c-.2-.1-.4-.3-.6-.4l.6-15.9h.6l-.6 16.3z" opacity=".4"/></g><path d="M421.5 106v1.7s-2.1.9-4.8.3l.1-2h4.7z" opacity=".1"/><path d="M392.5 72.4c1.6 19.1 11.1 34.6 24.8 34.6S445 91.6 445 72.5c0-21.7-10.7-34.5-24.4-34.5s-29.8 14-28.1 34.4z" fill="#FFF"/><path d="M403.8 44.7c-4 5.7-6.4 13.1-5.7 21.6 1.6 19.1 11.1 34.6 24.8 34.6 5.2 0 10.5-2.2 15-6-5.3 7.5-13 12.2-20.6 12.2-13.7 0-23.3-15.6-24.8-34.6-1-12.1 4.2-21.8 11.3-27.8zM412.6 117s.5.2.7.3c.2.1 0 1.9-1.1 1.9l-.6-.3 1-1.9z" opacity=".1"/><path d="M401.9 116.8c0 2.6 2.3 4.7 5.1 4.7s5.8-2.5 5.8-5.1c0-2.6-3-5.1-5.8-5.1s-5.1 2.9-5.1 5.5z" fill="#FFF"/><path d="M405.3 111.6c-.7 1-1.1 2.1-1.1 3.2 0 2.6 2.3 4.7 5.1 4.7.9 0 1.8-.3 2.6-.7-1.1 1.5-3.1 2.6-4.9 2.6-2.8 0-5.1-2.1-5.1-4.7 0-1.9 1.5-4.2 3.4-5.1z" opacity=".1"/><path d="M452.5 131.9c.2-4.6 4.2-8.2 9.1-8 .4 0 .9.1 1.3.1 1.8-2.9 5.2-4.7 9-4.6 5.6.2 10 4.6 9.8 9.9v.3c2.8 1 4.8 3.6 4.7 6.6l-33.3-1.1c-.4-.9-.6-2.1-.6-3.2z" fill="#B3FFF7"/><path d="M461.6 123.8c.4 0 .9.1 1.3.1 1.5-2.3 3.9-3.9 6.7-4.4-4.6 2.5-8.6 9.1-5.3 16l-11.1-.4c-.4-1-.7-2.2-.6-3.3.1-4.5 4.1-8.1 9-8z" opacity=".1"/><path d="M175.6 16.9c.7 0 .7-1.1 0-1.1s-.7 1.1 0 1.1zM207.6 32.3c.7 0 .7-1.1 0-1.1s-.7 1.1 0 1.1zM326.2-76.3c0 2.1 3.3 2.1 3.3 0s-3.3-2.2-3.3 0zM192.2-102.6c2.1 0 2.1-3.3 0-3.3-2.2 0-2.2 3.3 0 3.3zM292.1-69.7c0 2.1 3.3 2.1 3.3 0s-3.3-2.1-3.3 0zM198.2 106.7c2.1 0 2.1-3.3 0-3.3s-2.1 3.3 0 3.3zM172.3 126.5c2.1 0 2.1-3.3 0-3.3s-2.1 3.3 0 3.3zM233.5 121.6c2.1 0 2.1-3.3 0-3.3s-2.1 3.3 0 3.3zM266 94.6c2.1 0 2.1-3.3 0-3.3s-2.1 3.3 0 3.3zM278.1 113.3c2.1 0 2.1-3.3 0-3.3s-2.1 3.3 0 3.3zM285.3 42.8c2.1 0 2.1-3.3 0-3.3s-2.1 3.3 0 3.3zM385 19.1c2.1 0 2.1-3.3 0-3.3s-2.1 3.3 0 3.3zM453.6-105.3c2.1 0 2.1-3.3 0-3.3-2.2 0-2.2 3.3 0 3.3zM449.5 24.6c2.1 0 2.1-3.3 0-3.3s-2.1 3.3 0 3.3zM450.1 54.9c2.1 0 2.1-3.3 0-3.3-2.2 0-2.2 3.3 0 3.3zM502.4 75.3c2.1 0 2.1-3.3 0-3.3s-2.1 3.3 0 3.3zM537.1 89.1c2.1 0 2.1-3.3 0-3.3s-2.1 3.3 0 3.3zM506.4 104.4c.5.2 1.1.4 1.6.6.8.3 1.8-.3 2-1.2.2-.9-.3-1.7-1.2-2-.5-.2-1.1-.4-1.6-.6-.8-.3-1.8.3-2 1.2-.2.9.3 1.7 1.2 2zM209.1-48.1c2.1 0 2.1-3.3 0-3.3-2.2 0-2.2 3.3 0 3.3zM222.3-63.5c2.1 0 2.1-3.3 0-3.3s-2.1 3.3 0 3.3zM209.1-120.4c2.1 0 2.1-3.3 0-3.3-2.2 0-2.2 3.3 0 3.3zM184.3-151.7c2.1 0 2.1-3.3 0-3.3-2.2 0-2.2 3.3 0 3.3zM204.4-24.3c2.1 0 2.1-3.3 0-3.3s-2.1 3.3 0 3.3zM193.9-10.5h.6c.9 0 1.7-.8 1.7-1.7 0-.9-.7-1.7-1.7-1.7h-.6c-.9 0-1.7.8-1.7 1.7.1 1 .8 1.7 1.7 1.7zM261.7-33.1c2.1 0 2.1-3.3 0-3.3s-2.1 3.3 0 3.3zM268.9-20.4c2.1 0 2.1-3.3 0-3.3-2.2 0-2.2 3.3 0 3.3zM315.2-13c2.1 0 2.1-3.3 0-3.3-2.2 0-2.2 3.3 0 3.3zM333.4-22.6c2.1 0 2.1-3.3 0-3.3-2.2 0-2.2 3.3 0 3.3zM375.2-28.7c2.1 0 2.1-3.3 0-3.3s-2.1 3.3 0 3.3zM417.1-34.7c2.1 0 2.1-3.3 0-3.3s-2.1 3.3 0 3.3zM444.7-27c2.1 0 2.1-3.3 0-3.3-2.2 0-2.2 3.3 0 3.3zM397.8-12.1c2.1 0 2.1-3.3 0-3.3s-2.1 3.3 0 3.3zM429.2.5c2.1 0 2.1-3.3 0-3.3s-2.1 3.3 0 3.3zM517.5-95.1c2.1 0 2.1-3.3 0-3.3-2.2 0-2.2 3.3 0 3.3zM534-84.6c2.1 0 2.1-3.3 0-3.3s-2.1 3.3 0 3.3zM519.7-55.9c2.1 0 2.1-3.3 0-3.3-2.2-.1-2.2 3.3 0 3.3zM512.2-122.1c2.1 0 2.1-3.3 0-3.3-2.2 0-2.2 3.3 0 3.3zM479.6-136.4c2.1 0 2.1-3.3 0-3.3s-2.1 3.3 0 3.3zM433.3-136.4c2.1 0 2.1-3.3 0-3.3s-2.1 3.3 0 3.3zM319.1-121.4c2.1 0 2.1-3.3 0-3.3-2.1-.1-2.1 3.3 0 3.3zM353.8 41.8c2.1 0 2.1-3.3 0-3.3s-2.1 3.3 0 3.3zM335.1 53.9c2.1 0 2.1-3.3 0-3.3-2.2 0-2.2 3.3 0 3.3zM454.6-15.2c2.1 0 2.1-3.3 0-3.3s-2.1 3.3 0 3.3zM482.7-25.6c2.1 0 2.1-3.3 0-3.3s-2.1 3.3 0 3.3zM492.1-11.3c2.1 0 2.1-3.3 0-3.3s-2.1 3.3 0 3.3zM507.4 12.5c2.1 0 2.1-3.3 0-3.3-2.2 0-2.2 3.3 0 3.3zM426.4 15.2c2.8 0 2.8-4.4 0-4.4-2.9 0-2.9 4.4 0 4.4zM283.6 83.6c3.5 0 3.6-5.5 0-5.5-3.5 0-3.5 5.5 0 5.5zM267.7-120.4c0 3.5 5.5 3.6 5.5 0s-5.5-3.6-5.5 0zM230.9-78c0 3.5 5.5 3.6 5.5 0 0-3.5-5.5-3.5-5.5 0zM531.6 69.8c3.5 0 3.6-5.5 0-5.5-3.5 0-3.5 5.5 0 5.5zM460.7-40.5c3.5 0 3.6-5.5 0-5.5-3.5 0-3.6 5.5 0 5.5zM454.6 107.3c3.5 0 3.6-5.5 0-5.5-3.5-.1-3.5 5.5 0 5.5zM389.1-67c3.5 0 3.6-5.5 0-5.5s-3.6 5.5 0 5.5zM383.4-136.4c3.5 0 3.6-5.5 0-5.5-3.5 0-3.5 5.5 0 5.5zM478-101.4c3.5 0 3.6-5.5 0-5.5-3.5-.1-3.5 5.5 0 5.5zM412.5-158.1c3.5 0 3.6-5.5 0-5.5s-3.6 5.5 0 5.5zM424.2-80.3c3.5 0 3.6-5.5 0-5.5-3.5 0-3.5 5.5 0 5.5zM488.2-73.9c3.5 0 3.6-5.5 0-5.5s-3.6 5.5 0 5.5zM348.1 15.2c3.5 0 3.6-5.5 0-5.5s-3.6 5.5 0 5.5zM482.6 66.5c3.5 0 3.6-5.5 0-5.5s-3.6 5.5 0 5.5zM230.7 83c3.5 0 3.6-5.5 0-5.5-3.5 0-3.5 5.5 0 5.5zM192.2 52.2c3.5 0 3.6-5.5 0-5.5-3.6-.1-3.6 5.5 0 5.5zM194.4 147.5c3.5 0 3.6-5.5 0-5.5s-3.6 5.5 0 5.5zM264.9 133.7c1.4 0 1.4-2.2 0-2.2s-1.4 2.2 0 2.2zM265.4 61.5c.7 0 .7-1.1 0-1.1s-.7 1.1 0 1.1zM296.9 73.6c.7 0 .7-1.1 0-1.1-.8 0-.8 1.1 0 1.1zM226.9 110.6c.7 0 .7-1.1 0-1.1s-.7 1.1 0 1.1zM247.3 106.7c.7 0 .7-1.1 0-1.1s-.7 1.1 0 1.1zM202.1 92.9c.7 0 .7-1.1 0-1.1s-.7 1.1 0 1.1zM246.3-92.3c0 .7 1.1.7 1.1 0s-1.1-.7-1.1 0zM229.2-102.2c0 .7 1.1.7 1.1 0s-1.1-.7-1.1 0zM204.4 132.1c.7 0 .7-1.1 0-1.1s-.7 1.1 0 1.1zM279.2 135.4c.7 0 .7-1.1 0-1.1s-.7 1.1 0 1.1zM465.5 12.5c1.4 0 1.4-2.2 0-2.2s-1.4 2.2 0 2.2zM485.9 30.7c1.4 0 1.4-2.2 0-2.2s-1.4 2.2 0 2.2zM468.2 80.3c1.4 0 1.4-2.2 0-2.2s-1.4 2.2 0 2.2zM490.3 103.4c1.4 0 1.4-2.2 0-2.2s-1.4 2.2 0 2.2zM500.2 88.5c1.4 0 1.4-2.2 0-2.2s-1.4 2.2 0 2.2zM525.6 106.7c1.4 0 1.4-2.2 0-2.2-1.5 0-1.5 2.2 0 2.2zM505.2 124.3c1.4 0 1.4-2.2 0-2.2-1.5 0-1.5 2.2 0 2.2zM297 46.2c1.4 0 1.4-2.2 0-2.2s-1.4 2.2 0 2.2zM448.2-127.6c1.4 0 1.4-2.2 0-2.2s-1.4 2.2 0 2.2zM220.9-27c1.4 0 1.4-2.2 0-2.2s-1.4 2.2 0 2.2zM232-9.9c1.4 0 1.4-2.2 0-2.2-1.5 0-1.5 2.2 0 2.2zM242.4-39.7c1.4 0 1.4-2.2 0-2.2s-1.4 2.2 0 2.2zM204.1-157.2c1.4 0 1.4-2.2 0-2.2s-1.4 2.2 0 2.2zM191.4-136.8c1.4 0 1.4-2.2 0-2.2s-1.4 2.2 0 2.2zM525.6 14.7c1.4 0 1.4-2.2 0-2.2-1.5 0-1.5 2.2 0 2.2zM548.7 11.4c1.4 0 1.4-2.2 0-2.2s-1.4 2.2 0 2.2zM539.9 48.8c1.4 0 1.4-2.2 0-2.2s-1.4 2.2 0 2.2zM524.5-21.5c1.4 0 1.4-2.2 0-2.2s-1.4 2.2 0 2.2zM326.7-40.8c1.4 0 1.4-2.2 0-2.2s-1.4 2.2 0 2.2zM295.3-30.3c1.4 0 1.4-2.2 0-2.2s-1.4 2.2 0 2.2zM284.9-43.6c1.4 0 1.4-2.2 0-2.2-1.5 0-1.5 2.2 0 2.2zM352.6-14.9c1.4 0 1.4-2.2 0-2.2s-1.4 2.2 0 2.2zM375.2-11c1.4 0 1.4-2.2 0-2.2s-1.4 2.2 0 2.2zM387.4-40.2c1.4 0 1.4-2.2 0-2.2-1.5 0-1.5 2.2 0 2.2zM414.9-46.6c1.4 0 1.4-2.2 0-2.2s-1.4 2.2 0 2.2zM433.4-42.7c1.4 0 1.4-2.2 0-2.2s-1.5 2.2 0 2.2zM430.6-9.7c1.4 0 1.4-2.2 0-2.2s-1.4 2.2 0 2.2zM544.7-110.5c1.4 0 1.4-2.2 0-2.2s-1.4 2.2 0 2.2zM531.6-147.2c1.4 0 1.4-2.2 0-2.2s-1.4 2.2 0 2.2zM377.8 39.3c1.4 0 1.4-2.2 0-2.2s-1.4 2.2 0 2.2zM482.2-49.1c.7 0 .7-1.1 0-1.1s-.7 1.1 0 1.1zM500.1-32c.7 0 .7-1.1 0-1.1s-.7 1.1 0 1.1zM514.2-41.6c.7 0 .7-1.1 0-1.1-.8 0-.8 1.1 0 1.1zM543.6-57.9c.7 0 .7-1.1 0-1.1s-.7 1.1 0 1.1zM545-29.2c.7 0 .7-1.1 0-1.1s-.7 1.1 0 1.1zM508.9-12.7c.7 0 .7-1.1 0-1.1s-.7 1.1 0 1.1zM543.1-9.7c.7 0 .7-1.1 0-1.1s-.7 1.1 0 1.1zM319.1 58.1c.7 0 .7-1.1 0-1.1s-.7 1.1 0 1.1zM233.3-52.8c.7 0 .7-1.1 0-1.1s-.7 1.1 0 1.1zM285.2 11c.7 0 .7-1.1 0-1.1s-.7 1.1 0 1.1zM413.5-145.2c.7 0 .7-1.1 0-1.1s-.7 1.1 0 1.1zM433.3-148.8c.7 0 .7-1.1 0-1.1s-.7 1.1 0 1.1zM421.8-142.2c.7 0 .7-1.1 0-1.1s-.7 1.1 0 1.1zM447.4-143.9c.7 0 .7-1.1 0-1.1s-.7 1.1 0 1.1zM460.6-132.3c.7 0 .7-1.1 0-1.1s-.7 1.1 0 1.1zM468.6-145.8c.7 0 .7-1.1 0-1.1s-.7 1.1 0 1.1zM473.9-149.4c.7 0 .7-1.1 0-1.1-.8 0-.8 1.1 0 1.1zM488.2-143c.7 0 .7-1.1 0-1.1s-.7 1.1 0 1.1zM495.6-133.1c.7 0 .7-1.1 0-1.1s-.7 1.1 0 1.1zM512.2-147.7c.7 0 .7-1.1 0-1.1-.8 0-.8 1.1 0 1.1zM322.4-132.5c2.1 0 2.1-3.3 0-3.3s-2.1 3.3 0 3.3zM289.9-146.8c2.1 0 2.1-3.3 0-3.3s-2.1 3.3 0 3.3zM243.6-146.8c2.1 0 2.1-3.3 0-3.3s-2.1 3.3 0 3.3zM258.5-138c1.4 0 1.4-2.2 0-2.2s-1.4 2.2 0 2.2zM355-120.9c1.4 0 1.4-2.2 0-2.2s-1.4 2.2 0 2.2zM321.6-147.7c1.4 0 1.4-2.2 0-2.2s-1.4 2.2 0 2.2zM223.8-155.6c.7 0 .7-1.1 0-1.1-.7-.1-.7 1.1 0 1.1zM243.6-159.2c.7 0 .7-1.1 0-1.1s-.7 1.1 0 1.1zM232.1-152.6c.7 0 .7-1.1 0-1.1-.8 0-.8 1.1 0 1.1zM257.7-154.3c.7 0 .7-1.1 0-1.1s-.7 1.1 0 1.1zM270.9-142.7c.7 0 .7-1.1 0-1.1s-.7 1.1 0 1.1zM278.9-156.2c.7 0 .7-1.1 0-1.1s-.7 1.1 0 1.1zM284.1-159.8c.7 0 .7-1.1 0-1.1s-.7 1.1 0 1.1zM298.5-153.4c.7 0 .7-1.1 0-1.1-.8 0-.8 1.1 0 1.1zM305.9-143.5c.7 0 .7-1.1 0-1.1s-.7 1.1 0 1.1zM322.4-158.1c.7 0 .7-1.1 0-1.1s-.7 1.1 0 1.1zM454.1-75.5c.7 0 .7-1.1 0-1.1s-.7 1.1 0 1.1zM456.8-62.6c.7 0 .7-1.1 0-1.1s-.7 1.1 0 1.1zM469.8-62c.7 0 .7-1.1 0-1.1s-.7 1.1 0 1.1zM515.5-72.5c.7 0 .7-1.1 0-1.1s-.7 1.1 0 1.1zM508.9-63.9c.7 0 .7-1.1 0-1.1s-.7 1.1 0 1.1zM536.7-74.1c.7 0 .7-1.1 0-1.1s-.7 1.1 0 1.1zM545.6-92c.7 0 .7-1.1 0-1.1s-.7 1.1 0 1.1zM548-74.4c.7 0 .7-1.1 0-1.1s-.7 1.1 0 1.1z" fill="#C4FFF9"/><g><path d="M492.7-44.1c.7 0 .7-1.1 0-1.1s-.7 1.1 0 1.1z" fill="#C4FFF9"/></g><g><path d="M223.8 12.5c.7 0 .7-1.1 0-1.1-.8 0-.8 1.1 0 1.1z" fill="#C4FFF9"/></g><g><path d="M252.4 28.6c.7 0 .7-1.1 0-1.1s-.7 1.1 0 1.1z" fill="#C4FFF9"/></g><g><path d="M242.9 41.9c.7 0 .7-1.1 0-1.1-.8 0-.8 1.1 0 1.1z" fill="#C4FFF9"/></g><g><path d="M195.1 11c.7 0 .7-1.1 0-1.1s-.7 1.1 0 1.1z" fill="#C4FFF9"/></g><g><path d="M256.1 10.1c1.4 0 1.4-2.2 0-2.2s-1.4 2.2 0 2.2z" fill="#C4FFF9"/></g><g><path d="M286.2 13c1.4 0 1.4-2.2 0-2.2s-1.4 2.2 0 2.2z" fill="#C4FFF9"/></g><g><path d="M368.5-94.3c0 2.1 3.3 2.1 3.3 0s-3.3-2.2-3.3 0z" fill="#C4FFF9"/></g><g><path d="M334.9-97.3c0 2.8 4.4 2.8 4.4 0s-4.4-2.8-4.4 0z" fill="#C4FFF9"/></g><g><path d="M348.1-67.1c0 2.8 4.4 2.8 4.4 0 0-2.9-4.4-2.9-4.4 0z" fill="#C4FFF9"/></g><g><path d="M339.4-143c0 2.8 4.4 2.8 4.4 0 0-2.9-4.4-2.9-4.4 0z" fill="#C4FFF9"/></g><g><path d="M243.6 37.6c2.8 0 2.8-4.4 0-4.4s-2.9 4.4 0 4.4z" fill="#C4FFF9"/></g><g><path d="M306.2-87.7c0 2.8 4.4 2.8 4.4 0s-4.4-2.9-4.4 0z" fill="#C4FFF9"/></g><g><path d="M194.4 24c1.4 0 1.4-2.2 0-2.2-1.5 0-1.5 2.2 0 2.2z" fill="#C4FFF9"/></g><g><path d="M216.4 43.2c1.4 0 1.4-2.2 0-2.2-1.4-.1-1.4 2.2 0 2.2z" fill="#C4FFF9"/></g><g><path d="M206.9 71.1c1.4 0 1.4-2.2 0-2.2-1.5 0-1.5 2.2 0 2.2z" fill="#C4FFF9"/></g><g><path d="M173.8 97.5c1.4 0 1.4-2.2 0-2.2s-1.4 2.2 0 2.2z" fill="#C4FFF9"/></g><g><path d="M287.5-103.1c0 1.4 2.2 1.4 2.2 0 0-1.5-2.2-1.5-2.2 0z" fill="#C4FFF9"/></g><g><path d="M254.4-98c0 1.4 2.2 1.4 2.2 0s-2.2-1.4-2.2 0z" fill="#C4FFF9"/></g><g><path d="M389.1 39.5c1.4 0 1.4-2.2 0-2.2s-1.4 2.2 0 2.2z" fill="#C4FFF9"/></g><g><path d="M406 13c1.4 0 1.4-2.2 0-2.2s-1.5 2.2 0 2.2z" fill="#C4FFF9"/></g><g><path d="M411.8 27c1.4 0 1.4-2.2 0-2.2s-1.4 2.2 0 2.2z" fill="#C4FFF9"/></g><g><path d="M435.4 30.7c1.4 0 1.4-2.2 0-2.2-1.5 0-1.5 2.2 0 2.2z" fill="#C4FFF9"/></g><g><path d="M441.2 6.4c1.4 0 1.4-2.2 0-2.2s-1.4 2.2 0 2.2z" fill="#C4FFF9"/></g><g><path d="M433.9 46.8h-.7c-1.4 0-1.4 2.2 0 2.2h.7c1.4 0 1.4-2.2 0-2.2z" fill="#C4FFF9"/></g><g><path d="M371.4 64.5c1.4 0 1.4-2.2 0-2.2s-1.4 2.2 0 2.2z" fill="#C4FFF9"/></g><g><path d="M311.9 82.1c1.4 0 1.4-2.2 0-2.2s-1.4 2.2 0 2.2z" fill="#C4FFF9"/></g><g><path d="M292.1 104.1c1.4 0 1.4-2.2 0-2.2s-1.4 2.2 0 2.2z" fill="#C4FFF9"/></g><g><path d="M292.8 137.9c1.4 0 1.4-2.2 0-2.2s-1.4 2.2 0 2.2z" fill="#C4FFF9"/></g><g><path d="M295.8 22.6c1.4 0 1.4-2.2 0-2.2-1.5 0-1.5 2.2 0 2.2z" fill="#C4FFF9"/></g><g><path d="M319.3 8.6c1.4 0 1.4-2.2 0-2.2s-1.5 2.2 0 2.2z" fill="#C4FFF9"/></g><g><path d="M468.4 26.3c1.4 0 1.4-2.2 0-2.2-1.4-.1-1.4 2.2 0 2.2z" fill="#C4FFF9"/></g><g><path d="M492.7 2.7c1.4 0 1.4-2.2 0-2.2s-1.4 2.2 0 2.2z" fill="#C4FFF9"/></g><g><path d="M181.3-80.8c1.4 0 1.4-2.2 0-2.2s-1.4 2.2 0 2.2z" fill="#C4FFF9"/></g><g><path d="M536 113c1.4 0 1.4-2.2 0-2.2-1.4-.1-1.4 2.2 0 2.2z" fill="#C4FFF9"/></g><g><path d="M189.4-43.3c1.4 0 1.4-2.2 0-2.2s-1.4 2.2 0 2.2z" fill="#C4FFF9"/></g><path d="M550 140.1c-45.5-6.6-98.9-9.8-145.4-3.8-80.1 10.3-169 51.4-221.9 53.6-4.5.2-8.7.3-12.7.3v19.6h380v-69.7z" fill="#FFF"/></svg>