<svg xmlns="http://www.w3.org/2000/svg" viewBox="120 -173 380 380"><path fill="none" d="M120-173h380v380H120z"/><path fill="#5989A1" d="M120.7-173H500v379.9H120.7z"/><path fill="none" d="M120-173h380v380H120z"/><path fill="#FFF" d="M120.1 124.1H500v82.8H120.1z"/><path fill="none" d="M120-173h380v380H120z"/><g fill="#FFF"><path d="M121 124.1h37s-20.5-14.2-37 0zM461.4 125.2h37c.2 0-20.4-14.1-37 0zM170 124.1h13.9s-7-8.6-13.9 0zM208.4 124.6h34.3s-17.1-9.6-34.3 0zM327.3 124h25.2s-12.6-8.6-25.2 0zM381 124.4h13.9c-.1 0-7-8.5-13.9 0z"/></g><path fill="none" d="M120-173h380v380H120z"/><g opacity=".6" fill="#FFF"><circle cx="157.8" cy="-129.7" r="2.1"/><circle cx="250.6" cy="-100.4" r="2.1"/><circle cx="217.6" cy="-144.3" r="2.1"/><circle cx="261.4" cy="-114.6" r="2.1"/><circle cx="195.2" cy="-147.6" r="2.1"/><circle cx="152.3" cy="-158.6" r="2.1"/><circle cx="157.8" cy="-150.1" r="2.1"/><circle cx="355.1" cy="-148.1" r="2.1"/><circle cx="128" cy="-158.1" r="2.1"/><circle cx="337.5" cy="-124.1" r="2.1"/><circle cx="326.8" cy="-46.6" r="2.1"/><circle cx="338.3" cy="-92" r="2.1" opacity=".1"/><circle cx="359.8" cy="-157.5" r="2.1"/><circle cx="293" cy="-136.4" r="2.1"/><circle cx="128.7" cy="-102.5" r="2.1"/><circle cx="321.9" cy="-138.6" r="3"/><circle cx="314.3" cy="-124.1" r="3"/><circle cx="287.1" cy="-121.1" r="3" opacity=".5"/><circle cx="325.4" cy="-154.8" r="3" opacity=".5"/><circle cx="346.1" cy="-77.4" r="3" opacity=".1"/><circle cx="308" cy="-94.7" r="3" opacity=".1"/><circle cx="349.1" cy="-108.7" r="3" opacity=".5"/><circle cx="213.8" cy="-105.7" r="3" opacity=".5"/><circle cx="370.9" cy="-85.4" r="3" opacity=".1"/><circle cx="277.8" cy="-141.5" r="3" opacity=".5"/><circle cx="207.2" cy="-128.4" r="3" opacity=".5"/><circle cx="178.8" cy="-131.4" r="3" opacity=".5"/><circle cx="183" cy="-104" r="3" opacity=".5"/><circle cx="168.6" cy="-79.3" r="3" opacity=".5"/><circle cx="175.4" cy="-160.5" r="3" opacity=".5"/><circle cx="137.3" cy="-124.1" r="3" opacity=".5"/><circle cx="148.1" cy="-76.2" r="3" opacity=".5"/><circle cx="271.3" cy="-82.8" r="3" opacity=".1"/><circle cx="220.8" cy="-122" r="3"/><circle cx="235.1" cy="-138.5" r="3"/><circle cx="186.3" cy="-82.3" r="3"/><circle cx="338.3" cy="-150.1" r="3"/><circle cx="132.6" cy="-142.5" r="3"/><circle cx="259.4" cy="-135.5" r="3"/><circle cx="165.6" cy="-100.4" r="3"/><circle cx="180.9" cy="-149.7" r="2.1"/><circle cx="193.1" cy="-122.9" r="2.1" opacity=".3"/><circle cx="146.3" cy="-151.8" r="2.1" opacity=".3"/><circle cx="146.2" cy="-111.8" r="2.1" opacity=".3"/><circle cx="271.3" cy="-113.9" r="2.1" opacity=".3"/><circle cx="227.9" cy="-100.4" r="2.1" opacity=".3"/><circle cx="203" cy="-97.4" r="2.1" opacity=".3"/><circle cx="284" cy="-153.9" r="2.1" opacity=".3"/><circle cx="203" cy="-167.3" r="2.1" opacity=".3"/><circle cx="168.6" cy="-166.5" r="2.1" opacity=".3"/><circle cx="298.8" cy="-98.2" r="2.1" opacity=".1"/><circle cx="267.8" cy="-62.6" r="2.1" opacity=".3"/><circle cx="228.8" cy="-74.1" r="2.1" opacity=".1"/><circle cx="178.8" cy="-64.9" r="2.1" opacity=".3"/><circle cx="146.3" cy="-79.3" r="2.1" opacity=".3"/><circle cx="361.9" cy="-72.4" r="2.1" opacity=".1"/><circle cx="359.9" cy="-129.7" r="2.1" opacity=".3"/><circle cx="308" cy="-147" r="2.1" opacity=".3"/><circle cx="246.1" cy="-69.8" r="2.1" opacity=".3"/><circle cx="237.6" cy="-126.2" r="2.1" opacity=".3"/><circle cx="393.4" cy="-116.6" r="2.1"/><circle cx="487.1" cy="-150.2" r="2.1"/><circle cx="469.4" cy="-126.1" r="2.1"/><circle cx="470.2" cy="-94" r="2.1"/><circle cx="491.7" cy="-159.5" r="2.1"/><circle cx="425" cy="-138.4" r="2.1"/><circle cx="453.8" cy="-140.6" r="3"/><circle cx="446.3" cy="-126.1" r="3"/><circle cx="419.1" cy="-123.1" r="3" opacity=".5"/><circle cx="457.4" cy="-156.8" r="3" opacity=".5"/><circle cx="440" cy="-96.7" r="3" opacity=".5"/><circle cx="481.1" cy="-110.7" r="3" opacity=".5"/><circle cx="482.2" cy="-50.7" r="3" opacity=".5"/><circle cx="409.7" cy="-143.6" r="3" opacity=".5"/><circle cx="403.3" cy="-84.8" r="3" opacity=".1"/><circle cx="470.2" cy="-152.1" r="3"/><circle cx="476.2" cy="-72.2" r="3"/><circle cx="391.4" cy="-137.6" r="3"/><circle cx="403.3" cy="-115.9" r="2.1" opacity=".3"/><circle cx="416" cy="-155.9" r="2.1" opacity=".3"/><circle cx="430.7" cy="-100.2" r="2.1" opacity=".3"/><circle cx="263.5" cy="-154.8" r="2.1" opacity=".3"/><path d="M491.9-133.8c-1.2 0-2.1.9-2.1 2.1s.9 2.1 2.1 2.1c.9 0 1.6-.5 2-1.3v-1.6c-.5-.8-1.1-1.3-2-1.3z" opacity=".3"/><circle cx="440" cy="-149" r="2.1" opacity=".3"/><circle cx="378" cy="-71.8" r="2.1" opacity=".1"/><circle cx="369.5" cy="-128.2" r="2.1" opacity=".3"/><circle cx="157.4" cy="-66.4" r="2.1"/><circle cx="250.2" cy="-37.1" r="2.1"/><circle cx="248.5" cy="-54.8" r="2.1"/><circle cx="337.9" cy="-28.7" r="2.1"/><circle cx="128.3" cy="-39.2" r="2.1"/><circle cx="309.3" cy="-71.9" r="3" opacity=".1"/><circle cx="283.7" cy="-62.8" r="3" opacity=".5"/><circle cx="345.7" cy="-14.2" r="3" opacity=".5"/><circle cx="307.6" cy="-31.4" r="3" opacity=".5"/><circle cx="348.7" cy="-45.4" r="3" opacity=".5"/><circle cx="213.4" cy="-42.4" r="3" opacity=".5"/><circle cx="370.5" cy="-22.1" r="3" opacity=".5"/><circle cx="206.8" cy="-65.1" r="3" opacity=".5"/><circle cx="178.4" cy="-68.1" r="3" opacity=".5"/><circle cx="182.6" cy="-40.8" r="3" opacity=".5"/><circle cx="163.1" cy="-5.9" r="3" opacity=".5"/><circle cx="136.9" cy="-60.8" r="3" opacity=".5"/><circle cx="148.1" cy="-2.8" r="3" opacity=".5"/><circle cx="270.9" cy="-19.5" r="3"/><circle cx="220.5" cy="-58.7" r="3"/><circle cx="185.9" cy="-19.1" r="3"/><circle cx="364.5" cy="-43.5" r="3"/><circle cx="165.2" cy="-37.1" r="3"/><circle cx="192.7" cy="-59.6" r="2.1" opacity=".3"/><circle cx="145.9" cy="-48.5" r="2.1" opacity=".3"/><circle cx="270.9" cy="-50.6" r="2.1" opacity=".3"/><circle cx="227.6" cy="-37.1" r="2.1" opacity=".3"/><circle cx="202.6" cy="-34.1" r="2.1" opacity=".3"/><circle cx="298.4" cy="-34.9" r="2.1" opacity=".3"/><circle cx="228.4" cy="-10.8" r="2.1" opacity=".3"/><circle cx="178.4" cy="-1.7" r="2.1" opacity=".3"/><circle cx="145.9" cy="-16" r="2.1" opacity=".3"/><circle cx="361.5" cy="-9.1" r="2.1" opacity=".3"/><circle cx="245.7" cy="-6.5" r="2.1" opacity=".3"/><circle cx="237.2" cy="-62.9" r="2.1" opacity=".3"/><circle cx="382.2" cy="-39.2" r="2.1"/><circle cx="404" cy="-92" r="2.1"/><circle cx="393" cy="-53.4" r="2.1"/><circle cx="469.1" cy="-62.8" r="2.1"/><circle cx="395.1" cy="-.7" r="2.1"/><circle cx="469.9" cy="-30.7" r="2.1"/><circle cx="445.9" cy="-62.8" r="3"/><circle cx="418.7" cy="-59.8" r="3" opacity=".5"/><circle cx="412.8" cy="-76.3" r="3" opacity=".5"/><circle cx="485.2" cy="-32" r="3" opacity=".5"/><circle cx="439.6" cy="-33.4" r="3" opacity=".5"/><circle cx="402.9" cy="-21.5" r="3"/><circle cx="475.8" cy="-8.9" r="3"/><circle cx="402.9" cy="-52.6" r="2.1" opacity=".3"/><circle cx="430.4" cy="-36.9" r="2.1" opacity=".3"/><circle cx="239.7" cy="-156.5" r="2.1" opacity=".3"/><circle cx="377.7" cy="-8.5" r="2.1" opacity=".3"/><circle cx="369.2" cy="-65" r="2.1" opacity=".3"/><circle cx="288" cy="31.6" r="2.1"/><circle cx="276.5" cy="-13.8" r="2.1"/><circle cx="268.7" cy=".8" r="3" opacity=".5"/><circle cx="306.8" cy="-16.5" r="3" opacity=".5"/><circle cx="243.9" cy="-7.2" r="3" opacity=".5"/><circle cx="446.2" cy="-1.1" r="3" opacity=".5"/><circle cx="466.7" cy="2" r="3" opacity=".5"/><circle cx="343.5" cy="-4.6" r="3"/><circle cx="428.5" cy="-4.1" r="3"/><circle cx="347" cy="15.6" r="2.1" opacity=".3"/><circle cx="386" cy="4.1" r="2.1" opacity=".3"/><circle cx="433.4" cy="20.4" r="2.1" opacity=".3"/><circle cx="460.4" cy="-13.5" r="2.1" opacity=".3"/><circle cx="252.9" cy="5.8" r="2.1" opacity=".3"/><circle cx="368.7" cy="8.4" r="2.1" opacity=".3"/><circle cx="219.3" cy="14.3" r="2.1"/><circle cx="144.6" cy="-15.8" r="2.1"/><circle cx="174.9" cy="-18.5" r="3" opacity=".5"/><circle cx="132.6" cy="27.5" r="3" opacity=".5"/><circle cx="211.5" cy="-6.6" r="3"/><circle cx="138.6" cy="6" r="3"/><circle cx="215.1" cy="13.5" r="2.1" opacity=".3"/><circle cx="236.8" cy="6.4" r="2.1" opacity=".3"/><circle cx="457.4" cy="11.8" r="2.1"/><circle cx="364.6" cy="41.1" r="2.1"/><circle cx="366.4" cy="23.4" r="2.1"/><circle cx="277.6" cy="17.4" r="2.1"/><circle cx="276.9" cy="49.5" r="2.1"/><circle cx="486.4" cy="38.9" r="2.1"/><circle cx="300.9" cy="17.4" r="3"/><circle cx="328.1" cy="20.4" r="3" opacity=".5"/><circle cx="269.1" cy="64" r="3" opacity=".5"/><circle cx="307.2" cy="46.8" r="3" opacity=".5"/><circle cx="266.1" cy="32.8" r="3" opacity=".5"/><circle cx="401.4" cy="35.8" r="3" opacity=".5"/><circle cx="244.3" cy="56.1" r="3" opacity=".5"/><circle cx="408" cy="13.1" r="3" opacity=".5"/><circle cx="436.4" cy="10.1" r="3" opacity=".5"/><circle cx="432.2" cy="37.4" r="3" opacity=".5"/><circle cx="446.6" cy="62.2" r="3" opacity=".5"/><circle cx="477.9" cy="17.4" r="3" opacity=".5"/><circle cx="467.1" cy="65.3" r="3" opacity=".5"/><circle cx="343.9" cy="58.7" r="3"/><circle cx="394.3" cy="19.5" r="3"/><circle cx="428.9" cy="59.1" r="3"/><circle cx="250.3" cy="34.7" r="3"/><circle cx="449.6" cy="41.1" r="3"/><circle cx="422.1" cy="18.6" r="2.1" opacity=".3"/><circle cx="469" cy="29.7" r="2.1" opacity=".3"/><circle cx="343.9" cy="27.6" r="2.1" opacity=".3"/><circle cx="387.2" cy="41.1" r="2.1" opacity=".3"/><circle cx="412.2" cy="44.1" r="2.1" opacity=".3"/><circle cx="316.4" cy="43.3" r="2.1" opacity=".3"/><circle cx="386.4" cy="67.4" r="2.1" opacity=".3"/><circle cx="436.4" cy="76.5" r="2.1" opacity=".3"/><circle cx="468.9" cy="62.2" r="2.1" opacity=".3"/><circle cx="253.3" cy="69.1" r="2.1" opacity=".3"/><circle cx="255.3" cy="11.8" r="2.1" opacity=".3"/><circle cx="369.1" cy="71.7" r="2.1" opacity=".3"/><circle cx="377.6" cy="15.2" r="2.1" opacity=".3"/><circle cx="232.6" cy="39" r="2.1"/><circle cx="221.8" cy="24.8" r="2.1"/><circle cx="145.7" cy="15.4" r="2.1"/><circle cx="219.7" cy="77.5" r="2.1"/><circle cx="144.9" cy="47.5" r="2.1"/><circle cx="168.9" cy="15.4" r="3"/><circle cx="196.1" cy="18.4" r="3" opacity=".5"/><circle cx="129.6" cy="46.2" r="3" opacity=".5"/><circle cx="175.2" cy="44.8" r="3" opacity=".5"/><circle cx="211.9" cy="56.7" r="3"/><circle cx="139" cy="69.3" r="3"/><circle cx="211.9" cy="25.6" r="2.1" opacity=".3"/><circle cx="184.5" cy="41.3" r="2.1" opacity=".3"/><circle cx="237.1" cy="69.6" r="2.1" opacity=".3"/><circle cx="245.6" cy="13.2" r="2.1" opacity=".3"/><circle cx="345.3" cy="84.8" r="3" opacity=".5"/><circle cx="162.7" cy="93.1" r="3" opacity=".5"/><circle cx="147.7" cy="96.1" r="3" opacity=".5"/><circle cx="228" cy="88.1" r="2.1" opacity=".3"/><circle cx="178" cy="97.3" r="2.1" opacity=".3"/><circle cx="145.5" cy="82.9" r="2.1" opacity=".3"/><circle cx="361.1" cy="89.8" r="2.1" opacity=".3"/><circle cx="245.3" cy="92.4" r="2.1" opacity=".3"/><circle cx="394.7" cy="98.3" r="2.1"/><circle cx="475.4" cy="90" r="3"/><circle cx="377.3" cy="90.4" r="2.1" opacity=".3"/><circle cx="287.6" cy="130.6" r="2.1"/><circle cx="276.1" cy="85.2" r="2.1"/><circle cx="268.3" cy="99.7" r="3" opacity=".5"/><circle cx="306.4" cy="82.5" r="3" opacity=".5"/><circle cx="243.5" cy="91.8" r="3" opacity=".5"/><circle cx="445.8" cy="97.8" r="3" opacity=".5"/><circle cx="466.3" cy="100.9" r="3" opacity=".5"/><circle cx="343.1" cy="94.4" r="3"/><circle cx="428.1" cy="94.8" r="3"/><circle cx="346.6" cy="114.5" r="2.1" opacity=".3"/><circle cx="385.6" cy="103.1" r="2.1" opacity=".3"/><circle cx="433" cy="119.4" r="2.1" opacity=".3"/><circle cx="460.1" cy="85.5" r="2.1" opacity=".3"/><circle cx="252.5" cy="104.8" r="2.1" opacity=".3"/><circle cx="368.3" cy="107.3" r="2.1" opacity=".3"/><circle cx="218.9" cy="113.2" r="2.1"/><circle cx="144.2" cy="83.2" r="2.1"/><circle cx="132.2" cy="126.4" r="3" opacity=".5"/><circle cx="211.1" cy="92.3" r="3"/><circle cx="138.2" cy="105" r="3"/><circle cx="214.7" cy="112.5" r="2.1" opacity=".3"/><circle cx="236.4" cy="105.3" r="2.1" opacity=".3"/><circle cx="457" cy="110.7" r="2.1"/><circle cx="364.2" cy="140" r="2.1"/><circle cx="366" cy="122.4" r="2.1"/><circle cx="277.2" cy="116.3" r="2.1"/><circle cx="276.5" cy="148.4" r="2.1"/><circle cx="486.1" cy="137.9" r="2.1"/><circle cx="300.5" cy="116.3" r="3"/><circle cx="327.7" cy="119.4" r="3" opacity=".5"/><circle cx="268.7" cy="163" r="3" opacity=".5"/><circle cx="306.8" cy="145.7" r="3" opacity=".5"/><circle cx="265.7" cy="131.7" r="3" opacity=".5"/><circle cx="401" cy="134.7" r="3" opacity=".5"/><circle cx="243.9" cy="155" r="3" opacity=".5"/><circle cx="407.6" cy="112" r="3" opacity=".5"/><circle cx="436" cy="109" r="3" opacity=".5"/><circle cx="431.8" cy="136.4" r="3" opacity=".5"/><circle cx="446.2" cy="161.1" r="3" opacity=".5"/><circle cx="477.4" cy="116.3" r="3" opacity=".5"/><circle cx="466.7" cy="164.2" r="3" opacity=".5"/><circle cx="343.5" cy="157.6" r="3"/><circle cx="393.9" cy="118.4" r="3"/><circle cx="428.5" cy="158.1" r="3"/><circle cx="249.9" cy="133.6" r="3"/><circle cx="449.2" cy="140" r="3"/><circle cx="421.7" cy="117.5" r="2.1" opacity=".3"/><circle cx="468.4" cy="128.6" r="2.1" opacity=".3"/><circle cx="343.5" cy="126.5" r="2.1" opacity=".3"/><circle cx="386.8" cy="140" r="2.1" opacity=".3"/><circle cx="411.8" cy="143" r="2.1" opacity=".3"/><circle cx="316" cy="142.2" r="2.1" opacity=".3"/><circle cx="386" cy="166.3" r="2.1" opacity=".3"/><circle cx="436" cy="175.5" r="2.1" opacity=".3"/><circle cx="468.4" cy="161.1" r="2.1" opacity=".3"/><circle cx="252.9" cy="168" r="2.1" opacity=".3"/><circle cx="254.9" cy="110.7" r="2.1" opacity=".3"/><circle cx="368.7" cy="170.6" r="2.1" opacity=".3"/><circle cx="377.2" cy="114.2" r="2.1" opacity=".3"/><circle cx="232.2" cy="138" r="2.1"/><circle cx="221.4" cy="123.8" r="2.1"/><circle cx="145.3" cy="114.3" r="2.1"/><circle cx="219.3" cy="176.5" r="2.1"/><circle cx="144.5" cy="146.4" r="2.1"/><circle cx="168.5" cy="114.3" r="3"/><circle cx="195.7" cy="117.3" r="3" opacity=".5"/><circle cx="129.2" cy="145.1" r="3" opacity=".5"/><circle cx="174.8" cy="143.7" r="3" opacity=".5"/><circle cx="211.5" cy="155.6" r="3"/><circle cx="138.6" cy="168.2" r="3"/><circle cx="211.5" cy="124.5" r="2.1" opacity=".3"/><circle cx="184.1" cy="140.2" r="2.1" opacity=".3"/><circle cx="236.7" cy="168.6" r="2.1" opacity=".3"/><circle cx="245.2" cy="112.2" r="2.1" opacity=".3"/></g><path fill="none" d="M120-173h380v380H120z"/><path d="M473.4 58.3c7.5.8 24.1 1.9 24 8.6-.1 4.4-2.3 8.4-2.1 12.5-.2.6 5.9 10.8-1.3 4.9-1.1 2.5-2.1 5.3-3.8 7.6-.6-.2-3.2-1.7-3.4-2.1 3.4-4.6 4.7-11.4 5.7-17.1-.8.4-2.8 2.2-4.2 2.6-.6.2-.9 0-1.1-.9 1.1-1.6 4.8-4.7 6.7-7.6-6.7-5-18.4-3.3-21.2-4.3-1.3-.3-1.8-3.8.7-4.2M416.4 56.6c-7.5.8-24.1 1.9-24 8.6.1 4.4 2.6 15.3 3.4 17.5 1.1 2.5 2.1 5.3 3.8 7.6.6-.2 3.2-1.7 3.4-2.1-3.4-4.6-4.7-11.4-5.7-17.1.8.4.6.4 2 .8.6.2.9 0 1.1-.9-1.1-1.6-2.6-3-4.5-5.9 6.7-5 18.4-3.3 21.2-4.3 1.3-.3 1.9-3.8-.7-4.2" fill="#9E5738"/><path d="M462.9 28.6c-.9 1.6-3.2 1.9-5.1.8-1.9-1.1-2.7-3.3-1.8-4.8.9-1.6 3.6-1.8 5.6-.7 1.8 1.2 2.2 3.2 1.3 4.7z" fill="#FFF"/><path d="M434.1 30.5c3.6-4.9 20.4-11.5 26.5-.9 3 5.2 4.3 12 2 17.7-2.4-.4-4.6-3.7-6.8-5.2-4.1-2.7-8.7-4.6-13.1-6.7-2.9-1.7-6.5-2.3-8.6-4.9z" fill="#779978"/><path d="M391.1 125.5c-5-31.4 16.2-61.4 20.2-66.1 4.7-6 10.8-8.1 12.1-15.5 4.7-22.1 34.8-20.7 40.8.7.6 2.2.5 4.8 2 6.2 9 8.6 14.3 12.1 21.5 29.4 4 8 7.3 31.2 4 39.9-4 12.7-13.2 15.9-26.2 18.6-19.9 4.1-72.2.8-74.4-13.2z" fill="#FFF"/><path d="M446.9 42.5c0 1.2-.9 2.1-2.1 2.1s-2.1-.9-2.1-2.1.8-1.8 2-1.8c1.1.1 2.2.6 2.2 1.8z" fill="#3E3D40"/><path d="M446.4 42.5c0 .5-.4.9-.9.9s-.9-.4-.9-.9.3-.7.8-.7c.5-.1 1 .2 1 .7z" fill="#FFF"/><path d="M433.7 41.4c0 1.2-.9 2.1-2.1 2.1-1.2 0-2.1-.9-2.1-2.1s.8-1.8 2-1.8 2.2.6 2.2 1.8z" fill="#3E3D40"/><path d="M433.2 41.3c0 .5-.4.9-.9.9s-.9-.4-.9-.9.3-.7.8-.7c.6 0 1 .2 1 .7z" fill="#FFF"/><path d="M445.9 49c.1 1 1.1 1.7 2.3 1.6 1.2-.1 2-1 1.9-2-.1-1-1.1-1.7-2.3-1.6-1.2.1-2 1-1.9 2z" fill="#FF9D8D"/><path d="M441.5 58.4c-3.9 3.7-3.1 6.9-3.7 11.4-.1.5.1.5-.4.8s-2.2.3-2.8.5c-.7.1-2 .2-2.7.3-1.6.2-1.4.5-1.8-.2-1.2-1.9 0-4.8.1-7 0-1.7 1.3-3.3 2.3-4.9.9-1.4 1.2-1.2 3.5-1.1 1.8-.1 3.7 0 5.5.2" fill="#B51C1C"/><g fill="#B51C1C"><ellipse cx="432.4" cy="73.3" rx=".7" ry="3.6"/><ellipse cx="434.6" cy="73.2" rx=".7" ry="3.6"/><ellipse cx="437.1" cy="73.1" rx=".7" ry="3.6"/></g><path d="M468.1 47.7c1.7 10.5-12.7 18.1-26 17-13.3-1.2-35.7-10.5-17.9-23 4.9 6.8 7.3 9.5 19 10.5 10.3.9 17.6-5.3 21.1-8.9 2.6.6 3.4 2 3.8 4.4z" fill="#CE2020"/><path d="M420.6 38.5c-.9 2.1 10.2 12.9 12 13.7 1.8.8 4.4-.3 5.4-2.3.9-2.1-.2-4.3-2-5.1-1.8-.9-14.5-8.4-15.4-6.3z" fill="#F48357"/><path d="M420.6 38.5c-.9 2.1 10.2 12.9 12 13.7 1.8.8 4.4-.3 5.4-2.3-4.9 2.4-14.7-7.8-17.4-11.4z" fill="#DD6C4A"/><path d="M433.3 44c.5-.1 1.5.8 1.7 1.7.2 1 0 1.8-.5 1.9s-1-.6-1.2-1.6c-.1-.9-.5-1.9 0-2zM430.6 42.6c.3-.1 1.1.5 1.2 1.2.1.7 0 1.2-.3 1.3-.3.1-1-.6-1.1-1.2-.2-.7-.1-1.3.2-1.3zM428.5 41.6c.2 0 .5.2.5.5.1.3-.2.4-.4.5-.2 0-.5-.1-.5-.4 0-.4.2-.6.4-.6zM426.4 40.7c.2 0 .5.2.5.5.1.3-.2.4-.4.5-.2 0-.5-.1-.5-.4 0-.4.2-.6.4-.6z" fill="#DD6C4A"/><g><path d="M440.6 51.8s.1-.3-1.1-1c-2.6-1.5-9.1-3.4-11.4-2-3.4 2.1-9 16.7-6.6 24.3 0 0 6 2.3 10.5 1.1l.1-.6c0 .1-1-22.3 8.5-21.8z" fill="#E22323"/><ellipse cx="422.5" cy="76.1" rx=".7" ry="3.6" fill="#E22323"/><ellipse cx="425" cy="76.6" rx=".7" ry="3.6" fill="#E22323"/><ellipse cx="428" cy="76.8" rx=".7" ry="3.6" fill="#E22323"/><ellipse cx="430.5" cy="76.8" rx=".7" ry="3.6" fill="#E22323"/></g><path d="M434.5 84.6c-1.8.8-2.6 2.8-1.8 4.6.8 1.8 2.8 2.6 4.6 1.8 1.8-.8 2.9-2.1 2.1-3.9-.8-1.7-3.1-3.3-4.9-2.5zM433.8 112c-1.8.8-2.6 2.8-1.8 4.6s2.8 2.6 4.6 1.8 2.9-2.1 2.1-3.9c-.8-1.7-3.2-3.3-4.9-2.5z" fill="#3E3D40"/><path fill="none" d="M120-173h380v380H120z"/><g><path d="M130.9 100.4c2.7 1 5.7-.6 6.8-3.6s-.2-6.2-2.9-7.2-5.7-.3-6.8 2.7c-1 3 .2 7.2 2.9 8.1z" fill="#FFF"/><path d="M209.4 128.9c.9-23.1 5-47.6-10.9-67.3-9.1-11.5-31.1-20.3-44.9-12.1-23.6 14.2-20.4 53.4-22.1 77.2 2.4 5.7 19.7 6.1 30 6.5 11.8.5 28.6.6 47.9-4.3" fill="#FFF"/><path d="M188.8 77.7c2.7-1.4 4.4-4.2 6.8-5.8 1.1-.7 3.6-.6 4.5-1.3.2-.2.1-.3.1-.7-.9 0-2.1.2-3 0 .8-1 2-2.3 2.7-3.5.2-.5-.5-1-.9-.7-1.8 1.1-3.1 3.4-4.5 5-.5-.8-.7-3.6-1.3-1.3-.5 1.6.3 2-1.1 3.4-1 1.1-2.3 2.6-3.6 3.4-.4.3-7.3 4.3-7.6 4.6-.5.6-.2 1.8 1.1 1.8l6.8-4.9zM136 99.7c-1.2-.9-2.1-2.1-3-3.3-.2-.3-2.5 0-2.7-.3-.1-.1-.4-.7 0-.9.5-.3 1.8-.2 1.7-.3-.5-.7-1.1-1.4-1.7-1.9-1-.9-3.4-1.1-4.2-2-.2-.2 0-.3 0-.7.9.2 2 .5 3 .5-.6-1.2-1.6-2.6-2.1-3.9-.1-.5.6-.9 1-.5 1.6 1.4 2.5 3.9 3.7 5.7.6-.7 1.2-2.2 1.4.2.2 1.7-.5.7.7 2.3.8 1.3 1.9 2.9 3 4 .4.3 6.5 5.4 6.7 5.7.4.7-.1 1.8-1.4 1.6l-6.1-6.2z" fill="#9E5738"/><path d="M148.2 38.4c-1.8 1.8 6 17.4 7.5 19 1.6 1.5 4.8 1.4 6.6-.4 1.8-1.8 1.4-4.6-.1-6.2-1.6-1.5-12.2-14.2-14-12.4z" fill="#F48357"/><path d="M148.2 38.4c-1.8 1.8 6 17.4 7.5 19 1.6 1.5 4.8 1.4 6.6-.4-6 .7-12.5-13.7-14.1-18.6zM159.6 49.1c.5.1 1.3 1.4 1.2 2.5s-.7 1.9-1.2 1.8-.8-1-.7-2.1c.2-1.1.2-2.3.7-2.2zM157.3 46.5c.4 0 .9 1 .8 1.7s-.5 1.3-.8 1.3c-.4 0-.8-1-.7-1.7 0-.8.3-1.4.7-1.3zM155.4 44.7c.2 0 .4.4.4.7 0 .3-.3.4-.5.4s-.5-.3-.4-.6c0-.4.3-.6.5-.5zM153.6 42.9c.2 0 .4.4.4.7s-.3.4-.5.4-.5-.3-.4-.6c-.1-.3.3-.5.5-.5z" fill="#DD6C4A"/><g><path d="M184.9 65c0 1-.8 1.9-1.9 1.9-1 0-1.9-.8-1.9-1.9 0-1 1.4-1.6 2.4-1.6 1.1 0 1.4.6 1.4 1.6z" fill="#3E3D40"/><path d="M183.4 65.5c0 .4-.4.8-.8.8s-.8-.4-.8-.8.3-.7.7-.7c.5 0 .9.3.9.7z" fill="#FFF"/></g><g><path d="M155.7 78.6c0 1-.8 1.9-1.9 1.9-1 0-1.9-.8-1.9-1.9 0-1 1.4-1.6 2.4-1.6 1.1-.1 1.4.6 1.4 1.6z" fill="#3E3D40"/><path d="M154.2 79.1c0 .4-.4.8-.8.8s-.8-.4-.8-.8.3-.7.7-.7c.5 0 .9.2.9.7z" fill="#FFF"/></g><g><path d="M185.4 108c1-.3 1.6-1.7.9-2.9-2.2-3.8-6.2-5.2-10.6-4.6-2 .1-3.1 1-2.6 2 .4 1 1.2.7 2 .6 2.8-.4 6.3 1.5 7.8 4 .4.7 1.4 1.2 2.5.9z" fill="#8C312A"/><path d="M178.3 102.5c-2.1-1.1-4.4.4-4.5.6.4.1.8 0 1.3-.1 1.7-.2 3.5.3 5.1 1.3-.1-.2-.6-1.1-1.9-1.8z" fill="#C6584F"/></g><path d="M181.3 52.4c0 2.9 2.6 5.2 5.8 5.2 3.2 0 5.8-2.3 5.8-5.2S191.2 47 188 47s-6.7 2.5-6.7 5.4z" fill="#FFF"/></g><path fill="none" d="M120-173h380v380H120z"/><g><path d="M461.6 102c0 11.6-9.5 21.1-21.1 21.1s-21.1-9.5-21.1-21.1 9.5-21.1 21.1-21.1 21.1 9.5 21.1 21.1z" fill="#62BA47"/><g fill="#FFF"><path d="M435.3 99c-1.7.2-2.2 2.3-2.3 3.7v.6c0 .7 0 1.2-.1 1.9 0 .3-.1.8-.2.8-.6.1-1.1-.9-1.3-1.3-.4-1.1-.7-2.2-.9-3.3-.2-1.2-.4-2.5-.4-3.8v-1.5-.6-.4c.2-.9-1.1 0-1.4.4-1.4 2.5-1 5.4-.9 8 0 .7 0 1.4-.2 2.2-.1.5-.2 1.4-.6 1.8-.3.3-.7 0-.9-.1-.4-.2-.5-.5-.6-.9-.1-.4-.5-.2-.7 0-.3.3-.6.9-.5 1.3.2.9 1 1.8 2 1.5 1.6-.5 2.2-2.3 2.6-3.8.2-.7.3-1.4.3-2.1.2 1.1.5 2.1 1 3 .4.7 1 1.4 1.9 1.3.7-.1 1.1-.8 1.4-1.6.3.7.8 1.2 1.6 1.1.9-.1 1.6-1 1.9-1.7.4-.9.5-1.8.5-2.7 0-1.3-.4-4-2.2-3.8zm.6 6.1c0 .2-.1.4-.2.5-.4 0-.6-.5-.7-.8-.3-.6-.4-1.2-.5-1.8-.1-.7 0-1.3.1-2 0-.2.1-.4.2-.5.9.6 1.1 1.7 1.1 2.6.1.7.1 1.4 0 2zM456.3 101.5c-1.9-.7-3 1.9-3.3 3.2-.3 1.3-.7 3.7.9 4.3.8.4 1.7-.3 2.2-.8.6-.6.9-1.5 1.2-2.3.3-1.3.7-3.8-1-4.4zm-1.2 6.1c-.1.2-.2.3-.3.4-.3-.2-.4-.8-.4-1.1-.1-.7 0-1.3.1-2 .1-.6.3-1.3.6-1.9.1-.2.2-.3.3-.4.7.8.5 2 .4 3-.2.7-.3 1.4-.7 2zM451.2 101.8c.4-.5.7-1 1-1.4.7-1.1 1.4-2.3 1.3-3.6-.1-1.2-1.7-1.3-2.5-.9-1.2.6-1.9 1.9-2.3 3.1-.5 1.6-.7 3.3-.8 4.9-.6.7-1.8 2.2-2.8 1.6-.2-.2-.4-.5-.5-.8.8-.8 1.4-1.6 2.1-2.6.5-.9.9-2.3-.1-2.9-.9-.5-2.1.1-2.7.8-.6.7-.9 1.7-1 2.7 0 .5-.1 1.4 0 2.2-.5.4-1.3.5-1.9.4-.7-.2-1-.9-1.1-1.5-.2-.9-.2-1.8 0-2.7 0-.3.1-.5.2-.8 0-.1 0-.1.1-.2.4.2.6.9.7 1.2.2.6 1.8-.4 1.6-1s-.4-1.3-1.1-1.6c-.7-.3-1.6.2-2 .6-1.1 1.1-1.3 2.9-1.2 4.3 0 1 .3 2.2 1.1 2.7 1.1.7 2.7.1 3.8-.6.3.7.8 1.2 1.7 1.1 1.1-.2 2.1-.8 3-1.6 0 .9.2 1.8.9 2.1 1 .6 2.2-.1 2.9-.9.9-1.1 1.3-2.6.9-3.9-.2-.4-.8-.6-1.3-.7zm-6.4-.7c.1-.2.2-.5.3-.7.5.1.5.7.5 1.1-.1.7-.5 1.4-1.1 2v-.4c0-.6.1-1.3.3-2zm6.1-3.4c.1-.2.3-.5.5-.7.7.8 0 2-.4 2.7s-.9 1.5-1.4 2.2c.1-.7.2-1.4.4-2.1.3-.8.5-1.5.9-2.1zm-.4 8.6c0 .1-.1.2-.2.3h-.2c-.5-.2-.5-1.3-.5-1.6v-1.1c.2-.2.4-.4.6-.7.4-.3.7.3.8.7.1.7-.2 1.7-.5 2.4z"/></g></g></svg>