<svg id="Layer_1" xmlns="http://www.w3.org/2000/svg" viewBox="-107 230.9 380 380"><style>.st0{fill:#0D5C74;} .st1{opacity:0.32;fill:#FFFFFF;enable-background:new ;} .st2{opacity:0.22;fill:#FFFFFF;enable-background:new ;} .st3{fill:#726351;} .st4{opacity:0.15;enable-background:new ;} .st5{opacity:0.2;enable-background:new ;} .st6{fill:#B3FFF7;} .st7{opacity:4.000000e-02;enable-background:new ;} .st8{fill:#BDBDBD;} .st9{fill:#FFFFFF;} .st10{opacity:0.1;enable-background:new ;} .st11{fill:#EBEBEB;} .st12{fill:#C4FFF9;} .st13{fill:#B3A78F;} .st14{fill:#95856E;} .st15{fill:#E8D9BC;} .st16{fill:#EFBEB8;} .st17{fill:none;stroke:#95856E;stroke-width:1.0003;stroke-linecap:round;stroke-linejoin:round;stroke-miterlimit:10;} .st18{fill:#0F1110;} .st19{fill:#CD675B;} .st20{fill:#EFE1D5;} .st21{fill:#E78072;} .st22{fill:#655B51;} .st23{fill:#F1D2BE;} .st24{fill:#95A63A;} .st25{fill:#8EF2F4;} .st26{fill:#167593;} .st27{fill:#62BA47;} .st28{fill:#F2B062;} .st29{fill:#F29211;}</style><path class="st0" d="M-107 230.9h380v380h-380z"/><path class="st1" d="M.2 331.9c-.7-1.3-2-2.1-3.4-2-.5 0-1 .1-1.5.4-1.2-3.6-4.4-6.1-8-6-1.3.1-2.5.5-3.6 1.2-3-7.3-10.4-12.3-18.7-11.9-5.7.3-10.8 3.2-14.1 7.4-1.5-.4-3-.7-4.7-.6-4.8.3-8.8 3-11 6.9-.7-.2-1.4-.3-2.1-.2-3.6.2-6.3 3.3-6.1 7 0 .6.1 1.2.3 1.8l72.9-4zM104 295.8c.6-1.2 1.6-2 2.7-1.9.4 0 .8.2 1.1.4 1-3.4 3.5-5.7 6.3-5.6 1 .1 1.9.5 2.7 1.1 2.4-6.8 8.2-11.5 14.6-11 4.4.3 8.2 2.9 10.6 6.9 1.1-.4 2.4-.6 3.6-.5 3.6.2 6.7 2.8 8.3 6.4.5-.2 1.1-.3 1.6-.2 2.7.2 4.8 3.1 4.5 6.5 0 .6-.1 1.1-.3 1.6l-55.7-3.7z"/><path class="st2" d="M206.8 448.3v-.6c.2-2 1.9-3.5 3.8-3.3.6 0 1.1.3 1.7.6 1.2-2.4 3.4-4 5.8-3.7.5 0 1 .2 1.4.4 2.5-5.2 7.7-8.4 13.2-7.8 6 .7 10.5 5.6 11.5 11.9.4 0 .8-.1 1.2 0 2.9.3 5 3.3 4.6 6.8 0 .2-.1.4-.1.6l-43.1-4.9z"/><path class="st3" d="M-25.358 484.34l2.098-.072.522 15.09-2.1.074z"/><path class="st4" d="M-24.583 484.245l.522 15.09-.7.025-.522-15.09z"/><path class="st5" d="M-23.1 487.4v.6s-.4.4-2.1.2v-.7l2.1-.1z"/><path class="st6" d="M-29 462.4c-1.9-.1-3.8-.2-5.8-.5 7-4.6 9.2-19.6 9.2-19.6.1.4 2.4 14.6 10.5 18.9 0 0-2.5.6-6.3 1 2.6 8.5 6.5 17.5 12.2 21.9 0 0-5.4 3.2-14.8 3.5-9.6.3-15-2.5-15-2.5 4.7-4.5 7.9-13.9 10-22.7z"/><path class="st7" d="M-29 462.4c-1.9-.1-3.8-.2-5.8-.5 7-4.6 9.2-19.6 9.2-19.6s0 .2.1.3c-.9 10.2-8.3 45.7 14.9 40.2.5.5 1 .9 1.5 1.3 0 0-5.4 3.2-14.8 3.5-9.6.3-15-2.5-15-2.5 4.6-4.5 7.8-13.9 9.9-22.7z"/><path class="st8" d="M232.76 496.177l1.198.034-.127 4.6-1.2-.034z"/><path class="st5" d="M233.107 496.133l-.134 4.6-.4-.013.134-4.598z"/><path class="st5" d="M234 497v.7s-.6.3-1.2 0v-.8l1.2.1z"/><path class="st9" d="M229.2 488.5l-2-.1c1.6-1.2 2.8-3.3 3.8-5.6l-2-.1c1.5-1.1 2.6-3.4 3.4-5.7h-1.5c2.2-1.8 3.2-8 3.2-8s.4 6.2 2.8 8.2h-1.7c.7 2.3 1.7 4.6 3.2 5.9l-2.2-.1c.9 2.3 2.1 4.5 3.7 5.8l-2.3-.1c1.2 3 2.8 5.6 4.9 7.3 0 0-4.2 1.5-9.3 1.3-5.7-.2-9.2-1.8-9.2-1.8 2.1-1.5 3.8-4.1 5.2-7z"/><path class="st10" d="M229.2 488.5l-2-.1c1.6-1.2 2.8-3.3 3.8-5.6l-2-.1c1.5-1.1 2.6-3.4 3.4-5.7h-1.5c2.2-1.8 3.2-8 3.2-8-4.8 29.5 2.5 26.5 6.7 25.4.5.6 1.1 1.2 1.7 1.7 0 0-4.2 1.5-9.3 1.3-5.7-.2-9.2-1.8-9.2-1.8 2.1-1.6 3.8-4.2 5.2-7.1z"/><path class="st8" d="M160.56 494.678l1 .028-.128 4.598-1-.027z"/><path class="st5" d="M160.86 494.638l-.133 4.6-.3-.01.134-4.598z"/><path class="st5" d="M161.5 495.6v.7s-.5.3-1 0v-.8l1 .1z"/><path class="st9" d="M157.5 487.1h-1.7c1.3-1.2 2.4-3.3 3.3-5.6h-1.7c1.2-1.1 2.2-3.4 2.9-5.7H159c1.9-1.8 2.8-8 2.8-8s.3 6.2 2.3 8.2h-1.4c.5 2.3 1.4 4.6 2.7 5.9l-1.9-.1c.7 2.3 1.7 4.5 3.1 5.8l-2-.1c1 2.9 2.4 5.6 4.1 7.3 0 0-3.5 1.5-7.8 1.4-4.8-.1-7.7-1.8-7.7-1.8 1.7-1.8 3.2-4.4 4.3-7.3z"/><path class="st10" d="M157.5 487.1h-1.7c1.3-1.2 2.4-3.3 3.3-5.6h-1.7c1.2-1.1 2.2-3.4 2.9-5.7H159c1.9-1.8 2.8-8 2.8-8-4.2 29.6 2 26.5 5.6 25.3.4.6.9 1.2 1.4 1.7 0 0-3.5 1.5-7.8 1.4-4.8-.1-7.7-1.8-7.7-1.8 1.6-1.8 3.1-4.4 4.2-7.3z"/><path class="st11" d="M-1.7 500c-.6-1.2-.8-2.5-.8-3.9 0-4.9 3.6-8.9 8.1-8.9.8 0 1.5.1 2.3.4 2.5-7 8.4-11.8 15.2-11.9 4.9 0 9.3 2.5 12.4 6.5 1.2-.7 2.7-1 4.1-1 3.8 0 7 2.2 8.9 5.6 1.3-.9 2.7-1.5 4.4-1.4 4.6 0 8.4 4.4 8.4 9.7 0 1.8-.4 3.5-1.2 5l-61.8-.1z"/><path class="st10" d="M5.5 487.1c.8 0 1.5.1 2.3.4 2.5-7 8.4-11.8 15.2-11.9.7 0 1.3.1 2 .2-6.3 4.7-12.4 12.6-8.2 24.2H-1.8c-.6-1.2-.8-2.5-.8-3.9.1-5 3.6-8.9 8.1-9z"/><path class="st6" d="M176.5 496.3c.2-4.6 4.2-8.2 9.1-8 .4 0 .9.1 1.3.1 1.8-2.9 5.2-4.7 9-4.6 5.6.2 10 4.6 9.8 9.9v.3c2.8 1 4.8 3.6 4.7 6.6l-33.3-1.1c-.4-.9-.6-2.1-.6-3.2z"/><path class="st10" d="M185.7 488.2c.4 0 .9.1 1.3.1 1.5-2.3 3.9-3.9 6.7-4.4-4.6 2.5-8.6 9.1-5.3 16l-11.1-.4c-.4-1-.7-2.2-.6-3.3 0-4.5 4.1-8.1 9-8z"/><path class="st12" d="M-101.4 417.8c.7 0 .7-1.1 0-1.1s-.7 1.1 0 1.1zM-69.4 433.2c.7 0 .7-1.1 0-1.1s-.7 1.1 0 1.1zM49.3 324.6c0 2.1 3.3 2.1 3.3 0s-3.3-2.2-3.3 0zM-84.8 298.3c2.1 0 2.1-3.3 0-3.3-2.2 0-2.2 3.3 0 3.3zM15.2 331.2c0 2.1 3.3 2.1 3.3 0s-3.3-2.1-3.3 0zM-78.8 507.6c2.1 0 2.1-3.3 0-3.3s-2.1 3.3 0 3.3zM-104.7 527.4c2.1 0 2.1-3.3 0-3.3s-2.1 3.3 0 3.3zM-43.5 522.5c2.1 0 2.1-3.3 0-3.3s-2.1 3.3 0 3.3zM-10.9 495.5c2.1 0 2.1-3.3 0-3.3s-2.2 3.3 0 3.3zM1.2 514.2c2.1 0 2.1-3.3 0-3.3s-2.1 3.3 0 3.3zM8.4 443.7c2.1 0 2.1-3.3 0-3.3s-2.1 3.3 0 3.3zM108.1 420c2.1 0 2.1-3.3 0-3.3s-2.1 3.3 0 3.3zM176.7 295.6c2.1 0 2.1-3.3 0-3.3-2.2 0-2.2 3.3 0 3.3zM172.6 425.5c2.1 0 2.1-3.3 0-3.3s-2.1 3.3 0 3.3zM173.2 455.8c2.1 0 2.1-3.3 0-3.3-2.2 0-2.2 3.3 0 3.3zM225.6 476.2c2.1 0 2.1-3.3 0-3.3s-2.1 3.3 0 3.3zM260.3 490c2.1 0 2.1-3.3 0-3.3s-2.1 3.3 0 3.3zM229.6 505.3c.5.2 1.1.4 1.6.6.8.3 1.8-.3 2-1.2.2-.9-.3-1.7-1.2-2-.5-.2-1.1-.4-1.6-.6-.8-.3-1.8.3-2 1.2s.3 1.7 1.2 2zM-67.9 352.8c2.1 0 2.1-3.3 0-3.3-2.2 0-2.2 3.3 0 3.3zM-54.7 337.4c2.1 0 2.1-3.3 0-3.3s-2.1 3.3 0 3.3zM-67.9 280.5c2.1 0 2.1-3.3 0-3.3-2.2 0-2.2 3.3 0 3.3zM-92.7 249.2c2.1 0 2.1-3.3 0-3.3-2.2 0-2.2 3.3 0 3.3zM-72.6 376.6c2.1 0 2.1-3.3 0-3.3s-2.1 3.3 0 3.3zM-83.1 390.4h.6c.9 0 1.7-.8 1.7-1.7s-.7-1.7-1.7-1.7h-.6c-.9 0-1.7.8-1.7 1.7.1 1 .8 1.7 1.7 1.7zM-15.3 367.8c2.1 0 2.1-3.3 0-3.3s-2.1 3.3 0 3.3zM-8 380.5c2.1 0 2.1-3.3 0-3.3-2.2 0-2.2 3.3 0 3.3zM38.3 387.9c2.1 0 2.1-3.3 0-3.3-2.2 0-2.2 3.3 0 3.3zM56.5 378.3c2.1 0 2.1-3.3 0-3.3-2.2 0-2.2 3.3 0 3.3zM98.3 372.2c2.1 0 2.1-3.3 0-3.3s-2.1 3.3 0 3.3zM140.2 366.2c2.1 0 2.1-3.3 0-3.3s-2.1 3.3 0 3.3zM167.8 373.9c2.1 0 2.1-3.3 0-3.3-2.2 0-2.2 3.3 0 3.3zM120.9 388.8c2.1 0 2.1-3.3 0-3.3s-2.1 3.3 0 3.3zM240.7 305.8c2.1 0 2.1-3.3 0-3.3-2.2 0-2.2 3.3 0 3.3zM257.2 316.3c2.1 0 2.1-3.3 0-3.3s-2.1 3.3 0 3.3zM242.9 345c2.1 0 2.1-3.3 0-3.3-2.2-.1-2.2 3.3 0 3.3zM235.4 278.8c2.1 0 2.1-3.3 0-3.3-2.2 0-2.2 3.3 0 3.3zM202.8 264.5c2.1 0 2.1-3.3 0-3.3s-2.1 3.3 0 3.3zM156.4 264.5c2.1 0 2.1-3.3 0-3.3s-2.1 3.3 0 3.3zM42.2 279.5c2.1 0 2.1-3.3 0-3.3-2.1-.1-2.1 3.3 0 3.3zM76.9 442.7c2.1 0 2.1-3.3 0-3.3s-2.1 3.3 0 3.3zM58.2 454.8c2.1 0 2.1-3.3 0-3.3-2.2 0-2.2 3.3 0 3.3zM177.7 385.7c2.1 0 2.1-3.3 0-3.3s-2.1 3.3 0 3.3zM205.9 375.3c2.1 0 2.1-3.3 0-3.3s-2.1 3.3 0 3.3zM215.3 389.6c2.1 0 2.1-3.3 0-3.3s-2.1 3.3 0 3.3zM230.6 413.4c2.1 0 2.1-3.3 0-3.3-2.2 0-2.2 3.3 0 3.3zM6.7 484.5c3.5 0 3.6-5.5 0-5.5-3.5 0-3.5 5.5 0 5.5zM-9.2 280.5c0 3.5 5.5 3.6 5.5 0s-5.5-3.6-5.5 0zM-46.1 322.9c0 3.5 5.5 3.6 5.5 0 0-3.5-5.5-3.5-5.5 0zM254.8 470.7c3.5 0 3.6-5.5 0-5.5-3.5 0-3.5 5.5 0 5.5zM183.9 360.4c3.5 0 3.6-5.5 0-5.5-3.5 0-3.6 5.5 0 5.5zM177.7 508.2c3.5 0 3.6-5.5 0-5.5-3.5-.1-3.5 5.5 0 5.5zM112.2 333.9c3.5 0 3.6-5.5 0-5.5s-3.6 5.5 0 5.5zM106.5 264.5c3.5 0 3.6-5.5 0-5.5-3.5 0-3.5 5.5 0 5.5zM201.2 299.5c3.5 0 3.6-5.5 0-5.5-3.5-.1-3.5 5.5 0 5.5zM135.6 242.8c3.5 0 3.6-5.5 0-5.5s-3.6 5.5 0 5.5zM147.3 320.6c3.5 0 3.6-5.5 0-5.5-3.5 0-3.5 5.5 0 5.5zM211.4 327c3.5 0 3.6-5.5 0-5.5s-3.6 5.5 0 5.5zM71.2 416.1c3.5 0 3.6-5.5 0-5.5s-3.6 5.5 0 5.5zM205.8 467.4c3.5 0 3.6-5.5 0-5.5s-3.6 5.5 0 5.5zM-46.3 483.9c3.5 0 3.6-5.5 0-5.5-3.5 0-3.5 5.5 0 5.5zM-84.8 453.1c3.5 0 3.6-5.5 0-5.5-3.6-.1-3.6 5.5 0 5.5zM-82.6 548.4c3.5 0 3.6-5.5 0-5.5s-3.6 5.5 0 5.5zM-12.1 534.6c1.4 0 1.4-2.2 0-2.2s-1.4 2.2 0 2.2zM-11.5 462.4c.7 0 .7-1.1 0-1.1-.8 0-.8 1.1 0 1.1zM20 474.5c.7 0 .7-1.1 0-1.1-.8 0-.8 1.1 0 1.1zM-50.1 511.5c.7 0 .7-1.1 0-1.1s-.7 1.1 0 1.1zM-29.7 507.6c.7 0 .7-1.1 0-1.1s-.7 1.1 0 1.1zM-74.9 493.8c.7 0 .7-1.1 0-1.1s-.7 1.1 0 1.1zM-30.7 308.6c0 .7 1.1.7 1.1 0s-1.1-.7-1.1 0zM-47.8 298.7c0 .7 1.1.7 1.1 0s-1.1-.7-1.1 0zM-72.6 533c.7 0 .7-1.1 0-1.1s-.7 1.1 0 1.1zM2.3 536.3c.7 0 .7-1.1 0-1.1s-.7 1.1 0 1.1zM188.7 413.4c1.4 0 1.4-2.2 0-2.2s-1.4 2.2 0 2.2zM209.1 431.6c1.4 0 1.4-2.2 0-2.2s-1.4 2.2 0 2.2zM191.4 481.2c1.4 0 1.4-2.2 0-2.2s-1.4 2.2 0 2.2zM213.5 504.3c1.4 0 1.4-2.2 0-2.2s-1.4 2.2 0 2.2zM223.4 489.4c1.4 0 1.4-2.2 0-2.2s-1.4 2.2 0 2.2zM248.8 507.6c1.4 0 1.4-2.2 0-2.2-1.5 0-1.5 2.2 0 2.2zM228.4 525.2c1.4 0 1.4-2.2 0-2.2-1.5 0-1.5 2.2 0 2.2zM20.1 447.1c1.4 0 1.4-2.2 0-2.2s-1.4 2.2 0 2.2zM171.3 273.3c1.4 0 1.4-2.2 0-2.2s-1.4 2.2 0 2.2zM-56.1 373.9c1.4 0 1.4-2.2 0-2.2s-1.4 2.2 0 2.2zM-45 391c1.4 0 1.4-2.2 0-2.2-1.5 0-1.5 2.2 0 2.2zM-34.6 361.2c1.4 0 1.4-2.2 0-2.2s-1.4 2.2 0 2.2zM-72.9 243.7c1.4 0 1.4-2.2 0-2.2s-1.4 2.2 0 2.2zM-85.6 264.1c1.4 0 1.4-2.2 0-2.2s-1.4 2.2 0 2.2zM248.8 415.6c1.4 0 1.4-2.2 0-2.2-1.5 0-1.5 2.2 0 2.2zM271.9 412.3c1.4 0 1.4-2.2 0-2.2s-1.4 2.2 0 2.2zM263.1 449.7c1.4 0 1.4-2.2 0-2.2s-1.4 2.2 0 2.2zM247.7 379.4c1.4 0 1.4-2.2 0-2.2s-1.4 2.2 0 2.2zM49.8 360.1c1.4 0 1.4-2.2 0-2.2s-1.4 2.2 0 2.2zM18.4 370.6c1.4 0 1.4-2.2 0-2.2s-1.4 2.2 0 2.2zM8 357.3c1.4 0 1.4-2.2 0-2.2-1.5 0-1.5 2.2 0 2.2zM75.7 386c1.4 0 1.4-2.2 0-2.2s-1.4 2.2 0 2.2zM98.3 389.9c1.4 0 1.4-2.2 0-2.2s-1.4 2.2 0 2.2zM110.5 360.7c1.4 0 1.4-2.2 0-2.2-1.5 0-1.5 2.2 0 2.2zM138 354.3c1.4 0 1.4-2.2 0-2.2s-1.4 2.2 0 2.2zM156.5 358.2c1.4 0 1.4-2.2 0-2.2s-1.5 2.2 0 2.2zM153.7 391.2c1.4 0 1.4-2.2 0-2.2s-1.4 2.2 0 2.2zM267.9 290.4c1.4 0 1.4-2.2 0-2.2s-1.4 2.2 0 2.2zM254.8 253.7c1.4 0 1.4-2.2 0-2.2s-1.4 2.2 0 2.2zM100.9 440.2c1.4 0 1.4-2.2 0-2.2s-1.4 2.2 0 2.2zM205.4 351.8c.7 0 .7-1.1 0-1.1s-.7 1.1 0 1.1zM223.3 368.9c.7 0 .7-1.1 0-1.1s-.7 1.1 0 1.1zM237.4 359.3c.7 0 .7-1.1 0-1.1-.8 0-.8 1.1 0 1.1zM266.8 343c.7 0 .7-1.1 0-1.1s-.7 1.1 0 1.1zM268.2 371.7c.7 0 .7-1.1 0-1.1s-.7 1.1 0 1.1zM232.1 388.2c.7 0 .7-1.1 0-1.1s-.7 1.1 0 1.1zM266.3 391.2c.7 0 .7-1.1 0-1.1s-.7 1.1 0 1.1zM42.2 459c.7 0 .7-1.1 0-1.1s-.7 1.1 0 1.1zM-43.7 348.1c.7 0 .7-1.1 0-1.1s-.7 1.1 0 1.1zM8.3 411.9c.7 0 .7-1.1 0-1.1s-.7 1.1 0 1.1zM136.6 255.7c.7 0 .7-1.1 0-1.1s-.7 1.1 0 1.1zM156.4 252.1c.7 0 .7-1.1 0-1.1s-.7 1.1 0 1.1zM144.9 258.7c.7 0 .7-1.1 0-1.1s-.7 1.1 0 1.1zM170.5 257c.7 0 .7-1.1 0-1.1s-.7 1.1 0 1.1zM183.8 268.6c.7 0 .7-1.1 0-1.1s-.7 1.1 0 1.1zM191.8 255.1c.7 0 .7-1.1 0-1.1s-.7 1.1 0 1.1zM197.1 251.5c.7 0 .7-1.1 0-1.1-.8 0-.8 1.1 0 1.1zM211.4 257.9c.7 0 .7-1.1 0-1.1s-.7 1.1 0 1.1zM218.8 267.8c.7 0 .7-1.1 0-1.1s-.7 1.1 0 1.1zM235.4 253.2c.7 0 .7-1.1 0-1.1-.8 0-.8 1.1 0 1.1zM45.5 268.4c2.1 0 2.1-3.3 0-3.3s-2.1 3.3 0 3.3zM13 254.1c2.1 0 2.1-3.3 0-3.3s-2.1 3.3 0 3.3zM-33.4 254.1c2.1 0 2.1-3.3 0-3.3s-2.1 3.3 0 3.3zM-18.5 262.9c1.4 0 1.4-2.2 0-2.2s-1.4 2.2 0 2.2zM78.1 280c1.4 0 1.4-2.2 0-2.2s-1.4 2.2 0 2.2zM44.7 253.2c1.4 0 1.4-2.2 0-2.2s-1.4 2.2 0 2.2zM-53.2 245.3c.7 0 .7-1.1 0-1.1-.7-.1-.7 1.1 0 1.1zM-33.4 241.7c.7 0 .7-1.1 0-1.1s-.7 1.1 0 1.1zM-44.9 248.3c.7 0 .7-1.1 0-1.1-.8 0-.8 1.1 0 1.1zM-19.3 246.6c.7 0 .7-1.1 0-1.1s-.7 1.1 0 1.1zM-6 258.2c.7 0 .7-1.1 0-1.1s-.7 1.1 0 1.1zM2 244.7c.7 0 .7-1.1 0-1.1s-.7 1.1 0 1.1zM7.2 241.1c.7 0 .7-1.1 0-1.1s-.7 1.1 0 1.1zM21.6 247.5c.7 0 .7-1.1 0-1.1-.8 0-.8 1.1 0 1.1zM29 257.4c.7 0 .7-1.1 0-1.1s-.7 1.1 0 1.1zM45.5 242.8c.7 0 .7-1.1 0-1.1s-.7 1.1 0 1.1zM177.2 325.4c.7 0 .7-1.1 0-1.1s-.7 1.1 0 1.1zM180 338.3c.7 0 .7-1.1 0-1.1s-.7 1.1 0 1.1zM193 338.9c.7 0 .7-1.1 0-1.1s-.7 1.1 0 1.1zM238.7 328.4c.7 0 .7-1.1 0-1.1s-.7 1.1 0 1.1zM232.1 337c.7 0 .7-1.1 0-1.1s-.7 1.1 0 1.1zM259.9 326.8c.7 0 .7-1.1 0-1.1s-.7 1.1 0 1.1zM268.8 308.9c.7 0 .7-1.1 0-1.1s-.7 1.1 0 1.1zM271.2 326.5c.7 0 .7-1.1 0-1.1s-.7 1.1 0 1.1zM215.9 356.8c.7 0 .7-1.1 0-1.1s-.7 1.1 0 1.1zM-53.2 413.4c.7 0 .7-1.1 0-1.1-.8 0-.8 1.1 0 1.1zM-24.6 429.5c.7 0 .7-1.1 0-1.1s-.7 1.1 0 1.1zM-34.1 442.8c.7 0 .7-1.1 0-1.1-.8 0-.8 1.1 0 1.1zM-81.9 411.9c.7 0 .7-1.1 0-1.1s-.7 1.1 0 1.1zM-20.9 411c1.4 0 1.4-2.2 0-2.2s-1.4 2.2 0 2.2zM9.3 413.9c1.4 0 1.4-2.2 0-2.2s-1.4 2.2 0 2.2zM91.6 306.6c0 2.1 3.3 2.1 3.3 0s-3.3-2.2-3.3 0zM58 303.6c0 2.8 4.4 2.8 4.4 0s-4.4-2.8-4.4 0zM71.2 333.8c0 2.8 4.4 2.8 4.4 0 0-2.9-4.4-2.9-4.4 0zM62.5 257.9c0 2.8 4.4 2.8 4.4 0 0-2.9-4.4-2.9-4.4 0zM-33.4 438.5c2.8 0 2.8-4.4 0-4.4s-2.9 4.4 0 4.4zM29.3 313.2c0 2.8 4.4 2.8 4.4 0s-4.4-2.9-4.4 0zM-82.6 424.9c1.4 0 1.4-2.2 0-2.2-1.5 0-1.5 2.2 0 2.2zM-60.6 444.1c1.4 0 1.4-2.2 0-2.2-1.4-.1-1.4 2.2 0 2.2zM-70.1 472c1.4 0 1.4-2.2 0-2.2-1.5 0-1.5 2.2 0 2.2zM-103.2 498.4c1.4 0 1.4-2.2 0-2.2s-1.4 2.2 0 2.2zM10.6 297.8c0 1.4 2.2 1.4 2.2 0 0-1.5-2.2-1.5-2.2 0zM-22.6 302.9c0 1.4 2.2 1.4 2.2 0s-2.2-1.4-2.2 0zM112.2 440.4c1.4 0 1.4-2.2 0-2.2s-1.4 2.2 0 2.2zM164.3 407.3c1.4 0 1.4-2.2 0-2.2s-1.4 2.2 0 2.2zM94.5 465.4c1.4 0 1.4-2.2 0-2.2s-1.4 2.2 0 2.2z"/><g><path class="st12" d="M35 483c1.4 0 1.4-2.2 0-2.2s-1.4 2.2 0 2.2z"/></g><g><path class="st12" d="M15.2 505c1.4 0 1.4-2.2 0-2.2s-1.4 2.2 0 2.2z"/></g><g><path class="st12" d="M15.9 538.8c1.4 0 1.4-2.2 0-2.2s-1.4 2.2 0 2.2z"/></g><g><path class="st12" d="M18.9 423.5c1.4 0 1.4-2.2 0-2.2-1.5 0-1.5 2.2 0 2.2z"/></g><g><path class="st12" d="M42.4 409.5c1.4 0 1.4-2.2 0-2.2s-1.5 2.2 0 2.2z"/></g><g><path class="st12" d="M191.6 427.2c1.4 0 1.4-2.2 0-2.2-1.4-.1-1.4 2.2 0 2.2z"/></g><g><path class="st12" d="M215.9 403.6c1.4 0 1.4-2.2 0-2.2s-1.4 2.2 0 2.2z"/></g><g><path class="st12" d="M-95.7 320.1c1.4 0 1.4-2.2 0-2.2s-1.4 2.2 0 2.2z"/></g><g><path class="st12" d="M259.2 513.9c1.4 0 1.4-2.2 0-2.2-1.4-.1-1.4 2.2 0 2.2z"/></g><g><path class="st12" d="M-87.6 357.6c1.4 0 1.4-2.2 0-2.2s-1.4 2.2 0 2.2z"/></g><path class="st9" d="M-107.3 499.1H273v111.8h-380.3z"/><g><path class="st13" d="M-53.3 497.2c.2-.1.5-.1.7-.2.3.6.4 1.3.3 1.9.3.1.7 0 1-.1.5 1.4 1 2.8 1 4.3s-.5 3-1.6 4c-.6.5-1.2.8-1.9 1.1-1.5.6-3.2.7-4.8.5.3-2.8-.1-5.7-1.2-8.3-.4-.8-1-1.8-1.9-1.7-.2-1 .5-2 1.3-2.6.9-.5 1.9-.7 2.9-.8 1.1-.1 2.2-.1 3.1.4 0 .2 0 .3-.2.4.4 0 .8-.2 1.1-.4.2.6.3 1.1.2 1.5z"/><path class="st14" d="M-86.4 498.5c-.7.2-1.2.7-1.7 1.2-1.3 1.5-2.1 3.5-2 5.5.1 2 .9 4 2.3 5.4-.9-.3-2-.1-2.6.6-.6.8-.5 2 .3 2.6.5.4 1.1.5 1.8.5 3.1.2 6.2.2 9.2.1 6.7-.1 13.5-.3 20.2-.4.8 0 1.7 0 2.4-.4s1.3-1.2 1.1-2c-.2-.7-.9-1.2-1.7-1.3-.7-.1-1.5.1-2.2.3.9-2.1 1.2-4.4 1-6.7-.1-1.1-.4-2.2-.8-3.3-.4-.8-.8-1.5-1.5-2-1.4-.9-3.2-.8-4.8-.6-3.5.4-7 .5-10.5.6-1.2 0-2.4.1-3.6-.1-.9-.1-1.8-.3-2.7-.4-1.1-.1-2.1.1-3.2.2-.4.1-.7.1-1 .2z"/><path class="st13" d="M-83 515.3c.7.1 1.4-.3 1.8-.9.4-.6.6-1.3.6-1.9.3-2.4-.1-4.9-.5-7.2-.2-.9-.4-1.9-.7-2.7-.3-.7-.7-1.3-1-1.9-1.6-2.9-2.5-6.2-2.6-9.5-.5.6-.8 1.3-1 2.1-.7 2.5-.8 5.1-.2 7.6.4 1.7 1.2 3.3 1.6 5 .6 2.2.6 4.5.6 6.7 0 .5 0 1 .1 1.5.2.6.7 1.1 1.3 1.2zM-69.8 512.6c0-1.6.3-3.2 1-4.7.5-1 1.1-2 1.6-2.9 1.3-2.1 2.6-4.2 3.5-6.4.9-2.3 1.4-4.7 1-7.1 1.1 2.9 1.4 6 1.1 9-.2 2.2-.8 4.5-1.7 6.5-.9 2.2-2.5 4-3.4 6.2-.3.8-.7 1.7-1.5 1.8-.6.1-1.1-.3-1.4-.8-.1-.5-.2-1.1-.2-1.6z"/><path class="st15" d="M-84 500.5c.8 2.3 2.3 4.3 4.2 5.6 0-.2.1-.3.1-.5 1.8 1.8 3.4 3.7 4.8 5.8 1.8-.6 3.4-1.7 4.9-3 1.4-1.2 2.7-2.6 3.9-4.1 1.8-2.3 3.3-5 3.9-7.9.6-2.9.1-6.1-1.6-8.5-1.6 1.7-3.6 2.9-5.8 3.8-.8.4-1.7.7-2.6.8-.7.1-1.4.1-2.1.1-3.7-.1-7.4-1.1-10.4-3.4-2.1 3.6-1.8 8.4.6 11.7.1 0 .1-.2.1-.4z"/><g><path class="st14" d="M-82.4 456.7c-1.4-1.7-3-3.1-4.7-4.4-2.5-1.9-5-3.7-7.7-5.3-.1.5-.1 1.1-.1 1.7 3.8 2.9 6.6 7.3 8.6 11.7.4.9.8 1.9 1.2 2.8 1.2 3.3 1.7 6.8 1.5 10.3 0 .7-.1 1.4-.4 2.1.5.2 1 .5 1.5.6.1-1.3.9-2.4 1.8-3.3.9-.9 2-1.6 3-2.4-.4-5-1.6-10-4.7-13.8z"/><path class="st16" d="M-85.2 463.1c-.4-1-.8-1.9-1.2-2.8-2-4.4-4.8-8.8-8.6-11.7 0 .9.1 1.8.2 2.7.5 5 1.7 9.9 3.5 14.5.8 2.2 1.8 4.3 3.2 6.2 1.1 1.4 2.4 2.6 4 3.4.3-.6.3-1.4.4-2.1.2-3.4-.3-6.9-1.5-10.2z"/><g><path class="st14" d="M-62.6 466c3.9-7.3 9-14 15.2-19.6 0-.3 0-.6-.1-.9-3.3 2.1-6.7 4-9.9 6.2s-6.2 4.8-8.4 7.9c-1.6 2.3-2.8 4.8-3.7 7.5-.4 1.1-.7 2.3-.2 3.3.4.6 1 1 1.5 1.5.6.6 1.1 1.4 1.5 2.1.4-.1.9-.3 1.3-.4.1-.9.3-1.8.6-2.7.5-1.7 1.3-3.3 2.2-4.9z"/><path class="st16" d="M-62.6 466c-.8 1.6-1.6 3.2-2.2 4.9-.3.9-.5 1.8-.6 2.7 4-1.4 7.6-3.9 10.3-7.2 1.5-1.9 2.8-4 3.9-6.1.7-1.2 1.3-2.4 1.4-3.8-.2-.1-.4-.3-.5-.5.4 0 .7-.4.9-.8 1.3-2.7 1.9-5.8 1.8-8.8-6 5.6-11.2 12.3-15 19.6z"/></g><g><path class="st13" d="M-87.8 482.8c-.2.2-.4.4-.5.7-.1.3 0 .7.1 1 1.4 3.7 4.7 6.7 8.5 7.9 3.8 1.2 8.1.8 11.7-1 3.4-1.7 6.3-5 6.5-8.8-2.2-1.5-3.2-4.1-4.2-6.6-1-2.4-2.2-5-4.6-6.3-.6-.3-1.3-.5-2.1-.7s-1.6-.2-2.4-.1c-3.2.3-5.8 2.9-7.6 5.7-1.7 2.8-3.1 5.9-5.4 8.2z"/><path class="st17" d="M-75.4 487.5c.2.7.3 1.5-.1 2l-.3.3c-.6.4-1.3.6-2 .3-.6-.3-1.1-1-.9-1.7"/><path class="st17" d="M-75 487.5c-.2.7-.3 1.5.1 2l.3.3c.6.4 1.3.6 2 .3.6-.3 1.1-1 .9-1.7"/><g><path class="st16" d="M-64.9 486c-.1-.2-.4-.4-.6-.5-.3-.1-.6-.2-1-.2-.4.1-.8.4-1 .8-.1.2-.3.4-.3.6-.1.5.2.9.6 1.2.4.3 1 .3 1.4.2.5-.2.8-.6 1-1.1.1-.3.1-.7-.1-1zM-81.6 486.5c-.1-.2-.4-.4-.6-.5-.3-.1-.6-.2-1-.2-.4.1-.8.4-1 .8-.1.2-.3.4-.3.6-.1.5.2.9.6 1.2.4.3 1 .3 1.4.2s.8-.6 1-1.1c.1-.3.1-.7-.1-1z"/><g><path class="st18" d="M-68 482.2c-.4.1-.6.6-.4 1 .2.3.5.4.8.3.3-.1.4-.5.3-.8 0-.4-.4-.6-.7-.5zM-81.3 482.5c-.4.1-.6.6-.4 1 .2.3.5.4.8.3.3-.1.4-.5.3-.8 0-.4-.4-.6-.7-.5zM-75.2 487.7c.3 0 .7 0 1-.2.2-.1.3-.2.4-.4.2-.3.4-.6.5-1s0-.7-.3-1c-.4-.4-1-.5-1.5-.4-.3 0-.5.1-.8.1-.4.1-.8.2-.9.6-.1.2-.1.4-.1.6 0 .9.8 1.6 1.7 1.7z"/></g></g><g><path class="st17" d="M-72.6 487.4c.9-.5 1.9-.9 2.9-1M-72.5 488.1c1-.2 2-.3 2.9-.2M-72.5 489.1c.7.1 1.4.3 1.9.7"/><g><path class="st17" d="M-77.4 487.2c-.8-.2-1.6-.4-2.5-.4M-77.4 488c-.8-.1-1.7 0-2.5.3M-77.6 488.9c-.7.3-1.3.7-1.8 1.2"/></g></g></g></g></g><g><path class="st19" d="M200.6 482.6c-.6-.9-.8-2-.6-3.1.7 1 1.7 1.9 2.8 2.3.1-1.4.3-2.7.7-4 1.2 1.5 2.8 2.8 4.7 3.5 0-1.4.4-2.8 1.1-4 .8.8 1.7 1.4 2.8 1.8-.3-1-.3-2 0-3 .9 1.1 2 2.1 3.2 2.8-.1-1.3.2-2.6.7-3.7.7 1.1 1.3 2.3 1.8 3.5.8-1.4 1.4-2.9 1.9-4.4.6 3.2.6 6.5.6 9.7 0 5.9.2 12.3 3.7 17 1.1 1.5 2.6 2.8 4.4 3.3.4.8.9 1.5 1.3 2.2-6.1 2.4-13 2.9-19.4 1.4-4.5-1-9-3.2-11.9-6.9-3.6-4.6-4.1-10.9-3.4-16.6.2-2.1.6-4.2.8-6.3 1.2 1.9 2.8 3.4 4.8 4.5z"/><path class="st20" d="M193.4 462.8c2.2-1.5 4.9-2.1 7.5-2.3 5.9-.3 12.2 1.7 15.7 6.5 1.6 2.2 2.5 4.7 3 7.3-.5 1.5-1.2 3-1.9 4.4-.5-1.2-1.1-2.4-1.8-3.5-.5 1.2-.8 2.5-.7 3.7-1.2-.7-2.3-1.6-3.2-2.8-.3 1-.3 2 0 3-1-.4-2-1.1-2.8-1.8-.7 1.2-1.1 2.6-1.1 4-1.8-.7-3.5-1.9-4.7-3.5-.4 1.3-.7 2.6-.7 4-1.1-.5-2.1-1.3-2.8-2.3-.2 1.1 0 2.2.6 3.1-1.9-1-3.6-2.6-4.8-4.4.1-1.5.1-3-.1-4.4-.2-1.4-.8-2.9-1.9-3.9-1.1-1-2.9-1.3-4-.4-.1-2.7 1.5-5.2 3.7-6.7z"/><g><path class="st21" d="M229.9 508.5c-1.3-1-2.3-2.5-2.6-4.1-.1-.7-.2-1.4.2-2s1.2-.8 1.9-.7c.7.1 1.4.4 2 .7-.9-3.8-.7-7.8.2-11.6s2.4-7.4 4.2-10.9l14.2-.3c.3 0 .7 0 1 .2.3.1.5.4.6.6 2 2.9 2.5 6.6 2.9 10.1.6 4.7 1 9.7-.6 14.1.6-.8 1.7-1.2 2.6-.8.9.4 1.5 1.4 1.3 2.4-.2 1.2-1.4 2-2.1 3.1h.4c-.4.6-.7 1.4-.7 2.1-1.2-.1-2.3-.2-3.5-.3-7.5-.6-15.1-.1-22.7.2 0-1-.3-1.9-.7-2.8.8.1 1.1 0 1.4 0z"/><path class="st22" d="M259.1 509.7c.5.1 1.1.4 1.1 1s-.8.9-1.5.9h-2.9c0-.8.3-1.5.7-2.1.9-.1 1.8-.1 2.6.2zM226.1 509.3c.9-.4 1.9-.6 2.8-.7.4.9.7 1.8.7 2.8-1.1 0-2.2.1-3.3.1-.5 0-1 0-1.3-.4-.4-.7.4-1.5 1.1-1.8z"/><path class="st23" d="M252.9 481.5c.2.6.3 1.2.3 1.8.2 2.8.2 5.6-.4 8.3-.1-.1-.2-.3-.4-.4-.1.9-.3 1.8-.5 2.7-.6 2.4-1.9 4.5-3.5 6.4-1.5 1.9-3.3 3.6-5.1 5.3-.1.1-.2.1-.3.2-.1 0-.2 0-.2-.1-1.3-.7-2.3-1.8-3.1-3-1.6-2.2-2.8-4.7-3.6-7.2-.1.7-.1 1.3.1 2-1.5-3.3-2.5-6.8-2.8-10.3 0-.5-.1-1 0-1.6.1-.5.3-1 .5-1.5.5-1.1 1-2.3 1.6-3.4.1-.2.2-.4.4-.5.2-.1.4-.2.6-.2 3.2-.5 6.5-.1 9.7-.3 1.2-.1 2.5-.3 3.7-.1 1.2.2 2.5.8 3 1.9z"/><g><path class="st22" d="M246.8 499.9c.1-2.6.2-5.1.3-7.7.7-.2 1.3-.6 1.8-1 0 6.8-.3 13.6-.9 20.4.5.1 1.1.2 1.4.6.4.4.4 1.1 0 1.4-.2.1-.5.1-.7.1-.7 0-1.4-.1-2.1-.1 0-3.9.1-7.9.3-11.8-.1-.6-.1-1.3-.1-1.9zM238.1 491.4c.5.4 1.1.7 1.7 1-.3 7.1-.4 14.1-.4 21.2-.6.1-1.2.2-1.8.1-.3 0-.7-.1-1-.3-.4-.3-.6-1-.3-1.5s.9-.7 1.4-.4c-.3-6.4-.5-13.4.4-20.1z"/></g><g><path class="st21" d="M243.3 480.2c-.6-3-2-5.7-3.9-8.1s-4.2-4.3-6.6-6.2c-1.4-1.1-2.9-2.1-4.5-2.9.5-.7 1-1.3 1.5-2 .2-.3.4-.5.5-.8.1-.4.2-.8.2-1.1.1-1.4.3-2.7.6-4 .1-.3.4-.5.7-.4 1.5.3 2.8 1.4 4 2.5.3.3.6.6 1 .7.4.1.8.1 1.2.1 4.7-.2 9.4-1.2 14-.2.2 0 .3.1.5 0 .1 0 .2-.1.2-.2.9-1.2 1.9-2.4 2.8-3.6.2-.2.5-.2.6.1 1.2 3.4 2.9 6.5 4.9 9.4.3.4.5.8.8 1.2-3.7 1.1-7.3 2.8-10.5 5-3.6 2.7-6.9 6.2-8 10.5z"/><path class="st20" d="M222.9 472.4c1.5-3.3 3.3-6.4 5.4-9.3 1.6.8 3.1 1.8 4.5 2.9 2.4 1.8 4.7 3.8 6.6 6.2 1.9 2.4 3.3 5.1 3.9 8.1 1.1-4.4 4.4-7.9 8.2-10.4 3.2-2.2 6.8-3.9 10.5-5 2.2 3.1 4.5 6.3 5 10.1l-2.1-.4c-.1 1.2.2 2.4.9 3.4-.8.1-1.7 0-2.5-.1l.6 2.2c-5.1-.7-10.4-.4-15.5.9-1.6.4-3.3.9-4.7 1.9-.1.1-.3.2-.5.2s-.5 0-.7-.1c-5.7-2.1-11.6-4.4-17.7-4.5.8-.7 1.8-1.2 2.9-1.5-1.1-.4-2.3-.5-3.4-.3-.1-1.1.5-2.2 1.3-2.8-1 0-2 .2-3 .6-.3-.7 0-1.5.3-2.1z"/><g><path class="st22" d="M232.2 456.3c-.6 1.2-.5 2.6-.4 4 .5-.1 1-.4 1.4-.7.3-.2.5-.5.8-.6.3-.2.6-.3 1-.3-.8-1-1.7-1.9-2.8-2.4zM257.1 459.1c-1-.3-1.9-.6-2.9-.9 0-.1 0-.2.1-.3.5-.6 1.1-1.2 1.6-1.9.3 1.1.7 2.1 1.2 3.1z"/></g><g><path class="st18" d="M243.4 484.4c-.6.1-1.3 0-1.8-.5-.4-.4-.5-1-.5-1.6 0-.3 0-.5.1-.8.2-.8 1.1-1.4 2-1.3h.2c.1 0 .1 0 .2.1.1 0 .3.1.4.1.8.3 1.2 1.1 1.3 1.9 0 .3.1.6 0 .9-.2.8-1.1 1.2-1.9 1.2z"/><path class="st21" d="M233.6 477.8c-.5.4-1.3.5-1.8.2-.6-.4-.8-1.2-.4-1.7.2-.3.6-.5 1-.5.3 0 .7 0 1 .2.3.2.4.5.5.8.1.2.1.3.1.5-.1.1-.2.3-.4.5zM256.2 476.2c.4-.1.9-.2 1.3.1.4.2.7.7.6 1.1-.1.4-.4.7-.7.9-.4.2-.8.4-1.2.2-.3-.1-.5-.4-.6-.7-.2-.4-.2-.9.1-1.2.2-.2.3-.3.5-.4z"/><g><path class="st18" d="M233.9 472.4c-.1.2-.4.4-.6.4-.3 0-.5-.2-.5-.5-.1-.4.3-.8.7-.8.3 0 .6.5.4.9zM256.7 473.3c-.1.2-.4.4-.6.4-.3 0-.5-.2-.5-.5-.1-.4.3-.8.7-.8s.6.6.4.9z"/></g></g></g></g></g><g><path class="st24" d="M-35.1 294.3h1.2v6.2h-1.2zM-46.5 293.3h1.2v7.2h-1.2z"/><ellipse class="st25" cx="-22.9" cy="251.8" rx="17" ry="1.2"/><ellipse class="st25" cx="-56.8" cy="251.8" rx="17" ry="1.2"/><path class="st24" d="M-40.5 252.4h1.2v3.1h-1.2z"/><path class="st26" d="M-46.4 259.2c0 2.6 2.1 4.6 4.6 4.6h3.2c2.6 0 4.6-2.1 4.6-4.6 0-2.6-2.1-4.6-4.6-4.6h-3.2c-2.5 0-4.6 2-4.6 4.6z"/><path class="st27" d="M-87.4 262.8c.6-2.4 3-2.9 5.4-2.3l25.8 4.9c3.6-5.3 9.6-8.9 16.5-8.9 11 0 19.9 8.9 19.9 19.9s-8.9 19.9-19.9 19.9c-8.3 0-15.4-5.1-18.3-12.2-3.5-8.7-13.9-13.8-19.6-15.3l-3.8-.9-2.6-.6c-2.5-.7-4-2.1-3.4-4.5z"/><path class="st25" d="M-39.9 272.4v-16h.2c11 0 19.9 6.5 19.9 14.5 0 1.5-.3 2.9-.9 4.2h-15.7c-3.3.1-3.5-1.2-3.5-2.7z"/><ellipse class="st25" cx="-84.2" cy="256.9" rx="1.2" ry="6.4"/><ellipse class="st25" cx="-84.2" cy="269.7" rx="1.2" ry="6.4"/><circle class="st28" cx="-84.2" cy="263.3" r="1.8"/><circle class="st29" cx="-39.9" cy="251.8" r="1.2"/><path class="st25" d="M-65 299.9h45.6c1.6-.2 2.8-1.5 2.8-3.1 0-.5.4-.9.9-.9s.9.4.9.9c0 2.8-2.3 5.1-5.1 5.1l-45.3-.2c-.5 0-.8-.4-.8-.8s.5-1 1-1z"/><g id="XMLID_2_"><path id="XMLID_23_" class="st9" d="M-42.3 279.8c-.9.1-1.2 1.2-1.2 2v.3c0 .4 0 .7-.1 1 0 .1-.1.4-.1.4-.3 0-.6-.5-.7-.7-.2-.6-.4-1.2-.5-1.8-.1-.7-.2-1.4-.2-2.1v-.8-.3-.2c.1-.5-.6 0-.8.2-.8 1.3-.5 2.9-.5 4.4 0 .4 0 .8-.1 1.2 0 .3-.1.7-.3 1-.1.1-.4 0-.5 0-.2-.1-.3-.3-.3-.5s-.3-.1-.4 0c-.2.2-.3.5-.3.7.1.5.6 1 1.1.8.9-.3 1.2-1.3 1.4-2.1.1-.4.1-.8.2-1.2.1.6.3 1.1.6 1.6.2.4.5.8 1 .7.4-.1.6-.4.8-.9.2.4.4.7.9.6.5 0 .9-.6 1-.9.2-.5.3-1 .3-1.5-.1-.6-.3-2-1.3-1.9zm.3 3.3c0 .1 0 .2-.1.3-.2 0-.3-.3-.4-.4-.1-.3-.2-.7-.3-1v-1.1c0-.1 0-.2.1-.3.5.3.6.9.6 1.4.1.4.1.7.1 1.1z"/><path id="XMLID_20_" class="st9" d="M-30.9 281.1c-1-.4-1.6 1-1.8 1.8-.2.7-.4 2 .5 2.4.4.2.9-.1 1.2-.4.3-.3.5-.8.6-1.3.3-.8.5-2.1-.5-2.5zm-.6 3.4c0 .1-.1.2-.1.2-.1-.1-.2-.4-.2-.6-.1-.4 0-.7 0-1.1.1-.3.2-.7.3-1 0-.1.1-.1.1-.2.4.4.3 1.1.2 1.6 0 .4-.1.7-.3 1.1z"/><path id="XMLID_15_" class="st9" d="M-33.7 281.3c.2-.3.4-.5.6-.8.4-.6.7-1.3.7-1.9 0-.7-.9-.7-1.4-.5-.7.3-1 1-1.2 1.7-.3.9-.4 1.8-.4 2.7-.3.4-1 1.2-1.5.9-.1-.1-.2-.3-.3-.4.4-.4.8-.9 1.1-1.4.3-.5.5-1.3-.1-1.6-.5-.3-1.1 0-1.5.4-.3.4-.5.9-.5 1.5 0 .3-.1.7 0 1.2-.3.2-.7.3-1 .2-.4-.1-.5-.5-.6-.8-.1-.5-.1-1 0-1.5 0-.1.1-.3.1-.4v-.1c.2.1.3.5.4.7.1.3 1-.2.9-.5-.1-.3-.2-.7-.6-.9-.4-.2-.9.1-1.1.3-.6.6-.7 1.6-.6 2.4 0 .5.1 1.2.6 1.5.6.4 1.5 0 2.1-.3.1.4.4.7.9.6.6-.1 1.2-.4 1.6-.9 0 .5.1 1 .5 1.2.5.3 1.2 0 1.6-.5.5-.6.7-1.4.5-2.2-.2-.4-.5-.6-.8-.6zm-3.4-.4c0-.1.1-.3.2-.4.3.1.3.4.3.6 0 .4-.3.8-.6 1.1v-.2c-.1-.3-.1-.7.1-1.1zm3.3-1.9c.1-.1.1-.3.3-.4.4.4 0 1.1-.2 1.5-.2.4-.5.8-.7 1.2.1-.4.1-.8.2-1.2.1-.4.2-.7.4-1.1zm-.2 4.7s-.1.1-.1.2h-.1c-.3-.1-.3-.7-.3-.9v-.6c.1-.1.2-.2.3-.4.2-.1.4.1.4.4.1.4 0 1-.2 1.3z"/></g></g></svg>