<svg xmlns="http://www.w3.org/2000/svg" xmlns:xlink="http://www.w3.org/1999/xlink" viewBox="170 715.1 380 380"><path fill="#FFF" d="M170 715h380v380H170z"/><path fill="#FFF" d="M170 932h380v95H170z"/><path fill="#E0EAE2" d="M170 983h380v14H170z"/><path fill="#A8D6E2" d="M170 715h380v235H170z"/><path fill="#E0EAE2" d="M550 954H170v-45.1l77.9-44.6 68.9 26.9 18.1-26.9 71.2 28 49.9-28 44.1 20.5 49.9-20.5"/><path fill="#FFD5BB" d="M237 868h6v22h-6z"/><path fill="#FF7543" d="M270 894.3l-18-27.5-18 27.5V973h36"/><path fill="#FFD5BB" d="M234 945h36v28h-36z"/><path d="M244.6 972.9v-17.2c0-2-1.6-3.6-3.6-3.6s-3.6 1.6-3.6 3.6v17.2h7.2z" fill="#DF3300"/><path fill="#FFD5BB" d="M234 939h36v3h-36z"/><path d="M247.9 940.2v-12.4c0-2-1.6-3.6-3.6-3.6s-3.6 1.6-3.6 3.6v12.4h7.2z" fill="#DF3300"/><path d="M249.3 941.6h-10v-13.9c0-2.8 2.3-5 5-5 2.8 0 5 2.3 5 5v13.9zm-7.2-2.9h4.3v-11c0-1.2-1-2.2-2.2-2.2-1.2 0-2.2 1-2.2 2.2v11z" fill="#FFD5BB"/><path d="M263.7 940.2v-12.4c0-2-1.6-3.6-3.6-3.6s-3.6 1.6-3.6 3.6v12.4h7.2z" fill="#DF3300"/><path d="M265.1 941.6h-10v-13.9c0-2.8 2.3-5 5-5 2.8 0 5 2.3 5 5v13.9zm-7.2-2.9h4.3v-11c0-1.2-1-2.2-2.2-2.2-1.2 0-2.2 1-2.2 2.2v11zM234 917h36v3h-36z" fill="#FFD5BB"/><path d="M247.9 917.8v-12.4c0-2-1.6-3.6-3.6-3.6s-3.6 1.6-3.6 3.6v12.4h7.2z" fill="#DF3300"/><path d="M249.3 919.2h-10v-13.9c0-2.8 2.3-5 5-5 2.8 0 5 2.3 5 5v13.9zm-7.2-2.9h4.3v-11c0-1.2-1-2.2-2.2-2.2-1.2 0-2.2 1-2.2 2.2v11z" fill="#FFD5BB"/><g><path d="M263.7 917.8v-12.4c0-2-1.6-3.6-3.6-3.6s-3.6 1.6-3.6 3.6v12.4h7.2z" fill="#DF3300"/><path d="M265.1 919.2h-10v-13.9c0-2.8 2.3-5 5-5 2.8 0 5 2.3 5 5v13.9zm-7.2-2.9h4.3v-11c0-1.2-1-2.2-2.2-2.2-1.2 0-2.2 1-2.2 2.2v11z" fill="#FFD5BB"/></g><g><path fill="#FFD5BB" d="M234 894h36v3h-36z"/><path d="M255.8 894.9v-12.4c0-2-1.6-3.6-3.6-3.6s-3.6 1.6-3.6 3.6v12.4h7.2z" fill="#DF3300"/><path d="M257.2 896.3h-10v-13.9c0-2.8 2.3-5 5-5 2.8 0 5 2.3 5 5v13.9zm-7.2-2.8h4.3v-11c0-1.2-1-2.2-2.2-2.2-1.2 0-2.2 1-2.2 2.2v11z" fill="#FFD5BB"/></g><path d="M267.1 972.9v-17.2c0-2-1.6-3.6-3.6-3.6s-3.6 1.6-3.6 3.6v17.2h7.2z" fill="#DF3300"/><path d="M256.5 972.9v-20.5c0-2.4-1.9-4.3-4.3-4.3s-4.3 1.9-4.3 4.3v20.5h8.6zM272.2 892l-18.5-28.3c-.3-.5-.9-.8-1.5-.7-.6 0-1.2.2-1.5.7L232.2 892c-.5.8-.3 1.8.5 2.3.8.5 1.8.3 2.3-.5l17.3-26.3 17.3 26.3c.5.8 1.5 1 2.3.5.6-.5.8-1.5.3-2.3z" fill="#454C53"/><g><path fill="#454C53" d="M322 891h5v22h-5z"/><path fill="#DF3300" d="M331 916.7l-18.5-27.5-18.5 27.5V973h37"/><path fill="#454C53" d="M294 945h37v28h-37z"/><path d="M304.5 972.9v-17.2c0-2-1.6-3.6-3.6-3.6s-3.6 1.6-3.6 3.6v17.2h7.2zM307 927.7c0-1.2-1.3-2.2-2.5-2.2s-2.5 1-2.5 2.2V938h5v-10.3zM323 927.7c0-1.2-1.3-2.2-2.5-2.2s-2.5 1-2.5 2.2V938h5v-10.3z" fill="#FFD5BB"/><path d="M326 927.7c0-2.8-2.7-5-5.5-5s-5.5 2.3-5.5 5V939h-5v-11.3c0-2.8-2.2-5-5-5s-5 2.3-5 5V939h-6v3h37v-3h-5v-11.3zm-8 0c0-1.2 1.3-2.2 2.5-2.2s2.5 1 2.5 2.2V938h-5v-10.3zm-16 0c0-1.2 1.3-2.2 2.5-2.2s2.5 1 2.5 2.2V938h-5v-10.3zM318 917v-12.1c0-2.8-2.7-5-5.5-5s-5.5 2.3-5.5 5V917h-13v3h37v-3h-13zm-8-12.1c0-1.2 1.3-2.2 2.5-2.2s2.5 1 2.5 2.2V916h-5v-11.1z" fill="#454C53"/><path d="M315 904.9c0-1.2-1.3-2.2-2.5-2.2s-2.5 1-2.5 2.2V916h5v-11.1zM327 972.9v-17.2c0-2-1.6-3.6-3.6-3.6s-3.6 1.6-3.6 3.6v17.2h7.2z" fill="#FFD5BB"/><path d="M316.3 972.9v-20.5c0-2.4-1.9-4.3-4.3-4.3s-4.3 1.9-4.3 4.3v20.5h8.6zM332.1 914.4l-18.5-28.3c-.3-.5-.9-.8-1.5-.7-.6 0-1.2.2-1.5.7L292 914.4c-.5.8-.3 1.8.5 2.3.8.5 1.8.3 2.3-.5l17.3-26.3 17.3 26.3c.5.8 1.5 1 2.3.5.7-.5.9-1.5.4-2.3z" fill="#FF7543"/></g><g><path d="M283 971.1c0 1.1-1.1 1.9-2.2 1.9h-.2c-1 0-1.6-.9-1.6-1.9v-16.2c0-1.1.6-1.9 1.6-1.9h.2c1 0 2.2.9 2.2 1.9v16.2z" fill="#785105"/><path fill="#92CCDB" d="M292.6 963h-22.4l11.2-51.4"/><path fill="#FFF" d="M288.8 945.2l-7.4-33.3-7.9 33.3"/></g><g><path fill="#6DAAC5" d="M340 882h7v28h-7z"/><path fill="#92CCDB" d="M380 910.9L358 876l-22 34.9V973h44"/><path fill="#FFF" d="M336 937h44v4h-44zM335 954h46v19h-46z"/><path d="M348.4 972.9V951c0-2.5-2-4.6-4.6-4.6-2.5 0-4.6 2.1-4.6 4.6v21.9h9.2zM377 972.9V951c0-2.5-2-4.6-4.6-4.6-2.5 0-4.6 2.1-4.6 4.6v21.9h9.2z" fill="#FF7543"/><path fill="#FFF" d="M336 905h44v3h-44z"/><path d="M363.4 972.9v-23.2c0-3-2.4-5.5-5.4-5.5-3 0-5.4 2.4-5.4 5.5v23.2h10.8z" fill="#454C53"/><path d="M383.5 908l-23.6-36c-.4-.7-1.2-1-1.9-.9-.7-.1-1.5.3-1.9.9l-23.6 36c-.6 1-.4 2.3.6 2.9 1 .6 2.3.4 2.9-.6l22-33.5 22 33.5c.6 1 2 1.3 2.9.6 1-.6 1.2-1.9.6-2.9z" fill="#DF3300"/><path fill="#FFF" d="M336 928h44v3h-44z"/><path d="M347.4 929.7v-12.4c0-2-1.6-3.6-3.6-3.6s-3.6 1.6-3.6 3.6v12.4h7.2z" fill="#DF3300"/><path d="M348.8 931.1h-10v-13.9c0-2.8 2.3-5 5-5s5 2.3 5 5v13.9zm-7.2-2.8h4.3v-11c0-1.2-1-2.2-2.2-2.2s-2.2 1-2.2 2.2v11z" fill="#FFF"/><path d="M376.4 929.7v-12.4c0-2-1.6-3.6-3.6-3.6s-3.6 1.6-3.6 3.6v12.4h7.2z" fill="#DF3300"/><path d="M377.8 931.1h-10v-13.9c0-2.8 2.3-5 5-5 2.8 0 5 2.3 5 5v13.9zm-7.2-2.8h4.3v-11c0-1.2-1-2.2-2.2-2.2-1.2 0-2.2 1-2.2 2.2v11z" fill="#FFF"/><g><path d="M361.6 929.7v-12.4c0-2-1.6-3.6-3.6-3.6s-3.6 1.6-3.6 3.6v12.4h7.2z" fill="#DF3300"/><path d="M363 931.1h-10v-13.9c0-2.8 2.3-5 5-5 2.8 0 5 2.3 5 5v13.9zm-7.2-2.8h4.3v-11c0-1.2-1-2.2-2.2-2.2-1.2 0-2.2 1-2.2 2.2v11z" fill="#FFF"/></g><g><path d="M361.6 905.2v-12.4c0-2-1.6-3.6-3.6-3.6s-3.6 1.6-3.6 3.6v12.4h7.2z" fill="#DF3300"/><path d="M363 906.6h-10v-13.9c0-2.8 2.3-5 5-5 2.8 0 5 2.3 5 5v13.9zm-7.2-2.9h4.3v-11c0-1.2-1-2.2-2.2-2.2-1.2 0-2.2 1-2.2 2.2v11z" fill="#FFF"/></g></g><g><path fill="#DF3300" d="M428 902h7v22h-7z"/><path fill="#454C53" d="M393 925.2l23.5-25.4 23.5 25.4V973h-47"/><path fill="#FFD5BB" d="M393 954h47v19h-47z"/><path d="M435.5 972.9V963c0-2.5-2-4.6-4.6-4.6-2.5 0-4.6 2.1-4.6 4.6v9.9h9.2zM406.8 972.9V963c0-2.5-2-4.6-4.6-4.6-2.5 0-4.6 2.1-4.6 4.6v9.9h9.2z" fill="#454C53"/><path fill="#FFD5BB" d="M393 924h47v3h-47z"/><path d="M422.2 972.9v-11.2c0-3-2.4-5.5-5.4-5.5-3 0-5.4 2.4-5.4 5.5v11.2h10.8z" fill="#454C53"/><path d="M391.2 922.3l23.6-26.5c.4-.7 1.2-1 1.9-.9.7-.1 1.5.3 1.9.9l23.6 26.5c.6 1 .4 2.3-.6 2.9-1 .6-2.3.4-2.9-.6l-22-24-22 24c-.6 1-2 1.3-2.9.6-1-.6-1.2-1.9-.6-2.9z" fill="#FF7543"/><path fill="#FFD5BB" d="M393 947h47v4h-47z"/><path d="M427.3 948.7v-12.4c0-2 1.6-3.6 3.6-3.6s3.6 1.6 3.6 3.6v12.4h-7.2z" fill="#DF3300"/><path d="M435.9 950.2h-10v-13.9c0-2.8 2.3-5 5-5s5 2.3 5 5v13.9zm-7.2-2.9h4.3v-11c0-1.2-1-2.2-2.2-2.2s-2.2 1-2.2 2.2v11z" fill="#FFD5BB"/><path d="M398.3 948.7v-12.4c0-2 1.6-3.6 3.6-3.6s3.6 1.6 3.6 3.6v12.4h-7.2z" fill="#DF3300"/><path d="M406.9 950.2h-10v-13.9c0-2.8 2.3-5 5-5 2.8 0 5 2.3 5 5v13.9zm-7.1-2.9h4.3v-11c0-1.2-1-2.2-2.2-2.2-1.2 0-2.2 1-2.2 2.2v11z" fill="#FFD5BB"/><g><path d="M413.1 948.7v-12.4c0-2 1.6-3.6 3.6-3.6s3.6 1.6 3.6 3.6v12.4h-7.2z" fill="#DF3300"/><path d="M421.7 950.2h-10v-13.9c0-2.8 2.3-5 5-5 2.8 0 5 2.3 5 5v13.9zm-7.1-2.9h4.3v-11c0-1.2-1-2.2-2.2-2.2-1.2 0-2.2 1-2.2 2.2v11z" fill="#FFD5BB"/></g><g><path d="M413.1 924.2v-12.4c0-2 1.6-3.6 3.6-3.6s3.6 1.6 3.6 3.6v12.4h-7.2z" fill="#DF3300"/><path d="M421.7 925.6h-10v-13.9c0-2.8 2.3-5 5-5 2.8 0 5 2.3 5 5v13.9zm-7.1-2.8h4.3v-11c0-1.2-1-2.2-2.2-2.2-1.2 0-2.2 1-2.2 2.2v11z" fill="#FFD5BB"/></g></g><g><path d="M392 971.5c0 .8-.2 1.5-1.1 1.5-.8 0-1.9-.7-1.9-1.5v-14c0-.8 1.1-1.5 1.9-1.5.8 0 1.1.7 1.1 1.5v14z" fill="#785105"/><path fill="#6DAAC5" d="M400.9 965h-19.1l9.6-31.6"/><path fill="#FFF" d="M396.5 949.3l-5.1-16.2-5.1 16.2"/></g><g><path d="M222 971.1c0 1.1-1 1.9-2 1.9h-.2c-1 0-1.8-.9-1.8-1.9v-16.2c0-1.1.7-1.9 1.8-1.9h.2c1 0 2 .9 2 1.9v16.2z" fill="#785105"/><path fill="#6DAAC5" d="M231.3 963h-22.4l11.2-37.1"/><path fill="#FFF" d="M226.1 945.2l-6-19-6 19"/><path d="M211 971.1c0 1.1-1 1.9-2 1.9h-.2c-1 0-1.8-.9-1.8-1.9v-16.2c0-1.1.8-1.9 1.8-1.9h.2c1 0 2 .9 2 1.9v16.2z" fill="#785105"/><path fill="#92CCDB" d="M216.1 967h-14.8l7.4-24.6"/><path fill="#FFF" d="M212.7 955.1l-4-12.6-3.9 12.6"/><g><path d="M502 954.9c0-1.1-.7-1.9-1.8-1.9h-.2c-1 0-2 .9-2 1.9v16.2c0 1.1 1 1.9 2 1.9h.2c1 0 1.8-.9 1.8-1.9v-16.2z" fill="#785105"/><path fill="#6DAAC5" d="M489.2 963h22.4l-11.2-37.1"/><path fill="#FFF" d="M494.4 945.2l6-19 6 19"/></g><g><path d="M514 954.9c0-1.1-.8-1.9-1.8-1.9h-.2c-1 0-2 .9-2 1.9v16.2c0 1.1 1 1.9 2 1.9h.2c1 0 1.8-.9 1.8-1.9v-16.2z" fill="#785105"/><path fill="#92CCDB" d="M504.4 967h14.8l-7.4-24.6"/><path fill="#FFF" d="M507.9 955.1l3.9-12.6 4 12.6"/></g></g><g><path d="M444 971.1c0 1.1-.6 1.9-1.6 1.9h-.2c-1 0-2.2-.9-2.2-1.9v-16.2c0-1.1 1.1-1.9 2.2-1.9h.2c1 0 1.6.9 1.6 1.9v16.2z" fill="#785105"/><path fill="#92CCDB" d="M449.9 967h-14.8l7.4-24.6"/><path fill="#FFF" d="M446.4 955.1l-3.9-12.6-4 12.6"/></g><g><path fill="#785105" d="M487 894.3l-18-27.5-18 27.5V973h36"/><defs><path id="a" d="M451 945h36v28h-36z"/></defs><use xlink:href="#a" overflow="visible" fill="#E0EAE2"/><clipPath id="b"><use xlink:href="#a" overflow="visible"/></clipPath><g clip-path="url(#b)"><path d="M474.8 979.9v-26.2c0-3-2.4-5.5-5.5-5.5s-5.5 2.5-5.5 5.5v26.2h11z" fill="#FF7543"/><path d="M476.2 981.3h-13.8v-27.6c0-3.8 3.1-6.9 6.9-6.9s6.9 3.1 6.9 6.9v27.6zm-10.9-2.9h8.1v-24.7c0-2.2-1.8-4-4-4s-4 1.8-4 4v24.7z" fill="#E0EAE2"/></g><path fill="#E0EAE2" d="M451 894h36v3h-36z"/><path d="M472.9 919.3v-12.4c0-2-1.6-3.6-3.6-3.6s-3.6 1.6-3.6 3.6v12.4h7.2z" fill="#FF7543"/><path d="M474.3 920.8h-10v-13.9c0-2.8 2.3-5 5-5s5 2.3 5 5v13.9zm-7.2-2.9h4.3v-11c0-1.2-1-2.2-2.2-2.2s-2.2 1-2.2 2.2v11z" fill="#E0EAE2"/><path d="M472.9 944.2v-12.9c0-2-1.6-3.6-3.6-3.6s-3.6 1.6-3.6 3.6v12.9h7.2z" fill="#FF7543"/><path d="M474.3 945.7h-10v-14.3c0-2.8 2.3-5 5-5s5 2.3 5 5v14.3zm-7.2-2.9h4.3v-11.5c0-1.2-1-2.2-2.2-2.2s-2.2 1-2.2 2.2v11.5z" fill="#E0EAE2"/><path d="M483.8 972.9v-14c0-1.6-1.3-2.9-2.9-2.9-1.6 0-2.9 1.3-2.9 2.9v14h5.8zM461 972.9v-14c0-1.6-1.3-2.9-2.9-2.9-1.6 0-2.9 1.3-2.9 2.9v14h5.8z" fill="#92CCDB"/><path d="M489.3 892l-18.5-28.3c-.3-.5-.9-.8-1.5-.7-.6 0-1.2.2-1.5.7L449.3 892c-.5.8-.3 1.8.5 2.3.8.5 1.8.3 2.3-.5l17.3-26.3 17.3 26.3c.5.8 1.5 1 2.3.5.6-.5.8-1.5.3-2.3z" fill="#FF7543"/><g><ellipse cx="469.3" cy="884.8" rx="4.8" ry="4.8" fill="#FF7543"/><path d="M469.3 890.9c-3.4 0-6.2-2.8-6.2-6.2s2.8-6.2 6.2-6.2 6.2 2.8 6.2 6.2-2.8 6.2-6.2 6.2zm0-9.5c-1.8 0-3.3 1.5-3.3 3.3s1.5 3.3 3.3 3.3 3.3-1.5 3.3-3.3-1.5-3.3-3.3-3.3z" fill="#E0EAE2"/></g></g><g><defs><path id="c" d="M170 1013h380v82H170z"/></defs><use xlink:href="#c" overflow="visible" fill="#92CCDB"/><clipPath id="d"><use xlink:href="#c" overflow="visible"/></clipPath><g opacity=".1" clip-path="url(#d)"><path fill="#FFD5BB" d="M237 1065h5v22h-5z"/><path fill="#FF7543" d="M270 1061.5l-18.5 27.5-18.5-27.5V983h37"/><path fill="#FFD5BB" d="M233 983h37v28h-37z"/><path d="M244.4 982.9v17.2c0 2-1.6 3.6-3.6 3.6s-3.6-1.6-3.6-3.6v-17.2h7.2z" fill="#DF3300"/><path fill="#FFD5BB" d="M233 1013h37v4h-37z"/><path d="M247.6 1015.6v12.4c0 2-1.6 3.6-3.6 3.6s-3.6-1.6-3.6-3.6v-12.4h7.2z" fill="#DF3300"/><path d="M244 1033.1c-2.8 0-5-2.3-5-5v-13.9h10v13.9c0 2.8-2.2 5-5 5zm-2.1-16v11c0 1.2 1 2.2 2.2 2.2 1.2 0 2.2-1 2.2-2.2v-11h-4.4z" fill="#FFD5BB"/><path d="M263.5 1015.6v12.4c0 2-1.6 3.6-3.6 3.6s-3.6-1.6-3.6-3.6v-12.4h7.2z" fill="#DF3300"/><path d="M259.9 1033.1c-2.8 0-5-2.3-5-5v-13.9h10v13.9c0 2.8-2.3 5-5 5zm-2.2-16v11c0 1.2 1 2.2 2.2 2.2 1.2 0 2.2-1 2.2-2.2v-11h-4.4zM233 1036h37v3h-37z" fill="#FFD5BB"/><path d="M247.6 1038v12.4c0 2-1.6 3.6-3.6 3.6s-3.6-1.6-3.6-3.6V1038h7.2z" fill="#DF3300"/><path d="M244 1055.5c-2.8 0-5-2.3-5-5v-13.9h10v13.9c0 2.7-2.2 5-5 5zm-2.1-16v11c0 1.2 1 2.2 2.2 2.2 1.2 0 2.2-1 2.2-2.2v-11h-4.4z" fill="#FFD5BB"/><g><path d="M263.5 1038v12.4c0 2-1.6 3.6-3.6 3.6s-3.6-1.6-3.6-3.6V1038h7.2z" fill="#DF3300"/><path d="M259.9 1055.5c-2.8 0-5-2.3-5-5v-13.9h10v13.9c0 2.7-2.3 5-5 5zm-2.2-16v11c0 1.2 1 2.2 2.2 2.2 1.2 0 2.2-1 2.2-2.2v-11h-4.4z" fill="#FFD5BB"/></g><g><path fill="#FFD5BB" d="M233 1058h37v3h-37z"/><path d="M255.5 1060.9v12.4c0 2-1.6 3.6-3.6 3.6s-3.6-1.6-3.6-3.6v-12.4h7.2z" fill="#DF3300"/><path d="M252 1078.4c-2.8 0-5-2.3-5-5v-13.9h10v13.9c0 2.7-2.3 5-5 5zm-2.2-16.1v11c0 1.2 1 2.2 2.2 2.2s2.2-1 2.2-2.2v-11h-4.4z" fill="#FFD5BB"/></g><path d="M266.9 982.9v17.2c0 2-1.6 3.6-3.6 3.6s-3.6-1.6-3.6-3.6v-17.2h7.2z" fill="#DF3300"/><path d="M256.2 982.9v20.5c0 2.4-1.9 4.3-4.3 4.3s-4.3-1.9-4.3-4.3v-20.5h8.6zM271.7 1063.8l-18.5 28.3c-.3.5-.9.8-1.5.7-.6 0-1.2-.2-1.5-.7l-18.5-28.3c-.5-.8-.3-1.8.5-2.3.8-.5 1.8-.3 2.3.5l17.3 26.3L269 1062c.5-.8 1.5-1 2.3-.5.7.5 1 1.5.4 2.3z" fill="#454C53"/><g><path fill="#454C53" d="M321 1044h6v21h-6z"/><path fill="#DF3300" d="M330 1039.1l-18 27.5-18-27.5V983h36"/><path fill="#454C53" d="M294 983h36v28h-36z"/><path d="M304.3 982.9v17.2c0 2-1.6 3.6-3.6 3.6s-3.6-1.6-3.6-3.6v-17.2h7.2zM306 1028.1c0 1.2-.8 2.2-2 2.2s-2-1-2-2.2V1017h4v11.1zM322 1028.1c0 1.2-.8 2.2-2 2.2s-2-1-2-2.2V1017h4v11.1z" fill="#FFD5BB"/><path d="M325 1017h5v-4h-36v4h5v11.1c0 2.8 2.2 5 5 5s5-2.3 5-5V1017h6v11.1c0 2.8 2.2 5 5 5s5-2.3 5-5V1017zm-7 0h4v11.1c0 1.2-.8 2.2-2 2.2s-2-1-2-2.2V1017zm-16 0h4v11.1c0 1.2-.8 2.2-2 2.2s-2-1-2-2.2V1017zM330 1040v-3h-36v3h13v10.9c0 2.8 2.2 5 5 5s5-2.3 5-5V1040h13zm-20 0h4v10.9c0 1.2-.8 2.2-2 2.2s-2-1-2-2.2V1040z" fill="#454C53"/><path d="M314 1050.9c0 1.2-.8 2.2-2 2.2s-2-1-2-2.2V1040h4v10.9zM326.8 982.9v17.2c0 2-1.6 3.6-3.6 3.6s-3.6-1.6-3.6-3.6v-17.2h7.2z" fill="#FFD5BB"/><path d="M316.1 982.9v20.5c0 2.4-1.9 4.3-4.3 4.3s-4.3-1.9-4.3-4.3v-20.5h8.6zM331.6 1041.4l-18.5 28.3c-.3.5-.9.8-1.5.7-.6 0-1.2-.2-1.5-.7l-18.5-28.3c-.5-.8-.3-1.8.5-2.3.8-.5 1.8-.3 2.3.5l17.3 26.3 17.3-26.3c.5-.8 1.5-1 2.3-.5.6.5.8 1.5.3 2.3z" fill="#FF7543"/></g><g><path d="M283 984.9c0-1.1-1.1-1.9-2.2-1.9h-.2c-1 0-1.6.9-1.6 1.9v16.2c0 1.1.6 1.9 1.6 1.9h.2c1 0 2.2-.9 2.2-1.9v-16.2z" fill="#785105"/><path fill="#92CCDB" d="M292.1 992h-22.4l11.2 51.4"/><path fill="#FFF" d="M288.6 1010.6l-7.4 33.3-7.9-33.3"/></g><g><path fill="#6DAAC5" d="M339 1047h8v26h-8z"/><path fill="#92CCDB" d="M380 1044.9l-22.5 35-22.5-35V983h45"/><path fill="#FFF" d="M335 1015h45v3h-45zM335 983h45v18h-45z"/><path d="M348.1 982.9v21.9c0 2.5-2 4.6-4.6 4.6-2.5 0-4.6-2.1-4.6-4.6v-21.9h9.2zM376.8 982.9v21.9c0 2.5-2 4.6-4.6 4.6-2.5 0-4.6-2.1-4.6-4.6v-21.9h9.2z" fill="#FF7543"/><path fill="#FFF" d="M335 1048h45v2h-45z"/><path d="M363.2 982.9v23.2c0 3-2.4 5.5-5.4 5.5-3 0-5.4-2.4-5.4-5.5v-23.2h10.8z" fill="#454C53"/><path d="M383 1047.8l-23.6 36c-.4.7-1.2 1-1.9.9-.7.1-1.5-.3-1.9-.9l-23.6-36c-.6-1-.4-2.3.6-2.9 1-.6 2.3-.4 2.9.6l22 33.5 22-33.5c.6-1 2-1.3 2.9-.6 1 .6 1.3 1.9.6 2.9z" fill="#DF3300"/><path fill="#FFF" d="M335 1024h45v3h-45z"/><path d="M347.2 1026.1v12.4c0 2-1.6 3.6-3.6 3.6s-3.6-1.6-3.6-3.6v-12.4h7.2z" fill="#DF3300"/><path d="M343.6 1043.6c-2.8 0-5-2.3-5-5v-13.9h10v13.9c0 2.7-2.3 5-5 5zm-2.2-16v11c0 1.2 1 2.2 2.2 2.2 1.2 0 2.2-1 2.2-2.2v-11h-4.4z" fill="#FFF"/><path d="M376.1 1026.1v12.4c0 2-1.6 3.6-3.6 3.6s-3.6-1.6-3.6-3.6v-12.4h7.2z" fill="#DF3300"/><path d="M372.5 1043.6c-2.8 0-5-2.3-5-5v-13.9h10v13.9c.1 2.7-2.2 5-5 5zm-2.1-16v11c0 1.2 1 2.2 2.2 2.2s2.2-1 2.2-2.2v-11h-4.4z" fill="#FFF"/><g><path d="M361.3 1026.1v12.4c0 2-1.6 3.6-3.6 3.6s-3.6-1.6-3.6-3.6v-12.4h7.2z" fill="#DF3300"/><path d="M357.7 1043.6c-2.8 0-5-2.3-5-5v-13.9h10v13.9c.1 2.7-2.2 5-5 5zm-2.1-16v11c0 1.2 1 2.2 2.2 2.2s2.2-1 2.2-2.2v-11h-4.4z" fill="#FFF"/></g><g><path d="M361.3 1050.6v12.4c0 2-1.6 3.6-3.6 3.6s-3.6-1.6-3.6-3.6v-12.4h7.2z" fill="#DF3300"/><path d="M357.7 1068.1c-2.8 0-5-2.3-5-5v-13.9h10v13.9c.1 2.8-2.2 5-5 5zm-2.1-16v11c0 1.2 1 2.2 2.2 2.2s2.2-1 2.2-2.2v-11h-4.4z" fill="#FFF"/></g></g><g><path fill="#DF3300" d="M428 1032h7v21h-7z"/><path fill="#454C53" d="M393 1030.6l23 25.4 23-25.4V983h-46"/><path fill="#FFD5BB" d="M393 983h46v18h-46z"/><path d="M435.2 982.9v9.9c0 2.5-2 4.6-4.6 4.6-2.5 0-4.6-2.1-4.6-4.6v-9.9h9.2zM406.6 982.9v9.9c0 2.5-2 4.6-4.6 4.6-2.5 0-4.6-2.1-4.6-4.6v-9.9h9.2z" fill="#454C53"/><path fill="#FFD5BB" d="M393 1029h46v3h-46z"/><path d="M421.9 982.9v11.2c0 3-2.4 5.5-5.4 5.5-3 0-5.4-2.4-5.4-5.5v-11.2h10.8z" fill="#454C53"/><path d="M390.7 1033.5l23.6 26.5c.4.7 1.2 1 1.9.9.7.1 1.5-.3 1.9-.9l23.6-26.5c.6-1 .4-2.3-.6-2.9-1-.6-2.3-.4-2.9.6l-22 24-22-24c-.6-1-2-1.3-2.9-.6-.9.6-1.2 1.9-.6 2.9z" fill="#FF7543"/><path fill="#FFD5BB" d="M393 1005h46v3h-46z"/><path d="M427.1 1007.1v12.4c0 2 1.6 3.6 3.6 3.6s3.6-1.6 3.6-3.6v-12.4h-7.2z" fill="#DF3300"/><path d="M430.7 1024.5c-2.8 0-5-2.3-5-5v-13.9h10v13.9c0 2.8-2.3 5-5 5zm-2.2-16v11c0 1.2 1 2.2 2.2 2.2s2.2-1 2.2-2.2v-11h-4.4z" fill="#FFD5BB"/><path d="M398.1 1007.1v12.4c0 2 1.6 3.6 3.6 3.6s3.6-1.6 3.6-3.6v-12.4h-7.2z" fill="#DF3300"/><path d="M401.7 1024.5c-2.8 0-5-2.3-5-5v-13.9h10v13.9c0 2.8-2.3 5-5 5zm-2.2-16v11c0 1.2 1 2.2 2.2 2.2 1.2 0 2.2-1 2.2-2.2v-11h-4.4z" fill="#FFD5BB"/><g><path d="M412.9 1007.1v12.4c0 2 1.6 3.6 3.6 3.6s3.6-1.6 3.6-3.6v-12.4h-7.2z" fill="#DF3300"/><path d="M416.5 1024.5c-2.8 0-5-2.3-5-5v-13.9h10v13.9c0 2.8-2.2 5-5 5zm-2.2-16v11c0 1.2 1 2.2 2.2 2.2 1.2 0 2.2-1 2.2-2.2v-11h-4.4z" fill="#FFD5BB"/></g><g><path d="M412.9 1031.6v12.4c0 2 1.6 3.6 3.6 3.6s3.6-1.6 3.6-3.6v-12.4h-7.2z" fill="#DF3300"/><path d="M416.5 1049.1c-2.8 0-5-2.3-5-5v-13.9h10v13.9c0 2.7-2.2 5-5 5zm-2.2-16.1v11c0 1.2 1 2.2 2.2 2.2 1.2 0 2.2-1 2.2-2.2v-11h-4.4z" fill="#FFD5BB"/></g></g><g><path d="M391 984.5c0-.8-.2-1.5-1.1-1.5-.8 0-1.9.7-1.9 1.5v14c0 .8 1.1 1.5 1.9 1.5.8 0 1.1-.7 1.1-1.5v-14z" fill="#785105"/><path fill="#6DAAC5" d="M400.5 991h-19.1l9.5 31.6"/><path fill="#FFF" d="M396.3 1006.5l-5.1 16.2-5.2-16.2"/></g><g><path d="M222 984.9c0-1.1-1-1.9-2-1.9h-.2c-1 0-1.8.9-1.8 1.9v16.2c0 1.1.7 1.9 1.8 1.9h.2c1 0 2-.9 2-1.9v-16.2z" fill="#785105"/><path fill="#6DAAC5" d="M230.9 992h-22.5l11.2 37.1"/><path fill="#FFF" d="M225.9 1010.6l-6 19-6-19"/><path d="M210 984.9c0-1.1-1-1.9-2-1.9h-.2c-1 0-1.8.9-1.8 1.9v16.2c0 1.1.8 1.9 1.8 1.9h.2c1 0 2-.9 2-1.9v-16.2z" fill="#785105"/><path fill="#92CCDB" d="M215.7 989h-14.9l7.4 24.6"/><path fill="#FFF" d="M212.4 1000.7l-3.9 12.6-4-12.6"/><g><path d="M502 1001.1c0 1.1-.7 1.9-1.8 1.9h-.2c-1 0-2-.9-2-1.9v-16.2c0-1.1 1-1.9 2-1.9h.2c1 0 1.8.9 1.8 1.9v16.2z" fill="#785105"/><path fill="#6DAAC5" d="M488.7 992h22.5l-11.3 37.1"/><path fill="#FFF" d="M494.2 1010.6l6 19 6-19"/></g><g><path d="M513 1001.1c0 1.1-.8 1.9-1.8 1.9h-.2c-1 0-2-.9-2-1.9v-16.2c0-1.1 1-1.9 2-1.9h.2c1 0 1.8.9 1.8 1.9v16.2z" fill="#785105"/><path fill="#92CCDB" d="M503.9 989h14.9l-7.5 24.6"/><path fill="#FFF" d="M507.6 1000.7l4 12.6 4-12.6"/></g></g><g><path d="M444 984.9c0-1.1-.6-1.9-1.6-1.9h-.2c-1 0-2.2.9-2.2 1.9v16.2c0 1.1 1.1 1.9 2.2 1.9h.2c1 0 1.6-.9 1.6-1.9v-16.2z" fill="#785105"/><path fill="#92CCDB" d="M449.4 989h-14.8l7.4 24.6"/><path fill="#FFF" d="M446.2 1000.7l-4 12.6-3.9-12.6"/></g><g><path fill="#785105" d="M486 1061.5l-17.5 27.5-17.5-27.5V983h35"/><defs><path id="e" d="M451 983h35v28h-35z"/></defs><use xlink:href="#e" overflow="visible" fill="#E0EAE2"/><clipPath id="f"><use xlink:href="#e" overflow="visible"/></clipPath><g clip-path="url(#f)"><path d="M474.5 975.9v26.2c0 3-2.4 5.5-5.5 5.5s-5.5-2.5-5.5-5.5v-26.2h11z" fill="#FF7543"/><path d="M469.1 1009c-3.8 0-6.9-3.1-6.9-6.9v-27.6H476v27.6c0 3.8-3.1 6.9-6.9 6.9zm-4.1-31.6v24.7c0 2.2 1.8 4 4 4s4-1.8 4-4v-24.7h-8z" fill="#E0EAE2"/></g><path fill="#E0EAE2" d="M451 1058h35v3h-35z"/><path d="M472.7 1036.5v12.4c0 2-1.6 3.6-3.6 3.6s-3.6-1.6-3.6-3.6v-12.4h7.2z" fill="#FF7543"/><path d="M469.1 1053.9c-2.8 0-5-2.3-5-5V1035h10v13.9c0 2.8-2.3 5-5 5zm-2.2-16v11c0 1.2 1 2.2 2.2 2.2 1.2 0 2.2-1 2.2-2.2v-11h-4.4z" fill="#E0EAE2"/><path d="M472.7 1012v12.4c0 2-1.6 3.6-3.6 3.6s-3.6-1.6-3.6-3.6V1012h7.2z" fill="#FF7543"/><path d="M469.1 1029.5c-2.8 0-5-2.3-5-5v-13.9h10v13.9c0 2.7-2.3 5-5 5zm-2.2-16v11c0 1.2 1 2.2 2.2 2.2 1.2 0 2.2-1 2.2-2.2v-11h-4.4z" fill="#E0EAE2"/><path d="M483.6 982.9v14c0 1.6-1.3 2.9-2.9 2.9-1.6 0-2.9-1.3-2.9-2.9v-14h5.8zM460.8 982.9v14c0 1.6-1.3 2.9-2.9 2.9-1.6 0-2.9-1.3-2.9-2.9v-14h5.8z" fill="#92CCDB"/><path d="M488.9 1063.8l-18.5 28.3c-.3.5-.9.8-1.5.7-.6 0-1.2-.2-1.5-.7l-18.5-28.3c-.5-.8-.3-1.8.5-2.3.8-.5 1.8-.3 2.3.5l17.3 26.3 17.3-26.3c.5-.8 1.5-1 2.3-.5.6.5.8 1.5.3 2.3z" fill="#FF7543"/><g><ellipse cx="468.8" cy="1071" rx="4.8" ry="4.8" fill="#FF7543"/><path d="M468.8 1077.2c-3.4 0-6.2-2.8-6.2-6.2 0-3.4 2.8-6.2 6.2-6.2 3.4 0 6.2 2.8 6.2 6.2 0 3.5-2.8 6.2-6.2 6.2zm0-9.5c-1.8 0-3.3 1.5-3.3 3.3s1.5 3.3 3.3 3.3c1.8 0 3.3-1.5 3.3-3.3s-1.4-3.3-3.3-3.3z" fill="#E0EAE2"/></g></g></g><path fill="#528094" d="M170 1012h380v3H170z"/><path opacity=".7" fill="#FFF" d="M465.7 1058.6l-68.9 36.7h60.5l56.7-44.1-211.9-1.6 56.9-27.2-147.9 9.6 72 4.5-44.2 37.3"/></g><g fill="#FFF"><path d="M234 743c-3 0-3 4.5 0 4.5s3-4.5 0-4.5zM217.1 779.9c-.4-.7-.9-1.2-1.6-1.6-.1-.1-.2-.1-.4-.2-.7-.4-1.5-.6-2.4-.6-.9 0-1.7.2-2.4.6-1.4.8-2.4 2.4-2.4 4.1 0 1.7.9 3.3 2.4 4.1.7.4 1.5.6 2.4.6.9 0 1.7-.2 2.4-.6.1-.1.2-.1.4-.2.7-.4 1.2-.9 1.6-1.6.4-.7.6-1.5.6-2.3 0-.8-.2-1.6-.6-2.3zM246 766.4c-3 0-3 3.8 0 3.8 2 0 2-3.8 0-3.8zM218 817.6c-2 0-2 3.1 0 3.1s2-3.1 0-3.1zM196 793.2c-2 0-2 2.9 0 2.9s2-2.9 0-2.9zM191.4 823.8s0-.1-.1-.1l-.2-.2c-.3-.3-.6-.4-1-.4-.5 0-.8.4-.8.8s.3.7.7.8l.1.1c.3.3.7.3 1.1.2.6 0 .7-.8.2-1.2zM238 803c-2 0-2 2.6 0 2.6s2-2.6 0-2.6zM239 826.4c-1 0-1 1.9 0 1.9s1-1.9 0-1.9zM256.4 795.4c-1.9 0-3.6 1.6-3.6 3.6s1.6 3.6 3.6 3.6 3.6-1.6 3.6-3.6-1.7-3.6-3.6-3.6zM210 837.6c-4 0-4 7.4 0 7.4 5-.1 5-7.4 0-7.4zM231 849.6c-4 0-4 6.3 0 6.3s4-6.3 0-6.3zM191 859.1c-4 0-4 5.6 0 5.6s4-5.6 0-5.6zM189 805.7c-3 0-3 3.9 0 3.9 2 0 2-3.9 0-3.9zM177 823.7c-2 0-2 3.4 0 3.4s2-3.4 0-3.4zM175 840.3c-2 0-2 2.9 0 2.9s2-2.9 0-2.9zM177.7 778.3c-.3-.3-.6-.4-1-.4-.6 0-.9.3-1.2.7-.4.5-.6 1-.5 1.6.1.6.4 1.1 1 1.3.3.1.7 0 1-.1.3-.2.5-.5.6-.8.1-.1.2-.1 0 0 .3-.2.5-.4.6-.8 0-.6-.1-1.1-.5-1.5zM219 759.8c-1 0-1 1.5 0 1.5s1-1.5 0-1.5zM234 775c-1 0-1 2 0 2s1-2 0-2zM270 774.8c-2 0-2 3.2 0 3.2s2-3.2 0-3.2zM280 734.6c-1 0-1 2 0 2 2 0 2-2 0-2zM247.5 725.9c-.3-.5-1-.9-1.5-.6l-.6.3c-.2.2-.4.6-.4.9 0 .2.1.5.2.7.2.3.4.5.8.6.5.2 1.2-.1 1.5-.6.3-.4.3-1 0-1.3zM221 721.6c-3 0-3 5.1 0 5.1s3-5.1 0-5.1zM177 735.6c-1 0-1 2 0 2s1-2 0-2zM283 837.3c-3 0-3 4.1 0 4.1 2 0 2-4.1 0-4.1zM281 788.8c-2 0-2 4.1 0 4.1 3 0 3-4.1 0-4.1zM296 773.6c-2 0-2 2.8 0 2.8s2-2.8 0-2.8zM302.8 734.5c-.5-.4-1-.7-1.7-.7-.8 0-1.6.5-2 1.2-.4.7-.4 1.7 0 2.4.3.6 1 1.1 1.7 1.2 0 0 .1 0 .1.1h-.1c.2.1.4.1.6.1.4 0 .7-.1 1-.3.7-.4 1.1-1.2 1.1-1.9.2-.9-.2-1.7-.7-2.1zM276.4 833.6c-.4-1.5-1.8-2.5-3.3-2.5-1.5 0-2.9 1-3.3 2.5-.2.6-.2 1.2 0 1.8.1.3.2.5.3.8.3.5.7.9 1.2 1.2.1 0 .1.1.2.1.8.6 2.2.6 3 0 .1 0 .1-.1.2-.1.5-.3.9-.7 1.2-1.2.7-.7.8-1.7.5-2.6zM329 743.5c-7 0-7 11.2 0 11.2 8 0 8-11.2 0-11.2zM363 743c-3 0-3 4.5 0 4.5s3-4.5 0-4.5zM375 766.4c-3 0-3 3.8 0 3.8 2 0 2-3.8 0-3.8zM347 817.6c-2 0-2 3.1 0 3.1s2-3.1 0-3.1zM325 793.2c-2 0-2 2.9 0 2.9s2-2.9 0-2.9zM320.6 823.8s0-.1-.1-.1l-.2-.2c-.3-.3-.6-.4-1-.4-.5 0-.8.4-.8.8s.3.7.7.8l.1.1c.3.3.7.3 1.1.2.6 0 .7-.8.2-1.2zM318 805.7c-3 0-3 3.9 0 3.9 2 0 2-3.9 0-3.9zM306 823.7c-2 0-2 3.4 0 3.4s2-3.4 0-3.4zM306.8 778.3c-.3-.3-.6-.4-1-.4-.6 0-.9.3-1.2.7-.4.5-.6 1-.5 1.6.1.6.4 1.1 1 1.3.3.1.7 0 1-.1.3-.2.5-.5.6-.8.1-.1.2-.1 0 0 .3-.2.5-.4.6-.8.1-.6-.1-1.1-.5-1.5zM349 759.8c-1 0-1 1.5 0 1.5s1-1.5 0-1.5zM363 775c-1 0-1 2 0 2s1-2 0-2zM399 774.8c-2 0-2 3.2 0 3.2 3 0 3-3.2 0-3.2zM410 734.6c-2 0-2 2 0 2 1 0 1-2 0-2zM376.6 725.9c-.3-.5-1-.9-1.5-.6l-.6.3c-.2.2-.4.6-.4.9 0 .2.1.5.2.7.2.3.4.5.8.6.5.2 1.2-.1 1.5-.6.3-.4.3-1 0-1.3zM350 721.6c-3 0-3 5.1 0 5.1s3-5.1 0-5.1zM306 735.6c-1 0-1 2 0 2 2 0 2-2 0-2zM410 788.8c-2 0-2 4.1 0 4.1 3 0 3-4.1 0-4.1zM425 773.6c-2 0-2 2.8 0 2.8s2-2.8 0-2.8zM432 734.5c-.5-.4-1-.7-1.7-.7-.8 0-1.6.5-2 1.2-.4.7-.4 1.7 0 2.4.3.6 1 1.1 1.7 1.2 0 0 .1 0 .1.1h-.1c.2.1.4.1.6.1.4 0 .7-.1 1-.3.7-.4 1.1-1.2 1.1-1.9.1-.9-.2-1.7-.7-2.1zM492 743c-3 0-3 4.5 0 4.5s3-4.5 0-4.5zM504 766.4c-2 0-2 3.8 0 3.8 3 0 3-3.8 0-3.8zM476 817.6c-2 0-2 3.1 0 3.1s2-3.1 0-3.1zM454 793.2c-2 0-2 2.9 0 2.9s2-2.9 0-2.9zM449.7 823.8s0-.1-.1-.1l-.2-.2c-.3-.3-.6-.4-1-.4-.5 0-.8.4-.8.8s.3.7.7.8l.1.1c.3.3.7.3 1.1.2.6 0 .7-.8.2-1.2zM496 803c-1 0-1 2.6 0 2.6 2 0 2-2.6 0-2.6zM497 826.4c-1 0-1 1.9 0 1.9 2 0 2-1.9 0-1.9zM514.7 795.4c-1.9 0-3.6 1.6-3.6 3.6s1.6 3.6 3.6 3.6 3.6-1.6 3.6-3.6-1.7-3.6-3.6-3.6zM469 837.6c-5 0-5 7.4 0 7.4 4-.1 4-7.4 0-7.4zM490 849.6c-4 0-4 6.3 0 6.3s4-6.3 0-6.3zM449 859.1c-3 0-3 5.6 0 5.6 4 0 4-5.6 0-5.6zM447 805.7c-3 0-3 3.9 0 3.9 2 0 2-3.9 0-3.9zM435 823.7c-2 0-2 3.4 0 3.4 3 0 3-3.4 0-3.4zM433 840.3c-2 0-2 2.9 0 2.9s2-2.9 0-2.9zM436 778.3c-.3-.3-.6-.4-1-.4-.6 0-.9.3-1.2.7-.4.5-.6 1-.5 1.6.1.6.4 1.1 1 1.3.3.1.7 0 1-.1.3-.2.5-.5.6-.8.1-.1.2-.1 0 0 .3-.2.5-.4.6-.8 0-.6-.1-1.1-.5-1.5zM478 759.8c-1 0-1 1.5 0 1.5s1-1.5 0-1.5zM492 775c-1 0-1 2 0 2s1-2 0-2zM529 774.8c-2 0-2 3.2 0 3.2s2-3.2 0-3.2zM539 734.6c-2 0-2 2 0 2 1 0 1-2 0-2zM505.8 725.9c-.3-.5-1-.9-1.5-.6l-.6.3c-.2.2-.4.6-.4.9 0 .2.1.5.2.7.2.3.4.5.8.6.5.2 1.2-.1 1.5-.6.3-.4.3-1 0-1.3zM479 721.6c-3 0-3 5.1 0 5.1s3-5.1 0-5.1zM435 735.6c-1 0-1 2 0 2 2 0 2-2 0-2zM541 837.3c-3 0-3 4.1 0 4.1s3-4.1 0-4.1zM540 788.8c-3 0-3 4.1 0 4.1 2 0 2-4.1 0-4.1zM534.7 833.6c-.4-1.5-1.8-2.5-3.3-2.5s-2.9 1-3.3 2.5c-.2.6-.2 1.2 0 1.8.1.3.2.5.3.8.3.5.7.9 1.2 1.2.1 0 .1.1.2.1.8.6 2.2.6 3 0 .1 0 .1-.1.2-.1.5-.3.9-.7 1.2-1.2.6-.7.8-1.7.5-2.6zM234 897.6c-3 0-3 4.5 0 4.5s3-4.5 0-4.5zM246 920.9c-3 0-3 3.8 0 3.8 2 .1 2-3.8 0-3.8zM218 972.2c-2 0-2 3.1 0 3.1s2-3.1 0-3.1zM196 947.8c-2 0-2 2.9 0 2.9s2-2.9 0-2.9zM191.4 978.4s0-.1-.1-.1l-.2-.2c-.3-.3-.6-.4-1-.4-.5 0-.8.4-.8.8s.3.7.7.8l.1.1c.3.3.7.3 1.1.2.6 0 .7-.9.2-1.2zM239 980.9c-1 0-1 1.9 0 1.9s1-1.9 0-1.9zM210 992.2c-4 0-4 7.4 0 7.4 5-.1 5-7.4 0-7.4zM191 1013.7c-4 0-4 5.6 0 5.6s4-5.6 0-5.6zM189 960.3c-3 0-3 3.9 0 3.9 2 0 2-3.9 0-3.9zM177 978.3c-2 0-2 3.4 0 3.4s2-3.4 0-3.4zM175 994.9c-2 0-2 2.9 0 2.9s2-2.9 0-2.9zM177.7 932.9c-.3-.3-.6-.4-1-.4-.6 0-.9.3-1.2.7-.4.5-.6 1-.5 1.6.1.6.4 1.1 1 1.3.3.1.7 0 1-.1.3-.2.5-.5.6-.8.1-.1.2-.1 0 0 .3-.2.5-.4.6-.8 0-.6-.1-1.2-.5-1.5zM219 914.4c-1 0-1 1.5 0 1.5s1-1.5 0-1.5zM234 929.5c-1 0-1 2 0 2s1-2 0-2zM270 929.4c-2 0-2 3.2 0 3.2s2-3.2 0-3.2zM280 889.2c-1 0-1 2 0 2 2 0 2-2 0-2zM247.5 880.5c-.3-.5-1-.9-1.5-.6l-.6.3c-.2.2-.4.6-.4.9 0 .2.1.5.2.7.2.3.4.5.8.6.5.2 1.2-.1 1.5-.6.3-.4.3-1 0-1.3zM221 876.1c-3 0-3 5.1 0 5.1s3-5.1 0-5.1zM177 890.2c-1 0-1 2 0 2s1-2 0-2zM281 943.3c-2 0-2 4.1 0 4.1 3 .1 3-4.1 0-4.1zM296 928.2c-2 0-2 2.8 0 2.8s2-2.8 0-2.8zM302.8 889.1c-.5-.4-1-.7-1.7-.7-.8 0-1.6.5-2 1.2-.4.7-.4 1.7 0 2.4.3.6 1 1.1 1.7 1.2 0 0 .1 0 .1.1h-.1c.2.1.4.1.6.1.4 0 .7-.1 1-.3.7-.4 1.1-1.2 1.1-1.9.2-.9-.2-1.7-.7-2.1zM363 897.6c-3 0-3 4.5 0 4.5s3-4.5 0-4.5zM375 920.9c-3 0-3 3.8 0 3.8 2 .1 2-3.8 0-3.8zM347 972.2c-2 0-2 3.1 0 3.1s2-3.1 0-3.1zM320.6 978.4s0-.1-.1-.1l-.2-.2c-.3-.3-.6-.4-1-.4-.5 0-.8.4-.8.8s.3.7.7.8l.1.1c.3.3.7.3 1.1.2.6 0 .7-.9.2-1.2zM367 957.6c-1 0-1 2.6 0 2.6 2 0 2-2.6 0-2.6zM368 980.9c-1 0-1 1.9 0 1.9s1-1.9 0-1.9zM385.5 950c-1.9 0-3.6 1.6-3.6 3.6s1.6 3.6 3.6 3.6 3.6-1.6 3.6-3.6-1.6-3.6-3.6-3.6zM361 1004.2c-5 0-5 6.3 0 6.3 4 0 4-6.3 0-6.3zM306 978.3c-2 0-2 3.4 0 3.4s2-3.4 0-3.4zM304 994.9c-2 0-2 2.9 0 2.9s2-2.9 0-2.9zM306.8 932.9c-.3-.3-.6-.4-1-.4-.6 0-.9.3-1.2.7-.4.5-.6 1-.5 1.6.1.6.4 1.1 1 1.3.3.1.7 0 1-.1.3-.2.5-.5.6-.8.1-.1.2-.1 0 0 .3-.2.5-.4.6-.8.1-.6-.1-1.2-.5-1.5zM349 914.4c-1 0-1 1.5 0 1.5s1-1.5 0-1.5zM363 929.5c-1 0-1 2 0 2s1-2 0-2zM399 929.4c-2 0-2 3.2 0 3.2 3 0 3-3.2 0-3.2zM410 889.2c-2 0-2 2 0 2 1 0 1-2 0-2zM376.6 880.5c-.3-.5-1-.9-1.5-.6l-.6.3c-.2.2-.4.6-.4.9 0 .2.1.5.2.7.2.3.4.5.8.6.5.2 1.2-.1 1.5-.6.3-.4.3-1 0-1.3zM350 876.1c-3 0-3 5.1 0 5.1s3-5.1 0-5.1zM386.3 867.6c-.4.1-.8.4-1.1.7-.7.6-.7 2 0 2.5.3.3.7.6 1.1.7 1.3.3 2.5-.6 2.5-1.9s-1.2-2.3-2.5-2zM306 890.2c-1 0-1 2 0 2 2 0 2-2 0-2zM412 991.9c-3 0-3 4.1 0 4.1s3-4.1 0-4.1zM410 943.3c-2 0-2 4.1 0 4.1 3 .1 3-4.1 0-4.1zM425 928.2c-2 0-2 2.8 0 2.8s2-2.8 0-2.8zM432 889.1c-.5-.4-1-.7-1.7-.7-.8 0-1.6.5-2 1.2-.4.7-.4 1.7 0 2.4.3.6 1 1.1 1.7 1.2 0 0 .1 0 .1.1h-.1c.2.1.4.1.6.1.4 0 .7-.1 1-.3.7-.4 1.1-1.2 1.1-1.9.1-.9-.2-1.7-.7-2.1zM405.6 988.2c-.4-1.5-1.8-2.5-3.3-2.5-1.5 0-2.9 1-3.3 2.5-.2.6-.2 1.2 0 1.8.1.3.2.5.3.8.3.5.7.9 1.2 1.2.1 0 .1.1.2.1.8.6 2.2.6 3 0 .1 0 .1-.1.2-.1.5-.3.9-.7 1.2-1.2.6-.8.7-1.7.5-2.6zM492 897.6c-3 0-3 4.5 0 4.5s3-4.5 0-4.5zM504 920.9c-2 0-2 3.8 0 3.8 3 .1 3-3.8 0-3.8zM476 972.2c-2 0-2 3.1 0 3.1s2-3.1 0-3.1zM449.7 978.4s0-.1-.1-.1l-.2-.2c-.3-.3-.6-.4-1-.4-.5 0-.8.4-.8.8s.3.7.7.8l.1.1c.3.3.7.3 1.1.2.6 0 .7-.9.2-1.2zM496 957.6c-1 0-1 2.6 0 2.6 2 0 2-2.6 0-2.6zM497 980.9c-1 0-1 1.9 0 1.9 2 .1 2-1.9 0-1.9zM514.7 950c-1.9 0-3.6 1.6-3.6 3.6s1.6 3.6 3.6 3.6 3.6-1.6 3.6-3.6-1.7-3.6-3.6-3.6zM449 1013.7c-3 0-3 5.6 0 5.6 4 0 4-5.6 0-5.6zM435 978.3c-2 0-2 3.4 0 3.4 3 0 3-3.4 0-3.4zM433 994.9c-2 0-2 2.9 0 2.9s2-2.9 0-2.9zM492 929.5c-1 0-1 2 0 2s1-2 0-2zM529 929.4c-2 0-2 3.2 0 3.2s2-3.2 0-3.2zM539 889.2c-2 0-2 2 0 2 1 0 1-2 0-2zM505.8 880.5c-.3-.5-1-.9-1.5-.6l-.6.3c-.2.2-.4.6-.4.9 0 .2.1.5.2.7.2.3.4.5.8.6.5.2 1.2-.1 1.5-.6.3-.4.3-1 0-1.3zM479 876.1c-3 0-3 5.1 0 5.1s3-5.1 0-5.1zM515.5 867.6c-.4.1-.8.4-1.1.7-.7.6-.7 2 0 2.5.3.3.7.6 1.1.7 1.3.3 2.5-.6 2.5-1.9s-1.3-2.3-2.5-2zM435 890.2c-1 0-1 2 0 2 2 0 2-2 0-2zM540 943.3c-3 0-3 4.1 0 4.1 2 .1 2-4.1 0-4.1zM191 1030.5c-4 0-4 5.6 0 5.6s4-5.6 0-5.6zM320 1030.5c-3 0-3 5.6 0 5.6 4 0 4-5.6 0-5.6zM234 1068.9c-3 0-3 4.5 0 4.5s3-4.5 0-4.5zM219 1085.8c-1 0-1 1.5 0 1.5s1-1.5 0-1.5zM280 1060.6c-1 0-1 2 0 2 2 0 2-2 0-2zM247.5 1051.9c-.3-.5-1-.9-1.5-.6l-.6.3c-.2.2-.4.6-.4.9 0 .2.1.5.2.7.2.3.4.5.8.6.5.2 1.2-.1 1.5-.6.3-.4.3-1 0-1.3zM221 1047.5c-3 0-3 5.1 0 5.1s3-5.1 0-5.1zM257.2 1039c-.4.1-.8.4-1.1.7-.7.6-.7 2 0 2.5.3.3.7.6 1.1.7 1.3.3 2.5-.6 2.5-1.9s-1.3-2.3-2.5-2zM177 1061.6c-1 0-1 2 0 2s1-2 0-2zM302.8 1060.4c-.5-.4-1-.7-1.7-.7-.8 0-1.6.5-2 1.2-.4.7-.4 1.7 0 2.4.3.6 1 1.1 1.7 1.2 0 0 .1 0 .1.1h-.1c.2.1.4.1.6.1.4 0 .7-.1 1-.3.7-.4 1.1-1.2 1.1-1.9.2-.8-.2-1.6-.7-2.1zM363 1068.9c-3 0-3 4.5 0 4.5s3-4.5 0-4.5zM349 1085.8c-1 0-1 1.5 0 1.5s1-1.5 0-1.5zM410 1060.6c-2 0-2 2 0 2 1 0 1-2 0-2zM376.6 1051.9c-.3-.5-1-.9-1.5-.6l-.6.3c-.2.2-.4.6-.4.9 0 .2.1.5.2.7.2.3.4.5.8.6.5.2 1.2-.1 1.5-.6.3-.4.3-1 0-1.3zM350 1047.5c-3 0-3 5.1 0 5.1s3-5.1 0-5.1zM386.3 1039c-.4.1-.8.4-1.1.7-.7.6-.7 2 0 2.5.3.3.7.6 1.1.7 1.3.3 2.5-.6 2.5-1.9s-1.2-2.3-2.5-2zM432 1060.4c-.5-.4-1-.7-1.7-.7-.8 0-1.6.5-2 1.2-.4.7-.4 1.7 0 2.4.3.6 1 1.1 1.7 1.2 0 0 .1 0 .1.1h-.1c.2.1.4.1.6.1.4 0 .7-.1 1-.3.7-.4 1.1-1.2 1.1-1.9.1-.8-.2-1.6-.7-2.1zM492 1068.9c-3 0-3 4.5 0 4.5s3-4.5 0-4.5zM478 1085.8c-1 0-1 1.5 0 1.5s1-1.5 0-1.5zM539 1060.6c-2 0-2 2 0 2 1 0 1-2 0-2zM505.8 1051.9c-.3-.5-1-.9-1.5-.6l-.6.3c-.2.2-.4.6-.4.9 0 .2.1.5.2.7.2.3.4.5.8.6.5.2 1.2-.1 1.5-.6.3-.4.3-1 0-1.3zM479 1047.5c-3 0-3 5.1 0 5.1s3-5.1 0-5.1zM515.5 1039c-.4.1-.8.4-1.1.7-.7.6-.7 2 0 2.5.3.3.7.6 1.1.7 1.3.3 2.5-.6 2.5-1.9s-1.3-2.3-2.5-2zM534.7 988.2c-.4-1.5-1.8-2.5-3.3-2.5s-2.9 1-3.3 2.5c-.2.6-.2 1.2 0 1.8.1.3.2.5.3.8.3.5.7.9 1.2 1.2.1 0 .1.1.2.1.8.6 2.2.6 3 0 .1 0 .1-.1.2-.1.5-.3.9-.7 1.2-1.2.6-.8.8-1.7.5-2.6z"/></g></svg>