<svg xmlns="http://www.w3.org/2000/svg" viewBox="-44 -8 50 50"><circle cx="-19" cy="17" r="25" fill="#5989A1"/><path d="M-30.7 23.9c-.1.4-.2.5-.5.4-.6-.2-.5-.2-.9-.4.2 1.3.5 2.6.9 3.9 1.7-3.7 3.6-6.6 4.7-8.2-2 .1-4.5.4-6.2 1.7.8 1.3 1.5 1.9 2 2.6zM5.5 22.3l.3-1.8c-.6 0-1.2-.1-1.7-.1.5.6.9 1.2 1.4 1.9z" fill="none"/><path d="M4.1 20.4c.5 0 1.1 0 1.7.1.1-.6.2-1.2.2-1.8-1.4-.2-2.8-.3-3.8-.5.7.7 1.3 1.4 1.9 2.2zM-32.1 23.9c.4.2.3.2.9.4.3.1.4 0 .5-.4-.5-.7-1.2-1.3-2-2.6 1.7-1.3 4.2-1.6 6.2-1.7.3-.4.5-.7.7-.9.3-.4.7-.8 1-1.2-3.7.4-9.5 1.1-9.4 3.8 0 2 1.2 6.9 1.5 7.8.2.3.3.7.5 1.1.3-.8.7-1.6 1-2.4-.4-1.3-.7-2.6-.9-3.9z" fill="#9E5738"/><path d="M-3.6 5.3c0 .1.1.2.1.2.4-.1.7-.3.9-.6.4-.7.2-1.6-.6-2-.9-.5-2.1-.4-2.5.3 0 0 0 .1-.1.1.9.4 1.6 1 2.2 2z" fill="#FFF"/><path d="M-2.3 11.5c.3-2-.3-4.2-1.2-6 0-.1-.1-.2-.1-.2-.6-1-1.3-1.6-2.2-2-3.1-1.5-7.6.3-9.4 2 4.7-1.9 10.9.4 12.9 6.2z" fill="#779978"/><path d="M-16.6 9.8c.5 0 .9.3.9.8 0 .3-.2.6-.4.7.7.4 1.2.7 1.4.8.8.4 1.3 1.4.9 2.3v.1c.3.1.5.2.7.3.5.3.5.4.5.4h-.4c.5.1 1 .1 1.6.2 4.3.4 7.5-2.1 9.2-3.7 0-.1 0-.1-.1-.2-2-5.9-8.2-8.1-12.8-6.3-1.9.8-3.6 2.2-4.6 4.4.7.3 1.4.6 2.2 1 0-.5.4-.8.9-.8zm5.9 2.2c-.5 0-.9-.4-.9-.9s.4-.8.9-.8c.4 0 .9.2.9.8 0 .5-.4.9-.9.9zm1.5 2.7c-.5.1-1-.3-1-.7-.1-.5.3-.9.9-.9.5-.1 1 .3 1 .7 0 .5-.4.8-.9.9z" fill="#FFF"/><path d="M2.2 18.2c-.8-.8-1.7-1.7-2.7-2.6-1.2 3.5-6.5 5.8-11.4 5.4-.5 0-1.1-.1-1.7-.2-.1.8-.2 1.6-.3 2.5 0 .2 0 .2-.1.3.1.3.1.7.1 1.2 0 .9-.1 1.6-.3 1.6-.2 0-.3-.7-.3-1.6 0-.4 0-.7.1-1h-.6c0 .3.1.6.1.9 0 .9-.1 1.6-.3 1.6-.2 0-.3-.7-.3-1.6 0-.3 0-.6.1-.9h-.5c0 .3.1.6.1.9 0 .9-.1 1.6-.3 1.6-.1 0-.3-.5-.3-1.2-.1 0-.2 0-.3.1 0 .3.1.6.1 1 0 .9-.1 1.6-.3 1.6-.2 0-.3-.7-.3-1.6 0-.4 0-.7.1-1h-.7c0 .3.1.6.1 1 0 .9-.1 1.6-.3 1.6-.2 0-.3-.7-.3-1.6 0-.4 0-.7.1-1-.3 0-.6-.1-.9-.1.1.3.1.7.1 1.1 0 .9-.1 1.6-.3 1.6-.2 0-.3-.7-.3-1.6 0-.5 0-.9.1-1.2-.3-.1-.5-.1-.7-.2 0 .3.1.7.1 1.1 0 .9-.1 1.6-.3 1.6-.2 0-.3-.7-.3-1.6 0-.5 0-.9.1-1.2-.2-.1-.3-.1-.3-.1-.5-1.8-.1-4.4.6-6.6-1.1-.7-1.9-1.6-2.2-2.5-.6.6-1.3 1.2-2 1.9-.4.4-.7.7-1 1.2-.2.2-.4.5-.7.9-1.1 1.5-3 4.4-4.7 8.2-.4.8-.7 1.6-1 2.4-.8 2-1.5 4.2-2 6.5 4.2 3.3 9.6 5.3 15.4 5.3 12 0 22-8.4 24.4-19.7-.9-.6-1.3-1.2-1.8-1.8-.6-.8-1.2-1.5-1.9-2.2zm-16.3 14.6c-.8.4-1.7 0-2.1-.8-.4-.8 0-1.7.8-2.1.9-.3 1.9.4 2.2 1.2.4.8-.1 1.3-.9 1.7z" fill="#FFF"/><path d="M-9.8 11.1c0-.6-.5-.8-.9-.8-.5 0-.9.3-.9.8s.4.9.9.9.9-.4.9-.9zm-.6.4c-.2 0-.4-.2-.4-.4s.1-.3.4-.3c.2-.1.4.1.4.3s-.2.4-.4.4z" fill="#3E3D40"/><path d="M-10.4 10.8c-.3 0-.4.1-.4.3s.2.4.4.4.4-.2.4-.4-.2-.4-.4-.3z" fill="#FFF"/><path d="M-15.7 10.6c0-.5-.4-.8-.9-.8s-.9.3-.9.8c.5.3 1 .5 1.4.7.2-.1.4-.4.4-.7zm-.6.3c-.2 0-.4-.2-.4-.4s.1-.3.4-.3c.2 0 .4.1.4.3s-.2.4-.4.4z" fill="#3E3D40"/><path d="M-16.3 10.2c-.3 0-.4.1-.4.3 0 .2.2.4.4.4s.4-.2.4-.4-.2-.3-.4-.3z" fill="#FFF"/><path d="M-9.3 13.1c-.6 0-1 .4-.9.9 0 .4.5.8 1 .7s.9-.4.9-.9c0-.4-.5-.8-1-.7z" fill="#FF9D8D"/><path d="M-16.5 23.5c0-.1.1-.2.2-.2s.2.3.2.7h.5c.1-.4.1-.7.2-.7s.2.3.2.7h.6c.1-.4.1-.6.2-.6s.1.2.2.4c.1-.1.1-.1.1-.3.1-.9.2-1.8.3-2.5-.8-.1-1.7-.3-2.5-.6-.1 1-.2 2.2-.2 3.1z" fill="#B51C1C"/><path d="M-16.3 23.3c-.1 0-.1.1-.2.2v1.8h-.1c0 .7.1 1.2.3 1.2.2 0 .3-.7.3-1.6 0-.4 0-.7-.1-.9-.1-.4-.1-.7-.2-.7zM-15.3 23.2c-.1 0-.2.3-.2.7 0 .3-.1.6-.1.9 0 .9.1 1.6.3 1.6.2 0 .3-.7.3-1.6 0-.4 0-.7-.1-.9-.1-.4-.1-.7-.2-.7zM-14.2 23.2c-.1 0-.2.2-.2.6 0 .3-.1.6-.1 1 0 .9.1 1.6.3 1.6.2 0 .3-.7.3-1.6 0-.5 0-.9-.1-1.2l-.2-.4z" fill="#B51C1C"/><path d="M-20.6 18.2c.7-2.1 1.6-3.9 2.4-4.3h.1c-.8-.8-1.8-1.8-2.5-2.7-2.1 1.6-2.6 3.1-2.2 4.5.3.9 1.1 1.8 2.2 2.5zM-11.4 15.4c-.6 0-1.1-.1-1.6-.2-1.9.2-2.7 2.6-3.1 5 .9.3 1.7.5 2.5.6.6.1 1.2.2 1.7.2 4.9.4 10.3-1.9 11.4-5.4.2-.7.3-1.4.2-2.2-.2-1.1-.5-1.7-1.6-2l-.3.3c-1.8 1.6-4.9 4.1-9.2 3.7z" fill="#CE2020"/><path d="M-16.9 13.7c1 .1 2.1.4 3 .7h.1c.4-.9-.1-1.9-.9-2.3-.2-.1-.7-.4-1.4-.8-.4-.2-.9-.5-1.4-.7-.7-.4-1.5-.7-2.2-1-1-.4-1.8-.6-2-.3.8 1 2.8 3.2 4.8 4.4zm1-1.9c.2 0 .7.4.8.8.1.4 0 .8-.2.9-.2.1-.4-.3-.5-.7-.1-.6-.3-1-.1-1zm-1.2-.7c.1 0 .5.2.5.5s0 .5-.1.6c-.1 0-.4-.3-.5-.5-.1-.3 0-.6.1-.6zm-.9-.4c.1 0 .2.1.2.2s-.1.2-.2.2-.2 0-.2-.2c0-.1.1-.2.2-.2zm-1-.4c.1 0 .2.1.2.2s-.1.2-.2.2-.2 0-.2-.2c0-.1.1-.2.2-.2z" fill="#F48357"/><path d="M-13.8 14.4c-.1 0-.1 0 0 0-.1 0-.1 0 0 0-.1 0 0 0 0 0zM-18.1 13.9c.3-.1.7-.2 1.2-.1-1.9-1.2-4-3.4-4.7-4.4-.1.3.3 1 1 1.9.7.8 1.6 1.7 2.5 2.6zM-15.3 13.5c.2-.1.3-.5.2-.9-.1-.4-.6-.8-.8-.8-.2 0 0 .4.1 1 .1.4.3.8.5.7zM-17.2 11.7c.1.2.4.5.5.5.1-.1.1-.3.1-.6s-.4-.5-.5-.5c-.1 0-.2.3-.1.6zM-18 11.1c.1 0 .2-.1.2-.2s-.1-.2-.2-.2-.2.1-.2.2c0 .2.1.2.2.2zM-19 10.7c.1 0 .2-.1.2-.2s-.1-.2-.2-.2-.2.1-.2.2c0 .2.1.2.2.2z" fill="#DD6C4A"/><path d="M-16.5 25v-1.5c0-.9.1-2.1.3-3.4.4-2.3 1.2-4.7 3.1-5h.4s0-.1-.5-.4c-.2-.1-.5-.2-.7-.3h-.1c-.9-.4-2.1-.7-3-.7-.5 0-.9 0-1.2.1h-.1c-.7.4-1.7 2.2-2.4 4.3-.7 2.2-1.2 4.9-.6 6.6 0 0 .1 0 .3.1.1-.2.1-.4.2-.4s.2.2.2.5c.2.1.4.1.7.2.1-.2.1-.4.2-.4s.2.2.2.5c.3 0 .6.1.9.1.1-.4.1-.6.2-.6s.2.3.2.6h.7c.1-.4.1-.6.2-.6s.2.2.2.6c.1 0 .2 0 .3-.1h.1V25z" fill="#E22323"/><path d="M-20.7 24.5c-.1 0-.1.2-.2.4-.1.3-.1.7-.1 1.2 0 .9.1 1.6.3 1.6.2 0 .3-.7.3-1.6 0-.4 0-.8-.1-1.1-.1-.3-.2-.5-.2-.5zM-19.6 24.8c-.1 0-.1.2-.2.4-.1.3-.1.7-.1 1.2 0 .9.1 1.6.3 1.6.2 0 .3-.7.3-1.6 0-.4 0-.8-.1-1.1-.1-.3-.2-.5-.2-.5zM-18.3 24.8c-.1 0-.2.2-.2.6 0 .3-.1.6-.1 1 0 .9.1 1.6.3 1.6.2 0 .3-.7.3-1.6 0-.4 0-.7-.1-1-.1-.3-.1-.6-.2-.6zM-17.1 24.8c-.1 0-.2.2-.2.6 0 .3-.1.6-.1 1 0 .9.1 1.6.3 1.6.2 0 .3-.7.3-1.6 0-.4 0-.7-.1-1-.1-.4-.1-.6-.2-.6z" fill="#E22323"/><path d="M-15.4 29.9c-.8.4-1.2 1.3-.8 2.1.4.8 1.3 1.2 2.1.8s1.3-.9.9-1.7c-.3-.8-1.3-1.5-2.2-1.2z" fill="#3E3D40"/></svg>