<svg id="Layer_1" xmlns="http://www.w3.org/2000/svg" xmlns:xlink="http://www.w3.org/1999/xlink" viewBox="-486 476 50 50"><style>.st0{clip-path:url(#SVGID_2_);fill:#EFD9CB;} .st1{fill:none;} .st2{fill:#FFEFE6;}</style><defs><circle id="SVGID_1_" cx="-461" cy="501" r="25"/></defs><use xlink:href="#SVGID_1_" overflow="visible" fill="#EFD9CB"/><clipPath id="SVGID_2_"><use xlink:href="#SVGID_1_" overflow="visible"/></clipPath><path class="st0" d="M-398.4 418.4h-4.4l.3 34.9-.1 23.9.3 50v59.1h3.9v-120z"/><path class="st1" d="M-473.9 479.6c-1.6 1-3.2 2.2-4.5 3.5v35.8c1.4 1.4 3 2.6 4.7 3.6v-1.9l-.2-41zM-447 480.3c-1.5-1-3.1-1.9-4.9-2.6v46.5c1.8-.7 3.5-1.6 5-2.7v-5.9l-.1-35.3zM-456 476.5c-1.6-.3-3.3-.5-5-.5v50c1.8 0 3.6-.2 5.3-.6V516l-.3-39.5zM-442.9 483.8v34.5c1.9-2 3.5-4.4 4.7-7l-.1-20.8c-1.2-2.5-2.8-4.8-4.6-6.7zM-465.1 476.4c-1.6.3-3.2.7-4.7 1.3v46.9c1.6.6 3.2 1 4.9 1.3v-8.1l-.2-41.4zM-486 501c0 4.7 1.3 9.1 3.6 12.9l-.2-25.4c-2.2 3.6-3.4 7.9-3.4 12.5z"/><path class="st2" d="M-469.8 477.6c-1.4.5-2.8 1.2-4.1 2l.2 41v1.9c1.2.7 2.5 1.4 3.9 1.9v-46.8zM-478.4 483.1c-1.6 1.6-3 3.4-4.1 5.3l.2 25.4c1.1 1.9 2.5 3.6 4 5.1v-15l-.1-20.8zM-442.9 483.8c-1.2-1.3-2.6-2.4-4.1-3.4l.2 35.4v5.9c1.4-1 2.7-2.1 3.9-3.3v-34.6zM-451.8 477.8c-1.3-.5-2.7-.9-4.2-1.2l.3 39.5v9.5c1.3-.3 2.6-.7 3.9-1.2v-46.6zM-461 476c-1.4 0-2.8.1-4.1.3l.2 41.2v8.1c1.3.2 2.6.3 3.9.3V476zM-438.3 490.5l.1 20.8c1.4-3.1 2.2-6.6 2.2-10.3 0-3.8-.8-7.3-2.3-10.5z"/></svg>