<svg xmlns="http://www.w3.org/2000/svg" viewBox="-44 -8 50 50"><circle cx="-19" cy="17" r="25" fill="#183C50"/><circle cx="-19" cy="17" r="25" fill="none"/><path d="M-27.4 31.3c-.3.2-.6.3-1 .5-.1 0-.1 0-.2.1-.2.1-.3.3-.5.4-.4.3-.8.7-1.3 1-.6.5-1.3.9-2 1.2-.1 0-.1.1-.2.1-.8.4-1.7.8-2.6.9 1 .2 2.1.2 3.4-.1 2.7-.6 5.5-2.2 8.3-4.4-.7-.4-1.3-.9-1.9-1.3-.5.7-1.2 1.2-2 1.6zM-38.5 11.4c.9-.5 1.8-.8 2.7-1.1 0-.7-.1-1.4 0-2.1-3.1 1.2-5.9 2.6-7.8 4.4-.3 1.4-.4 2.9-.4 4.4 0 1.5.1 3.1.4 4.5-.5-4.1 1.3-8 5.1-10.1zM-39.6 30.8c-.1 0-.1.1-.2.1.1.1.2.3.3.4.1-.1.2-.2.3-.2-.2-.1-.3-.2-.4-.3zM-40.1 30.4l.1.1s-.1 0-.1-.1zM-38.8 31.3c-.2.1-.3.3-.4.4.1.1.2.2.2.3.2-.2.4-.3.5-.4l-.3-.3zM-29.6 7.2c0 .1.3 1.1.8 2.8.7 0 1.3 0 1.9-.1 3.2-.4 6.2-2.1 8-.7 1.9 1.4 1.2 3.8 1.2 3.8s2.4.7 2.6 3c.3 2.3-2.8 3.9-4.8 6.4-.4.5-.8 1.1-1.2 1.7.3.3.5.6.8.9.4.5.7.9 1 1.2l.1.1.3.3c.1 0 .2.1.3.1l1-.9s.1 0 .2.1c1.5-1.5 2.9-3 4.1-4.4.7-.8 1.2-1.6 1.6-2.3l-.2-.4c-.7-.2-1-.6-1.1-1.1-.2-.6-.1-1.2-.2-1.2-.5-.5-.7-1-.9-1.5l.1.1c-.3-1-.1-1.8-.1-1.8-2.1-.9-1.8-3.4-1.8-3.4-1.2.2-2.3-2.3-2.3-2.3-1.3-.7-1.1-1.9-1.1-1.9-.3.1-1.1-.3-1.3-.9-.6 0-1.2 0-1.9.2-1.7.2-3.6.6-5.5 1-.1.6-.1 1-.1 1l-1.5.2zM-38.2 31.8c-.2.2-.4.3-.6.5.1.1.2.2.3.4.2-.2.5-.4.6-.5-.1-.2-.2-.3-.3-.4zM-39.8 29.4c-.8-.8-1.6-1.8-2.2-2.9-.2-.2-.3-.5-.4-.7 0 0 .1 0 .1.1-.2-.5-.5-1-.7-1.5.6 1.9 1.4 3.8 2.5 5.5h.1c.1-.2.3-.4.6-.5zM-37.3 33.3v-.1c-.2.1-.3.3-.4.4l.2.2.3-.3s-.1-.1-.1-.2zM-37.7 32.5c-.2.2-.4.3-.5.5.1.1.1.2.2.2.2-.2.4-.3.5-.4-.1-.1-.1-.2-.2-.3zM-16.3 5.9l.1-.1-.1-.1v.2zM-36.6 34.6c0 .1-.1.1 0 0 0 .2.1.3.2.4 0 0 0-.1.1-.1-.1 0-.2-.2-.3-.3zM-37 33.9l-.2.2.3.3.1-.1c-.1-.1-.1-.2-.2-.4z" fill="#2D2C2C"/><path d="M-18.6 26.7c.4.2.5.4.4.6-.1.4-.6.8-.9 1.6 0 .1-.1.2-.1.3V30.1c1.2-.7 2.8-1.5 4.1-2.2-.8-.9-1.9-1.8-2.3-2-.1-.1-.2-.1-.2-.1l-1 .9zM-29.6 7.2l1.5-.1s.1-.4.1-1c.1-1.6.1-4.4-1.8-4.3-1.6.1-2.7 2.1-3.3 3.8.1.1.2.1.4.2 1.9 1.1 3.3-.5 3.1 1.4z" fill="#2D2C2C"/><path d="M-7.4 13.8c-.6 1.5-1.4 2.3-2 2.7.6-.3 1.4-1.1 2-2.7.5-1.3 1.3-3 1.8-4.5-.5 1.5-1.3 3.2-1.8 4.5zM-16.3 5.8l.1.1c.4-.2 1.6-.7 2.3.3.8 1.1.2 2.4.2 2.4s1.4.3 2.2 1.3c.8 1.1 0 2.8 0 2.8s1 .2 1.6 1.2c0 .1.1.1.1.2 0 0 .9-.5 1.8-2.1.5-.9 1.1-1.9 1.6-2.7v-.1c-1.2-.4-2.1-1.6-2.1-2.9 0-.5.1-1 .4-1.4-1.5-.4-3.4-.7-4.9-1-1.7-.3-2.9 0-3.5.3.3.5.3 1.3.2 1.6z" fill="#3CC0D6"/><path d="M-6.4 9.2s.1 0 0 0c.1 0 .1 0 0 0zM-10.1 16.2c.1 0 .4.2.8.4.6-.4 1.4-1.2 2-2.7.5-1.3 1.3-3 1.8-4.5-.2 0-.5 0-.8-.1-.6.7-1.2 1.8-1.7 2.6-.9 1.6-1.8 2.1-1.8 2.1v.1c.3.9-.2 1.8-.3 2.1z" fill="#2B90A1"/><path d="M-2.5 7.3c0 .1 0 .1-.1.2 0 0 .1-.1.1-.2zM-2.4 6.8c0 .1 0 .1 0 0 0 .1 0 .1 0 0zM-2.7 7.8c-.1.1-.1.2-.2.3.1-.1.1-.2.2-.3zM-3.9 9c-.2 0-.3.1-.4.1.1 0 .2-.1.4-.1zM-3.1 8.3l-.3.3c.2-.2.3-.2.3-.3zM-3.5 8.6c-.1.1-.3.2-.4.3.2-.1.3-.1.4-.3zM-6.4 9.2c.1 0 .1 0 0 0C-5.6 9-2 7.6-4.2 3.4c-.4-.2-.8-.3-1.2-.3-1.2 0-2.2.7-2.7 1.7-.2.4-.4.9-.4 1.4 0 1.4.9 2.6 2.1 3z" fill="#F4F4F4"/><path d="M-6.3 9.2h-.1c.3.1.5.1.8.1.5 0 .9 0 1.3-.2.1 0 .2-.1.4-.1.1-.1.3-.2.4-.3l.1-.1.3-.3c.1-.1.1-.2.2-.2.1-.1.1-.2.2-.3.1-.1.1-.2.1-.3 0-.1.1-.1.1-.2.1-.1.1-.3.1-.4.2-.7.1-1.5-.3-2.2-.3-.7-.9-1.2-1.5-1.4v.1C-2 7.6-5.6 9-6.3 9.2z" fill="#E0DCDC"/><path d="M-10.1 19.1c-1 1.3-1.8-.5-1.8-.5-.7-.1-1-.6-1.1-1 .1.5.4.9 1.1 1.1l.2.4c.3.4.9 1 1.6.1 0 0 1.6-.3 1.4-1.5.1 1.2-1.4 1.4-1.4 1.4zM-19.3 5.6s-.2 1.2 1.1 1.9c0 0 1.1 2.5 2.3 2.3 0 0-.3 2.5 1.8 3.4 0 0-.2.8.1 1.8.5.3 2.6 1.3 4.2-1 0-.1 0-.1-.1-.2-.6-1-1.6-1.2-1.6-1.2s.8-1.7 0-2.8c-.8-1-2.2-1.3-2.2-1.3s.6-1.3-.2-2.4c-.7-.9-1.9-.4-2.3-.3-.1 0-.1.1-.1.1v-.2c0-.3.1-1-.2-1.6-.1-.2-.3-.4-.5-.6-.9-.8-2.1.3-2.1.3s-.8-1-1.4.1c-.2.3-.2.6-.1.8.2.7 1 1 1.3.9zM-9.8 14.2c.2 1-.4 2-.4 2h.1c.1-.3.6-1.2.3-2z" fill="#F4F4F4"/><path d="M-10.1 16.2c-.1 0-.1-.1 0 0-.1 0 .6-1 .4-2v-.1c-1.6 2.3-3.6 1.3-4.2 1-.1 0-.1-.1-.1-.1.2.5.4 1 .9 1.5.1.1 0 .6.2 1.2.2.4.5.9 1.1 1 0 0 .8 1.8 1.8.5 0 0 1.5-.3 1.4-1.4v-.1c-.1-.5-.4-.8-.7-1-.4-.4-.7-.5-.8-.5z" fill="#E0DCDC"/><path d="M-37.8 28.3c2.1-1 5-2.4 7.1-3.9-.7-.9-1.2-1.9-1.7-2.8-1.1-1.8-2.1-4-2.7-6.4-.1-.7-.3-1.3-.4-2-.1-.9-.2-1.8-.3-2.8-.9.2-1.8.6-2.7 1.1-3.8 2.1-5.6 6-5.1 10.1.2 1 .4 1.9.7 2.8.2.5.4 1 .7 1.5.4.3 2.2 1.5 4.4 2.4zM-22.8 21.9c.3-.4.6-.8.9-1 1.7-1.5 6.7-2.9 6.4-6.1.2.3.3.7.4 1.2-.2-2.3-2.6-3-2.6-3s.7-2.4-1.2-3.8c-1.8-1.4-4.8.3-8 .7-.6.1-1.2.1-1.9.1 0 .1.1.3.1.4.1.3.2.5.3.8.4 1.3 1 2.7 1.7 4.2.3.6.6 1.3.9 1.8.1.2.2.3.2.5.2.3.4.7.6 1 .3.5.7 1 1 1.5.4.6.8 1.1 1.2 1.7 0 0 0-.1 0 0zm4.1-5.8c.3 0 .5.2.5.5s-.2.5-.5.5-.5-.2-.5-.5c0-.2.2-.5.5-.5zm-2.6-4.6c.3 0 .5.2.5.5s-.2.5-.5.5-.5-.2-.5-.5c0-.2.2-.5.5-.5zm-3.9 6c-.1-.1-.1-.3-.1-.5-.2-1.2 1.1-2.9 1.1-2.9 1 .2 1.9 1.7 1.9 1.7s.5.9.6 1.8c0 .3 0 .6-.1.8 0 0-2.8.2-3.4-.9z" fill="#F5F5F5"/><path d="M-42.4 25.7c.1.2.2.5.4.7.6 1.1 1.4 2.1 2.2 2.9.5-.3 1.2-.6 2-1-2.2-.9-4-2.1-4.5-2.5 0 0-.1 0-.1-.1zM-27.4 31.3c.8-.4 1.5-.9 2.1-1.5-.2-.2-.4-.3-.7-.5-.7.7-1.5 1.6-2.6 2.6.1 0 .1 0 .2-.1.4-.1.7-.3 1-.5zM-21.9 20.8c-.3.2-.6.6-.9 1 .4.6.9 1.2 1.3 1.7.1.2.3.3.4.5.4-.6.8-1.2 1.2-1.7 2-2.5 5.1-4.1 4.8-6.4-.1-.5-.2-.9-.4-1.2.3 3.2-4.7 4.6-6.4 6.1z" fill="#E0DCDC"/><circle cx="-21.3" cy="12" r=".5" fill="#58483B"/><circle cx="-18.7" cy="16.6" r=".5" fill="#58483B"/><path d="M-25.2 16.1s1.4 1.8 3.5 1.5c-.1-.9-.6-1.8-.6-1.8s-.9-1.5-1.9-1.7c0 0-1.4 1.8-1.1 2.9-.1-.2 0-.5.1-.9z" fill="#FCB259"/><path d="M-21.8 18.4c.1-.2.1-.5.1-.8-2.1.3-3.5-1.5-3.5-1.5-.1.3-.2.6-.1.9 0 .2.1.3.1.5.6 1.1 3.4.9 3.4.9z" fill="#F2A149"/><path d="M-32.5 34.7c-.4.2-.7.4-1.1.5-1.1-1.6-3.2-4.5-4-6.9.5-.3 1.2-.6 1.8-.9.8 1.8 2.6 5.2 4.5 6.6-.3.2-.7.4-1 .6.7-.4 1.4-.8 2-1.2-1.3-1.4-3.5-3.8-4.5-6.4.6-.3 1.2-.6 1.7-.9.7 1.2 2.5 4.2 4.6 5.8l-.5.5c.2-.1.3-.3.5-.4 1-.9 1.9-1.8 2.6-2.6-.8-.6-1.6-1.3-2.2-2-.6-.6-1.1-1.2-1.6-1.8-.3-.4-.6-.8-.9-1.1-2.1 1.5-5 2.9-7.1 3.9-.8.4-1.5.8-2 1-.3.2-.5.4-.6.5h-.1c.1.2.2.4.4.6l.1.1c.1.1.2.3.3.4.1 0 .1-.1.2-.1.1.1.2.2.4.3-.1.1-.2.1-.3.2.1.1.2.2.3.4l.4-.4.3.3c-.1.1-.3.2-.5.4.1.1.2.2.2.3.2-.2.4-.3.6-.5.1.1.2.2.3.4-.1.1-.3.2-.6.5l.3.3.5-.5c.1.1.1.2.2.3-.1.1-.3.2-.5.4.1.1.2.2.3.4.1-.1.3-.2.4-.4v.1c0 .1.1.2.1.2l-.3.3.3.3.2-.2c.1.2.1.3.2.4l-.1.1.3.3s.1 0 .1-.1c.1.1.2.3.3.3 0 0 0 .1-.1.1l.7.7c.2 0 .4-.1.6-.1.6-.3 1.5-.6 2.3-1zm1.8-10.3c.6.9 2.6 3.9 4.6 5-.3.4-.7.8-1.1 1.2-1-.8-3.5-2.9-4.7-5.4.4-.3.8-.5 1.2-.8z" fill="#3CC0D6"/><path d="M-27.2 30.6c.4-.4.8-.8 1.1-1.2-2-1.1-4-4.1-4.6-5-.4.3-.8.5-1.2.8 1.2 2.5 3.7 4.6 4.7 5.4zM-29 32.3c.2-.2.4-.3.5-.5-2.1-1.6-3.9-4.6-4.6-5.8-.5.3-1.1.6-1.7.9 1 2.6 3.2 5 4.5 6.4.5-.3.9-.6 1.3-1zM-31.3 33.9c-1.9-1.4-3.7-4.8-4.5-6.6-.6.3-1.3.6-1.8.9.8 2.4 2.9 5.3 4 6.9.4-.1.7-.3 1.1-.5.1 0 .1-.1.2-.1.3-.1.7-.3 1-.6z" fill="#2B90A1"/><path d="M-20.3 29.9c.3-.7 1.6-2.3 2.1-2.8v.2c.1-.2 0-.4-.4-.6-.1 0-.2-.1-.3-.1 0 0-.9 1.2-2.1 1.7s-2.8 2.5-2.8 2.5c-.9-.5-1.7-1.1-2.4-1.7 0 0 1.1-.8 3.3-1.8 2-.9 2.4-2.2 2.6-2.3-.2-.3-.5-.6-.8-.9-.1-.2-.3-.3-.4-.5 0 0-1.3 1.7-3 2.2-1.7.5-2.7.7-3.7 1.6.7.7 1.4 1.4 2.2 2 .2.2.4.3.7.5.6.4 1.2.9 1.9 1.3.4.2.8.5 1.2.7.3-.2.5-.4.6-.4.5-.5 1.1-1.1 1.3-1.6zM-19.3 26.1zM-35.8 10.4c.1 1 .2 1.9.3 2.8.7-.2 1.7-.4 2.3-.1 1.1.5 3.6.6 5.2-.7l.6 1.5s-2 1.4-3.9 1.1c-1.8-.3-3.6.1-3.8.2.6 2.5 1.5 4.6 2.7 6.4.5.9 1.1 1.9 1.7 2.8.3.4.6.8.9 1.1 0-.1 1-.9 2.4-1.1 1.4-.2 3.7-1.6 4.6-2.6-.4-.5-.8-1.1-1.2-1.7-.1.1-2.1 2.2-3.9 2.4-1.8.2-3.6.6-3.5.6-.4-.5-.7-1.1-1-1.7-.1-.1-.1-.2-.2-.3 0-.1 1-.5 3.1-.5s4.5-2 4.5-2c-.2-.3-.4-.7-.6-1-.1-.2-.2-.3-.2-.5-.2.2-2.5 1.6-4.2 1.6h-3.8c-.3-.7-.6-1.4-.8-2.1.8-.1 2.1-.3 2.9-.1 1.1.3 4.1-.5 5-1.2-.7-1.5-1.2-3-1.7-4.2-.8.3-2.6.9-3.6.7-1.4-.2-2.3-.8-3.7-.4 0-.6-.1-1.2-.1-1.8 0 0 1.3-.4 2.7.2 1.4.6 2.8.4 4.2-.1.1.2.1.4.2.6 0-.1-.1-.3-.1-.4-.5-1.6-.8-2.7-.8-2.7v-.1c.2-1.9-1.2-.2-3.1-1.4-.1-.1-.3-.2-.4-.2-2.4-1.4-2.7.9-2.7 1.4 0 0 1.3-1.1 2.5-.1s3.3.2 3.7.5c0 .2.2.8.4 1.5-.4-.1-1-.1-1.6 0-1.2.3-2.1-.3-3.2-.6s-1.8 0-1.8 0V7 10.4z" fill="#3CC0D6"/><path d="M-19.2 26.3l.3.3s-.1-.2-.3-.3zM-19.2 29.3v0zM-19.1 28.9z" fill="#3CC0D6"/><path d="M-34 8.2c1.1.3 2 .9 3.2.6.6-.1 1.2-.1 1.6 0-.2-.7-.4-1.3-.4-1.5-.4-.3-2.5.5-3.7-.5-1.2-1-2.5.1-2.5.1v1.3s.7-.3 1.8 0zM-28.7 10.3c-.1-.2-.1-.4-.2-.6-1.4.5-2.8.7-4.2.1-1.4-.6-2.7-.2-2.7-.2 0 .6.1 1.2.1 1.8 1.4-.4 2.3.2 3.7.4 1 .2 2.8-.4 3.6-.7-.1-.2-.2-.5-.3-.8zM-31.3 14.9c1.9.3 3.9-1.1 3.9-1.1l-.6-1.5c-1.6 1.3-4.1 1.2-5.2.7-.6-.3-1.6-.1-2.3.1.1.7.3 1.3.4 2 .2 0 2-.4 3.8-.2zM-26.7 15.3c0 .1 0 .1 0 0-.9.7-3.9 1.5-5 1.2-.8-.2-2.1 0-2.9.1.2.7.5 1.4.8 2.1h3.8c1.7 0 3.9-1.4 4.2-1.6-.3-.5-.6-1.2-.9-1.8zM-25 18.6s-2.4 2-4.5 2-3.1.4-3.1.5c.1.1.1.2.2.3.3.6.6 1.2 1 1.7-.1 0 1.7-.4 3.5-.6 1.7-.2 3.8-2.3 3.9-2.4-.3-.5-.7-1-1-1.5zM-24.5 25.7c1.7-.5 3-2.1 3-2.2-.4-.5-.9-1.1-1.3-1.7-.9 1-3.2 2.4-4.6 2.6-1.4.2-2.4 1-2.4 1.1.5.6 1 1.2 1.6 1.8 1-.9 2-1.1 3.7-1.6zM-22.9 27.2c-2.2 1-3.3 1.8-3.3 1.8.7.6 1.5 1.2 2.4 1.7 0 0 1.6-2 2.8-2.5s2.1-1.7 2.1-1.7l-.3-.3-.1-.1c-.2-.3-.6-.7-1-1.2-.2.2-.6 1.4-2.6 2.3zM-20.3 29.9c-.2.5-.8 1.1-1.3 1.5s1-.6 2.4-1.3v-.2-.5-.2c0-.1 0-.2.1-.3.3-.8.8-1.2.9-1.6v-.2c-.5.5-1.8 2.1-2.1 2.8z" fill="#2B90A1"/><path d="M-21.6 31.4s0 .1 0 0l-.6.4c-.4.3-.7.9-.4 1.5.2.3.3.6.4.8.3.6.5.9.5.9l.1.2 5.5-3c-.1-.3-.2-.5-.2-.9-.1.1-.2.1-.3.1-.3 0-.6-.3-.6-.6s.3-.6.6-.6c.2 0 .4.1.5.3.3-.6.9-1 1.6-1 .2 0 .3 0 .5.1 0-.1.1-.1.1-.2.1-.1.3 0 .4.1.1.1 0 .2 0 .3.2.2.5.4.6.7l6.7-3.7-.1-.1-.6-1.2-.5.3s-.9-.5-2.4.7c0 0-1.6-.5-4.3.9-.3.2-.7.3-1 .5-1.3.7-2.8 1.5-4.1 2.2-1.4.8-2.4 1.3-2.4 1.3zm9.1-4.1c1.1-.4 2.1-.3 2.2-.3.2 0 .3.2.3.4s-.2.3-.4.3c0 0-.8-.1-1.7.2-.3.1-.5.1-.6-.1-.1-.2 0-.4.2-.5zm-.6 1.8c.1-.1.3 0 .3.1s0 .2-.1.3c-.1.1-.3 0-.3-.1-.1-.1 0-.3.1-.3zm-.6-.4c.1 0 .2 0 .2.1s0 .1-.1.2c-.1 0-.2 0-.2-.1s0-.2.1-.2z" fill="#F4F4F4"/><path d="M-6.2 26.7h.1l.7 1.2-.2.1.1.1s.6-.3.8-.5c.4-.1.2-.4.2-.4l-.6-1.1-.1-.1-.6-1.1s-.1-.3-.4-.2c-.2.1-.8.5-.8.5l.1.2.7 1.3z" fill="#D6D6D6"/><path d="M-6.1 26.7l-6.8 3.7c.1.2.2.4.2.6.1-.1.3-.1.4-.1.6 0 1 .4 1 1s-.4 1-1 1c-.3 0-.6-.2-.8-.5-.3.4-.8.7-1.4.7-.7 0-1.3-.4-1.6-.9l-5.5 3v.1l.5.9c.1.2.3.5.4.8.7 1.2 2.3.1 2.3.1s4.8-2.7 7.5-4.1c2.7-1.5 3.1-3.1 3.1-3.1C-6 29.3-6 28.2-6 28.2l.4-.2.2-.1-.7-1.2z" fill="#EAEAEA"/><path d="M-12.1 27.9c.9-.3 1.7-.2 1.7-.2.2 0 .4-.1.4-.3s-.1-.4-.3-.4c-.1 0-1.1-.1-2.2.3-.2.1-.3.3-.2.5.1.2.3.2.6.1z" fill="#FFF"/><path d="M-14.5 33.1c.6 0 1.1-.3 1.4-.7-.1-.2-.2-.3-.2-.5 0-.4.2-.7.6-.9 0-.2-.1-.4-.2-.6-.1-.3-.3-.5-.6-.7l-.1.1c-.1.1-.3 0-.4-.1-.1-.1 0-.1 0-.2-.2 0-.3-.1-.5-.1-.7 0-1.3.4-1.6 1 .1.1.1.2.1.3 0 .2-.1.4-.3.5 0 .3.1.6.2.9.3.7.9 1 1.6 1z" fill="#DA1B51"/><path d="M-16 30.8c0-.1 0-.2-.1-.3-.1-.2-.3-.3-.5-.3-.3 0-.6.3-.6.6s.3.6.6.6c.1 0 .2 0 .3-.1.2-.1.3-.2.3-.5z" fill="#62BA47"/><path d="M-12.9 29.5c.1-.1.1-.2.1-.3 0-.1-.2-.2-.3-.1-.1 0-.2.2-.1.3 0 .1.2.2.3.1z" fill="#DA1B51"/><path d="M-14 29.8c.1.1.3.2.4.1l.1-.1c.1-.1.1-.2 0-.3-.1-.1-.3-.2-.4-.1 0 0-.1.1-.1.2s-.1.2 0 .2zM-13.6 29c.1-.1.1-.1.1-.2s-.1-.1-.2-.1-.1.1-.1.2.1.1.2.1zM-13.3 31.9c0 .2.1.4.2.5.2.3.5.5.8.5.6 0 1-.4 1-1s-.4-1-1-1c-.2 0-.3 0-.4.1-.4.2-.6.5-.6.9z" fill="#62BA47"/></svg>