<svg id="Layer_1" xmlns="http://www.w3.org/2000/svg" viewBox="-486 476 50 50"><style>.st0{fill:none;} .st1{fill:#F6693E;} .st2{fill:#F65D37;}</style><circle class="st0" cx="-461" cy="501" r="25"/><circle class="st1" cx="-461" cy="501" r="25"/><path class="st0" d="M-455.4 525.4l.2.3.3-.4c-.1 0-.3.1-.5.1z"/><path class="st2" d="M-473.5 479.3c-4.1 2.4-7.5 5.9-9.7 10.1l1.6 2 8.7-11.4-.6-.7zM-464.1 491.5l8.8-11.4-3.1-4c-.9-.1-1.8-.1-2.6-.1-3.8 0-7.3.8-10.5 2.3l-1.4 1.8 8.8 11.4z"/><path class="st2" d="M-446.6 491.5l4.9-6.4c-3-3.6-6.9-6.4-11.5-7.9l-2.2 2.8 8.8 11.5zM-472.9 502.9l-8.7-11.4-4 5.2c-.2 1.4-.4 2.8-.4 4.3 0 3.8.9 7.5 2.4 10.7l2 2.6 8.7-11.4zM-472.9 502.9l8.8 11.4 8.8-11.4-8.8-11.4z"/><path class="st2" d="M-455.3 502.9l8.7 11.4 8.8-11.4-8.8-11.4zM-436 500.6l-1.8 2.3 1.5 1.9c.2-1.3.3-2.5.3-3.8v-.4zM-455.5 525.4l-8.6-11-7.3 9.3c3.2 1.4 6.7 2.3 10.4 2.3 1.9 0 3.7-.2 5.5-.6zM-455 525.3c4.5-1.1 8.5-3.4 11.7-6.6l-3.3-4.2-8.4 10.8z"/></svg>