<svg xmlns="http://www.w3.org/2000/svg" viewBox="120 -173 380 380"><path fill="none" d="M120-172.4h380v380H120z"/><path fill="#FFF" d="M120-172.9h380v341.2H120z"/><path fill="none" d="M120-172.4h380v380H120z"/><path fill="#408EA0" d="M120-173.7h380v235H120z"/><path fill="none" d="M120-172.4h380v380H120z"/><path fill="#FFD5BB" d="M187-62.9h6v22h-6z"/><path fill="#FF7543" d="M220-36.6l-18-27.5-18 27.5v78.7h36"/><path fill="#FFD5BB" d="M184 14.1h36v28h-36z"/><path d="M194.6 42V24.8c0-2-1.6-3.6-3.6-3.6s-3.6 1.6-3.6 3.6V42h7.2z" fill="#DF3300"/><path fill="#FFD5BB" d="M184 8.1h36v3h-36z"/><path d="M197.9 9.3V-3.1c0-2-1.6-3.6-3.6-3.6s-3.6 1.6-3.6 3.6V9.3h7.2z" fill="#DF3300"/><path d="M199.3 10.7h-10V-3.2c0-2.8 2.3-5 5-5 2.8 0 5 2.3 5 5v13.9zm-7.2-2.9h4.3v-11c0-1.2-1-2.2-2.2-2.2s-2.2 1-2.2 2.2l.1 11z" fill="#FFD5BB"/><path d="M213.7 9.3V-3.1c0-2-1.6-3.6-3.6-3.6s-3.6 1.6-3.6 3.6V9.3h7.2z" fill="#DF3300"/><path d="M215.1 10.7h-10V-3.2c0-2.8 2.3-5 5-5 2.8 0 5 2.3 5 5v13.9zm-7.2-2.9h4.3v-11c0-1.2-1-2.2-2.2-2.2s-2.2 1-2.2 2.2l.1 11zM184-13.9h36v3h-36z" fill="#FFD5BB"/><path d="M197.9-13.1v-12.4c0-2-1.6-3.6-3.6-3.6s-3.6 1.6-3.6 3.6v12.4h7.2z" fill="#DF3300"/><path d="M199.3-11.7h-10v-13.9c0-2.8 2.3-5 5-5 2.8 0 5 2.3 5 5v13.9zm-7.2-2.9h4.3v-11c0-1.2-1-2.2-2.2-2.2s-2.2 1-2.2 2.2l.1 11z" fill="#FFD5BB"/><path d="M213.7-13.1v-12.4c0-2-1.6-3.6-3.6-3.6s-3.6 1.6-3.6 3.6v12.4h7.2z" fill="#DF3300"/><path d="M215.1-11.7h-10v-13.9c0-2.8 2.3-5 5-5 2.8 0 5 2.3 5 5v13.9zm-7.2-2.9h4.3v-11c0-1.2-1-2.2-2.2-2.2s-2.2 1-2.2 2.2l.1 11c-.1 0 0 0 0 0zM184-36.9h36v3h-36z" fill="#FFD5BB"/><path d="M205.8-36v-12.4c0-2-1.6-3.6-3.6-3.6s-3.6 1.6-3.6 3.6V-36h7.2z" fill="#DF3300"/><path d="M207.2-34.6h-10v-13.9c0-2.8 2.3-5 5-5 2.8 0 5 2.3 5 5v13.9zm-7.2-2.8h4.3v-11c0-1.2-1-2.2-2.2-2.2s-2.2 1-2.2 2.2l.1 11z" fill="#FFD5BB"/><path d="M217.1 42V24.8c0-2-1.6-3.6-3.6-3.6s-3.6 1.6-3.6 3.6V42h7.2z" fill="#DF3300"/><path d="M206.5 42V21.5c0-2.4-1.9-4.3-4.3-4.3s-4.3 1.9-4.3 4.3V42h8.6zM222.2-38.9l-18.5-28.3c-.3-.5-.9-.8-1.5-.7-.6 0-1.2.2-1.5.7l-18.5 28.3c-.5.8-.3 1.8.5 2.3s1.8.3 2.3-.5l17.3-26.3 17.3 26.3c.5.8 1.5 1 2.3.5.6-.5.8-1.5.3-2.3zM272-39.9h5v22h-5z" fill="#454C53"/><path fill="#DF3300" d="M281-14.2l-18.5-27.5L244-14.2v56.3h37"/><path fill="#454C53" d="M244 14.1h37v28h-37z"/><path d="M254.5 42V24.8c0-2-1.6-3.6-3.6-3.6s-3.6 1.6-3.6 3.6V42h7.2zM257-3.2c0-1.2-1.3-2.2-2.5-2.2s-2.5 1-2.5 2.2V7.1h5V-3.2zM273-3.2c0-1.2-1.3-2.2-2.5-2.2s-2.5 1-2.5 2.2V7.1h5V-3.2z" fill="#FFD5BB"/><path d="M276-3.2c0-2.8-2.7-5-5.5-5s-5.5 2.3-5.5 5V8.1h-5V-3.2c0-2.8-2.2-5-5-5s-5 2.3-5 5V8.1h-6v3h37v-3h-5V-3.2zm-8 0c0-1.2 1.3-2.2 2.5-2.2s2.5 1 2.5 2.2V7.1h-5V-3.2zm-16 0c0-1.2 1.3-2.2 2.5-2.2s2.5 1 2.5 2.2V7.1h-5V-3.2zM268-13.9V-26c0-2.8-2.7-5-5.5-5s-5.5 2.3-5.5 5v12.1h-13v3h37v-3h-13zM260-26c0-1.2 1.3-2.2 2.5-2.2s2.5 1 2.5 2.2v11.1h-5V-26z" fill="#454C53"/><path d="M265-26c0-1.2-1.3-2.2-2.5-2.2s-2.5 1-2.5 2.2v11.1h5V-26zM277 42V24.8c0-2-1.6-3.6-3.6-3.6s-3.6 1.6-3.6 3.6V42h7.2z" fill="#FFD5BB"/><path d="M266.3 42V21.5c0-2.4-1.9-4.3-4.3-4.3s-4.3 1.9-4.3 4.3V42h8.6zM282.1-16.5l-18.5-28.3c-.3-.5-.9-.8-1.5-.7-.6 0-1.2.2-1.5.7L242-16.5c-.5.8-.3 1.8.5 2.3s1.8.3 2.3-.5L262.1-41l17.3 26.3c.5.8 1.5 1 2.3.5.7-.5.9-1.5.4-2.3z" fill="#FF7543"/><g><path d="M233 40.2c0 1.1-1.1 1.9-2.2 1.9h-.2c-1 0-1.6-.9-1.6-1.9V24c0-1.1.6-1.9 1.6-1.9h.2c1 0 2.2.9 2.2 1.9v16.2z" fill="#785105"/><path fill="#92CCDB" d="M242.6 32.1h-22.4l11.2-51.4"/><path fill="#FFF" d="M238.8 14.3L231.4-19l-7.9 33.3"/></g><g><path fill="#6DAAC5" d="M290-48.9h7v28h-7z"/><path fill="#92CCDB" d="M330-20l-22-34.9L286-20v62.1h44"/><path fill="#FFF" d="M286 6.1h44v4h-44zM285 23.1h46v19h-46z"/><path d="M298.4 42V20.1c0-2.5-2-4.6-4.6-4.6-2.5 0-4.6 2.1-4.6 4.6V42h9.2zM327 42V20.1c0-2.5-2-4.6-4.6-4.6-2.5 0-4.6 2.1-4.6 4.6V42h9.2z" fill="#FF7543"/><path fill="#FFF" d="M286-25.9h44v3h-44z"/><path d="M313.4 42V18.8c0-3-2.4-5.5-5.4-5.5s-5.4 2.4-5.4 5.5V42h10.8z" fill="#454C53"/><path d="M333.5-22.9l-23.6-36c-.4-.7-1.2-1-1.9-.9-.7-.1-1.5.3-1.9.9l-23.6 36c-.6 1-.4 2.3.6 2.9s2.3.4 2.9-.6l22-33.5 22 33.5c.6 1 2 1.3 2.9.6 1-.6 1.2-1.9.6-2.9z" fill="#DF3300"/><path fill="#FFF" d="M286-2.9h44v3h-44z"/><path d="M297.4-1.2v-12.4c0-2-1.6-3.6-3.6-3.6s-3.6 1.6-3.6 3.6v12.4h7.2z" fill="#DF3300"/><path d="M298.8.2h-10v-13.9c0-2.8 2.3-5 5-5s5 2.3 5 5V.2zm-7.2-2.8h4.3v-11c0-1.2-1-2.2-2.2-2.2s-2.2 1-2.2 2.2v11h.1z" fill="#FFF"/><path d="M326.4-1.2v-12.4c0-2-1.6-3.6-3.6-3.6s-3.6 1.6-3.6 3.6v12.4h7.2z" fill="#DF3300"/><path d="M327.8.2h-10v-13.9c0-2.8 2.3-5 5-5 2.8 0 5 2.3 5 5V.2zm-7.2-2.8h4.3v-11c0-1.2-1-2.2-2.2-2.2s-2.2 1-2.2 2.2v11h.1z" fill="#FFF"/><g><path d="M311.6-1.2v-12.4c0-2-1.6-3.6-3.6-3.6s-3.6 1.6-3.6 3.6v12.4h7.2z" fill="#DF3300"/><path d="M313 .2h-10v-13.9c0-2.8 2.3-5 5-5 2.8 0 5 2.3 5 5V.2zm-7.2-2.8h4.3v-11c0-1.2-1-2.2-2.2-2.2s-2.2 1-2.2 2.2l.1 11z" fill="#FFF"/></g><g><path d="M311.6-25.7v-12.4c0-2-1.6-3.6-3.6-3.6s-3.6 1.6-3.6 3.6v12.4h7.2z" fill="#DF3300"/><path d="M313-24.3h-10v-13.9c0-2.8 2.3-5 5-5 2.8 0 5 2.3 5 5v13.9zm-7.2-2.9h4.3v-11c0-1.2-1-2.2-2.2-2.2s-2.2 1-2.2 2.2l.1 11z" fill="#FFF"/></g></g><g><path fill="#DF3300" d="M378-28.9h7v22h-7z"/><path fill="#454C53" d="M343-5.7l23.5-25.4L390-5.7v47.8h-47"/><path fill="#FFD5BB" d="M343 23.1h47v19h-47z"/><path d="M385.5 42v-9.9c0-2.5-2-4.6-4.6-4.6-2.5 0-4.6 2.1-4.6 4.6V42h9.2zM356.8 42v-9.9c0-2.5-2-4.6-4.6-4.6-2.5 0-4.6 2.1-4.6 4.6V42h9.2z" fill="#454C53"/><path fill="#FFD5BB" d="M343-6.9h47v3h-47z"/><path d="M372.2 42V30.8c0-3-2.4-5.5-5.4-5.5s-5.4 2.4-5.4 5.5V42h10.8z" fill="#454C53"/><path d="M341.2-8.6l23.6-26.5c.4-.7 1.2-1 1.9-.9.7-.1 1.5.3 1.9.9l23.6 26.5c.6 1 .4 2.3-.6 2.9s-2.3.4-2.9-.6l-22-24-22 24c-.6 1-2 1.3-2.9.6-1-.6-1.2-1.9-.6-2.9z" fill="#FF7543"/><path fill="#FFD5BB" d="M343 16.1h47v4h-47z"/><path d="M377.3 17.8V5.4c0-2 1.6-3.6 3.6-3.6s3.6 1.6 3.6 3.6v12.4h-7.2z" fill="#DF3300"/><path d="M385.9 19.3h-10V5.4c0-2.8 2.3-5 5-5s5 2.3 5 5v13.9zm-7.2-2.9h4.3v-11c0-1.2-1-2.2-2.2-2.2s-2.2 1-2.2 2.2l.1 11z" fill="#FFD5BB"/><path d="M348.3 17.8V5.4c0-2 1.6-3.6 3.6-3.6s3.6 1.6 3.6 3.6v12.4h-7.2z" fill="#DF3300"/><path d="M356.9 19.3h-10V5.4c0-2.8 2.3-5 5-5 2.8 0 5 2.3 5 5v13.9zm-7.1-2.9h4.3v-11c0-1.2-1-2.2-2.2-2.2s-2.2 1-2.2 2.2l.1 11z" fill="#FFD5BB"/><g><path d="M363.1 17.8V5.4c0-2 1.6-3.6 3.6-3.6s3.6 1.6 3.6 3.6v12.4h-7.2z" fill="#DF3300"/><path d="M371.7 19.3h-10V5.4c0-2.8 2.3-5 5-5 2.8 0 5 2.3 5 5v13.9zm-7.1-2.9h4.3v-11c0-1.2-1-2.2-2.2-2.2s-2.2 1-2.2 2.2v11h.1z" fill="#FFD5BB"/></g><g><path d="M363.1-6.7v-12.4c0-2 1.6-3.6 3.6-3.6s3.6 1.6 3.6 3.6v12.4h-7.2z" fill="#DF3300"/><path d="M371.7-5.3h-10v-13.9c0-2.8 2.3-5 5-5 2.8 0 5 2.3 5 5v13.9zm-7.1-2.8h4.3v-11c0-1.2-1-2.2-2.2-2.2s-2.2 1-2.2 2.2v11h.1z" fill="#FFD5BB"/></g></g><g><path d="M342 40.6c0 .8-.2 1.5-1.1 1.5-.8 0-1.9-.7-1.9-1.5v-14c0-.8 1.1-1.5 1.9-1.5.8 0 1.1.7 1.1 1.5v14z" fill="#785105"/><path fill="#6DAAC5" d="M350.9 34.1h-19.1l9.6-31.6"/><path fill="#FFF" d="M346.5 18.4l-5.1-16.2-5.1 16.2"/></g><g><path d="M172 40.2c0 1.1-1 1.9-2 1.9h-.2c-1 0-1.8-.9-1.8-1.9V24c0-1.1.7-1.9 1.8-1.9h.2c1 0 2 .9 2 1.9v16.2z" fill="#785105"/><path fill="#6DAAC5" d="M181.3 32.1h-22.4L170.1-5"/><path fill="#FFF" d="M176.1 14.3l-6-19-6 19"/><path d="M161 40.2c0 1.1-1 1.9-2 1.9h-.2c-1 0-1.8-.9-1.8-1.9V24c0-1.1.8-1.9 1.8-1.9h.2c1 0 2 .9 2 1.9v16.2z" fill="#785105"/><path fill="#92CCDB" d="M166.1 36.1h-14.8l7.4-24.6"/><path fill="#FFF" d="M162.7 24.2l-4-12.6-3.9 12.6"/><g><path d="M452 24c0-1.1-.7-1.9-1.8-1.9h-.2c-1 0-2 .9-2 1.9v16.2c0 1.1 1 1.9 2 1.9h.2c1 0 1.8-.9 1.8-1.9V24z" fill="#785105"/><path fill="#6DAAC5" d="M439.2 32.1h22.4L450.4-5"/><path fill="#FFF" d="M444.4 14.3l6-19 6 19"/></g><g><path d="M464 24c0-1.1-.8-1.9-1.8-1.9h-.2c-1 0-2 .9-2 1.9v16.2c0 1.1 1 1.9 2 1.9h.2c1 0 1.8-.9 1.8-1.9V24z" fill="#785105"/><path fill="#92CCDB" d="M454.4 36.1h14.8l-7.4-24.6"/><path fill="#FFF" d="M457.9 24.2l3.9-12.6 4 12.6"/></g></g><g><path d="M394 40.2c0 1.1-.6 1.9-1.6 1.9h-.2c-1 0-2.2-.9-2.2-1.9V24c0-1.1 1.1-1.9 2.2-1.9h.2c1 0 1.6.9 1.6 1.9v16.2z" fill="#785105"/><path fill="#92CCDB" d="M399.9 36.1h-14.8l7.4-24.6"/><path fill="#FFF" d="M396.4 24.2l-3.9-12.6-4 12.6"/></g><g><path fill="#785105" d="M437-36.6l-18-27.5-18 27.5v78.7h36"/><path fill="#E0EAE2" d="M401 14.1h36v28h-36z"/><path fill="none" d="M401 14.1h36v28h-36z"/><path d="M424.8 49V22.8c0-3-2.4-5.5-5.5-5.5s-5.5 2.5-5.5 5.5V49h11z" fill="#FF7543"/><path d="M426.2 50.4h-13.8V22.8c0-3.8 3.1-6.9 6.9-6.9s6.9 3.1 6.9 6.9v27.6zm-10.9-2.9h8.1V22.8c0-2.2-1.8-4-4-4s-4 1.8-4 4l-.1 24.7zM401-36.9h36v3h-36z" fill="#E0EAE2"/><path d="M422.9-11.6V-24c0-2-1.6-3.6-3.6-3.6s-3.6 1.6-3.6 3.6v12.4h7.2z" fill="#FF7543"/><path d="M424.3-10.1h-10V-24c0-2.8 2.3-5 5-5s5 2.3 5 5v13.9zm-7.2-2.9h4.3v-11c0-1.2-1-2.2-2.2-2.2s-2.2 1-2.2 2.2l.1 11c-.1 0 0 0 0 0z" fill="#E0EAE2"/><path d="M422.9 13.3V.4c0-2-1.6-3.6-3.6-3.6s-3.6 1.6-3.6 3.6v12.9h7.2z" fill="#FF7543"/><path d="M424.3 14.8h-10V.5c0-2.8 2.3-5 5-5s5 2.3 5 5v14.3zm-7.2-2.9h4.3V.4c0-1.2-1-2.2-2.2-2.2S417-.8 417 .4l.1 11.5z" fill="#E0EAE2"/><path d="M433.8 42V28c0-1.6-1.3-2.9-2.9-2.9S428 26.4 428 28v14h5.8zM411 42V28c0-1.6-1.3-2.9-2.9-2.9s-2.9 1.3-2.9 2.9v14h5.8z" fill="#92CCDB"/><path d="M439.3-38.9l-18.5-28.3c-.3-.5-.9-.8-1.5-.7-.6 0-1.2.2-1.5.7l-18.5 28.3c-.5.8-.3 1.8.5 2.3s1.8.3 2.3-.5l17.3-26.3 17.3 26.3c.5.8 1.5 1 2.3.5.6-.5.8-1.5.3-2.3z" fill="#FF7543"/><g><ellipse cx="419.3" cy="-46.1" rx="4.8" ry="4.8" fill="#FF7543"/><path d="M419.3-40c-3.4 0-6.2-2.8-6.2-6.2s2.8-6.2 6.2-6.2c3.4 0 6.2 2.8 6.2 6.2s-2.8 6.2-6.2 6.2zm0-9.5c-1.8 0-3.3 1.5-3.3 3.3s1.5 3.3 3.3 3.3 3.3-1.5 3.3-3.3-1.5-3.3-3.3-3.3z" fill="#E0EAE2"/></g></g><path fill="none" d="M120-172.4h380v380H120z"/><g><path fill="#92CCDB" d="M120 68.1h380v139H120z"/></g><g><path fill="none" d="M120 68.1h380v139H120z"/><path fill="#528094" d="M120 66.4h380v5.1H120z"/></g><path fill="none" d="M120 68.1h380v139H120z"/><path opacity=".7" fill="#FFF" d="M415.7 145.4l-68.9 62.2h60.5l56.7-74.7-211.9-2.8L309 84l-147.9 16.3 72 7.6-44.2 63.3"/><path fill="none" d="M120-172.4h380v380H120z"/><g opacity=".7" fill="#FFF"><path d="M184-145.7c-3 0-3 4.5 0 4.5s3-4.5 0-4.5zM167.1-108.8c-.4-.7-.9-1.2-1.6-1.6-.1-.1-.2-.1-.4-.2-.7-.4-1.5-.6-2.4-.6s-1.7.2-2.4.6c-1.4.8-2.4 2.4-2.4 4.1s.9 3.3 2.4 4.1c.7.4 1.5.6 2.4.6s1.7-.2 2.4-.6c.1-.1.2-.1.4-.2.7-.4 1.2-.9 1.6-1.6.4-.7.6-1.5.6-2.3s-.2-1.6-.6-2.3zM196-122.3c-3 0-3 3.8 0 3.8 2 0 2-3.8 0-3.8zM168-71.1c-2 0-2 3.1 0 3.1s2-3.1 0-3.1zM146-95.5c-2 0-2 2.9 0 2.9s2-2.9 0-2.9zM141.4-64.9s0-.1-.1-.1l-.2-.2c-.3-.3-.6-.4-1-.4-.5 0-.8.4-.8.8s.3.7.7.8l.1.1c.3.3.7.3 1.1.2.6 0 .7-.8.2-1.2zM188-85.7c-2 0-2 2.6 0 2.6s2-2.6 0-2.6zM189-62.3c-1 0-1 1.9 0 1.9s1-1.9 0-1.9zM206.4-93.3c-1.9 0-3.6 1.6-3.6 3.6s1.6 3.6 3.6 3.6 3.6-1.6 3.6-3.6-1.7-3.6-3.6-3.6zM160-51.1c-4 0-4 7.4 0 7.4 5-.1 5-7.4 0-7.4zM181-39.1c-4 0-4 6.3 0 6.3s4-6.3 0-6.3zM141-29.6c-4 0-4 5.6 0 5.6s4-5.6 0-5.6zM139-83c-3 0-3 3.9 0 3.9 2 0 2-3.9 0-3.9zM127-65c-2 0-2 3.4 0 3.4s2-3.4 0-3.4zM125-48.4c-2 0-2 2.9 0 2.9s2-2.9 0-2.9zM127.7-110.4c-.3-.3-.6-.4-1-.4-.6 0-.9.3-1.2.7-.4.5-.6 1-.5 1.6s.4 1.1 1 1.3c.3.1.7 0 1-.1.3-.2.5-.5.6-.8.1-.1.2-.1 0 0 .3-.2.5-.4.6-.8 0-.6-.1-1.1-.5-1.5zM169-128.9c-1 0-1 1.5 0 1.5s1-1.5 0-1.5zM184-113.7c-1 0-1 2 0 2s1-2 0-2zM220-113.9c-2 0-2 3.2 0 3.2s2-3.2 0-3.2zM230-154.1c-1 0-1 2 0 2 2 0 2-2 0-2zM197.5-162.8c-.3-.5-1-.9-1.5-.6l-.6.3c-.2.2-.4.6-.4.9 0 .2.1.5.2.7.2.3.4.5.8.6.5.2 1.2-.1 1.5-.6.3-.4.3-1 0-1.3zM171-167.1c-3 0-3 5.1 0 5.1s3-5.1 0-5.1zM127-153.1c-1 0-1 2 0 2s1-2 0-2zM233-51.4c-3 0-3 4.1 0 4.1 2 0 2-4.1 0-4.1zM231-99.9c-2 0-2 4.1 0 4.1 3 0 3-4.1 0-4.1zM246-115.1c-2 0-2 2.8 0 2.8s2-2.8 0-2.8zM252.8-154.2c-.5-.4-1-.7-1.7-.7-.8 0-1.6.5-2 1.2s-.4 1.7 0 2.4c.3.6 1 1.1 1.7 1.2 0 0 .1 0 .1.1h-.1c.2.1.4.1.6.1.4 0 .7-.1 1-.3.7-.4 1.1-1.2 1.1-1.9.2-.9-.2-1.7-.7-2.1zM226.4-55.1c-.4-1.5-1.8-2.5-3.3-2.5s-2.9 1-3.3 2.5c-.2.6-.2 1.2 0 1.8.1.3.2.5.3.8.3.5.7.9 1.2 1.2.1 0 .1.1.2.1.8.6 2.2.6 3 0 .1 0 .1-.1.2-.1.5-.3.9-.7 1.2-1.2.7-.7.8-1.7.5-2.6zM279-145.2c-7 0-7 11.2 0 11.2 8 0 8-11.2 0-11.2zM313-145.7c-3 0-3 4.5 0 4.5s3-4.5 0-4.5zM325-122.3c-3 0-3 3.8 0 3.8 2 0 2-3.8 0-3.8zM297-71.1c-2 0-2 3.1 0 3.1s2-3.1 0-3.1zM275-95.5c-2 0-2 2.9 0 2.9s2-2.9 0-2.9zM270.6-64.9s0-.1-.1-.1l-.2-.2c-.3-.3-.6-.4-1-.4-.5 0-.8.4-.8.8s.3.7.7.8l.1.1c.3.3.7.3 1.1.2.6 0 .7-.8.2-1.2zM268-83c-3 0-3 3.9 0 3.9 2 0 2-3.9 0-3.9zM256-65c-2 0-2 3.4 0 3.4s2-3.4 0-3.4zM256.8-110.4c-.3-.3-.6-.4-1-.4-.6 0-.9.3-1.2.7-.4.5-.6 1-.5 1.6s.4 1.1 1 1.3c.3.1.7 0 1-.1.3-.2.5-.5.6-.8.1-.1.2-.1 0 0 .3-.2.5-.4.6-.8.1-.6-.1-1.1-.5-1.5zM299-128.9c-1 0-1 1.5 0 1.5s1-1.5 0-1.5zM313-113.7c-1 0-1 2 0 2s1-2 0-2zM349-113.9c-2 0-2 3.2 0 3.2 3 0 3-3.2 0-3.2zM360-154.1c-2 0-2 2 0 2 1 0 1-2 0-2zM326.6-162.8c-.3-.5-1-.9-1.5-.6l-.6.3c-.2.2-.4.6-.4.9 0 .2.1.5.2.7.2.3.4.5.8.6.5.2 1.2-.1 1.5-.6.3-.4.3-1 0-1.3zM300-167.1c-3 0-3 5.1 0 5.1s3-5.1 0-5.1zM256-153.1c-1 0-1 2 0 2 2 0 2-2 0-2zM360-99.9c-2 0-2 4.1 0 4.1 3 0 3-4.1 0-4.1zM375-115.1c-2 0-2 2.8 0 2.8s2-2.8 0-2.8zM382-154.2c-.5-.4-1-.7-1.7-.7-.8 0-1.6.5-2 1.2s-.4 1.7 0 2.4c.3.6 1 1.1 1.7 1.2 0 0 .1 0 .1.1h-.1c.2.1.4.1.6.1.4 0 .7-.1 1-.3.7-.4 1.1-1.2 1.1-1.9.1-.9-.2-1.7-.7-2.1zM442-145.7c-3 0-3 4.5 0 4.5s3-4.5 0-4.5zM454-122.3c-2 0-2 3.8 0 3.8 3 0 3-3.8 0-3.8zM426-71.1c-2 0-2 3.1 0 3.1s2-3.1 0-3.1zM404-95.5c-2 0-2 2.9 0 2.9s2-2.9 0-2.9zM399.7-64.9s0-.1-.1-.1l-.2-.2c-.3-.3-.6-.4-1-.4-.5 0-.8.4-.8.8s.3.7.7.8l.1.1c.3.3.7.3 1.1.2.6 0 .7-.8.2-1.2zM446-85.7c-1 0-1 2.6 0 2.6 2 0 2-2.6 0-2.6zM447-62.3c-1 0-1 1.9 0 1.9 2 0 2-1.9 0-1.9zM464.7-93.3c-1.9 0-3.6 1.6-3.6 3.6s1.6 3.6 3.6 3.6 3.6-1.6 3.6-3.6-1.7-3.6-3.6-3.6zM419-51.1c-5 0-5 7.4 0 7.4 4-.1 4-7.4 0-7.4zM440-39.1c-4 0-4 6.3 0 6.3s4-6.3 0-6.3zM399-29.6c-3 0-3 5.6 0 5.6 4 0 4-5.6 0-5.6zM397-83c-3 0-3 3.9 0 3.9 2 0 2-3.9 0-3.9zM385-65c-2 0-2 3.4 0 3.4 3 0 3-3.4 0-3.4zM383-48.4c-2 0-2 2.9 0 2.9s2-2.9 0-2.9zM386-110.4c-.3-.3-.6-.4-1-.4-.6 0-.9.3-1.2.7-.4.5-.6 1-.5 1.6s.4 1.1 1 1.3c.3.1.7 0 1-.1.3-.2.5-.5.6-.8.1-.1.2-.1 0 0 .3-.2.5-.4.6-.8 0-.6-.1-1.1-.5-1.5zM428-128.9c-1 0-1 1.5 0 1.5s1-1.5 0-1.5zM442-113.7c-1 0-1 2 0 2s1-2 0-2zM479-113.9c-2 0-2 3.2 0 3.2s2-3.2 0-3.2zM489-154.1c-2 0-2 2 0 2 1 0 1-2 0-2zM455.8-162.8c-.3-.5-1-.9-1.5-.6l-.6.3c-.2.2-.4.6-.4.9 0 .2.1.5.2.7.2.3.4.5.8.6.5.2 1.2-.1 1.5-.6.3-.4.3-1 0-1.3zM429-167.1c-3 0-3 5.1 0 5.1s3-5.1 0-5.1zM385-153.1c-1 0-1 2 0 2 2 0 2-2 0-2zM491-51.4c-3 0-3 4.1 0 4.1s3-4.1 0-4.1zM490-99.9c-3 0-3 4.1 0 4.1 2 0 2-4.1 0-4.1zM484.7-55.1c-.4-1.5-1.8-2.5-3.3-2.5s-2.9 1-3.3 2.5c-.2.6-.2 1.2 0 1.8.1.3.2.5.3.8.3.5.7.9 1.2 1.2.1 0 .1.1.2.1.8.6 2.2.6 3 0 .1 0 .1-.1.2-.1.5-.3.9-.7 1.2-1.2.6-.7.8-1.7.5-2.6zM184 8.9c-3 0-3 4.5 0 4.5s3-4.5 0-4.5zM196 32.2c-3 0-3 3.8 0 3.8 2 .1 2-3.8 0-3.8zM168 83.5c-2 0-2 3.1 0 3.1s2-3.1 0-3.1zM146 59.1c-2 0-2 2.9 0 2.9s2-2.9 0-2.9zM141.4 89.7s0-.1-.1-.1l-.2-.2c-.3-.3-.6-.4-1-.4-.5 0-.8.4-.8.8s.3.7.7.8l.1.1c.3.3.7.3 1.1.2.6 0 .7-.9.2-1.2zM189 92.2c-1 0-1 1.9 0 1.9s1-1.9 0-1.9zM160 103.5c-4 0-4 7.4 0 7.4 5-.1 5-7.4 0-7.4zM141 125c-4 0-4 5.6 0 5.6s4-5.6 0-5.6zM139 71.6c-3 0-3 3.9 0 3.9 2 0 2-3.9 0-3.9zM127 89.6c-2 0-2 3.4 0 3.4s2-3.4 0-3.4zM125 106.2c-2 0-2 2.9 0 2.9s2-2.9 0-2.9zM127.7 44.2c-.3-.3-.6-.4-1-.4-.6 0-.9.3-1.2.7-.4.5-.6 1-.5 1.6s.4 1.1 1 1.3c.3.1.7 0 1-.1.3-.2.5-.5.6-.8.1-.1.2-.1 0 0 .3-.2.5-.4.6-.8 0-.6-.1-1.2-.5-1.5zM169 25.7c-1 0-1 1.5 0 1.5s1-1.5 0-1.5zM184 40.8c-1 0-1 2 0 2s1-2 0-2zM220 40.7c-2 0-2 3.2 0 3.2s2-3.2 0-3.2zM230 .5c-1 0-1 2 0 2 2 0 2-2 0-2zM197.5-8.2c-.3-.5-1-.9-1.5-.6l-.6.3c-.2.2-.4.6-.4.9 0 .2.1.5.2.7.2.3.4.5.8.6.5.2 1.2-.1 1.5-.6.3-.4.3-1 0-1.3zM171-12.6c-3 0-3 5.1 0 5.1s3-5.1 0-5.1zM127 1.5c-1 0-1 2 0 2s1-2 0-2zM231 54.6c-2 0-2 4.1 0 4.1 3 .1 3-4.1 0-4.1zM246 39.5c-2 0-2 2.8 0 2.8s2-2.8 0-2.8zM252.8.4c-.5-.4-1-.7-1.7-.7-.8 0-1.6.5-2 1.2s-.4 1.7 0 2.4c.3.6 1 1.1 1.7 1.2 0 0 .1 0 .1.1h-.1c.2.1.4.1.6.1.4 0 .7-.1 1-.3.7-.4 1.1-1.2 1.1-1.9.2-.9-.2-1.7-.7-2.1zM313 8.9c-3 0-3 4.5 0 4.5s3-4.5 0-4.5zM325 32.2c-3 0-3 3.8 0 3.8 2 .1 2-3.8 0-3.8zM297 83.5c-2 0-2 3.1 0 3.1s2-3.1 0-3.1zM270.6 89.7s0-.1-.1-.1l-.2-.2c-.3-.3-.6-.4-1-.4-.5 0-.8.4-.8.8s.3.7.7.8l.1.1c.3.3.7.3 1.1.2.6 0 .7-.9.2-1.2zM317 68.9c-1 0-1 2.6 0 2.6 2 0 2-2.6 0-2.6zM318 92.2c-1 0-1 1.9 0 1.9s1-1.9 0-1.9zM335.5 61.3c-1.9 0-3.6 1.6-3.6 3.6s1.6 3.6 3.6 3.6 3.6-1.6 3.6-3.6-1.6-3.6-3.6-3.6zM311 115.5c-5 0-5 6.3 0 6.3 4 0 4-6.3 0-6.3zM256 89.6c-2 0-2 3.4 0 3.4s2-3.4 0-3.4zM254 106.2c-2 0-2 2.9 0 2.9s2-2.9 0-2.9zM256.8 44.2c-.3-.3-.6-.4-1-.4-.6 0-.9.3-1.2.7-.4.5-.6 1-.5 1.6s.4 1.1 1 1.3c.3.1.7 0 1-.1.3-.2.5-.5.6-.8.1-.1.2-.1 0 0 .3-.2.5-.4.6-.8.1-.6-.1-1.2-.5-1.5zM299 25.7c-1 0-1 1.5 0 1.5s1-1.5 0-1.5zM313 40.8c-1 0-1 2 0 2s1-2 0-2zM349 40.7c-2 0-2 3.2 0 3.2 3 0 3-3.2 0-3.2zM360 .5c-2 0-2 2 0 2 1 0 1-2 0-2zM326.6-8.2c-.3-.5-1-.9-1.5-.6l-.6.3c-.2.2-.4.6-.4.9 0 .2.1.5.2.7.2.3.4.5.8.6.5.2 1.2-.1 1.5-.6.3-.4.3-1 0-1.3zM300-12.6c-3 0-3 5.1 0 5.1s3-5.1 0-5.1zM336.3-21.1c-.4.1-.8.4-1.1.7-.7.6-.7 2 0 2.5.3.3.7.6 1.1.7 1.3.3 2.5-.6 2.5-1.9 0-1.3-1.2-2.3-2.5-2zM256 1.5c-1 0-1 2 0 2 2 0 2-2 0-2zM362 103.2c-3 0-3 4.1 0 4.1s3-4.1 0-4.1zM360 54.6c-2 0-2 4.1 0 4.1 3 .1 3-4.1 0-4.1zM375 39.5c-2 0-2 2.8 0 2.8s2-2.8 0-2.8zM382 .4c-.5-.4-1-.7-1.7-.7-.8 0-1.6.5-2 1.2s-.4 1.7 0 2.4c.3.6 1 1.1 1.7 1.2 0 0 .1 0 .1.1h-.1c.2.1.4.1.6.1.4 0 .7-.1 1-.3.7-.4 1.1-1.2 1.1-1.9.1-.9-.2-1.7-.7-2.1zM355.6 99.5c-.4-1.5-1.8-2.5-3.3-2.5s-2.9 1-3.3 2.5c-.2.6-.2 1.2 0 1.8.1.3.2.5.3.8.3.5.7.9 1.2 1.2.1 0 .1.1.2.1.8.6 2.2.6 3 0 .1 0 .1-.1.2-.1.5-.3.9-.7 1.2-1.2.6-.8.7-1.7.5-2.6zM442 8.9c-3 0-3 4.5 0 4.5s3-4.5 0-4.5zM454 32.2c-2 0-2 3.8 0 3.8 3 .1 3-3.8 0-3.8zM426 83.5c-2 0-2 3.1 0 3.1s2-3.1 0-3.1zM399.7 89.7s0-.1-.1-.1l-.2-.2c-.3-.3-.6-.4-1-.4-.5 0-.8.4-.8.8s.3.7.7.8l.1.1c.3.3.7.3 1.1.2.6 0 .7-.9.2-1.2zM446 68.9c-1 0-1 2.6 0 2.6 2 0 2-2.6 0-2.6zM447 92.2c-1 0-1 1.9 0 1.9 2 .1 2-1.9 0-1.9zM464.7 61.3c-1.9 0-3.6 1.6-3.6 3.6s1.6 3.6 3.6 3.6 3.6-1.6 3.6-3.6-1.7-3.6-3.6-3.6zM399 125c-3 0-3 5.6 0 5.6 4 0 4-5.6 0-5.6zM385 89.6c-2 0-2 3.4 0 3.4 3 0 3-3.4 0-3.4zM383 106.2c-2 0-2 2.9 0 2.9s2-2.9 0-2.9zM442 40.8c-1 0-1 2 0 2s1-2 0-2zM479 40.7c-2 0-2 3.2 0 3.2s2-3.2 0-3.2zM489 .5c-2 0-2 2 0 2 1 0 1-2 0-2zM455.8-8.2c-.3-.5-1-.9-1.5-.6l-.6.3c-.2.2-.4.6-.4.9 0 .2.1.5.2.7.2.3.4.5.8.6.5.2 1.2-.1 1.5-.6.3-.4.3-1 0-1.3zM429-12.6c-3 0-3 5.1 0 5.1s3-5.1 0-5.1zM465.5-21.1c-.4.1-.8.4-1.1.7-.7.6-.7 2 0 2.5.3.3.7.6 1.1.7 1.3.3 2.5-.6 2.5-1.9 0-1.3-1.3-2.3-2.5-2zM385 1.5c-1 0-1 2 0 2 2 0 2-2 0-2zM490 54.6c-3 0-3 4.1 0 4.1 2 .1 2-4.1 0-4.1zM141 141.8c-4 0-4 5.6 0 5.6s4-5.6 0-5.6zM270 141.8c-3 0-3 5.6 0 5.6 4 0 4-5.6 0-5.6zM184 180.2c-3 0-3 4.5 0 4.5s3-4.5 0-4.5zM169 197.1c-1 0-1 1.5 0 1.5s1-1.5 0-1.5zM230 171.9c-1 0-1 2 0 2 2 0 2-2 0-2zM197.5 163.2c-.3-.5-1-.9-1.5-.6l-.6.3c-.2.2-.4.6-.4.9 0 .2.1.5.2.7.2.3.4.5.8.6.5.2 1.2-.1 1.5-.6.3-.4.3-1 0-1.3zM171 158.8c-3 0-3 5.1 0 5.1s3-5.1 0-5.1zM207.2 150.3c-.4.1-.8.4-1.1.7-.7.6-.7 2 0 2.5.3.3.7.6 1.1.7 1.3.3 2.5-.6 2.5-1.9s-1.3-2.3-2.5-2zM127 172.9c-1 0-1 2 0 2s1-2 0-2zM252.8 171.8c-.5-.4-1-.7-1.7-.7-.8 0-1.6.5-2 1.2s-.4 1.7 0 2.4c.3.6 1 1.1 1.7 1.2 0 0 .1 0 .1.1h-.1c.2.1.4.1.6.1.4 0 .7-.1 1-.3.7-.4 1.1-1.2 1.1-1.9.2-.9-.2-1.7-.7-2.1zM313 180.2c-3 0-3 4.5 0 4.5s3-4.5 0-4.5zM299 197.1c-1 0-1 1.5 0 1.5s1-1.5 0-1.5zM360 171.9c-2 0-2 2 0 2 1 0 1-2 0-2zM326.6 163.2c-.3-.5-1-.9-1.5-.6l-.6.3c-.2.2-.4.6-.4.9 0 .2.1.5.2.7.2.3.4.5.8.6.5.2 1.2-.1 1.5-.6.3-.4.3-1 0-1.3zM300 158.8c-3 0-3 5.1 0 5.1s3-5.1 0-5.1zM336.3 150.3c-.4.1-.8.4-1.1.7-.7.6-.7 2 0 2.5.3.3.7.6 1.1.7 1.3.3 2.5-.6 2.5-1.9s-1.2-2.3-2.5-2zM382 171.8c-.5-.4-1-.7-1.7-.7-.8 0-1.6.5-2 1.2s-.4 1.7 0 2.4c.3.6 1 1.1 1.7 1.2 0 0 .1 0 .1.1h-.1c.2.1.4.1.6.1.4 0 .7-.1 1-.3.7-.4 1.1-1.2 1.1-1.9.1-.9-.2-1.7-.7-2.1zM442 180.2c-3 0-3 4.5 0 4.5s3-4.5 0-4.5zM428 197.1c-1 0-1 1.5 0 1.5s1-1.5 0-1.5zM489 171.9c-2 0-2 2 0 2 1 0 1-2 0-2zM455.8 163.2c-.3-.5-1-.9-1.5-.6l-.6.3c-.2.2-.4.6-.4.9 0 .2.1.5.2.7.2.3.4.5.8.6.5.2 1.2-.1 1.5-.6.3-.4.3-1 0-1.3zM429 158.8c-3 0-3 5.1 0 5.1s3-5.1 0-5.1zM465.5 150.3c-.4.1-.8.4-1.1.7-.7.6-.7 2 0 2.5.3.3.7.6 1.1.7 1.3.3 2.5-.6 2.5-1.9s-1.3-2.3-2.5-2zM484.7 99.5c-.4-1.5-1.8-2.5-3.3-2.5s-2.9 1-3.3 2.5c-.2.6-.2 1.2 0 1.8.1.3.2.5.3.8.3.5.7.9 1.2 1.2.1 0 .1.1.2.1.8.6 2.2.6 3 0 .1 0 .1-.1.2-.1.5-.3.9-.7 1.2-1.2.6-.8.8-1.7.5-2.6z"/></g><g><path fill="none" d="M120-172.4h380v380H120z"/><path fill="#E0EAE2" d="M120.1 40.4h380v28.1h-380z"/></g><path fill="none" d="M120-172.4h380v380H120z"/><g><path d="M176.9 56.6c-1.3 1.1-5 1.1-7 1-.3-.8-.6-1.4-.9-1.8 2.9-.3 5.6-1.2 6.4-2.4.5-.7.5-1.3.3-1.8l.3-.3c0-.1.1-.1.1-.2 0-.4-.6-.7-1.4-.8l-.6-.4s-.3-.1-.7-.4c.1 0 .2-.1.2-.2 0-.2-.3-.3-.6-.3h-.1c-.5-.4-1-1-1.4-1.8-.2-.4-.5-.7-.8-.9l.9-.7c.3-.3.3-.8-.1-1.1l-1.2-.7c-.1 0-.1 0-.2-.1h-.5c-.1 0-.1.1-.1.1l-.1.1s-.1.1-.1.2l-.4 1.1c-.4-.3-.9-.5-1.4-.6 0 0-4.4-2.8-8.2-1.6-3.8 1.3-2.9 4.6-3.6 5.7-.4.6-1.4 1.1-2.2 1.5-.1-.2-.2-.4-.4-.5-.3-.2-.6-.3-.9-.2h-.4c-.1 0-.1 0-.2.1h-.1c-.1 0-.1.1-.2.1 0 0-.1 0-.1.1l-.2.2c-.2.2-.2.5-.2.7 0 .4.2.9.6 1.1.1.1.2.1.3.1h.7c.1 0 .2-.1.3-.1.2-.1.4-.3.6-.5.1-.1.1-.2.2-.4h1.2c.2 0 .4 0 .5-.1h.1c.2 0 .4-.1.5-.2.7-.3 1.2-.7 1.8-.7.4 0 .8.4 1.2 1.4.2.5.4.9.7 1.3v.1c.1.1.1.3.2.4l.1.1c.1.1.1.2.2.2l.1.1.2.2.1.1.2.2c.1 0 .1.1.2.1l.1.1c-.1.1-.2.3-.4.5h-.5c-5.7-.2-9.5 2.5-9.9 5.3v.3c-.3.2-.2.5 0 .5 0 .4.1.8.3 1.1-.2.3.2.6.3.4l.1.1.4.4c.1.1.2.1.3.2 0 .2.4.3.4.1.3.1.6.1.9 0h.1c.1 0 .3-.1.4-.1h.1c.2-.1.3-.1.5-.2 0 0 .1 0 .1-.1l.3-.3.1-.1c.1-.1.2-.3.3-.5.2-.5.8-1.1 1.6-1.5.4-.2.7-.5 1.1-.7-.1.1-.1.2-.2.3 0 0 0 .1-.1.1-.1.2-.1.3-.2.5 0 .1 0 .1-.1.2-.1.2-.2.4-.2.6v.1c-.1.2-.1.3-.2.5 0 .1 0 .1-.1.2-.1.2-.1.4-.2.5v.1c-.1.2-.1.4-.2.6v.4h-.5c-.9 0-1.7.7-1.7 1.6 0 .7.6 1.4 1.3 1.5-.2.1-.4.2-.7.2-.5.1-1 .2-1.6.3 0-.1-.1-.1-.2-.2h.3c0-.2-.2-.4-.5-.4l-1.4.1c-.2 0-.4.2-.4.5 0 0-.3 0-.8-.1H148c-.3 0-.6 0-.9.1h-.3c-1.1.2-1.8 1.2-2.2 2.7l-1.1-.4-.2-.1c.1-1.7.3-2.5.3-2.5.1-.3-.1-.5-.4-.6h-.2-.2-.1s-.1 0-.1.1-.1.1-.1.2-.6 2.9-.4 8.2c.1 1.9.6 3.3 1.7 4 1.5 1.1 3.3.5 3.3.5.1 0 .1-.1.2-.1l.1-.1c.1-.1.1-.2 0-.4-.1-.3-.4-.4-.6-.3 0 0-1.4.4-2.5-.4-.5-.4-.8-.9-1.1-1.7l1.6-.5c0 .1.1.2.1.3l.1.1.2.2.1.1c.1 0 .1.1.2.1 0 0 .1 0 .1.1.1 0 .1 0 .2.1h.4c1-.1 2.1-1.3 2.2-2 .2-1.2 2.3-1 2.3-1 0 .2.2.4.4.4v-.2c.2.1.4.2.7.2.5 0 1-.4 1.1-1 2.2-.2 3.9-1.6 5.1-2.9.1 0 .1.1.2.1.1.1.2.1.3.2.1 0 .1.1.2.1 2.1 1.2 4.2 1.7 6 1.6l.3 2.4-.3.3-.1-.3c-.2.1-.3.3-.3.5l.3 1.4c.1.2.3.4.5.3 0 0 .2 2.4.7 3.8.4 1 1.4 1.5 2.9 1.6l-.1 1.1v.4c-1.7.2-2.5.2-2.6.2-.3 0-.5.2-.5.5V84.9s0 .1.1.1h.1s.1 0 .1.1H166.1c.1 0 3 0 8.1-1.3 1.9-.5 3.1-1.3 3.6-2.5.7-1.6-.1-3.3-.2-3.4 0-.1-.1-.1-.1-.2l-.1-.1h-.4c-.2.1-.3.4-.2.7 0 0 .7 1.3.1 2.5-.3.6-.7 1-1.5 1.4l-.7-1.4s.1 0 .1-.1h.1c.1-.1.2-.2.3-.2.1-.1.2-.2.2-.3.1-.1.1-.2.2-.3 0-.1.1-.2.1-.3v-.3c0-.1 0-.2-.1-.3-.3-1-1.7-1.8-2.4-1.8-1.2 0-1.5-2.1-1.5-2.1.2-.1.3-.3.3-.5h-.2c.1-.2.1-.5.1-.7-.1-.5-.6-.9-1.1-.9-.6-1.3-1.4-2.6-1.9-3.6 1.1-3.3 1.5-5.9 1.5-8 .2.1.4.2.6.2.1 0 .2.1.3.1.2.1.4.1.6.2.1 0 .2 0 .3.1.2 0 .4.1.6.1h.3c.2 0 .4.1.6.1h1.8c.2 0 .4 0 .6-.1 1.9-.3 3.4-1.1 4.1-2.4 2.2-2.8-1.5-4.7-3.3-3.1zm-2.1 26l.1.1c-.2 0-.3.1-.5.1-1.7.4-3.1.7-4.3.9l.1-1.4v-.1c.7 0 1.5-.2 2.4-.4.5-.1 1-.3 1.5-.5l.5 1.1.2.2zm-30.2-10.8v.7c0 .7.1 1.4.2 2.3 0 .1.1.3.1.4l-1.5.4v-.5c-.1-1.7 0-3.2 0-4.4l1.2.4v.7z" opacity=".36" fill="#80A3AD"/><circle cx="151" cy="51.6" r="1.4" fill="#E3FFFE"/><path d="M151.6 52.8c-.3 0-.6-.1-.9-.2-.6-.4-.8-1.3-.3-1.9.1-.2.3-.4.6-.5-.4 0-.8.2-1 .6-.4.6-.3 1.5.3 1.9.4.2.9.3 1.3.1z" fill="#C8EDEA"/><path d="M166.3 45.4s-4.4-2.8-8.2-1.6c-3.8 1.3-2.9 4.6-3.6 5.7s-3.1 1.8-3.1 1.8c-1.1.4 1.8 1.1 3.4.4 1.2-.5 2-1.6 3 .7.5 1.4 8.5-7 8.5-7z" fill="#D62E36"/><path d="M166.2 45.5l-3.4-.4s-4.2 1.2-5.4 2.7c-.8 1-1.3 3.1-3.9 4.2.4 0 .8-.1 1.2-.3 1.2-.5 2-1.6 3 .7.6 1.3 7.7-6.1 8.5-6.9z" fill="#A5272E"/><ellipse cx="163.9" cy="50.6" rx="6.5" ry="5.6" fill="#E3FFFE"/><path d="M170.3 50.6c0-.9-.3-1.8-.7-2.5-1.2-1.5-3.1-2.4-5.4-2.4-3.6 0-6.5 2.5-6.5 5.5 0 1.1.4 2.1 1 2.9 1.2 1.3 3 2.2 5.1 2.2 3.6-.1 6.5-2.6 6.5-5.7z" fill="#C8EDEA"/><path d="M166.8 68.6s4.4 6.8 4.4 9.6-3.7 2.3-4.8 2c-2.7-.9-2.6-8.9-3-10.4-.4-1.8 2.3-3 3.4-1.2z" fill="#FFF"/><path d="M164.5 70.4c-.3-1.2 1-2.2 2.2-2-1.2-1.5-3.7-.3-3.2 1.3.4 1.5.3 9.5 3 10.4.1 0 .1 0 .2.1-1.9-2.1-1.9-8.5-2.2-9.8z" fill="#F2F1DA"/><path d="M174.3 84.2c-.2 0-.4-.1-.5-.3l-1.1-2c-.1-.2 0-.6.2-.7s.6 0 .7.2l1.1 2c.1.2 0 .6-.2.7 0 .1-.1.1-.2.1zM168.2 85.5c-.3 0-.5-.3-.5-.6l.2-2c0-.3.3-.5.6-.5s.5.3.5.6l-.2 2c-.1.4-.3.5-.6.5z" fill="#60281B"/><path d="M165.2 85.9c-.3 0-.5-.2-.5-.5s.2-.5.5-.5c0 0 2.9 0 7.9-1.3 1.5-.4 2.5-1 2.9-1.9.5-1.2-.1-2.5-.1-2.5-.1-.2 0-.6.2-.7s.6 0 .7.2c0 .1.9 1.7.2 3.4-.5 1.2-1.7 2-3.6 2.5-5.2 1.2-8.1 1.3-8.2 1.3z" fill="#60281B"/><path d="M176.7 78.7l-.3-.3c.2.3.8 1.8.1 3.3-.5 1.2-1.7 2-3.6 2.5-5.1 1.3-8 1.3-8.1 1.3h-.1c.1.2.3.3.5.3.1 0 3 0 8.1-1.3 1.9-.5 3.1-1.3 3.6-2.5.7-1.6-.1-3.2-.2-3.3z" fill="#491C13"/><path fill="#491C13" d="M167.8 84.6l.7-.1-.7-.3M173.6 83.4s.4-.1.5-.2l-.8-.2.3.4z"/><g><path d="M170.9 76s.3 2.2 1.5 2.1c1.2 0 4.6 2.5.4 4s-7.1 1.1-7.8-.7c-.5-1.3-.7-3.8-.7-3.8l6.6-1.6z" fill="#D62E36"/><path d="M173 81.1c-4.2 1.5-7.1 1.1-7.8-.7-.3-.8-.5-1.9-.6-2.8l-.3.1s.2 2.4.7 3.8c.7 1.8 3.6 2.2 7.8.7 1.8-.6 2.2-1.5 1.9-2.2-.2.3-.8.7-1.7 1.1z" fill="#A5272E"/><g><path d="M170.1 76.2l-5.1 1.2c-.6.2-1.2-.2-1.4-.9-.2-.6.2-1.2.9-1.4l5.1-1.2c.6-.2 1.2.2 1.4.9.1.6-.3 1.3-.9 1.4z" fill="#E3FFFE"/><path d="M171.1 75.5l-6.5 1.6c-.2.1-.5-.1-.5-.3l-.3-1.4c-.2.1-.3.3-.3.5l.3 1.4c.1.2.3.4.5.3l6.5-1.6c.2 0 .4-.2.3-.5z" fill="#C8EDEA"/></g></g><g><path d="M167.3 58.2s6.6.7 8.4-.9c1.7-1.6 5.5.3 3.6 3.5-1.5 2.5-6 3.5-11.2 1s-2-4.1-.8-3.6z" fill="#FFF"/><path d="M168.9 58.3c-.9 0-1.6-.1-1.6-.1-1.2-.4-4.4 1.2.8 3.6 2.6 1.3 5.1 1.6 7.1 1.3-1.5 0-3.3-.3-4.3-.8-1.2-.5-1.8-2.9-2-4z" fill="#F2F1DA"/><circle cx="177.3" cy="59.5" r="1.2" fill="#60281B"/><path d="M177.4 60.5c-.6 0-1.1-.5-1.1-1.1 0-.4.3-.8.6-1-.5.2-.8.6-.8 1.1 0 .7.5 1.2 1.2 1.2s1.2-.5 1.2-1.2v-.1c-.1.6-.5 1.1-1.1 1.1z" fill="#491C13"/><circle cx="176.6" cy="57.6" r=".5" fill="#60281B"/><path d="M176.6 58c-.3 0-.5-.2-.5-.5 0-.2.1-.4.3-.4-.2.1-.4.3-.4.5 0 .3.2.5.6.4.2.1.4-.1.4-.4.1.2-.1.4-.4.4z" fill="#491C13"/><circle cx="178.1" cy="57.8" r=".5" fill="#60281B"/><path d="M178.2 58.2c-.3 0-.5-.2-.5-.5 0-.2.1-.4.3-.4-.2.1-.4.3-.4.5 0 .3.2.5.6.4.2.1.4-.1.4-.4 0 .2-.2.4-.4.4z" fill="#491C13"/><g><circle cx="179.1" cy="59" r=".5" fill="#60281B"/><path d="M179.1 59.4c-.3 0-.5-.2-.5-.5 0-.2.1-.4.3-.4-.2.1-.4.3-.4.5 0 .3.2.5.6.4.2.1.4-.1.4-.4.1.2-.1.4-.4.4z" fill="#491C13"/></g><g><circle cx="178.8" cy="60.4" r=".5" fill="#60281B"/><path d="M178.9 60.8c-.3 0-.5-.2-.5-.5 0-.2.1-.4.3-.4-.2.1-.4.3-.4.5 0 .3.2.5.6.4.2.1.4-.1.4-.4 0 .2-.2.4-.4.4z" fill="#491C13"/></g><path d="M176.2 61.6c-1.3-.3-1.5-1.5-1.5-2.1 0-.1.1-.2.2-.2s.2.1.2.2-.1 1.3 1.1 1.6c.1 0 .2.1.2.3 0 .1-.1.2-.2.2z" fill="#F2F1DA"/></g><g><path d="M168.6 47.7l1.7-1.4c.3-.3.3-.8-.1-1.1l-1.2-.7c-.4-.2-.8-.1-1 .3l-.7 2c-.1.3.1.7.4.8l.2.1c.2.2.5.2.7 0z" fill="#FFF"/><path d="M168.4 47.7l-.2-.1c-.3-.1-.5-.5-.4-.8l.7-2c.1-.1.2-.3.3-.3-.3-.1-.7.1-.8.4l-.7 2c-.1.3.1.7.4.8l.2.1c.2.1.4.1.5-.1.1.1.1.1 0 0z" fill="#F2F1DA"/><path d="M169.1 47.1l.7-.6c.2-.2.2-.5 0-.7l-.4-.3c-.2-.1-.5 0-.6.2l-.3.9c-.1.2 0 .4.2.5.1.1.3.1.4 0z" fill="#DBBBA2"/><path d="M158.5 53.8s-1.9-5.1 2.3-6.9 8.2-1.1 9.4 1.1c1.1 1.9 2.7 2.6 2.7 2.6s2.7 1.3 1.3 3.4c-1.9 2.8-13.9 4.1-15.7-.2z" fill="#FFF"/><path d="M159.1 53.7s-1.7-4.8 1.8-6.9h-.1c-4.2 1.8-2.3 6.9-2.3 6.9.8 2 3.7 2.8 6.9 2.8-3 0-5.6-.9-6.3-2.8z" fill="#F2F1DA"/><ellipse cx="173.1" cy="52" rx="1.3" ry=".7" fill="#F2F1DA"/><path d="M161.1 47.1l-1-2.4c-.2-.5-.8-.6-1.2-.3l-1.2 1.1c-.4.3-.4.9 0 1.2l2 1.5c.3.3.8.2 1.1-.1l.2-.2c.2-.2.2-.5.1-.8z" fill="#FFF"/><path d="M160.1 48.2l-2-1.5c-.4-.3-.4-.9 0-1.2l1.2-1.1c.1-.1.2-.1.3-.2-.2-.1-.5 0-.7.2l-1.2 1.1c-.4.3-.4.9 0 1.2l2 1.5c.2.1.4.2.6.1 0 .1-.1 0-.2-.1z" fill="#F2F1DA"/><path d="M160.6 46.5l-.4-1.1c-.1-.3-.5-.4-.8-.2l-.4.4c-.2.2-.2.6 0 .7l.9.7c.2.2.5.1.7-.1v-.4z" fill="#DBBBA2"/><ellipse cx="173.4" cy="51.7" rx="1.4" ry=".8" fill="#60281B"/><path d="M173.7 52.2c-.7 0-1.3-.3-1.3-.7 0-.2.1-.3.3-.4-.4.1-.7.4-.7.7 0 .4.6.8 1.4.8.6 0 1.2-.2 1.4-.6-.3.1-.7.2-1.1.2z" fill="#491C13"/><circle cx="167.3" cy="50.3" r=".4" fill="#60281B"/><circle cx="170.7" cy="49.5" r=".3" fill="#60281B"/><path d="M172.3 54c-.6 0-1.4-.1-2.3-.6-.1 0-.2-.2-.1-.3 0-.1.2-.2.3-.1 2 .9 3.1.4 3.1.4.1-.1.2 0 .3.1s0 .2-.1.3c-.1 0-.5.2-1.2.2z" fill="#60281B"/><ellipse cx="166.9" cy="51.4" rx="1.1" ry=".4" fill="#F59D8A"/><ellipse cx="171.7" cy="50" rx=".6" ry=".3" fill="#F59D8A"/></g><g><ellipse cx="154.4" cy="66.1" rx="1.7" ry="1.6" fill="#FEFEF0"/><path d="M154.5 67.7c.9 0 1.6-.7 1.6-1.6 0-.8-.6-1.4-1.4-1.5-.3 1.1-.4 2.1-.2 3.1z" fill="#F2F1DA"/><path d="M167.1 55.6s4.7 4.2.6 15.3c-1.2 2.6-6.6 3-11-.3-5.9-4.4 3.6-16 3.6-16s1.7-2 6.8 1z" fill="#FFF"/><path d="M154.9 67.9c.2 1.1.8 2 1.8 2.8.4.3.8.5 1.2.8 1-1.9 1.3-3.7 1.3-3.7 0-2.1-2.9-1.1-4.3.1z" fill="#F2F1DA"/><path d="M157.2 69.9c-3.9-2.9-1.1-8.8 1.2-12.6-2.4 3.7-5.9 10.3-1.7 13.4 4.5 3.3 9.8 2.9 11 .3-1.8 1.8-6.5 1.8-10.5-1.1z" fill="#F2F1DA"/><path d="M165.3 71.6c1 .1 3.8-3.8 3.2-9.3-.6-5.4-2.2-4.9-2.6-4.5-.6.7-6.1 14.6-.6 13.8z" fill="#F2F1DA"/><g fill="#F2F1DA"><ellipse transform="rotate(27.74 157.05 61.52)" cx="157.1" cy="61.5" rx=".2" ry=".7"/><ellipse transform="rotate(27.74 158.63 60.35)" cx="158.6" cy="60.4" rx=".2" ry=".7"/><ellipse transform="rotate(27.74 158.71 62.16)" cx="158.7" cy="62.2" rx=".2" ry=".7"/><ellipse transform="rotate(27.74 157.03 63.27)" cx="157" cy="63.3" rx=".2" ry=".7"/><ellipse transform="rotate(27.74 157.4 64.7)" cx="157.4" cy="64.7" rx=".2" ry=".7"/><ellipse transform="rotate(27.74 157.42 66.32)" cx="157.4" cy="66.3" rx=".2" ry=".7"/><ellipse transform="rotate(27.74 155.29 65.47)" cx="155.3" cy="65.5" rx=".2" ry=".7"/><ellipse transform="rotate(27.74 160.44 59.9)" cx="160.4" cy="59.9" rx=".2" ry=".7"/></g></g><g><path d="M161.1 58.8s-6.3 1.9-7.3 4.1c-1 2.2-5.2 1.9-4.7-1.8.4-2.9 4.1-5.6 9.9-5.3 5.7.2 3.3 2.9 2.1 3z" fill="#FFF"/><path d="M161.9 56.3c.7.9-.6 2-1.4 2 0 0-6.3 1.9-7.3 4.1-.6 1.3-2.4 1.7-3.6 1 1.1 1.2 3.4.9 4.1-.6 1-2.2 7.3-4.1 7.3-4.1 1 0 2.5-1.5.9-2.4zM153.5 60.8c-.1 0-.2-.1-.2-.1 0-.1-.4-1.3-1.6-1-.1 0-.2-.1-.3-.2 0-.1.1-.2.2-.3 1.3-.2 1.9.8 2.1 1.3 0 .1 0 .2-.2.3z" fill="#F2F1DA"/><path d="M151.2 62.6s-.6.6-.8 1.4c0 .2.4.3.4.1.1-.8.6-1.2.6-1.2.1-.1.1-.2 0-.3 0-.1-.1-.1-.2 0zM150.4 62.3c.1-.1.1-.2.1-.3-.1-.1-.2-.1-.3-.1 0 0-.6.4-.9 1-.2.3.2.6.3.4.2-.6.8-1 .8-1zM149.9 61.5c.1 0 .2-.1.2-.2s-.1-.2-.2-.2c0 0-.4.1-.9.3-.3.2-.2.5 0 .5.4-.3.9-.4.9-.4z" fill="#60281B"/></g><g><path d="M159.3 67.9s-2.9 6.4-8.1 6.1c-5.2-.3-5.1-2.3-4.5-4.2.5-1.9 6.5-1.3 7.8-2.4 1.4-1.1 5.5-1.8 4.8.5z" fill="#FFF"/><path d="M147.8 71.5c.1-2 6-2.8 7.1-4.1.1-.2.3-.3.5-.5-.3.1-.6.3-.8.5-1.4 1.1-7.3.5-7.8 2.4-.4 1.4-.6 2.8 1.3 3.6-.3-.5-.4-1.2-.3-1.9z" fill="#F2F1DA"/><path d="M141.2 76.8c0-.2.2-.3.4-.4l2.2-.6c.3-.1.6.1.6.3.1.3-.1.6-.3.6l-2.2.6c-.3.1-.6-.1-.6-.3-.1-.1-.1-.1-.1-.2zM141.2 70.6s0-.1 0 0c.1-.3.4-.5.7-.4l1.9.6c.3.1.4.4.3.6-.1.3-.4.4-.6.3l-1.9-.6c-.3 0-.4-.3-.4-.5z" fill="#60281B"/><path d="M141.5 67.6c.1-.3.3-.5.6-.4s.5.3.4.6c0 0-.6 2.8-.4 8 .1 1.6.5 2.7 1.3 3.2 1 .8 2.4.4 2.5.4.3-.1.6.1.6.3.1.3-.1.6-.3.6-.1 0-1.9.5-3.3-.5-1.1-.8-1.6-2.1-1.7-4-.3-5.3.3-8.1.3-8.2z" fill="#60281B"/><path d="M146.1 80.3c.1 0 .3-.1.3-.3-.4.1-1.9.4-3.3-.5-1.1-.8-1.6-2.1-1.7-4-.2-5.3.4-8.1.4-8.2v-.1c-.2 0-.4.2-.4.4 0 .1-.6 2.9-.4 8.2.1 1.9.6 3.3 1.7 4 1.6 1 3.4.5 3.4.5z" fill="#491C13"/><path fill="#491C13" d="M142.2 70.3v.8l.4-.7M142.2 76.2s.1.4.1.6l.4-.7-.5.1z"/><g><path d="M149.9 74.7s-2.2-.2-2.3 1c-.2 1.2-3.3 4-4-.3-.6-4.3.3-7.1 2.2-7.4 1.4-.2 3.8.1 3.8.1l.3 6.6z" fill="#D62E36"/><path d="M144.6 75.8c-.6-4.3.3-7.1 2.2-7.4.8-.1 2-.1 2.8 0v-.3s-2.4-.3-3.8-.1c-1.9.3-2.9 3.1-2.2 7.4.3 1.9 1 2.4 1.8 2.3-.4-.3-.7-.9-.8-1.9z" fill="#A5272E"/><g><path d="M149.8 73.9l-.2-5.1c0-.6.5-1.2 1.1-1.2.6 0 1.2.5 1.2 1.1l.2 5.1c0 .6-.5 1.2-1.1 1.2-.6 0-1.2-.5-1.2-1.1z" fill="#E3FFFE"/><path d="M150.3 75l-.3-6.6c0-.2.2-.4.4-.5l1.4-.1c0-.2-.2-.4-.5-.4l-1.4.1c-.2 0-.4.2-.4.5l.3 6.6c.1.2.3.4.5.4z" fill="#C8EDEA"/></g></g></g></g><path fill="none" d="M120-172.4h380v380H120z"/><g><path d="M499.9 89.3h-2.7c-.5 0-.9 0-1.4.1-.4 0-.8.1-1.2.1-1.1.1-1.9.2-1.9.2 0-.5-.4-1-.9-1l-3.2-.1c-.5 0-.9.3-1 .8h.6c-.1.1-.3.3-.4.5-1.3-.2-2.5-.3-3.6-.6-.6-.1-1.1-.3-1.6-.5 1.7-.4 2.9-1.7 2.9-3.4 0-1.9-1.7-3.5-3.8-3.5-.2 0-.4 0-.5.1h-.1c-.1 0-.3.1-.4.1h-.2c0-.1-.1-.3-.1-.4s-.1-.2-.1-.4c-.1-.4-.2-.9-.4-1.3 0-.1 0-.1-.1-.2-.1-.4-.3-.8-.4-1.2 0-.1-.1-.3-.1-.4-.1-.4-.3-.8-.4-1.2 0-.1 0-.1-.1-.2-.2-.4-.4-.9-.5-1.3-.1-.1-.1-.2-.2-.4-.2-.3-.3-.7-.5-1 0-.1-.1-.2-.1-.3-.1-.3-.2-.5-.4-.8.9.5 1.8 1 2.6 1.5 1.6 1.1 2.9 2.3 3.5 3.5.2.4.4.7.7 1 .1.1.1.2.2.2.2.2.5.4.7.6.1 0 .1.1.2.1.3.2.7.4 1.1.5.1 0 .2.1.2.1.3.1.6.2 1 .2h.3c.7.1 1.4.1 2-.1.1.4 1 .2 1-.3.3-.1.5-.2.7-.4 0 0 .1 0 .1-.1.4-.2.7-.5 1-.8h.1l.1-.1c.3.4 1.1-.3.7-1 .3-.7.6-1.5.6-2.4.5 0 .7-.7 0-1.2v-.6c-.9-6.5-9.3-12.5-22.2-12-.4 0-.8 0-1.2.1-.3-.4-.6-.8-.8-1.1.1-.1.2-.1.3-.2.1-.1.2-.2.4-.3.2-.1.3-.2.4-.4l.3-.3.4-.4c.1-.1.2-.2.2-.3.1-.2.2-.3.4-.5.1-.1.1-.2.2-.3.2-.3.3-.5.4-.8 0 0 0-.1.1-.2.7-.9 1.2-1.9 1.6-2.9.9-2.2 1.8-3 2.7-3.1 1.2-.1 2.4.9 4 1.5.4.1.7.2 1.1.3h.2c.4.1.8.1 1.2.2h.1c1 .1 1.9.1 2.8 0 .1.3.2.6.4.8.3.5.8.8 1.3 1 .2.1.5.2.7.2H489.8c.2 0 .3-.1.5-.1.1 0 .1 0 .2-.1l.6-.3c.9-.6 1.3-1.6 1.3-2.5v-.1c0-.6-.2-1.1-.5-1.6-.1-.2-.3-.3-.4-.5-.1 0-.1-.1-.2-.1-.1-.1-.2-.2-.3-.2s-.1-.1-.2-.1c-.1-.1-.2-.1-.4-.2-.1 0-.2 0-.2-.1-.1 0-.2-.1-.4-.1h-.1c-.7-.1-1.4.1-2 .5-.4.3-.8.7-1 1.2-1.7-.7-4-1.8-4.9-3.3-1.6-2.5.4-9.9-8.2-12.7s-18.5 3.5-18.5 3.5c-1.1.4-2.1.9-3 1.5l-.9-2.6c-.1-.2-.2-.4-.3-.5 0 0-.1-.1-.2-.1-.1-.1-.2-.2-.3-.2-.1 0-.1 0-.2-.1h-.6c-.1 0-.3.1-.4.1l-2.6 1.6c-.9.5-1 1.7-.2 2.4l1.9 1.6c-.7.6-1.4 1.3-1.8 2.1-1 1.8-2.2 3.1-3.2 4h-.2c-.8 0-1.4.3-1.4.6 0 .2.1.3.3.4-.9.6-1.5.8-1.5.8s-.6.3-1.3.8c-1.7 0-3.1.8-3.1 1.7 0 .2.1.3.1.5.1.2.4.5.7.6-.4 1.1-.3 2.5.7 4 1.8 2.7 7.8 4.7 14.3 5.5-.6 1-1.4 2.3-2.1 4.1-4.5.3-12.9.3-15.7-2.2-4.1-2.5-12.6 1.9-8.3 9 1.7 2.7 5 4.7 9.3 5.3h.1c.4.1.8.1 1.3.1h2.2c.4 0 .9 0 1.4-.1h.5c.5 0 .9-.1 1.4-.2.2 0 .4 0 .6-.1.5-.1.9-.2 1.4-.3.2 0 .4-.1.6-.1.5-.1.9-.3 1.4-.4.2-.1.4-.1.7-.2.5-.2 1-.3 1.4-.5-.1 4.7.7 10.6 3.3 17.9-1.3 2.2-3 5.1-4.4 8-1.2 0-2.2.8-2.5 2-.1.6-.1 1.1.2 1.6l-.4-.1h-.1c-.1.5.2 1 .6 1.1h-.1s-.6 4.9-3.3 4.8c-1.6-.1-4.7 1.8-5.3 4-.1.2-.1.4-.1.6v.7c0 .2.1.4.2.6v.1c.1.2.2.4.4.6.1.2.3.4.5.6l.1.1c.2.2.5.4.7.5.1 0 .1.1.2.1s.1.1.2.1l-1.6 3c-1.6-.8-2.7-1.8-3.3-3.1-1.2-2.6.3-5.5.3-5.6.3-.6.1-1.2-.5-1.5-.3-.1-.5-.2-.8-.1-.1 0-.2.1-.3.2h-.1c-.1.1-.2.2-.3.4-.1.2-2 3.9-.4 7.5 1.2 2.7 3.9 4.5 8 5.6 11.5 2.8 17.9 2.9 18.2 2.9.1 0 .3 0 .4-.1 0 0 .1 0 .1-.1.1 0 .1-.1.2-.1l.1-.1c.1-.1.1-.1.1-.2l.1-.1c0-.1.1-.3.1-.4 0-.6-.5-1.1-1.1-1.1 0 0-2 0-5.7-.5l-.1-.9v-.1l-.3-2.6c3.4-.2 5.7-1.5 6.5-3.7 1.2-3 1.5-8.5 1.5-8.5.5.1 1.1-.2 1.2-.7l.8-3.1c.1-.5-.2-1-.6-1.2l-.2.6-.6-.6c.3-1.8.5-3.6.7-5.3 4 .2 8.8-.9 13.4-3.6.1-.1.2-.2.4-.2.2-.1.4-.2.6-.4.1-.1.2-.1.3-.2 2.7 3.1 6.6 6.2 11.5 6.6.2 1.2 1.2 2.1 2.4 2.2.6 0 1.1-.2 1.6-.5v.5c.5 0 .9-.3 1-.8v.1s4.8-.3 5.3 2.3c.1 1 1.3 2.5 2.7 3.5V89.3zm-60.3 35.4c-.4-.1-.8-.2-1.1-.3l.1-.3.4-.5 1.1-2.1h.1c1.2.4 2.3.8 3.4 1.1 1.9.5 3.7.8 5.3.9v.1l.3 3.1c-2.6-.4-5.8-1-9.6-2z" opacity=".36" fill="#80A3AD"/><circle cx="491.9" cy="54.6" r="3" fill="#E3FFFE"/><path d="M490.6 57.4c.7.1 1.4-.1 2-.5 1.4-1 1.7-2.8.8-4.2-.3-.5-.8-.8-1.3-1 .9.1 1.7.5 2.2 1.3 1 1.4.6 3.3-.8 4.2-.8.5-1.9.6-2.9.2z" fill="#C8EDEA"/><path d="M457.7 40.8s9.9-6.4 18.5-3.5c8.5 2.9 6.6 10.3 8.2 12.7 1.5 2.4 7 4 7 4 2.6.9-4 2.4-7.7.9-2.7-1.1-4.6-3.5-6.7 1.5-1.4 3.2-19.3-15.6-19.3-15.6z" fill="#D62E36"/><path d="M457.8 40.9l7.5-.9s9.3 2.8 12.1 6.1c1.9 2.2 2.9 7 8.7 9.4-.9-.1-1.8-.3-2.6-.6-2.7-1.1-4.6-3.5-6.7 1.5-1.2 3-17.2-13.6-19-15.5z" fill="#A5272E"/><ellipse cx="463.1" cy="52.4" rx="14.5" ry="12.6" fill="#E3FFFE"/><path d="M448.6 52.4c0-2 .6-4 1.6-5.7 2.6-3.3 7-5.5 12.1-5.5 8 0 14.5 5.5 14.5 12.4 0 2.4-.8 4.6-2.2 6.5-2.7 3-6.8 4.9-11.5 4.9-8 0-14.5-5.6-14.5-12.6z" fill="#C8EDEA"/><path d="M456.5 92.8s-9.9 15.3-9.9 21.5c.1 6.2 8.3 5.2 10.8 4.4 6-2 5.7-19.9 6.6-23.4 1-3.8-5-6.6-7.5-2.5z" fill="#FFF"/><path d="M461.7 96.7c.7-2.7-2.3-4.9-4.9-4.4 2.7-3.4 8.2-.6 7.3 2.9-.9 3.4-.6 21.4-6.6 23.4-.1 0-.3.1-.5.1 4.1-4.6 4-18.9 4.7-22z" fill="#F2F1DA"/><path d="M439.7 127.9c.4 0 .8-.2 1-.6l2.4-4.5c.3-.6.1-1.2-.5-1.5s-1.2-.1-1.5.5l-2.4 4.5c-.3.6-.1 1.2.5 1.5.2 0 .3.1.5.1zM453.3 130.8c.7-.1 1.2-.6 1.1-1.3l-.5-4.5c-.1-.6-.6-1.1-1.3-1-.6.1-1.1.6-1 1.3l.5 4.5c.1.5.6 1 1.2 1z" fill="#60281B"/><path d="M460.1 131.5c.6 0 1.1-.5 1.1-1.1s-.5-1.1-1.1-1.1c-.1 0-6.4-.1-17.6-2.8-3.4-.8-5.6-2.3-6.5-4.3-1.2-2.6.3-5.5.3-5.6.3-.6.1-1.2-.5-1.5s-1.2-.1-1.5.5c-.1.2-2 3.9-.4 7.5 1.2 2.7 3.9 4.5 8 5.6 11.5 2.8 17.9 2.8 18.2 2.8z" fill="#60281B"/><path d="M434.3 115.5c.2-.3.4-.5.7-.6-.4.8-1.8 4.1-.3 7.4 1.2 2.7 3.9 4.5 8 5.6 11.5 2.8 17.9 2.9 18.2 2.9h.3c-.2.4-.6.8-1.1.8-.3 0-6.6-.1-18.2-2.9-4.2-1-6.9-2.9-8-5.6-1.7-3.7.3-7.5.4-7.6z" fill="#491C13"/><path fill="#491C13" d="M454.4 128.8l-1.7-.3 1.6-.8M441.3 126.1s-1-.3-1.2-.4l1.7-.5-.5.9z"/><g><path d="M447.3 109.4s-.6 4.9-3.3 4.8c-2.7-.1-10.3 5.6-1 9 9.3 3.3 15.9 2.4 17.5-1.7 1.2-3 1.5-8.5 1.5-8.5l-14.7-3.6z" fill="#D62E36"/><path d="M442.7 120.8c9.3 3.3 15.9 2.4 17.5-1.7.7-1.8 1.1-4.4 1.3-6.2l.6.1s-.4 5.5-1.5 8.5c-1.6 4.1-8.2 5-17.5 1.7-4-1.4-4.9-3.3-4.4-5 .6.9 1.8 1.8 4 2.6z" fill="#A5272E"/><g><path d="M448.1 109.6l13.4 3.2c.8.2 1.7-.3 1.9-1.2l.5-2c.2-.8-.3-1.7-1.2-1.9l-13.4-3.2c-.8-.2-1.7.3-1.9 1.2l-.5 2c-.1.9.4 1.7 1.2 1.9z" fill="#E3FFFE"/><path d="M446.8 108.3c.1 0 .1 0 0 0l14.6 3.6c.5.1 1.1-.2 1.2-.7l.7-3.1c.5.2.8.7.6 1.2l-.8 3.1c-.1.5-.7.9-1.2.7l-14.5-3.5c-.4-.2-.7-.8-.6-1.3z" fill="#C8EDEA"/></g></g><g><path d="M455.4 69.5s-14.8 1.6-18.7-2c-3.9-3.6-12.4.8-8.1 7.9 3.4 5.6 13.5 7.8 25.1 2.3 11.6-5.6 4.4-9.2 1.7-8.2z" fill="#FFF"/><path d="M451.9 69.7c2.1-.1 3.5-.3 3.5-.3 2.7-1 9.9 2.6-1.7 8.2-5.9 2.8-11.4 3.6-15.8 3 3.5-.1 7.5-.6 9.7-1.8 2.5-1.3 3.8-6.5 4.3-9.1z" fill="#F2F1DA"/><circle cx="433" cy="72.4" r="2.7" fill="#60281B"/><path d="M432.8 74.6c1.4 0 2.5-1.1 2.5-2.5 0-1-.6-1.8-1.4-2.2 1.1.4 1.8 1.4 1.8 2.6 0 1.5-1.2 2.7-2.7 2.7s-2.7-1.2-2.7-2.7v-.2c.1 1.3 1.2 2.3 2.5 2.3z" fill="#491C13"/><circle cx="434.6" cy="68.1" r="1.2" fill="#60281B"/><path d="M434.5 69.1c.6 0 1.1-.5 1.1-1.1 0-.4-.2-.8-.6-1 .5.2.8.6.8 1.1 0 .6-.5 1.2-1.2 1.2-.6 0-1.2-.5-1.2-1.2V68c.1.6.6 1.1 1.1 1.1z" fill="#491C13"/><circle cx="431.2" cy="68.6" r="1.2" fill="#60281B"/><path d="M431.1 69.5c.6 0 1.1-.5 1.1-1.1 0-.4-.2-.8-.6-1 .5.2.8.6.8 1.1 0 .6-.5 1.2-1.2 1.2s-1.2-.5-1.2-1.2v-.1c0 .6.5 1.1 1.1 1.1z" fill="#491C13"/><g><circle cx="428.9" cy="71.3" r="1.2" fill="#60281B"/><path d="M428.8 72.2c.6 0 1.1-.5 1.1-1.1 0-.4-.2-.8-.6-1 .5.2.8.6.8 1.1 0 .6-.5 1.2-1.2 1.2-.6 0-1.2-.5-1.2-1.2v-.1c.1.7.6 1.1 1.1 1.1z" fill="#491C13"/></g><g><circle cx="429.5" cy="74.3" r="1.2" fill="#60281B"/><path d="M429.4 75.3c.6 0 1.1-.5 1.1-1.1 0-.4-.2-.8-.6-1 .5.2.8.6.8 1.1 0 .6-.5 1.2-1.2 1.2-.6 0-1.2-.5-1.2-1.2v-.1c.1.6.6 1.1 1.1 1.1z" fill="#491C13"/></g><path d="M435.5 77h.1c2.8-.7 3.3-3.3 3.2-4.6 0-.3-.3-.5-.5-.4-.3 0-.5.3-.4.5 0 .1.2 3-2.4 3.6-.3.1-.4.3-.4.6-.1.2.1.3.4.3z" fill="#F2F1DA"/></g><g><path d="M452.5 46l-3.7-3.1c-.8-.6-.7-1.9.2-2.4l2.6-1.6c.8-.5 1.8-.1 2.1.8l1.6 4.5c.3.8-.1 1.6-.9 1.9l-.5.2c-.4.1-1 0-1.4-.3z" fill="#FFF"/><path d="M452.8 46.1l.5-.2c.7-.3 1.1-1.1.9-1.9l-1.6-4.5c-.1-.3-.3-.6-.6-.8.7-.2 1.5.2 1.8.9l1.6 4.5c.3.8-.1 1.6-.9 1.9l-.5.2c-.4.2-.9.1-1.2-.1z" fill="#F2F1DA"/><path d="M451.3 44.5l-1.7-1.4c-.5-.4-.4-1.1.1-1.5l1-.6c.5-.3 1.1-.1 1.3.5l.7 1.9c.2.5-.1 1-.5 1.2-.3.2-.6.1-.9-.1z" fill="#DBBBA2"/><path d="M475.2 59.6s4.3-11.4-5.2-15.5c-9.5-4-18.3-2.5-21 2.5-2.4 4.4-6 5.8-6 5.8s-6 2.9-2.8 7.7c4 6.2 31 9.2 35-.5z" fill="#FFF"/><path d="M473.8 59.4s3.9-10.8-4.1-15.4c.1 0 .2.1.3.1 9.5 4 5.2 15.5 5.2 15.5-1.8 4.4-8.4 6.2-15.4 6.3 6.5-.3 12.3-2.2 14-6.5z" fill="#F2F1DA"/><ellipse cx="442.4" cy="55.6" rx="3" ry="1.6" fill="#F2F1DA"/><path d="M469.2 44.7l2.2-5.4c.5-1.1 1.9-1.5 2.8-.7l2.7 2.4c.8.7.8 2-.1 2.7l-4.5 3.5c-.8.6-1.8.4-2.4-.3l-.4-.5c-.4-.5-.5-1.1-.3-1.7z" fill="#FFF"/><path d="M471.5 47.2l4.5-3.5c.9-.7.9-2 .1-2.7l-2.7-2.4c-.2-.2-.5-.3-.8-.4.5-.1 1.1 0 1.5.4l2.7 2.4c.8.7.8 2-.1 2.7l-4.5 3.5c-.4.3-.9.4-1.4.3.3-.1.5-.2.7-.3z" fill="#F2F1DA"/><path d="M470.5 43.3l1-2.4c.3-.7 1.2-.9 1.7-.4l1 .9c.5.5.5 1.3-.1 1.7l-2 1.5c-.5.4-1.1.3-1.5-.2-.2-.3-.2-.8-.1-1.1z" fill="#DBBBA2"/><ellipse cx="441.8" cy="54.9" rx="3.2" ry="1.7" fill="#60281B"/><path d="M441 56c1.6 0 2.9-.7 2.9-1.6 0-.4-.2-.7-.6-1 1 .3 1.6.9 1.6 1.5 0 .9-1.4 1.7-3.2 1.7-1.5 0-2.7-.5-3.1-1.2.6.4 1.5.6 2.4.6z" fill="#491C13"/><circle cx="455.4" cy="51.8" r=".9" fill="#60281B"/><circle cx="447.8" cy="50" r=".7" fill="#60281B"/><path d="M444.1 60.1c1.3 0 3.1-.3 5.2-1.2.2-.1.4-.4.2-.6-.1-.2-.4-.4-.6-.2-4.4 2-6.9.8-6.9.8-.2-.1-.5 0-.7.2-.1.2 0 .5.2.7.2-.1 1 .3 2.6.3z" fill="#60281B"/><ellipse cx="456.3" cy="54.2" rx="2.4" ry=".8" fill="#F59D8A"/><ellipse cx="445.5" cy="51.2" rx="1.4" ry=".6" fill="#F59D8A"/></g><g><ellipse cx="484.3" cy="87.3" rx="3.8" ry="3.5" fill="#FEFEF0"/><path d="M484.1 90.8c-2-.1-3.5-1.6-3.5-3.5 0-1.8 1.4-3.2 3.2-3.5.5 2.4.7 4.8.3 7z" fill="#F2F1DA"/><path d="M455.9 63.8s-10.6 9.4-1.4 34.3c2.7 5.9 14.7 6.8 24.7-.6 13.3-9.8-8.1-35.8-8.1-35.8s-3.9-4.7-15.2 2.1z" fill="#FFF"/><path d="M483.3 91.3c-.5 2.4-1.8 4.5-4 6.2-.9.6-1.7 1.2-2.6 1.7-2.2-4.2-2.9-8.2-2.9-8.2-.2-4.8 6.3-2.5 9.5.3z" fill="#F2F1DA"/><path d="M478.1 95.6c8.7-6.4 2.6-19.7-2.7-28.2 5.4 8.2 13.2 23.1 3.9 30-10 7.4-22 6.5-24.7.6 0-.1-.1-.1-.1-.2 4 4.4 14.6 4.5 23.6-2.2z" fill="#F2F1DA"/><path d="M460 99.6c-2.1.2-8.5-8.5-7.2-20.8 1.3-12.1 5-11 5.8-10 1.2 1.4 13.7 32.4 1.4 30.8z" fill="#F2F1DA"/><g fill="#F2F1DA"><ellipse transform="rotate(152.26 478.57 76.88)" cx="478.6" cy="76.9" rx=".4" ry="1.7"/><ellipse transform="rotate(152.26 475 74.17)" cx="475" cy="74.2" rx=".4" ry="1.7"/><ellipse transform="rotate(152.26 474.6 78.39)" cx="474.6" cy="78.4" rx=".4" ry="1.7"/><ellipse transform="rotate(152.26 478.6 80.84)" cx="478.6" cy="80.8" rx=".4" ry="1.7"/><ellipse transform="rotate(152.26 477.69 83.93)" cx="477.7" cy="83.9" rx=".4" ry="1.7"/><ellipse transform="rotate(152.26 477.58 87.68)" cx="477.6" cy="87.7" rx=".4" ry="1.7"/><ellipse transform="rotate(152.26 482.22 85.85)" cx="482.2" cy="85.8" rx=".4" ry="1.7"/><ellipse transform="rotate(152.26 470.77 73.04)" cx="470.8" cy="73" rx=".4" ry="1.7"/></g></g><g><path d="M469.4 70.8s14.2 4.4 16.4 9.2c2.2 4.8 11.7 4.2 10.5-4-.9-6.5-9.3-12.5-22.2-12-12.9.5-7.6 6.6-4.7 6.8z" fill="#FFF"/><path d="M467.6 65.3c-1.5 1.9 1.3 4.4 3.1 4.5 0 0 14.2 4.4 16.4 9.2 1.3 2.9 5.3 3.8 8 2.3-2.5 2.8-7.7 2.1-9.2-1.3-2.2-4.8-16.4-9.2-16.4-9.2-2.2-.1-5.7-3.5-1.9-5.5zM486.3 75.3c.2 0 .4-.1.5-.3 0-.1 1-2.8 3.7-2.3.3 0 .5-.1.6-.4 0-.3-.1-.5-.4-.6-2.8-.5-4.3 1.7-4.8 3-.1.3.1.5.4.6-.1 0 0 0 0 0z" fill="#F2F1DA"/><path d="M491.5 79.4c.1.1 1.4 1.3 1.7 3.2.1.5-.8.7-1 .3-.2-1.7-1.3-2.7-1.4-2.8-.2-.2-.2-.5 0-.7.2-.2.5-.2.7 0zM493.3 78.7c-.2-.1-.3-.4-.2-.7.1-.2.4-.3.7-.2.1 0 1.3.8 2 2.3.5.7-.4 1.4-.7 1-.5-1.5-1.8-2.3-1.8-2.4zM494.3 76.9c-.3 0-.4-.3-.4-.6s.3-.5.6-.4c.1 0 1 .1 1.9.7.7.5.5 1.2 0 1.2-1-.8-2-.9-2.1-.9.1 0 0 0 0 0z" fill="#60281B"/></g><g><path d="M499.9 93.6c-4-2-13.3-1.6-15.8-3.5-3.1-2.4-12.3-4-10.8 1.2 0 0 6.4 14.4 18.2 13.7 4.1-.2 6.8-1 8.4-2v-9.4z" fill="#FFF"/><path d="M499.9 103v-9.4c-4-2-13.3-1.6-15.8-3.5-.5-.4-1.2-.8-1.9-1.1.4.4.8.7 1.1 1.1 2.5 3.1 15.7 4.9 15.9 9.3 0 1.5 0 3-.5 4.2l1.2-.6z" fill="#F2F1DA"/><g><path d="M499.9 91.2c-2.4 0-4.6.3-4.6.3l-.8 15s4.8-.3 5.3 2.3c0 .1 0 .2.1.3V91.2z" fill="#D62E36"/><path d="M499.9 91.3c-2.4 0-4.7.3-4.7.3v.6c1.4-.1 3.1-.1 4.7-.1v-.8z" fill="#A5272E"/><g><path d="M494.5 105.7l.6-13.6c0-.9-.6-1.6-1.5-1.6l-2-.1c-.8 0-1.6.6-1.6 1.5l-.6 13.6c0 .8.6 1.6 1.5 1.6l2 .1c.9 0 1.6-.7 1.6-1.5z" fill="#E3FFFE"/><path d="M493.5 107.2l.6-14.8c0-.5-.4-1-.9-1l-3.1-.1c.1-.5.5-.9 1-.8l3.2.1c.5 0 1 .5.9 1l-.6 14.7c-.1.5-.6.9-1.1.9z" fill="#C8EDEA"/></g></g></g></g><path fill="none" d="M120-172.4h380v380H120z"/><g><path d="M168.9-106.4c0 .5.4 1 1 1h19.3c.5 0 1-.4 1-1v-8.4c0-.5-.4-1-1-1h-19.3c-.5 0-1 .4-1 1v8.4z" fill="#62BA47"/><path d="M177.1-108.1c0 .5.4 1 1 1h3c.5 0 1-.4 1-1v-4.9c0-.5-.4-1-1-1h-3c-.5 0-1 .4-1 1v4.9zM183.6-108.1c0 .5.4 1 1 1h3c.5 0 1-.4 1-1v-4.9c0-.5-.4-1-1-1h-3c-.5 0-1 .4-1 1v4.9zM175.5-108.1c0 .5-.4 1-1 1h-3c-.5 0-1-.4-1-1v-4.9c0-.5.4-1 1-1h3c.5 0 1 .4 1 1v4.9z" fill="#428C2A"/><path fill="#62BA47" d="M142.4-139.1l8.3 7v-12.4h-8.3"/><path fill="#428C2A" d="M160.2-132.1l-9.5-12.4v12.4"/><path fill="#62BA47" d="M142.4-125l8.3-7.1v12.5h-8.3"/><path fill="#428C2A" d="M160.2-132.1l-9.5 12.5v-12.5"/><ellipse cx="183.3" cy="-132.1" rx="31" ry="20.4" fill="#FFF"/><ellipse cx="183.3" cy="-132.1" rx="31" ry="13.8" fill="#A8A8A8"/><ellipse cx="183.3" cy="-132.1" rx="31" ry="5.1" fill="#FFF"/><path d="M208.5-143.9c3.6 3.3 5.8 7.4 5.8 11.9 0 4.4-2.1 8.5-5.8 11.9 0 0-1.9-.9-1.9-11.9-.1-11 1.9-11.9 1.9-11.9zM193.5-133.2c0 6.4-5.2 11.6-11.6 11.6-6.4 0-11.5-5.2-11.5-11.6 0-6.4 5.2-11.6 11.6-11.6s11.5 5.1 11.5 11.6z" fill="#62BA47"/><g fill="#FFF"><path d="M179.1-135c-.9.1-1.2 1.2-1.2 2v.3c0 .4 0 .7-.1 1 0 .1-.1.4-.1.4-.3 0-.6-.5-.7-.7-.2-.6-.4-1.2-.5-1.8-.1-.7-.2-1.4-.2-2.1v-.8-.3-.2c.1-.5-.6 0-.8.2-.8 1.3-.5 2.9-.5 4.4 0 .4 0 .8-.1 1.2 0 .3-.1.7-.3 1-.1.1-.4 0-.5 0-.2-.1-.3-.3-.3-.5s-.3-.1-.4 0c-.2.2-.3.5-.3.7.1.5.6 1 1.1.8.9-.3 1.2-1.3 1.4-2.1.1-.4.1-.8.2-1.2.1.6.3 1.1.6 1.6.2.4.5.8 1 .7.4-.1.6-.4.8-.9.2.4.4.7.9.6.5 0 .9-.6 1-.9.2-.5.3-1 .3-1.5-.1-.5-.3-2-1.3-1.9zm.3 3.4c0 .1 0 .2-.1.3-.2 0-.3-.3-.4-.4-.1-.3-.2-.7-.3-1v-1.1c0-.1 0-.2.1-.3.5.3.6.9.6 1.4.2.5.2.7.1 1.1zM190.6-133.6c-1-.4-1.6 1-1.8 1.8-.2.7-.4 2 .5 2.4.4.2.9-.1 1.2-.4s.5-.8.6-1.3c.2-.8.4-2.1-.5-2.5zm-.6 3.4c0 .1-.1.2-.1.2-.1-.1-.2-.4-.2-.6-.1-.4 0-.7 0-1.1.1-.3.2-.7.3-1 0-.1.1-.1.1-.2.4.4.3 1.1.2 1.6s-.2.7-.3 1.1zM187.8-133.4c.2-.3.4-.5.6-.8.4-.6.7-1.3.7-1.9 0-.7-.9-.7-1.4-.5-.7.3-1 1-1.2 1.7-.3.9-.4 1.8-.4 2.7-.3.4-1 1.2-1.5.9-.1-.1-.2-.3-.3-.4.4-.4.8-.9 1.1-1.4s.5-1.3-.1-1.6c-.5-.3-1.1 0-1.5.4-.3.4-.5.9-.5 1.5 0 .3-.1.7 0 1.2-.3.2-.7.3-1 .2-.4-.1-.5-.5-.6-.8-.1-.5-.1-1 0-1.5 0-.1.1-.3.1-.4v-.1c.2.1.3.5.4.7.1.3 1-.2.9-.5s-.2-.7-.6-.9c-.4-.2-.9.1-1.1.3-.6.6-.7 1.6-.6 2.4 0 .5.1 1.2.6 1.5.6.4 1.5 0 2.1-.3.1.4.4.7.9.6.6-.1 1.2-.4 1.6-.9 0 .5.1 1 .5 1.2.5.3 1.2 0 1.6-.5.5-.6.7-1.4.5-2.2-.2-.4-.5-.6-.8-.6zm-3.5-.4c0-.1.1-.3.2-.4.3.1.3.4.3.6 0 .4-.3.8-.6 1.1v-.2c-.1-.3 0-.7.1-1.1zm3.3-1.9c.1-.1.1-.3.3-.4.4.4 0 1.1-.2 1.5s-.5.8-.7 1.2c.1-.4.1-.8.2-1.2s.2-.6.4-1.1zm-.2 4.7s-.1.1-.1.2h-.1c-.3-.1-.3-.7-.3-.9v-.6c.1-.1.2-.2.3-.4.2-.1.4.1.4.4.2.4 0 1.1-.2 1.3z"/></g></g></svg>