<svg xmlns="http://www.w3.org/2000/svg" viewBox="0 0 41.1 49.4"><path d="M41 28.8c-.1-2.3-.6-4.6-1.4-6.7-.3-.6-.5-1.2-.9-1.8-1.5-2.9-3.7-5.4-6.4-7.3-1.9-1.3-4-2.3-6.3-2.9-.1 0-.2 0-.3-.1.1-.2.1-.4.1-.7 0-.9-.5-1.7-1.3-2 .5-.7.8-1.6.8-2.5 0-2.4-1.9-4.3-4.3-4.3s-4.3 1.9-4.3 4.3c0 .9.3 1.8.8 2.5-.8.3-1.3 1.1-1.3 2 0 .2 0 .5.1.7-.2.1-.4.1-.6.1-1.8.5-3.5 1.2-5.1 2.2-3.3 2-6 4.9-7.7 8.5-.2.4-.4.8-.6 1.3-.8 2.1-1.3 4.3-1.4 6.7v.7c0 2.1.3 4.1.9 6 .1.5.3.9.5 1.3.8 1.9 1.8 3.7 3.1 5.3 1 1.2 2.2 2.3 3.4 3.3.6.5 1.2.9 1.9 1.2 2.3 1.4 4.9 2.3 7.7 2.6.8.1 1.6.2 2.4.2.7 0 1.4-.1 2.1-.1 2.7-.3 5.3-1.1 7.6-2.4.6-.4 1.3-.7 1.9-1.2 1.4-1 2.7-2.2 3.8-3.5 1.4-1.7 2.5-3.6 3.3-5.7.1-.3.2-.7.3-1 .6-1.9.9-3.9.9-6 .4-.2.4-.5.3-.7zM21.1 2.5c1.3 0 2.4 1.1 2.4 2.4 0 1.2-.9 2.2-2.1 2.3h-.6c-1.2-.1-2.1-1.1-2.1-2.3 0-1.4 1.1-2.4 2.4-2.4z" opacity=".4" fill="#7A7A7A"/><g fill="#EDEDED"><path d="M22.6 11h-5.1c-1.2 0-2.2-1-2.2-2.2 0-1.2 1-2.2 2.2-2.2h5.1c1.2 0 2.2 1 2.2 2.2 0 1.2-1 2.2-2.2 2.2z"/><path d="M20 8.5c-2.4 0-4.3-1.9-4.3-4.3.1-2.3 2-4.2 4.3-4.2 2.4 0 4.3 1.9 4.3 4.3 0 2.3-1.9 4.2-4.3 4.2zm0-6.6c-1.3 0-2.4 1.1-2.4 2.4 0 1.3 1.1 2.4 2.4 2.4 1.3 0 2.4-1.1 2.4-2.4 0-1.3-1.1-2.4-2.4-2.4z"/></g><path d="M39.6 25.5c0-.2-.1-.4-.1-.6-.3-1.6-.9-3.1-1.5-4.5-.3-.6-.6-1.2-1-1.8-.8-1.3-1.7-2.5-2.7-3.5-4.4-4.5-10.9-6.9-17.6-5.7-5.2.9-9.6 3.8-12.6 7.8-1.3 1.7-2.3 3.7-2.9 5.8-.2.7-.4 1.3-.5 2-.4 2.2-.5 4.4-.2 6.8 0 .2.1.4.1.6.4 2.1 1 4 1.9 5.7.2.3.3.6.5.9 1.1 1.9 2.5 3.6 4.2 5l.3.3c4.3 3.5 10.1 5.3 16 4.2 4.5-.8 8.3-3 11.2-6.1 1-1.1 1.9-2.3 2.7-3.7.4-.7.7-1.4 1-2.1.7-1.6 1.1-3.3 1.4-5 .2-2 .1-4-.2-6.1z" fill="#41D6D2"/><circle cx="20" cy="28.9" r="16" fill="#FFF"/><circle cx="20" cy="28.9" r="13.9" fill="#2DBAB3"/><path d="M31 28.5c-.6 0-1.3-.2-1.9-.2h-1.4c.9-1.1 1.7-2.3 2.5-3.5.1-.2-.2-.5-.4-.3-1.4-.4-2.7-.7-4.1-.8l1-1c.5-.4 1.1-.9 1.4-1.4.2-.3-.3-.7-.6-.4L26 22.1c-.3.3-.7.6-1 1-.1-1.4-.4-2.8-.7-4.2-.1-.2-.5-.2-.5 0-1.2.7-2.3 1.4-3.4 2.3v-1.4c0-.7.2-1.4 0-2-.1-.4-.7-.3-.7.1 0 .6-.2 1.3-.2 1.9v1.5c-1.1-.9-2.3-1.8-3.5-2.5-.2-.1-.5.2-.3.4-.4 1.4-.7 2.7-.8 4.1l-1-1c-.4-.5-.9-1.1-1.4-1.4-.3-.2-.7.3-.4.6l1.2 1.5c.3.3.6.7 1 1-1.4.1-2.8.4-4.2.7-.2.1-.2.5 0 .5.7 1.2 1.4 2.4 2.3 3.5H11c-.7 0-1.4-.2-2 0-.4.1-.3.7.1.7.6 0 1.3.2 1.9.2h1.4c-.9 1.1-1.7 2.3-2.5 3.5-.1.2.2.5.4.3 1.4.4 2.7.7 4.1.8l-1 1c-.5.4-1.1.9-1.4 1.4-.2.3.3.7.6.4l1.5-1.2c.3-.3.7-.6 1-1 .1 1.4.4 2.8.7 4.2.1.2.5.2.5 0 1.2-.7 2.3-1.4 3.4-2.3v1.4c0 .7-.2 1.4 0 2 .1.4.7.3.7-.1 0-.6.2-1.3.2-1.9v-1.5c1.1.9 2.3 1.8 3.5 2.5.2.1.5-.2.3-.4.4-1.4.7-2.7.8-4.1l1 1c.4.5.9 1.1 1.4 1.4.3.2.7-.3.4-.6l-1.2-1.5c-.3-.3-.6-.7-1-1 1.4-.1 2.8-.4 4.2-.7.2-.1.2-.5 0-.5-.7-1.2-1.4-2.4-2.3-3.5h1.4c.7 0 1.4.2 2 0 .4-.1.3-.7-.1-.7zm-4.5-.3h-1.4c-.1-.4-.5-.8-1.1-.8-.6 0-1 .4-1.1.8h-1.8c.3-.2.5-.5.7-.8.7-.8 1.5-1.6 2.3-2.4.2-.2.5-.4.7-.7 1.5 0 2.8.5 4.2.6-.9 1.1-1.6 2.3-2.5 3.3zm-2.7-8.5c0 1.4.3 2.7.5 4l-.7.7c-.8.8-1.5 1.6-2.3 2.4-.2.3-.5.5-.7.8v-1.1-.8c.4-.2.6-.6.6-1s-.2-.8-.5-1v-.6V22c.9-.8 2.1-1.3 3.1-2.3zm-4.3 2.6c.1 0 .1 0 0 0 .1.4.1.7.1 1v.5c-.5.1-.8.6-.8 1.1 0 .5.3.9.7 1.1v1.8c-.2-.3-.5-.5-.8-.7-.8-.7-1.6-1.5-2.4-2.3-.2-.2-.4-.5-.7-.7 0-1.5.5-2.8.6-4.2 1.1.8 2.3 1.5 3.3 2.4zM15 24.5l.7.7c.8.8 1.6 1.5 2.4 2.3.3.2.5.5.8.7h-1.1c-.4 0-.7 0-1.1.1-.2-.3-.5-.6-1-.6s-.8.3-1 .6h-1.1C12.5 27.3 12 26 11 25c1.4 0 2.7-.3 4-.5zm-1.5 4.8h1.2c.1.4.5.7 1 .7.6 0 1-.3 1.1-.8h2.1c-.3.2-.5.5-.7.8-.7.8-1.5 1.6-2.3 2.4-.2.2-.5.4-.7.7-1.5 0-2.8-.5-4.2-.6 1-1 1.7-2.2 2.5-3.2zm2.8 8.5c0-1.4-.3-2.7-.5-4l.7-.7c.8-.8 1.5-1.6 2.3-2.4.2-.3.5-.5.7-.8v2c-.5.1-.9.6-1 1.2 0 .5.4 1 .9 1.2v1.1c-.9.9-2.1 1.4-3.1 2.4zm4.2-2.6c-.1-.4-.1-.7-.1-1v-.1c.4-.2.7-.6.7-1.1 0-.4-.2-.8-.6-1v-1.1-1.1c.2.3.5.5.8.7.8.7 1.6 1.5 2.4 2.3.2.2.4.5.7.7 0 1.5-.5 2.8-.6 4.2-1-.9-2.3-1.6-3.3-2.5zM25 33l-.7-.7c-.8-.8-1.6-1.5-2.4-2.3-.3-.2-.5-.5-.8-.7h1.8c.2.4.5.7 1.1.7.6 0 1-.3 1.1-.7h1.3c1.1 1.1 1.6 2.4 2.6 3.4-1.3-.2-2.7.2-4 .3z" fill="#FFF"/><ellipse cx="20" cy="19.7" rx="12.3" ry="7" opacity=".2" fill="#FFF"/></svg>