<svg xmlns="http://www.w3.org/2000/svg" viewBox="0 0 41.2 49.5"><path d="M41.2 28.9c-.1-2.3-.6-4.6-1.4-6.7-.3-.6-.5-1.2-.9-1.8-1.5-2.9-3.7-5.4-6.4-7.3-1.9-1.3-4-2.3-6.3-2.9-.1 0-.2 0-.3-.1.1-.1.1-.3.1-.6 0-.9-.5-1.7-1.3-2 .5-.7.8-1.6.8-2.5 0-2.4-1.9-4.3-4.3-4.3C18.9.7 17 2.6 17 5c0 .9.3 1.8.8 2.5-.8.3-1.3 1.1-1.3 2 0 .2 0 .5.1.7-.2.1-.4.1-.6.1-1.8.5-3.5 1.2-5.1 2.2-3.3 2-6 4.9-7.7 8.5-.2.4-.4.8-.6 1.3-.8 2.1-1.3 4.3-1.4 6.7v.7c0 2.1.3 4.1.9 6 .1.5.3.9.5 1.3.8 1.9 1.8 3.7 3.1 5.3 1 1.2 2.2 2.3 3.4 3.3.6.5 1.2.9 1.9 1.2 2.3 1.4 4.9 2.3 7.7 2.6.8.1 1.6.2 2.4.2.7 0 1.4-.1 2.1-.1 2.7-.3 5.3-1.1 7.6-2.4.6-.4 1.3-.7 1.9-1.2 1.4-1 2.7-2.2 3.8-3.5 1.4-1.7 2.5-3.6 3.3-5.7.1-.3.2-.7.3-1 .6-1.9.9-3.9.9-6 .2-.3.2-.5.2-.8zM21.3 2.6c1.3 0 2.4 1.1 2.4 2.4 0 1.2-.9 2.2-2.1 2.3H21c-1.2-.1-2.1-1.1-2.1-2.3 0-1.3 1.1-2.4 2.4-2.4z" opacity=".4" fill="#7A7A7A"/><path d="M22.5 11h-5.1c-1.2 0-2.2-1-2.2-2.2 0-1.2 1-2.2 2.2-2.2h5.1c1.2 0 2.2 1 2.2 2.2 0 1.2-1 2.2-2.2 2.2z" fill="#EDEDED"/><path d="M20 8.5c-2.3 0-4.3-1.9-4.3-4.3C15.7 1.9 17.6 0 20 0c2.3 0 4.3 1.9 4.3 4.3-.1 2.3-2 4.2-4.3 4.2zm0-6.6c-1.3 0-2.4 1.1-2.4 2.4 0 1.3 1.1 2.4 2.4 2.4 1.3 0 2.4-1.1 2.4-2.4-.1-1.3-1.1-2.4-2.4-2.4z" fill="#EDEDED"/><path d="M39.9 28.2c-.1-2.3-.6-4.6-1.4-6.7-.3-.6-.5-1.2-.9-1.8-.6-1.1-1.2-2.1-2-3.1-1.1-1.4-2.3-2.6-3.7-3.6-.3-.2-.5-.4-.8-.6-1.1-.8-2.3-1.4-3.6-2-1.2-.5-2.5-.9-3.9-1.2-1.2-.2-2.5-.4-3.9-.4-1.3 0-2.5.1-3.7.4-1.3.3-2.6.6-3.8 1.1-1 .4-1.9.9-2.8 1.4-.3.5-.9.9-1.4 1.3-1.4 1-2.6 2.2-3.7 3.6-.9 1.1-1.7 2.4-2.3 3.7-.2.4-.4.8-.6 1.3C.6 23.7.1 25.9 0 28.3v.7c0 .8.1 1.6.2 2.4.2 1.2.4 2.4.8 3.6.1.5.3.9.5 1.3l.6 1.5c.7 1.4 1.5 2.7 2.5 3.9C5.6 42.9 6.8 44 8 45c1.4 1 2.9 1.9 4.4 2.5 1.7.7 3.5 1.2 5.4 1.4.7.1 1.4.1 2.1.1.8 0 1.5-.1 2.2-.1 1.9-.2 3.7-.7 5.4-1.4 1.4-.6 2.7-1.3 4-2.2 1.4-1 2.7-2.2 3.8-3.5 1-1.2 1.9-2.6 2.5-4 .3-.5.5-1.1.7-1.7.1-.3.2-.7.3-1 .4-1.2.6-2.5.8-3.7.1-.7.1-1.5.1-2.3.2-.5.2-.7.2-.9z" fill="#7FEFCD"/><ellipse cx="19.9" cy="18" rx="12.3" ry="7" opacity=".2" fill="#FFF"/></svg>