<svg xmlns="http://www.w3.org/2000/svg" viewBox="0 0 41.3 49.4"><path d="M41.3 28.8c-.1-2.3-.6-4.6-1.4-6.7-.3-.6-.5-1.2-.9-1.8-1.5-2.9-3.7-5.4-6.4-7.3-1.9-1.3-4-2.3-6.3-2.9-.1 0-.2 0-.3-.1.1-.2.1-.4.1-.7 0-.9-.5-1.7-1.3-2 .5-.7.8-1.6.8-2.5 0-2.4-1.9-4.3-4.3-4.3S17 2.4 17 4.8c0 .9.3 1.8.8 2.5-.8.3-1.3 1.1-1.3 2 0 .2 0 .5.1.7-.2.1-.4.1-.6.1-1.8.5-3.5 1.2-5.1 2.2-3.3 2-6 4.9-7.7 8.5-.2.4-.4.8-.6 1.3-.8 2.1-1.3 4.3-1.4 6.7v.7c0 2.1.3 4.1.9 6 .1.5.3.9.5 1.3.8 1.9 1.8 3.7 3.1 5.3 1 1.2 2.2 2.3 3.4 3.3.6.5 1.2.9 1.9 1.2 2.3 1.4 4.9 2.3 7.7 2.6.8.1 1.6.2 2.4.2.7 0 1.4-.1 2.1-.1 2.7-.3 5.3-1.1 7.6-2.4.6-.4 1.3-.7 1.9-1.2 1.4-1 2.7-2.2 3.8-3.5 1.4-1.7 2.5-3.6 3.3-5.7.1-.3.2-.7.3-1 .6-1.9.9-3.9.9-6 .3-.2.3-.5.3-.7zm-20-26.3c1.3 0 2.4 1.1 2.4 2.4 0 1.2-.9 2.2-2.1 2.3H21c-1.1-.2-2-1.1-2-2.4 0-1.3 1-2.3 2.3-2.3z" opacity=".4" fill="#7A7A7A"/><g fill="#EDEDED"><path d="M22.6 11h-5.1c-1.2 0-2.2-1-2.2-2.2 0-1.2 1-2.2 2.2-2.2h5.1c1.2 0 2.2 1 2.2 2.2.1 1.2-.9 2.2-2.2 2.2z"/><path d="M20.1 8.5c-2.4 0-4.3-1.9-4.3-4.3s1.9-4.3 4.3-4.3 4.3 1.9 4.3 4.3-1.9 4.3-4.3 4.3zm0-6.6c-1.3 0-2.4 1.1-2.4 2.4 0 1.3 1.1 2.4 2.4 2.4s2.4-1.1 2.4-2.4c0-1.3-1.1-2.4-2.4-2.4z"/></g><path d="M38.8 22c-.6-1.5-1.3-3-2.1-4.3-.7-1-1.5-2-2.4-2.9-1.2-1.2-2.6-2.3-4.1-3.2-.3-.2-.6-.3-.9-.5-7.8 1.8-14.8.9-18.6.1-1.5.8-2.9 1.8-4.1 2.9-1.3 1.2-2.4 2.5-3.3 4-.8 1.2-1.4 2.6-1.9 3.9 4.9 1.6 18.6 4.9 37.4 0z" fill="#FFE6A6"/><path d="M40 29.6c.1-1.7-.1-3.4-.4-5.1v-.1c0-.2-.1-.4-.1-.5-.2-.7-.4-1.3-.6-2-18.8 5-32.5 1.7-37.5 0C1 23 .7 24.2.5 25.4c-.2 1.1-.3 2.1-.3 3.2 0 1.2.1 2.4.3 3.6 0 .2.1.4.1.6.1.3.2.6.2.9.2.8.5 1.6.8 2.4 18.3-4.8 31.7-1.8 37-.2.7-1.7 1.1-3.6 1.3-5.5.1-.1.1-.4.1-.8z" fill="#FFDC7B"/><path d="M1.6 36.3c.3.8.7 1.6 1.1 2.4 1 1.7 2.2 3.3 3.6 4.6.4.4.8.8 1.3 1.1.9.7 1.9 1.4 2.9 1.9.3.2.7.4 1 .5 6.9-1.3 13-.6 16.6.1 1.8-.8 3.5-1.9 5-3.2 1.3-1.2 2.5-2.5 3.4-3.9.4-.6.8-1.3 1.1-1.9.3-.6.6-1.2.8-1.8-5.1-1.7-18.5-4.7-36.8.2z" fill="#FFE6A6"/><g fill="#D3A94A"><path d="M29.4 11.1c-2.6-1.4-5.6-2.2-8.6-2.3-1.6 0-3.2.1-4.8.4-.1 0-.3.1-.4.1-1.7.4-3.3 1-4.8 1.8 3.8.9 10.8 1.8 18.6 0zM11.7 46.8c2.5 1.2 5.3 1.8 8.1 1.9 1.5 0 3-.1 4.5-.5.2 0 .4-.1.6-.2 1.2-.3 2.3-.7 3.3-1.1-3.5-.7-9.6-1.4-16.5-.1z"/></g><g fill="#FF3939"><path d="M11 13.9c-2.5 1.5-4.8 3.8-5.3 6.7v.5c.1.3.4.5.7.5.6 0 1.2-.3 1.6-.7.4-.4.6-1 .9-1.5.6-1.3 1.2-2.6 1.7-3.9l.4-1.6z"/><path d="M10.9 13.6c-1.9 1.2-3.6 2.6-4.7 4.6-.5.9-1.6 3-.2 3.7 1.5.7 2.7-1.2 3.2-2.3.9-1.8 1.7-3.6 2.1-5.5.1-.4-.5-.6-.6-.2-.5 2.1-1.4 4-2.3 5.9-.3 1-1.1 1.3-2.3.9.1-.5.2-.9.4-1.3.3-.7.7-1.4 1.1-2 1-1.3 2.3-2.3 3.6-3.1.3-.4 0-1-.3-.7zM17.6 13.3c-1.9 2.3-3.4 5.2-2.9 8.1 0 .2.1.3.1.4.2.3.5.3.8.3.6-.1 1-.6 1.3-1.1.2-.5.3-1.1.4-1.7.1-1.4.3-2.8.4-4.2l-.1-1.8z"/><path d="M17.3 13.1c-1.4 1.8-2.7 3.8-3 6.1-.1 1.1-.3 3.5 1.4 3.2 1.9-.3 1.9-3 2-4.3.2-1.7.3-3.2.1-4.8 0-.4-.7-.3-.6.1.2 2 0 4.1-.3 6.1 0 .6-.2 1.1-.5 1.6-1.3.2-1.8-.3-1.5-1.4 0-.8.2-1.6.5-2.3.5-1.5 1.4-2.8 2.4-4 .3-.2-.2-.6-.5-.3z"/><g><path d="M29.2 13.9c2.5 1.5 4.8 3.8 5.3 6.8v.5c-.1.3-.4.5-.7.5-.6.1-1.2-.2-1.6-.7-.4-.4-.6-1-.9-1.5-.6-1.3-1.2-2.6-1.7-3.9l-.4-1.7z"/><path d="M29 14.2c1.2.7 2.3 1.6 3.2 2.6.5.6 1 1.3 1.3 2 .1.3.4.7.4 1.1 0 .1.1.3.1.4-.7.9-1.3 1-1.7.2-1.1-1.1-1.5-3-2.1-4.4-.3-.8-.5-1.5-.7-2.3-.1-.4-.7-.3-.6.1.4 1.7 1 3.1 1.7 4.7.5 1.2 1.6 4.1 3.6 3.2 1.4-.6.2-3-.3-3.9-1.1-1.8-2.7-3.2-4.5-4.4-.4-.1-.8.4-.4.7z"/></g><g><path d="M22.6 13.3c1.9 2.3 3.4 5.2 2.8 8.1 0 .2-.1.3-.1.4-.2.3-.5.3-.8.3-.6-.1-1-.6-1.3-1.1-.2-.5-.3-1.1-.3-1.7-.1-1.4-.3-2.8-.4-4.2l.1-1.8z"/><path d="M22.3 13.6c1 1.2 1.8 2.5 2.4 4 .2.6.4 1.3.5 1.9.1.5.1 1 0 1.4-1.4.5-2 .2-2-1.1-.4-2.1-.5-4.3-.3-6.4 0-.4-.6-.5-.7-.1-.1 1.7 0 3.1.1 4.8.1 1.3.2 4.4 2.2 4.3 1.6-.1 1.3-2.3 1.1-3.4-.3-2.2-1.5-4.2-2.9-5.9-.1-.3-.6.1-.4.5z"/></g></g><g fill="#FF3939"><path d="M29.1 44.3c2.5-1.5 4.8-3.8 5.3-6.7v-.5c-.1-.3-.4-.5-.7-.5-.6-.1-1.2.2-1.6.7-.4.4-.6 1-.9 1.5-.6 1.3-1.2 2.6-1.7 3.9l-.4 1.6z"/><path d="M29.2 44.6c1.9-1.2 3.6-2.6 4.7-4.6.5-.9 1.6-3 .2-3.7-1.5-.7-2.7 1.2-3.2 2.3-.9 1.8-1.7 3.6-2.1 5.5-.1.4.5.6.6.2.5-2.1 1.4-4 2.3-5.9.3-1 1.1-1.3 2.3-.9-.1.5-.2.9-.4 1.3-.3.7-.7 1.4-1.1 2-1 1.3-2.3 2.3-3.6 3.1-.3.3 0 .9.3.7zM22.5 44.8c1.9-2.3 3.4-5.2 2.9-8.1 0-.2-.1-.3-.1-.4-.2-.3-.5-.3-.8-.3-.6.1-1 .6-1.3 1.1-.2.5-.3 1.1-.4 1.7-.1 1.4-.3 2.8-.4 4.2l.1 1.8z"/><path d="M22.8 45c1.4-1.8 2.7-3.8 3-6.1.1-1.1.3-3.5-1.4-3.2-1.9.3-1.9 3-2 4.3-.2 1.7-.3 3.2-.1 4.8 0 .4.7.3.6-.1-.2-2 0-4.1.3-6.1 0-.6.2-1.1.5-1.6 1.3-.2 1.8.3 1.5 1.4 0 .8-.2 1.6-.5 2.3-.5 1.5-1.4 2.8-2.4 4-.3.2.2.6.5.3z"/><g><path d="M11 44.3c-2.5-1.5-4.8-3.8-5.3-6.8V37c.1-.3.4-.5.7-.5.6 0 1.2.3 1.6.7.4.4.6 1 .9 1.5.6 1.3 1.2 2.6 1.7 3.9l.4 1.7z"/><path d="M11.2 44c-1.2-.7-2.3-1.6-3.2-2.6-.5-.6-1-1.3-1.3-2-.1-.3-.4-.7-.4-1.1 0-.1-.1-.3-.1-.4.7-.9 1.3-1 1.7-.2 1.1 1.1 1.5 3 2.1 4.4.3.8.5 1.5.7 2.3.1.4.7.3.6-.1-.4-1.7-1-3.1-1.7-4.7C9 38.3 8 35.4 6 36.3c-1.4.6-.2 3 .3 3.9 1.1 1.8 2.7 3.2 4.5 4.4.3.1.7-.4.4-.6z"/></g><g><path d="M17.5 44.8c-1.9-2.3-3.4-5.2-2.8-8.1 0-.2.1-.3.1-.4.2-.3.6-.3.9-.3.6.1 1 .6 1.3 1.1.2.5.3 1.1.3 1.7.1 1.4.3 2.8.4 4.2l-.2 1.8z"/><path d="M17.8 44.6c-1-1.2-1.8-2.5-2.4-4-.2-.6-.4-1.2-.4-1.9-.1-.5-.1-1 0-1.4 1.4-.5 2-.2 2 1.1.4 2.1.5 4.3.3 6.4 0 .4.6.5.7.1.1-1.7 0-3.1-.1-4.8-.1-1.3-.2-4.4-2.2-4.3-1.6.1-1.3 2.3-1.1 3.4.3 2.2 1.5 4.2 2.9 5.9 0 .2.6-.2.3-.5z"/></g></g><g fill="#FF3939"><circle cx="3.8" cy="29.6" r="1.1"/><circle cx="16.6" cy="29.6" r="1.1"/><circle cx="29.4" cy="29.6" r="1.1"/><circle cx="10.2" cy="29" r="1.6"/><circle cx="23" cy="29" r="1.6"/><circle cx="35.8" cy="29.1" r="1.6"/></g><path d="M13.4 25.1c-7.6-.7-12.2-2.5-12.3-2.5-.3-.1-.5-.5-.4-.9.1-.3.5-.5.9-.4.2.1 15.6 6.1 37.1-.1.3-.1.7.1.8.4.1.3-.1.7-.4.8-10.3 3.1-19.1 3.3-25.7 2.7zM1.5 36.9c-.3 0-.5-.2-.6-.5-.1-.3.1-.7.4-.8.2-.1 18.4-5.8 37.4-.2.3.1.5.5.4.8-.1.3-.5.5-.8.4-18.5-5.4-36.3.2-36.5.3h-.3z" fill="#D3A94A"/><ellipse cx="20.1" cy="19.7" rx="12.3" ry="7" opacity=".2" fill="#FFF"/></svg>