<svg xmlns="http://www.w3.org/2000/svg" viewBox="0 0 380 380"><path fill="#1BADC3" d="M0 0h380v380H0z"/><path d="M239.8 183.5c7.7 0 14.7-1.8 18.8-3.8-6.3-5.8-14.8-15.8-24.1-28.5h-.2c-.3 0-.5.1-.8.1h-.4c-.2 0-.5 0-.7.1h-2.7-.1c-4.2 0-9.3-.6-14-3-2.1 1.8-7.4 5.6-16.7 6.5h-.1c-.4 0-.8.1-1.1.1-1 .1-2 .1-3.1.1s-2.1 0-3.1-.1c-10-.7-15.7-4.7-17.9-6.6-4.7 2.3-9.7 3-14 3h-2.7c-.3 0-.5 0-.8-.1h-.4c-.3 0-.5-.1-.8-.1h-.2c-9.3 12.8-17.8 22.8-24.1 28.5 4 2 11.1 3.8 18.8 3.8 6.8 0 12.9-1.4 17.6-4.1l1.2-.7.9 1.1c.1.1 8 8.6 25.5 8.6 17.7 0 25.4-8.5 25.5-8.6l.9-1.1 1.2.7c4.7 2.7 10.7 4.1 17.6 4.1z" fill="#118793"/><path d="M154.1 144.3c.5.1.9.1 1.4.2h.1c.4 0 .8.1 1.2.1h.2c.4 0 .8 0 1.2.1h3.6c.4 0 .9-.1 1.3-.1.3 0 .6-.1.9-.1.2 0 .5-.1.7-.1.3 0 .6-.1.9-.1.2 0 .4-.1.5-.1l1.5-.3c.2-.1.4-.1.6-.2.3-.1.5-.1.8-.2l.9-.3c.2-.1.5-.2.7-.3.3-.1.6-.3.9-.4.1-.1.3-.1.4-.2l1.2-.6 1.2-.7.9 1.1c.1.1 6.1 6.5 19.4 6.5 13.4 0 19.4-6.5 19.4-6.5l.9-1 1.2.7 1.2.6c.1.1.3.1.4.2.3.1.6.3 1 .4.2.1.4.2.7.3l.9.3c.2.1.5.2.7.2.2.1.4.1.6.2.5.1.9.2 1.4.3.2 0 .4.1.6.1.3.1.6.1.9.1.2 0 .5.1.7.1.3 0 .6.1.9.1.4 0 .9.1 1.3.1H231c.4 0 .8 0 1.2-.1h.1c.4 0 .8-.1 1.3-.1h.1c.5 0 .9-.1 1.4-.2 3.2-.4 6.2-1.3 8.3-2.3-5.9-5.4-13.9-15.3-22.4-27.5h-2.3c-.2 0-.5 0-.7-.1-.2 0-.4 0-.6-.1-.2 0-.5-.1-.7-.1-.2 0-.4-.1-.5-.1-.2 0-.5-.1-.7-.1-.2 0-.3-.1-.5-.1-.2-.1-.5-.1-.7-.2-.1 0-.3-.1-.4-.1-.3-.1-.5-.2-.7-.2-.1 0-.2-.1-.4-.1-.4-.1-.7-.3-1.1-.4-.3-.1-.6-.3-.9-.4-2 1.7-7.2 5.1-16.2 5.1s-14.2-3.4-16.2-5.1c-.3.1-.6.3-.9.4-.3.1-.7.3-1.1.4-.1 0-.2.1-.4.1-.2.1-.5.2-.7.2-.1 0-.3.1-.5.1-.2.1-.5.1-.7.2-.2 0-.3.1-.5.1s-.4.1-.7.1c-.2 0-.4.1-.5.1-.2 0-.5.1-.7.1-.2 0-.4 0-.6.1-.2 0-.5.1-.7.1h-2.3c-8.5 12.2-16.5 22.1-22.4 27.5 2.2.9 5.2 1.8 8.4 2.2zM211.8 81.3c-2.7.1-5.3-.3-7.4-1.2-.1.1-.3.2-.4.3-1 .7-2.7 1.7-5.2 2.2-1.3.3-2.8.4-4.2.4-1.4 0-2.9-.2-4.2-.4-2.5-.6-4.2-1.5-5.2-2.2-.2-.1-.3-.2-.4-.3-2.1.9-4.6 1.3-7.4 1.2-7.2 10.7-14.4 19.8-19.6 24.8 2.3.9 5.8 1.7 9.5 1.8 3.3 0 6.3-.5 8.8-1.5 0 0 .1 0 .1-.1.6-.2 1.1-.5 1.6-.8l1.2-.7.9 1.1c.2.2 4.6 4.9 14.6 4.9 10.2 0 14.6-4.8 14.6-4.9l.9-1.1 1.2.7c.5.3 1.1.6 1.7.8 2.5 1 5.5 1.6 8.8 1.5 3.8-.1 7.2-.8 9.5-1.8-5-4.9-12.2-14-19.4-24.7zM194.5 42.1c-4.3 9.9-14.5 24.9-21 31.6.8.3 1.9.5 3 .6 1.7.2 4.9.2 7.5-1.2l1.2-.7.9 1s.3.3.9.7c.8.5 2.1 1.2 4 1.7h.1c1.1.2 2.2.3 3.4.3 1.2 0 2.3-.1 3.4-.4h.1c1.9-.4 3.2-1.1 4-1.7.6-.4.9-.7.9-.7l.9-1 1.2.7c2.6 1.5 5.8 1.4 7.5 1.2 1.2-.1 2.2-.3 3-.6-6.5-6.6-16.6-21.6-21-31.5z" fill="#118793"/><circle cx="187.8" cy="76.1" r="3.6" fill="#FFF" stroke="#FFF" stroke-width="2" stroke-linecap="round" stroke-linejoin="round" stroke-miterlimit="10"/><circle cx="212.4" cy="168.4" r="3.6" fill="#FFF" stroke="#FFF" stroke-width="2" stroke-linecap="round" stroke-linejoin="round" stroke-miterlimit="10"/><circle cx="195" cy="126.8" r="3.6" fill="#FFF" stroke="#FFF" stroke-width="2" stroke-linecap="round" stroke-linejoin="round" stroke-miterlimit="10"/><circle cx="177.8" cy="94.3" r="2.3" fill="#FFF" stroke="#FFF" stroke-width="2" stroke-linecap="round" stroke-linejoin="round" stroke-miterlimit="10"/><circle cx="204.8" cy="85.7" r="2.3" fill="#FFF" stroke="#FFF" stroke-width="2" stroke-linecap="round" stroke-linejoin="round" stroke-miterlimit="10"/><circle cx="149.3" cy="172" r="3.6" fill="#FFF" stroke="#FFF" stroke-width="2" stroke-linecap="round" stroke-linejoin="round" stroke-miterlimit="10"/><circle cx="212.4" cy="108" r="7.6" fill="#FFF" stroke="#FFF" stroke-width="2" stroke-linecap="round" stroke-linejoin="round" stroke-miterlimit="10"/><circle cx="235.7" cy="157.6" r="7.6" fill="#FFF" stroke="#FFF" stroke-width="2" stroke-linecap="round" stroke-linejoin="round" stroke-miterlimit="10"/><circle cx="175" cy="144.9" r="12.8" fill="#FFF" stroke="#FFF" stroke-width="2" stroke-linecap="round" stroke-linejoin="round" stroke-miterlimit="10"/><path d="M221.8 107.8s135.6-4.6 126.6 185.5" fill="none" stroke="#FFF" stroke-width="2" stroke-linecap="round" stroke-linejoin="round"/><path fill="#FFF" d="M342.6 288.3l1.1-.9 4.7 5.3 5-5 1 1-6.1 6.1"/><g fill="#FFF"><path d="M63.1 236.4h-2V228H57v8.4h-2v-10h8.1v10zM68 236.5c-1.1 0-2-.3-2.6-1-.6-.7-.9-1.5-.9-2.6v-.3c0-1.1.3-2 .9-2.7s1.4-1.1 2.5-1.1c1 0 1.8.3 2.3.9.5.6.8 1.4.8 2.5v1h-4.4c0 .5.2.9.5 1.2s.7.5 1.2.5c.4 0 .8 0 1.1-.1s.6-.2 1-.4l.5 1.2c-.3.2-.7.4-1.2.6s-1.1.3-1.7.3zm-.2-6.1c-.4 0-.7.1-.9.4-.2.3-.3.6-.4 1.1H69v-.2c0-.4-.1-.8-.3-1-.2-.2-.5-.3-.9-.3zM78.8 232.9c0 1.1-.3 2-.8 2.6s-1.2 1-2.1 1c-.4 0-.7-.1-1-.2-.3-.1-.6-.4-.8-.6v3.5h-2V229h1.8l.1.9c.2-.3.5-.6.8-.7.3-.2.7-.3 1.1-.3.9 0 1.6.4 2.1 1.1s.8 1.7.8 2.8v.1zm-2-.1c0-.7-.1-1.3-.3-1.7s-.6-.6-1.1-.6c-.3 0-.6.1-.8.2s-.4.3-.5.5v3.2c.1.2.3.4.5.5s.5.2.8.2c.5 0 .8-.2 1.1-.6s.3-.9.3-1.5v-.2zM83.2 236.5c-1.1 0-2-.3-2.6-1-.6-.7-.9-1.5-.9-2.6v-.3c0-1.1.3-2 .9-2.7s1.4-1.1 2.5-1.1c1 0 1.8.3 2.3.9.5.6.8 1.4.8 2.5v1h-4.4c0 .5.2.9.5 1.2s.7.5 1.2.5c.4 0 .8 0 1.1-.1s.6-.2 1-.4l.5 1.2c-.3.2-.7.4-1.2.6s-1.1.3-1.7.3zm-.1-6.1c-.4 0-.7.1-.9.4-.2.3-.3.6-.4 1.1h2.4v-.2c0-.4-.1-.8-.3-1-.1-.2-.4-.3-.8-.3zM91.8 234.1l1.9-5.1h2.5v7.4h-2V232l-1.7 4.4h-1.3l-1.7-4.3v4.3h-2V229H90l1.8 5.1zM101.2 236.5c-1.1 0-2-.3-2.6-1-.6-.7-.9-1.5-.9-2.6v-.3c0-1.1.3-2 .9-2.7s1.4-1.1 2.5-1.1c1 0 1.8.3 2.3.9.5.6.8 1.4.8 2.5v1h-4.4c0 .5.2.9.5 1.2s.7.5 1.2.5c.4 0 .8 0 1.1-.1s.6-.2 1-.4l.5 1.2c-.3.2-.7.4-1.2.6s-1.1.3-1.7.3zm-.2-6.1c-.4 0-.7.1-.9.4-.2.3-.3.6-.4 1.1h2.4v-.2c0-.4-.1-.8-.3-1-.1-.2-.4-.3-.8-.3zM107.2 229v5.9h2V229h2v5.9h2V229h2v5.8h1.5v4h-2v-2.5h-9.5V229h2zM122.3 236.4c-.1-.2-.1-.3-.2-.5s-.1-.4-.1-.6c-.2.4-.5.7-.8.9s-.7.4-1.2.4c-.8 0-1.4-.2-1.8-.6-.4-.4-.6-.9-.6-1.6 0-.7.3-1.3.8-1.7.6-.4 1.4-.6 2.4-.6h1.1v-.6c0-.4-.1-.6-.3-.8s-.5-.3-.8-.3c-.3 0-.6.1-.7.2-.2.2-.3.4-.3.6h-1.9c0-.6.2-1.2.8-1.6.6-.5 1.3-.7 2.3-.7.9 0 1.6.2 2.2.7s.8 1.1.8 1.9v3.1c0 .3 0 .7.1 1s.1.6.2.9h-2zm-1.8-1.3c.3 0 .7-.1.9-.3s.5-.4.6-.6v-1h-1.1c-.4 0-.7.1-1 .3s-.3.5-.3.8c0 .3.1.5.2.6.2.1.4.2.7.2zM129.9 229h2v7.4h-2v-4.5l-2.4 4.5h-2V229h2v4.5l2.4-4.5zm1.1-3.2c0 .6-.2 1.1-.6 1.5-.4.4-1 .5-1.7.5s-1.3-.2-1.7-.5c-.4-.4-.6-.8-.6-1.4h1.5c0 .2.1.4.2.6s.4.2.7.2c.3 0 .5-.1.6-.2s.2-.4.2-.6h1.4zM139.6 230.5h-2.4v5.9h-2v-5.9h-2.3V229h6.7v1.5zM143.8 236.5c-1.1 0-2-.3-2.6-1-.6-.7-.9-1.5-.9-2.6v-.3c0-1.1.3-2 .9-2.7s1.4-1.1 2.5-1.1c1 0 1.8.3 2.3.9.5.6.8 1.4.8 2.5v1h-4.4c0 .5.2.9.5 1.2s.7.5 1.2.5c.4 0 .8 0 1.1-.1s.6-.2 1-.4l.5 1.2c-.3.2-.7.4-1.2.6s-1.1.3-1.7.3zm-.2-6.1c-.4 0-.7.1-.9.4-.2.3-.3.6-.4 1.1h2.4v-.2c0-.4-.1-.8-.3-1-.1-.2-.4-.3-.8-.3zM155.8 229h2v7.4h-2v-4.5l-2.4 4.5h-2V229h2v4.5l2.4-4.5zM164.3 230.5h-3.1v5.9h-2V229h5.1v1.5zM171.8 232.9c0 1.1-.3 2-.8 2.6s-1.2 1-2.1 1c-.4 0-.7-.1-1-.2-.3-.1-.6-.4-.8-.6v3.5h-2V229h1.8l.1.9c.2-.3.5-.6.8-.7.3-.2.7-.3 1.1-.3.9 0 1.6.4 2.1 1.1s.8 1.7.8 2.8v.1zm-2-.1c0-.7-.1-1.3-.3-1.7s-.6-.6-1.1-.6c-.3 0-.6.1-.8.2s-.4.3-.5.5v3.2c.1.2.3.4.5.5s.5.2.8.2c.5 0 .8-.2 1.1-.6s.3-.9.3-1.5v-.2zM175.6 233.3l.1.4 1.4-4.7h2.1l-3 8.5c-.2.5-.5 1-.9 1.3-.4.4-.9.5-1.6.5h-.5s-.3-.1-.5-.1l.2-1.5h.4c.3 0 .6-.1.8-.2.2-.2.3-.4.4-.6l.2-.6-2.6-7.4h2.1l1.4 4.4zM182.1 229v5.9h2V229h2v5.9h2V229h2v7.4h-10V229h2zM194.5 233.6h-.8v2.8h-2V229h2v2.8h.6l1.7-2.8h2.5l-2.4 3.4 2.7 4h-2.7l-1.6-2.8zM204.1 229h2v7.4h-2v-4.5l-2.4 4.5h-2V229h2v4.5l2.4-4.5zM217.4 236.4h-2v-5.9H213v5.9h-2V229h6.4v7.4zM218.6 232.6c0-1.1.3-2 .9-2.7.6-.7 1.5-1.1 2.6-1.1s2 .4 2.6 1.1.9 1.6.9 2.7v.1c0 1.1-.3 2-.9 2.7-.6.7-1.5 1-2.6 1s-1.9-.3-2.6-1c-.6-.7-.9-1.6-.9-2.7v-.1zm2 .2c0 .7.1 1.2.4 1.6.2.4.6.6 1.1.6.5 0 .9-.2 1.1-.6.2-.4.4-1 .4-1.6v-.1c0-.7-.1-1.2-.4-1.6s-.6-.6-1.1-.6c-.5 0-.9.2-1.1.6-.2.4-.4 1-.4 1.6v.1zM233.5 236.5c-1.1 0-2-.3-2.6-1-.6-.7-.9-1.5-.9-2.6v-.3c0-1.1.3-2 .9-2.7s1.4-1.1 2.5-1.1c1 0 1.8.3 2.3.9.5.6.8 1.4.8 2.5v1h-4.4c0 .5.2.9.5 1.2.3.3.7.5 1.2.5.4 0 .8 0 1.1-.1.3-.1.6-.2 1-.4l.5 1.2c-.3.2-.7.4-1.2.6s-1.1.3-1.7.3zm-1.1-8.9h-1.8v-1.4h1.8v1.4zm1 2.8c-.4 0-.7.1-.9.4-.2.3-.3.6-.4 1.1h2.4v-.2c0-.4-.1-.8-.3-1-.1-.2-.4-.3-.8-.3zm2.5-2.8H234v-1.4h1.8v1.4zM244 229v7.4h-2v-5.9h-1.8v1.6c0 1.5-.2 2.5-.7 3.2-.4.7-1.2 1-2.3 1h-.2v-1.6h.2c.5 0 .8-.2.9-.6s.2-1.1.2-2.1v-3h5.7zM248.4 233.6h-.8v2.8h-2V229h2v2.8h.6l1.7-2.8h2.5l-2.4 3.4 2.7 4H250l-1.6-2.8zM256.6 236.5c-1.1 0-2-.3-2.6-1-.6-.7-.9-1.5-.9-2.6v-.3c0-1.1.3-2 .9-2.7s1.4-1.1 2.5-1.1c1 0 1.8.3 2.3.9.5.6.8 1.4.8 2.5v1h-4.4c0 .5.2.9.5 1.2.3.3.7.5 1.2.5.4 0 .8 0 1.1-.1.3-.1.6-.2 1-.4l.5 1.2c-.3.2-.7.4-1.2.6s-1.1.3-1.7.3zm-.2-6.1c-.4 0-.7.1-.9.4-.2.3-.3.6-.4 1.1h2.4v-.2c0-.4-.1-.8-.3-1-.1-.2-.4-.3-.8-.3zM262.8 236.3l-1.1 2.2h-1.3l.5-2.2v-1.6h1.9v1.6zM272.3 234.1l1.9-5.1h2.5v7.4h-2V232l-1.7 4.4h-1.3l-1.7-4.3v4.3h-2V229h2.5l1.8 5.1zM281.6 236.5c-1.1 0-2-.3-2.6-1-.6-.7-.9-1.5-.9-2.6v-.3c0-1.1.3-2 .9-2.7s1.4-1.1 2.5-1.1c1 0 1.8.3 2.3.9.5.6.8 1.4.8 2.5v1h-4.4c0 .5.2.9.5 1.2.3.3.7.5 1.2.5.4 0 .8 0 1.1-.1.3-.1.6-.2 1-.4l.5 1.2c-.3.2-.7.4-1.2.6s-1.1.3-1.7.3zm-.1-6.1c-.4 0-.7.1-.9.4-.2.3-.3.6-.4 1.1h2.4v-.2c0-.4-.1-.8-.3-1-.1-.2-.4-.3-.8-.3zM292.1 236.4h-2v-2.9h-2.4v2.9h-2V229h2v3h2.4v-3h2v7.4zM299.9 229v7.4h-2v-2.6h-1.2l-1.4 2.6h-2l1.6-2.9c-.5-.2-.8-.5-1-.8-.2-.4-.4-.8-.4-1.2 0-.7.3-1.3.9-1.8.6-.5 1.3-.7 2.3-.7h3.2zm-4.4 2.5c0 .3.1.5.3.7.2.2.5.3.8.3h1.3v-1.9h-1.3c-.4 0-.7.1-.9.3s-.2.3-.2.6zM306 229h2v7.4h-2v-4.5l-2.4 4.5h-2V229h2v4.5l2.4-4.5zm1.1-3.2c0 .6-.2 1.1-.6 1.5-.4.4-1 .5-1.7.5s-1.3-.2-1.7-.5c-.4-.4-.6-.8-.6-1.4h1.5c0 .2.1.4.2.6.1.2.4.2.7.2.3 0 .5-.1.6-.2.1-.2.2-.4.2-.6h1.4zM315.7 230.5h-2.4v5.9h-2v-5.9H309V229h6.7v1.5zM319.9 236.5c-1.1 0-2-.3-2.6-1-.6-.7-.9-1.5-.9-2.6v-.3c0-1.1.3-2 .9-2.7s1.4-1.1 2.5-1.1c1 0 1.8.3 2.3.9.5.6.8 1.4.8 2.5v1h-4.4c0 .5.2.9.5 1.2.3.3.7.5 1.2.5.4 0 .8 0 1.1-.1.3-.1.6-.2 1-.4l.5 1.2c-.3.2-.7.4-1.2.6s-1.2.3-1.7.3zm-.2-6.1c-.4 0-.7.1-.9.4-.2.3-.3.6-.4 1.1h2.4v-.2c0-.4-.1-.8-.3-1-.1-.2-.4-.3-.8-.3zM59.5 245.8h2v7.4h-2v-4.5l-2.4 4.5h-2v-7.4h2v4.5l2.4-4.5zM65.7 248.1l1.2-2.4h2.3l-2.2 3.7 2.3 3.7H67l-1.2-2.5-1.2 2.5h-2.3l2.3-3.7-2.2-3.7h2.2l1.1 2.4zM80.3 249.7c0 1.1-.3 2-.8 2.6s-1.2 1-2.1 1c-.4 0-.7-.1-1-.2-.3-.1-.6-.4-.8-.6v3.5h-2v-10.2h1.8l.1.9c.2-.3.5-.6.8-.7.3-.2.7-.3 1.1-.3.9 0 1.6.4 2.1 1.1s.8 1.7.8 2.8v.1zm-2-.2c0-.7-.1-1.3-.3-1.7s-.6-.6-1.1-.6c-.3 0-.6.1-.8.2s-.4.3-.5.5v3.2c.1.2.3.4.5.5s.5.2.8.2c.5 0 .8-.2 1.1-.6s.3-.9.3-1.5v-.2zM85.9 253.2c-.1-.2-.1-.3-.2-.5s-.1-.4-.1-.6c-.2.4-.5.7-.8.9s-.7.4-1.2.4c-.8 0-1.4-.2-1.8-.6-.4-.4-.6-.9-.6-1.6 0-.7.3-1.3.8-1.7.6-.4 1.4-.6 2.4-.6h1.1v-.6c0-.4-.1-.6-.3-.8s-.5-.3-.8-.3c-.3 0-.6.1-.7.2-.2.2-.3.4-.3.6h-1.9c0-.6.2-1.2.8-1.6.6-.5 1.3-.7 2.3-.7.9 0 1.6.2 2.2.7s.8 1.1.8 1.9v3.1c0 .3 0 .7.1 1s.1.6.2.9h-2zm-1.9-1.3c.3 0 .7-.1.9-.3s.5-.4.6-.6v-1h-1.1c-.4 0-.7.1-1 .3s-.3.5-.3.8c0 .3.1.5.2.6.2.1.4.2.7.2zM92.1 248.8c.4 0 .7-.1.9-.2.2-.1.3-.3.3-.6 0-.2-.1-.4-.3-.6-.2-.2-.5-.2-.9-.2s-.7.1-.9.2-.3.3-.3.6H89c0-.7.3-1.2.8-1.6.6-.4 1.3-.6 2.2-.6 1 0 1.8.2 2.4.6.6.4.9.9.9 1.6 0 .3-.1.6-.3.9-.2.3-.5.5-.9.7.4.2.8.4 1 .7s.4.6.4 1.1c0 .7-.3 1.2-1 1.6-.6.4-1.5.6-2.5.6-.9 0-1.6-.2-2.3-.6s-.9-1-.9-1.7h1.9c0 .3.1.5.3.6.2.2.6.3 1 .3s.7-.1 1-.3c.2-.2.3-.4.3-.7 0-.3-.1-.5-.3-.7s-.6-.2-1-.2h-1.2V249h1.3zM101.3 250.9l1.9-5.1h2.5v7.4h-2v-4.4l-1.7 4.4h-1.3l-1.7-4.3v4.3h-2v-7.4h2.5l1.8 5.1zM110.7 253.3c-1.1 0-2-.3-2.6-1-.6-.7-.9-1.5-.9-2.6v-.3c0-1.1.3-2 .9-2.7s1.4-1.1 2.5-1.1c1 0 1.8.3 2.3.9.5.6.8 1.4.8 2.5v1h-4.4c0 .5.2.9.5 1.2s.7.5 1.2.5c.4 0 .8 0 1.1-.1s.6-.2 1-.4l.5 1.2c-.3.2-.7.4-1.2.6s-1.1.3-1.7.3zm-.2-6.1c-.4 0-.7.1-.9.4-.2.3-.3.6-.4 1.1h2.4v-.2c0-.4-.1-.8-.3-1-.1-.2-.4-.3-.8-.3zM121.4 249.7c0 1.1-.3 2-.8 2.6s-1.2 1-2.1 1c-.4 0-.7-.1-1-.2-.3-.1-.6-.4-.8-.6v3.5h-2v-10.2h1.8l.1.9c.2-.3.5-.6.8-.7.3-.2.7-.3 1.1-.3.9 0 1.6.4 2.1 1.1s.8 1.7.8 2.8v.1zm-1.9-.2c0-.7-.1-1.3-.3-1.7s-.6-.6-1.1-.6c-.3 0-.6.1-.8.2s-.4.3-.5.5v3.2c.1.2.3.4.5.5s.5.2.8.2c.5 0 .8-.2 1.1-.6s.3-.9.3-1.5v-.2zM124.9 253.2h-2v-1.8h2v1.8zM133.8 247.7l.2.6 2.1-5h2.1l-3.6 8.1c-.3.6-.6 1.1-1 1.5s-1 .5-1.7.5c-.3 0-.5 0-.7-.1-.2 0-.5-.1-.7-.2l.2-1.4c.2.1.4.1.5.1h.5c.4 0 .7-.1.9-.2.2-.2.4-.4.5-.7l.2-.4-3.5-7.2h2.2l1.8 4.4zM138.8 251.7h.2c.4 0 .6-.2.8-.6s.2-1.2.3-2.2l.2-3h5.5v5.9h1v4h-2v-2.4h-4.4v2.4h-2v-4h.4zm3.3-2.9c0 .6-.1 1.1-.2 1.6s-.2.9-.4 1.2h2.2v-4.3h-1.6v1.5zM152.3 253.2c-.1-.2-.1-.3-.2-.5s-.1-.4-.1-.6c-.2.4-.5.7-.8.9s-.7.4-1.2.4c-.8 0-1.4-.2-1.8-.6-.4-.4-.6-.9-.6-1.6 0-.7.3-1.3.8-1.7.6-.4 1.4-.6 2.4-.6h1.1v-.6c0-.4-.1-.6-.3-.8s-.5-.3-.8-.3c-.3 0-.6.1-.7.2-.2.2-.3.4-.3.6h-1.9c0-.6.2-1.2.8-1.6.6-.5 1.3-.7 2.3-.7.9 0 1.6.2 2.2.7s.8 1.1.8 1.9v3.1c0 .3 0 .7.1 1s.1.6.2.9h-2zm-1.8-1.3c.3 0 .7-.1.9-.3s.5-.4.6-.6v-1h-1.1c-.4 0-.7.1-1 .3s-.3.5-.3.8c0 .3.1.5.2.6.2.1.4.2.7.2zM161.9 245.8v7.4h-2v-5.9h-1.8v1.6c0 1.5-.2 2.5-.7 3.2-.4.7-1.2 1-2.3 1h-.3v-1.6h.2c.5 0 .8-.2.9-.6s.2-1.1.2-2.1v-3.2h5.8zM169.6 245.8v7.4h-2v-2.6h-1.2l-1.4 2.6h-2l1.6-2.9c-.5-.2-.8-.5-1-.8s-.4-.8-.4-1.2c0-.7.3-1.3.9-1.8.6-.5 1.3-.7 2.3-.7h3.2zm-4.5 2.5c0 .3.1.5.3.7.2.2.5.3.8.3h1.3v-1.9h-1.3c-.4 0-.7.1-.9.3s-.2.3-.2.6zM175.7 245.8h2v7.4h-2v-4.5l-2.4 4.5h-2v-7.4h2v4.5l2.4-4.5zm1-3.2c0 .6-.2 1.1-.6 1.5-.4.4-1 .5-1.7.5s-1.3-.2-1.7-.5c-.4-.4-.6-.8-.6-1.4h1.5c0 .2.1.4.2.6s.4.2.7.2c.3 0 .5-.1.6-.2s.2-.4.2-.6h1.4zM185.4 247.3H183v5.9h-2v-5.9h-2.3v-1.5h6.7v1.5zM189.5 253.3c-1.1 0-2-.3-2.6-1-.6-.7-.9-1.5-.9-2.6v-.3c0-1.1.3-2 .9-2.7s1.4-1.1 2.5-1.1c1 0 1.8.3 2.3.9.5.6.8 1.4.8 2.5v1h-4.4c0 .5.2.9.5 1.2s.7.5 1.2.5c.4 0 .8 0 1.1-.1s.6-.2 1-.4l.5 1.2c-.3.2-.7.4-1.2.6s-1.1.3-1.7.3zm-.1-6.1c-.4 0-.7.1-.9.4-.2.3-.3.6-.4 1.1h2.4v-.2c0-.4-.1-.8-.3-1-.1-.2-.4-.3-.8-.3zM195.7 253.1l-1.1 2.2h-1.3l.5-2.2v-1.6h1.9v1.6zM207.2 253.2h-2v-5.9h-2.4v5.9h-2v-7.4h6.4v7.4zM215.3 249.7c0 1.1-.3 2-.8 2.6s-1.2 1-2.1 1c-.4 0-.7-.1-1-.2-.3-.1-.6-.4-.8-.6v3.5h-2v-10.2h1.8l.1.9c.2-.3.5-.6.8-.7.3-.2.7-.3 1.1-.3.9 0 1.6.4 2.1 1.1s.8 1.7.8 2.8v.1zm-2-.2c0-.7-.1-1.3-.3-1.7s-.6-.6-1.1-.6c-.3 0-.6.1-.8.2-.2.1-.4.3-.5.5v3.2c.1.2.3.4.5.5.2.1.5.2.8.2.5 0 .8-.2 1.1-.6.2-.4.3-.9.3-1.5v-.2zM216.2 249.4c0-1.1.3-2 .9-2.7.6-.7 1.5-1.1 2.6-1.1s2 .4 2.6 1.1.9 1.6.9 2.7v.1c0 1.1-.3 2-.9 2.7-.6.7-1.5 1-2.6 1s-1.9-.3-2.6-1c-.6-.7-.9-1.6-.9-2.7v-.1zm2 .2c0 .7.1 1.2.4 1.6.2.4.6.6 1.1.6.5 0 .9-.2 1.1-.6.2-.4.4-1 .4-1.6v-.1c0-.7-.1-1.2-.4-1.6s-.6-.6-1.1-.6c-.5 0-.9.2-1.1.6-.2.4-.4 1-.4 1.6v.1zM227.5 251.8c.3 0 .6-.1.8-.3.2-.2.3-.5.3-.8h1.8c0 .7-.3 1.4-.8 1.9-.6.5-1.3.8-2.1.8-1.1 0-1.9-.3-2.5-1-.6-.7-.9-1.6-.9-2.7v-.2c0-1.1.3-2 .9-2.7.6-.7 1.4-1.1 2.5-1.1.9 0 1.6.3 2.2.8s.8 1.2.8 2.1h-1.8c0-.4-.1-.7-.3-1-.2-.3-.5-.4-.8-.4-.5 0-.9.2-1.1.6-.2.4-.3.9-.3 1.6v.2c0 .7.1 1.2.3 1.6.1.4.5.6 1 .6zM237.9 247.3h-2.4v5.9h-2v-5.9h-2.3v-1.5h6.7v1.5zM238.5 249.4c0-1.1.3-2 .9-2.7.6-.7 1.5-1.1 2.6-1.1s2 .4 2.6 1.1.9 1.6.9 2.7v.1c0 1.1-.3 2-.9 2.7-.6.7-1.5 1-2.6 1s-1.9-.3-2.6-1c-.6-.7-.9-1.6-.9-2.7v-.1zm2 .2c0 .7.1 1.2.4 1.6.2.4.6.6 1.1.6.5 0 .9-.2 1.1-.6.2-.4.4-1 .4-1.6v-.1c0-.7-.1-1.2-.4-1.6s-.6-.6-1.1-.6c-.5 0-.9.2-1.1.6-.2.4-.4 1-.4 1.6v.1zM256.6 253.2h-2v-5.9h-2.4v5.9h-2v-7.4h6.4v7.4zM261.3 253.3c-1.1 0-2-.3-2.6-1-.6-.7-.9-1.5-.9-2.6v-.3c0-1.1.3-2 .9-2.7s1.4-1.1 2.5-1.1c1 0 1.8.3 2.3.9.5.6.8 1.4.8 2.5v1h-4.4c0 .5.2.9.5 1.2.3.3.7.5 1.2.5.4 0 .8 0 1.1-.1.3-.1.6-.2 1-.4l.5 1.2c-.3.2-.7.4-1.2.6s-1.1.3-1.7.3zm-.1-6.1c-.4 0-.7.1-.9.4-.2.3-.3.6-.4 1.1h2.4v-.2c0-.4-.1-.8-.3-1-.1-.2-.4-.3-.8-.3zM272.1 249.7c0 1.1-.3 2-.8 2.6s-1.2 1-2.1 1c-.4 0-.7-.1-1-.2-.3-.1-.6-.4-.8-.6v3.5h-2v-10.2h1.8l.1.9c.2-.3.5-.6.8-.7.3-.2.7-.3 1.1-.3.9 0 1.6.4 2.1 1.1s.8 1.7.8 2.8v.1zm-2-.2c0-.7-.1-1.3-.3-1.7s-.6-.6-1.1-.6c-.3 0-.6.1-.8.2-.2.1-.4.3-.5.5v3.2c.1.2.3.4.5.5.2.1.5.2.8.2.5 0 .8-.2 1.1-.6.2-.4.3-.9.3-1.5v-.2zM276.6 253.3c-1.1 0-2-.3-2.6-1-.6-.7-.9-1.5-.9-2.6v-.3c0-1.1.3-2 .9-2.7s1.4-1.1 2.5-1.1c1 0 1.8.3 2.3.9.5.6.8 1.4.8 2.5v1h-4.4c0 .5.2.9.5 1.2.3.3.7.5 1.2.5.4 0 .8 0 1.1-.1.3-.1.6-.2 1-.4l.5 1.2c-.3.2-.7.4-1.2.6s-1.1.3-1.7.3zm-.2-6.1c-.4 0-.7.1-.9.4-.2.3-.3.6-.4 1.1h2.4v-.2c0-.4-.1-.8-.3-1-.1-.2-.4-.3-.8-.3zM286.9 247.3h-2.4v5.9h-2v-5.9h-2.3v-1.5h6.7v1.5zM292.2 253.2c-.1-.2-.1-.3-.2-.5s-.1-.4-.1-.6c-.2.4-.5.7-.8.9s-.7.4-1.2.4c-.8 0-1.4-.2-1.8-.6-.4-.4-.6-.9-.6-1.6 0-.7.3-1.3.8-1.7.6-.4 1.4-.6 2.4-.6h1.1v-.6c0-.4-.1-.6-.3-.8s-.5-.3-.8-.3c-.3 0-.6.1-.7.2-.2.2-.3.4-.3.6h-1.9c0-.6.2-1.2.8-1.6.6-.5 1.3-.7 2.3-.7.9 0 1.6.2 2.2.7.5.4.8 1.1.8 1.9v3.1c0 .3 0 .7.1 1 .1.3.1.6.2.9h-2zm-1.9-1.3c.3 0 .7-.1.9-.3s.5-.4.6-.6v-1h-1.1c-.4 0-.7.1-1 .3-.2.2-.3.5-.3.8 0 .3.1.5.2.6.2.1.5.2.7.2zM297.3 245.8v5.9h2v-5.9h2v5.9h2v-5.9h2v5.8h1.5v4h-2v-2.5h-9.5v-7.4h2zM312.4 245.8h2v7.4h-2v-4.5l-2.4 4.5h-2v-7.4h2v4.5l2.4-4.5zM316 253.2v-7.4h3.1c1 0 1.8.2 2.3.5.5.3.8.9.8 1.5 0 .3-.1.7-.3.9-.2.3-.6.5-1 .6.6.1 1 .3 1.3.6.3.3.4.7.4 1.1 0 .7-.3 1.2-.8 1.6-.5.4-1.3.5-2.2.5H316zm2-4.4h1.1c.4 0 .6-.1.8-.2.2-.1.3-.3.3-.5 0-.3-.1-.5-.3-.6-.2-.1-.5-.2-.9-.2h-1v1.5zm0 1.3v1.6h1.6c.4 0 .6-.1.8-.2.2-.1.3-.3.3-.6s-.1-.5-.2-.6c-.2-.1-.4-.2-.8-.2H318zM150.2 262.6h2v7.4h-2v-4.5l-2.4 4.5h-2v-7.4h2v4.5l2.4-4.5zM156.5 264.9l1.2-2.4h2.3l-2.2 3.7 2.3 3.7h-2.2l-1.2-2.5-1.2 2.5h-2.3l2.3-3.7-2.2-3.7h2.2l1 2.4zM164.5 270v-7.4h3.1c1 0 1.8.2 2.3.5s.8.9.8 1.5c0 .3-.1.7-.3.9s-.6.5-1 .6c.6.1 1 .3 1.3.6.3.3.4.7.4 1.1 0 .7-.3 1.2-.8 1.6s-1.3.6-2.3.6h-3.5zm1.9-4.4h1.1c.4 0 .6-.1.8-.2s.3-.3.3-.5c0-.3-.1-.5-.3-.6-.2-.1-.5-.2-.9-.2h-1.1v1.5zm0 1.3v1.6h1.6c.4 0 .6-.1.8-.2.2-.1.3-.3.3-.6s-.1-.5-.2-.6-.4-.2-.8-.2h-1.7zM178.6 267.2h-.8v2.8h-2v-7.4h2v2.8h.6l1.7-2.8h2.5l-2.4 3.4 2.7 4h-2.7l-1.6-2.8zM183.3 266.2c0-1.1.3-2 .9-2.7.6-.7 1.5-1.1 2.6-1.1s2 .4 2.6 1.1.9 1.6.9 2.7v.1c0 1.1-.3 2-.9 2.7-.6.7-1.5 1-2.6 1s-1.9-.3-2.6-1c-.6-.7-.9-1.6-.9-2.7v-.1zm2 .2c0 .7.1 1.2.4 1.6.2.4.6.6 1.1.6.5 0 .9-.2 1.1-.6s.4-1 .4-1.6v-.1c0-.7-.1-1.2-.4-1.6s-.6-.6-1.1-.6c-.5 0-.9.2-1.1.6-.2.4-.4 1-.4 1.6v.1zM198.1 266.5c0 1.1-.3 2-.8 2.6s-1.2 1-2.1 1c-.4 0-.7-.1-1-.2-.3-.1-.6-.4-.8-.6v3.5h-2v-10.2h1.8l.1.9c.2-.3.5-.6.8-.7.3-.2.7-.3 1.1-.3.9 0 1.6.4 2.1 1.1s.8 1.7.8 2.8v.1zm-2-.2c0-.7-.1-1.3-.3-1.7s-.6-.6-1.1-.6c-.3 0-.6.1-.8.2-.2.1-.4.3-.5.5v3.2c.1.2.3.4.5.5.2.1.5.2.8.2.5 0 .8-.2 1.1-.6.2-.4.3-.9.3-1.5v-.2zM202.5 265.6c.4 0 .7-.1.9-.2.2-.1.3-.3.3-.6 0-.2-.1-.4-.3-.6-.2-.2-.5-.2-.9-.2s-.7.1-.9.2-.3.3-.3.6h-1.9c0-.7.3-1.2.8-1.6.6-.4 1.3-.6 2.2-.6 1 0 1.8.2 2.4.6.6.4.9.9.9 1.6 0 .3-.1.6-.3.9-.2.3-.5.5-.9.7.4.2.8.4 1 .7s.4.6.4 1.1c0 .7-.3 1.2-1 1.6-.6.4-1.5.6-2.5.6-.9 0-1.6-.2-2.3-.6s-.9-1-.9-1.7h1.9c0 .3.1.5.3.6.2.2.6.3 1 .3s.7-.1 1-.3c.2-.2.3-.4.3-.7 0-.3-.1-.5-.3-.7s-.6-.2-1-.2h-1.2v-1.3h1.3zM211.6 262.6h2v7.4h-2v-4.5l-2.4 4.5h-2v-7.4h2v4.5l2.4-4.5zM221.5 270h-2v-2.9H217v2.9h-2v-7.4h2v3h2.4v-3h2v7.4zM225.6 266.9l.1.4 1.4-4.7h2.1l-3 8.5c-.2.5-.5 1-.9 1.3-.4.4-.9.5-1.6.5h-.5c-.1 0-.3-.1-.5-.1l.2-1.5h.4c.3 0 .6-.1.8-.2.2-.2.3-.4.4-.6l.2-.6-2.6-7.4h2.1l1.4 4.4zM231.2 270h-2v-1.8h2v1.8z"/></g><path fill="#118793" d="M190 186.2h10v17.4h-10z"/><path fill="#FFF" d="M194.5 28.5l3 6.1 6.8 1-4.9 4.7 1.2 6.7-6.1-3.2-6 3.2 1.2-6.7-4.9-4.7 6.7-1M358.1 341.3c-.1.1-.2.1-.3.1h-1.4V355c0 .8-.2 1.5-.7 2.1-.4.6-1 .9-1.6.9h-11.8c-.6 0-1.2-.3-1.6-.8-.4-.6-.7-1.2-.7-2v-13.6h-1.4c-.1 0-.2 0-.3-.1s-.1-.2-.1-.3v-.9c0-.1 0-.2.1-.3.1-.1.2-.1.3-.1h4.4l1-2.4c.1-.4.4-.7.8-.9.4-.2.7-.4 1.1-.4h4.5c.4 0 .8.1 1.1.4.4.2.6.5.8.9l1 2.4h4.4c.1 0 .2 0 .3.1.1.1.1.2.1.3v.9c.1-.1 0 0 0 .1zm-7.4-3.4l-.2-.2H346c-.1 0-.2.1-.2.2l-.7 1.7h6.4l-.8-1.7zm3.8 17.1v-13.6h-12.7V355c0 .2 0 .4.1.6.1.2.1.3.2.4l.1.1H354s.1 0 .1-.1c.1-.1.1-.2.2-.4.2-.2.2-.4.2-.6zm-2.2-1.7h-.9c-.1 0-.2 0-.3-.1-.1-.1-.1-.2-.1-.3v-8.2c0-.1 0-.2.1-.3.1-.1.2-.1.3-.1h.9c.1 0 .2 0 .3.1s.1.2.1.3v8.2c0 .1 0 .2-.1.3s-.2.1-.3.1zm-3.7 0h-.9c-.1 0-.2 0-.3-.1-.1-.1-.1-.2-.1-.3v-8.2c0-.1 0-.2.1-.3.1-.1.2-.1.3-.1h.9c.1 0 .2 0 .3.1.1.1.1.2.1.3v8.2c0 .1 0 .2-.1.3 0 .1-.1.1-.3.1zm-3.6 0h-.9c-.1 0-.2 0-.3-.1-.1-.1-.1-.2-.1-.3v-8.2c0-.1 0-.2.1-.3.1-.1.2-.1.3-.1h.9c.1 0 .2 0 .3.1s.1.2.1.3v8.2c0 .1 0 .2-.1.3s-.2.1-.3.1z"/></svg>