<svg xmlns="http://www.w3.org/2000/svg" viewBox="-457 456.7 108 133.3"><path d="M-349 535.4c0 29.8-24.2 54-54 54s-53.9-24.2-53.9-54 24.2-54 54-54 53.9 24.2 53.9 54z" fill="#62BA47"/><g fill="#FFF"><path d="M-416.5 527.7c-4.4.5-5.7 5.8-5.8 9.5v1.6c0 1.7-.1 3.1-.3 4.8-.1.7-.3 2.1-.5 2.1-1.6.2-2.9-2.3-3.3-3.4-1.1-2.8-1.9-5.6-2.4-8.5-.5-3.1-.9-6.4-1.1-9.6-.1-1.3-.1-2.6-.1-3.9 0-.5 0-1 .1-1.6 0-.4.1-.9.1-.9.4-2.3-2.9-.1-3.6.9-3.6 6.3-2.5 13.7-2.4 20.5 0 1.8-.1 3.7-.4 5.6-.2 1.3-.4 3.5-1.5 4.5-.7.7-1.9.1-2.4-.2-.9-.5-1.4-1.4-1.5-2.4-.2-1-1.3-.5-1.9.1-.8.8-1.6 2.2-1.4 3.2.4 2.4 2.6 4.6 5.1 3.8 4-1.2 5.7-6 6.7-9.7.5-1.8.7-3.6.8-5.5.6 2.7 1.4 5.3 2.6 7.7.9 1.8 2.5 3.6 4.8 3.2 1.7-.3 2.9-2.1 3.7-4.2.8 1.8 2 3.1 4 2.9 2.2-.2 4.1-2.6 4.9-4.4 1-2.2 1.3-4.6 1.2-6.8.2-3-.7-9.8-5.4-9.3zm1.5 15.6c-.1.4-.2.9-.4 1.3-.9-.1-1.5-1.4-1.8-2-.7-1.5-1-3.1-1.2-4.7-.2-1.7-.1-3.4.2-5.1.1-.4.2-.9.4-1.3 2.3 1.5 2.7 4.3 2.9 6.7.3 1.7.3 3.4-.1 5.1zM-362.8 534.1c-4.8-1.8-7.6 4.8-8.4 8.3-.8 3.4-1.8 9.4 2.3 11.1 2 .9 4.4-.7 5.6-2 1.5-1.6 2.4-3.8 3-6 1.1-3.4 1.9-9.8-2.5-11.4zm-2.8 15.5c-.2.4-.4.8-.7 1.1-.7-.5-1-2-1.1-2.7-.3-1.7-.1-3.4.2-5s.8-3.3 1.6-4.8c.2-.4.4-.7.7-1.1 1.8 2.1 1.3 5.1.9 7.6-.5 1.7-.9 3.4-1.6 4.9zM-375.9 534.9c.9-1.2 1.8-2.5 2.6-3.7 1.8-2.7 3.5-5.9 3.4-9.1-.2-3.1-4.4-3.3-6.5-2.2-3.1 1.5-4.9 4.8-5.8 8-1.2 4.2-1.8 8.4-2 12.6v.1c-1.5 1.8-4.7 5.6-7.1 4-.6-.4-.9-1.2-1.2-2 2-2.1 3.7-4.2 5.3-6.7 1.4-2.2 2.4-5.9-.3-7.4-2.3-1.3-5.3.2-6.9 2.1-1.6 1.9-2.3 4.4-2.5 6.8-.1 1.3-.3 3.5 0 5.6-1.4.9-3.2 1.4-4.8 1.1-1.9-.4-2.5-2.3-2.9-3.8-.5-2.2-.4-4.6 0-6.8.1-.7.3-1.4.5-2.1.1-.2.1-.3.2-.5 1.1.5 1.6 2.2 1.9 3.1.5 1.6 4.6-1 4.2-2.5-.5-1.6-1.1-3.2-2.9-4-1.7-.8-4 .6-5 1.6-2.9 2.9-3.2 7.3-3 11.1.1 2.5.7 5.6 2.8 6.9 2.9 1.8 6.9.2 9.8-1.5.7 1.8 2.1 3.1 4.4 2.8 2.9-.4 5.5-2 7.6-4 .1 2.2.6 4.6 2.2 5.5 2.5 1.5 5.7-.2 7.4-2.3 2.2-2.8 3.4-6.7 2.2-10.1-.7-1.9-2.2-2.5-3.6-2.6zm-16.2-1.8c.2-.6.4-1.2.8-1.8 1.2.3 1.4 1.8 1.2 2.7-.2 1.8-1.4 3.6-2.8 5.2v-.9c-.1-1.7.3-3.5.8-5.2zm15.6-8.9c.3-.6.7-1.3 1.2-1.8l.1-.1c1.9 2.1.1 5-.9 7-1 1.9-2.2 3.9-3.5 5.7.3-1.9.6-3.7 1.1-5.5s1-3.6 2-5.3zm-1 22.1c-.1.2-.3.6-.5.8-.1 0-.3 0-.4-.1-1.2-.6-1.3-3.2-1.4-4.2-.1-.9-.1-1.8-.1-2.8.5-.6 1-1.1 1.5-1.7 1.1-.7 1.8.7 2.1 1.8.3 2-.5 4.5-1.2 6.2z"/></g><path d="M-428.3 486.9c.7-.3 1.5-.5 2.2-.7.3-.7.9-1.3 1.9-1.4 4.5-.4 8.9-1.2 13.3-1.9 4.5-.7 9-1 13.5-1.2 6.6-.3 14 0 19.7 3.7.8.5 1.5 1.2 2 2.1 1.3-2.1 2.9-6.5-.3-10.6-3.4-4.4-6.1-4.8-6.1-4.8.5-5.7-29.5-22.6-44.9-12-11.8 8.2-12.9 15.2-16.2 18.5-3.3 3.3-5.3 3.6-4.7 4 .6.3 3.1.9 8.5.4 5.4-.4 7.6-2.8 7.6-2.8s-.6 1.9-.3 5.3c.4 3.4 2.2 3.6 2.2 3.6 0-.8.5-1.8 1.6-2.2z" fill-rule="evenodd" clip-rule="evenodd" fill="#0095B7"/><path d="M-449 482.5c0 .1 0 .1.1.1.6.3 3.1.9 8.5.4 5.4-.4 7.6-2.8 7.6-2.8s-1.7 2.3-1.4 5.7c2.8-.9 1.9-.1 8.9-3.9 7-3.7 42.5-9.8 42.5-9.8s-26.3-4.4-32.1-3.2c-5.8 1.2-12.1 5.4-13.4 5.5-1.3.1-.1-5.8 0-6.2.1-.4-3.6 7.2-5.4 9.9-1.9 2.6-3 2.6-8.7 3.5-2.4.4-4.7.6-6.6.8z" fill-rule="evenodd" clip-rule="evenodd" fill="#048499"/><path d="M-376.8 488.7c4.2-1.4 4.1-9.6-1-14.2-8.3-7.5-46-4.8-55 5.7 0 0-1.7 2.4-1.4 5.7.4 3.4 3.3 3.2 3.3 3.2s9.1-4.3 29.3-5.7c20.2-1.3 24.8 5.3 24.8 5.3z" fill-rule="evenodd" clip-rule="evenodd" fill="#EDEDED"/><path d="M-451.1 488.3c3 1.3 6.5-.1 7.8-3.1 1.2-3-.3-6.4-3.3-7.7s-6.5.1-7.8 3.1c-1.2 3 .2 6.4 3.3 7.7z" fill-rule="evenodd" clip-rule="evenodd" fill="#DFDFDE"/><path d="M-446.7 477.5c1.2.5 2.2 1.4 2.9 2.4.1 1 0 2-.4 3-1.2 3-4.7 4.4-7.8 3.1-1.2-.5-2.2-1.4-2.9-2.4-.1-1 0-2 .4-3 1.3-3 4.8-4.4 7.8-3.1z" fill-rule="evenodd" clip-rule="evenodd" fill="#EDEDED"/><path d="M-430.8 489.2s9.1-4.3 29.3-5.7c14.8-1 21.2 2.3 23.6 4.1.5.4.8.7 1 .9.1.2.2.2.2.2.3-.1.6-.2.8-.4.3-.2.5-.4.7-.6.6-.7 1.1-1.6 1.3-2.6-.1-.1-.2-.3-.6-.6-1.1-1-4-3-10.1-4.1-3.5-.6-8.1-.9-14.1-.5-20.1 1.4-29.3 5.7-29.3 5.7s-.9.1-1.7-.5c-.2-.1-.5-.3-.7-.6-.4-.5-.8-1.2-.9-2.2-.2-1.7.1-3.1.5-4.1-.8.6-1.4 1.2-2 1.9 0 0-1.7 2.4-1.4 5.7.5 3.6 3.4 3.4 3.4 3.4z" fill-rule="evenodd" clip-rule="evenodd" fill="#DDD"/></svg>