<svg xmlns="http://www.w3.org/2000/svg" viewBox="56.46 28.644 156.54 192.371"><path d="M205.46 141.033c0 39.07-31.726 70.795-70.795 70.795S64 180.1 64 141.033s31.727-70.796 70.796-70.796 70.665 31.728 70.665 70.796z" fill="#62BA47"/><g fill="#FFF"><path d="M116.966 130.938c-5.768.655-7.473 7.604-7.604 12.455v2.098c0 2.23-.13 4.065-.393 6.294-.132.918-.395 2.753-.656 2.753-2.098.262-3.802-3.015-4.326-4.458-1.442-3.672-2.49-7.343-3.146-11.145-.655-4.064-1.18-8.39-1.442-12.586-.13-1.705-.13-3.41-.13-5.114 0-.655 0-1.31.13-2.097 0-.525.13-1.18.13-1.18.525-3.016-3.8-.132-4.72 1.18-4.72 8.258-3.277 17.96-3.145 26.876 0 2.36-.13 4.85-.524 7.34-.26 1.705-.523 4.59-1.966 5.9-.918.92-2.49.132-3.146-.26-1.18-.656-1.835-1.837-1.967-3.148-.26-1.31-1.703-.655-2.49.13-1.05 1.05-2.097 2.885-1.835 4.196.524 3.146 3.41 6.03 6.686 4.982 5.245-1.573 7.474-7.866 8.785-12.717.655-2.36.918-4.72 1.05-7.212.786 3.54 1.834 6.948 3.408 10.095 1.18 2.36 3.278 4.72 6.293 4.195 2.23-.393 3.802-2.753 4.85-5.506 1.05 2.36 2.623 4.064 5.245 3.802 2.885-.262 5.376-3.41 6.425-5.77 1.31-2.883 1.704-6.03 1.573-8.914.26-3.932-.92-12.848-7.082-12.192zm1.967 20.452c-.13.524-.262 1.18-.524 1.704-1.18-.13-1.968-1.836-2.36-2.622-.92-1.967-1.312-4.065-1.574-6.162-.262-2.23-.13-4.458.262-6.686.13-.524.262-1.18.524-1.704 3.016 1.967 3.54 5.637 3.802 8.784.393 2.228.393 4.457-.13 6.686zM187.368 139.328c-6.293-2.36-9.964 6.293-11.013 10.88-1.05 4.46-2.36 12.325 3.016 14.553 2.623 1.18 5.77-.917 7.342-2.62 1.967-2.098 3.147-4.983 3.934-7.867 1.442-4.456 2.49-12.847-3.278-14.945zm-3.67 20.322c-.263.524-.525 1.05-.92 1.442-.917-.655-1.31-2.622-1.442-3.54-.393-2.228-.13-4.457.262-6.555.393-2.097 1.05-4.326 2.097-6.293.262-.524.524-.918.918-1.442 2.36 2.753 1.704 6.686 1.18 9.963-.653 2.23-1.178 4.458-2.096 6.425zM170.194 140.377c1.18-1.573 2.36-3.278 3.41-4.85 2.36-3.54 4.588-7.736 4.457-11.93-.26-4.066-5.767-4.328-8.52-2.885-4.065 1.967-6.424 6.293-7.605 10.488-1.572 5.506-2.36 11.013-2.62 16.52v.13c-1.968 2.36-6.163 7.342-9.31 5.244-.787-.524-1.18-1.573-1.573-2.622 2.622-2.753 4.85-5.506 6.948-8.784 1.836-2.884 3.146-7.735-.393-9.702-3.016-1.704-6.948.262-9.046 2.753s-3.015 5.768-3.277 8.914c-.13 1.704-.393 4.59 0 7.34-1.835 1.18-4.195 1.837-6.293 1.444-2.49-.524-3.278-3.016-3.802-4.982-.655-2.884-.524-6.03 0-8.915.13-.917.393-1.835.655-2.752.13-.262.13-.393.262-.655 1.442.655 2.098 2.884 2.49 4.065.656 2.097 6.032-1.31 5.507-3.278-.655-2.098-1.442-4.195-3.802-5.244-2.23-1.05-5.244.787-6.556 2.097-3.802 3.802-4.195 9.57-3.933 14.553.132 3.278.92 7.34 3.672 9.046 3.802 2.36 9.046.262 12.848-1.967.918 2.36 2.753 4.065 5.77 3.67 3.8-.523 7.21-2.62 9.963-5.243.13 2.884.786 6.03 2.884 7.21 3.278 1.968 7.473-.26 9.7-3.015 2.885-3.67 4.46-8.784 2.885-13.242-.917-2.49-2.883-3.276-4.718-3.408zm-21.24-2.36c.263-.786.525-1.573 1.05-2.36 1.573.394 1.836 2.36 1.573 3.54-.262 2.36-1.835 4.72-3.67 6.817v-1.18c-.132-2.228.392-4.588 1.048-6.817zm20.453-11.668c.393-.787.918-1.705 1.573-2.36l.13-.132c2.492 2.753.132 6.555-1.18 9.177-1.31 2.49-2.883 5.113-4.588 7.473.393-2.49.787-4.85 1.443-7.21.655-2.36 1.31-4.72 2.622-6.95zm-1.31 28.973c-.132.262-.394.786-.656 1.05-.13 0-.392 0-.523-.132-1.573-.785-1.704-4.194-1.836-5.505-.13-1.18-.13-2.36-.13-3.67.655-.788 1.31-1.444 1.967-2.23 1.442-.918 2.36.918 2.753 2.36.393 2.622-.656 5.9-1.574 8.128z"/></g><path d="M101.496 77.448c.918-.393 1.967-.655 2.884-.918.393-.918 1.18-1.704 2.49-1.836 5.9-.524 11.67-1.573 17.438-2.49 5.9-.92 11.8-1.312 17.7-1.574 8.652-.393 18.354 0 25.827 4.85 1.05.656 1.967 1.574 2.622 2.754 1.704-2.753 3.802-8.522-.393-13.897-4.458-5.77-7.997-6.293-7.997-6.293.655-7.473-38.676-29.63-58.866-15.732-15.47 10.75-16.91 19.928-21.238 24.254-4.327 4.326-6.95 4.72-6.162 5.244.787.394 4.064 1.18 11.144.524 7.08-.524 9.964-3.67 9.964-3.67s-.787 2.49-.394 6.947c.524 4.46 2.884 4.72 2.884 4.72 0-1.047.656-2.358 2.098-2.882z" fill="#F2453D"/><path d="M74.357 71.68c0 .13 0 .13.13.13.788.395 4.066 1.18 11.145.525 7.08-.524 9.964-3.67 9.964-3.67s-2.23 3.015-1.836 7.472c3.67-1.18 2.49-.13 11.668-5.113 9.178-4.85 55.72-12.848 55.72-12.848s-34.48-5.768-42.085-4.195c-7.604 1.574-15.863 7.08-17.568 7.212s-.13-7.605 0-8.13c.13-.523-4.72 9.44-7.08 12.98-2.49 3.41-3.933 3.41-11.406 4.59-3.146.523-6.162.785-8.653 1.048z" fill="#C23731"/><path d="M169.014 79.808c5.506-1.836 5.375-12.586-1.31-18.617-10.882-9.832-60.308-6.292-72.107 7.474 0 0-2.23 3.146-1.836 7.473.525 4.458 4.328 4.195 4.328 4.195s11.93-5.637 38.413-7.473c26.483-1.705 32.514 6.948 32.514 6.948z" fill="#EDEDED"/><path d="M71.604 79.283c3.933 1.704 8.522-.13 10.226-4.065 1.573-3.933-.394-8.39-4.326-10.095-3.933-1.704-8.522.13-10.226 4.065-1.574 3.933.262 8.39 4.326 10.095z" fill="#DFDFDE"/><path d="M77.373 65.125c1.573.655 2.884 1.835 3.802 3.146.13 1.312 0 2.623-.524 3.934-1.572 3.933-6.16 5.768-10.225 4.064-1.573-.655-2.884-1.835-3.802-3.146-.13-1.31 0-2.622.524-3.933 1.704-3.935 6.293-5.77 10.226-4.065z" fill="#EDEDED"/><path d="M98.218 80.464s11.93-5.637 38.413-7.473c19.404-1.31 27.795 3.017 30.94 5.376.656.525 1.05.918 1.312 1.18.13.262.262.262.262.262.393-.13.787-.262 1.05-.524.393-.262.654-.524.917-.787.787-.918 1.443-2.097 1.705-3.41-.13-.13-.262-.392-.787-.785-1.442-1.31-5.244-3.933-13.242-5.375-4.59-.787-10.62-1.18-18.485-.655-26.35 1.835-38.412 7.473-38.412 7.473s-1.18.13-2.23-.655c-.26-.13-.654-.393-.917-.786-.523-.655-1.048-1.573-1.18-2.884-.26-2.23.132-4.065.656-5.375-1.05.786-1.835 1.573-2.622 2.49 0 0-2.23 3.148-1.836 7.474.658 4.715 4.46 4.454 4.46 4.454z" fill="#DDD"/></svg>