<svg xmlns="http://www.w3.org/2000/svg" viewBox="0 0 40 38"><path opacity=".26" fill="#7A7A7A" d="M27.5 21.7L39.9 19l-12.4-2.8 6.8-10.7-10.7 6.8L20.8-.1l-2.7 12.4L7.3 5.5l6.9 10.7L1.7 19l12.5 2.7-6.9 10.8 10.8-6.9L20.8 38l2.8-12.4 10.7 6.9"/><path fill="#CDD3D3" d="M33.5 5.5L24.9 19l8.6 13.5L20 23.8 6.5 32.5 15.1 19 6.5 5.5 20 14.1"/><path fill="#E2E2E2" d="M20-.1l3.5 15.6L39.1 19l-15.6 3.4L20 38l-3.5-15.6L.9 19l15.6-3.5"/><path fill="#F2F2F2" d="M16.5 15.5l3.5 2.9V-.1M16.5 15.5l2.9 3.5H.9M23.5 15.5L20.6 19h18.5M16.5 22.4l3.5-2.9V38"/></svg>