<svg xmlns="http://www.w3.org/2000/svg" viewBox="0 0 41.1 49.2"><path d="M41.1 27.1c0-7.6-5.8-13.7-12.9-13.7-2.1 0-4.1.5-5.8 1.5.1-.3.2-.6.4-.9 1.1-.1 2.9-.6 4.2-1.9 2-2.1 1.9-5.5 1.9-5.5s-2.2-.1-4.1 1.1c.4-2.2.5-4.3-.3-5.5-.6-.9-1.5-1.3-2.7-1.2-1.5.1-2.6.7-3.3 1.8-.5.8-.7 1.9-.7 3.1-.8-.3-1.5-.4-1.5-.4v1.3s.8 0 1.6.5c.4 2.8 1.5 6 2.3 7.8-1.9-1.1-4-1.8-6.3-1.8C6.8 13.3 1 19.4 1 27c0 1 .1 2 .3 3 0 0 3.4 19.1 14.5 19.1 1.4 0 3.3-1.1 5.2-2.5 1.9 1.4 3.8 2.5 5.2 2.5C37.3 49.1 40.7 30 40.7 30c.3-.9.4-1.8.4-2.9zM20.4 13.5c-.6-1.6-1.3-3.6-1.7-5.6.1.1.3.3.4.5.9 1.1 1.3 2.6 1.3 4.6.1.2 0 .3 0 .5zM19.1 2.9c.5-.9 1.4-1.4 2.8-1.4h.2c.9 0 1.5.3 1.9.9.8 1.2.6 3.5 0 5.8-.1.1-.3.2-.4.4-2 2.1-1.9 5.5-1.9 5.5h.2c-.1.3-.2.5-.3.7v-.1-.7-.7-.7-.4c-.1-1.9-.6-3.5-1.5-4.7-.5-.7-1.1-1.1-1.6-1.4 0-1.2.1-2.4.6-3.2z" opacity=".4" fill="#7A7A7A"/><path d="M20.2 16.4c-.1 0-.2-.4-.3-.5-.2-.4-4.8-10-2.5-14C18 .8 19.1.1 20.7.1c1.2 0 2 .3 2.6 1.1 2.3 3.5-2.6 14.2-2.8 14.7-.1.1-.2.5-.3.5zM20.9.6h-.2c-1.3 0-2.2.5-2.7 1.4-1.9 3.2 1.3 10.5 2.2 12.7 1-2.3 4.4-10.4 2.6-13.2-.4-.6-1-.9-1.9-.9z" fill="#984D22"/><path d="M20.1 16.9c.9-4.7.5-8.1-1.1-10.3-1.5-2-3.6-2-3.7-2v1.3c.1 0 1.6 0 2.8 1.6 1.4 1.8 1.6 4.9.8 9.1l1.2.3z" fill="#2F3440"/><path d="M19.3 12c0 1.4-.1 2.9-.4 4.7l1.2.3c.4-2.1.5-4 .4-5.6-.3.2-.7.4-1.2.6z" fill="#2F3440" opacity=".3"/><path d="M22.4 7.6c-2 2.1-1.9 5.5-1.9 5.5s3.3.1 5.2-2c2-2.1 1.9-5.5 1.9-5.5s-3.2-.1-5.2 2z" fill="#3F5666"/><path d="M40 26.3c0-7.6-5.8-13.7-12.9-13.7-2.6 0-5.1.8-7.1 2.3-2-1.4-4.5-2.3-7.1-2.3C5.8 12.5 0 18.7 0 26.3c0 1 .1 2 .3 3 0 0 3.4 19.1 14.5 19.1 1.4 0 3.3-1.1 5.2-2.5 1.9 1.4 3.8 2.5 5.2 2.5 11.1 0 14.5-19.1 14.5-19.1.2-1 .3-2 .3-3z" fill="#F25440"/><path d="M40 26.3c0-7.6-5.8-13.7-12.9-13.7-2.6 0-5.1.8-7.1 2.3v30.9c1.9 1.4 3.8 2.5 5.2 2.5 11.1 0 14.5-19.1 14.5-19.1.2-.9.3-1.9.3-2.9z" fill="#E5483C"/><ellipse cx="11.8" cy="19" rx="6.2" ry="3.5" opacity=".1" fill="#FFF"/></svg>