<svg xmlns="http://www.w3.org/2000/svg" viewBox="0 0 40 69.6"><path d="M33.4 62.4v-30c0-10.6-4.4-14.6-4.4-14.6 1.2-6.5-2-8.5-2-8.5V7h.6V3.6c0-.9-1.2-.8-1.2-.8h-9s-1.2-.1-1.2.8V7h.7v2.3s-3.1 2-2 8.5c0 0-4.4 4-4.4 14.6v30s-.4 6.4 4.3 6.4H28.7c5.2 0 4.7-6.4 4.7-6.4z" opacity=".4" fill="#7A7A7A"/><path d="M32.1 61.4v-30c0-10.6-4.4-14.6-4.4-14.6 1.2-6.5-2-8.5-2-8.5V5.9h-10v2.4s-3.1 2-2 8.5c0 0-4.4 4-4.4 14.6v30s-.4 6.4 4.3 6.4H27.7c4.8.1 4.4-6.4 4.4-6.4z" fill="#F4F4F4"/><path d="M25.2 1.9h-9s-1.2-.1-1.2.8v3.4h11.4V2.7c0-.9-1.2-.8-1.2-.8z" fill="#D6D6D6"/><path d="M32.1 61.4v-30c0-10.6-4.4-14.6-4.4-14.6 1.2-6.5-2-8.5-2-8.5V5.9h-5v61.9h7c4.8.1 4.4-6.4 4.4-6.4z" fill="#EAEAEA"/><path d="M13.1 28h-.2c-.7-.1-1.2-.7-1.1-1.4.6-4.3 2.6-7 2.7-7.1.4-.5 1.2-.6 1.8-.2.5.4.6 1.2.2 1.8 0 0-1.7 2.2-2.2 5.8 0 .6-.6 1.1-1.2 1.1z" fill="#FFF"/><circle cx="21.2" cy="41.5" r="5.9" fill="#0455A4"/><circle cx="16.5" cy="46.8" r="1.9" fill="#62BA47"/><path d="M18.5 34.3c0 .4-.3.8-.8.8-.4 0-.8-.3-.8-.8 0-.4.3-.8.8-.8.4 0 .8.4.8.8z" fill="#0455A4"/><path d="M18.5 36.8c0 .5-.4 1-1 1s-1-.4-1-1c0-.5.4-1 1-1s1 .5 1 1zM15.9 35.3c0 .3-.3.6-.6.6s-.6-.3-.6-.6.3-.6.6-.6c.3.1.6.3.6.6z" fill="#62BA47"/><circle cx="26.3" cy="36.1" r="3.2" fill="#62BA47"/><g fill="#FFF"><path d="M25.5 35.7c-.3 0-.3.3-.3.6v.5c-.1 0-.2-.1-.2-.2-.1-.2-.1-.3-.2-.5 0-.2-.1-.4-.1-.6v-.3-.1-.1c0-.2-.2 0-.2.1-.2.4-.2.8-.2 1.2v.3c0 .1 0 .2-.1.3H24c-.1 0-.1-.1-.1-.2s-.1 0-.1 0-.1.1-.1.2c0 .2.2.3.3.2.3-.1.3-.3.4-.6 0-.1 0-.2.1-.3 0 .2.1.3.2.5.1.1.2.2.3.2.1 0 .2-.1.2-.3 0 .1.1.2.3.2.1 0 .3-.2.3-.3.1-.1.1-.3.1-.4-.1-.1-.2-.5-.4-.4zm0 .9s0 .1 0 0c-.1.1-.1 0-.1 0 0-.1-.1-.2-.1-.3V36v-.1c.1.1.2.3.2.4.1.1.1.2 0 .3zM28.7 36.1c-.3-.1-.4.3-.5.5-.1.2-.1.6.1.7.1.1.3 0 .3-.1.1-.1.2-.2.2-.3.1-.4.1-.7-.1-.8zm-.2.9c-.1 0-.1-.1 0 0-.1-.2-.1-.3-.1-.4 0-.1.1-.2.1-.3v-.1c.1.1.1.3.1.5 0 .1 0 .2-.1.3z"/><path d="M27.9 36.1c.1-.1.1-.2.2-.2.1-.2.2-.3.2-.5s-.3-.2-.4-.1c-.2.1-.3.3-.3.5-.1.3-.1.5-.1.8-.1.1-.3.3-.4.3l-.1-.1c.1-.1.2-.3.3-.4.1-.1.2-.3 0-.4-.1-.1-.3 0-.4.1-.1.1-.1.3-.2.4v.3c-.1.1-.2.1-.3.1-.1 0-.2-.1-.2-.2v-.4-.1c.1 0 .1.1.1.2s.3-.1.3-.2-.1-.2-.2-.3c-.1 0-.3 0-.3.1-.2.2-.2.4-.2.7 0 .2 0 .3.2.4.2.1.4 0 .6-.1 0 .1.1.2.3.2.2 0 .3-.1.5-.3 0 .1 0 .3.1.3.2.1.3 0 .4-.1.1-.2.2-.4.1-.6 0-.4-.1-.4-.2-.4zm-1-.1s.1-.1 0 0c.1-.1.2 0 0 0 .1.2 0 .3-.1.4v-.1c.1-.1.1-.2.1-.3zm1-.5c0-.1 0-.1 0 0 .2 0 .1.2 0 .3-.1.1-.1.2-.2.3 0-.1 0-.2.1-.3 0-.1 0-.2.1-.3zm-.1 1.3c-.1 0-.1-.1-.2-.2v-.2l.1-.1c.1 0 .1 0 .1.1.1.1 0 .3 0 .4z"/></g><path d="M25.5 43.2c-.2 0-.2-.6-.2-.7 0-.4.1-.7.2-1.1 0-.1-.1-.1-.2-.1s-.2.1-.3.2c0 .1 0 .1-.1.2 0 .1 0 .1-.1.2 0 .2-.1.4-.2.6 0 .2-.1.3-.2.4 0 0-.1 0-.1-.1-.2-.2-.1-.6-.1-.8 0-.3.1-.6.3-.8 0-.1 0-.2-.1-.2s-.3.1-.3.2c-.1.2-.2.5-.2.7 0 .2-.2.7-.4.6-.1-.1-.1-.5-.1-.7-.1-.2-.2-.3-.4-.3.1-.3.2-.4.3-.5.1 0 .1.1.2.1.1.1.5-.1.4-.3-.2-.2-.3-.2-.5-.2-.1 0-.2.1-.3.2l-.1.1c0-.2 0-.4-.1-.6 0-.1-.1-.1-.2 0l-.2.2c0 .2-.1.3-.2.4-.1 0-.2.1-.3.1 0 0-.1-.1-.2 0l.3-.6c.1-.3.3-.7.1-.9-.2-.3-.6-.1-.8.1-.3.3-.3.7-.3 1v1.1c-.1.2-.1.4-.2.6-.1-.1-.2-.3-.2-.3-.1-.3-.1-.5-.1-.8v-.3-.3c0-.1-.1-.1-.2 0s-.2.2-.2.3v1c0 .2 0 .3-.1.5-.3 0-.3-.5-.4-.7v-.9c0-.1 0-.2-.2-.1-.1 0-.2.2-.3.3 0 .2 0 .3-.1.5 0 .7-.1.9-.2 1.1-.1 0-.1-.1-.1-.1-.1-.1-.1-.3-.2-.4-.1-.4-.2-.8-.2-1.2v-.1c-.1 0-.2.1-.3.2-.2.3-.1.8-.1 1.1v.5c-.2-.1-.2-.3-.2-.3 0-.1-.1 0-.1 0-.1 0-.1.1-.1.1 0 .1-.1.1-.1.2s0 .2-.2.2h-.2c-.1 0-.2-.2-.3-.3-.2-.3-.3-.7-.3-1.1v-.6c0-.1 0-.2.1-.2v-.1h.2c.3 0 .4.2.5.4.1.2.4-.2.3-.4-.1-.3-.3-.5-.6-.5-.2 0-.4.2-.6.3-.3.4-.4 1-.3 1.5.1.5.2 1 .5 1.3.1.1.3.2.4.2.2 0 .3-.2.5-.3.1.2.3.2.4.1.2-.2.3-.4.3-.7v.1c0 .1.1.3.2.3.1.1.4-.1.4-.1l.1-.1c.1-.1.2-.2.2-.3.1.2.2.3.4.3s.4-.2.5-.3c0 .1.1.1.1.2.2.2.5 0 .7-.2 0 0 .1-.1.1-.2.1.2.2.4.4.4.3 0 .6-.3.6-.6.1-.2.1-.5 0-.8 0 0 .1 0 .1-.1.1 0 .2-.1.2-.2 0 .5 0 1-.1 1.5 0 .2.4 0 .4-.2s.1-.4.1-.6c.1.1.1.3.2.5 0 .2 0 .3.2.4.2.1.4 0 .5-.1l.1-.1c0 .2.1.3.3.4.2.1.4 0 .6-.1 0 .3.2.4.5.4.1 0 .2-.1.3-.2.4.5.3.5.2.5zm-3.9-2.5c0-.3.1-.6.2-.8.1 0 .1.1.1.2.1.3-.1.6-.2.8 0 .1-.1.3-.2.3.1-.2.1-.3.1-.5zm.4 1.7c0 .1 0 .1 0 0 0 .1 0 .1 0 0-.2 0-.3-.5-.3-.6 0-.1.1-.2.1-.2h.1s.1 0 .1.1c.1.1.1.3.1.4 0 .1-.1.2-.1.3z" fill="#FFF"/><g fill="#FFF"><path d="M16.5 46.2c-.3 0-.3.3-.4.5 0 .2 0 .6.2.6.3 0 .3-.3.4-.5.1-.1.1-.6-.2-.6zm0 1c-.1.1-.2-.3-.2-.3 0-.1 0-.5.1-.5s.2.2.2.3c0 .1 0 .5-.1.5z"/><path d="M16.1 47.1c-.1.1-.2 0-.3 0h-.1l.2-.2c.1-.2.2-.3.2-.5-.1-.4-.5-.1-.6.1 0 .1.2 0 .2-.1.1-.2.2-.1.3 0 .1.1 0 .3-.1.4-.1.1-.2.2-.3.2-.1 0-.1.1-.1.1v.1c.1.1.2 0 .3.1.2 0 .3 0 .4-.1-.1.1 0-.1-.1-.1zM17.6 46.3c-.2.3-.4.6-.7.9-.1.1.1.1.1 0 .3-.3.5-.6.7-1 .2 0 0 .1-.1.1z"/><path d="M17.2 46.7c.2 0 .3-.4.1-.4-.1 0-.2.1-.2.2-.1.1 0 .2.1.2zm.1-.1zm-.1-.2zm0 0c.1 0 .1.1.1.1v.1c-.1-.1-.1-.1-.1-.2zM17.6 46.9c-.1 0-.2.1-.2.2s0 .2.2.2c.1.1.3-.4 0-.4zm-.1.2zm.1.2zm0-.1c-.1 0-.1 0-.1-.1V47c.1.1.1.1.1.2z"/></g><g fill="#62BA46"><path d="M14.1 39c-.1 0-.1 0 0 0-.2-.1-.3 0-.4 0-.3 0-.4 0-.7-.1 0-.3.2-.5.3-.7.1-.2 0-.4 0-.7v-.4c-.1.1-.1.3-.1.5 0-.2 0-.4-.1-.5v.5c-.1-.2-.1-.3-.1-.5-.1.2.1.4 0 .5-.1-.1-.1-.3-.2-.4 0 .2.1.3.1.5-.1-.1-.1-.3-.2-.3 0 .1.1.3.1.4-.1 0-.1-.1-.2-.2 0 .1.1.2.1.2-.1 0-.1-.1-.2-.1 0 .1.1.1.1.2l-.1-.1c0 .1.1.1.1.2h-.1s.1 0 0 .1h-.1s.1 0 0 .1 0 0 0 .1c-.3.3-.1.5-.1.8l-.4-.2c-.1 0-.1-.1-.2-.2 0 0-.1 0-.1-.1h.1s-.2-.1-.1-.1h.2c-.1 0-.2-.1-.2-.2.1 0 .2.1.2.1-.1-.1-.3-.1-.3-.2.1 0 .2.1.3.1-.1 0-.2-.2-.3-.2l.3.3c-.1-.1-.2-.1-.3-.2 0 .1.2.2.3.2-.1 0-.1-.1-.2-.1 0 .1.2.1.2.2h-.2c0 .1.1 0 .2.1h-.1s.1 0 .1.1h-.1.2c.1.1.2.3.4.3-.1.1.1.1-1 .5 0 0 .5-.1.6-.2.1-.1.3-.1.4-.1h.1c.3 0 .4 0 .7-.1-.2 0-.5.1-.6 0 .2-.3.1-.9.2-1 .1-.1.3-.5.5-.2v.3c-.1.2-.2.3-.2.6 0 .1 0 .2-.1.2.5.1.6.1.9 0 .1 0 .2-.1.3 0h-.2c-.1 0 .1.1.1 0 0 0 .3 0 .4-.1-.2.2-.2.2-.3.1z"/><path d="M12.7 36.5c-1.1 0-2 .9-2 2s.9 2 2 2 2-.9 2-2-.9-2-2-2m0 .1c1.1 0 2 .9 2 2s-.9 2-2 2-2-.9-2-2 .8-2 2-2"/></g></svg>