<svg xmlns="http://www.w3.org/2000/svg" viewBox="0 0 40 69.6"><path d="M33.6 62.4v-30c0-10.6-4.4-14.6-4.4-14.6 1.2-6.5-2-8.5-2-8.5V7h.6V3.6c0-.9-1.2-.8-1.2-.8h-9s-1.2-.1-1.2.8V7h.7v2.3s-3.1 2-2 8.5c0 0-4.4 4-4.4 14.6v30s-.4 6.4 4.3 6.4h14.2c4.8 0 4.4-6.4 4.4-6.4z" opacity=".4" fill="#7A7A7A"/><path d="M32.1 61.4v-30c0-10.6-4.4-14.6-4.4-14.6 1.2-6.5-2-8.5-2-8.5V5.9h-10v2.4s-3.1 2-2 8.5c0 0-4.4 4-4.4 14.6v30s-.4 6.4 4.3 6.4H27.7c4.8.1 4.4-6.4 4.4-6.4z" fill="#F4F4F4"/><path d="M25.2 1.9h-9s-1.2-.1-1.2.8v3.4h11.4V2.7c0-.9-1.2-.8-1.2-.8z" fill="#D6D6D6"/><path d="M32.1 61.4v-30c0-10.6-4.4-14.6-4.4-14.6 1.2-6.5-2-8.5-2-8.5V5.9h-5v61.9h7c4.8.1 4.4-6.4 4.4-6.4z" fill="#EAEAEA"/><path d="M13.1 28h-.2c-.7-.1-1.2-.7-1.1-1.4.6-4.3 2.6-7 2.7-7.1.4-.5 1.2-.6 1.8-.2.5.4.6 1.2.2 1.8 0 0-1.7 2.2-2.2 5.8 0 .6-.6 1.1-1.2 1.1z" fill="#FFF"/><g fill-rule="evenodd" clip-rule="evenodd" fill="#62BA47"><path d="M29.8 41.7c-.2-.5-.6-.4-.7 0-.4 1 .2 1.2.3 1.2 0 0-.1-.1-.1-.3 0 0-.2-.2-.2-.3v-.1.1c0 .1.1.2.2.3v-.1s-.2-.2-.2-.3v-.1.1c0 .1.1.2.2.3 0 0 0-.1.1-.1 0 0-.2-.1-.2-.3v.1c0 .1.1.2.2.3v-.2s-.2-.1-.2-.3v.1c0 .1.1.2.2.3 0-.3-.1-.5-.1-.5v-.1s0 .1.1.2c.1-.1.1-.2.1-.2 0 .1-.1.2-.1.3v.3c.3-.4.3-.6.4-.7 0 .3-.3.4-.3.4v.1c.2 0 .4-.3.4-.3v.1c-.2.2-.4.3-.4.3 0 .1 0 .1-.1.2.1 0 .3-.1.4-.2v.1c-.1 0-.2.2-.5.2v.2h.1c.2 0 .3-.1.4-.2l.1-.1v.1c-.2.2-.3.3-.4.3 0 .1.1.1.1.1.3-.5.3-.9.2-1.3zM31 42.6c.3-.3.1-.5-.2-.6-.8-.1-.8.5-.8.5s.1-.1.2-.1c0 0 .1-.2.2-.2h.1l-.2.2h.1s.1-.2.2-.2h.1l-.1.1c-.1 0-.1.1-.2.2h.1s0-.2.2-.3h-.1c-.1 0-.2.1-.2.2h.1s0-.1.2-.2h-.1s-.2.1-.2.2c.2-.1.3-.2.3-.2s-.1.1-.2.1h.2-.2c-.1 0-.2.1-.2.1.5.2.7.1.7.2-.2 0-.4-.1-.4-.2h-.1c.1.2.3.3.3.3h-.1c-.2-.1-.3-.2-.3-.3h-.1s.1.2.3.3h-.1c-.1 0-.2-.1-.3-.3h-.1c0 .1.2.2.3.2h.1-.1c-.2-.1-.3-.2-.3-.2l-.1.1c.5.4.8.3 1 .1z"/><path d="M30.1 43c.2-.1.2-.2 0-.3-.4-.2-.5.1-.5.1h.1l.1-.1s-.1 0-.1.1h.1l.1-.1h-.1s-.1 0-.1.1h.1l.1-.1s-.1 0-.1.1h.1s0-.1.1-.1c0 0-.1 0-.1.1h0c0 .2.1.2.2.2-.1 0-.2-.1-.2-.2 0 .1.1.2.1.2-.1-.1-.1-.2-.1-.2h-.1s0 .1.1.2c0 0-.1-.1-.1-.2h-.1c0 .1.1.1.1.2-.1-.1-.1-.2-.1-.2h-.1c.1.3.3.3.5.2zM29.7 43.7c.4-.2.3-.5 0-.6-.8-.4-1 .2-1 .2s.1-.1.3-.1c0 0 .2-.1.3-.2h.1-.1c-.1 0-.1 0-.2.2h.1s.1-.1.3-.2.1 0 .1 0h-.1c-.1 0-.2 0-.2.2 0 0 .1 0 .1.1 0 0 .1-.2.3-.2h-.1c-.1 0-.2 0-.2.2h.1s.1-.1.3-.1h-.1c-.1 0-.2.1-.2.1h.4s-.1 0-.2.1c.1.1.2.1.2.1-.1 0-.2-.1-.2-.1h-.3c.1.3.2.3.3.3-.3 0-.3-.3-.4-.3h-.1c0 .2.2.4.2.4h-.1c-.2-.1-.2-.3-.2-.4 0 0-.1 0-.1-.1 0 .1 0 .3.2.4h-.1s-.2-.2-.2-.4h-.1c0 .2.1.3.2.3h.1-.1c-.2-.1-.2-.3-.2-.4-.1 0-.1.1-.1.1.4.6.7.6 1 .4zM28.5 42.7c-.2-.4-.5-.3-.7 0-.4.9.2 1.1.3 1.1 0 0-.1-.1-.1-.3 0 0-.2-.2-.2-.3v-.1.1c0 .1.1.2.2.3v-.1s-.2-.1-.2-.3V43v.1c0 .1.1.2.2.3 0 0 0-.1.1-.1 0 0-.2-.1-.2-.3v.1c0 .1.1.2.2.3v-.1s-.1-.1-.2-.3v.1c0 .1.1.2.2.3 0-.2-.1-.4-.1-.4s0 .1.1.2c.1-.1.1-.2.1-.2 0 .1-.1.2-.1.2v.3c.3-.6.3-.8.4-.8 0 .3-.3.4-.3.4v.1c.2 0 .4-.2.4-.2v.1c-.1.2-.4.2-.4.2s0 .1-.1.1c.1 0 .3-.1.4-.2v.1s-.2.2-.4.2v.2h.1c.2 0 .3-.1.3-.2v-.1.1c-.2.2-.3.2-.4.3 0 .1.1.1.1.1.4-.5.4-.9.3-1.2z"/><path d="M28.4 43.8c-.1-.3-.3-.2-.4 0-.2.6.1.7.2.7 0 0-.1-.1-.1-.2 0 0-.1-.1-.1-.2 0 0 0 .1.1.2v-.1s-.1-.1-.1-.2v-.1.1s0 .1.1.2v-.1s-.1-.1-.1-.2c0 0 0 .1.1.2V44s-.1 0-.1-.2v.1s0 .1.1.2v-.3V44.1c.2-.1.2-.2.3-.3 0 .2-.2.2-.2.3.1 0 .2-.2.2-.2v.1c-.1.1-.2.1-.2.2v.1s.2 0 .3-.1c0 0-.1.1-.3.1v.1c.1 0 .2-.1.2-.1l-.2.2v.1c.3-.4.3-.6.2-.8z"/><path d="M29.1 45c.4-.2.3-.5 0-.6-.9-.4-1 .2-1 .2s.1-.1.3-.1c0 0 .2-.1.3-.2h.1-.1c-.1 0-.2.1-.2.2h.1s.1-.1.3-.2h.1-.1c-.1 0-.2.1-.2.2 0 0 .1 0 .1.1 0 0 .1-.2.3-.2H29c-.1 0-.2 0-.3.2h.1s.1-.1.3-.2H29c-.1 0-.2.1-.2.1h.4s-.1 0-.2.1c.1.1.2.1.2.1-.1 0-.2-.1-.2-.1h-.3c.1.4.3.4.4.4-.3 0-.4-.3-.4-.3h-.1c0 .2.2.4.2.4h-.1c-.2-.1-.2-.4-.2-.4s-.1 0-.1-.1c0 .1.1.3.2.4h-.1s-.2-.2-.2-.4h-.1c0 .2.1.3.2.3h.1-.1c-.2-.2-.2-.3-.2-.4-.1 0-.1.1-.1.1.3.6.6.6 1 .4z"/><path d="M28.8 45.7c.4 0 .4-.3.1-.5-.8-.5-1-.1-1-.1h.3s.2-.1.3-.1h.1-.1c-.1 0-.2 0-.3.1h.1s.2-.1.3-.1h.1-.1c-.1 0-.2 0-.3.1 0 0 .1 0 .1.1 0 0 .1-.1.3-.1h-.1c-.1 0-.2 0-.3.1 0 0 .1 0 .1.1 0 0 .1-.1.3-.1h-.1c-.1 0-.2 0-.3.1.2.1.4.1.4.1h-.2l.1.1c-.1 0-.2-.1-.2-.1-.1 0-.2 0-.3-.1.5.3.6.4.7.4-.2-.1-.3-.3-.3-.3h-.1c0 .2.1.4.1.4l-.1-.1c-.1-.2-.1-.3-.1-.4l-.1-.1s0 .2.1.4h-.1s-.1-.2-.1-.4H28c0 .1.1.3.1.3v.1H28v-.4h-.1c.2.5.6.6.9.5zM26.9 43.1c-.6-.2-.7.1-.5.5.5 1.1 1.1.8 1.2.7 0 0-.2 0-.3-.2 0 0-.3 0-.4-.1h-.2.1c.1 0 .2.1.4.1l-.1-.1s-.2 0-.4-.1l-.1-.1.1.1c.1.1.2.1.4.1 0 0 0-.1-.1-.2 0 0-.2 0-.4-.1h.1c.1 0 .2.1.4.1l-.1-.1s-.2 0-.4-.1l.1.1c.1 0 .2.1.3.1-.2-.2-.4-.3-.4-.3h-.1.1s.1 0 .2.1c0-.1-.1-.2-.1-.2h.1c.1.1.1.2.2.3.1.1.2.2.2.3.1-.3-.1-.4-.1-.4l-.2-.5.1.1c.2.2.1.5.1.5v.1c.1-.2.1-.5.1-.5l.1.1c.1.3-.1.5-.1.5 0 .1.1.1.1.2 0-.1.1-.3.1-.5v-.1.1c0 .1 0 .3-.1.5 0 .1.1.1.1.1.1-.1.1-.3.1-.4v-.1.1c.1.3 0 .5-.1.5.1 0 .2.1.2.1 0-.8-.3-1.1-.7-1.3z"/><path d="M27.7 45.8c.3.1.3 0 .3-.2-.2-.6-.5-.4-.5-.4s.1 0 .1.1c0 0 .1 0 .2.1 0 0-.1-.1-.2-.1v.1s.1 0 .2.1h-.1s-.1-.1-.2-.1v.1s.1 0 .2.1c0 0-.1-.1-.2-.1v.1s.1 0 .2.1c0 0-.1-.1-.2-.1l.2.2s-.1 0-.1-.1v.1l-.1-.1-.1-.1c.2 0 .3.1.3.2-.1-.1 0-.3 0-.3-.1.1-.1.2-.1.2v-.1c0-.1.1-.2.1-.2v-.1s-.1.1-.1.2c0 0 0-.2.1-.2 0 0 0-.1-.1-.1-.1.1-.1.2-.1.2 0-.2 0-.2.1-.2h-.1c-.1.3 0 .5.2.6z"/></g><path d="M27.9 44.1V44c-.8.8-1.2 1.6-1.2 1.6h.1s.4-.7 1.1-1.5zM30 42.6l.1-.1s-.1 0-.1.1c-.7.2-1.3.7-1.8 1.1l.1.1c.5-.5 1.1-.9 1.7-1.2.2-.1 0 0 0 0z" fill="#62BA47"/><path d="M28.3 45c-.1.3-.4.4-.7.2-.3-.1-.4-.4-.2-.7.1-.3.4-.4.7-.2.2.1.3.4.2.7" fill-rule="evenodd" clip-rule="evenodd" fill="#DA1B51"/><path d="M28.2 44.7H28c-.1-.1-.1-.2 0-.2h.2s.1.1 0 .2" fill-rule="evenodd" clip-rule="evenodd" fill="#F1788A"/><path d="M27.5 44.9c.2.2.1.5-.1.6-.2.2-.5.1-.6-.1-.2-.2-.1-.5.1-.6.2-.1.5-.1.6.1" fill-rule="evenodd" clip-rule="evenodd" fill="#DA1B51"/><path d="M27.2 44.8c0 .1 0 .1-.1.2-.1 0-.2 0-.2-.1s0-.1.1-.2c.1.1.2.1.2.1" fill-rule="evenodd" clip-rule="evenodd" fill="#F1788A"/><path d="M27.2 44.1c.1.1.1.4-.1.5-.1.1-.4.1-.5-.1-.1-.1-.1-.4.1-.5.2 0 .4 0 .5.1" fill-rule="evenodd" clip-rule="evenodd" fill="#DA1B51"/><path d="M27 44.1s0 .1-.1.1h-.1s0-.1.1-.1c0-.1 0-.1.1 0" fill-rule="evenodd" clip-rule="evenodd" fill="#F1788A"/><path d="M27.8 43.5c.1.1.1.4-.1.5-.1.1-.4.1-.5-.1-.1-.1-.1-.4.1-.5.2-.1.4-.1.5.1" fill-rule="evenodd" clip-rule="evenodd" fill="#DA1B51"/><path d="M27.6 43.4s0 .1-.1.1h-.1s0-.1.1-.1h.1" fill-rule="evenodd" clip-rule="evenodd" fill="#F1788A"/><path d="M28.6 42.4c.2 0 .3.2.3.4s-.2.3-.4.3-.3-.2-.3-.4c.1-.2.2-.4.4-.3" fill-rule="evenodd" clip-rule="evenodd" fill="#DA1B51"/><path d="M28.4 42.5v.1c0 .1-.1.1-.1.1v-.1c.1-.1.1-.2.1-.1" fill-rule="evenodd" clip-rule="evenodd" fill="#F1788A"/><path d="M28.9 44.4c-.2.1-.4.1-.6-.1-.1-.2-.1-.4.1-.6.2-.1.4-.1.6.1.1.2.1.5-.1.6" fill-rule="evenodd" clip-rule="evenodd" fill="#DA1B51"/><path d="M28.9 44.1c-.1 0-.1 0-.1-.1v-.2c.1 0 .1 0 .1.1.1.1.1.2 0 .2" fill-rule="evenodd" clip-rule="evenodd" fill="#F1788A"/><circle cx="20.8" cy="39.4" r="6.3" fill="#DA1B51"/><circle cx="15.8" cy="45.1" r="2" fill="#62BA47"/><g fill="#FFF"><path d="M14.4 44.7c.1-.2.2-.1.3 0 .1.1 0 .3-.1.4-.1.1-.2.2-.3.2-.1 0-.1.1-.1.1v.1c.1.1.2 0 .3.1.2 0 .3 0 .4-.1.1 0 .2-.2 0-.2-.1.1-.2 0-.4 0h-.2v.1c-.1.1 0 .1 0 0l.1-.1.2-.2c.1-.1.2-.3.2-.5-.1-.4-.5-.1-.6.1 0 .2.2.1.2 0zM15.6 45.5c.2.5.9.1.8-.3-.1-.2-.4-.2-.6-.3-.1 0-.1-.1-.1-.2s0-.1 0 0h.5c.1 0 .2-.1.1-.2-.2-.1-.4-.1-.6 0-.2 0-.2.2-.2.4s.2.2.3.3c.1 0 .2.1.2.2 0 .2-.2.2-.3.1-.1 0-.1-.1-.1-.1.1-.2-.1 0 0 .1zM17.2 44.6c-.2.3-.5.7-.7 1-.1.1.1.1.1 0 .2-.3.5-.7.7-1 .2-.2 0-.1-.1 0zM16.8 44.5c-.1 0-.2.1-.2.2s0 .2.2.2.3-.4 0-.4c-.1 0-.2.1-.1.1s.1.1.1.1v.1c-.1 0-.1-.1-.1-.1v-.1c.1 0 .2-.1.1-.1zM17.2 45.2c-.1 0-.2.1-.2.2s0 .2.2.2c.2.1.3-.4 0-.4-.1 0-.2.1-.1.1s.1.1.1.1v.1c-.1 0-.1-.1-.1-.1v-.1c.1 0 .2-.1.1-.1zM15.3 45.9c.1-.1.1-.2.2-.3v-.1h-.2l-.1.1c0 .1.1 0 .1 0v.1c-.1.1-.1.1 0 .2-.1-.1-.1-.1 0 0-.1-.1-.2 0-.1 0 0 .1 0 0 .1 0z"/></g><g><g fill="#FFF"><path d="M25.8 40.7c-.1 0-.2 0-.3.1-.1-.1 0-.4.1-.6.1-.5.1-.8 0-1-.1-.1-.3-.1-.4 0-.1 0-.1.1-.2.1 0-.1 0-.2-.1-.3-.1-.1-.2-.1-.3-.1-.1 0-.1.1-.2.1v-.1-.1h-.1c-.1 0-.1 0-.2.1l-.1.1c-.1.1-.2.1-.3 0l-.2-.2-.1-.1c-.1-.1-.3-.1-.5 0v-.3c0-.1-.2 0-.2 0-.1 0-.1.1-.2.2 0 0-.2.6-.5 1 0-.3 0-.6.1-.9 0-.1 0-.1-.1-.1h-.1c-.1 0-.2.1-.2.2-.1.4-.1 1.3-.4 1.3-.3 0-.1-1.1-.1-1.5 0-.1 0-.1-.1-.1H21c-.1 0-.2.1-.2.2-.1.3-.1.6-.2.9-.1.2-.2.5-.4.4-.2 0-.2-.2-.2-.4s.1-.3.2-.4c.1-.2.2-.3.2-.4 0-.2-.1-.4-.3-.4-.2 0-.4.1-.6.3 0 0-.1.1-.2.1-.2 0-.3-.1-.3-.1-.1 0-.2-.1-.3-.1-.5.2-.5.7-.5 1.1v.6c-.1 0-.3-.2-.3-.3-.1-.2-.2-.5-.2-.8 0-.4 0-.8-.1-1.2 0-.1-.2-.1-.2 0-.1.1-.2.2-.2.3 0 .5.1 1 .1 1.4 0 .2 0 .5-.1.7 0 .1-.1.1-.2.1-.2 0-.2-.2-.3-.4-.1-.2-.1-.5-.1-.7v-.7c0-.2 0-.3-.1-.5s-.5.1-.6.3c-.2.2-.3.5-.3.8 0 .1.1.1.2.1.1-.1.2-.2.2-.3 0-.1 0-.4.2-.4v.2c.1.5.1.9.1 1.4.1.3.2.8.6.7.2-.1.4-.3.5-.6.1.2.3.4.5.3.2 0 .3-.2.3-.4.1.1.2.3.4.2.2 0 .4-.3.5-.4.1-.2.1-.4.1-.6v-.4h.2c.1-.1.2-.2.3-.2h.2c.3.2-.1.5-.3.8-.1.2-.2.5 0 .7.3.3.8.1 1-.2.1-.1.1-.1.1-.2 0 .2.1.5.4.5.2 0 .3-.1.4-.2-.1.2-.3.4-.4.7 0 0-.1.2-.1.4 0 .3.3.4.5.3.2-.1.4-.4.4-.6.1-.4.1-.8.1-1.2.2-.3.3-.5.5-.9 0 .4 0 .8-.1 1.2 0 .5-.1.9-.2 1.4 0 .1.1.1.2.1s.2-.1.2-.2c.1-.3.1-.7.2-1 .1 0 .3 0 .4-.1.3-.2.4-.6.4-.9v-.2h.4c-.1.4-.1.9-.2 1.3 0 .2.4 0 .4-.1.1-.4.2-.8.4-1.1v-.1.7c0 .1 0 .2-.1.3 0 .1-.1.3-.1.4 0 .2.4 0 .4-.1s.1-.2.1-.4c.1-.3.2-.6.4-.8v.4c0 .2-.1.4-.1.6 0 .1-.1.3 0 .4.1.3.6.1.7 0-.1 0 0-.1-.1-.1zM19 40v.1c-.1 0-.1-.1-.2-.2s-.1-.3-.1-.4V39v-.1s.1 0 .1.1c.1.1.2.4.2.5.1.1.1.3 0 .5zm2.6.7c0 .2 0 .4-.1.5v.1s-.1 0-.1-.1c-.1-.1 0-.2 0-.3.1-.2.1-.3.2-.5v.3zm1.5-.6s-.1 0 0 0c-.2 0-.2-.1-.2-.3 0-.3 0-.5.1-.8 0-.1 0-.2.1-.2 0 0 .1 0 .1.1.1.2.1.4.1.6-.1.2-.1.4-.2.6zM17 37.9c.3-.1.4-.3.6-.5 0-.1.1-.2.1-.2-.1 0-.2.1-.3.1-.1.1-.1.2-.2.2h-.3c-.1-.1-.5.3-.4.4h.5z"/></g></g><path d="M17.9 31.7c0 .4-.4.8-.8.8s-.8-.4-.8-.8.4-.8.8-.8.8.3.8.8z" fill-rule="evenodd" clip-rule="evenodd" fill="#DA1B51"/><path d="M17.9 34.4c0 .6-.5 1-1 1-.6 0-1-.5-1-1 0-.6.5-1 1-1s1 .4 1 1zM15.1 32.8c0 .3-.3.6-.6.6s-.6-.3-.6-.6.3-.6.6-.6.6.3.6.6z" fill-rule="evenodd" clip-rule="evenodd" fill="#62BA47"/><g><circle cx="26.3" cy="33.7" r="3.5" fill="#62BA47"/><g fill="#FFF"><path d="M25.4 33.2c-.3 0-.4.4-.4.6v.5c-.1 0-.2-.1-.2-.2-.1-.2-.1-.4-.2-.6 0-.2-.1-.4-.1-.6v-.3-.1-.1c0-.2-.2 0-.2.1-.2.4-.2.9-.2 1.3v.4c0 .1 0 .2-.1.3h-.2c-.1 0-.1-.1-.1-.2s-.1 0-.1 0c-.1.1-.1.1-.1.2 0 .2.2.3.3.2.3-.1.4-.4.4-.6 0-.1 0-.2.1-.4 0 .2.1.3.2.5.1.1.2.2.3.2.1 0 .2-.1.2-.3.1.1.1.2.3.2.1 0 .3-.2.3-.3.1-.1.1-.3.1-.4.1 0 0-.5-.3-.4zm.1 1c-.1.1-.1 0-.1 0 0-.1-.1-.2-.1-.3v-.3-.1c.1.1.2.3.2.4v.3zM28.9 33.6c-.3-.1-.5.3-.5.5-.1.2-.1.6.2.7.1.1.3 0 .4-.1.1-.1.2-.2.2-.4-.1-.2 0-.6-.3-.7zm-.2 1c-.1 0-.1-.1-.1-.1v-.3c0-.1.1-.2.1-.3v-.1c.1.1.1.3.1.5 0 .1-.1.2-.1.3zM28 33.6c.1-.1.1-.2.2-.2.1-.2.2-.4.2-.6 0-.2-.3-.2-.4-.1-.2.1-.3.3-.4.5-.1.3-.1.5-.1.8-.1.1-.3.4-.5.3l-.1-.1c.1-.1.2-.3.3-.4.1-.1.2-.4 0-.5-.2-.1-.3 0-.4.1-.1.1-.1.3-.2.4v.4c-.1.1-.2.1-.3.1-.1 0-.2-.2-.2-.2v-.4-.1c.1 0 .1.1.1.2s.3-.1.3-.2-.1-.2-.2-.3c-.1-.1-.3 0-.3.1-.2.2-.2.5-.2.7 0 .2 0 .4.2.4.2.1.4 0 .6-.1 0 .1.1.2.3.2.2 0 .4-.1.5-.3 0 .1 0 .3.1.4.2.1.4 0 .5-.2.1-.2.2-.4.1-.7.1-.1 0-.2-.1-.2zm-1-.1v-.1c.1 0 .1.1.1.2s-.1.2-.2.3v-.1c0-.1 0-.2.1-.3zm1-.6s0-.1.1-.1c.1.1 0 .3-.1.5-.1.1-.1.2-.2.4 0-.1 0-.2.1-.4 0-.2 0-.3.1-.4zm-.1 1.5c-.1 0-.1-.2-.1-.2V34l.1-.1c.1 0 .1 0 .1.1s0 .2-.1.4z"/></g></g><g><g fill="#FFF"><path d="M23.2 43.2c-.1-.2-.3.1-.3.2 0 .2 0 .4.1.5.1.1.3.1.4-.1 0-.2-.2-.4-.2-.6l-.1.1c.1.1.3.7.5.3.1-.1 0-.2-.1-.1l-.2-.1s-.1-.1-.1-.2-.1.1-.1.1c0 .1.1.2.1.3v.1h-.1c-.1 0-.1-.1-.1-.2v-.1-.1c0-.1.1 0 .1 0 0 .1.1-.1.1-.1zM18.8 43.2c-.3-.1-.5.1-.5.3-.1.1-.1.4.2.4.3-.1.4-.5.3-.7V43v-.1-.1c-.1 0-.1 0 0 0 .1.1.2.2.4.2.1 0 .2-.1.1-.1-.2 0-.3-.2-.4-.2-.2 0-.2.1-.2.3 0 .1.1.2 0 .4 0 0-.1.4-.2.4-.2-.1.1-.5.2-.5s.2 0 .1-.1z"/><path d="M22.1 43.6c.1.2.2.5.2.7 0 .1.2-.1.2-.1v-.3c0-.1 0-.2.1-.2 0-.1.1-.1.1-.2-.3 0-.3.4-.3.5h.1c.2-.1.2.3.4.2.2-.1.3-.3.3-.5 0-.1-.1 0-.1.1s0 .2-.1.3c0 0-.1-.1-.1-.2-.1-.1-.2-.1-.3 0h.1c0-.1-.1-.3.1-.3.1 0 .2-.2.1-.2-.4-.1-.3.7-.3.8.1 0 .1-.1.2-.1-.1-.2-.1-.5-.3-.7-.3 0-.4.1-.4.2zM20.8 43.8v.7c0 .1.2 0 .2-.1s0-.2.1-.3c.1-.1.1-.2.2-.4 0-.1-.1 0-.2.1-.1.2-.1.4 0 .6.1.2.4-.1.5-.1.1-.1 0-.1-.1 0 0 0-.1.2-.2.1 0 0 0-.1-.1-.2v-.4s-.1 0-.2.1c0 .1-.1.2-.2.3-.1.1-.1.2-.2.4.1 0 .1-.1.2-.1v-.7c.1-.2 0-.1 0 0z"/><path d="M22.2 44.1c0 .1 0 .1 0 0-.1.1-.2 0-.2 0-.1-.1-.1-.3-.1-.5 0-.1-.1.1-.1.1v.5c0 .1 0 .1-.1.1-.2-.1-.1-.4-.1-.5 0-.1-.1 0-.1.1s-.1.7.3.6c.4-.1.2-.6.2-.8l-.1.1c0 .2 0 .5.2.6.2.1.3-.2.3-.3 0-.2-.1-.1-.2 0zM19.6 43.7c0 .1-.3.6 0 .7.4.1.5-.5.5-.7 0-.1-.2 0-.2 0 0 .1-.1.3-.1.4l-.1.1c-.1-.1 0-.2 0-.3 0-.1.1-.2.1-.3 0 0-.2 0-.2.1z"/><path d="M20 43.8c0 .1-.1 1.1-.3 1.1-.4-.1.5-.6.6-.6.1-.1 0-.1-.1-.1-.2.1-.4.2-.6.4-.1.1-.4.4-.1.4.2.1.4-.1.4-.2.2-.3.1-.7.2-1 .1-.2-.1-.1-.1 0z"/><path d="M20.7 43.9c0-.1-.2-.2-.3-.1-.1.1-.2.3-.2.5 0 .1.1.3.3.2.2 0 .3-.2.5-.3.1-.1-.1-.1-.1 0-.1.1-.3.3-.4.1v-.2c0-.1 0-.1.1-.2 0 0 0 .1.1.1-.1 0 0-.1 0-.1zM18.7 43.3c.1.2.3.2.5.2.1 0 .1-.1 0-.1s-.3 0-.3-.2c-.1 0-.2.1-.2.1zM18.9 44c0 .2.1.3.3.2.2 0 .2-.2.3-.3v-.4h-.2c-.1 0-.2.1-.2.2s.2 0 .2 0c0-.1.1-.1.1 0v.2c0 .1 0 .1-.1.2l-.1.1c-.1 0-.1-.1 0-.1-.1-.2-.3-.2-.3-.1z"/><path d="M19.1 43.4c-.1.4-.2.8-.5 1.1 0 .1.2.1.2 0 .2-.4.3-.7.4-1.1.1-.1-.1-.1-.1 0z"/></g></g><g fill="#62BA46"><path d="M13.2 36.8c-.1-.1-.1-.1 0 0-.2-.1-.3 0-.5 0-.3 0-.4 0-.8-.1 0-.3.2-.5.3-.7.1-.2 0-.5 0-.7v-.5c-.1.1-.1.4-.1.5 0-.2 0-.4-.1-.6v.6c-.1-.2-.1-.4-.1-.5-.1.2.1.4 0 .6-.1-.1-.1-.3-.2-.5 0 .2.1.4.1.5-.1-.1-.1-.3-.2-.4 0 .1.1.3.1.4-.1 0-.1-.1-.2-.2 0 .1.1.2.1.2-.1 0-.1-.1-.2-.1 0 .1.1.1.1.2l-.1-.1c0 .1.1.1.1.2h-.1s.1 0 0 .1h-.1s.1 0 0 .1v.1c-.3.3-.1.6-.1.9l-.4-.2c-.1 0-.1-.2-.2-.2 0 0-.1 0-.1-.1h.1s-.2-.1-.1-.1h.2c-.1 0-.2-.1-.2-.2.1 0 .2.1.2.1-.1-.1-.3-.1-.3-.2.1 0 .2.1.3.1-.1 0-.2-.2-.4-.2l.3.3c-.1-.1-.2-.1-.3-.2 0 .1.2.2.3.2-.1 0-.1-.1-.2-.1 0 .1.2.1.2.2h-.2c0 .1.1 0 .2.1h-.1s.1 0 .1.1h-.1.2c.1.1.2.3.4.4-.1.1.1.2-1.1.6 0 0 .5-.1.7-.2.1-.1.3-.1.4-.1h.1c.3 0 .5 0 .7-.1-.2 0-.5.1-.6 0 .2-.3.1-.9.2-1.1.1-.1.3-.6.6-.2v.3c-.1.2-.2.3-.2.7 0 .1 0 .2-.1.2.5.1.7.1 1 0 .1 0 .2-.1.3 0h-.2c-.1 0 .1.1.1 0 0 0 .3 0 .5-.1h-.3z"/><path d="M11.6 34c-1.2 0-2.2 1-2.2 2.2 0 1.2 1 2.2 2.2 2.2 1.2 0 2.2-1 2.2-2.2 0-1.2-1-2.2-2.2-2.2m0 .1c1.2 0 2.1.9 2.1 2.1 0 1.2-.9 2.1-2.1 2.1-1.2 0-2.1-.9-2.1-2.1 0-1.1 1-2.1 2.1-2.1"/></g></svg>