<svg xmlns="http://www.w3.org/2000/svg" viewBox="0 0 41.2 46.6"><path d="M36 12.4c-2.3-1.3-4.3-1.8-6-1.8-3.7 0-6.1 2.4-7.4 4.3C24 11.4 26 5.2 24.4 2.7c-.5-.8-1.4-1.2-2.6-1.1-1.5.1-2.6.7-3.3 1.8-1.6 2.8.1 8.2 1.4 11.5-2-2.8-6.2-6.5-13.4-2.4-10.5 6-2.4 21.5 3.6 26.3 6 4.8 11.2 7.7 11.2 7.7s1.6-.9 4.2-2.6l1.8-1.2c1.3-.9 2.7-1.9 4.1-3 .4-.3.7-.6 1.1-.9 2.4-1.9 5.2-5.7 7-9.8.4-1 .7-1.9 1-2.9.1-.3.2-.7.2-1 1.2-4.9.3-9.8-4.7-12.7zM19.1 3.5c.5-.9 1.4-1.4 2.8-1.4h.2c.9 0 1.5.3 1.9.9 1.8 2.8-1.6 10.9-2.6 13.2-1.1-2.2-4.2-9.6-2.3-12.7z" opacity=".26" fill="#7A7A7A"/><path d="M19.9 16.6c-.1 0-.2-.4-.3-.5-.2-.4-4.8-10-2.5-14C17.7 1 18.8.3 20.4.3c1.2 0 2 .3 2.6 1.1 2.3 3.5-2.6 14.2-2.8 14.7-.1.1-.2.5-.3.5zM20.6.8h-.2c-1.3.1-2.2.5-2.8 1.4-1.9 3.2 1.3 10.5 2.2 12.7 1-2.3 4.4-10.4 2.6-13.2-.4-.6-1-.9-1.8-.9z" fill="#984D22"/><path d="M34.6 11.2C24 5.1 19.9 16 19.9 16S15.7 5.1 5.1 11.2c-10.6 6-2.5 21.6 3.5 26.4 6 4.8 11.2 7.7 11.2 7.7S25 42.4 31 37.6c6.1-4.8 14.2-20.4 3.6-26.4z" fill="#F1573B"/><path d="M34.6 11.2C24 5.1 19.9 16 19.9 16v29.3s5.2-2.9 11.2-7.7c6-4.8 14.1-20.4 3.5-26.4z" fill="#E04834"/><ellipse cx="10.3" cy="15.2" rx="6.2" ry="3.5" opacity=".1" fill="#FFF"/><ellipse cx="29.1" cy="15.2" rx="6.2" ry="3.5" opacity=".1" fill="#FFF"/></svg>