<svg xmlns="http://www.w3.org/2000/svg" viewBox="-491 467.7 40 66.3"><path d="M-450.8 498.8c0-.8-.1-1.6-.2-2.4-.2-1-.5-2-.8-2.9-.1-.3-.2-.6-.4-.8-.5-1.1-1.2-2.2-2-3.2-.2-.2-.4-.5-.6-.7-.8-.9-1.7-1.7-2.7-2.4-.2-.2-.5-.3-.7-.5-1.5-1-3.1-1.8-4.8-2.3-.4-.1-.7-.2-1.1-.3-1.1-.3-2.2-.5-3.3-.6 1.5-4.7 2.8-10.6 1.1-13.2-.7-1.1-1.9-1.5-3.4-1.4-2 .1-3.5 1.1-4.4 2.6-1.7 2.9-.7 8 .7 12.2-.8.1-1.6.3-2.4.5-.4.1-.7.2-1.1.3-1.7.6-3.4 1.4-4.8 2.3-.2.2-.5.3-.7.5-1 .7-1.9 1.5-2.7 2.4-.2.2-.4.5-.6.7-.8 1-1.5 2.1-2 3.2-.1.3-.2.5-.4.8-.4.9-.7 1.9-.8 2.9-.1.8-.2 1.6-.2 2.4v.1c-.1.8.1 1.7.2 2.7 0 0 0 .4 1 .8.2.1.6.2.9.3v4.7c0 .9.1 1.7.1 2.5 0 .4.1.8.1 1.3.1.7.2 1.3.3 2 0 .2.1.4.1.6s.1.4.1.7c0 .2.1.5.2.7.1.3.1.7.2 1 0 .2.1.4.1.6.1.5.3 1.1.4 1.6.1.3.2.5.2.8.3.9.6 1.7.9 2.5.2 0 .3.2.3.4.2.5.5 1.1.7 1.6.1.3.3.5.4.8.5.9 1 1.7 1.5 2.5.1.1.2.3.3.4.3.5.7.9 1.1 1.4.2.2.3.4.5.6.4.5.9.9 1.4 1.4.3.2.5.4.8.7.1.1.2.1.2.2.7.5 1.4.9 2.1 1.3h.1c.2.1.4.2.7.3.9.4 1.9.6 2.8.8.2 0 .5.1.7.1h1.6c.2 0 .5 0 .7-.1 1-.1 1.9-.4 2.8-.8.2-.1.4-.2.7-.3h.1c.7-.4 1.4-.8 2.1-1.3l.2-.2c.3-.2.5-.4.8-.6.5-.4 1-.9 1.4-1.4.2-.2.3-.4.5-.6.4-.4.7-.9 1.1-1.4.1-.1.2-.3.3-.4.5-.8 1-1.6 1.5-2.5.1-.2.3-.5.4-.7.3-.5.5-1.1.7-1.6.1-.2.1-.3.2-.5.3-.8.6-1.7.9-2.5.1-.2.2-.5.2-.8.2-.5.3-1.1.4-1.6 0-.2.1-.4.1-.6.1-.3.1-.6.2-1 .1-.2.1-.5.2-.7 0-.2.1-.5.1-.7s.1-.4.1-.6c.1-.7.2-1.3.3-2 0-.4.1-.8.1-1.3.1-.8.1-1.7.1-2.5v-.9-.4c0-1.2-.1-2.3-.1-3.4.4-.1.7-.2.9-.3 1.1-.4 1-.8 1-.8.2-1.1.3-2 .3-3zm-17.7-16.3h-.7c-1.8-7.3 1.7-10.3 2.9-11 .4 2.8-.9 7.3-2.2 11zm-5-12.1c.7-1.2 1.9-1.8 3.7-1.9h.2c1.1 0 1.8.3 2.4 1-1.1.7-6.1 4.2-4.2 12.9-.4 0-.7 0-1.1.1-1.3-4-2.6-9.3-1-12.1z" opacity=".4" fill="#7A7A7A"/><path d="M-471.8 490.4c-.2 0-.3-1.1-.4-1.2-.3-.5-6.5-13.7-3.3-19 .9-1.5 2.3-2.5 4.4-2.6 1.6-.1 2.7.3 3.4 1.4 3.1 4.7-3.5 19.6-3.8 20.1 0 .3-.1 1.3-.3 1.3zm1-22.2h-.2c-1.8.1-3 .7-3.7 1.9-2.5 4.2 1.7 14.1 3 16.9 1.3-3 5.9-13.9 3.5-17.7-.6-.7-1.5-1.1-2.6-1.1z" fill="#984D22"/><path d="M-472.3 483.7c-3.2-11 3.9-14.5 4-14.6l.9 1.8c-.2.1-5.7 2.9-3 12.2l-1.9.6z" fill="#5B4035"/><path d="M-454.5 501.3H-455.8c0 .1-.1.1-.1.2h-.6c0-.1-.1-.1-.1-.2h-4.1c0 .1-.1.1-.1.2h-.6c0-.1-.1-.1-.1-.2h-4.1c0 .1-.1.1-.1.2h-.6c0-.1-.1-.1-.1-.2h-4.1c0 .1-.1.1-.1.2h-.6c0-.1-.1-.1-.1-.2h-4.1c0 .1-.1.1-.1.2h-.6c0-.1-.1-.1-.1-.2h-4.1c0 .1-.1.1-.1.2h-.6c0-.1-.1-.1-.1-.2h-4.8c0 .1-.1.1-.1.2h-.6c0-.1-.1-.1-.1-.2h-1.4c-.2 1.5-.2 3.1-.2 4.6v1.3c0 .9.1 1.7.1 2.5 0 .4.1.8.1 1.3.1.7.2 1.3.3 2 0 .2.1.4.1.6 0 .2.1.4.1.7 0 .2.1.5.2.7.1.3.1.7.2 1 0 .2.1.4.1.6.1.5.3 1.1.4 1.6.1.3.2.5.2.8.3.9.6 1.7.9 2.5.1.2.1.3.2.5.2.5.5 1.1.7 1.6.1.3.3.5.4.8.5.9 1 1.7 1.5 2.5.1.1.2.3.3.4.3.5.7.9 1.1 1.4.2.2.3.4.5.6.4.5.9.9 1.4 1.4.3.2.5.4.8.7.1.1.2.1.2.2.7.5 1.4.9 2.1 1.3h.1c.2.1.4.2.7.3.9.4 1.9.6 2.8.8.2 0 .5.1.7.1h1.6c.2 0 .5 0 .7-.1 1-.1 1.9-.4 2.8-.8.2-.1.4-.2.7-.3h.1c.7-.4 1.4-.8 2.1-1.3l.2-.2c.3-.2.5-.4.8-.6.5-.4 1-.9 1.4-1.4.2-.2.3-.4.5-.6.4-.4.7-.9 1.1-1.4.1-.1.2-.3.3-.4.5-.8 1-1.6 1.5-2.5.1-.2.3-.5.4-.7.3-.5.5-1.1.7-1.6.1-.2.1-.3.2-.5.3-.8.6-1.7.9-2.5.1-.2.2-.5.2-.8.2-.5.3-1.1.4-1.6 0-.2.1-.4.1-.6.1-.3.1-.6.2-1 .1-.2.1-.5.2-.7 0-.2.1-.5.1-.7 0-.2.1-.4.1-.6.1-.7.2-1.3.3-2 0-.4.1-.8.1-1.3.1-.8.1-1.7.1-2.5v-.9-.4c0-1.7 0-3.3-.2-4.8z" fill="#E5B580"/><path d="M-452.1 498.6c0-.9-.1-1.7-.2-2.5-.2-1-.5-2-.8-2.9-.1-.3-.2-.6-.4-.8-.5-1.1-1.2-2.2-2-3.2-.2-.2-.4-.5-.6-.7-.8-.9-1.7-1.7-2.7-2.4-.2-.2-.5-.3-.7-.5-1.5-1-3.1-1.8-4.8-2.3-.4-.1-.7-.2-1.1-.3-1.5-.4-3.2-.7-4.9-.8h-2c-1.7.1-3.3.3-4.9.8-.4.1-.7.2-1.1.3-1.7.6-3.4 1.4-4.8 2.3-.2.2-.5.3-.7.5-1 .7-1.9 1.5-2.7 2.4-.2.2-.4.5-.6.7-.8 1-1.5 2.1-2 3.2-.1.3-.2.5-.4.8-.4.9-.7 1.9-.8 2.9-.1.8-.2 1.6-.2 2.4v.1c0 .9.1 1.9.3 2.8 0 0 0 .4 1 .8.3.1.6.2 1 .3.6.2 1.3.3 2.2.5.8.1 1.7.2 2.8.3 1.4.1 3 .2 4.9.3h1c1.6.1 3.4.1 5.3.1h1c2 0 3.8 0 5.3-.1h1c1.9-.1 3.6-.2 4.9-.3 1.1-.1 2-.2 2.8-.3.9-.1 1.6-.3 2.2-.5.4-.1.7-.2 1-.3 1.1-.4 1-.8 1-.8.6-.9.7-1.8.7-2.8z" fill="#5B4035"/></svg>