<svg xmlns="http://www.w3.org/2000/svg" viewBox="0 0 41.4 57.5"><path d="M40.6 42.3c-.7-2.4-2.2-5.9-3.7-6.7-.1-3.9-.7-7.7-.7-10.2 0-2.4 1.8-8.7.9-9.5-.1-.1-.3-.1-.5-.2-1.5-.1-5 1.6-5.1 1.7-.1-.1-3.5-2.2-8.5-2.4 1.3-3.2 3.8-10.2 2-12.8-.5-.8-1.4-1.1-2.5-1.1-1.5.1-2.6.8-3.2 1.9-1.8 3 .4 9.1 1.7 12.1-5 .3-9.1 2.4-9.1 2.4s-4.1-1.8-5.1-1.1c-.9.8.5 6.8.5 9v.2c0 .3 0 .5-.1.8v.2c0 .3-.1.6-.1.9v.2l-.3 2.4c-.2 1.7-.4 3.6-.6 5.5-1.6.6-3.2 4.2-4 6.5-1.1 3.3-1.2 6.1-.3 6.5.7.2 1.7-1 2.6-2.9.3 2.1.8 3.6 1.5 3.5.7-.1 1.3-1.5 1.6-3.5.1.1.1.3.2.4.6 1.4 1.2 2.3 1.7 2.4l.6.6s.1 0 .1.1c.2.2.4.3.6.5.1.1.2.2.3.2.2.2.5.3.7.4.1.1.2.1.3.2.2.1.5.3.8.4.1.1.3.1.4.2l.9.3c.1.1.3.1.4.2.3.1.6.2.9.2.2 0 .3.1.5.1.3.1.5.1.8.1l-.2 2.3-.4.2c-1.2.7-1.9 1.4-1.8 1.6.2.2 1 0 2-.5 0 1 .1 1.7.4 1.7.3 0 .6-.7.8-1.7.8.7 1.6 1.1 1.8 1 .3-.2-.3-1.1-1.2-1.9l-.4-.4.2-2.1c.3 0 .5.1.8.1h.5c.6 0 1.2.1 1.9 0 .6 0 1.1 0 1.7-.1h.3c.5 0 1-.1 1.5-.2h.3c.3 0 .6-.1.9-.2l.2 2.2-.5.4c-1 .9-1.5 1.7-1.3 1.9.2.2 1-.2 1.8-.9.1 1 .4 1.7.7 1.7.3 0 .5-.8.5-1.7 1 .5 1.8.8 2 .6.2-.2-.6-1-1.7-1.7l-.4-.2-.2-2.6c.2 0 .3-.1.5-.1.1 0 .2-.1.3-.1.4-.1.7-.2 1.1-.4.1 0 .1-.1.2-.1h.1c.2-.1.5-.2.7-.3.1 0 .2-.1.3-.1 0 0 .1 0 .1-.1.3-.1.5-.3.7-.4.1 0 .2-.1.2-.1l.1-.1c.2-.1.4-.3.6-.4.1 0 .1-.1.2-.1l.2-.2c.1-.1.3-.2.4-.4l.2-.2.1-.1c.3-.2.7-.7 1-1.3 0 0 0-.1.1-.1l.1-.1c.2-.3.4-.6.5-.9.3 1.9.8 3.3 1.5 3.4.7.1 1.3-1.3 1.6-3.4.8 1.9 1.8 3.1 2.5 2.9 1.3-.3 1.3-3.2.3-6.5zM22.1 15h-.4c-1.1-2.5-3.7-9.1-2-12 .5-.9 1.4-1.4 2.7-1.4h.2c.9 0 1.5.3 1.9.9 1.7 2.6-1.2 9.8-2.4 12.5z" opacity=".4" fill="#7A7A7A"/><path d="M20.6 16.5c-.1 0-.2-.5-.3-.6-.2-.4-4.7-9.9-2.4-13.7.6-1.1 1.7-1.7 3.2-1.8 1.1 0 2 .3 2.5 1.1 2.3 3.4-2.5 14.1-2.7 14.5-.1 0-.2.5-.3.5zM21.3.8h-.2c-1.3 0-2.2.5-2.7 1.4-1.8 3.1 1.2 10.3 2.2 12.4 1-2.2 4.3-10.2 2.5-12.9-.4-.6-1-.9-1.8-.9z" fill="#984D22"/><g fill="#FF931E"><path d="M17 54l-.4-.4.5-4.9c.1-1.2-.1-2.1-.4-2.2-.3 0-.7.9-.8 2.1l-.5 5.1-.4.2c-1.2.7-1.9 1.4-1.8 1.6.2.2 1 0 2-.5 0 1 .1 1.7.4 1.7.3 0 .6-.7.8-1.7.8.7 1.6 1.1 1.8 1 .3-.2-.2-1.1-1.2-2zM26.5 53.8l-.4-.2-.4-5.1c-.1-1.2-.4-2.1-.8-2.1-.3 0-.5.9-.4 2.1l.4 4.9-.5.4c-1 .9-1.5 1.7-1.3 1.9.2.2 1-.2 1.8-.9.1 1 .4 1.7.7 1.7.3 0 .5-.8.5-1.7 1 .5 1.8.8 2 .6.3-.2-.5-.9-1.6-1.6z"/></g><path d="M5.4 15.6c.9-.8 5.1 1.1 5.1 1.1s4.7-2.4 10.3-2.4c5.5 0 9.3 2.4 9.3 2.4s4.7-2.3 5.7-1.5c.9.8-.9 7.1-.9 9.5 0 7.7 5.8 26.9-14.8 27.1-20.8 0-14.5-19.6-14.2-27.2.1-2.3-1.4-8.3-.5-9z" fill="#F9A704"/><path d="M35.8 15.1c-.9-.8-5.7 1.5-5.7 1.5s-3.8-2.4-9.3-2.4h-.4v37.5c20.2-.4 14.5-19.4 14.4-27.1 0-2.4 1.9-8.7 1-9.5z" fill="#ED9B0A"/><path d="M34.8 24.6v-.2c-1.3-2.6-3.9-4.3-6.9-4.3-3.6 0-6.6 2.5-7.5 5.8-.9-3.3-3.9-5.8-7.5-5.8-3.2 0-5.9 1.9-7.1 4.6-.1 1.3-.3 2.8-.5 4.6.7 3.5 3.8 6.2 7.6 6.2 3.6 0 6.6-2.5 7.5-5.8.9 3.3 3.9 5.8 7.5 5.8 3.4 0 6.3-2.3 7.3-5.4-.2-2.1-.4-4-.4-5.5zM20.7 36.7c-6.5 0-11.9 5.2-11.9 11.6v.2c2.3 2 5.8 3.3 11.2 3.3 6.3 0 10.2-1.9 12.5-4.7-.7-5.9-5.7-10.4-11.8-10.4z" fill="#FCD2AC"/><path d="M22.3 30.5c-1.4-1.6-3.5-.6-3.7 0-.1.6 2 3.6 2 3.6s1.7-3 1.7-3.6zM12.6 29.9c-2.3 0-4.1-1.7-4.4-3.9v.5c0 2.4 2 4.4 4.4 4.4 2.4 0 4.4-2 4.4-4.4V26c-.3 2.2-2.1 3.9-4.4 3.9zM27.9 29.9c-2.3 0-4.1-1.7-4.4-3.9v.5c0 2.4 2 4.4 4.4 4.4 2.4 0 4.4-2 4.4-4.4V26c-.3 2.2-2.1 3.9-4.4 3.9z" fill="#984D22"/><path d="M31.4 40.5c.8-3.5 2.1-5.1 3.1-5.6 1.8-1 3.9 3.7 4.7 6.7.9 3.3 1 6.2.1 6.5-.7.2-1.6-1-2.5-2.9-.3 2.1-.9 3.5-1.6 3.4-.7-.1-1.2-1.6-1.5-3.6-.8 1.9-1.6 3.1-2.2 2.8-.9-.6-.9-3.8-.1-7.3zM8.8 40.7c-.7-3.6-1.9-5.1-2.9-5.7-1.8-1-4 3.6-5 6.5C-.2 44.8-.3 47.6.6 48c.7.2 1.7-1 2.6-2.9.3 2.1.8 3.6 1.5 3.5.7-.2 1.3-1.6 1.6-3.7.7 1.9 1.5 3.1 2.1 2.9.9-.4 1.1-3.6.4-7.1z" fill="#EF8935"/><ellipse cx="20.6" cy="18.4" rx="4.2" ry="2.4" opacity=".19" fill="#FFF"/><ellipse cx="27.9" cy="23.7" rx="4.2" ry="2.4" opacity=".22" fill="#FFF"/><ellipse cx="12.6" cy="23.7" rx="4.2" ry="2.4" opacity=".22" fill="#FFF"/><ellipse cx="20.6" cy="41.6" rx="6.2" ry="3.5" opacity=".28" fill="#FFF"/></svg>