<svg xmlns="http://www.w3.org/2000/svg" viewBox="0 0 41.4 62.4"><g opacity=".4" fill="#5E5E5E"><path d="M39.8 32.4c-.4 0-.8.2-1.2.4l-.6.3c-.1.1-.2.1-.3.2-.4.4 0 1.3.3 1.6H38.3c.6-.3 1.2-.7 1.7-1.1.3-.2.7-.5.7-.9.1-.6-.4-.6-.9-.5zM38.7 26.8h.2l.1-.1c.2-.3.5-.6.7-.8.3-.4.6-.9.8-1.4.2-.5 0-.9-.5-.7-.3.1-.7.5-.9.7-.4.3-.7.7-1.1 1-.5.3.5 1.1.7 1.3z" opacity=".26"/><path d="M37.2 34c.1-.1 0-.2-.1-.2-.1-.1-.1-.2-.1-.3 0-.1-.1-.1-.1-.1-.4.1-.9.2-1.3.4-.2.1-.4.1-.7.2-.1 0-.3.2-.4 0 0-.1-.1-.2-.1-.4l-.6-1.5c-.1-.5-.4-.9-.8-1.3.2-.1.4-.1.6-.2.3-.1.5-.3.7-.4.5-.4 1.1-.7 1.6-1.1.5-.4 1.1-.7 1.6-1.2.2-.2.7-.4.8-.7 0-.1-.1-.1-.1-.1-.1-.1-.1-.2-.2-.3 0-.1 0-.2-.1-.2h-.3c-.1-.1 0-.3 0-.4 0-.1 0-.1-.1-.1-.4-.1-.4-.1-.8.1-.5.3-1 .7-1.5 1.1-1 .6-2 1.4-3 1.9-.1 0-.1.1-.1.2.3.4 0 .8-.5.8-.1-.1-.2 0-.2.1 0 .3-.1.6-.4.9-.2.1-.4 0-.6 0-.1 0-.1.1-.1.2.1.4-.2.6-.5.8-.3.1-.6 0-.9 0-.1 0-.1 0-.1.1v.5s-.1.2-.2.3h-.2s-.1.1 0 .1h.2c.3.1.7.1 1 .1.3 0 .6.1.9.1-.2.4-.6.7-.9 1-.3.2-.6.4-1 .6.1-.1.2-.1.3-.2.5-.3.9-.7 1.3-1.1l.1-.1c.1 0 0-.2 0-.2h-1c-.3-.1-.5-.1-.8-.2-.2 0-.5-.1-.7-.2 0 0-.1 0-.1-.1-.3-.1-.6-.3-.9-.5.2.1.3.1.5.2 0 0 0 .1.1.1.6 0 1.3-.4 1.8-.8l.2-.2c.4-.2.8-.5 1.1-.8 1-.8 1.8-1.8 2.2-3 .3-.8.5-1.8.6-2.6v-.4c0-.1.1-.2.1-.2V26c0 .3-.1.6-.1.8 0 0 0 .1.1.1.3.1.7 0 .9-.1.4-.1.9-.4 1.3-.7.4-.3.7-.7.9-1.1.2-.3.5-.6.6-1 0-.1-.1-.1-.1-.1-.2 0-.4.1-.6.1-.1 0-.3 0-.4-.1-.4-.2-.8-.4-1.2-.7-.1 0-.1-.1-.2-.1-.3-.4-.7-1-1.1-1.3h-.1c-.1-.1-.1-.2-.2-.3 0-.1 0-.1-.1-.2.2.2.4.4.6.7h.1c.9-.4 1.3-1.7 1.3-2.6 0-.7-.3-1.3-.9-1.7.2-.2.3-.6.4-.8.2-.4.2-.9 0-1.3-.2-.5-.5-1-.8-1.4-.2-.3-.6-.6-.9-.7.1-.2.1-.5.1-.7 0-.5-.1-.9-.3-1.2-.5-.8-1.4-1.5-2.3-1.5 0-.8-.4-1.6-.9-2.2-.5-.5-1.4-1-2.2-.8-.3-.5-.8-.9-1.4-1.1-.6-.2-1.4-.6-2-.5-.4-.1-.9-.1-1.2.2-.2.2-.2.3-.1.6.2.4.4.8.5 1.2v.1c.1.5.4 1 .6 1.5.2.6.3 1.3.6 1.9l.1.1c0 .1 0 .2.1.3.1.5.3.9.4 1.4 0 .1.1.2.1.4.1.4.2.7.3 1.1 0 .1 0 .2.1.3v.1c0 .3.1.6.1.9 0 .1 0 .2.1.3 0 .1.1.2.1.3V16.5s.1.1.1 0c.5.1 1 .1 1.5.3.6.3 1.1.6 1.5 1.1h-.1c-.1-.1-.2-.2-.2-.3-.7-.8-1.6-1-2.6-1.1-.9-.1-2.2-.1-3.1.2-.5.1-.7.1-1.1.4-.4.3-.9.5-1.3.8.3-3.6.9-12.9-2.1-15.3-1-.9-2-1-3.3-.6-1.6.6-2.5 1.7-2.9 3-1 4.3 4.7 11.2 6.7 13.4-.4.3-.8.7-1.2 1-.4.4-.9.8-1.3 1.2-.4.4-.6.9-.9 1.3-.5 1-.9 2.1-1.1 3.2-.1.6 0 1.2-.1 1.7 0 .4 0 .8.1 1.2v.1c.1.6.4 1.2.6 1.7.2.6.6 1.2.9 1.8.2.3.4.5.6.8 0-.1-.1 0-.2 0-.2 0-.5.1-.7.1-.4 0-.9.1-1.3.1-.5.1-1.1.1-1.6.2h-.1c-.4.1-.9 0-1.3.1-.4 0-.8.1-1.2.1H7.8c-.5 0-1-.1-1.4-.1-.2 0-.4-.1-.7-.1-.4 0-.7-.1-1.1-.2-.4-.1-.8 0-1.2-.1-.3-.1-.7-.1-1-.1-.1 0-.2 0-.3-.1-.1 0-1.1-.5-1.3.3-.2.8.2 1.5.6 2.2.2.4.5.9.9 1.3.2.3.6.3.9.4-.2.6.2 1.1.7 1.5.4.3.7.6 1.2.8.4.2 1 .2 1.4.2.3 0 .4.4.5.6.1.2.3.3.5.5.4.3.8.6 1.3.8.6.2 1.3.2 2-.1.5.8 1.5 1.1 2.4 1.1h.7L2.4 48C6 64.1 31 62.2 31 62.2l2.6-15.3c.2-.7.3-1.4.4-2.2l.7-4.3c.1-.3.1-.5.1-.8.1-.7.1-1.3.2-2 0-.4.1-.9-.1-1.3.3-.1.6-.2.8-.3.5-.2.9-.4 1.4-.6.1 0 .1-.2 0-.2-.2-.1 0-.4.1-.5.1-.1 0-.2 0-.2-.1-.2-.1-.4 0-.5zm-14.9 3.3c.3 0 .5-.1.8-.3l.9-.6c-.3.3-.7.5-1 .7-.1.1-.5.1-.6.3-.1 0-.1-.1-.1-.1zm2.7-1.4h.9c.1 0 .3 0 .4-.1-.5.2-1.1.2-1.6.3 0-.1-.2-.1-.2 0l-.1.1c0-.1 0-.1-.1-.2.2 0 .5 0 .7-.1zm-2.1 0c.1 0 .1 0 0 0l.1-.1c.1 0 .2.1.3.1h.1-.5zm-.8 2.5c0-.1.1-.1.1-.2 0 0-.1.1-.1.2zm-4.8-5.1c.2.2.4.3.6.5-.5-.3-1-.7-1.4-1.2.3.3.6.5.8.7zm10.9 1.8c-.1 0-.2.1-.2.1-.1 0-.1 0-.2.1.1-.1.2-.1.4-.2zm.9-16.3s0-.1 0 0c.1 0 .2 0 .3.1-.1-.1-.1-.1-.3-.1.1 0 0 0 0 0zm3.9 5c0-.1-.1-.2-.1-.3 0-.3-.2-.6-.3-.9-.2-.5-.4-.8-.7-1.2-.4-.5-.7-1-1.2-1.4-.2-.2-.4-.5-.7-.7l-.1-.1c-.1-.1-.1-.1-.2-.1.1.1.3.2.4.2h.1s.1 0 .1.1c.6.5 1.1 1.1 1.5 1.7.3.3.5.7.7 1.1v.1c.2.5.4 1 .5 1.5zm-3.1-5.7zm-1.1-.4c.1 0 .1.1.2.1-.1-.1-.1-.1-.2-.1zm-1.1 4.5c-.1.2-.3.5-.5.7-.1.1-.1.2-.2.2.1-.1.2-.2.2-.3.3-.2.4-.4.5-.6zm-1.2 1.4c.1 0 .1-.1.2-.1l-.3.3c0-.1 0-.1.1-.2zM25 20.4c.3.2.6.6.8.9.3.4.4.9.5 1.3v.4c-.1-.5-.2-.9-.5-1.4l-.3-.6c-.1-.2-.3-.4-.5-.6h-.1l-.2-.2c.1.1.2.1.3.2zm-.6-.4s-.1 0 0 0c-.1 0-.1 0 0 0-.1 0 0 0 0 0zm-.6 2.5c.2-.5.3-1 .4-1.5 0-.1 0-.2.1-.3-.1 1-.5 2-.7 3-.1.3-.1.5-.2.8.1-.7.2-1.3.4-2zm-.9 4.5c0-.3 0-.6.1-.9.1-.2.1-.4.1-.6-.1.6-.1 1.2-.1 1.8v.3c0 .3 0 .6.1.9 0 .1.1.2.1.4s.1.4.1.6c0 0 0 .1.1.1v.1c.2.5.6 1 1 1.4.1.1.2.3.4.4-.2-.1-.3-.2-.5-.4l-.1-.1-.2-.2c-.2-.2-.4-.4-.5-.7-.1-.2-.2-.5-.3-.7-.1-.3-.2-.5-.2-.8 0-.4 0-.8-.1-1.2V27zm-.1 8.9h-.4c-.7-.1-1.4-.3-2-.6.4.1.8.3 1.2.4 0 0 0 .1.1.1h.3c.3 0 .6.1.8.1zM12.8 5c.2-1.2 1-2 2.4-2.5.1 0 .1 0 .2-.1.9-.3 1.7-.2 2.3.3 2.9 2.3 2 12.2 1.6 14.9C17.6 15.8 11.8 9 12.8 5zm2.3 36.3z" opacity=".26"/></g><path d="M19.1 18.4c-.1 0-.4-.5-.5-.6-.3-.4-8.5-9.1-7.3-14.1.3-1.4 1.3-2.5 2.9-3 1.2-.4 2.3-.4 3.1.3 3.6 2.9 2 16.2 1.9 16.7 0 .1.1.7-.1.7.1 0 .1 0 0 0zM14.6 1.1c-.1 0-.1 0-.2.1-1.4.5-2.2 1.3-2.5 2.4-.9 4 4.8 10.8 6.6 12.7.3-2.7 1.2-12.5-1.6-14.9-.6-.5-1.3-.6-2.3-.3z" fill="#984D22"/><path d="M39 31.1c-.4 0-.8.2-1.2.4l-.6.3c-.1.1-.2.1-.3.2-.4.4 0 1.3.3 1.6H37.5c.6-.3 1.2-.7 1.7-1.1.3-.2.7-.5.7-.9.1-.7-.4-.7-.9-.5zM39.2 22.4c-.3.1-.7.5-.9.7-.4.3-.7.7-1.1 1-.4.3.6 1.2.8 1.3h.2l.1-.1c.2-.3.5-.6.7-.8.3-.4.6-.9.8-1.4.2-.5 0-.9-.6-.7zM30 18.6c-.2-.2-.4-.5-.7-.7l-.1-.1c-.2-.2-.4-.3-.7-.4-.1 0-.2 0-.2.1-.1.9-.4 1.8-.9 2.6-.3.5-.5 1-.9 1.4-.1.2-.3.3-.5.5-.1.1-.2.3-.4.4 0-.2 0-.4-.1-.7-.1-.5-.2-1-.5-1.4l-.3-.6c-.1-.2-.4-.5-.6-.6H24c-.1-.2-.3-.3-.5-.4-.1 0-.2 0-.2.1.1 1.3-.4 2.4-.7 3.6-.3 1.2-.5 2.3-.4 3.5v.3c0 .3 0 .6.1.9 0 .1.1.2.1.4s.1.4.1.6c0 0 0 .1.1.1v.1c.2.5.6 1 1 1.4.7.8 1.5 1.4 2.6 1.7 0 0 0 .1.1.1.6 0 1.3-.4 1.8-.8l.2-.2c.4-.2.8-.5 1.1-.8 1-.8 1.8-1.8 2.2-3 .3-.8.5-1.8.6-2.6v-.4c.2-.4 0-.9-.1-1.4 0-.3-.2-.6-.3-.9-.2-.5-.4-.8-.7-1.2-.3-.7-.7-1.2-1.1-1.6z" fill="#F1D5C9"/><path d="M26.3 5.7c-.3-.5-.8-.9-1.3-1.1-.6-.2-1.4-.6-2-.5-.4-.1-.9-.1-1.2.2-.2.2-.2.3-.1.6s.3.7.5 1.1v.1c.1.5.4 1 .6 1.5.2.6.3 1.3.6 1.9l.1.1c0 .1 0 .2.1.3.1.5.3.9.4 1.4 0 .1.1.2.1.4.1.4.2.7.3 1.1 0 .1 0 .2.1.3v.1c0 .3.1.6.1.9 0 .1 0 .2.1.3 0 .1.1.2.1.3V15s.1.1.1 0c.5.1 1 .1 1.5.3.6.3 1.1.6 1.5 1.1 0 .1.1.1.2 0 .3.2.7.3 1.1.5.6.3 1.1.8 1.5 1.2.4.4.7.9 1.1 1.3.3.4.7.8 1 1.2h.1c.9-.4 1.3-1.7 1.3-2.6 0-.7-.3-1.3-.9-1.7.2-.2.3-.6.4-.8.2-.4.2-.9 0-1.3-.2-.5-.5-1-.8-1.4-.2-.3-.6-.6-.9-.7.1-.2.1-.5.1-.7 0-.5-.1-.9-.3-1.2-.5-.8-1.4-1.5-2.3-1.5 0-.8-.4-1.6-.9-2.2-.6-.6-1.5-1-2.3-.8z" fill="#FFCF83"/><path d="M27.8 16.2l-.3-.3c-.7-.8-1.6-1-2.6-1.1-.9-.1-2.2-.1-3.1.2-.5.1-.7.1-1.1.4-.5.3-.9.6-1.4.9-.9.5-1.7 1.1-2.4 1.8-.4.4-.9.8-1.3 1.2-.4.4-.6.9-.9 1.3-.5 1-.9 2.1-1.1 3.2-.1.6 0 1.2-.1 1.7 0 .4 0 .8.1 1.2v.1c.1.6.4 1.2.6 1.7.2.6.6 1.2.9 1.8.3.6.8 1.1 1.4 1.5.2.2.4.3.6.5l.1.1.2.2c.2.2.3.3.6.4.3.2.5.3.8.4.2.1.5.3.8.3.4.1.8.3 1.2.4 0 0 0 .1.1.1h.3c.3.1.6.1.9.2.1 0 .1 0 .1-.1.1 0 .2.1.3.1l.1.1h.3c.5.1.9.1 1.4-.1h.9c.6-.1 1.2-.2 1.7-.4.1 0 .1-.1.1-.1.4-.1.7-.3 1-.5.5-.3.9-.7 1.3-1.1l.1-.1c.1 0 0-.2 0-.2h-1c-.3-.1-.5-.1-.8-.2-.2 0-.5-.1-.7-.2 0 0-.1 0-.1-.1-.8-.4-1.4-.9-2.1-1.3-.3-.2-.6-.5-.9-.7l-.1-.1-.2-.2c-.2-.2-.4-.4-.5-.7-.1-.2-.2-.5-.3-.7-.1-.3-.2-.5-.2-.8 0-.4 0-.8-.1-1.2v-.2c0-.3 0-.6.1-.9.1-.5.2-1.1.3-1.6.2-.7.3-1.3.5-1.9.2-.5.3-1 .4-1.5.1-.3.2-.7.1-1.1.2.2.5.3.7.4.3.2.6.6.8.9.3.4.4.9.5 1.3.1.3 0 .6.1.9 0 .1.1.1.1.1.3-.1.6-.5.8-.8.4-.5.7-.9.9-1.4.3-.6.7-1.2.8-1.9.2-.3.2-.6.2-.8.3.2.6.5 1 .6h.1s.1 0 .1.1c.6.5 1.1 1.1 1.5 1.7.3.3.5.7.7 1.1v.1c.4.7.5 1.5.6 2.3 0 .4.1.9 0 1.3 0 .3-.1.6-.1.8 0 0 0 .1.1.1.3.1.7 0 .9-.1.4-.1.9-.4 1.3-.7.4-.3.7-.7.9-1.1.2-.3.5-.6.6-1 0-.1-.1-.1-.1-.1-.2 0-.4.1-.6.1-.1 0-.3 0-.4-.1-.4-.2-.8-.4-1.2-.7-.1 0-.1-.1-.2-.1-.3-.4-.7-1-1.1-1.3h-.1c-.1-.1-.1-.2-.2-.3 0-.1-.1-.3-.2-.4-.2-.2-.3-.5-.5-.8-.4-.6-.8-1-1.3-1.4-1-.6-2.1-1-2.7-1.2z" fill="#D3A567"/><path d="M15.3 46.6c-.2-.1-.4 0-.4.2s.2.3.4.3h.1c.1 0 .2 0 .2-.1 0-.2-.1-.4-.3-.4zM30.4 45.1c-.2-.1-.3 0-.4.2v.2c.1.1.3.2.4 0 .2 0 .2-.3 0-.4zM32.6 42.3c-.1 0-.3.1-.4.2-.3.2-.6.4-1 .5-.6.3-1.3.6-1.9.9-.7.3-1.4.5-2.1.6-.4.1-1 .1-1.4.3h-.1c-.1 0-.2 0-.3.1-.5 0-1 .1-1.5 0-.5 0-1.1-.2-1.6-.1-.2 0-.4-.1-.7-.1-.4-.1-.7-.2-1.1-.3l-1.2-.3h-.2c-.3-.1-.6-.3-.9-.5-.5-.3-1-.5-1.5-.8-.2-.1-.5-.3-.8-.4-.8-.6-1.8-1.1-2.4-1.9 0-.1-.1-.1-.2 0-.5.4 0 .8.4 1.1.1.1.2.2.3.2l.1.1c.1 0 .1.1.2.1l.1.1c.2.1.3.2.5.4h.1c.2.2.5.4.7.5.1 0 .1.1.2.1 0 0 0 .1.1.1.6.3 1.2.6 1.9.8.1.1.2.1.3.2v.1c.3.3.9.3 1.2.5h.1c.2.1.5.2.8.2 0 0 0 .1.1.1.6.1 1.2.3 1.8.3.3 0 .6.1.9.1.5.1 1.1 0 1.6 0h.9c.3 0 .6 0 .8-.1.1 0 .2 0 .2-.1h.2c.2 0 .4 0 .6-.1.2-.1.4-.2.6-.2.3 0 .7-.1 1-.2.3-.1.6-.3.9-.5.2-.1.4-.2.5-.2.4-.2.8-.4 1.1-.7.4-.3.9-.5 1.2-.8.1-.1 0-.3-.1-.3z" fill="#FFF"/><ellipse transform="rotate(-51.07 18.78 21.43)" cx="18.8" cy="21.4" rx="4" ry="2.2" opacity=".1" fill="#FFF"/><path d="M37.4 25.7c-.1-.1-.1-.2-.2-.3 0-.1 0-.2-.1-.2h-.3c-.1-.1 0-.3 0-.4 0-.1 0-.1-.1-.1-.4-.1-.4-.1-.8.1-.5.3-1 .7-1.5 1.1-1 .6-2 1.4-3 1.9-.1 0-.1.1-.1.2.3.4 0 .8-.5.8-.1-.1-.2 0-.2.1 0 .3-.1.6-.4.9-.2.1-.4 0-.6 0-.1 0-.1.1-.1.2.1.4-.2.6-.5.8-.3.1-.6 0-.9 0-.1 0-.1 0-.1.1v.5s-.1.2-.2.3h-.2s-.1.1 0 .1h.2c.3.1.7.1 1 .1.3 0 .6.1.9.1-.2.4-.6.7-.9 1-.4.4-1 .7-1.5.9-.5.2-1 .3-1.5.5s-1.1.2-1.7.3c0-.1-.2-.1-.2 0-.4.5-.9.9-1.5 1.1-.2.1-.7.1-.7.4.1.6-.5 1.3-1 1.7-.5.4-1.2.7-1.8.4-.1 0-.2 0-.2.1-.3.7-1.1 1.4-1.8 1.7-.2.1-.5.1-.8.2l-1.6-.3h-.1s0 .1-.1.1L1.6 46.6c3.6 16.1 28.7 14.2 28.7 14.2l2.6-15.3c.2-.7.3-1.4.4-2.2L34 39c.1-.3.1-.5.1-.8.1-.7.1-1.3.2-2 0-.4.1-.9-.1-1.3.3-.1.6-.2.8-.3.5-.2.9-.4 1.4-.6.1 0 .1-.2 0-.2-.2-.1 0-.4.1-.5.1-.1 0-.2 0-.2-.2-.2-.2-.4 0-.5.1-.1 0-.2-.1-.2-.1-.1-.1-.2-.1-.3 0-.1-.1-.1-.1-.1-.4.1-.9.2-1.3.4-.2.1-.4.1-.7.2-.1 0-.3.2-.4 0 0-.1-.1-.2-.1-.4l-.6-1.5c-.1-.5-.4-.9-.8-1.3.2-.1.4-.1.6-.2.3-.1.5-.3.7-.4.5-.4 1.1-.7 1.6-1.1.5-.4 1.1-.7 1.6-1.2.2-.2.7-.4.8-.7 0 0-.1-.1-.2-.1z" fill="#CCCECE"/><path d="M21.6 34.5c-.7-.1-1.4-.4-2.1-.7-.7-.3-1.4-.7-2-1.2-.6-.4-1.3-.8-1.7-1.4 0-.1-.1 0-.2 0-.2 0-.5.1-.7.1-.4 0-.9.1-1.3.1-.5.1-1.1.1-1.6.2h-.1c-.4.1-.9 0-1.3.1-.4 0-.8.1-1.2.1H7.2c-.5 0-1-.1-1.4-.1-.2 0-.4-.1-.7-.1-.4 0-.7-.1-1.1-.2-.4-.1-.8 0-1.2-.1-.3-.1-.7-.1-1-.1-.1 0-.2 0-.3-.1-.5-.1-1.5-.6-1.6.2-.2.8.2 1.5.6 2.2.2.4.5.9.9 1.3.3.1.6.2 1 .3-.2.6.3 1.2.8 1.6.4.3.7.6 1.2.8.4.2 1 .2 1.4.2.3 0 .4.4.5.6.1.2.3.3.5.5.4.3.8.6 1.3.8.6.2 1.3.2 2-.1.5.8 1.5 1.1 2.4 1.1.4 0 .9 0 1.2-.2.2-.1.5-.3.7-.5.2.3.6.4 1 .4.6 0 1.1 0 1.7-.2.6-.2 1.4-1 1.5-1.7.6.5 1.6 0 2.1-.5.4-.3.7-.7.8-1.2.1-.2.1-.5.1-.7.3 0 .5-.1.8-.3.4-.2.7-.4 1-.6 0 0 .1 0 .1-.1l.1-.1c0-.1 0-.2-.1-.2-.6-.2-1.2-.1-1.9-.2z" fill="#FFCF83"/><ellipse transform="rotate(-36.66 12.93 46.78)" cx="12.9" cy="46.8" rx="6.4" ry="3.6" opacity=".26" fill="#FFF"/></svg>