<svg xmlns="http://www.w3.org/2000/svg" viewBox="0 0 41.1 52.3"><path d="M31.1 38.5l10-9.8-13.8-2-5.5-11.2c1.3-3 4.1-10.6 2.3-13.5-.7-.7-1.5-1-2.7-1-1.5.1-2.6.7-3.3 1.8-2 3.3.9 10.5 2.1 13.1l-5.4 10.9-13.8 2 10 9.8-2.4 13.7L21 45.8l12.4 6.5-2.3-13.8zM18.7 2.9c.5-.9 1.4-1.4 2.8-1.4h.2c.9 0 1.5.3 1.9.9 1.6 2.5-.9 9.3-2.2 12.3l-.4-.5-.4.8c-1.1-2.6-3.7-9.1-1.9-12.1z" opacity=".4" fill="#7A7A7A"/><path d="M19.9 16.3c-.1 0-.2-.4-.3-.5-.2-.4-4.8-10-2.5-14C17.7.7 18.8 0 20.4 0c1.2 0 2 .3 2.6 1.1 2.3 3.5-2.6 14.2-2.8 14.7-.1.1-.2.5-.3.5zM20.6.5h-.2c-1.3.1-2.2.5-2.8 1.4-1.9 3.2 1.3 10.5 2.2 12.7 1-2.3 4.4-10.4 2.6-13.2-.3-.6-1-.9-1.8-.9z" fill="#984D22"/><path fill="#FFD773" d="M20 13.2l6.2 12.6 13.8 2-10 9.7 2.4 13.8L20 44.8 7.6 51.3 10 37.5 0 27.8l13.8-2"/><path fill="#F4C567" d="M40 27.8l-13.8-2L20 13.2v31.6l12.4 6.5L30 37.5"/></svg>