<svg xmlns="http://www.w3.org/2000/svg" viewBox="10 -80 380 380"><path d="M348.2 255.5c-.1-.1-.2-.3-.4-.3-15.7-14.5-28-31.6-36.9-50.3 4.6.9 9.2 1 14.1.3 1.3-.2 1.4-1.7.7-2.4-14.4-14.3-25.8-30.7-34.5-48.4 2.1.4 4.2.8 6.4 1.2 1.2.2 2.6-1 1.8-2.1-11.1-14.4-21.1-29.5-30.1-45.1 2.8.3 5.4.1 8.3-.8 1.1-.3 1.6-1.6.7-2.4-15-14-27-30.4-36-48.2 4 2.5 8.3 4.3 13.4 3.8 1.3-.1 2.1-1.5 1.1-2.5-12.8-12.9-23-27.7-31-43.5-4.3-8.5-7.2-17.3-11-25.9-1.1-2.5-3.3-6.9-7-5.1-2.5 1.2-3.3 4.4-4.1 6.7-2.9 8.3-6.1 16.5-10.1 24.4-8 15.8-18.5 30.5-31.3 43.4-1 1-.2 2.3 1.1 2.5 5.1.5 9.4-1.3 13.4-3.8-9 17.7-21 34.1-36 48.2-.9.8-.4 2.1.7 2.4 2.9.9 5.6 1.1 8.3.8-9 15.6-19 30.6-30.1 45.1-.9 1.1.6 2.3 1.8 2.1 2.1-.4 4.2-.8 6.4-1.2-8.7 17.7-20.1 34.1-34.5 48.4-.7.7-.6 2.2.7 2.4 4.8.7 9.4.6 14.1-.3-9 18.7-21.4 36-37.2 50.5-.6.6-.6 1.9.3 2.3 16.6 6.5 34.5 10.7 52.1 14.1 24.4 4.7 49.4 7.4 74.4 8.1.3 2.8.7 5.5 1.1 8.2.4 2.2.9 5.3 3.1 6.4 1.8.9 5.6.2 7.5.2 6 0 9.2.9 10.5-5.9.6-2.9.9-5.9 1.1-8.9 11.1-.3 22.2-1 33.3-2.1 31.8-3.2 63-10 93.1-19.9.4-.1.6-.3.8-.6.3-.5.4-1.2-.1-1.8z" opacity=".35" fill="#4F4F4F"/><path d="M213.6 245.6h-26c-.1-.8-1.3-.8-1.2 0 1.2 12.4 1.5 25.2 3.6 37.5.4 2.2.9 5.3 3.1 6.4 1.8.9 5.6.2 7.5.2 6 0 9.2.9 10.5-5.9 1.1-5.6 1.2-11.6 1.7-17.2.7-7 1.3-14 2-21 .1-.8-1.1-.8-1.2 0z" fill="#C99A73"/><path d="M339.3 250.5c-.1-.1-.2-.3-.4-.3-15.7-14.5-28-31.6-36.9-50.3 4.6.9 9.2 1 14.1.3 1.3-.2 1.4-1.7.7-2.4-14.4-14.3-25.8-30.7-34.5-48.4 2.1.4 4.2.8 6.4 1.2 1.2.2 2.6-1 1.8-2.1-11.1-14.4-21.1-29.5-30.1-45.1 2.8.3 5.4.1 8.3-.8 1.1-.3 1.6-1.6.7-2.4-15-14-27-30.4-36-48.2 4 2.5 8.3 4.3 13.4 3.8 1.3-.1 2.1-1.5 1.1-2.5-12.8-12.9-23-27.7-31-43.5-4.3-8.5-7.2-17.3-11-25.9-1.1-2.5-3.3-6.9-7-5.1-2.5 1.2-3.3 4.4-4.1 6.7-2.9 8.3-6.1 16.5-10.1 24.4-8 15.8-18.5 30.5-31.3 43.4-1 1-.2 2.3 1.1 2.5 5.1.5 9.4-1.3 13.4-3.8-9 17.7-21 34.1-36 48.2-.9.8-.4 2.1.7 2.4 2.9.9 5.6 1.1 8.3.8-9 15.6-19 30.6-30.1 45.1-.9 1.1.6 2.3 1.8 2.1 2.1-.4 4.2-.8 6.4-1.2-8.7 17.7-20.1 34.1-34.5 48.4-.7.7-.6 2.2.7 2.4 4.8.7 9.4.6 14.1-.3-9 18.7-21.4 36-37.2 50.5-.6.6-.6 1.9.3 2.3 16.6 6.5 34.5 10.7 52.1 14.1 42.9 8.3 87.4 10.4 131 6 31.8-3.2 63-10 93.1-19.9.4-.1.6-.3.8-.6.3-.5.4-1.2-.1-1.8z" fill="#45AF81" stroke="#44B299" stroke-width=".5" stroke-miterlimit="10"/><g fill="#FFF"><path d="M176.2 36.9c-.7 0-1.4-.3-1.8-.9l-.1-.2c-.6-.9-.3-2.1.7-2.6s2.3-.2 2.9.7l.1.2c.6.9.3 2.1-.7 2.6-.4.2-.8.2-1.1.2zM226.2 66h-.6c-1.2 0-2.1-.9-2-2s1.1-1.9 2.2-1.8h.5c1.2 0 2.1.9 2 2 0 1-1 1.8-2.1 1.8zm-5.6-.5h-.3l-.5-.1c-1.2-.2-1.9-1.2-1.8-2.2.2-1.1 1.3-1.8 2.4-1.6l.5.1c1.2.2 2 1.1 1.8 2.2-.1.9-1 1.6-2.1 1.6zm-5.5-1c-.2 0-.3 0-.5-.1l-.5-.1c-1.1-.3-1.8-1.3-1.5-2.4.3-1 1.5-1.6 2.6-1.4l.5.1c1.1.3 1.8 1.3 1.5 2.3s-1.1 1.6-2.1 1.6zm-5.3-1.5c-.2 0-.5 0-.7-.1l-.5-.2c-1.1-.4-1.6-1.5-1.2-2.5s1.6-1.5 2.7-1.1l.5.2c1.1.4 1.7 1.5 1.3 2.5-.5.7-1.3 1.2-2.1 1.2zm-5.2-2c-.3 0-.6-.1-.9-.2l-.5-.2c-1-.5-1.5-1.6-1-2.6s1.8-1.4 2.8-.9l.4.2c1.1.5 1.5 1.6 1 2.6-.3.7-1 1.1-1.8 1.1zm-5-2.4c-.4 0-.7-.1-1.1-.3l-.5-.2c-1-.6-1.3-1.7-.7-2.6.6-.9 1.9-1.2 2.9-.7l.4.2c1 .5 1.3 1.7.7 2.6-.2.6-.9 1-1.7 1zm-4.7-2.8c-.4 0-.9-.1-1.2-.4l-.4-.3c-.9-.6-1.1-1.8-.5-2.7.7-.9 2-1 2.9-.4l.4.3c.9.6 1.2 1.8.5 2.7-.4.5-1 .8-1.7.8zm-4.4-3.2c-.5 0-1-.2-1.4-.5l-.4-.3c-.9-.7-1-1.9-.2-2.7s2.1-.9 3-.2l.4.3c.9.7 1 1.9.2 2.7-.4.5-1 .7-1.6.7zm-4.1-3.5c-.5 0-1.1-.2-1.5-.6l-.4-.3c-.8-.8-.8-2 0-2.7s2.2-.7 3 0l.3.3c.8.8.8 2 0 2.7-.3.4-.8.6-1.4.6zm-3.7-3.8c-.6 0-1.2-.2-1.6-.7l-.3-.4c-.7-.8-.6-2 .3-2.7s2.2-.6 3 .3l.3.3c.7.8.6 2-.3 2.7-.5.3-1 .5-1.4.5zm-3.5-4.1c-.7 0-1.3-.3-1.7-.8l-.3-.4c-.7-.9-.4-2.1.5-2.7 1-.6 2.3-.4 2.9.5l.3.4c.7.9.5 2.1-.5 2.7-.3.2-.7.3-1.2.3zM231.3 65.9c-1.1 0-2-.8-2.1-1.8-.1-1.1.8-2 2-2.1h.3c1.2-.1 2.2.7 2.3 1.8.1 1.1-.8 2-2 2.1h-.5z"/></g><g fill="#FFF"><path d="M133.1 187.9h-.6c-1.2 0-2.1-.9-2.1-2s1-1.9 2.2-1.9h.5c1.2 0 2.1.9 2.1 2s-.9 1.9-2.1 1.9zM138.4 187.9c-1.1 0-2.1-.8-2.1-1.9s.9-2 2-2h.5c1.1-.1 2.1.8 2.2 1.9 0 1.1-.9 2-2 2h-.6zM127.3 187.7h-.7c-1.2-.1-2-1-1.9-2.1s1.1-1.9 2.3-1.8h.5c1.2.1 2 1 1.9 2.1-.1 1-1 1.8-2.1 1.8zM144.2 187.6c-1.1 0-2-.8-2.1-1.8-.1-1.1.8-2 1.9-2.1h.5c1.2-.1 2.2.7 2.3 1.7.1 1.1-.7 2-1.9 2.1h-.5c-.1.1-.2.1-.2.1zM121.6 187.1h-.3l-.5-.1c-1.2-.1-2-1.1-1.8-2.2.2-1.1 1.2-1.8 2.4-1.6l.5.1c1.2.1 2 1.1 1.8 2.2-.2.9-1.1 1.6-2.1 1.6zM149.9 187c-1 0-1.9-.7-2.1-1.6-.2-1.1.6-2 1.8-2.2l.5-.1c1.2-.2 2.2.6 2.4 1.6.2 1.1-.6 2-1.8 2.2l-.5.1h-.3zM115.8 186.2h-.4l-.5-.1c-1.1-.2-1.9-1.2-1.7-2.3.2-1 1.3-1.7 2.5-1.5l.5.1c1.1.2 1.9 1.2 1.7 2.3-.2.9-1.1 1.5-2.1 1.5zM155.7 186.1c-1 0-1.9-.6-2.1-1.5-.2-1 .5-2.1 1.6-2.3l.5-.1c1.1-.2 2.3.4 2.5 1.5.2 1-.5 2.1-1.6 2.3l-.5.1c-.2-.1-.3 0-.4 0zM161.3 184.8c-.9 0-1.8-.6-2-1.4-.3-1 .4-2.1 1.5-2.4l.5-.1c1.1-.3 2.3.3 2.6 1.4.3 1-.4 2.1-1.5 2.4l-.5.1h-.6zM166.9 183.3c-.9 0-1.7-.5-2-1.3-.4-1 .2-2.1 1.4-2.4l.5-.1c1.1-.3 2.3.2 2.7 1.2s-.3 2.1-1.4 2.4l-.5.1c-.3.1-.5.1-.7.1zM172.4 181.7c-.9 0-1.7-.5-2-1.3-.4-1 .2-2.1 1.3-2.4l.5-.2c1.1-.3 2.3.2 2.7 1.2.4 1-.2 2.1-1.3 2.4l-.5.2c-.3 0-.5.1-.7.1zM177.8 179.9c-.9 0-1.7-.5-2-1.3-.4-1 .2-2.1 1.3-2.5l.5-.2c1.1-.4 2.3.2 2.7 1.2.4 1-.2 2.1-1.3 2.5l-.5.2c-.2.1-.4.1-.7.1zM183.3 178.1c-.8 0-1.6-.5-2-1.2-.4-1 .1-2.1 1.2-2.5l.5-.2c1.1-.4 2.3.1 2.7 1.1.4 1-.1 2.1-1.2 2.5l-.5.2c-.2.1-.5.1-.7.1zM188.7 176.1c-.8 0-1.6-.4-1.9-1.2-.5-1 0-2.1 1.1-2.5l.5-.2c1.1-.4 2.3 0 2.8 1s0 2.1-1.1 2.5l-.5.2c-.4.2-.7.2-.9.2zM194 173.9c-.8 0-1.5-.4-1.9-1.1-.5-1-.1-2.1 1-2.6l.5-.2c1-.5 2.3-.1 2.8.9s.1 2.1-1 2.6l-.5.2c-.3.2-.6.2-.9.2zM199.1 171.5c-.8 0-1.5-.4-1.9-1-.5-.9-.2-2.1.9-2.6l.5-.2c1-.5 2.3-.2 2.9.8.6.9.2 2.1-.9 2.6l-.5.2c-.3.2-.6.2-1 .2zM204.2 168.9c-.7 0-1.4-.3-1.8-.9-.6-.9-.3-2.1.7-2.6l.4-.2c1-.5 2.3-.3 2.9.7.6.9.3 2.1-.7 2.6l-.5.3c-.3.1-.6.1-1 .1zM209.1 166.1c-.7 0-1.4-.3-1.8-.9-.6-.9-.4-2.1.6-2.7l.4-.3c1-.6 2.3-.4 2.9.5.7.9.4 2.1-.6 2.7l-.5.3c-.2.3-.6.4-1 .4zM213.7 162.9c-.6 0-1.2-.2-1.6-.7-.8-.8-.7-2 .2-2.7l.4-.3c.9-.7 2.2-.6 3 .2.8.8.7 2-.2 2.7l-.4.3c-.4.4-.9.5-1.4.5zM218 159.3c-.5 0-1.1-.2-1.5-.6-.8-.8-.8-2 0-2.7l.4-.3c.8-.7 2.2-.7 3 0 .8.8.8 2 0 2.7l-.4.3c-.5.4-1 .6-1.5.6zM222.1 155.5c-.5 0-1.1-.2-1.5-.5-.8-.7-.9-2-.1-2.7l.4-.3c.8-.8 2.1-.8 3-.1.8.7.9 2 .1 2.7l-.4.4c-.4.3-1 .5-1.5.5zM226 151.7c-.5 0-1-.2-1.4-.5-.8-.7-.9-1.9-.1-2.7l.4-.3c.8-.8 2.1-.8 3-.1s.9 1.9.1 2.7l-.4.4c-.4.3-1 .5-1.6.5zM230 147.8c-.5 0-1-.2-1.4-.5-.8-.7-.9-2-.1-2.7l.4-.3c.8-.8 2.1-.8 3-.1.8.7.9 1.9.1 2.7l-.4.4c-.5.3-1 .5-1.6.5zM233.8 143.8c-.5 0-.9-.1-1.3-.4-.9-.7-1-1.9-.3-2.7l.3-.4c.7-.8 2.1-1 3-.3s1 1.9.3 2.7l-.3.4c-.4.5-1 .7-1.7.7zM237.4 139.6c-.4 0-.9-.1-1.2-.4-.9-.6-1.2-1.8-.5-2.7l.3-.4c.7-.9 2-1.1 2.9-.4.9.6 1.2 1.8.5 2.7l-.3.4c-.4.6-1.1.8-1.7.8zM240.7 135.3c-.4 0-.8-.1-1.2-.3-1-.6-1.2-1.8-.6-2.7l.3-.4c.6-.9 1.9-1.1 2.9-.6 1 .6 1.3 1.8.6 2.7l-.3.4c-.4.6-1 .9-1.7.9zM243.6 130.4c-.4 0-.8-.1-1.2-.3-1-.6-1.2-1.8-.6-2.7l.3-.4c.6-.9 1.9-1.1 2.9-.6 1 .6 1.3 1.8.6 2.7l-.3.4c-.3.6-1 .9-1.7.9zM246.6 126.2c-.3 0-.7-.1-1-.2-1-.5-1.4-1.7-.8-2.6l.3-.4c.6-.9 1.8-1.3 2.9-.7 1 .5 1.4 1.7.8 2.6l-.3.4c-.4.5-1.1.9-1.9.9zM249.4 121.5c-.3 0-.7-.1-1-.2-1-.5-1.4-1.7-.9-2.6l.3-.4c.5-.9 1.8-1.3 2.9-.8 1 .5 1.4 1.7.9 2.6l-.2.4c-.5.6-1.3 1-2 1zM252.1 116.8c-.3 0-.6-.1-1-.2-1-.5-1.5-1.6-.9-2.6l.2-.4c.5-.9 1.8-1.3 2.8-.8s1.4 1.6.9 2.6l-.2.4c-.3.6-1.1 1-1.8 1zM254.7 112.1c-.3 0-.6-.1-.9-.2-1-.5-1.5-1.6-.9-2.6l.2-.4c.5-.9 1.8-1.3 2.8-.8 1 .5 1.5 1.6.9 2.6l-.2.4c-.4.6-1.1 1-1.9 1z"/></g><g fill="#FFF"><path d="M216.5 253.3c-1.2 0-2.1-.9-2.1-1.9 0-1.1.9-1.9 2.1-1.9h.5c1.2 0 2.1.8 2.1 1.9s-.9 1.9-2.1 1.9h-.5zM210.6 253.3c-1.2 0-2.1-.9-2.1-1.9 0-1.1.9-1.9 2.1-1.9h.5c1.2 0 2.1.8 2.1 1.9s-.9 1.9-2.1 1.9h-.5zM222.3 253.1c-1.1 0-2.1-.8-2.1-1.8 0-1.1.9-2 2-2h.5c1.2-.1 2.1.8 2.2 1.8 0 1.1-.9 2-2 2h-.6c.1 0 .1 0 0 0zM205.5 253h-.6c-1.2-.1-2.1-1-2-2 .1-1.1 1.1-1.9 2.2-1.8h.5c1.2.1 2.1 1 2 2s-1 1.8-2.1 1.8zM228.1 252.8c-1.1 0-2-.8-2.1-1.8-.1-1.1.8-2 2-2.1h.5c1.2-.1 2.2.7 2.3 1.8.1 1.1-.8 2-1.9 2.1h-.8zM199.7 252.6h-.7c-1.2-.1-2-1-1.9-2.1s1.1-1.8 2.3-1.7h.5c1.2.1 2 1 1.9 2.1-.1 1-1 1.7-2.1 1.7zM233.9 252.4c-1.1 0-2-.7-2.1-1.7-.1-1.1.7-2 1.9-2.1h.5c1.2-.1 2.2.7 2.3 1.7.1 1.1-.7 2-1.9 2.1l-.5.1c0-.1-.1-.1-.2-.1zM193.9 252.1h-.3l-.5-.1c-1.2-.1-2-1.1-1.8-2.1.1-1.1 1.2-1.8 2.4-1.7l.5.1c1.2.1 2 1.1 1.8 2.1-.1.9-1 1.7-2.1 1.7zM239.7 251.8c-1 0-1.9-.7-2.1-1.7-.2-1.1.7-2 1.8-2.2l.5-.1c1.2-.1 2.2.6 2.4 1.6.2 1.1-.6 2-1.8 2.2l-.5.1c-.1.1-.2.1-.3.1zM188.2 251.3h-.3l-.5-.1c-1.2-.2-1.9-1.2-1.7-2.2.2-1.1 1.3-1.8 2.4-1.6l.5.1c1.2.2 1.9 1.1 1.8 2.2-.3.9-1.2 1.6-2.2 1.6zM245.4 251c-1 0-1.9-.7-2.1-1.6-.2-1.1.6-2 1.7-2.2l.5-.1c1.1-.2 2.2.5 2.4 1.6.2 1-.6 2-1.7 2.2l-.5.1h-.3zM182.4 250.4h-.4l-.5-.1c-1.1-.2-1.9-1.2-1.7-2.3.2-1 1.3-1.7 2.5-1.5l.5.1c1.1.2 1.9 1.2 1.7 2.2s-1.1 1.6-2.1 1.6zM251.1 250c-1 0-1.9-.6-2.1-1.5-.2-1 .5-2.1 1.6-2.3l.5-.1c1.1-.2 2.3.5 2.5 1.5s-.5 2.1-1.6 2.3l-.5.1h-.4zM176.8 249.4h-.5l-.5-.1c-1.1-.2-1.9-1.3-1.6-2.3s1.4-1.7 2.5-1.5l.5.1c1.1.2 1.9 1.3 1.6 2.3-.2.8-1.1 1.5-2 1.5zM256.8 248.9c-1 0-1.8-.6-2.1-1.5-.3-1 .4-2.1 1.6-2.3l.5-.1c1.1-.2 2.3.4 2.5 1.4.3 1-.4 2.1-1.6 2.3l-.5.1c-.1.1-.3.1-.4.1zM171.1 248.1c-.2 0-.3 0-.5-.1l-.5-.1c-1.1-.3-1.8-1.3-1.5-2.3s1.4-1.6 2.6-1.4l.5.1c1.1.3 1.8 1.3 1.5 2.3s-1.1 1.5-2.1 1.5zM262.4 247.6c-.9 0-1.8-.6-2-1.4-.3-1 .4-2.1 1.5-2.4l.5-.1c1.1-.3 2.3.3 2.6 1.3.3 1-.4 2.1-1.5 2.4l-.5.1c-.2.1-.4.1-.6.1zM165.5 246.7c-.2 0-.4 0-.6-.1l-.5-.1c-1.1-.3-1.8-1.4-1.4-2.4.3-1 1.5-1.6 2.6-1.3l.5.1c1.1.3 1.8 1.4 1.4 2.4-.2.9-1.1 1.4-2 1.4zM268 246.2c-.9 0-1.7-.5-2-1.4-.3-1 .3-2.1 1.4-2.4l.5-.1c1.1-.3 2.3.3 2.6 1.3.3 1-.3 2.1-1.4 2.4l-.5.1c-.2 0-.4.1-.6.1zM160 245.2c-.2 0-.4 0-.6-.1l-.5-.2c-1.1-.3-1.7-1.4-1.4-2.4.4-1 1.6-1.6 2.7-1.2l.5.1c1.1.3 1.7 1.4 1.4 2.4-.4.9-1.2 1.4-2.1 1.4zM273.5 244.6c-.9 0-1.7-.5-2-1.3-.4-1 .2-2.1 1.3-2.4l.5-.1c1.1-.3 2.3.2 2.7 1.2.4 1-.2 2.1-1.3 2.4l-.5.2c-.2-.1-.5 0-.7 0zM154.5 243.5c-.2 0-.5 0-.7-.1l-.5-.2c-1.1-.4-1.7-1.5-1.3-2.5s1.6-1.5 2.7-1.2l.5.2c1.1.4 1.7 1.5 1.3 2.5-.4.8-1.2 1.3-2 1.3zM279 242.8c-.9 0-1.7-.5-2-1.3-.4-1 .2-2.1 1.2-2.5l.5-.2c1.1-.4 2.3.1 2.7 1.1.4 1-.2 2.1-1.2 2.5l-.5.2c-.2.2-.5.2-.7.2zM149 241.7c-.3 0-.5 0-.8-.1l-.5-.2c-1.1-.4-1.6-1.5-1.2-2.5s1.7-1.5 2.7-1.1l.5.2c1.1.4 1.6 1.5 1.2 2.5-.2.7-1 1.2-1.9 1.2zM284.4 240.9c-.8 0-1.6-.5-2-1.2-.4-1 .1-2.1 1.2-2.5l.5-.2c1.1-.4 2.3.1 2.7 1.1s-.1 2.1-1.2 2.5l-.5.2c-.2 0-.4.1-.7.1zM143.6 239.7c-.3 0-.6 0-.8-.2l-.5-.2c-1.1-.4-1.6-1.6-1.1-2.5.5-1 1.7-1.4 2.8-1l.5.2c1.1.4 1.6 1.6 1.1 2.5-.4.7-1.1 1.2-2 1.2zM289.7 238.8c-.8 0-1.6-.4-1.9-1.2-.5-1 0-2.1 1.1-2.5l.5-.2c1.1-.4 2.3 0 2.8 1s0 2.1-1.1 2.5l-.5.2c-.3.2-.6.2-.9.2zM138.3 237.5c-.3 0-.6-.1-.9-.2l-.5-.2c-1.1-.4-1.5-1.6-1-2.6s1.7-1.4 2.8-.9l.5.2c1.1.4 1.5 1.6 1 2.6-.3.7-1.1 1.1-1.9 1.1zM295 236.6c-.8 0-1.5-.4-1.9-1.1-.5-1 0-2.1 1-2.6l.5-.2c1-.5 2.3-.1 2.8.9s.1 2.1-1 2.6l-.5.2c-.3.2-.6.2-.9.2zM133.1 235.2c-.3 0-.6-.1-.9-.2l-.5-.2c-1-.5-1.5-1.6-1-2.6s1.8-1.3 2.8-.9l.5.2c1 .5 1.5 1.6 1 2.6-.4.7-1.1 1.1-1.9 1.1zM300.2 234.3c-.8 0-1.5-.4-1.9-1.1-.5-.9-.1-2.1.9-2.6l.5-.2c1-.5 2.3-.1 2.8.8s.1 2.1-.9 2.6l-.5.2c-.2.2-.6.3-.9.3zM127.9 232.8c-.3 0-.7-.1-1-.2l-.5-.2c-1-.5-1.4-1.7-.9-2.6s1.8-1.3 2.9-.8l.5.2c1 .5 1.4 1.7.9 2.6-.4.6-1.1 1-1.9 1zM305.3 231.8c-.7 0-1.5-.4-1.9-1-.6-.9-.2-2.1.8-2.6l.5-.2c1-.5 2.3-.2 2.9.8.6.9.2 2.1-.8 2.6l-.5.2c-.3.2-.6.2-1 .2zM122.9 230.2c-.4 0-.7-.1-1-.3l-.5-.2c-1-.5-1.4-1.7-.8-2.6s1.9-1.2 2.9-.7l.5.2c1 .5 1.4 1.7.8 2.6-.5.7-1.2 1-1.9 1zM117.9 227.5c-.4 0-.8-.1-1.1-.3l-.5-.3c-1-.6-1.3-1.7-.7-2.6s1.9-1.2 2.9-.6l.4.3c1 .6 1.3 1.7.7 2.6-.3.6-1 .9-1.7.9zM112.9 224.7c-.4 0-.8-.1-1.1-.3l-.4-.3c-1-.6-1.3-1.8-.6-2.7.6-.9 1.9-1.1 2.9-.6l.4.3c1 .6 1.3 1.8.6 2.7-.4.6-1.1.9-1.8.9zM108.1 221.8c-.4 0-.8-.1-1.2-.3l-.4-.3c-1-.6-1.2-1.8-.5-2.7s2-1.1 2.9-.5l.4.3c1 .6 1.2 1.8.5 2.7-.4.5-1 .8-1.7.8zM103.4 218.7c-.4 0-.9-.1-1.2-.4l-.4-.3c-.9-.6-1.1-1.8-.5-2.7.7-.9 2-1 2.9-.4l.4.3c.9.6 1.1 1.8.5 2.7-.4.5-1.1.8-1.7.8z"/></g></svg>