<svg xmlns="http://www.w3.org/2000/svg" viewBox="10 -80 380 380"><path d="M376.2 231.7c-24.5-9-47.4-22.3-66.7-39.8 11.5 1.2 22.9 2 34.4.4 1-.1 1.2-1.9.3-2.3-10.1-4.7-20-9.9-29.7-15.6 6.2.8 12.4 1 18.8.5 1.4-.1 1.7-2 .3-2.5-16.4-6.1-31.2-15.4-43.2-28 18.3 6.2 37.8 7.3 56.8 3.5 1.3-.3 1.1-2 0-2.4-20.1-7.3-38.6-18.2-54.5-32.4 9.2.9 18.3 1.6 27.5.3 1.1-.1 1.9-1.7.6-2.3-21.7-10.2-42-22.8-60.6-37.9.6 0 1.3-.1 1.9-.1 13.4 5.7 27.4 9.8 42.2 8.6 1.4-.1 1.7-2 .3-2.5-.3-.1-.7-.3-1-.4-5.6-2.1-10.9-4.8-15.9-7.9.2-.6 0-1.4-.8-1.7-1.1-.3-2.2-.7-3.3-1.1-4-2.8-7.7-6-11.1-9.5 13.8 4.4 28.3 5.1 42.5 2.3 1.3-.3 1.1-2 0-2.4-15.1-5.5-29-13.6-41-24.1 6.7.6 13.4 1.1 20.2.1 1.1-.1 1.9-1.7.6-2.3C278.4 24.5 263.1 15 249 3.7c6.5-.4 13-.8 19.5-1.1 1.4-.1 1.7-2 .3-2.5-.3-.1-.5-.2-.8-.3h-.1C256-4 244.5-9.1 234.1-15.9c-5.4-3.5-10.6-7.5-15.3-11.8-3.1-2.8-5.9-6.7-10.6-5.9-3.2.6-5.3 3.2-7.6 5.3-4.8 4.4-9.9 8.3-15.3 11.9-10.7 7.1-22.5 12.5-34.8 16.3h-.4v.2h-.1c-1.4.4-1.1 2.4.3 2.5 6.5.3 13 .7 19.5 1.1-13.8 11.2-29 20.5-45.1 28.1h-.3v.1c-.2.1-.4.2-.5.3-1.3.6-.4 2.2.6 2.3 6.8.8 13.5.5 20.2-.2-12 10.6-25.9 18.7-41 24.2-1.1.4-1.3 2.1 0 2.4 14.2 2.9 28.7 2.1 42.5-2.3-3.4 3.4-7.1 6.5-11 9.3-1.1.4-2.2.7-3.4 1.1-.9.2-1.1 1.1-.8 1.7-5.1 3.2-10.5 5.9-16.2 8.1h-.4v.2c-.1 0-.2.1-.3.1-1.3.5-1.1 2.3.3 2.5 14.9 1.2 29-2.9 42.5-8.7.6 0 1.1.1 1.7.1-18.6 15.1-39 27.7-60.6 37.9-1.3.6-.4 2.2.6 2.3 9.2 1.2 18.3.6 27.5-.3-15.9 14.2-34.4 25-54.5 32.4-1.1.4-1.3 2.1 0 2.4 19 3.9 38.5 2.7 56.8-3.5-11.9 12.4-26.5 21.7-42.7 27.8h-.2v.1c-.1 0-.2.1-.3.1-1.3.5-1.1 2.3.3 2.5 6.5.6 12.9.3 19.2-.5-9.7 5.7-19.7 10.9-29.9 15.7-.9.4-.8 2.1.3 2.3 11.5 1.5 22.9.8 34.4-.4-19.4 17.5-42.1 30.8-66.7 39.8-1.1.4-1.3 2.1 0 2.4 23.3 4.8 47.3 3.2 69.6-4.6-14.7 15.6-33 27.3-53.2 34.8-1.3.5-1.1 2.3.3 2.5 32.6 2.8 62.8-10.9 91.3-25.1-2.3 9.6-6.3 18.6-11.8 26.8-.7 1 .4 2 1.4 1.8 19.2-4 37.2-12.2 52.5-24.6.5 1.1 1.1 2.2 1.6 3.3 1.1 11.3 2.1 22.5 3.2 33.8.3 2.8.5 5.6 1.7 7.9 1.2 2.2.8 2 5.2 2.2h9.3c4.5.2 4 .1 5.2-2.2s1.4-5.1 1.7-7.9c1.1-11.3 2.1-22.6 3.2-33.9.7-1.1 1.3-2.2 2-3.3 15.3 12.5 33.3 20.8 52.6 24.8 1 .2 2.1-.9 1.4-1.8-5.5-8.3-9.6-17.2-11.8-26.8 28.4 14.2 58.7 27.9 91.3 25.1 1.4-.1 1.7-2 .3-2.5-20.2-7.4-38.5-19.1-53.2-34.8 22.3 7.8 46.4 9.2 69.6 4.6 1.3-.3 1.1-2 0-2.4z" opacity=".35" fill="#4F4F4F"/><path d="M218 243.7l-3.6 38.1c-.3 2.8-.5 5.6-1.7 7.9s-.7 2.4-5.2 2.2h-9.3c-4.4-.2-4 0-5.2-2.2-1.2-2.3-1.4-5.1-1.7-7.9l-3.6-38.1-1.7-25.9h34.2l-2.2 25.9z" fill="#7C3C33"/><path d="M219.3 242.7c14.7 12.6 33.4 21.4 53.3 25.4-6.2-9.1-10.5-19.2-12.5-29.7 28.9 14.4 60.2 29.3 93 26.1-22.5-8.1-42.4-21.7-57.2-38.9 22.9 9.2 49.2 11.4 73.7 6.3-26.4-9.5-50.5-24.1-70-42.6 12.5 1.3 25.2 2.7 37.7.8-27.8-13-53.6-29.3-76.6-48.4 12-.7 24-1.4 36-2-32.6-9.8-62.6-27-85.6-49.9-8.2-8.2-15.6 0-15.6 0-23.2 22.7-53 40.1-85.6 49.9 12 .7 24 1.4 36 2-22.9 19.1-48.8 35.4-76.6 48.4 12.4 1.8 25.2.5 37.7-.8-19.5 18.5-43.6 33.1-70 42.6 24.4 5.2 50.8 2.9 73.7-6.3-14.8 17.2-34.8 30.8-57.2 38.9 32.9 3.2 64.2-11.7 93-26.1-2 10.5-6.3 20.7-12.5 29.7 19.9-3.9 38.5-12.8 53.3-25.4l14.8 29.9 17.2-29.9z" fill="#39A48A"/><path d="M218.4 243.6c15.5 13 34 21.6 53.8 25.7 1 .2 2.1-.9 1.4-1.8-6-9-10.3-18.8-12.4-29.4-.6.5-1.2.9-1.8 1.4 29.1 14.6 60.2 29.2 93.7 26.3 1.4-.1 1.7-2 .3-2.5-21.8-8-41.4-21-56.7-38.6l-1.2 2.1c23.6 9.3 49.5 11.3 74.3 6.3 1.3-.3 1.1-2 0-2.4-25.7-9.4-49.5-23.5-69.4-42.3l-.9 2.1c12.7 1.4 25.3 2.5 38 .8 1-.1 1.2-1.9.3-2.3-27.4-12.8-53-28.9-76.3-48.2l-.9 2.1c12-.7 24-1.4 36-2 1.4-.1 1.7-2 .3-2.5-29.9-9.1-58-24.3-81-45.6-4-3.7-7.8-8.5-13.8-7.9-3 .3-5.5 1.9-7.7 3.9-11.4 10.3-23 19.9-36.2 27.9-15.3 9.3-31.8 16.4-48.9 21.7-1.4.4-1.1 2.4.3 2.5 12 .7 24 1.4 36 2l-.9-2.1c-23.3 19.3-49 35.4-76.3 48.2-.9.4-.8 2.1.3 2.3 12.7 1.7 25.3.6 38-.8l-.9-2.1c-20 18.7-43.7 32.9-69.4 42.3-1.1.4-1.3 2.1 0 2.4 24.9 5.1 50.7 3 74.3-6.3l-1.2-2.1c-15.3 17.5-34.9 30.5-56.7 38.6-1.3.5-1.1 2.3.3 2.5 33.5 2.9 64.5-11.7 93.7-26.3-.6-.5-1.2-.9-1.8-1.4-2.2 10.6-6.4 20.5-12.4 29.4-.7 1 .4 2 1.4 1.8 19.8-4.1 38.3-12.7 53.8-25.7-.7-.1-1.3-.2-2-.3 4.9 10 9.8 20 14.8 29.9.4.9 1.7.8 2.2 0 5.8-10 11.7-20 17.5-29.9.8-1.4-1.3-2.7-2.2-1.3-5.8 10-11.7 20-17.5 29.9h2.2c-4.9-10-9.8-20-14.8-29.9-.4-.8-1.4-.7-2-.3-15.2 12.7-33.3 21.1-52.7 25.1.5.6.9 1.2 1.4 1.8 6.2-9.2 10.5-19.2 12.7-30 .2-1.1-.8-1.9-1.8-1.4-28.8 14.4-59.4 28.8-92.4 26 .1.8.2 1.6.3 2.5 22.2-8.2 42.2-21.4 57.8-39.2.7-.8 0-2.6-1.2-2.1-23.2 9.1-48.6 11.2-73 6.3v2.4c26.1-9.5 50.2-23.9 70.5-42.9.7-.7.2-2.3-.9-2.1-12.4 1.3-24.9 2.6-37.3.9.1.8.2 1.5.3 2.3 27.6-12.9 53.4-29.2 76.8-48.6.9-.7.1-2.1-.9-2.1-12-.7-24-1.4-36-2 .1.8.2 1.6.3 2.5 27.4-8.4 53.3-21.9 75.3-40.3 4.1-3.4 7.7-7.5 11.9-10.8 7.7-6 13.9 2.2 19.3 7.1 10.5 9.5 22.1 17.7 34.4 24.7 14.3 8.1 29.5 14.5 45.3 19.3.1-.8.2-1.6.3-2.5-12 .7-24 1.4-36 2-1 .1-1.8 1.4-.9 2.1 23.4 19.4 49.3 35.7 76.8 48.6.1-.8.2-1.5.3-2.3-12.4 1.7-24.9.4-37.3-.9-1.1-.1-1.6 1.4-.9 2.1 20.3 19.1 44.4 33.4 70.5 42.9v-2.4c-24.4 5-49.8 2.8-73-6.3-1.3-.5-2 1.2-1.2 2.1 15.6 17.9 35.6 31 57.8 39.2.1-.8.2-1.6.3-2.5-33 2.9-63.6-11.6-92.4-26-1-.5-2.1.3-1.8 1.4 2.2 10.8 6.5 20.9 12.7 30 .5-.6.9-1.2 1.4-1.8-19.4-4-37.5-12.3-52.7-25.1-1-.9-2.8.9-1.6 1.9z" fill="#39A48A"/><path d="M216.5 154.7c12.2 10.4 27.5 17.7 44 20.9-5.2-7.5-8.7-15.9-10.4-24.6 23.8 11.9 49.7 24.2 76.8 21.6-18.6-6.7-35-17.9-47.2-32.1 18.9 7.6 40.6 9.4 60.8 5.2-21.8-7.8-41.7-19.9-57.8-35.2 10.3 1.1 20.8 2.2 31.1.7-22.9-10.7-44.3-24.2-63.2-40 9.9-.6 19.8-1.1 29.7-1.7-26.9-8.1-51.6-22.3-70.7-41.2-6.8-6.7-12.9 0-12.9 0C177.5 47.1 153 61.4 126 69.5c9.9.6 19.8 1.1 29.7 1.7-18.9 15.8-40.3 29.3-63.2 40 10.3 1.5 20.8.4 31.1-.7-16.1 15.3-36 27.4-57.8 35.2 20.2 4.3 41.9 2.4 60.8-5.2-12.2 14.2-28.7 25.4-47.2 32.1 27.1 2.6 53-9.7 76.8-21.6-1.7 8.7-5.2 17.1-10.4 24.6 16.4-3.2 31.8-10.6 44-20.9l12.2 24.7 14.5-24.7z" fill="#44B299"/><path d="M215.6 155.6c12.9 10.8 28.1 17.9 44.5 21.3 1 .2 2.1-.9 1.4-1.8-5-7.4-8.4-15.5-10.2-24.3-.6.5-1.2.9-1.8 1.4 24.1 12 49.7 24.1 77.4 21.7 1.4-.1 1.7-2 .3-2.5-18-6.7-34.1-17.3-46.7-31.8l-1.2 2.1c19.6 7.7 40.9 9.3 61.5 5.2 1.3-.3 1.1-2 0-2.4-21.2-7.7-40.7-19.4-57.2-34.9l-.9 2.1c10.4 1.1 20.7 2.1 31.1.7 1.1-.1 1.9-1.7.6-2.3-22.6-10.6-43.7-23.9-63-39.8l-.9 2.1c9.9-.6 19.8-1.1 29.7-1.7 1.4-.1 1.7-2 .3-2.5-15.9-4.9-31.1-11.7-45-20.7-7.2-4.7-14.1-9.9-20.4-15.7-4-3.6-7.8-8.9-13.9-7.6-4.2.9-7.1 4.8-10.2 7.5-6.2 5.6-12.8 10.6-19.8 15.2-14.1 9.3-29.5 16.3-45.7 21.2-1.4.4-1.1 2.4.3 2.5 9.9.6 19.8 1.1 29.7 1.7l-.9-2.1c-19.2 15.9-40.4 29.2-63 39.8-1.3.6-.4 2.2.6 2.3 10.4 1.4 20.7.4 31.1-.7l-.9-2.1c-16.5 15.4-36 27.1-57.2 34.9-1.1.4-1.3 2.1 0 2.4 20.6 4.2 41.9 2.5 61.5-5.2l-1.2-2.1c-12.6 14.4-28.7 25.1-46.7 31.8-1.3.5-1.1 2.3.3 2.5 27.7 2.4 53.3-9.7 77.4-21.7-.6-.5-1.2-.9-1.8-1.4-1.8 8.8-5.2 16.8-10.2 24.3-.7 1 .4 2 1.4 1.8 16.4-3.4 31.6-10.5 44.5-21.3-.7-.1-1.3-.2-2-.3 4.1 8.2 8.1 16.5 12.2 24.7.4.9 1.7.8 2.2 0 4.8-8.2 9.6-16.5 14.5-24.7.8-1.4-1.3-2.7-2.2-1.3-4.8 8.2-9.6 16.5-14.5 24.7h2.2c-4.1-8.2-8.1-16.5-12.2-24.7-.4-.8-1.4-.7-2-.3-12.5 10.5-27.4 17.3-43.4 20.6.5.6.9 1.2 1.4 1.8 5.1-7.6 8.6-15.9 10.5-24.9.2-1.1-.8-1.9-1.8-1.4-23.8 11.9-48.9 23.7-76.2 21.4.1.8.2 1.6.3 2.5 18.4-6.8 34.9-17.7 47.8-32.4.7-.8 0-2.6-1.2-2.1-19.2 7.5-40 9.3-60.2 5.2v2.4c21.6-7.9 41.5-19.8 58.3-35.5.7-.7.2-2.3-.9-2.1-10.4 1.1-20.7 2.1-31.1.7.2.8.4 1.6.6 2.3 22.8-10.7 44.1-24.1 63.5-40.2.9-.7.1-2.1-.9-2.1-9.9-.6-19.8-1.1-29.7-1.7.1.8.2 1.6.3 2.5 14.5-4.4 28.4-10.5 41.4-18.4 6.2-3.7 12.1-7.9 17.7-12.4 3-2.4 5.8-4.8 8.6-7.4 1.7-1.6 3.4-3.6 5.5-4.8 6.9-4 15.6 7.7 20.6 11.8 5.6 4.5 11.5 8.7 17.6 12.5 13.2 8.1 27.4 14.3 42.1 18.8.1-.8.2-1.6.3-2.5-9.9.6-19.8 1.1-29.7 1.7-1 .1-1.8 1.4-.9 2.1 19.4 16 40.7 29.4 63.5 40.2.2-.8.4-1.6.6-2.3-10.4 1.4-20.7.4-31.1-.7-1.1-.1-1.6 1.4-.9 2.1 16.8 15.7 36.7 27.6 58.3 35.5v-2.4c-20.2 4.1-41 2.3-60.2-5.2-1.3-.5-2 1.2-1.2 2.1 12.9 14.8 29.4 25.6 47.8 32.4.1-.8.2-1.6.3-2.5-27.3 2.3-52.4-9.5-76.2-21.4-1-.5-2.1.3-1.8 1.4 1.8 9 5.4 17.3 10.5 24.9.5-.6.9-1.2 1.4-1.8-16-3.3-30.9-10.1-43.4-20.6-.6-.9-2.3.9-1.1 1.9z" fill="#44B299"/><g><path d="M213.4 65.6c9.3 7.9 21.1 13.6 33.7 16-3.9-5.7-6.7-12.2-7.9-18.8 18.2 9.1 38 18.5 58.8 16.5-14.2-5.1-26.8-13.7-36.2-24.6 14.5 5.8 31.1 7.2 46.6 4-16.7-6-31.9-15.3-44.2-26.9 7.9.8 16 1.7 23.8.5-17.6-8.2-33.9-18.5-48.4-30.6 7.6-.4 15.2-.9 22.8-1.3-20.6-6.2-39.6-17.1-54.1-31.5-5.2-5.2-9.9 0-9.9 0C183.7-16.7 164.9-5.8 144.3.4c7.6.4 15.2.9 22.8 1.3-14.5 12.1-30.8 22.4-48.4 30.6 7.9 1.2 15.9.3 23.8-.5-12.3 11.7-27.6 20.9-44.2 26.9 15.5 3.3 32.1 1.8 46.6-4-9.3 10.9-22 19.4-36.2 24.6 20.8 2 40.6-7.4 58.8-16.5-1.3 6.6-4 13.1-7.9 18.8 12.6-2.5 24.3-8.1 33.7-16l9.3 18.9 10.8-18.9z" fill="#55C1A9"/><path d="M212.5 66.5c9.9 8.3 21.6 13.7 34.2 16.4 1 .2 2.1-.9 1.4-1.8-3.8-5.7-6.4-11.8-7.8-18.5-.6.5-1.2.9-1.8 1.4 18.6 9.3 38.2 18.4 59.4 16.7 1.4-.1 1.7-2 .3-2.5-13.7-5.1-25.9-13.2-35.6-24.3l-1.2 2.1c15.1 5.9 31.4 7.1 47.2 4 1.3-.3 1.1-2 0-2.4-16.2-5.9-31.1-14.8-43.7-26.6l-.9 2.1c8 .8 15.8 1.6 23.8.5 1.1-.1 1.9-1.7.6-2.3C271.1 23.2 255 13 240.2.9l-.9 2.1c7.6-.4 15.2-.9 22.8-1.3 1.4-.1 1.7-2 .3-2.5-12.2-3.8-24-9-34.7-16-5.4-3.5-10.6-7.5-15.3-11.8-3.1-2.8-5.9-6.7-10.6-5.9-3.2.6-5.3 3.2-7.6 5.3-4.8 4.4-9.9 8.3-15.3 11.9C168-10.1 156.1-4.6 143.6-.8c-1.4.4-1.1 2.4.3 2.5 7.6.4 15.2.9 22.8 1.3l-.9-2.1c-14.7 12.2-30.9 22.3-48.2 30.4-1.3.6-.4 2.2.6 2.3 8 1 15.9.3 23.8-.5l-.9-2.1c-12.6 11.8-27.5 20.7-43.7 26.6-1.1.4-1.3 2.1 0 2.4 15.9 3.2 32.1 1.9 47.2-4l-1.2-2.1c-9.7 11-21.9 19.2-35.6 24.3-1.3.5-1.1 2.3.3 2.5 21.3 1.7 40.9-7.4 59.4-16.7-.6-.5-1.2-.9-1.8-1.4-1.4 6.7-4 12.8-7.8 18.5-.6 1 .4 2 1.4 1.8 12.6-2.6 24.3-8.1 34.2-16.4-.7-.1-1.3-.2-2-.3l9.3 18.9c.4.9 1.7.8 2.2 0l11.1-18.9c.8-1.4-1.3-2.7-2.2-1.3l-11.1 18.9h2.2l-9.3-18.9c-.4-.8-1.4-.7-2-.3-9.6 8-20.9 13.2-33.1 15.7.5.6.9 1.2 1.4 1.8 3.9-5.9 6.6-12.2 8.1-19.1.2-1.1-.8-1.9-1.8-1.4-18.2 9.1-37.3 18.1-58.2 16.3.1.8.2 1.6.3 2.5 14.1-5.3 26.8-13.6 36.7-24.9.7-.8 0-2.6-1.2-2.1-14.7 5.7-30.5 7-45.9 4v2.4c16.6-6.1 31.8-15.2 44.8-27.3.7-.7.2-2.3-.9-2.1-8 .8-15.8 1.6-23.8.5.2.8.4 1.6.6 2.3 17.5-8.2 33.8-18.5 48.7-30.8.9-.7.1-2.1-.9-2.1-7.6-.4-15.2-.9-22.8-1.3.1.8.2 1.6.3 2.5 10.8-3.3 21.3-7.8 31-13.7 4.8-2.9 9.4-6.1 13.8-9.6 3.7-2.9 6.9-6.8 10.7-9.4 5.3-3.5 13 6.3 16.9 9.4 4.2 3.3 8.6 6.4 13.1 9.1 10 6 20.7 10.7 31.8 14.1.1-.8.2-1.6.3-2.5-7.6.4-15.2.9-22.8 1.3-1 .1-1.8 1.4-.9 2.1 14.9 12.3 31.2 22.6 48.7 30.8.2-.8.4-1.6.6-2.3-8 1-15.9.3-23.8-.5-1.1-.1-1.6 1.4-.9 2.1 13 12.1 28.2 21.2 44.8 27.3v-2.4c-15.4 3.1-31.2 1.7-45.9-4-1.3-.5-2 1.2-1.2 2.1 10 11.4 22.6 19.6 36.7 24.9.1-.8.2-1.6.3-2.5-20.9 1.7-40-7.3-58.2-16.3-1-.5-2.1.3-1.8 1.4 1.5 6.9 4.2 13.2 8.1 19.1.5-.6.9-1.2 1.4-1.8-12.2-2.6-23.5-7.7-33.1-15.7-.6-.8-2.4.9-1.1 2z" fill="#55C1A9"/></g><g><g fill="#FFF"><path d="M158.9 13.9c-.6 0-1.3-.3-1.7-.9-.1-.1-.1-.1-.1-.2-.7-.8-.7-2 .1-2.8.8-.8 2-.8 2.8 0 .2.2.3.4.6.7.6.9.4 2.2-.6 2.8-.3.3-.7.4-1.1.4zM209.1 34.3H208c-1.1 0-2-.9-2-2s.9-2 2-2h1c1.1 0 2 .9 2 2 .1 1.1-.8 2-1.9 2zm10.1-.6c-1 0-1.9-.8-2-1.8-.1-1.1.7-2.1 1.8-2.2.3 0 .7-.1 1-.1 1.1-.1 2.1.6 2.2 1.7.1 1.1-.6 2.1-1.7 2.2-.3 0-.7.1-1 .1-.2.1-.2.1-.3.1zm-21.2-.3h-.3c-.3-.1-.7-.1-1-.2-1.1-.2-1.8-1.2-1.6-2.3.2-1.1 1.2-1.8 2.3-1.6.3.1.6.1 1 .2 1.1.2 1.8 1.2 1.7 2.3-.3.9-1.1 1.6-2.1 1.6zm32.1-1.5c-.9 0-1.7-.6-1.9-1.5-.2-1.1.4-2.2 1.5-2.4.3-.1.6-.1 1-.2 1.1-.3 2.2.4 2.4 1.5.3 1.1-.4 2.2-1.5 2.4-.3.1-.7.2-1 .2-.2-.1-.3 0-.5 0zm-42.9-1c-.2 0-.4 0-.6-.1-.3-.1-.7-.2-1-.3-1-.3-1.6-1.5-1.3-2.5.3-1.1 1.5-1.6 2.5-1.3l.9.3c1.1.3 1.6 1.5 1.3 2.5-.2.8-1 1.4-1.8 1.4zm53.6-2.1c-.8 0-1.6-.5-1.9-1.4-.4-1 .2-2.2 1.2-2.5l.9-.3c1-.4 2.2.2 2.6 1.2.4 1-.2 2.2-1.2 2.6l-1 .3c-.1 0-.4.1-.6.1zm-63.9-2.1c-.3 0-.6-.1-.9-.2-.3-.2-.6-.3-.9-.5-1-.5-1.4-1.7-.9-2.7.5-1 1.7-1.4 2.7-.9.3.1.6.3.9.4 1 .5 1.4 1.7.9 2.7-.4.8-1.1 1.2-1.8 1.2zm-9.6-5.6c-.4 0-.8-.1-1.2-.4-.3-.2-.6-.4-.8-.6-.9-.7-1.1-1.9-.4-2.8.7-.9 1.9-1.1 2.8-.4.3.2.5.4.8.6.9.6 1.1 1.9.5 2.8-.4.5-1.1.8-1.7.8zM251.2 24.7c-.7 0-1.4-.4-1.8-1.1-.5-1-.1-2.2.9-2.7.2-.1.4-.2.5-.2 1-.5 2.2-.1 2.7.9s.1 2.2-.9 2.7c-.2.1-.4.2-.5.2-.3.1-.6.2-.9.2z"/></g></g><path d="M179.7 140.6h-.1c-1.1 0-2-.9-2-2s.9-2 2-2h1c1.1 0 2 .9 2 2s-.9 2-2 2h-.9zm-10.2-.3h-.1l-1-.1c-1.1-.1-1.9-1-1.9-2.1.1-1.1 1-1.9 2.1-1.9l1 .1c1.1.1 1.9 1 1.9 2.1s-.9 1.9-2 1.9zm21-.1c-1 0-1.9-.8-2-1.9-.1-1.1.8-2.1 1.9-2.1l1-.1c1.1-.1 2.1.7 2.1 1.8.1 1.1-.7 2.1-1.8 2.1l-1 .1c-.1.1-.1.1-.2.1zm-31.9-1h-.2l-1-.1c-1.1-.1-1.9-1.2-1.7-2.2.1-1.1 1.2-1.9 2.2-1.7l1 .1c1.1.1 1.9 1.1 1.7 2.2-.2 1-1 1.7-2 1.7zm42.8-.1c-1 0-1.8-.7-2-1.7-.2-1.1.6-2.1 1.7-2.3l1-.1c1.1-.2 2.1.6 2.3 1.7.2 1.1-.6 2.1-1.7 2.3l-1 .1c-.1-.1-.2 0-.3 0zm-53.7-1.5h-.4l-1-.2c-1.1-.2-1.8-1.3-1.6-2.3.2-1.1 1.3-1.8 2.3-1.6l1 .2c1.1.2 1.8 1.2 1.6 2.3-.1.9-.9 1.6-1.9 1.6zm64.6-.5c-.9 0-1.7-.6-2-1.6-.2-1.1.4-2.1 1.5-2.4l1-.2c1.1-.2 2.1.4 2.4 1.5.2 1.1-.4 2.1-1.5 2.4l-1 .2c-.1.1-.3.1-.4.1zm-75.3-1.9c-.2 0-.3 0-.5-.1l-1-.2c-1.1-.3-1.7-1.3-1.5-2.4s1.3-1.7 2.4-1.5l1 .2c1.1.3 1.7 1.3 1.5 2.4-.2 1-1 1.6-1.9 1.6zm85.9-.9c-.9 0-1.7-.6-1.9-1.4-.3-1.1.3-2.2 1.3-2.5l.9-.3c1.1-.3 2.2.3 2.5 1.3.3 1.1-.3 2.2-1.3 2.5l-1 .3c-.1.1-.3.1-.5.1zm-96.5-1.9c-.2 0-.4 0-.6-.1l-1-.3c-1.1-.3-1.7-1.4-1.3-2.5.3-1.1 1.4-1.7 2.5-1.3l1 .3c1.1.3 1.7 1.4 1.3 2.5-.3.8-1.1 1.4-1.9 1.4zm106.9-1.6c-.8 0-1.6-.5-1.9-1.3-.4-1 .1-2.2 1.1-2.6l.9-.4c1-.4 2.2.1 2.6 1.1s-.1 2.2-1.1 2.6l-.9.4c-.2.1-.4.2-.7.2zm-117.4-1.9c-.2 0-.4 0-.7-.1l-1-.3c-1-.4-1.6-1.5-1.2-2.6.4-1 1.5-1.6 2.6-1.2l.9.3c1 .4 1.6 1.5 1.2 2.6-.2.8-1 1.3-1.8 1.3zm127.5-2.5c-.7 0-1.5-.4-1.8-1.1-.5-1-.1-2.2.9-2.7l.9-.4c1-.5 2.2-.1 2.7.9s.1 2.2-.9 2.7l-.9.4c-.3.1-.6.2-.9.2zm9.7-5.2c-.7 0-1.4-.4-1.7-1-.6-1-.2-2.2.7-2.7l.9-.5c1-.6 2.2-.2 2.7.7s.2 2.2-.7 2.7l-.9.5c-.3.2-.6.3-1 .3zm9.3-5.9c-.6 0-1.2-.3-1.6-.9-.6-.9-.4-2.2.5-2.8l.8-.6c.9-.6 2.1-.4 2.8.5.6.9.4 2.1-.5 2.8l-.8.6c-.4.2-.8.4-1.2.4zm8.7-6.7c-.6 0-1.1-.2-1.5-.7-.7-.8-.6-2.1.2-2.8l.7-.6c.8-.7 2.1-.6 2.8.2s.6 2.1-.2 2.8c-.3.2-.5.4-.8.7-.3.2-.7.4-1.2.4zm8-7.6c-.5 0-1-.2-1.4-.5-.8-.7-.9-2-.1-2.8.4-.4.6-.7.6-.7.7-.8 2-.9 2.8-.2.8.7.9 2 .2 2.8 0 0-.2.3-.7.8-.3.4-.8.6-1.4.6zM210.3 222.6h-1.1c-1.1 0-2-1-1.9-2.1 0-1.1 1-2 2.1-1.9h1c1.1 0 2 .9 2 2-.1 1.1-1 2-2.1 2zm10 0c-1.1 0-2-.9-2-1.9 0-1.1.8-2 1.9-2.1h1c1.1-.1 2 .8 2.1 1.9 0 1.1-.8 2-1.9 2.1h-1.1c.1 0 0 0 0 0zm-20.9-.6h-.2l-1-.1c-1.1-.1-1.9-1.1-1.8-2.2s1.1-1.9 2.2-1.8l1 .1c1.1.1 1.9 1.1 1.8 2.2-.1 1-1 1.8-2 1.8zm31.9 0c-1 0-1.9-.8-2-1.8-.1-1.1.7-2.1 1.8-2.2l1-.1c1.1-.1 2.1.7 2.2 1.8.1 1.1-.7 2.1-1.8 2.2l-1 .1h-.2zm-42.9-1.1h-.3l-1-.1c-1.1-.2-1.9-1.2-1.7-2.3s1.2-1.8 2.3-1.7l1 .1c1.1.1 1.9 1.2 1.7 2.2-.1 1-1 1.8-2 1.8zm53.9-.1c-1 0-1.8-.7-2-1.7-.1-1.1.6-2.1 1.7-2.2l1-.1c1.1-.1 2.1.6 2.2 1.7s-.6 2.1-1.7 2.3l-1 .1c-.1-.1-.2-.1-.2-.1zm10.8-1.6c-1 0-1.8-.7-2-1.6-.2-1.1.5-2.1 1.6-2.3l1-.2c1.1-.2 2.1.5 2.3 1.6.2 1.1-.5 2.1-1.6 2.3l-1 .2c0-.1-.2 0-.3 0zm-75.5-.1h-.4l-1-.2c-1.1-.2-1.8-1.3-1.6-2.4.2-1.1 1.3-1.8 2.4-1.6l1 .2c1.1.2 1.8 1.3 1.6 2.4-.3.9-1.1 1.6-2 1.6zm86.3-2.1c-.9 0-1.7-.6-1.9-1.6-.2-1.1.4-2.1 1.5-2.4l1-.2c1.1-.2 2.2.4 2.4 1.5.2 1.1-.4 2.2-1.5 2.4l-1 .2c-.2 0-.4.1-.5.1zm-97.1-.4c-.2 0-.3 0-.5-.1l-1-.3c-1.1-.3-1.7-1.4-1.4-2.4.3-1.1 1.4-1.7 2.4-1.4l1 .2c1.1.3 1.7 1.4 1.4 2.4-.2 1-1 1.6-1.9 1.6zm107.8-2.3c-.9 0-1.7-.6-1.9-1.5-.3-1.1.3-2.2 1.4-2.5l1-.3c1.1-.3 2.2.3 2.5 1.4.3 1.1-.3 2.2-1.4 2.5l-1 .3c-.3 0-.5.1-.6.1zm-118.3-.7c-.2 0-.4 0-.6-.1l-1-.3c-1-.3-1.6-1.5-1.3-2.5.3-1 1.5-1.6 2.5-1.3l.9.3c1.1.3 1.6 1.5 1.3 2.5-.2.8-1 1.4-1.8 1.4zm128.8-2.5c-.8 0-1.6-.5-1.9-1.4-.3-1.1.2-2.2 1.3-2.5l.9-.3c1.1-.3 2.2.2 2.5 1.3.3 1-.2 2.2-1.3 2.5l-1 .3c-.1.1-.3.1-.5.1zm-139.2-1.2c-.2 0-.5 0-.7-.1l-.9-.4c-1-.4-1.5-1.6-1.1-2.6s1.6-1.5 2.6-1.1l.9.4c1 .4 1.5 1.6 1.1 2.6-.3.7-1.1 1.2-1.9 1.2zm149.6-2.4c-.8 0-1.6-.5-1.9-1.3-.4-1 .2-2.2 1.2-2.6l.9-.3c1-.4 2.2.2 2.6 1.2.4 1-.2 2.2-1.2 2.6l-.9.3c-.2.1-.5.1-.7.1zm-159.7-1.9c-.3 0-.6-.1-.8-.2l-1-.4c-1-.5-1.4-1.7-1-2.7.5-1 1.7-1.4 2.7-1l.9.4c1 .5 1.4 1.6 1 2.7-.3.7-1.1 1.2-1.8 1.2zm-9.9-4.9c-.3 0-.6-.1-.9-.2l-.9-.5c-1-.5-1.3-1.7-.8-2.7.5-1 1.7-1.3 2.7-.8l.9.5c1 .5 1.3 1.7.8 2.7-.4.6-1 1-1.8 1zm-10.5-5.9l-.9-.5c-.9-.6-1.2-1.8-.6-2.8.6-.9 1.8-1.2 2.8-.6l.8.5-1 1.7-1.1 1.7zm-8.1-5.8c-.4 0-.8-.1-1.2-.4l-.8-.6c-.9-.7-1.1-1.9-.4-2.8.7-.9 1.9-1.1 2.8-.4l.8.6c.9.7 1.1 1.9.4 2.8-.4.5-1 .8-1.6.8zm-8.6-7c-.5 0-1-.2-1.3-.5-.5-.5-.8-.7-.8-.7-.8-.8-.8-2 0-2.8.8-.8 2-.8 2.8 0 0 0 .2.2.7.6.8.7.9 2 .1 2.8-.4.4-.9.6-1.5.6z" fill="#FFF"/></svg>